G04 #@! TF.GenerationSoftware,KiCad,Pcbnew,5.1.5-52549c5~84~ubuntu19.04.1*
G04 #@! TF.CreationDate,2020-02-16T02:06:15+01:00*
G04 #@! TF.ProjectId,ilulissat,696c756c-6973-4736-9174-2e6b69636164,rev?*
G04 #@! TF.SameCoordinates,Original*
G04 #@! TF.FileFunction,Soldermask,Top*
G04 #@! TF.FilePolarity,Negative*
%FSLAX46Y46*%
G04 Gerber Fmt 4.6, Leading zero omitted, Abs format (unit mm)*
G04 Created by KiCad (PCBNEW 5.1.5-52549c5~84~ubuntu19.04.1) date 2020-02-16 02:06:15*
%MOMM*%
%LPD*%
G04 APERTURE LIST*
%ADD10C,0.100000*%
G04 APERTURE END LIST*
D10*
G36*
X149850318Y-109245153D02*
G01*
X150068885Y-109335687D01*
X150068887Y-109335688D01*
X150265593Y-109467122D01*
X150432878Y-109634407D01*
X150564312Y-109831113D01*
X150564313Y-109831115D01*
X150654847Y-110049682D01*
X150701000Y-110281710D01*
X150701000Y-110518290D01*
X150654847Y-110750318D01*
X150564313Y-110968885D01*
X150564312Y-110968887D01*
X150432878Y-111165593D01*
X150265593Y-111332878D01*
X150068887Y-111464312D01*
X150068886Y-111464313D01*
X150068885Y-111464313D01*
X149850318Y-111554847D01*
X149618290Y-111601000D01*
X149381710Y-111601000D01*
X149149682Y-111554847D01*
X148931115Y-111464313D01*
X148931114Y-111464313D01*
X148931113Y-111464312D01*
X148734407Y-111332878D01*
X148567122Y-111165593D01*
X148435688Y-110968887D01*
X148435687Y-110968885D01*
X148345153Y-110750318D01*
X148299000Y-110518290D01*
X148299000Y-110281710D01*
X148345153Y-110049682D01*
X148435687Y-109831115D01*
X148435688Y-109831113D01*
X148567122Y-109634407D01*
X148734407Y-109467122D01*
X148931113Y-109335688D01*
X148931115Y-109335687D01*
X149149682Y-109245153D01*
X149381710Y-109199000D01*
X149618290Y-109199000D01*
X149850318Y-109245153D01*
G37*
G36*
X146850318Y-109245153D02*
G01*
X147068885Y-109335687D01*
X147068887Y-109335688D01*
X147265593Y-109467122D01*
X147432878Y-109634407D01*
X147564312Y-109831113D01*
X147564313Y-109831115D01*
X147654847Y-110049682D01*
X147701000Y-110281710D01*
X147701000Y-110518290D01*
X147654847Y-110750318D01*
X147564313Y-110968885D01*
X147564312Y-110968887D01*
X147432878Y-111165593D01*
X147265593Y-111332878D01*
X147068887Y-111464312D01*
X147068886Y-111464313D01*
X147068885Y-111464313D01*
X146850318Y-111554847D01*
X146618290Y-111601000D01*
X146381710Y-111601000D01*
X146149682Y-111554847D01*
X145931115Y-111464313D01*
X145931114Y-111464313D01*
X145931113Y-111464312D01*
X145734407Y-111332878D01*
X145567122Y-111165593D01*
X145435688Y-110968887D01*
X145435687Y-110968885D01*
X145345153Y-110750318D01*
X145299000Y-110518290D01*
X145299000Y-110281710D01*
X145345153Y-110049682D01*
X145435687Y-109831115D01*
X145435688Y-109831113D01*
X145567122Y-109634407D01*
X145734407Y-109467122D01*
X145931113Y-109335688D01*
X145931115Y-109335687D01*
X146149682Y-109245153D01*
X146381710Y-109199000D01*
X146618290Y-109199000D01*
X146850318Y-109245153D01*
G37*
G36*
X152501000Y-110101000D02*
G01*
X151499000Y-110101000D01*
X151499000Y-108299000D01*
X152501000Y-108299000D01*
X152501000Y-110101000D01*
G37*
G36*
X155901000Y-110101000D02*
G01*
X154899000Y-110101000D01*
X154899000Y-108299000D01*
X155901000Y-108299000D01*
X155901000Y-110101000D01*
G37*
G36*
X149691938Y-107406716D02*
G01*
X149712557Y-107412971D01*
X149731553Y-107423124D01*
X149748208Y-107436792D01*
X149761876Y-107453447D01*
X149772029Y-107472443D01*
X149778284Y-107493062D01*
X149781000Y-107520640D01*
X149781000Y-108029360D01*
X149778284Y-108056938D01*
X149772029Y-108077557D01*
X149761876Y-108096553D01*
X149748208Y-108113208D01*
X149731553Y-108126876D01*
X149712557Y-108137029D01*
X149691938Y-108143284D01*
X149664360Y-108146000D01*
X149205640Y-108146000D01*
X149178062Y-108143284D01*
X149157443Y-108137029D01*
X149138447Y-108126876D01*
X149121792Y-108113208D01*
X149108124Y-108096553D01*
X149097971Y-108077557D01*
X149091716Y-108056938D01*
X149089000Y-108029360D01*
X149089000Y-107520640D01*
X149091716Y-107493062D01*
X149097971Y-107472443D01*
X149108124Y-107453447D01*
X149121792Y-107436792D01*
X149138447Y-107423124D01*
X149157443Y-107412971D01*
X149178062Y-107406716D01*
X149205640Y-107404000D01*
X149664360Y-107404000D01*
X149691938Y-107406716D01*
G37*
G36*
X148721938Y-107406716D02*
G01*
X148742557Y-107412971D01*
X148761553Y-107423124D01*
X148778208Y-107436792D01*
X148791876Y-107453447D01*
X148802029Y-107472443D01*
X148808284Y-107493062D01*
X148811000Y-107520640D01*
X148811000Y-108029360D01*
X148808284Y-108056938D01*
X148802029Y-108077557D01*
X148791876Y-108096553D01*
X148778208Y-108113208D01*
X148761553Y-108126876D01*
X148742557Y-108137029D01*
X148721938Y-108143284D01*
X148694360Y-108146000D01*
X148235640Y-108146000D01*
X148208062Y-108143284D01*
X148187443Y-108137029D01*
X148168447Y-108126876D01*
X148151792Y-108113208D01*
X148138124Y-108096553D01*
X148127971Y-108077557D01*
X148121716Y-108056938D01*
X148119000Y-108029360D01*
X148119000Y-107520640D01*
X148121716Y-107493062D01*
X148127971Y-107472443D01*
X148138124Y-107453447D01*
X148151792Y-107436792D01*
X148168447Y-107423124D01*
X148187443Y-107412971D01*
X148208062Y-107406716D01*
X148235640Y-107404000D01*
X148694360Y-107404000D01*
X148721938Y-107406716D01*
G37*
G36*
X147766938Y-107406716D02*
G01*
X147787557Y-107412971D01*
X147806553Y-107423124D01*
X147823208Y-107436792D01*
X147836876Y-107453447D01*
X147847029Y-107472443D01*
X147853284Y-107493062D01*
X147856000Y-107520640D01*
X147856000Y-108029360D01*
X147853284Y-108056938D01*
X147847029Y-108077557D01*
X147836876Y-108096553D01*
X147823208Y-108113208D01*
X147806553Y-108126876D01*
X147787557Y-108137029D01*
X147766938Y-108143284D01*
X147739360Y-108146000D01*
X147280640Y-108146000D01*
X147253062Y-108143284D01*
X147232443Y-108137029D01*
X147213447Y-108126876D01*
X147196792Y-108113208D01*
X147183124Y-108096553D01*
X147172971Y-108077557D01*
X147166716Y-108056938D01*
X147164000Y-108029360D01*
X147164000Y-107520640D01*
X147166716Y-107493062D01*
X147172971Y-107472443D01*
X147183124Y-107453447D01*
X147196792Y-107436792D01*
X147213447Y-107423124D01*
X147232443Y-107412971D01*
X147253062Y-107406716D01*
X147280640Y-107404000D01*
X147739360Y-107404000D01*
X147766938Y-107406716D01*
G37*
G36*
X146796938Y-107406716D02*
G01*
X146817557Y-107412971D01*
X146836553Y-107423124D01*
X146853208Y-107436792D01*
X146866876Y-107453447D01*
X146877029Y-107472443D01*
X146883284Y-107493062D01*
X146886000Y-107520640D01*
X146886000Y-108029360D01*
X146883284Y-108056938D01*
X146877029Y-108077557D01*
X146866876Y-108096553D01*
X146853208Y-108113208D01*
X146836553Y-108126876D01*
X146817557Y-108137029D01*
X146796938Y-108143284D01*
X146769360Y-108146000D01*
X146310640Y-108146000D01*
X146283062Y-108143284D01*
X146262443Y-108137029D01*
X146243447Y-108126876D01*
X146226792Y-108113208D01*
X146213124Y-108096553D01*
X146202971Y-108077557D01*
X146196716Y-108056938D01*
X146194000Y-108029360D01*
X146194000Y-107520640D01*
X146196716Y-107493062D01*
X146202971Y-107472443D01*
X146213124Y-107453447D01*
X146226792Y-107436792D01*
X146243447Y-107423124D01*
X146262443Y-107412971D01*
X146283062Y-107406716D01*
X146310640Y-107404000D01*
X146769360Y-107404000D01*
X146796938Y-107406716D01*
G37*
G36*
X142971938Y-106531716D02*
G01*
X142992557Y-106537971D01*
X143011553Y-106548124D01*
X143028208Y-106561792D01*
X143041876Y-106578447D01*
X143052029Y-106597443D01*
X143058284Y-106618062D01*
X143061000Y-106645640D01*
X143061000Y-107154360D01*
X143058284Y-107181938D01*
X143052029Y-107202557D01*
X143041876Y-107221553D01*
X143028208Y-107238208D01*
X143011553Y-107251876D01*
X142992557Y-107262029D01*
X142971938Y-107268284D01*
X142944360Y-107271000D01*
X142485640Y-107271000D01*
X142458062Y-107268284D01*
X142437443Y-107262029D01*
X142418447Y-107251876D01*
X142401792Y-107238208D01*
X142388124Y-107221553D01*
X142377971Y-107202557D01*
X142371716Y-107181938D01*
X142369000Y-107154360D01*
X142369000Y-106645640D01*
X142371716Y-106618062D01*
X142377971Y-106597443D01*
X142388124Y-106578447D01*
X142401792Y-106561792D01*
X142418447Y-106548124D01*
X142437443Y-106537971D01*
X142458062Y-106531716D01*
X142485640Y-106529000D01*
X142944360Y-106529000D01*
X142971938Y-106531716D01*
G37*
G36*
X143941938Y-106531716D02*
G01*
X143962557Y-106537971D01*
X143981553Y-106548124D01*
X143998208Y-106561792D01*
X144011876Y-106578447D01*
X144022029Y-106597443D01*
X144028284Y-106618062D01*
X144031000Y-106645640D01*
X144031000Y-107154360D01*
X144028284Y-107181938D01*
X144022029Y-107202557D01*
X144011876Y-107221553D01*
X143998208Y-107238208D01*
X143981553Y-107251876D01*
X143962557Y-107262029D01*
X143941938Y-107268284D01*
X143914360Y-107271000D01*
X143455640Y-107271000D01*
X143428062Y-107268284D01*
X143407443Y-107262029D01*
X143388447Y-107251876D01*
X143371792Y-107238208D01*
X143358124Y-107221553D01*
X143347971Y-107202557D01*
X143341716Y-107181938D01*
X143339000Y-107154360D01*
X143339000Y-106645640D01*
X143341716Y-106618062D01*
X143347971Y-106597443D01*
X143358124Y-106578447D01*
X143371792Y-106561792D01*
X143388447Y-106548124D01*
X143407443Y-106537971D01*
X143428062Y-106531716D01*
X143455640Y-106529000D01*
X143914360Y-106529000D01*
X143941938Y-106531716D01*
G37*
G36*
X152501000Y-106701000D02*
G01*
X151499000Y-106701000D01*
X151499000Y-104899000D01*
X152501000Y-104899000D01*
X152501000Y-106701000D01*
G37*
G36*
X155901000Y-106701000D02*
G01*
X154899000Y-106701000D01*
X154899000Y-104899000D01*
X155901000Y-104899000D01*
X155901000Y-106701000D01*
G37*
G36*
X147601000Y-105951000D02*
G01*
X146299000Y-105951000D01*
X146299000Y-104449000D01*
X147601000Y-104449000D01*
X147601000Y-105951000D01*
G37*
G36*
X149301000Y-105951000D02*
G01*
X147999000Y-105951000D01*
X147999000Y-104449000D01*
X149301000Y-104449000D01*
X149301000Y-105951000D01*
G37*
G36*
X142001000Y-103174001D02*
G01*
X142003402Y-103198387D01*
X142010515Y-103221836D01*
X142022066Y-103243447D01*
X142037611Y-103262389D01*
X142056553Y-103277934D01*
X142078164Y-103289485D01*
X142101613Y-103296598D01*
X142125999Y-103299000D01*
X142324001Y-103299000D01*
X142348387Y-103296598D01*
X142371836Y-103289485D01*
X142393447Y-103277934D01*
X142412389Y-103262389D01*
X142427934Y-103243447D01*
X142439485Y-103221836D01*
X142446598Y-103198387D01*
X142449000Y-103174001D01*
X142449000Y-102349000D01*
X142951000Y-102349000D01*
X142951000Y-103174001D01*
X142953402Y-103198387D01*
X142960515Y-103221836D01*
X142972066Y-103243447D01*
X142987611Y-103262389D01*
X143006553Y-103277934D01*
X143028164Y-103289485D01*
X143051613Y-103296598D01*
X143075999Y-103299000D01*
X143274001Y-103299000D01*
X143298387Y-103296598D01*
X143321836Y-103289485D01*
X143343447Y-103277934D01*
X143362389Y-103262389D01*
X143377934Y-103243447D01*
X143389485Y-103221836D01*
X143396598Y-103198387D01*
X143399000Y-103174001D01*
X143399000Y-102349000D01*
X143901000Y-102349000D01*
X143901000Y-103174001D01*
X143903402Y-103198387D01*
X143910515Y-103221836D01*
X143922066Y-103243447D01*
X143937611Y-103262389D01*
X143951000Y-103273377D01*
X143951000Y-104926623D01*
X143937611Y-104937611D01*
X143922066Y-104956553D01*
X143910515Y-104978164D01*
X143903402Y-105001613D01*
X143901000Y-105025999D01*
X143901000Y-105851000D01*
X143399000Y-105851000D01*
X143399000Y-105025999D01*
X143396598Y-105001613D01*
X143389485Y-104978164D01*
X143377934Y-104956553D01*
X143362389Y-104937611D01*
X143343447Y-104922066D01*
X143321836Y-104910515D01*
X143298387Y-104903402D01*
X143274001Y-104901000D01*
X143075999Y-104901000D01*
X143051613Y-104903402D01*
X143028164Y-104910515D01*
X143006553Y-104922066D01*
X142987611Y-104937611D01*
X142972066Y-104956553D01*
X142960515Y-104978164D01*
X142953402Y-105001613D01*
X142951000Y-105025999D01*
X142951000Y-105851000D01*
X142449000Y-105851000D01*
X142449000Y-105025999D01*
X142446598Y-105001613D01*
X142439485Y-104978164D01*
X142427934Y-104956553D01*
X142412389Y-104937611D01*
X142393447Y-104922066D01*
X142371836Y-104910515D01*
X142348387Y-104903402D01*
X142324001Y-104901000D01*
X142125999Y-104901000D01*
X142101613Y-104903402D01*
X142078164Y-104910515D01*
X142056553Y-104922066D01*
X142037611Y-104937611D01*
X142022066Y-104956553D01*
X142010515Y-104978164D01*
X142003402Y-105001613D01*
X142001000Y-105025999D01*
X142001000Y-105851000D01*
X141499000Y-105851000D01*
X141499000Y-105025999D01*
X141496598Y-105001613D01*
X141489485Y-104978164D01*
X141477934Y-104956553D01*
X141462389Y-104937611D01*
X141449000Y-104926623D01*
X141449000Y-103273377D01*
X141462389Y-103262389D01*
X141477934Y-103243447D01*
X141489485Y-103221836D01*
X141496598Y-103198387D01*
X141499000Y-103174001D01*
X141499000Y-102349000D01*
X142001000Y-102349000D01*
X142001000Y-103174001D01*
G37*
G36*
X161551000Y-104051000D02*
G01*
X160849000Y-104051000D01*
X160849000Y-102449000D01*
X161551000Y-102449000D01*
X161551000Y-104051000D01*
G37*
G36*
X159951000Y-104051000D02*
G01*
X159249000Y-104051000D01*
X159249000Y-102449000D01*
X159951000Y-102449000D01*
X159951000Y-104051000D01*
G37*
G36*
X149301000Y-103751000D02*
G01*
X147999000Y-103751000D01*
X147999000Y-102249000D01*
X149301000Y-102249000D01*
X149301000Y-103751000D01*
G37*
G36*
X147601000Y-103751000D02*
G01*
X146299000Y-103751000D01*
X146299000Y-102249000D01*
X147601000Y-102249000D01*
X147601000Y-103751000D01*
G37*
G36*
X151659928Y-101069216D02*
G01*
X151680547Y-101075471D01*
X151699543Y-101085624D01*
X151716198Y-101099292D01*
X151729866Y-101115947D01*
X151740019Y-101134943D01*
X151746274Y-101155562D01*
X151748990Y-101183140D01*
X151748990Y-101641860D01*
X151746274Y-101669438D01*
X151740019Y-101690057D01*
X151729866Y-101709053D01*
X151716198Y-101725708D01*
X151699543Y-101739376D01*
X151680547Y-101749529D01*
X151659928Y-101755784D01*
X151632350Y-101758500D01*
X151123630Y-101758500D01*
X151096052Y-101755784D01*
X151075433Y-101749529D01*
X151056437Y-101739376D01*
X151039782Y-101725708D01*
X151026114Y-101709053D01*
X151015961Y-101690057D01*
X151009706Y-101669438D01*
X151006990Y-101641860D01*
X151006990Y-101183140D01*
X151009706Y-101155562D01*
X151015961Y-101134943D01*
X151026114Y-101115947D01*
X151039782Y-101099292D01*
X151056437Y-101085624D01*
X151075433Y-101075471D01*
X151096052Y-101069216D01*
X151123630Y-101066500D01*
X151632350Y-101066500D01*
X151659928Y-101069216D01*
G37*
G36*
X152681938Y-101069216D02*
G01*
X152702557Y-101075471D01*
X152721553Y-101085624D01*
X152738208Y-101099292D01*
X152751876Y-101115947D01*
X152762029Y-101134943D01*
X152768284Y-101155562D01*
X152771000Y-101183140D01*
X152771000Y-101641860D01*
X152768284Y-101669438D01*
X152762029Y-101690057D01*
X152751876Y-101709053D01*
X152738208Y-101725708D01*
X152721553Y-101739376D01*
X152702557Y-101749529D01*
X152681938Y-101755784D01*
X152654360Y-101758500D01*
X152145640Y-101758500D01*
X152118062Y-101755784D01*
X152097443Y-101749529D01*
X152078447Y-101739376D01*
X152061792Y-101725708D01*
X152048124Y-101709053D01*
X152037971Y-101690057D01*
X152031716Y-101669438D01*
X152029000Y-101641860D01*
X152029000Y-101183140D01*
X152031716Y-101155562D01*
X152037971Y-101134943D01*
X152048124Y-101115947D01*
X152061792Y-101099292D01*
X152078447Y-101085624D01*
X152097443Y-101075471D01*
X152118062Y-101069216D01*
X152145640Y-101066500D01*
X152654360Y-101066500D01*
X152681938Y-101069216D01*
G37*
G36*
X153681938Y-101056516D02*
G01*
X153702557Y-101062771D01*
X153721553Y-101072924D01*
X153738208Y-101086592D01*
X153751876Y-101103247D01*
X153762029Y-101122243D01*
X153768284Y-101142862D01*
X153771000Y-101170440D01*
X153771000Y-101629160D01*
X153768284Y-101656738D01*
X153762029Y-101677357D01*
X153751876Y-101696353D01*
X153738208Y-101713008D01*
X153721553Y-101726676D01*
X153702557Y-101736829D01*
X153681938Y-101743084D01*
X153654360Y-101745800D01*
X153145640Y-101745800D01*
X153118062Y-101743084D01*
X153097443Y-101736829D01*
X153078447Y-101726676D01*
X153061792Y-101713008D01*
X153048124Y-101696353D01*
X153037971Y-101677357D01*
X153031716Y-101656738D01*
X153029000Y-101629160D01*
X153029000Y-101170440D01*
X153031716Y-101142862D01*
X153037971Y-101122243D01*
X153048124Y-101103247D01*
X153061792Y-101086592D01*
X153078447Y-101072924D01*
X153097443Y-101062771D01*
X153118062Y-101056516D01*
X153145640Y-101053800D01*
X153654360Y-101053800D01*
X153681938Y-101056516D01*
G37*
G36*
X143841938Y-100431716D02*
G01*
X143862557Y-100437971D01*
X143881553Y-100448124D01*
X143898208Y-100461792D01*
X143911876Y-100478447D01*
X143922029Y-100497443D01*
X143928284Y-100518062D01*
X143931000Y-100545640D01*
X143931000Y-101054360D01*
X143928284Y-101081938D01*
X143922029Y-101102557D01*
X143911876Y-101121553D01*
X143898208Y-101138208D01*
X143881553Y-101151876D01*
X143862557Y-101162029D01*
X143841938Y-101168284D01*
X143814360Y-101171000D01*
X143355640Y-101171000D01*
X143328062Y-101168284D01*
X143307443Y-101162029D01*
X143288447Y-101151876D01*
X143271792Y-101138208D01*
X143258124Y-101121553D01*
X143247971Y-101102557D01*
X143241716Y-101081938D01*
X143239000Y-101054360D01*
X143239000Y-100545640D01*
X143241716Y-100518062D01*
X143247971Y-100497443D01*
X143258124Y-100478447D01*
X143271792Y-100461792D01*
X143288447Y-100448124D01*
X143307443Y-100437971D01*
X143328062Y-100431716D01*
X143355640Y-100429000D01*
X143814360Y-100429000D01*
X143841938Y-100431716D01*
G37*
G36*
X142871938Y-100431716D02*
G01*
X142892557Y-100437971D01*
X142911553Y-100448124D01*
X142928208Y-100461792D01*
X142941876Y-100478447D01*
X142952029Y-100497443D01*
X142958284Y-100518062D01*
X142961000Y-100545640D01*
X142961000Y-101054360D01*
X142958284Y-101081938D01*
X142952029Y-101102557D01*
X142941876Y-101121553D01*
X142928208Y-101138208D01*
X142911553Y-101151876D01*
X142892557Y-101162029D01*
X142871938Y-101168284D01*
X142844360Y-101171000D01*
X142385640Y-101171000D01*
X142358062Y-101168284D01*
X142337443Y-101162029D01*
X142318447Y-101151876D01*
X142301792Y-101138208D01*
X142288124Y-101121553D01*
X142277971Y-101102557D01*
X142271716Y-101081938D01*
X142269000Y-101054360D01*
X142269000Y-100545640D01*
X142271716Y-100518062D01*
X142277971Y-100497443D01*
X142288124Y-100478447D01*
X142301792Y-100461792D01*
X142318447Y-100448124D01*
X142337443Y-100437971D01*
X142358062Y-100431716D01*
X142385640Y-100429000D01*
X142844360Y-100429000D01*
X142871938Y-100431716D01*
G37*
G36*
X152681938Y-100099216D02*
G01*
X152702557Y-100105471D01*
X152721553Y-100115624D01*
X152738208Y-100129292D01*
X152751876Y-100145947D01*
X152762029Y-100164943D01*
X152768284Y-100185562D01*
X152771000Y-100213140D01*
X152771000Y-100671860D01*
X152768284Y-100699438D01*
X152762029Y-100720057D01*
X152751876Y-100739053D01*
X152738208Y-100755708D01*
X152721553Y-100769376D01*
X152702557Y-100779529D01*
X152681938Y-100785784D01*
X152654360Y-100788500D01*
X152145640Y-100788500D01*
X152118062Y-100785784D01*
X152097443Y-100779529D01*
X152078447Y-100769376D01*
X152061792Y-100755708D01*
X152048124Y-100739053D01*
X152037971Y-100720057D01*
X152031716Y-100699438D01*
X152029000Y-100671860D01*
X152029000Y-100213140D01*
X152031716Y-100185562D01*
X152037971Y-100164943D01*
X152048124Y-100145947D01*
X152061792Y-100129292D01*
X152078447Y-100115624D01*
X152097443Y-100105471D01*
X152118062Y-100099216D01*
X152145640Y-100096500D01*
X152654360Y-100096500D01*
X152681938Y-100099216D01*
G37*
G36*
X151659928Y-100099216D02*
G01*
X151680547Y-100105471D01*
X151699543Y-100115624D01*
X151716198Y-100129292D01*
X151729866Y-100145947D01*
X151740019Y-100164943D01*
X151746274Y-100185562D01*
X151748990Y-100213140D01*
X151748990Y-100671860D01*
X151746274Y-100699438D01*
X151740019Y-100720057D01*
X151729866Y-100739053D01*
X151716198Y-100755708D01*
X151699543Y-100769376D01*
X151680547Y-100779529D01*
X151659928Y-100785784D01*
X151632350Y-100788500D01*
X151123630Y-100788500D01*
X151096052Y-100785784D01*
X151075433Y-100779529D01*
X151056437Y-100769376D01*
X151039782Y-100755708D01*
X151026114Y-100739053D01*
X151015961Y-100720057D01*
X151009706Y-100699438D01*
X151006990Y-100671860D01*
X151006990Y-100213140D01*
X151009706Y-100185562D01*
X151015961Y-100164943D01*
X151026114Y-100145947D01*
X151039782Y-100129292D01*
X151056437Y-100115624D01*
X151075433Y-100105471D01*
X151096052Y-100099216D01*
X151123630Y-100096500D01*
X151632350Y-100096500D01*
X151659928Y-100099216D01*
G37*
G36*
X153681938Y-100086516D02*
G01*
X153702557Y-100092771D01*
X153721553Y-100102924D01*
X153738208Y-100116592D01*
X153751876Y-100133247D01*
X153762029Y-100152243D01*
X153768284Y-100172862D01*
X153771000Y-100200440D01*
X153771000Y-100659160D01*
X153768284Y-100686738D01*
X153762029Y-100707357D01*
X153751876Y-100726353D01*
X153738208Y-100743008D01*
X153721553Y-100756676D01*
X153702557Y-100766829D01*
X153681938Y-100773084D01*
X153654360Y-100775800D01*
X153145640Y-100775800D01*
X153118062Y-100773084D01*
X153097443Y-100766829D01*
X153078447Y-100756676D01*
X153061792Y-100743008D01*
X153048124Y-100726353D01*
X153037971Y-100707357D01*
X153031716Y-100686738D01*
X153029000Y-100659160D01*
X153029000Y-100200440D01*
X153031716Y-100172862D01*
X153037971Y-100152243D01*
X153048124Y-100133247D01*
X153061792Y-100116592D01*
X153078447Y-100102924D01*
X153097443Y-100092771D01*
X153118062Y-100086516D01*
X153145640Y-100083800D01*
X153654360Y-100083800D01*
X153681938Y-100086516D01*
G37*
G36*
X161551000Y-100551000D02*
G01*
X160849000Y-100551000D01*
X160849000Y-98949000D01*
X161551000Y-98949000D01*
X161551000Y-100551000D01*
G37*
G36*
X159951000Y-100551000D02*
G01*
X159249000Y-100551000D01*
X159249000Y-98949000D01*
X159951000Y-98949000D01*
X159951000Y-100551000D01*
G37*
G36*
X144301000Y-99651000D02*
G01*
X143099000Y-99651000D01*
X143099000Y-98949000D01*
X144301000Y-98949000D01*
X144301000Y-99651000D01*
G37*
G36*
X146458126Y-94698698D02*
G01*
X146458730Y-94698757D01*
X146479460Y-94702881D01*
X146497844Y-94710496D01*
X146501538Y-94712964D01*
X146523149Y-94724516D01*
X146546598Y-94731629D01*
X146570984Y-94734031D01*
X146595370Y-94731629D01*
X146618819Y-94724516D01*
X146650282Y-94705658D01*
X146655109Y-94701696D01*
X146657255Y-94700550D01*
X146659584Y-94699843D01*
X146668143Y-94699000D01*
X146931857Y-94699000D01*
X146940416Y-94699843D01*
X146944556Y-94701099D01*
X146963716Y-94709035D01*
X146987750Y-94713815D01*
X147012254Y-94713815D01*
X147036287Y-94709034D01*
X147055445Y-94701099D01*
X147059584Y-94699843D01*
X147068143Y-94699000D01*
X147331857Y-94699000D01*
X147340416Y-94699843D01*
X147344556Y-94701099D01*
X147363716Y-94709035D01*
X147387750Y-94713815D01*
X147412254Y-94713815D01*
X147436287Y-94709034D01*
X147455445Y-94701099D01*
X147459584Y-94699843D01*
X147468143Y-94699000D01*
X147731857Y-94699000D01*
X147740416Y-94699843D01*
X147744556Y-94701099D01*
X147763716Y-94709035D01*
X147787750Y-94713815D01*
X147812254Y-94713815D01*
X147836287Y-94709034D01*
X147855445Y-94701099D01*
X147859584Y-94699843D01*
X147868143Y-94699000D01*
X148131857Y-94699000D01*
X148140416Y-94699843D01*
X148144556Y-94701099D01*
X148163716Y-94709035D01*
X148187750Y-94713815D01*
X148212254Y-94713815D01*
X148236287Y-94709034D01*
X148255445Y-94701099D01*
X148259584Y-94699843D01*
X148268143Y-94699000D01*
X148531857Y-94699000D01*
X148540416Y-94699843D01*
X148544556Y-94701099D01*
X148563716Y-94709035D01*
X148587750Y-94713815D01*
X148612254Y-94713815D01*
X148636287Y-94709034D01*
X148655445Y-94701099D01*
X148659584Y-94699843D01*
X148668143Y-94699000D01*
X148931857Y-94699000D01*
X148940416Y-94699843D01*
X148942745Y-94700550D01*
X148944891Y-94701696D01*
X148949718Y-94705658D01*
X148970092Y-94719272D01*
X148992731Y-94728649D01*
X149016764Y-94733429D01*
X149041268Y-94733429D01*
X149065302Y-94728648D01*
X149098462Y-94712964D01*
X149102156Y-94710496D01*
X149120540Y-94702881D01*
X149141270Y-94698757D01*
X149141874Y-94698698D01*
X149153062Y-94698148D01*
X149246938Y-94698148D01*
X149258126Y-94698698D01*
X149258730Y-94698757D01*
X149279460Y-94702881D01*
X149297842Y-94710495D01*
X149314386Y-94721550D01*
X149328450Y-94735614D01*
X149339505Y-94752158D01*
X149347119Y-94770540D01*
X149351243Y-94791270D01*
X149351302Y-94791874D01*
X149351852Y-94803062D01*
X149351852Y-95423149D01*
X149354254Y-95447535D01*
X149361367Y-95470984D01*
X149372918Y-95492595D01*
X149388463Y-95511537D01*
X149407405Y-95527082D01*
X149429016Y-95538633D01*
X149452465Y-95545746D01*
X149476851Y-95548148D01*
X150096938Y-95548148D01*
X150108126Y-95548698D01*
X150108730Y-95548757D01*
X150129460Y-95552881D01*
X150147842Y-95560495D01*
X150164386Y-95571550D01*
X150178450Y-95585614D01*
X150189505Y-95602158D01*
X150197119Y-95620540D01*
X150201243Y-95641270D01*
X150201302Y-95641874D01*
X150201852Y-95653062D01*
X150201852Y-95746938D01*
X150201302Y-95758126D01*
X150201243Y-95758730D01*
X150197119Y-95779460D01*
X150189504Y-95797844D01*
X150187036Y-95801538D01*
X150175484Y-95823149D01*
X150168371Y-95846598D01*
X150165969Y-95870984D01*
X150168371Y-95895370D01*
X150175484Y-95918819D01*
X150194342Y-95950282D01*
X150198304Y-95955109D01*
X150199450Y-95957255D01*
X150200157Y-95959584D01*
X150201000Y-95968143D01*
X150201000Y-96231857D01*
X150200157Y-96240416D01*
X150198901Y-96244556D01*
X150190965Y-96263716D01*
X150186185Y-96287750D01*
X150186185Y-96312254D01*
X150190966Y-96336287D01*
X150198901Y-96355445D01*
X150200157Y-96359584D01*
X150201000Y-96368143D01*
X150201000Y-96631857D01*
X150200157Y-96640416D01*
X150198901Y-96644556D01*
X150190965Y-96663716D01*
X150186185Y-96687750D01*
X150186185Y-96712254D01*
X150190966Y-96736287D01*
X150198901Y-96755445D01*
X150200157Y-96759584D01*
X150201000Y-96768143D01*
X150201000Y-97031857D01*
X150200157Y-97040416D01*
X150198901Y-97044556D01*
X150190965Y-97063716D01*
X150186185Y-97087750D01*
X150186185Y-97112254D01*
X150190966Y-97136287D01*
X150198901Y-97155445D01*
X150200157Y-97159584D01*
X150201000Y-97168143D01*
X150201000Y-97431857D01*
X150200157Y-97440416D01*
X150198901Y-97444556D01*
X150190965Y-97463716D01*
X150186185Y-97487750D01*
X150186185Y-97512254D01*
X150190966Y-97536287D01*
X150198901Y-97555445D01*
X150200157Y-97559584D01*
X150201000Y-97568143D01*
X150201000Y-97831857D01*
X150200157Y-97840416D01*
X150198901Y-97844556D01*
X150190965Y-97863716D01*
X150186185Y-97887750D01*
X150186185Y-97912254D01*
X150190966Y-97936287D01*
X150198901Y-97955445D01*
X150200157Y-97959584D01*
X150201000Y-97968143D01*
X150201000Y-98231857D01*
X150200157Y-98240416D01*
X150199450Y-98242745D01*
X150198304Y-98244891D01*
X150194342Y-98249718D01*
X150180728Y-98270092D01*
X150171351Y-98292731D01*
X150166571Y-98316764D01*
X150166571Y-98341268D01*
X150171352Y-98365302D01*
X150187036Y-98398462D01*
X150189504Y-98402156D01*
X150197119Y-98420540D01*
X150201243Y-98441270D01*
X150201302Y-98441874D01*
X150201852Y-98453062D01*
X150201852Y-98546938D01*
X150201302Y-98558126D01*
X150201243Y-98558730D01*
X150197119Y-98579460D01*
X150189505Y-98597842D01*
X150178450Y-98614386D01*
X150164386Y-98628450D01*
X150147842Y-98639505D01*
X150129460Y-98647119D01*
X150108730Y-98651243D01*
X150108126Y-98651302D01*
X150096938Y-98651852D01*
X149476851Y-98651852D01*
X149452465Y-98654254D01*
X149429016Y-98661367D01*
X149407405Y-98672918D01*
X149388463Y-98688463D01*
X149372918Y-98707405D01*
X149361367Y-98729016D01*
X149354254Y-98752465D01*
X149351852Y-98776851D01*
X149351852Y-99396938D01*
X149351302Y-99408126D01*
X149351243Y-99408730D01*
X149347119Y-99429460D01*
X149339505Y-99447842D01*
X149328450Y-99464386D01*
X149314386Y-99478450D01*
X149297842Y-99489505D01*
X149279460Y-99497119D01*
X149258730Y-99501243D01*
X149258126Y-99501302D01*
X149246938Y-99501852D01*
X149153062Y-99501852D01*
X149141874Y-99501302D01*
X149141270Y-99501243D01*
X149120540Y-99497119D01*
X149102156Y-99489504D01*
X149098462Y-99487036D01*
X149076851Y-99475484D01*
X149053402Y-99468371D01*
X149029016Y-99465969D01*
X149004630Y-99468371D01*
X148981181Y-99475484D01*
X148949718Y-99494342D01*
X148944891Y-99498304D01*
X148942745Y-99499450D01*
X148940416Y-99500157D01*
X148931857Y-99501000D01*
X148668143Y-99501000D01*
X148659584Y-99500157D01*
X148655444Y-99498901D01*
X148636284Y-99490965D01*
X148612250Y-99486185D01*
X148587746Y-99486185D01*
X148563713Y-99490966D01*
X148544555Y-99498901D01*
X148540416Y-99500157D01*
X148531857Y-99501000D01*
X148268143Y-99501000D01*
X148259584Y-99500157D01*
X148255444Y-99498901D01*
X148236284Y-99490965D01*
X148212250Y-99486185D01*
X148187746Y-99486185D01*
X148163713Y-99490966D01*
X148144555Y-99498901D01*
X148140416Y-99500157D01*
X148131857Y-99501000D01*
X147868143Y-99501000D01*
X147859584Y-99500157D01*
X147855444Y-99498901D01*
X147836284Y-99490965D01*
X147812250Y-99486185D01*
X147787746Y-99486185D01*
X147763713Y-99490966D01*
X147744555Y-99498901D01*
X147740416Y-99500157D01*
X147731857Y-99501000D01*
X147468143Y-99501000D01*
X147459584Y-99500157D01*
X147455444Y-99498901D01*
X147436284Y-99490965D01*
X147412250Y-99486185D01*
X147387746Y-99486185D01*
X147363713Y-99490966D01*
X147344555Y-99498901D01*
X147340416Y-99500157D01*
X147331857Y-99501000D01*
X147068143Y-99501000D01*
X147059584Y-99500157D01*
X147055444Y-99498901D01*
X147036284Y-99490965D01*
X147012250Y-99486185D01*
X146987746Y-99486185D01*
X146963713Y-99490966D01*
X146944555Y-99498901D01*
X146940416Y-99500157D01*
X146931857Y-99501000D01*
X146668143Y-99501000D01*
X146659584Y-99500157D01*
X146657255Y-99499450D01*
X146655109Y-99498304D01*
X146650282Y-99494342D01*
X146629908Y-99480728D01*
X146607269Y-99471351D01*
X146583236Y-99466571D01*
X146558732Y-99466571D01*
X146534698Y-99471352D01*
X146501538Y-99487036D01*
X146497844Y-99489504D01*
X146479460Y-99497119D01*
X146458730Y-99501243D01*
X146458126Y-99501302D01*
X146446938Y-99501852D01*
X146353062Y-99501852D01*
X146341874Y-99501302D01*
X146341270Y-99501243D01*
X146320540Y-99497119D01*
X146302158Y-99489505D01*
X146285614Y-99478450D01*
X146271550Y-99464386D01*
X146260495Y-99447842D01*
X146252881Y-99429460D01*
X146248757Y-99408730D01*
X146248698Y-99408126D01*
X146248148Y-99396938D01*
X146248148Y-98776851D01*
X146245746Y-98752465D01*
X146238633Y-98729016D01*
X146227082Y-98707405D01*
X146211537Y-98688463D01*
X146192595Y-98672918D01*
X146170984Y-98661367D01*
X146147535Y-98654254D01*
X146123149Y-98651852D01*
X145503062Y-98651852D01*
X145491874Y-98651302D01*
X145491270Y-98651243D01*
X145470540Y-98647119D01*
X145452158Y-98639505D01*
X145435614Y-98628450D01*
X145421550Y-98614386D01*
X145410495Y-98597842D01*
X145402881Y-98579460D01*
X145398757Y-98558730D01*
X145398698Y-98558126D01*
X145398148Y-98546938D01*
X145398148Y-98453062D01*
X145398698Y-98441874D01*
X145398757Y-98441270D01*
X145402881Y-98420540D01*
X145410496Y-98402156D01*
X145412964Y-98398462D01*
X145424516Y-98376851D01*
X145431629Y-98353402D01*
X145434031Y-98329016D01*
X145431629Y-98304630D01*
X145424516Y-98281181D01*
X145405658Y-98249718D01*
X145401696Y-98244891D01*
X145400550Y-98242745D01*
X145399843Y-98240416D01*
X145399000Y-98231857D01*
X145399000Y-97968143D01*
X145399843Y-97959584D01*
X145401099Y-97955444D01*
X145409035Y-97936284D01*
X145413815Y-97912250D01*
X145413815Y-97887746D01*
X145409034Y-97863713D01*
X145401099Y-97844555D01*
X145399843Y-97840416D01*
X145399000Y-97831857D01*
X145399000Y-97568143D01*
X145399843Y-97559584D01*
X145401099Y-97555444D01*
X145409035Y-97536284D01*
X145413815Y-97512250D01*
X145413815Y-97487746D01*
X145409034Y-97463713D01*
X145401099Y-97444555D01*
X145399843Y-97440416D01*
X145399000Y-97431857D01*
X145399000Y-97168143D01*
X145399843Y-97159584D01*
X145401099Y-97155444D01*
X145409035Y-97136284D01*
X145413815Y-97112250D01*
X145413815Y-97087746D01*
X145409034Y-97063713D01*
X145401099Y-97044555D01*
X145399843Y-97040416D01*
X145399000Y-97031857D01*
X145399000Y-96768143D01*
X145399843Y-96759584D01*
X145401099Y-96755444D01*
X145409035Y-96736284D01*
X145413815Y-96712250D01*
X145413815Y-96687746D01*
X145409034Y-96663713D01*
X145401099Y-96644555D01*
X145399843Y-96640416D01*
X145399000Y-96631857D01*
X145399000Y-96368143D01*
X145399843Y-96359584D01*
X145401099Y-96355444D01*
X145409035Y-96336284D01*
X145413815Y-96312250D01*
X145413815Y-96287746D01*
X145409034Y-96263713D01*
X145401099Y-96244555D01*
X145399843Y-96240416D01*
X145399000Y-96231857D01*
X145399000Y-95968143D01*
X145399843Y-95959584D01*
X145400550Y-95957255D01*
X145401696Y-95955109D01*
X145405658Y-95950282D01*
X145419272Y-95929908D01*
X145428649Y-95907269D01*
X145433429Y-95883236D01*
X145433429Y-95858732D01*
X145428648Y-95834698D01*
X145412964Y-95801538D01*
X145410496Y-95797844D01*
X145402881Y-95779460D01*
X145398757Y-95758730D01*
X145398698Y-95758126D01*
X145398148Y-95746938D01*
X145398148Y-95653062D01*
X145398698Y-95641874D01*
X145398757Y-95641270D01*
X145402881Y-95620540D01*
X145410495Y-95602158D01*
X145421550Y-95585614D01*
X145435614Y-95571550D01*
X145452158Y-95560495D01*
X145470540Y-95552881D01*
X145491270Y-95548757D01*
X145491874Y-95548698D01*
X145503062Y-95548148D01*
X146123149Y-95548148D01*
X146147535Y-95545746D01*
X146170984Y-95538633D01*
X146192595Y-95527082D01*
X146211537Y-95511537D01*
X146227082Y-95492595D01*
X146238633Y-95470984D01*
X146245746Y-95447535D01*
X146248148Y-95423149D01*
X146248148Y-94803062D01*
X146248698Y-94791874D01*
X146248757Y-94791270D01*
X146252881Y-94770540D01*
X146260495Y-94752158D01*
X146271550Y-94735614D01*
X146285614Y-94721550D01*
X146302158Y-94710495D01*
X146320540Y-94702881D01*
X146341270Y-94698757D01*
X146341874Y-94698698D01*
X146353062Y-94698148D01*
X146446938Y-94698148D01*
X146458126Y-94698698D01*
G37*
G36*
X151881938Y-97901716D02*
G01*
X151902557Y-97907971D01*
X151921553Y-97918124D01*
X151938208Y-97931792D01*
X151951876Y-97948447D01*
X151962029Y-97967443D01*
X151968284Y-97988062D01*
X151971000Y-98015640D01*
X151971000Y-98474360D01*
X151968284Y-98501938D01*
X151962029Y-98522557D01*
X151951876Y-98541553D01*
X151938208Y-98558208D01*
X151921553Y-98571876D01*
X151902557Y-98582029D01*
X151881938Y-98588284D01*
X151854360Y-98591000D01*
X151345640Y-98591000D01*
X151318062Y-98588284D01*
X151297443Y-98582029D01*
X151278447Y-98571876D01*
X151261792Y-98558208D01*
X151248124Y-98541553D01*
X151237971Y-98522557D01*
X151231716Y-98501938D01*
X151229000Y-98474360D01*
X151229000Y-98015640D01*
X151231716Y-97988062D01*
X151237971Y-97967443D01*
X151248124Y-97948447D01*
X151261792Y-97931792D01*
X151278447Y-97918124D01*
X151297443Y-97907971D01*
X151318062Y-97901716D01*
X151345640Y-97899000D01*
X151854360Y-97899000D01*
X151881938Y-97901716D01*
G37*
G36*
X154781938Y-97901716D02*
G01*
X154802557Y-97907971D01*
X154821553Y-97918124D01*
X154838208Y-97931792D01*
X154851876Y-97948447D01*
X154862029Y-97967443D01*
X154868284Y-97988062D01*
X154871000Y-98015640D01*
X154871000Y-98474360D01*
X154868284Y-98501938D01*
X154862029Y-98522557D01*
X154851876Y-98541553D01*
X154838208Y-98558208D01*
X154821553Y-98571876D01*
X154802557Y-98582029D01*
X154781938Y-98588284D01*
X154754360Y-98591000D01*
X154245640Y-98591000D01*
X154218062Y-98588284D01*
X154197443Y-98582029D01*
X154178447Y-98571876D01*
X154161792Y-98558208D01*
X154148124Y-98541553D01*
X154137971Y-98522557D01*
X154131716Y-98501938D01*
X154129000Y-98474360D01*
X154129000Y-98015640D01*
X154131716Y-97988062D01*
X154137971Y-97967443D01*
X154148124Y-97948447D01*
X154161792Y-97931792D01*
X154178447Y-97918124D01*
X154197443Y-97907971D01*
X154218062Y-97901716D01*
X154245640Y-97899000D01*
X154754360Y-97899000D01*
X154781938Y-97901716D01*
G37*
G36*
X144301000Y-98251000D02*
G01*
X143099000Y-98251000D01*
X143099000Y-97549000D01*
X144301000Y-97549000D01*
X144301000Y-98251000D01*
G37*
G36*
X158871938Y-96931716D02*
G01*
X158892557Y-96937971D01*
X158911553Y-96948124D01*
X158928208Y-96961792D01*
X158941876Y-96978447D01*
X158952029Y-96997443D01*
X158958284Y-97018062D01*
X158961000Y-97045640D01*
X158961000Y-97554360D01*
X158958284Y-97581938D01*
X158952029Y-97602557D01*
X158941876Y-97621553D01*
X158928208Y-97638208D01*
X158911553Y-97651876D01*
X158892557Y-97662029D01*
X158871938Y-97668284D01*
X158844360Y-97671000D01*
X158385640Y-97671000D01*
X158358062Y-97668284D01*
X158337443Y-97662029D01*
X158318447Y-97651876D01*
X158301792Y-97638208D01*
X158288124Y-97621553D01*
X158277971Y-97602557D01*
X158271716Y-97581938D01*
X158269000Y-97554360D01*
X158269000Y-97045640D01*
X158271716Y-97018062D01*
X158277971Y-96997443D01*
X158288124Y-96978447D01*
X158301792Y-96961792D01*
X158318447Y-96948124D01*
X158337443Y-96937971D01*
X158358062Y-96931716D01*
X158385640Y-96929000D01*
X158844360Y-96929000D01*
X158871938Y-96931716D01*
G37*
G36*
X159841938Y-96931716D02*
G01*
X159862557Y-96937971D01*
X159881553Y-96948124D01*
X159898208Y-96961792D01*
X159911876Y-96978447D01*
X159922029Y-96997443D01*
X159928284Y-97018062D01*
X159931000Y-97045640D01*
X159931000Y-97554360D01*
X159928284Y-97581938D01*
X159922029Y-97602557D01*
X159911876Y-97621553D01*
X159898208Y-97638208D01*
X159881553Y-97651876D01*
X159862557Y-97662029D01*
X159841938Y-97668284D01*
X159814360Y-97671000D01*
X159355640Y-97671000D01*
X159328062Y-97668284D01*
X159307443Y-97662029D01*
X159288447Y-97651876D01*
X159271792Y-97638208D01*
X159258124Y-97621553D01*
X159247971Y-97602557D01*
X159241716Y-97581938D01*
X159239000Y-97554360D01*
X159239000Y-97045640D01*
X159241716Y-97018062D01*
X159247971Y-96997443D01*
X159258124Y-96978447D01*
X159271792Y-96961792D01*
X159288447Y-96948124D01*
X159307443Y-96937971D01*
X159328062Y-96931716D01*
X159355640Y-96929000D01*
X159814360Y-96929000D01*
X159841938Y-96931716D01*
G37*
G36*
X156841938Y-96931716D02*
G01*
X156862557Y-96937971D01*
X156881553Y-96948124D01*
X156898208Y-96961792D01*
X156911876Y-96978447D01*
X156922029Y-96997443D01*
X156928284Y-97018062D01*
X156931000Y-97045640D01*
X156931000Y-97554360D01*
X156928284Y-97581938D01*
X156922029Y-97602557D01*
X156911876Y-97621553D01*
X156898208Y-97638208D01*
X156881553Y-97651876D01*
X156862557Y-97662029D01*
X156841938Y-97668284D01*
X156814360Y-97671000D01*
X156355640Y-97671000D01*
X156328062Y-97668284D01*
X156307443Y-97662029D01*
X156288447Y-97651876D01*
X156271792Y-97638208D01*
X156258124Y-97621553D01*
X156247971Y-97602557D01*
X156241716Y-97581938D01*
X156239000Y-97554360D01*
X156239000Y-97045640D01*
X156241716Y-97018062D01*
X156247971Y-96997443D01*
X156258124Y-96978447D01*
X156271792Y-96961792D01*
X156288447Y-96948124D01*
X156307443Y-96937971D01*
X156328062Y-96931716D01*
X156355640Y-96929000D01*
X156814360Y-96929000D01*
X156841938Y-96931716D01*
G37*
G36*
X152851938Y-96931716D02*
G01*
X152872557Y-96937971D01*
X152891553Y-96948124D01*
X152908208Y-96961792D01*
X152921876Y-96978447D01*
X152932029Y-96997443D01*
X152938284Y-97018062D01*
X152941000Y-97045640D01*
X152941000Y-97554360D01*
X152938284Y-97581938D01*
X152932029Y-97602557D01*
X152921876Y-97621553D01*
X152908208Y-97638208D01*
X152891553Y-97651876D01*
X152872557Y-97662029D01*
X152851938Y-97668284D01*
X152824360Y-97671000D01*
X152365640Y-97671000D01*
X152338062Y-97668284D01*
X152317443Y-97662029D01*
X152298447Y-97651876D01*
X152281792Y-97638208D01*
X152268124Y-97621553D01*
X152257971Y-97602557D01*
X152251716Y-97581938D01*
X152249000Y-97554360D01*
X152249000Y-97045640D01*
X152251716Y-97018062D01*
X152257971Y-96997443D01*
X152268124Y-96978447D01*
X152281792Y-96961792D01*
X152298447Y-96948124D01*
X152317443Y-96937971D01*
X152338062Y-96931716D01*
X152365640Y-96929000D01*
X152824360Y-96929000D01*
X152851938Y-96931716D01*
G37*
G36*
X153821938Y-96931716D02*
G01*
X153842557Y-96937971D01*
X153861553Y-96948124D01*
X153878208Y-96961792D01*
X153891876Y-96978447D01*
X153904703Y-97002444D01*
X153909759Y-97014653D01*
X153923373Y-97035027D01*
X153940699Y-97052355D01*
X153961073Y-97065969D01*
X153983712Y-97075347D01*
X154007745Y-97080128D01*
X154032249Y-97080128D01*
X154056283Y-97075348D01*
X154078922Y-97065972D01*
X154099296Y-97052358D01*
X154116624Y-97035032D01*
X154130238Y-97014658D01*
X154135296Y-97002447D01*
X154148124Y-96978447D01*
X154161792Y-96961792D01*
X154178447Y-96948124D01*
X154197443Y-96937971D01*
X154218062Y-96931716D01*
X154245640Y-96929000D01*
X154754360Y-96929000D01*
X154781938Y-96931716D01*
X154802557Y-96937971D01*
X154821553Y-96948124D01*
X154838208Y-96961792D01*
X154851876Y-96978447D01*
X154862029Y-96997443D01*
X154868284Y-97018062D01*
X154871000Y-97045640D01*
X154871000Y-97504360D01*
X154868284Y-97531938D01*
X154862029Y-97552557D01*
X154851876Y-97571553D01*
X154838208Y-97588208D01*
X154821553Y-97601876D01*
X154802557Y-97612029D01*
X154781938Y-97618284D01*
X154754360Y-97621000D01*
X154245640Y-97621000D01*
X154218062Y-97618284D01*
X154197443Y-97612029D01*
X154178447Y-97601876D01*
X154161792Y-97588208D01*
X154148126Y-97571554D01*
X154139382Y-97555197D01*
X154125768Y-97534823D01*
X154108440Y-97517496D01*
X154088065Y-97503883D01*
X154065426Y-97494506D01*
X154041393Y-97489727D01*
X154016889Y-97489727D01*
X153992856Y-97494508D01*
X153970217Y-97503886D01*
X153949843Y-97517500D01*
X153932516Y-97534828D01*
X153918903Y-97555203D01*
X153909527Y-97577840D01*
X153902030Y-97602556D01*
X153891876Y-97621553D01*
X153878208Y-97638208D01*
X153861553Y-97651876D01*
X153842557Y-97662029D01*
X153821938Y-97668284D01*
X153794360Y-97671000D01*
X153335640Y-97671000D01*
X153308062Y-97668284D01*
X153287443Y-97662029D01*
X153268447Y-97651876D01*
X153251792Y-97638208D01*
X153238124Y-97621553D01*
X153227971Y-97602557D01*
X153221716Y-97581938D01*
X153219000Y-97554360D01*
X153219000Y-97045640D01*
X153221716Y-97018062D01*
X153227971Y-96997443D01*
X153238124Y-96978447D01*
X153251792Y-96961792D01*
X153268447Y-96948124D01*
X153287443Y-96937971D01*
X153308062Y-96931716D01*
X153335640Y-96929000D01*
X153794360Y-96929000D01*
X153821938Y-96931716D01*
G37*
G36*
X155871938Y-96931716D02*
G01*
X155892557Y-96937971D01*
X155911553Y-96948124D01*
X155928208Y-96961792D01*
X155941876Y-96978447D01*
X155952029Y-96997443D01*
X155958284Y-97018062D01*
X155961000Y-97045640D01*
X155961000Y-97554360D01*
X155958284Y-97581938D01*
X155952029Y-97602557D01*
X155941876Y-97621553D01*
X155928208Y-97638208D01*
X155911553Y-97651876D01*
X155892557Y-97662029D01*
X155871938Y-97668284D01*
X155844360Y-97671000D01*
X155385640Y-97671000D01*
X155358062Y-97668284D01*
X155337443Y-97662029D01*
X155318447Y-97651876D01*
X155301792Y-97638208D01*
X155288124Y-97621553D01*
X155277971Y-97602557D01*
X155271716Y-97581938D01*
X155269000Y-97554360D01*
X155269000Y-97045640D01*
X155271716Y-97018062D01*
X155277971Y-96997443D01*
X155288124Y-96978447D01*
X155301792Y-96961792D01*
X155318447Y-96948124D01*
X155337443Y-96937971D01*
X155358062Y-96931716D01*
X155385640Y-96929000D01*
X155844360Y-96929000D01*
X155871938Y-96931716D01*
G37*
G36*
X151881938Y-96931716D02*
G01*
X151902557Y-96937971D01*
X151921553Y-96948124D01*
X151938208Y-96961792D01*
X151951876Y-96978447D01*
X151962029Y-96997443D01*
X151968284Y-97018062D01*
X151971000Y-97045640D01*
X151971000Y-97504360D01*
X151968284Y-97531938D01*
X151962029Y-97552557D01*
X151951876Y-97571553D01*
X151938208Y-97588208D01*
X151921553Y-97601876D01*
X151902557Y-97612029D01*
X151881938Y-97618284D01*
X151854360Y-97621000D01*
X151345640Y-97621000D01*
X151318062Y-97618284D01*
X151297443Y-97612029D01*
X151278447Y-97601876D01*
X151261792Y-97588208D01*
X151248124Y-97571553D01*
X151237971Y-97552557D01*
X151231716Y-97531938D01*
X151229000Y-97504360D01*
X151229000Y-97045640D01*
X151231716Y-97018062D01*
X151237971Y-96997443D01*
X151248124Y-96978447D01*
X151261792Y-96961792D01*
X151278447Y-96948124D01*
X151297443Y-96937971D01*
X151318062Y-96931716D01*
X151345640Y-96929000D01*
X151854360Y-96929000D01*
X151881938Y-96931716D01*
G37*
G36*
X141629938Y-96335716D02*
G01*
X141650557Y-96341971D01*
X141669553Y-96352124D01*
X141686208Y-96365792D01*
X141699876Y-96382447D01*
X141710030Y-96401444D01*
X141710983Y-96404586D01*
X141720360Y-96427225D01*
X141733974Y-96447600D01*
X141751301Y-96464927D01*
X141771675Y-96478541D01*
X141794314Y-96487918D01*
X141818347Y-96492699D01*
X141842851Y-96492699D01*
X141866884Y-96487919D01*
X141889523Y-96478542D01*
X141909898Y-96464928D01*
X141927225Y-96447601D01*
X141940839Y-96427227D01*
X141950217Y-96404586D01*
X141951170Y-96401444D01*
X141961324Y-96382447D01*
X141974992Y-96365792D01*
X141991647Y-96352124D01*
X142010643Y-96341971D01*
X142031262Y-96335716D01*
X142058840Y-96333000D01*
X142567560Y-96333000D01*
X142595138Y-96335716D01*
X142615757Y-96341971D01*
X142634753Y-96352124D01*
X142651408Y-96365792D01*
X142665076Y-96382447D01*
X142675230Y-96401444D01*
X142676183Y-96404586D01*
X142685560Y-96427225D01*
X142699174Y-96447600D01*
X142716501Y-96464927D01*
X142736875Y-96478541D01*
X142759514Y-96487918D01*
X142783547Y-96492699D01*
X142808051Y-96492699D01*
X142832084Y-96487919D01*
X142854723Y-96478542D01*
X142875098Y-96464928D01*
X142892425Y-96447601D01*
X142906039Y-96427227D01*
X142915417Y-96404586D01*
X142916370Y-96401444D01*
X142926524Y-96382447D01*
X142940192Y-96365792D01*
X142956847Y-96352124D01*
X142975843Y-96341971D01*
X142996462Y-96335716D01*
X143024040Y-96333000D01*
X143532760Y-96333000D01*
X143560338Y-96335716D01*
X143580957Y-96341971D01*
X143599953Y-96352124D01*
X143616608Y-96365792D01*
X143630276Y-96382447D01*
X143640429Y-96401443D01*
X143646684Y-96422062D01*
X143649400Y-96449640D01*
X143649400Y-96908360D01*
X143646684Y-96935938D01*
X143640429Y-96956557D01*
X143630276Y-96975553D01*
X143616608Y-96992208D01*
X143599953Y-97005876D01*
X143580957Y-97016029D01*
X143560338Y-97022284D01*
X143532760Y-97025000D01*
X143024040Y-97025000D01*
X142996462Y-97022284D01*
X142975843Y-97016029D01*
X142956847Y-97005876D01*
X142940192Y-96992208D01*
X142926524Y-96975553D01*
X142916370Y-96956556D01*
X142915417Y-96953414D01*
X142906040Y-96930775D01*
X142892426Y-96910400D01*
X142875099Y-96893073D01*
X142854725Y-96879459D01*
X142832086Y-96870082D01*
X142808053Y-96865301D01*
X142783549Y-96865301D01*
X142759516Y-96870081D01*
X142736877Y-96879458D01*
X142716502Y-96893072D01*
X142699175Y-96910399D01*
X142685561Y-96930773D01*
X142676183Y-96953414D01*
X142675230Y-96956556D01*
X142665076Y-96975553D01*
X142651408Y-96992208D01*
X142634753Y-97005876D01*
X142615757Y-97016029D01*
X142595138Y-97022284D01*
X142567560Y-97025000D01*
X142058840Y-97025000D01*
X142031262Y-97022284D01*
X142010643Y-97016029D01*
X141991647Y-97005876D01*
X141974992Y-96992208D01*
X141961324Y-96975553D01*
X141951170Y-96956556D01*
X141950217Y-96953414D01*
X141940840Y-96930775D01*
X141927226Y-96910400D01*
X141909899Y-96893073D01*
X141889525Y-96879459D01*
X141866886Y-96870082D01*
X141842853Y-96865301D01*
X141818349Y-96865301D01*
X141794316Y-96870081D01*
X141771677Y-96879458D01*
X141751302Y-96893072D01*
X141733975Y-96910399D01*
X141720361Y-96930773D01*
X141710983Y-96953414D01*
X141710030Y-96956556D01*
X141699876Y-96975553D01*
X141686208Y-96992208D01*
X141669553Y-97005876D01*
X141650557Y-97016029D01*
X141629938Y-97022284D01*
X141602360Y-97025000D01*
X141093640Y-97025000D01*
X141066062Y-97022284D01*
X141045443Y-97016029D01*
X141026447Y-97005876D01*
X141009792Y-96992208D01*
X140996124Y-96975553D01*
X140985971Y-96956557D01*
X140979716Y-96935938D01*
X140977000Y-96908360D01*
X140977000Y-96449640D01*
X140979716Y-96422062D01*
X140985971Y-96401443D01*
X140996124Y-96382447D01*
X141009792Y-96365792D01*
X141026447Y-96352124D01*
X141045443Y-96341971D01*
X141066062Y-96335716D01*
X141093640Y-96333000D01*
X141602360Y-96333000D01*
X141629938Y-96335716D01*
G37*
G36*
X151881938Y-95964206D02*
G01*
X151902557Y-95970461D01*
X151921553Y-95980614D01*
X151938208Y-95994282D01*
X151951876Y-96010937D01*
X151962029Y-96029933D01*
X151968284Y-96050552D01*
X151971000Y-96078130D01*
X151971000Y-96536850D01*
X151968284Y-96564428D01*
X151962029Y-96585047D01*
X151951876Y-96604043D01*
X151938208Y-96620698D01*
X151921553Y-96634366D01*
X151902557Y-96644519D01*
X151881938Y-96650774D01*
X151854360Y-96653490D01*
X151345640Y-96653490D01*
X151318062Y-96650774D01*
X151297443Y-96644519D01*
X151278447Y-96634366D01*
X151261792Y-96620698D01*
X151248124Y-96604043D01*
X151237971Y-96585047D01*
X151231716Y-96564428D01*
X151229000Y-96536850D01*
X151229000Y-96078130D01*
X151231716Y-96050552D01*
X151237971Y-96029933D01*
X151248124Y-96010937D01*
X151261792Y-95994282D01*
X151278447Y-95980614D01*
X151297443Y-95970461D01*
X151318062Y-95964206D01*
X151345640Y-95961490D01*
X151854360Y-95961490D01*
X151881938Y-95964206D01*
G37*
G36*
X142581938Y-94441716D02*
G01*
X142602557Y-94447971D01*
X142621553Y-94458124D01*
X142638208Y-94471792D01*
X142651876Y-94488447D01*
X142662029Y-94507443D01*
X142668284Y-94528062D01*
X142671000Y-94555640D01*
X142671000Y-95014360D01*
X142668284Y-95041938D01*
X142662029Y-95062557D01*
X142651876Y-95081553D01*
X142638208Y-95098208D01*
X142621553Y-95111876D01*
X142602557Y-95122029D01*
X142591508Y-95125381D01*
X142568869Y-95134758D01*
X142548495Y-95148372D01*
X142531168Y-95165699D01*
X142517554Y-95186073D01*
X142508177Y-95208712D01*
X142503396Y-95232745D01*
X142503396Y-95257250D01*
X142508176Y-95281283D01*
X142517553Y-95303922D01*
X142531167Y-95324296D01*
X142548494Y-95341623D01*
X142568868Y-95355237D01*
X142591509Y-95364615D01*
X142615756Y-95371970D01*
X142634753Y-95382124D01*
X142651408Y-95395792D01*
X142665076Y-95412447D01*
X142675230Y-95431444D01*
X142676183Y-95434586D01*
X142685560Y-95457225D01*
X142699174Y-95477600D01*
X142716501Y-95494927D01*
X142736875Y-95508541D01*
X142759514Y-95517918D01*
X142783547Y-95522699D01*
X142808051Y-95522699D01*
X142832084Y-95517919D01*
X142854723Y-95508542D01*
X142875098Y-95494928D01*
X142892425Y-95477601D01*
X142906039Y-95457227D01*
X142915417Y-95434586D01*
X142916370Y-95431444D01*
X142926524Y-95412447D01*
X142940192Y-95395792D01*
X142956847Y-95382124D01*
X142975844Y-95371970D01*
X143004291Y-95363341D01*
X143026930Y-95353964D01*
X143047305Y-95340350D01*
X143064632Y-95323023D01*
X143078246Y-95302649D01*
X143087623Y-95280010D01*
X143092404Y-95255977D01*
X143092404Y-95231473D01*
X143087624Y-95207440D01*
X143078247Y-95184801D01*
X143064633Y-95164426D01*
X143047306Y-95147099D01*
X143026932Y-95133485D01*
X143004292Y-95124107D01*
X142997443Y-95122029D01*
X142978447Y-95111876D01*
X142961792Y-95098208D01*
X142948124Y-95081553D01*
X142937971Y-95062557D01*
X142931716Y-95041938D01*
X142929000Y-95014360D01*
X142929000Y-94555640D01*
X142931716Y-94528062D01*
X142937971Y-94507443D01*
X142948124Y-94488447D01*
X142961792Y-94471792D01*
X142978447Y-94458124D01*
X142997443Y-94447971D01*
X143018062Y-94441716D01*
X143045640Y-94439000D01*
X143554360Y-94439000D01*
X143581938Y-94441716D01*
X143602557Y-94447971D01*
X143621553Y-94458124D01*
X143638208Y-94471792D01*
X143651876Y-94488447D01*
X143662029Y-94507443D01*
X143668284Y-94528062D01*
X143671000Y-94555640D01*
X143671000Y-95014360D01*
X143668284Y-95041938D01*
X143662029Y-95062557D01*
X143651876Y-95081553D01*
X143638208Y-95098208D01*
X143621553Y-95111876D01*
X143602556Y-95122030D01*
X143574109Y-95130659D01*
X143551470Y-95140036D01*
X143531095Y-95153650D01*
X143513768Y-95170977D01*
X143500154Y-95191351D01*
X143490777Y-95213990D01*
X143485996Y-95238023D01*
X143485996Y-95262527D01*
X143490776Y-95286560D01*
X143500153Y-95309199D01*
X143513767Y-95329574D01*
X143531094Y-95346901D01*
X143551468Y-95360515D01*
X143574108Y-95369893D01*
X143580957Y-95371971D01*
X143599953Y-95382124D01*
X143616608Y-95395792D01*
X143630276Y-95412447D01*
X143640429Y-95431443D01*
X143646684Y-95452062D01*
X143649400Y-95479640D01*
X143649400Y-95938360D01*
X143646684Y-95965938D01*
X143640429Y-95986557D01*
X143630276Y-96005553D01*
X143616608Y-96022208D01*
X143599953Y-96035876D01*
X143580957Y-96046029D01*
X143560338Y-96052284D01*
X143532760Y-96055000D01*
X143024040Y-96055000D01*
X142996462Y-96052284D01*
X142975843Y-96046029D01*
X142956847Y-96035876D01*
X142940192Y-96022208D01*
X142926524Y-96005553D01*
X142916370Y-95986556D01*
X142915417Y-95983414D01*
X142906040Y-95960775D01*
X142892426Y-95940400D01*
X142875099Y-95923073D01*
X142854725Y-95909459D01*
X142832086Y-95900082D01*
X142808053Y-95895301D01*
X142783549Y-95895301D01*
X142759516Y-95900081D01*
X142736877Y-95909458D01*
X142716502Y-95923072D01*
X142699175Y-95940399D01*
X142685561Y-95960773D01*
X142676183Y-95983414D01*
X142675230Y-95986556D01*
X142665076Y-96005553D01*
X142651408Y-96022208D01*
X142634753Y-96035876D01*
X142615757Y-96046029D01*
X142595138Y-96052284D01*
X142567560Y-96055000D01*
X142058840Y-96055000D01*
X142031262Y-96052284D01*
X142010643Y-96046029D01*
X141991647Y-96035876D01*
X141974992Y-96022208D01*
X141961324Y-96005553D01*
X141951170Y-95986556D01*
X141950217Y-95983414D01*
X141940840Y-95960775D01*
X141927226Y-95940400D01*
X141909899Y-95923073D01*
X141889525Y-95909459D01*
X141866886Y-95900082D01*
X141842853Y-95895301D01*
X141818349Y-95895301D01*
X141794316Y-95900081D01*
X141771677Y-95909458D01*
X141751302Y-95923072D01*
X141733975Y-95940399D01*
X141720361Y-95960773D01*
X141710983Y-95983414D01*
X141710030Y-95986556D01*
X141699876Y-96005553D01*
X141686208Y-96022208D01*
X141669553Y-96035876D01*
X141650557Y-96046029D01*
X141629938Y-96052284D01*
X141602360Y-96055000D01*
X141093640Y-96055000D01*
X141066062Y-96052284D01*
X141045443Y-96046029D01*
X141026447Y-96035876D01*
X141009792Y-96022208D01*
X140996124Y-96005553D01*
X140985971Y-95986557D01*
X140979716Y-95965938D01*
X140977000Y-95938360D01*
X140977000Y-95479640D01*
X140979716Y-95452062D01*
X140985971Y-95431443D01*
X140996124Y-95412447D01*
X141009792Y-95395792D01*
X141026447Y-95382124D01*
X141045443Y-95371971D01*
X141066062Y-95365716D01*
X141093640Y-95363000D01*
X141602360Y-95363000D01*
X141629938Y-95365716D01*
X141650557Y-95371971D01*
X141669553Y-95382124D01*
X141686208Y-95395792D01*
X141699876Y-95412447D01*
X141710030Y-95431444D01*
X141710983Y-95434586D01*
X141720360Y-95457225D01*
X141733974Y-95477600D01*
X141751301Y-95494927D01*
X141771675Y-95508541D01*
X141794314Y-95517918D01*
X141818347Y-95522699D01*
X141842851Y-95522699D01*
X141866884Y-95517919D01*
X141889523Y-95508542D01*
X141909898Y-95494928D01*
X141927225Y-95477601D01*
X141940839Y-95457227D01*
X141950217Y-95434586D01*
X141951170Y-95431444D01*
X141961324Y-95412447D01*
X141974992Y-95395792D01*
X141991647Y-95382124D01*
X142010643Y-95371971D01*
X142021692Y-95368619D01*
X142044331Y-95359242D01*
X142064705Y-95345628D01*
X142082032Y-95328301D01*
X142095646Y-95307927D01*
X142105023Y-95285288D01*
X142109804Y-95261255D01*
X142109804Y-95236750D01*
X142105024Y-95212717D01*
X142095647Y-95190078D01*
X142082033Y-95169704D01*
X142064706Y-95152377D01*
X142044332Y-95138763D01*
X142021691Y-95129385D01*
X141997444Y-95122030D01*
X141978447Y-95111876D01*
X141961792Y-95098208D01*
X141948124Y-95081553D01*
X141937971Y-95062557D01*
X141931716Y-95041938D01*
X141929000Y-95014360D01*
X141929000Y-94555640D01*
X141931716Y-94528062D01*
X141937971Y-94507443D01*
X141948124Y-94488447D01*
X141961792Y-94471792D01*
X141978447Y-94458124D01*
X141997443Y-94447971D01*
X142018062Y-94441716D01*
X142045640Y-94439000D01*
X142554360Y-94439000D01*
X142581938Y-94441716D01*
G37*
G36*
X151881938Y-94994206D02*
G01*
X151902557Y-95000461D01*
X151921553Y-95010614D01*
X151938208Y-95024282D01*
X151951876Y-95040937D01*
X151962029Y-95059933D01*
X151968284Y-95080552D01*
X151971000Y-95108130D01*
X151971000Y-95566850D01*
X151968284Y-95594428D01*
X151962029Y-95615047D01*
X151951876Y-95634043D01*
X151938208Y-95650698D01*
X151921553Y-95664366D01*
X151902557Y-95674519D01*
X151881938Y-95680774D01*
X151854360Y-95683490D01*
X151345640Y-95683490D01*
X151318062Y-95680774D01*
X151297443Y-95674519D01*
X151278447Y-95664366D01*
X151261792Y-95650698D01*
X151248124Y-95634043D01*
X151237971Y-95615047D01*
X151231716Y-95594428D01*
X151229000Y-95566850D01*
X151229000Y-95108130D01*
X151231716Y-95080552D01*
X151237971Y-95059933D01*
X151248124Y-95040937D01*
X151261792Y-95024282D01*
X151278447Y-95010614D01*
X151297443Y-95000461D01*
X151318062Y-94994206D01*
X151345640Y-94991490D01*
X151854360Y-94991490D01*
X151881938Y-94994206D01*
G37*
G36*
X155329232Y-89500000D02*
G01*
X155171386Y-89657846D01*
X155155846Y-89676782D01*
X155144295Y-89698393D01*
X155137182Y-89721842D01*
X155134780Y-89746228D01*
X155137182Y-89770614D01*
X155144295Y-89794063D01*
X155155846Y-89815674D01*
X155171391Y-89834616D01*
X155190333Y-89850161D01*
X155211944Y-89861712D01*
X155235393Y-89868825D01*
X155259779Y-89871227D01*
X155284165Y-89868825D01*
X155393756Y-89847026D01*
X155502296Y-89847026D01*
X155608747Y-89868200D01*
X155709021Y-89909735D01*
X155709022Y-89909736D01*
X155799268Y-89970036D01*
X155876016Y-90046784D01*
X155876017Y-90046786D01*
X155936317Y-90137031D01*
X155977852Y-90237305D01*
X155999026Y-90343756D01*
X155999026Y-90452296D01*
X155977852Y-90558747D01*
X155946627Y-90634131D01*
X155939514Y-90657580D01*
X155937112Y-90681966D01*
X155939514Y-90706353D01*
X155946627Y-90729801D01*
X155958178Y-90751412D01*
X155973724Y-90770354D01*
X155992666Y-90785899D01*
X156014276Y-90797450D01*
X156037725Y-90804563D01*
X156062111Y-90806965D01*
X156086498Y-90804563D01*
X156109946Y-90797450D01*
X156185330Y-90766225D01*
X156291781Y-90745051D01*
X156400321Y-90745051D01*
X156506772Y-90766225D01*
X156607046Y-90807760D01*
X156607047Y-90807761D01*
X156697293Y-90868061D01*
X156774041Y-90944809D01*
X156787048Y-90964276D01*
X156834342Y-91035056D01*
X156875877Y-91135330D01*
X156897051Y-91241781D01*
X156897051Y-91350321D01*
X156875877Y-91456772D01*
X156844651Y-91532158D01*
X156837538Y-91555607D01*
X156835136Y-91579993D01*
X156837538Y-91604379D01*
X156844651Y-91627828D01*
X156856202Y-91649439D01*
X156871748Y-91668381D01*
X156890689Y-91683926D01*
X156912300Y-91695477D01*
X156935749Y-91702590D01*
X156960135Y-91704992D01*
X156984521Y-91702590D01*
X157007970Y-91695477D01*
X157083356Y-91664251D01*
X157189807Y-91643077D01*
X157298347Y-91643077D01*
X157404798Y-91664251D01*
X157505072Y-91705786D01*
X157505073Y-91705787D01*
X157595319Y-91766087D01*
X157672067Y-91842835D01*
X157672068Y-91842837D01*
X157732368Y-91933082D01*
X157773903Y-92033356D01*
X157795077Y-92139807D01*
X157795077Y-92248347D01*
X157773903Y-92354798D01*
X157742678Y-92430182D01*
X157735565Y-92453631D01*
X157733163Y-92478017D01*
X157735565Y-92502404D01*
X157742678Y-92525852D01*
X157754229Y-92547463D01*
X157769775Y-92566405D01*
X157788717Y-92581950D01*
X157810327Y-92593501D01*
X157833776Y-92600614D01*
X157858162Y-92603016D01*
X157882549Y-92600614D01*
X157905997Y-92593501D01*
X157981381Y-92562276D01*
X158087832Y-92541102D01*
X158196372Y-92541102D01*
X158302823Y-92562276D01*
X158403097Y-92603811D01*
X158403098Y-92603812D01*
X158493344Y-92664112D01*
X158570092Y-92740860D01*
X158573450Y-92745886D01*
X158630393Y-92831107D01*
X158671928Y-92931381D01*
X158693102Y-93037832D01*
X158693102Y-93146372D01*
X158671928Y-93252823D01*
X158640702Y-93328209D01*
X158633589Y-93351658D01*
X158631187Y-93376044D01*
X158633589Y-93400430D01*
X158640702Y-93423879D01*
X158652253Y-93445490D01*
X158667799Y-93464432D01*
X158686740Y-93479977D01*
X158708351Y-93491528D01*
X158731800Y-93498641D01*
X158756186Y-93501043D01*
X158780572Y-93498641D01*
X158804021Y-93491528D01*
X158879407Y-93460302D01*
X158985858Y-93439128D01*
X159094398Y-93439128D01*
X159200849Y-93460302D01*
X159301123Y-93501837D01*
X159327813Y-93519671D01*
X159391370Y-93562138D01*
X159468118Y-93638886D01*
X159470415Y-93642324D01*
X159528419Y-93729133D01*
X159569954Y-93829407D01*
X159591128Y-93935858D01*
X159591128Y-94044398D01*
X159569954Y-94150849D01*
X159528419Y-94251123D01*
X159528418Y-94251124D01*
X159468118Y-94341370D01*
X159391370Y-94418118D01*
X159356053Y-94441716D01*
X159301123Y-94478419D01*
X159200849Y-94519954D01*
X159094398Y-94541128D01*
X158985858Y-94541128D01*
X158879407Y-94519954D01*
X158779133Y-94478419D01*
X158724203Y-94441716D01*
X158688886Y-94418118D01*
X158612138Y-94341370D01*
X158551838Y-94251124D01*
X158551837Y-94251123D01*
X158510302Y-94150849D01*
X158489128Y-94044398D01*
X158489128Y-93935858D01*
X158510302Y-93829407D01*
X158541528Y-93754021D01*
X158548641Y-93730572D01*
X158551043Y-93706186D01*
X158548641Y-93681800D01*
X158541528Y-93658351D01*
X158529977Y-93636740D01*
X158514431Y-93617798D01*
X158495490Y-93602253D01*
X158473879Y-93590702D01*
X158450430Y-93583589D01*
X158426044Y-93581187D01*
X158401658Y-93583589D01*
X158378209Y-93590702D01*
X158302823Y-93621928D01*
X158196372Y-93643102D01*
X158087832Y-93643102D01*
X157981381Y-93621928D01*
X157881107Y-93580393D01*
X157816828Y-93537443D01*
X157790860Y-93520092D01*
X157714112Y-93443344D01*
X157653812Y-93353098D01*
X157653811Y-93353097D01*
X157612276Y-93252823D01*
X157591102Y-93146372D01*
X157591102Y-93037832D01*
X157612276Y-92931381D01*
X157643501Y-92855997D01*
X157650614Y-92832548D01*
X157653016Y-92808162D01*
X157650614Y-92783775D01*
X157643501Y-92760327D01*
X157631950Y-92738716D01*
X157616404Y-92719774D01*
X157597462Y-92704229D01*
X157575852Y-92692678D01*
X157552403Y-92685565D01*
X157528017Y-92683163D01*
X157503630Y-92685565D01*
X157480182Y-92692678D01*
X157404798Y-92723903D01*
X157298347Y-92745077D01*
X157189807Y-92745077D01*
X157083356Y-92723903D01*
X156983082Y-92682368D01*
X156926199Y-92644360D01*
X156892835Y-92622067D01*
X156816087Y-92545319D01*
X156785732Y-92499889D01*
X156755786Y-92455072D01*
X156714251Y-92354798D01*
X156693077Y-92248347D01*
X156693077Y-92139807D01*
X156714251Y-92033356D01*
X156745477Y-91957970D01*
X156752590Y-91934521D01*
X156754992Y-91910135D01*
X156752590Y-91885749D01*
X156745477Y-91862300D01*
X156733926Y-91840689D01*
X156718380Y-91821747D01*
X156699439Y-91806202D01*
X156677828Y-91794651D01*
X156654379Y-91787538D01*
X156629993Y-91785136D01*
X156605607Y-91787538D01*
X156582158Y-91794651D01*
X156506772Y-91825877D01*
X156400321Y-91847051D01*
X156291781Y-91847051D01*
X156185330Y-91825877D01*
X156085056Y-91784342D01*
X156040239Y-91754396D01*
X155994809Y-91724041D01*
X155918061Y-91647293D01*
X155857761Y-91557047D01*
X155857760Y-91557046D01*
X155816225Y-91456772D01*
X155795051Y-91350321D01*
X155795051Y-91241781D01*
X155816225Y-91135330D01*
X155847450Y-91059946D01*
X155854563Y-91036497D01*
X155856965Y-91012111D01*
X155854563Y-90987724D01*
X155847450Y-90964276D01*
X155835899Y-90942665D01*
X155820353Y-90923723D01*
X155801411Y-90908178D01*
X155779801Y-90896627D01*
X155756352Y-90889514D01*
X155731966Y-90887112D01*
X155707579Y-90889514D01*
X155684131Y-90896627D01*
X155608747Y-90927852D01*
X155502296Y-90949026D01*
X155393756Y-90949026D01*
X155287305Y-90927852D01*
X155187031Y-90886317D01*
X155142214Y-90856371D01*
X155096784Y-90826016D01*
X155020036Y-90749268D01*
X154989681Y-90703838D01*
X154959735Y-90659021D01*
X154918200Y-90558747D01*
X154897026Y-90452296D01*
X154897026Y-90343756D01*
X154918825Y-90234165D01*
X154921227Y-90209779D01*
X154918825Y-90185393D01*
X154911712Y-90161944D01*
X154900161Y-90140333D01*
X154884616Y-90121391D01*
X154865674Y-90105846D01*
X154844063Y-90094295D01*
X154820614Y-90087182D01*
X154796228Y-90084780D01*
X154771842Y-90087182D01*
X154748393Y-90094295D01*
X154726782Y-90105846D01*
X154707846Y-90121386D01*
X154550000Y-90279232D01*
X153770768Y-89500000D01*
X154550000Y-88720768D01*
X155329232Y-89500000D01*
G37*
G36*
X152859928Y-93641716D02*
G01*
X152880547Y-93647971D01*
X152899543Y-93658124D01*
X152916198Y-93671792D01*
X152929866Y-93688447D01*
X152940019Y-93707443D01*
X152946274Y-93728062D01*
X152948990Y-93755640D01*
X152948990Y-94214360D01*
X152946274Y-94241938D01*
X152940019Y-94262557D01*
X152929866Y-94281553D01*
X152916198Y-94298208D01*
X152899543Y-94311876D01*
X152880547Y-94322029D01*
X152859928Y-94328284D01*
X152832350Y-94331000D01*
X152323630Y-94331000D01*
X152296052Y-94328284D01*
X152275433Y-94322029D01*
X152256437Y-94311876D01*
X152239782Y-94298208D01*
X152226114Y-94281553D01*
X152215961Y-94262557D01*
X152209706Y-94241938D01*
X152206990Y-94214360D01*
X152206990Y-93755640D01*
X152209706Y-93728062D01*
X152215961Y-93707443D01*
X152226114Y-93688447D01*
X152239782Y-93671792D01*
X152256437Y-93658124D01*
X152275433Y-93647971D01*
X152296052Y-93641716D01*
X152323630Y-93639000D01*
X152832350Y-93639000D01*
X152859928Y-93641716D01*
G37*
G36*
X154881938Y-93641716D02*
G01*
X154902557Y-93647971D01*
X154921553Y-93658124D01*
X154938208Y-93671792D01*
X154951876Y-93688447D01*
X154962029Y-93707443D01*
X154968284Y-93728062D01*
X154971000Y-93755640D01*
X154971000Y-94214360D01*
X154968284Y-94241938D01*
X154962029Y-94262557D01*
X154951876Y-94281553D01*
X154938208Y-94298208D01*
X154921553Y-94311876D01*
X154902557Y-94322029D01*
X154881938Y-94328284D01*
X154854360Y-94331000D01*
X154345640Y-94331000D01*
X154318062Y-94328284D01*
X154297443Y-94322029D01*
X154278447Y-94311876D01*
X154261792Y-94298208D01*
X154248124Y-94281553D01*
X154237971Y-94262557D01*
X154231716Y-94241938D01*
X154229000Y-94214360D01*
X154229000Y-93755640D01*
X154231716Y-93728062D01*
X154237971Y-93707443D01*
X154248124Y-93688447D01*
X154261792Y-93671792D01*
X154278447Y-93658124D01*
X154297443Y-93647971D01*
X154318062Y-93641716D01*
X154345640Y-93639000D01*
X154854360Y-93639000D01*
X154881938Y-93641716D01*
G37*
G36*
X153881938Y-93641716D02*
G01*
X153902557Y-93647971D01*
X153921553Y-93658124D01*
X153938208Y-93671792D01*
X153951876Y-93688447D01*
X153962029Y-93707443D01*
X153968284Y-93728062D01*
X153971000Y-93755640D01*
X153971000Y-94214360D01*
X153968284Y-94241938D01*
X153962029Y-94262557D01*
X153951876Y-94281553D01*
X153938208Y-94298208D01*
X153921553Y-94311876D01*
X153902557Y-94322029D01*
X153881938Y-94328284D01*
X153854360Y-94331000D01*
X153345640Y-94331000D01*
X153318062Y-94328284D01*
X153297443Y-94322029D01*
X153278447Y-94311876D01*
X153261792Y-94298208D01*
X153248124Y-94281553D01*
X153237971Y-94262557D01*
X153231716Y-94241938D01*
X153229000Y-94214360D01*
X153229000Y-93755640D01*
X153231716Y-93728062D01*
X153237971Y-93707443D01*
X153248124Y-93688447D01*
X153261792Y-93671792D01*
X153278447Y-93658124D01*
X153297443Y-93647971D01*
X153318062Y-93641716D01*
X153345640Y-93639000D01*
X153854360Y-93639000D01*
X153881938Y-93641716D01*
G37*
G36*
X143581938Y-93471716D02*
G01*
X143602557Y-93477971D01*
X143621553Y-93488124D01*
X143638208Y-93501792D01*
X143651876Y-93518447D01*
X143662029Y-93537443D01*
X143668284Y-93558062D01*
X143671000Y-93585640D01*
X143671000Y-94044360D01*
X143668284Y-94071938D01*
X143662029Y-94092557D01*
X143651876Y-94111553D01*
X143638208Y-94128208D01*
X143621553Y-94141876D01*
X143602557Y-94152029D01*
X143581938Y-94158284D01*
X143554360Y-94161000D01*
X143045640Y-94161000D01*
X143018062Y-94158284D01*
X142997443Y-94152029D01*
X142978447Y-94141876D01*
X142961792Y-94128208D01*
X142948124Y-94111553D01*
X142937971Y-94092557D01*
X142931716Y-94071938D01*
X142929000Y-94044360D01*
X142929000Y-93585640D01*
X142931716Y-93558062D01*
X142937971Y-93537443D01*
X142948124Y-93518447D01*
X142961792Y-93501792D01*
X142978447Y-93488124D01*
X142997443Y-93477971D01*
X143018062Y-93471716D01*
X143045640Y-93469000D01*
X143554360Y-93469000D01*
X143581938Y-93471716D01*
G37*
G36*
X142581938Y-93471716D02*
G01*
X142602557Y-93477971D01*
X142621553Y-93488124D01*
X142638208Y-93501792D01*
X142651876Y-93518447D01*
X142662029Y-93537443D01*
X142668284Y-93558062D01*
X142671000Y-93585640D01*
X142671000Y-94044360D01*
X142668284Y-94071938D01*
X142662029Y-94092557D01*
X142651876Y-94111553D01*
X142638208Y-94128208D01*
X142621553Y-94141876D01*
X142602557Y-94152029D01*
X142581938Y-94158284D01*
X142554360Y-94161000D01*
X142045640Y-94161000D01*
X142018062Y-94158284D01*
X141997443Y-94152029D01*
X141978447Y-94141876D01*
X141961792Y-94128208D01*
X141948124Y-94111553D01*
X141937971Y-94092557D01*
X141931716Y-94071938D01*
X141929000Y-94044360D01*
X141929000Y-93585640D01*
X141931716Y-93558062D01*
X141937971Y-93537443D01*
X141948124Y-93518447D01*
X141961792Y-93501792D01*
X141978447Y-93488124D01*
X141997443Y-93477971D01*
X142018062Y-93471716D01*
X142045640Y-93469000D01*
X142554360Y-93469000D01*
X142581938Y-93471716D01*
G37*
G36*
X145781938Y-93041716D02*
G01*
X145802557Y-93047971D01*
X145821553Y-93058124D01*
X145838208Y-93071792D01*
X145851876Y-93088447D01*
X145862029Y-93107443D01*
X145868284Y-93128062D01*
X145871000Y-93155640D01*
X145871000Y-93614360D01*
X145868284Y-93641938D01*
X145862029Y-93662557D01*
X145851876Y-93681553D01*
X145838208Y-93698208D01*
X145821553Y-93711876D01*
X145802557Y-93722029D01*
X145781938Y-93728284D01*
X145754360Y-93731000D01*
X145245640Y-93731000D01*
X145218062Y-93728284D01*
X145197443Y-93722029D01*
X145178447Y-93711876D01*
X145161792Y-93698208D01*
X145148124Y-93681553D01*
X145137971Y-93662557D01*
X145131716Y-93641938D01*
X145129000Y-93614360D01*
X145129000Y-93155640D01*
X145131716Y-93128062D01*
X145137971Y-93107443D01*
X145148124Y-93088447D01*
X145161792Y-93071792D01*
X145178447Y-93058124D01*
X145197443Y-93047971D01*
X145218062Y-93041716D01*
X145245640Y-93039000D01*
X145754360Y-93039000D01*
X145781938Y-93041716D01*
G37*
G36*
X153881938Y-92671716D02*
G01*
X153902557Y-92677971D01*
X153921553Y-92688124D01*
X153938208Y-92701792D01*
X153951876Y-92718447D01*
X153962029Y-92737443D01*
X153968284Y-92758062D01*
X153971000Y-92785640D01*
X153971000Y-93244360D01*
X153968284Y-93271938D01*
X153962029Y-93292557D01*
X153951876Y-93311553D01*
X153938208Y-93328208D01*
X153921553Y-93341876D01*
X153902557Y-93352029D01*
X153881938Y-93358284D01*
X153854360Y-93361000D01*
X153345640Y-93361000D01*
X153318062Y-93358284D01*
X153297443Y-93352029D01*
X153278447Y-93341876D01*
X153261792Y-93328208D01*
X153248124Y-93311553D01*
X153237971Y-93292557D01*
X153231716Y-93271938D01*
X153229000Y-93244360D01*
X153229000Y-92785640D01*
X153231716Y-92758062D01*
X153237971Y-92737443D01*
X153248124Y-92718447D01*
X153261792Y-92701792D01*
X153278447Y-92688124D01*
X153297443Y-92677971D01*
X153318062Y-92671716D01*
X153345640Y-92669000D01*
X153854360Y-92669000D01*
X153881938Y-92671716D01*
G37*
G36*
X152859928Y-92671716D02*
G01*
X152880547Y-92677971D01*
X152899543Y-92688124D01*
X152916198Y-92701792D01*
X152929866Y-92718447D01*
X152940019Y-92737443D01*
X152946274Y-92758062D01*
X152948990Y-92785640D01*
X152948990Y-93244360D01*
X152946274Y-93271938D01*
X152940019Y-93292557D01*
X152929866Y-93311553D01*
X152916198Y-93328208D01*
X152899543Y-93341876D01*
X152880547Y-93352029D01*
X152859928Y-93358284D01*
X152832350Y-93361000D01*
X152323630Y-93361000D01*
X152296052Y-93358284D01*
X152275433Y-93352029D01*
X152256437Y-93341876D01*
X152239782Y-93328208D01*
X152226114Y-93311553D01*
X152215961Y-93292557D01*
X152209706Y-93271938D01*
X152206990Y-93244360D01*
X152206990Y-92785640D01*
X152209706Y-92758062D01*
X152215961Y-92737443D01*
X152226114Y-92718447D01*
X152239782Y-92701792D01*
X152256437Y-92688124D01*
X152275433Y-92677971D01*
X152296052Y-92671716D01*
X152323630Y-92669000D01*
X152832350Y-92669000D01*
X152859928Y-92671716D01*
G37*
G36*
X154881938Y-92671716D02*
G01*
X154902557Y-92677971D01*
X154921553Y-92688124D01*
X154938208Y-92701792D01*
X154951876Y-92718447D01*
X154962029Y-92737443D01*
X154968284Y-92758062D01*
X154971000Y-92785640D01*
X154971000Y-93244360D01*
X154968284Y-93271938D01*
X154962029Y-93292557D01*
X154951876Y-93311553D01*
X154938208Y-93328208D01*
X154921553Y-93341876D01*
X154902557Y-93352029D01*
X154881938Y-93358284D01*
X154854360Y-93361000D01*
X154345640Y-93361000D01*
X154318062Y-93358284D01*
X154297443Y-93352029D01*
X154278447Y-93341876D01*
X154261792Y-93328208D01*
X154248124Y-93311553D01*
X154237971Y-93292557D01*
X154231716Y-93271938D01*
X154229000Y-93244360D01*
X154229000Y-92785640D01*
X154231716Y-92758062D01*
X154237971Y-92737443D01*
X154248124Y-92718447D01*
X154261792Y-92701792D01*
X154278447Y-92688124D01*
X154297443Y-92677971D01*
X154318062Y-92671716D01*
X154345640Y-92669000D01*
X154854360Y-92669000D01*
X154881938Y-92671716D01*
G37*
G36*
X145781938Y-92071716D02*
G01*
X145802557Y-92077971D01*
X145821553Y-92088124D01*
X145838208Y-92101792D01*
X145851876Y-92118447D01*
X145862029Y-92137443D01*
X145868284Y-92158062D01*
X145871000Y-92185640D01*
X145871000Y-92644360D01*
X145868284Y-92671938D01*
X145862029Y-92692557D01*
X145851876Y-92711553D01*
X145838208Y-92728208D01*
X145821553Y-92741876D01*
X145802557Y-92752029D01*
X145781938Y-92758284D01*
X145754360Y-92761000D01*
X145245640Y-92761000D01*
X145218062Y-92758284D01*
X145197443Y-92752029D01*
X145178447Y-92741876D01*
X145161792Y-92728208D01*
X145148124Y-92711553D01*
X145137971Y-92692557D01*
X145131716Y-92671938D01*
X145129000Y-92644360D01*
X145129000Y-92185640D01*
X145131716Y-92158062D01*
X145137971Y-92137443D01*
X145148124Y-92118447D01*
X145161792Y-92101792D01*
X145178447Y-92088124D01*
X145197443Y-92077971D01*
X145218062Y-92071716D01*
X145245640Y-92069000D01*
X145754360Y-92069000D01*
X145781938Y-92071716D01*
G37*
G36*
X149850318Y-88445153D02*
G01*
X150068885Y-88535687D01*
X150068887Y-88535688D01*
X150265593Y-88667122D01*
X150432878Y-88834407D01*
X150564312Y-89031113D01*
X150564313Y-89031115D01*
X150654847Y-89249682D01*
X150701000Y-89481710D01*
X150701000Y-89718290D01*
X150654847Y-89950318D01*
X150567188Y-90161944D01*
X150564312Y-90168887D01*
X150432878Y-90365593D01*
X150265593Y-90532878D01*
X150068887Y-90664312D01*
X150068886Y-90664313D01*
X150068885Y-90664313D01*
X149850318Y-90754847D01*
X149618290Y-90801000D01*
X149381710Y-90801000D01*
X149149682Y-90754847D01*
X148931115Y-90664313D01*
X148931114Y-90664313D01*
X148931113Y-90664312D01*
X148734407Y-90532878D01*
X148567122Y-90365593D01*
X148435688Y-90168887D01*
X148432812Y-90161944D01*
X148345153Y-89950318D01*
X148299000Y-89718290D01*
X148299000Y-89481710D01*
X148345153Y-89249682D01*
X148435687Y-89031115D01*
X148435688Y-89031113D01*
X148567122Y-88834407D01*
X148734407Y-88667122D01*
X148931113Y-88535688D01*
X148931115Y-88535687D01*
X149149682Y-88445153D01*
X149381710Y-88399000D01*
X149618290Y-88399000D01*
X149850318Y-88445153D01*
G37*
G36*
X146850318Y-88445153D02*
G01*
X147068885Y-88535687D01*
X147068887Y-88535688D01*
X147265593Y-88667122D01*
X147432878Y-88834407D01*
X147564312Y-89031113D01*
X147564313Y-89031115D01*
X147654847Y-89249682D01*
X147701000Y-89481710D01*
X147701000Y-89718290D01*
X147654847Y-89950318D01*
X147567188Y-90161944D01*
X147564312Y-90168887D01*
X147432878Y-90365593D01*
X147265593Y-90532878D01*
X147068887Y-90664312D01*
X147068886Y-90664313D01*
X147068885Y-90664313D01*
X146850318Y-90754847D01*
X146618290Y-90801000D01*
X146381710Y-90801000D01*
X146149682Y-90754847D01*
X145931115Y-90664313D01*
X145931114Y-90664313D01*
X145931113Y-90664312D01*
X145734407Y-90532878D01*
X145567122Y-90365593D01*
X145435688Y-90168887D01*
X145432812Y-90161944D01*
X145345153Y-89950318D01*
X145299000Y-89718290D01*
X145299000Y-89481710D01*
X145345153Y-89249682D01*
X145435687Y-89031115D01*
X145435688Y-89031113D01*
X145567122Y-88834407D01*
X145734407Y-88667122D01*
X145931113Y-88535688D01*
X145931115Y-88535687D01*
X146149682Y-88445153D01*
X146381710Y-88399000D01*
X146618290Y-88399000D01*
X146850318Y-88445153D01*
G37*
M02*
