G04 #@! TF.GenerationSoftware,KiCad,Pcbnew,5.1.5-52549c5~84~ubuntu19.04.1*
G04 #@! TF.CreationDate,2020-02-08T22:23:32+01:00*
G04 #@! TF.ProjectId,ilulissat,696c756c-6973-4736-9174-2e6b69636164,rev?*
G04 #@! TF.SameCoordinates,Original*
G04 #@! TF.FileFunction,Soldermask,Top*
G04 #@! TF.FilePolarity,Negative*
%FSLAX46Y46*%
G04 Gerber Fmt 4.6, Leading zero omitted, Abs format (unit mm)*
G04 Created by KiCad (PCBNEW 5.1.5-52549c5~84~ubuntu19.04.1) date 2020-02-08 22:23:32*
%MOMM*%
%LPD*%
G04 APERTURE LIST*
%ADD10C,0.100000*%
G04 APERTURE END LIST*
D10*
G36*
X149850318Y-109245153D02*
G01*
X150068885Y-109335687D01*
X150068887Y-109335688D01*
X150265593Y-109467122D01*
X150432878Y-109634407D01*
X150564312Y-109831113D01*
X150564313Y-109831115D01*
X150654847Y-110049682D01*
X150701000Y-110281710D01*
X150701000Y-110518290D01*
X150654847Y-110750318D01*
X150564313Y-110968885D01*
X150564312Y-110968887D01*
X150432878Y-111165593D01*
X150265593Y-111332878D01*
X150068887Y-111464312D01*
X150068886Y-111464313D01*
X150068885Y-111464313D01*
X149850318Y-111554847D01*
X149618290Y-111601000D01*
X149381710Y-111601000D01*
X149149682Y-111554847D01*
X148931115Y-111464313D01*
X148931114Y-111464313D01*
X148931113Y-111464312D01*
X148734407Y-111332878D01*
X148567122Y-111165593D01*
X148435688Y-110968887D01*
X148435687Y-110968885D01*
X148345153Y-110750318D01*
X148299000Y-110518290D01*
X148299000Y-110281710D01*
X148345153Y-110049682D01*
X148435687Y-109831115D01*
X148435688Y-109831113D01*
X148567122Y-109634407D01*
X148734407Y-109467122D01*
X148931113Y-109335688D01*
X148931115Y-109335687D01*
X149149682Y-109245153D01*
X149381710Y-109199000D01*
X149618290Y-109199000D01*
X149850318Y-109245153D01*
G37*
G36*
X146850318Y-109245153D02*
G01*
X147068885Y-109335687D01*
X147068887Y-109335688D01*
X147265593Y-109467122D01*
X147432878Y-109634407D01*
X147564312Y-109831113D01*
X147564313Y-109831115D01*
X147654847Y-110049682D01*
X147701000Y-110281710D01*
X147701000Y-110518290D01*
X147654847Y-110750318D01*
X147564313Y-110968885D01*
X147564312Y-110968887D01*
X147432878Y-111165593D01*
X147265593Y-111332878D01*
X147068887Y-111464312D01*
X147068886Y-111464313D01*
X147068885Y-111464313D01*
X146850318Y-111554847D01*
X146618290Y-111601000D01*
X146381710Y-111601000D01*
X146149682Y-111554847D01*
X145931115Y-111464313D01*
X145931114Y-111464313D01*
X145931113Y-111464312D01*
X145734407Y-111332878D01*
X145567122Y-111165593D01*
X145435688Y-110968887D01*
X145435687Y-110968885D01*
X145345153Y-110750318D01*
X145299000Y-110518290D01*
X145299000Y-110281710D01*
X145345153Y-110049682D01*
X145435687Y-109831115D01*
X145435688Y-109831113D01*
X145567122Y-109634407D01*
X145734407Y-109467122D01*
X145931113Y-109335688D01*
X145931115Y-109335687D01*
X146149682Y-109245153D01*
X146381710Y-109199000D01*
X146618290Y-109199000D01*
X146850318Y-109245153D01*
G37*
G36*
X155901000Y-110101000D02*
G01*
X154899000Y-110101000D01*
X154899000Y-108299000D01*
X155901000Y-108299000D01*
X155901000Y-110101000D01*
G37*
G36*
X152501000Y-110101000D02*
G01*
X151499000Y-110101000D01*
X151499000Y-108299000D01*
X152501000Y-108299000D01*
X152501000Y-110101000D01*
G37*
G36*
X147301000Y-104351000D02*
G01*
X145999000Y-104351000D01*
X145999000Y-102849000D01*
X147301000Y-102849000D01*
X147301000Y-104351000D01*
G37*
G36*
X149001000Y-104351000D02*
G01*
X147699000Y-104351000D01*
X147699000Y-102849000D01*
X149001000Y-102849000D01*
X149001000Y-104351000D01*
G37*
G36*
X159951000Y-104051000D02*
G01*
X159249000Y-104051000D01*
X159249000Y-102449000D01*
X159951000Y-102449000D01*
X159951000Y-104051000D01*
G37*
G36*
X161551000Y-104051000D02*
G01*
X160849000Y-104051000D01*
X160849000Y-102449000D01*
X161551000Y-102449000D01*
X161551000Y-104051000D01*
G37*
G36*
X188460721Y-102670174D02*
G01*
X188560995Y-102711709D01*
X188560996Y-102711710D01*
X188651242Y-102772010D01*
X188727990Y-102848758D01*
X188758345Y-102894188D01*
X188788291Y-102939005D01*
X188829826Y-103039279D01*
X188851000Y-103145730D01*
X188851000Y-103254270D01*
X188829826Y-103360721D01*
X188788291Y-103460995D01*
X188788290Y-103460996D01*
X188727990Y-103551242D01*
X188651242Y-103627990D01*
X188605812Y-103658345D01*
X188560995Y-103688291D01*
X188460721Y-103729826D01*
X188354270Y-103751000D01*
X188245730Y-103751000D01*
X188139279Y-103729826D01*
X188039005Y-103688291D01*
X187994188Y-103658345D01*
X187948758Y-103627990D01*
X187872010Y-103551242D01*
X187811710Y-103460996D01*
X187811709Y-103460995D01*
X187770174Y-103360721D01*
X187749000Y-103254270D01*
X187749000Y-103145730D01*
X187770174Y-103039279D01*
X187811709Y-102939005D01*
X187841655Y-102894188D01*
X187872010Y-102848758D01*
X187948758Y-102772010D01*
X188039004Y-102711710D01*
X188039005Y-102711709D01*
X188139279Y-102670174D01*
X188245730Y-102649000D01*
X188354270Y-102649000D01*
X188460721Y-102670174D01*
G37*
G36*
X189960721Y-101170174D02*
G01*
X190060995Y-101211709D01*
X190060996Y-101211710D01*
X190151242Y-101272010D01*
X190227990Y-101348758D01*
X190227991Y-101348760D01*
X190288291Y-101439005D01*
X190329826Y-101539279D01*
X190351000Y-101645730D01*
X190351000Y-101754270D01*
X190329826Y-101860721D01*
X190288291Y-101960995D01*
X190288290Y-101960996D01*
X190227990Y-102051242D01*
X190151242Y-102127990D01*
X190116805Y-102151000D01*
X190060995Y-102188291D01*
X189960721Y-102229826D01*
X189854270Y-102251000D01*
X189745730Y-102251000D01*
X189639279Y-102229826D01*
X189539005Y-102188291D01*
X189483195Y-102151000D01*
X189448758Y-102127990D01*
X189372010Y-102051242D01*
X189311710Y-101960996D01*
X189311709Y-101960995D01*
X189270174Y-101860721D01*
X189249000Y-101754270D01*
X189249000Y-101645730D01*
X189270174Y-101539279D01*
X189311709Y-101439005D01*
X189372009Y-101348760D01*
X189372010Y-101348758D01*
X189448758Y-101272010D01*
X189539004Y-101211710D01*
X189539005Y-101211709D01*
X189639279Y-101170174D01*
X189745730Y-101149000D01*
X189854270Y-101149000D01*
X189960721Y-101170174D01*
G37*
G36*
X147301000Y-102151000D02*
G01*
X145999000Y-102151000D01*
X145999000Y-100649000D01*
X147301000Y-100649000D01*
X147301000Y-102151000D01*
G37*
G36*
X149001000Y-102151000D02*
G01*
X147699000Y-102151000D01*
X147699000Y-100649000D01*
X149001000Y-100649000D01*
X149001000Y-102151000D01*
G37*
G36*
X153548738Y-101056516D02*
G01*
X153569357Y-101062771D01*
X153588353Y-101072924D01*
X153605008Y-101086592D01*
X153618676Y-101103247D01*
X153628829Y-101122243D01*
X153635084Y-101142862D01*
X153637800Y-101170440D01*
X153637800Y-101629160D01*
X153635084Y-101656738D01*
X153628829Y-101677357D01*
X153618676Y-101696353D01*
X153605008Y-101713008D01*
X153588353Y-101726676D01*
X153569357Y-101736829D01*
X153548738Y-101743084D01*
X153521160Y-101745800D01*
X153012440Y-101745800D01*
X152984862Y-101743084D01*
X152964243Y-101736829D01*
X152945247Y-101726676D01*
X152928592Y-101713008D01*
X152914924Y-101696353D01*
X152912277Y-101691400D01*
X152898663Y-101671026D01*
X152881336Y-101653699D01*
X152860961Y-101640086D01*
X152838322Y-101630709D01*
X152814289Y-101625929D01*
X152789785Y-101625929D01*
X152765751Y-101630710D01*
X152743113Y-101640088D01*
X152722739Y-101653702D01*
X152705412Y-101671029D01*
X152691800Y-101691402D01*
X152682365Y-101709053D01*
X152668698Y-101725708D01*
X152652043Y-101739376D01*
X152633047Y-101749529D01*
X152612428Y-101755784D01*
X152584850Y-101758500D01*
X152076130Y-101758500D01*
X152048552Y-101755784D01*
X152027933Y-101749529D01*
X152008937Y-101739376D01*
X151992282Y-101725708D01*
X151978616Y-101709055D01*
X151964479Y-101682607D01*
X151950865Y-101662232D01*
X151933537Y-101644905D01*
X151913163Y-101631292D01*
X151890524Y-101621915D01*
X151866490Y-101617135D01*
X151841986Y-101617135D01*
X151817953Y-101621916D01*
X151795315Y-101631293D01*
X151774940Y-101644907D01*
X151757613Y-101662235D01*
X151744001Y-101682607D01*
X151729864Y-101709055D01*
X151716198Y-101725708D01*
X151699543Y-101739376D01*
X151680547Y-101749529D01*
X151659928Y-101755784D01*
X151632350Y-101758500D01*
X151123630Y-101758500D01*
X151096052Y-101755784D01*
X151075433Y-101749529D01*
X151056437Y-101739376D01*
X151039782Y-101725708D01*
X151026114Y-101709053D01*
X151015961Y-101690057D01*
X151009706Y-101669438D01*
X151006990Y-101641860D01*
X151006990Y-101183140D01*
X151009706Y-101155562D01*
X151015961Y-101134943D01*
X151026114Y-101115947D01*
X151039782Y-101099292D01*
X151056437Y-101085624D01*
X151075433Y-101075471D01*
X151096052Y-101069216D01*
X151123630Y-101066500D01*
X151632350Y-101066500D01*
X151659928Y-101069216D01*
X151680547Y-101075471D01*
X151699543Y-101085624D01*
X151716198Y-101099292D01*
X151729864Y-101115945D01*
X151744001Y-101142393D01*
X151757615Y-101162768D01*
X151774943Y-101180095D01*
X151795317Y-101193708D01*
X151817956Y-101203085D01*
X151841990Y-101207865D01*
X151866494Y-101207865D01*
X151890527Y-101203084D01*
X151913165Y-101193707D01*
X151933540Y-101180093D01*
X151950867Y-101162765D01*
X151964479Y-101142393D01*
X151978616Y-101115945D01*
X151992282Y-101099292D01*
X152008937Y-101085624D01*
X152027933Y-101075471D01*
X152048552Y-101069216D01*
X152076130Y-101066500D01*
X152584850Y-101066500D01*
X152612428Y-101069216D01*
X152633047Y-101075471D01*
X152652043Y-101085624D01*
X152668698Y-101099292D01*
X152682366Y-101115947D01*
X152685013Y-101120900D01*
X152698627Y-101141274D01*
X152715954Y-101158601D01*
X152736329Y-101172214D01*
X152758968Y-101181591D01*
X152783001Y-101186371D01*
X152807505Y-101186371D01*
X152831539Y-101181590D01*
X152854177Y-101172212D01*
X152874551Y-101158598D01*
X152891878Y-101141271D01*
X152905490Y-101120898D01*
X152914925Y-101103247D01*
X152928592Y-101086592D01*
X152945247Y-101072924D01*
X152964243Y-101062771D01*
X152984862Y-101056516D01*
X153012440Y-101053800D01*
X153521160Y-101053800D01*
X153548738Y-101056516D01*
G37*
G36*
X153548738Y-100086516D02*
G01*
X153569357Y-100092771D01*
X153588353Y-100102924D01*
X153605008Y-100116592D01*
X153618676Y-100133247D01*
X153628829Y-100152243D01*
X153635084Y-100172862D01*
X153637800Y-100200440D01*
X153637800Y-100659160D01*
X153635084Y-100686738D01*
X153628829Y-100707357D01*
X153618676Y-100726353D01*
X153605008Y-100743008D01*
X153588353Y-100756676D01*
X153569357Y-100766829D01*
X153548738Y-100773084D01*
X153521160Y-100775800D01*
X153012440Y-100775800D01*
X152984862Y-100773084D01*
X152964243Y-100766829D01*
X152945247Y-100756676D01*
X152928592Y-100743008D01*
X152914924Y-100726353D01*
X152912277Y-100721400D01*
X152898663Y-100701026D01*
X152881336Y-100683699D01*
X152860961Y-100670086D01*
X152838322Y-100660709D01*
X152814289Y-100655929D01*
X152789785Y-100655929D01*
X152765751Y-100660710D01*
X152743113Y-100670088D01*
X152722739Y-100683702D01*
X152705412Y-100701029D01*
X152691800Y-100721402D01*
X152682365Y-100739053D01*
X152668698Y-100755708D01*
X152652043Y-100769376D01*
X152633047Y-100779529D01*
X152612428Y-100785784D01*
X152584850Y-100788500D01*
X152076130Y-100788500D01*
X152048552Y-100785784D01*
X152027933Y-100779529D01*
X152008937Y-100769376D01*
X151992282Y-100755708D01*
X151978616Y-100739055D01*
X151964479Y-100712607D01*
X151950865Y-100692232D01*
X151933537Y-100674905D01*
X151913163Y-100661292D01*
X151890524Y-100651915D01*
X151866490Y-100647135D01*
X151841986Y-100647135D01*
X151817953Y-100651916D01*
X151795315Y-100661293D01*
X151774940Y-100674907D01*
X151757613Y-100692235D01*
X151744001Y-100712607D01*
X151729864Y-100739055D01*
X151716198Y-100755708D01*
X151699543Y-100769376D01*
X151680547Y-100779529D01*
X151659928Y-100785784D01*
X151632350Y-100788500D01*
X151123630Y-100788500D01*
X151096052Y-100785784D01*
X151075433Y-100779529D01*
X151056437Y-100769376D01*
X151039782Y-100755708D01*
X151026114Y-100739053D01*
X151015961Y-100720057D01*
X151009706Y-100699438D01*
X151006990Y-100671860D01*
X151006990Y-100213140D01*
X151009706Y-100185562D01*
X151015961Y-100164943D01*
X151026114Y-100145947D01*
X151039782Y-100129292D01*
X151056437Y-100115624D01*
X151075433Y-100105471D01*
X151096052Y-100099216D01*
X151123630Y-100096500D01*
X151632350Y-100096500D01*
X151659928Y-100099216D01*
X151680547Y-100105471D01*
X151699543Y-100115624D01*
X151716198Y-100129292D01*
X151729864Y-100145945D01*
X151744001Y-100172393D01*
X151757615Y-100192768D01*
X151774943Y-100210095D01*
X151795317Y-100223708D01*
X151817956Y-100233085D01*
X151841990Y-100237865D01*
X151866494Y-100237865D01*
X151890527Y-100233084D01*
X151913165Y-100223707D01*
X151933540Y-100210093D01*
X151950867Y-100192765D01*
X151964479Y-100172393D01*
X151978616Y-100145945D01*
X151992282Y-100129292D01*
X152008937Y-100115624D01*
X152027933Y-100105471D01*
X152048552Y-100099216D01*
X152076130Y-100096500D01*
X152584850Y-100096500D01*
X152612428Y-100099216D01*
X152633047Y-100105471D01*
X152652043Y-100115624D01*
X152668698Y-100129292D01*
X152682366Y-100145947D01*
X152685013Y-100150900D01*
X152698627Y-100171274D01*
X152715954Y-100188601D01*
X152736329Y-100202214D01*
X152758968Y-100211591D01*
X152783001Y-100216371D01*
X152807505Y-100216371D01*
X152831539Y-100211590D01*
X152854177Y-100202212D01*
X152874551Y-100188598D01*
X152891878Y-100171271D01*
X152905490Y-100150898D01*
X152914925Y-100133247D01*
X152928592Y-100116592D01*
X152945247Y-100102924D01*
X152964243Y-100092771D01*
X152984862Y-100086516D01*
X153012440Y-100083800D01*
X153521160Y-100083800D01*
X153548738Y-100086516D01*
G37*
G36*
X161551000Y-100551000D02*
G01*
X160849000Y-100551000D01*
X160849000Y-98949000D01*
X161551000Y-98949000D01*
X161551000Y-100551000D01*
G37*
G36*
X159951000Y-100551000D02*
G01*
X159249000Y-100551000D01*
X159249000Y-98949000D01*
X159951000Y-98949000D01*
X159951000Y-100551000D01*
G37*
G36*
X144301000Y-99651000D02*
G01*
X143099000Y-99651000D01*
X143099000Y-98949000D01*
X144301000Y-98949000D01*
X144301000Y-99651000D01*
G37*
G36*
X146458126Y-94698698D02*
G01*
X146458730Y-94698757D01*
X146479460Y-94702881D01*
X146497844Y-94710496D01*
X146501538Y-94712964D01*
X146523149Y-94724516D01*
X146546598Y-94731629D01*
X146570984Y-94734031D01*
X146595370Y-94731629D01*
X146618819Y-94724516D01*
X146650282Y-94705658D01*
X146655109Y-94701696D01*
X146657255Y-94700550D01*
X146659584Y-94699843D01*
X146668143Y-94699000D01*
X146931857Y-94699000D01*
X146940416Y-94699843D01*
X146944556Y-94701099D01*
X146963716Y-94709035D01*
X146987750Y-94713815D01*
X147012254Y-94713815D01*
X147036287Y-94709034D01*
X147055445Y-94701099D01*
X147059584Y-94699843D01*
X147068143Y-94699000D01*
X147331857Y-94699000D01*
X147340416Y-94699843D01*
X147344556Y-94701099D01*
X147363716Y-94709035D01*
X147387750Y-94713815D01*
X147412254Y-94713815D01*
X147436287Y-94709034D01*
X147455445Y-94701099D01*
X147459584Y-94699843D01*
X147468143Y-94699000D01*
X147731857Y-94699000D01*
X147740416Y-94699843D01*
X147744556Y-94701099D01*
X147763716Y-94709035D01*
X147787750Y-94713815D01*
X147812254Y-94713815D01*
X147836287Y-94709034D01*
X147855445Y-94701099D01*
X147859584Y-94699843D01*
X147868143Y-94699000D01*
X148131857Y-94699000D01*
X148140416Y-94699843D01*
X148144556Y-94701099D01*
X148163716Y-94709035D01*
X148187750Y-94713815D01*
X148212254Y-94713815D01*
X148236287Y-94709034D01*
X148255445Y-94701099D01*
X148259584Y-94699843D01*
X148268143Y-94699000D01*
X148531857Y-94699000D01*
X148540416Y-94699843D01*
X148544556Y-94701099D01*
X148563716Y-94709035D01*
X148587750Y-94713815D01*
X148612254Y-94713815D01*
X148636287Y-94709034D01*
X148655445Y-94701099D01*
X148659584Y-94699843D01*
X148668143Y-94699000D01*
X148931857Y-94699000D01*
X148940416Y-94699843D01*
X148942745Y-94700550D01*
X148944891Y-94701696D01*
X148949718Y-94705658D01*
X148970092Y-94719272D01*
X148992731Y-94728649D01*
X149016764Y-94733429D01*
X149041268Y-94733429D01*
X149065302Y-94728648D01*
X149098462Y-94712964D01*
X149102156Y-94710496D01*
X149120540Y-94702881D01*
X149141270Y-94698757D01*
X149141874Y-94698698D01*
X149153062Y-94698148D01*
X149246938Y-94698148D01*
X149258126Y-94698698D01*
X149258730Y-94698757D01*
X149279460Y-94702881D01*
X149297842Y-94710495D01*
X149314386Y-94721550D01*
X149328450Y-94735614D01*
X149339505Y-94752158D01*
X149347119Y-94770540D01*
X149351243Y-94791270D01*
X149351302Y-94791874D01*
X149351852Y-94803062D01*
X149351852Y-95423149D01*
X149354254Y-95447535D01*
X149361367Y-95470984D01*
X149372918Y-95492595D01*
X149388463Y-95511537D01*
X149407405Y-95527082D01*
X149429016Y-95538633D01*
X149452465Y-95545746D01*
X149476851Y-95548148D01*
X150096938Y-95548148D01*
X150108126Y-95548698D01*
X150108730Y-95548757D01*
X150129460Y-95552881D01*
X150147842Y-95560495D01*
X150164386Y-95571550D01*
X150178450Y-95585614D01*
X150189505Y-95602158D01*
X150197119Y-95620540D01*
X150201243Y-95641270D01*
X150201302Y-95641874D01*
X150201852Y-95653062D01*
X150201852Y-95746938D01*
X150201302Y-95758126D01*
X150201243Y-95758730D01*
X150197119Y-95779460D01*
X150189504Y-95797844D01*
X150187036Y-95801538D01*
X150175484Y-95823149D01*
X150168371Y-95846598D01*
X150165969Y-95870984D01*
X150168371Y-95895370D01*
X150175484Y-95918819D01*
X150194342Y-95950282D01*
X150198304Y-95955109D01*
X150199450Y-95957255D01*
X150200157Y-95959584D01*
X150201000Y-95968143D01*
X150201000Y-96231857D01*
X150200157Y-96240416D01*
X150198901Y-96244556D01*
X150190965Y-96263716D01*
X150186185Y-96287750D01*
X150186185Y-96312254D01*
X150190966Y-96336287D01*
X150198901Y-96355445D01*
X150200157Y-96359584D01*
X150201000Y-96368143D01*
X150201000Y-96631857D01*
X150200157Y-96640416D01*
X150198901Y-96644556D01*
X150190965Y-96663716D01*
X150186185Y-96687750D01*
X150186185Y-96712254D01*
X150190966Y-96736287D01*
X150198901Y-96755445D01*
X150200157Y-96759584D01*
X150201000Y-96768143D01*
X150201000Y-97031857D01*
X150200157Y-97040416D01*
X150198901Y-97044556D01*
X150190965Y-97063716D01*
X150186185Y-97087750D01*
X150186185Y-97112254D01*
X150190966Y-97136287D01*
X150198901Y-97155445D01*
X150200157Y-97159584D01*
X150201000Y-97168143D01*
X150201000Y-97431857D01*
X150200157Y-97440416D01*
X150198901Y-97444556D01*
X150190965Y-97463716D01*
X150186185Y-97487750D01*
X150186185Y-97512254D01*
X150190966Y-97536287D01*
X150198901Y-97555445D01*
X150200157Y-97559584D01*
X150201000Y-97568143D01*
X150201000Y-97831857D01*
X150200157Y-97840416D01*
X150198901Y-97844556D01*
X150190965Y-97863716D01*
X150186185Y-97887750D01*
X150186185Y-97912254D01*
X150190966Y-97936287D01*
X150198901Y-97955445D01*
X150200157Y-97959584D01*
X150201000Y-97968143D01*
X150201000Y-98231857D01*
X150200157Y-98240416D01*
X150199450Y-98242745D01*
X150198304Y-98244891D01*
X150194342Y-98249718D01*
X150180728Y-98270092D01*
X150171351Y-98292731D01*
X150166571Y-98316764D01*
X150166571Y-98341268D01*
X150171352Y-98365302D01*
X150187036Y-98398462D01*
X150189504Y-98402156D01*
X150197119Y-98420540D01*
X150201243Y-98441270D01*
X150201302Y-98441874D01*
X150201852Y-98453062D01*
X150201852Y-98546938D01*
X150201302Y-98558126D01*
X150201243Y-98558730D01*
X150197119Y-98579460D01*
X150189505Y-98597842D01*
X150178450Y-98614386D01*
X150164386Y-98628450D01*
X150147842Y-98639505D01*
X150129460Y-98647119D01*
X150108730Y-98651243D01*
X150108126Y-98651302D01*
X150096938Y-98651852D01*
X149476851Y-98651852D01*
X149452465Y-98654254D01*
X149429016Y-98661367D01*
X149407405Y-98672918D01*
X149388463Y-98688463D01*
X149372918Y-98707405D01*
X149361367Y-98729016D01*
X149354254Y-98752465D01*
X149351852Y-98776851D01*
X149351852Y-99396938D01*
X149351302Y-99408126D01*
X149351243Y-99408730D01*
X149347119Y-99429460D01*
X149339505Y-99447842D01*
X149328450Y-99464386D01*
X149314386Y-99478450D01*
X149297842Y-99489505D01*
X149279460Y-99497119D01*
X149258730Y-99501243D01*
X149258126Y-99501302D01*
X149246938Y-99501852D01*
X149153062Y-99501852D01*
X149141874Y-99501302D01*
X149141270Y-99501243D01*
X149120540Y-99497119D01*
X149102156Y-99489504D01*
X149098462Y-99487036D01*
X149076851Y-99475484D01*
X149053402Y-99468371D01*
X149029016Y-99465969D01*
X149004630Y-99468371D01*
X148981181Y-99475484D01*
X148949718Y-99494342D01*
X148944891Y-99498304D01*
X148942745Y-99499450D01*
X148940416Y-99500157D01*
X148931857Y-99501000D01*
X148668143Y-99501000D01*
X148659584Y-99500157D01*
X148655444Y-99498901D01*
X148636284Y-99490965D01*
X148612250Y-99486185D01*
X148587746Y-99486185D01*
X148563713Y-99490966D01*
X148544555Y-99498901D01*
X148540416Y-99500157D01*
X148531857Y-99501000D01*
X148268143Y-99501000D01*
X148259584Y-99500157D01*
X148255444Y-99498901D01*
X148236284Y-99490965D01*
X148212250Y-99486185D01*
X148187746Y-99486185D01*
X148163713Y-99490966D01*
X148144555Y-99498901D01*
X148140416Y-99500157D01*
X148131857Y-99501000D01*
X147868143Y-99501000D01*
X147859584Y-99500157D01*
X147855444Y-99498901D01*
X147836284Y-99490965D01*
X147812250Y-99486185D01*
X147787746Y-99486185D01*
X147763713Y-99490966D01*
X147744555Y-99498901D01*
X147740416Y-99500157D01*
X147731857Y-99501000D01*
X147468143Y-99501000D01*
X147459584Y-99500157D01*
X147455444Y-99498901D01*
X147436284Y-99490965D01*
X147412250Y-99486185D01*
X147387746Y-99486185D01*
X147363713Y-99490966D01*
X147344555Y-99498901D01*
X147340416Y-99500157D01*
X147331857Y-99501000D01*
X147068143Y-99501000D01*
X147059584Y-99500157D01*
X147055444Y-99498901D01*
X147036284Y-99490965D01*
X147012250Y-99486185D01*
X146987746Y-99486185D01*
X146963713Y-99490966D01*
X146944555Y-99498901D01*
X146940416Y-99500157D01*
X146931857Y-99501000D01*
X146668143Y-99501000D01*
X146659584Y-99500157D01*
X146657255Y-99499450D01*
X146655109Y-99498304D01*
X146650282Y-99494342D01*
X146629908Y-99480728D01*
X146607269Y-99471351D01*
X146583236Y-99466571D01*
X146558732Y-99466571D01*
X146534698Y-99471352D01*
X146501538Y-99487036D01*
X146497844Y-99489504D01*
X146479460Y-99497119D01*
X146458730Y-99501243D01*
X146458126Y-99501302D01*
X146446938Y-99501852D01*
X146353062Y-99501852D01*
X146341874Y-99501302D01*
X146341270Y-99501243D01*
X146320540Y-99497119D01*
X146302158Y-99489505D01*
X146285614Y-99478450D01*
X146271550Y-99464386D01*
X146260495Y-99447842D01*
X146252881Y-99429460D01*
X146248757Y-99408730D01*
X146248698Y-99408126D01*
X146248148Y-99396938D01*
X146248148Y-98776851D01*
X146245746Y-98752465D01*
X146238633Y-98729016D01*
X146227082Y-98707405D01*
X146211537Y-98688463D01*
X146192595Y-98672918D01*
X146170984Y-98661367D01*
X146147535Y-98654254D01*
X146123149Y-98651852D01*
X145503062Y-98651852D01*
X145491874Y-98651302D01*
X145491270Y-98651243D01*
X145470540Y-98647119D01*
X145452158Y-98639505D01*
X145435614Y-98628450D01*
X145421550Y-98614386D01*
X145410495Y-98597842D01*
X145402881Y-98579460D01*
X145398757Y-98558730D01*
X145398698Y-98558126D01*
X145398148Y-98546938D01*
X145398148Y-98453062D01*
X145398698Y-98441874D01*
X145398757Y-98441270D01*
X145402881Y-98420540D01*
X145410496Y-98402156D01*
X145412964Y-98398462D01*
X145424516Y-98376851D01*
X145431629Y-98353402D01*
X145434031Y-98329016D01*
X145431629Y-98304630D01*
X145424516Y-98281181D01*
X145405658Y-98249718D01*
X145401696Y-98244891D01*
X145400550Y-98242745D01*
X145399843Y-98240416D01*
X145399000Y-98231857D01*
X145399000Y-97968143D01*
X145399843Y-97959584D01*
X145401099Y-97955444D01*
X145409035Y-97936284D01*
X145413815Y-97912250D01*
X145413815Y-97887746D01*
X145409034Y-97863713D01*
X145401099Y-97844555D01*
X145399843Y-97840416D01*
X145399000Y-97831857D01*
X145399000Y-97568143D01*
X145399843Y-97559584D01*
X145401099Y-97555444D01*
X145409035Y-97536284D01*
X145413815Y-97512250D01*
X145413815Y-97487746D01*
X145409034Y-97463713D01*
X145401099Y-97444555D01*
X145399843Y-97440416D01*
X145399000Y-97431857D01*
X145399000Y-97168143D01*
X145399843Y-97159584D01*
X145401099Y-97155444D01*
X145409035Y-97136284D01*
X145413815Y-97112250D01*
X145413815Y-97087746D01*
X145409034Y-97063713D01*
X145401099Y-97044555D01*
X145399843Y-97040416D01*
X145399000Y-97031857D01*
X145399000Y-96768143D01*
X145399843Y-96759584D01*
X145401099Y-96755444D01*
X145409035Y-96736284D01*
X145413815Y-96712250D01*
X145413815Y-96687746D01*
X145409034Y-96663713D01*
X145401099Y-96644555D01*
X145399843Y-96640416D01*
X145399000Y-96631857D01*
X145399000Y-96368143D01*
X145399843Y-96359584D01*
X145401099Y-96355444D01*
X145409035Y-96336284D01*
X145413815Y-96312250D01*
X145413815Y-96287746D01*
X145409034Y-96263713D01*
X145401099Y-96244555D01*
X145399843Y-96240416D01*
X145399000Y-96231857D01*
X145399000Y-95968143D01*
X145399843Y-95959584D01*
X145400550Y-95957255D01*
X145401696Y-95955109D01*
X145405658Y-95950282D01*
X145419272Y-95929908D01*
X145428649Y-95907269D01*
X145433429Y-95883236D01*
X145433429Y-95858732D01*
X145428648Y-95834698D01*
X145412964Y-95801538D01*
X145410496Y-95797844D01*
X145402881Y-95779460D01*
X145398757Y-95758730D01*
X145398698Y-95758126D01*
X145398148Y-95746938D01*
X145398148Y-95653062D01*
X145398698Y-95641874D01*
X145398757Y-95641270D01*
X145402881Y-95620540D01*
X145410495Y-95602158D01*
X145421550Y-95585614D01*
X145435614Y-95571550D01*
X145452158Y-95560495D01*
X145470540Y-95552881D01*
X145491270Y-95548757D01*
X145491874Y-95548698D01*
X145503062Y-95548148D01*
X146123149Y-95548148D01*
X146147535Y-95545746D01*
X146170984Y-95538633D01*
X146192595Y-95527082D01*
X146211537Y-95511537D01*
X146227082Y-95492595D01*
X146238633Y-95470984D01*
X146245746Y-95447535D01*
X146248148Y-95423149D01*
X146248148Y-94803062D01*
X146248698Y-94791874D01*
X146248757Y-94791270D01*
X146252881Y-94770540D01*
X146260495Y-94752158D01*
X146271550Y-94735614D01*
X146285614Y-94721550D01*
X146302158Y-94710495D01*
X146320540Y-94702881D01*
X146341270Y-94698757D01*
X146341874Y-94698698D01*
X146353062Y-94698148D01*
X146446938Y-94698148D01*
X146458126Y-94698698D01*
G37*
G36*
X154781938Y-97901716D02*
G01*
X154802557Y-97907971D01*
X154821553Y-97918124D01*
X154838208Y-97931792D01*
X154851876Y-97948447D01*
X154862029Y-97967443D01*
X154868284Y-97988062D01*
X154871000Y-98015640D01*
X154871000Y-98474360D01*
X154868284Y-98501938D01*
X154862029Y-98522557D01*
X154851876Y-98541553D01*
X154838208Y-98558208D01*
X154821553Y-98571876D01*
X154802557Y-98582029D01*
X154781938Y-98588284D01*
X154754360Y-98591000D01*
X154245640Y-98591000D01*
X154218062Y-98588284D01*
X154197443Y-98582029D01*
X154178447Y-98571876D01*
X154161792Y-98558208D01*
X154148124Y-98541553D01*
X154137971Y-98522557D01*
X154131716Y-98501938D01*
X154129000Y-98474360D01*
X154129000Y-98015640D01*
X154131716Y-97988062D01*
X154137971Y-97967443D01*
X154148124Y-97948447D01*
X154161792Y-97931792D01*
X154178447Y-97918124D01*
X154197443Y-97907971D01*
X154218062Y-97901716D01*
X154245640Y-97899000D01*
X154754360Y-97899000D01*
X154781938Y-97901716D01*
G37*
G36*
X151881938Y-97901716D02*
G01*
X151902557Y-97907971D01*
X151921553Y-97918124D01*
X151938208Y-97931792D01*
X151951876Y-97948447D01*
X151962029Y-97967443D01*
X151968284Y-97988062D01*
X151971000Y-98015640D01*
X151971000Y-98474360D01*
X151968284Y-98501938D01*
X151962029Y-98522557D01*
X151951876Y-98541553D01*
X151938208Y-98558208D01*
X151921553Y-98571876D01*
X151902557Y-98582029D01*
X151881938Y-98588284D01*
X151854360Y-98591000D01*
X151345640Y-98591000D01*
X151318062Y-98588284D01*
X151297443Y-98582029D01*
X151278447Y-98571876D01*
X151261792Y-98558208D01*
X151248124Y-98541553D01*
X151237971Y-98522557D01*
X151231716Y-98501938D01*
X151229000Y-98474360D01*
X151229000Y-98015640D01*
X151231716Y-97988062D01*
X151237971Y-97967443D01*
X151248124Y-97948447D01*
X151261792Y-97931792D01*
X151278447Y-97918124D01*
X151297443Y-97907971D01*
X151318062Y-97901716D01*
X151345640Y-97899000D01*
X151854360Y-97899000D01*
X151881938Y-97901716D01*
G37*
G36*
X191471938Y-97609716D02*
G01*
X191492557Y-97615971D01*
X191511553Y-97626124D01*
X191528208Y-97639792D01*
X191541876Y-97656447D01*
X191552029Y-97675443D01*
X191558284Y-97696062D01*
X191561000Y-97723640D01*
X191561000Y-98232360D01*
X191558284Y-98259938D01*
X191552029Y-98280557D01*
X191541876Y-98299553D01*
X191528208Y-98316208D01*
X191511553Y-98329876D01*
X191492557Y-98340029D01*
X191471938Y-98346284D01*
X191444360Y-98349000D01*
X190985640Y-98349000D01*
X190958062Y-98346284D01*
X190937443Y-98340029D01*
X190918447Y-98329876D01*
X190901792Y-98316208D01*
X190888124Y-98299553D01*
X190877971Y-98280557D01*
X190871716Y-98259938D01*
X190869000Y-98232360D01*
X190869000Y-97723640D01*
X190871716Y-97696062D01*
X190877971Y-97675443D01*
X190888124Y-97656447D01*
X190901792Y-97639792D01*
X190918447Y-97626124D01*
X190937443Y-97615971D01*
X190958062Y-97609716D01*
X190985640Y-97607000D01*
X191444360Y-97607000D01*
X191471938Y-97609716D01*
G37*
G36*
X192441938Y-97609716D02*
G01*
X192462557Y-97615971D01*
X192481553Y-97626124D01*
X192498208Y-97639792D01*
X192511876Y-97656447D01*
X192522029Y-97675443D01*
X192528284Y-97696062D01*
X192531000Y-97723640D01*
X192531000Y-98232360D01*
X192528284Y-98259938D01*
X192522029Y-98280557D01*
X192511876Y-98299553D01*
X192498208Y-98316208D01*
X192481553Y-98329876D01*
X192462557Y-98340029D01*
X192441938Y-98346284D01*
X192414360Y-98349000D01*
X191955640Y-98349000D01*
X191928062Y-98346284D01*
X191907443Y-98340029D01*
X191888447Y-98329876D01*
X191871792Y-98316208D01*
X191858124Y-98299553D01*
X191847971Y-98280557D01*
X191841716Y-98259938D01*
X191839000Y-98232360D01*
X191839000Y-97723640D01*
X191841716Y-97696062D01*
X191847971Y-97675443D01*
X191858124Y-97656447D01*
X191871792Y-97639792D01*
X191888447Y-97626124D01*
X191907443Y-97615971D01*
X191928062Y-97609716D01*
X191955640Y-97607000D01*
X192414360Y-97607000D01*
X192441938Y-97609716D01*
G37*
G36*
X144301000Y-98251000D02*
G01*
X143099000Y-98251000D01*
X143099000Y-97549000D01*
X144301000Y-97549000D01*
X144301000Y-98251000D01*
G37*
G36*
X152851938Y-96931716D02*
G01*
X152872557Y-96937971D01*
X152891553Y-96948124D01*
X152908208Y-96961792D01*
X152921876Y-96978447D01*
X152932029Y-96997443D01*
X152938284Y-97018062D01*
X152941000Y-97045640D01*
X152941000Y-97554360D01*
X152938284Y-97581938D01*
X152932029Y-97602557D01*
X152921876Y-97621553D01*
X152908208Y-97638208D01*
X152891553Y-97651876D01*
X152872557Y-97662029D01*
X152851938Y-97668284D01*
X152824360Y-97671000D01*
X152365640Y-97671000D01*
X152338062Y-97668284D01*
X152317443Y-97662029D01*
X152298447Y-97651876D01*
X152281792Y-97638208D01*
X152268124Y-97621553D01*
X152257971Y-97602557D01*
X152251716Y-97581938D01*
X152249000Y-97554360D01*
X152249000Y-97045640D01*
X152251716Y-97018062D01*
X152257971Y-96997443D01*
X152268124Y-96978447D01*
X152281792Y-96961792D01*
X152298447Y-96948124D01*
X152317443Y-96937971D01*
X152338062Y-96931716D01*
X152365640Y-96929000D01*
X152824360Y-96929000D01*
X152851938Y-96931716D01*
G37*
G36*
X153821938Y-96931716D02*
G01*
X153842557Y-96937971D01*
X153861553Y-96948124D01*
X153878208Y-96961792D01*
X153891876Y-96978447D01*
X153904703Y-97002444D01*
X153909759Y-97014653D01*
X153923373Y-97035027D01*
X153940699Y-97052355D01*
X153961073Y-97065969D01*
X153983712Y-97075347D01*
X154007745Y-97080128D01*
X154032249Y-97080128D01*
X154056283Y-97075348D01*
X154078922Y-97065972D01*
X154099296Y-97052358D01*
X154116624Y-97035032D01*
X154130238Y-97014658D01*
X154135296Y-97002447D01*
X154148124Y-96978447D01*
X154161792Y-96961792D01*
X154178447Y-96948124D01*
X154197443Y-96937971D01*
X154218062Y-96931716D01*
X154245640Y-96929000D01*
X154754360Y-96929000D01*
X154781938Y-96931716D01*
X154802557Y-96937971D01*
X154821553Y-96948124D01*
X154838208Y-96961792D01*
X154851876Y-96978447D01*
X154862029Y-96997443D01*
X154868284Y-97018062D01*
X154871000Y-97045640D01*
X154871000Y-97504360D01*
X154868284Y-97531938D01*
X154862029Y-97552557D01*
X154851876Y-97571553D01*
X154838208Y-97588208D01*
X154821553Y-97601876D01*
X154802557Y-97612029D01*
X154781938Y-97618284D01*
X154754360Y-97621000D01*
X154245640Y-97621000D01*
X154218062Y-97618284D01*
X154197443Y-97612029D01*
X154178447Y-97601876D01*
X154161792Y-97588208D01*
X154148126Y-97571554D01*
X154139382Y-97555197D01*
X154125768Y-97534823D01*
X154108440Y-97517496D01*
X154088065Y-97503883D01*
X154065426Y-97494506D01*
X154041393Y-97489727D01*
X154016889Y-97489727D01*
X153992856Y-97494508D01*
X153970217Y-97503886D01*
X153949843Y-97517500D01*
X153932516Y-97534828D01*
X153918903Y-97555203D01*
X153909527Y-97577840D01*
X153902030Y-97602556D01*
X153891876Y-97621553D01*
X153878208Y-97638208D01*
X153861553Y-97651876D01*
X153842557Y-97662029D01*
X153821938Y-97668284D01*
X153794360Y-97671000D01*
X153335640Y-97671000D01*
X153308062Y-97668284D01*
X153287443Y-97662029D01*
X153268447Y-97651876D01*
X153251792Y-97638208D01*
X153238124Y-97621553D01*
X153227971Y-97602557D01*
X153221716Y-97581938D01*
X153219000Y-97554360D01*
X153219000Y-97045640D01*
X153221716Y-97018062D01*
X153227971Y-96997443D01*
X153238124Y-96978447D01*
X153251792Y-96961792D01*
X153268447Y-96948124D01*
X153287443Y-96937971D01*
X153308062Y-96931716D01*
X153335640Y-96929000D01*
X153794360Y-96929000D01*
X153821938Y-96931716D01*
G37*
G36*
X155871938Y-96931716D02*
G01*
X155892557Y-96937971D01*
X155911553Y-96948124D01*
X155928208Y-96961792D01*
X155941876Y-96978447D01*
X155952029Y-96997443D01*
X155958284Y-97018062D01*
X155961000Y-97045640D01*
X155961000Y-97554360D01*
X155958284Y-97581938D01*
X155952029Y-97602557D01*
X155941876Y-97621553D01*
X155928208Y-97638208D01*
X155911553Y-97651876D01*
X155892557Y-97662029D01*
X155871938Y-97668284D01*
X155844360Y-97671000D01*
X155385640Y-97671000D01*
X155358062Y-97668284D01*
X155337443Y-97662029D01*
X155318447Y-97651876D01*
X155301792Y-97638208D01*
X155288124Y-97621553D01*
X155277971Y-97602557D01*
X155271716Y-97581938D01*
X155269000Y-97554360D01*
X155269000Y-97045640D01*
X155271716Y-97018062D01*
X155277971Y-96997443D01*
X155288124Y-96978447D01*
X155301792Y-96961792D01*
X155318447Y-96948124D01*
X155337443Y-96937971D01*
X155358062Y-96931716D01*
X155385640Y-96929000D01*
X155844360Y-96929000D01*
X155871938Y-96931716D01*
G37*
G36*
X156841938Y-96931716D02*
G01*
X156862557Y-96937971D01*
X156881553Y-96948124D01*
X156898208Y-96961792D01*
X156911876Y-96978447D01*
X156922029Y-96997443D01*
X156928284Y-97018062D01*
X156931000Y-97045640D01*
X156931000Y-97554360D01*
X156928284Y-97581938D01*
X156922029Y-97602557D01*
X156911876Y-97621553D01*
X156898208Y-97638208D01*
X156881553Y-97651876D01*
X156862557Y-97662029D01*
X156841938Y-97668284D01*
X156814360Y-97671000D01*
X156355640Y-97671000D01*
X156328062Y-97668284D01*
X156307443Y-97662029D01*
X156288447Y-97651876D01*
X156271792Y-97638208D01*
X156258124Y-97621553D01*
X156247971Y-97602557D01*
X156241716Y-97581938D01*
X156239000Y-97554360D01*
X156239000Y-97045640D01*
X156241716Y-97018062D01*
X156247971Y-96997443D01*
X156258124Y-96978447D01*
X156271792Y-96961792D01*
X156288447Y-96948124D01*
X156307443Y-96937971D01*
X156328062Y-96931716D01*
X156355640Y-96929000D01*
X156814360Y-96929000D01*
X156841938Y-96931716D01*
G37*
G36*
X158871938Y-96931716D02*
G01*
X158892557Y-96937971D01*
X158911553Y-96948124D01*
X158928208Y-96961792D01*
X158941876Y-96978447D01*
X158952029Y-96997443D01*
X158958284Y-97018062D01*
X158961000Y-97045640D01*
X158961000Y-97554360D01*
X158958284Y-97581938D01*
X158952029Y-97602557D01*
X158941876Y-97621553D01*
X158928208Y-97638208D01*
X158911553Y-97651876D01*
X158892557Y-97662029D01*
X158871938Y-97668284D01*
X158844360Y-97671000D01*
X158385640Y-97671000D01*
X158358062Y-97668284D01*
X158337443Y-97662029D01*
X158318447Y-97651876D01*
X158301792Y-97638208D01*
X158288124Y-97621553D01*
X158277971Y-97602557D01*
X158271716Y-97581938D01*
X158269000Y-97554360D01*
X158269000Y-97045640D01*
X158271716Y-97018062D01*
X158277971Y-96997443D01*
X158288124Y-96978447D01*
X158301792Y-96961792D01*
X158318447Y-96948124D01*
X158337443Y-96937971D01*
X158358062Y-96931716D01*
X158385640Y-96929000D01*
X158844360Y-96929000D01*
X158871938Y-96931716D01*
G37*
G36*
X159841938Y-96931716D02*
G01*
X159862557Y-96937971D01*
X159881553Y-96948124D01*
X159898208Y-96961792D01*
X159911876Y-96978447D01*
X159922029Y-96997443D01*
X159928284Y-97018062D01*
X159931000Y-97045640D01*
X159931000Y-97554360D01*
X159928284Y-97581938D01*
X159922029Y-97602557D01*
X159911876Y-97621553D01*
X159898208Y-97638208D01*
X159881553Y-97651876D01*
X159862557Y-97662029D01*
X159841938Y-97668284D01*
X159814360Y-97671000D01*
X159355640Y-97671000D01*
X159328062Y-97668284D01*
X159307443Y-97662029D01*
X159288447Y-97651876D01*
X159271792Y-97638208D01*
X159258124Y-97621553D01*
X159247971Y-97602557D01*
X159241716Y-97581938D01*
X159239000Y-97554360D01*
X159239000Y-97045640D01*
X159241716Y-97018062D01*
X159247971Y-96997443D01*
X159258124Y-96978447D01*
X159271792Y-96961792D01*
X159288447Y-96948124D01*
X159307443Y-96937971D01*
X159328062Y-96931716D01*
X159355640Y-96929000D01*
X159814360Y-96929000D01*
X159841938Y-96931716D01*
G37*
G36*
X151881938Y-96931716D02*
G01*
X151902557Y-96937971D01*
X151921553Y-96948124D01*
X151938208Y-96961792D01*
X151951876Y-96978447D01*
X151962029Y-96997443D01*
X151968284Y-97018062D01*
X151971000Y-97045640D01*
X151971000Y-97504360D01*
X151968284Y-97531938D01*
X151962029Y-97552557D01*
X151951876Y-97571553D01*
X151938208Y-97588208D01*
X151921553Y-97601876D01*
X151902557Y-97612029D01*
X151881938Y-97618284D01*
X151854360Y-97621000D01*
X151345640Y-97621000D01*
X151318062Y-97618284D01*
X151297443Y-97612029D01*
X151278447Y-97601876D01*
X151261792Y-97588208D01*
X151248124Y-97571553D01*
X151237971Y-97552557D01*
X151231716Y-97531938D01*
X151229000Y-97504360D01*
X151229000Y-97045640D01*
X151231716Y-97018062D01*
X151237971Y-96997443D01*
X151248124Y-96978447D01*
X151261792Y-96961792D01*
X151278447Y-96948124D01*
X151297443Y-96937971D01*
X151318062Y-96931716D01*
X151345640Y-96929000D01*
X151854360Y-96929000D01*
X151881938Y-96931716D01*
G37*
G36*
X151881938Y-95964206D02*
G01*
X151902557Y-95970461D01*
X151921553Y-95980614D01*
X151938208Y-95994282D01*
X151951876Y-96010937D01*
X151962029Y-96029933D01*
X151968284Y-96050552D01*
X151971000Y-96078130D01*
X151971000Y-96536850D01*
X151968284Y-96564428D01*
X151962029Y-96585047D01*
X151951876Y-96604043D01*
X151938208Y-96620698D01*
X151921553Y-96634366D01*
X151902557Y-96644519D01*
X151881938Y-96650774D01*
X151854360Y-96653490D01*
X151345640Y-96653490D01*
X151318062Y-96650774D01*
X151297443Y-96644519D01*
X151278447Y-96634366D01*
X151261792Y-96620698D01*
X151248124Y-96604043D01*
X151237971Y-96585047D01*
X151231716Y-96564428D01*
X151229000Y-96536850D01*
X151229000Y-96078130D01*
X151231716Y-96050552D01*
X151237971Y-96029933D01*
X151248124Y-96010937D01*
X151261792Y-95994282D01*
X151278447Y-95980614D01*
X151297443Y-95970461D01*
X151318062Y-95964206D01*
X151345640Y-95961490D01*
X151854360Y-95961490D01*
X151881938Y-95964206D01*
G37*
G36*
X151881938Y-94994206D02*
G01*
X151902557Y-95000461D01*
X151921553Y-95010614D01*
X151938208Y-95024282D01*
X151951876Y-95040937D01*
X151962029Y-95059933D01*
X151968284Y-95080552D01*
X151971000Y-95108130D01*
X151971000Y-95566850D01*
X151968284Y-95594428D01*
X151962029Y-95615047D01*
X151951876Y-95634043D01*
X151938208Y-95650698D01*
X151921553Y-95664366D01*
X151902557Y-95674519D01*
X151881938Y-95680774D01*
X151854360Y-95683490D01*
X151345640Y-95683490D01*
X151318062Y-95680774D01*
X151297443Y-95674519D01*
X151278447Y-95664366D01*
X151261792Y-95650698D01*
X151248124Y-95634043D01*
X151237971Y-95615047D01*
X151231716Y-95594428D01*
X151229000Y-95566850D01*
X151229000Y-95108130D01*
X151231716Y-95080552D01*
X151237971Y-95059933D01*
X151248124Y-95040937D01*
X151261792Y-95024282D01*
X151278447Y-95010614D01*
X151297443Y-95000461D01*
X151318062Y-94994206D01*
X151345640Y-94991490D01*
X151854360Y-94991490D01*
X151881938Y-94994206D01*
G37*
G36*
X152859928Y-93641716D02*
G01*
X152880547Y-93647971D01*
X152899543Y-93658124D01*
X152916198Y-93671792D01*
X152929864Y-93688445D01*
X152944001Y-93714893D01*
X152957615Y-93735268D01*
X152974943Y-93752595D01*
X152995317Y-93766208D01*
X153017956Y-93775585D01*
X153041990Y-93780365D01*
X153066494Y-93780365D01*
X153090527Y-93775584D01*
X153113165Y-93766207D01*
X153133540Y-93752593D01*
X153150867Y-93735265D01*
X153164479Y-93714893D01*
X153178616Y-93688445D01*
X153192282Y-93671792D01*
X153208937Y-93658124D01*
X153227933Y-93647971D01*
X153248552Y-93641716D01*
X153276130Y-93639000D01*
X153784850Y-93639000D01*
X153812428Y-93641716D01*
X153833047Y-93647971D01*
X153852043Y-93658124D01*
X153868698Y-93671792D01*
X153882364Y-93688445D01*
X153888406Y-93699749D01*
X153902020Y-93720123D01*
X153919347Y-93737450D01*
X153939722Y-93751064D01*
X153962361Y-93760441D01*
X153986394Y-93765221D01*
X154010898Y-93765221D01*
X154034931Y-93760440D01*
X154057570Y-93751063D01*
X154077944Y-93737449D01*
X154095271Y-93720122D01*
X154108884Y-93699749D01*
X154114926Y-93688445D01*
X154128592Y-93671792D01*
X154145247Y-93658124D01*
X154164243Y-93647971D01*
X154184862Y-93641716D01*
X154212440Y-93639000D01*
X154721160Y-93639000D01*
X154748738Y-93641716D01*
X154769357Y-93647971D01*
X154788353Y-93658124D01*
X154805008Y-93671792D01*
X154818676Y-93688447D01*
X154828829Y-93707443D01*
X154835084Y-93728062D01*
X154837800Y-93755640D01*
X154837800Y-94214360D01*
X154835084Y-94241938D01*
X154828829Y-94262557D01*
X154818676Y-94281553D01*
X154805008Y-94298208D01*
X154788353Y-94311876D01*
X154769357Y-94322029D01*
X154748738Y-94328284D01*
X154721160Y-94331000D01*
X154212440Y-94331000D01*
X154184862Y-94328284D01*
X154164243Y-94322029D01*
X154145247Y-94311876D01*
X154128592Y-94298208D01*
X154114926Y-94281555D01*
X154108884Y-94270251D01*
X154095270Y-94249877D01*
X154077943Y-94232550D01*
X154057568Y-94218936D01*
X154034929Y-94209559D01*
X154010896Y-94204779D01*
X153986392Y-94204779D01*
X153962359Y-94209560D01*
X153939720Y-94218937D01*
X153919346Y-94232551D01*
X153902019Y-94249878D01*
X153888406Y-94270251D01*
X153882364Y-94281555D01*
X153868698Y-94298208D01*
X153852043Y-94311876D01*
X153833047Y-94322029D01*
X153812428Y-94328284D01*
X153784850Y-94331000D01*
X153276130Y-94331000D01*
X153248552Y-94328284D01*
X153227933Y-94322029D01*
X153208937Y-94311876D01*
X153192282Y-94298208D01*
X153178616Y-94281555D01*
X153164479Y-94255107D01*
X153150865Y-94234732D01*
X153133537Y-94217405D01*
X153113163Y-94203792D01*
X153090524Y-94194415D01*
X153066490Y-94189635D01*
X153041986Y-94189635D01*
X153017953Y-94194416D01*
X152995315Y-94203793D01*
X152974940Y-94217407D01*
X152957613Y-94234735D01*
X152944001Y-94255107D01*
X152929864Y-94281555D01*
X152916198Y-94298208D01*
X152899543Y-94311876D01*
X152880547Y-94322029D01*
X152859928Y-94328284D01*
X152832350Y-94331000D01*
X152323630Y-94331000D01*
X152296052Y-94328284D01*
X152275433Y-94322029D01*
X152256437Y-94311876D01*
X152239782Y-94298208D01*
X152226114Y-94281553D01*
X152215961Y-94262557D01*
X152209706Y-94241938D01*
X152206990Y-94214360D01*
X152206990Y-93755640D01*
X152209706Y-93728062D01*
X152215961Y-93707443D01*
X152226114Y-93688447D01*
X152239782Y-93671792D01*
X152256437Y-93658124D01*
X152275433Y-93647971D01*
X152296052Y-93641716D01*
X152323630Y-93639000D01*
X152832350Y-93639000D01*
X152859928Y-93641716D01*
G37*
G36*
X152859928Y-92671716D02*
G01*
X152880547Y-92677971D01*
X152899543Y-92688124D01*
X152916198Y-92701792D01*
X152929864Y-92718445D01*
X152944001Y-92744893D01*
X152957615Y-92765268D01*
X152974943Y-92782595D01*
X152995317Y-92796208D01*
X153017956Y-92805585D01*
X153041990Y-92810365D01*
X153066494Y-92810365D01*
X153090527Y-92805584D01*
X153113165Y-92796207D01*
X153133540Y-92782593D01*
X153150867Y-92765265D01*
X153164479Y-92744893D01*
X153178616Y-92718445D01*
X153192282Y-92701792D01*
X153208937Y-92688124D01*
X153227933Y-92677971D01*
X153248552Y-92671716D01*
X153276130Y-92669000D01*
X153784850Y-92669000D01*
X153812428Y-92671716D01*
X153833047Y-92677971D01*
X153852043Y-92688124D01*
X153868698Y-92701792D01*
X153882364Y-92718445D01*
X153888406Y-92729749D01*
X153902020Y-92750123D01*
X153919347Y-92767450D01*
X153939722Y-92781064D01*
X153962361Y-92790441D01*
X153986394Y-92795221D01*
X154010898Y-92795221D01*
X154034931Y-92790440D01*
X154057570Y-92781063D01*
X154077944Y-92767449D01*
X154095271Y-92750122D01*
X154108884Y-92729749D01*
X154114926Y-92718445D01*
X154128592Y-92701792D01*
X154145247Y-92688124D01*
X154164243Y-92677971D01*
X154184862Y-92671716D01*
X154212440Y-92669000D01*
X154721160Y-92669000D01*
X154748738Y-92671716D01*
X154769357Y-92677971D01*
X154788353Y-92688124D01*
X154805008Y-92701792D01*
X154818676Y-92718447D01*
X154828829Y-92737443D01*
X154835084Y-92758062D01*
X154837800Y-92785640D01*
X154837800Y-93244360D01*
X154835084Y-93271938D01*
X154828829Y-93292557D01*
X154818676Y-93311553D01*
X154805008Y-93328208D01*
X154788353Y-93341876D01*
X154769357Y-93352029D01*
X154748738Y-93358284D01*
X154721160Y-93361000D01*
X154212440Y-93361000D01*
X154184862Y-93358284D01*
X154164243Y-93352029D01*
X154145247Y-93341876D01*
X154128592Y-93328208D01*
X154114926Y-93311555D01*
X154108884Y-93300251D01*
X154095270Y-93279877D01*
X154077943Y-93262550D01*
X154057568Y-93248936D01*
X154034929Y-93239559D01*
X154010896Y-93234779D01*
X153986392Y-93234779D01*
X153962359Y-93239560D01*
X153939720Y-93248937D01*
X153919346Y-93262551D01*
X153902019Y-93279878D01*
X153888406Y-93300251D01*
X153882364Y-93311555D01*
X153868698Y-93328208D01*
X153852043Y-93341876D01*
X153833047Y-93352029D01*
X153812428Y-93358284D01*
X153784850Y-93361000D01*
X153276130Y-93361000D01*
X153248552Y-93358284D01*
X153227933Y-93352029D01*
X153208937Y-93341876D01*
X153192282Y-93328208D01*
X153178616Y-93311555D01*
X153164479Y-93285107D01*
X153150865Y-93264732D01*
X153133537Y-93247405D01*
X153113163Y-93233792D01*
X153090524Y-93224415D01*
X153066490Y-93219635D01*
X153041986Y-93219635D01*
X153017953Y-93224416D01*
X152995315Y-93233793D01*
X152974940Y-93247407D01*
X152957613Y-93264735D01*
X152944001Y-93285107D01*
X152929864Y-93311555D01*
X152916198Y-93328208D01*
X152899543Y-93341876D01*
X152880547Y-93352029D01*
X152859928Y-93358284D01*
X152832350Y-93361000D01*
X152323630Y-93361000D01*
X152296052Y-93358284D01*
X152275433Y-93352029D01*
X152256437Y-93341876D01*
X152239782Y-93328208D01*
X152226114Y-93311553D01*
X152215961Y-93292557D01*
X152209706Y-93271938D01*
X152206990Y-93244360D01*
X152206990Y-92785640D01*
X152209706Y-92758062D01*
X152215961Y-92737443D01*
X152226114Y-92718447D01*
X152239782Y-92701792D01*
X152256437Y-92688124D01*
X152275433Y-92677971D01*
X152296052Y-92671716D01*
X152323630Y-92669000D01*
X152832350Y-92669000D01*
X152859928Y-92671716D01*
G37*
G36*
X146850318Y-88445153D02*
G01*
X147068885Y-88535687D01*
X147068887Y-88535688D01*
X147265593Y-88667122D01*
X147432878Y-88834407D01*
X147564312Y-89031113D01*
X147564313Y-89031115D01*
X147654847Y-89249682D01*
X147701000Y-89481710D01*
X147701000Y-89718290D01*
X147654847Y-89950318D01*
X147580891Y-90128862D01*
X147564312Y-90168887D01*
X147432878Y-90365593D01*
X147265593Y-90532878D01*
X147068887Y-90664312D01*
X147068886Y-90664313D01*
X147068885Y-90664313D01*
X146850318Y-90754847D01*
X146751613Y-90774481D01*
X146728164Y-90781594D01*
X146706553Y-90793145D01*
X146687611Y-90808691D01*
X146672066Y-90827633D01*
X146660515Y-90849243D01*
X146653402Y-90872692D01*
X146651000Y-90897078D01*
X146651000Y-92326623D01*
X146637611Y-92337611D01*
X146622066Y-92356553D01*
X146610515Y-92378164D01*
X146603402Y-92401613D01*
X146601000Y-92425999D01*
X146601000Y-93251000D01*
X146099000Y-93251000D01*
X146099000Y-92425999D01*
X146096598Y-92401613D01*
X146089485Y-92378164D01*
X146077934Y-92356553D01*
X146062389Y-92337611D01*
X146043447Y-92322066D01*
X146021836Y-92310515D01*
X145998387Y-92303402D01*
X145974001Y-92301000D01*
X145775999Y-92301000D01*
X145751613Y-92303402D01*
X145728164Y-92310515D01*
X145706553Y-92322066D01*
X145687611Y-92337611D01*
X145672066Y-92356553D01*
X145660515Y-92378164D01*
X145653402Y-92401613D01*
X145651000Y-92425999D01*
X145651000Y-93251000D01*
X145149000Y-93251000D01*
X145149000Y-92425999D01*
X145146598Y-92401613D01*
X145139485Y-92378164D01*
X145127934Y-92356553D01*
X145112389Y-92337611D01*
X145093447Y-92322066D01*
X145071836Y-92310515D01*
X145048387Y-92303402D01*
X145024001Y-92301000D01*
X144825999Y-92301000D01*
X144801613Y-92303402D01*
X144778164Y-92310515D01*
X144756553Y-92322066D01*
X144737611Y-92337611D01*
X144722066Y-92356553D01*
X144710515Y-92378164D01*
X144703402Y-92401613D01*
X144701000Y-92425999D01*
X144701000Y-93251000D01*
X144199000Y-93251000D01*
X144199000Y-92425999D01*
X144196598Y-92401613D01*
X144189485Y-92378164D01*
X144177934Y-92356553D01*
X144162389Y-92337611D01*
X144149000Y-92326623D01*
X144149000Y-90673377D01*
X144162389Y-90662389D01*
X144177934Y-90643447D01*
X144189485Y-90621836D01*
X144196598Y-90598387D01*
X144199000Y-90574001D01*
X144199000Y-89749000D01*
X144701000Y-89749000D01*
X144701000Y-90574001D01*
X144703402Y-90598387D01*
X144710515Y-90621836D01*
X144722066Y-90643447D01*
X144737611Y-90662389D01*
X144756553Y-90677934D01*
X144778164Y-90689485D01*
X144801613Y-90696598D01*
X144825999Y-90699000D01*
X145024001Y-90699000D01*
X145048387Y-90696598D01*
X145071836Y-90689485D01*
X145093447Y-90677934D01*
X145112389Y-90662389D01*
X145127934Y-90643447D01*
X145139485Y-90621836D01*
X145146598Y-90598387D01*
X145149000Y-90574001D01*
X145149000Y-89749000D01*
X145174001Y-89749000D01*
X145198387Y-89746598D01*
X145221836Y-89739485D01*
X145243447Y-89727934D01*
X145262389Y-89712389D01*
X145277934Y-89693447D01*
X145289485Y-89671836D01*
X145296598Y-89648387D01*
X145299000Y-89624001D01*
X145299000Y-89481710D01*
X145345153Y-89249682D01*
X145435687Y-89031115D01*
X145435688Y-89031113D01*
X145567122Y-88834407D01*
X145734407Y-88667122D01*
X145931113Y-88535688D01*
X145931115Y-88535687D01*
X146149682Y-88445153D01*
X146381710Y-88399000D01*
X146618290Y-88399000D01*
X146850318Y-88445153D01*
G37*
G36*
X191471938Y-91331716D02*
G01*
X191492557Y-91337971D01*
X191511553Y-91348124D01*
X191528208Y-91361792D01*
X191541876Y-91378447D01*
X191552029Y-91397443D01*
X191558284Y-91418062D01*
X191561000Y-91445640D01*
X191561000Y-91954360D01*
X191558284Y-91981938D01*
X191552029Y-92002557D01*
X191541876Y-92021553D01*
X191528208Y-92038208D01*
X191511553Y-92051876D01*
X191492557Y-92062029D01*
X191471938Y-92068284D01*
X191444360Y-92071000D01*
X190985640Y-92071000D01*
X190958062Y-92068284D01*
X190937443Y-92062029D01*
X190918447Y-92051876D01*
X190901792Y-92038208D01*
X190888124Y-92021553D01*
X190877971Y-92002557D01*
X190871716Y-91981938D01*
X190869000Y-91954360D01*
X190869000Y-91445640D01*
X190871716Y-91418062D01*
X190877971Y-91397443D01*
X190888124Y-91378447D01*
X190901792Y-91361792D01*
X190918447Y-91348124D01*
X190937443Y-91337971D01*
X190958062Y-91331716D01*
X190985640Y-91329000D01*
X191444360Y-91329000D01*
X191471938Y-91331716D01*
G37*
G36*
X192441938Y-91331716D02*
G01*
X192462557Y-91337971D01*
X192481553Y-91348124D01*
X192498208Y-91361792D01*
X192511876Y-91378447D01*
X192522029Y-91397443D01*
X192528284Y-91418062D01*
X192531000Y-91445640D01*
X192531000Y-91954360D01*
X192528284Y-91981938D01*
X192522029Y-92002557D01*
X192511876Y-92021553D01*
X192498208Y-92038208D01*
X192481553Y-92051876D01*
X192462557Y-92062029D01*
X192441938Y-92068284D01*
X192414360Y-92071000D01*
X191955640Y-92071000D01*
X191928062Y-92068284D01*
X191907443Y-92062029D01*
X191888447Y-92051876D01*
X191871792Y-92038208D01*
X191858124Y-92021553D01*
X191847971Y-92002557D01*
X191841716Y-91981938D01*
X191839000Y-91954360D01*
X191839000Y-91445640D01*
X191841716Y-91418062D01*
X191847971Y-91397443D01*
X191858124Y-91378447D01*
X191871792Y-91361792D01*
X191888447Y-91348124D01*
X191907443Y-91337971D01*
X191928062Y-91331716D01*
X191955640Y-91329000D01*
X192414360Y-91329000D01*
X192441938Y-91331716D01*
G37*
G36*
X149850318Y-88445153D02*
G01*
X150068885Y-88535687D01*
X150068887Y-88535688D01*
X150265593Y-88667122D01*
X150432878Y-88834407D01*
X150564312Y-89031113D01*
X150564313Y-89031115D01*
X150654847Y-89249682D01*
X150701000Y-89481710D01*
X150701000Y-89718290D01*
X150654847Y-89950318D01*
X150580891Y-90128862D01*
X150564312Y-90168887D01*
X150432878Y-90365593D01*
X150265593Y-90532878D01*
X150068887Y-90664312D01*
X150068886Y-90664313D01*
X150068885Y-90664313D01*
X149850318Y-90754847D01*
X149618290Y-90801000D01*
X149381710Y-90801000D01*
X149149682Y-90754847D01*
X148931115Y-90664313D01*
X148931114Y-90664313D01*
X148931113Y-90664312D01*
X148734407Y-90532878D01*
X148567122Y-90365593D01*
X148435688Y-90168887D01*
X148419109Y-90128862D01*
X148345153Y-89950318D01*
X148299000Y-89718290D01*
X148299000Y-89481710D01*
X148345153Y-89249682D01*
X148435687Y-89031115D01*
X148435688Y-89031113D01*
X148567122Y-88834407D01*
X148734407Y-88667122D01*
X148931113Y-88535688D01*
X148931115Y-88535687D01*
X149149682Y-88445153D01*
X149381710Y-88399000D01*
X149618290Y-88399000D01*
X149850318Y-88445153D01*
G37*
G36*
X184948738Y-90042516D02*
G01*
X184969357Y-90048771D01*
X184988353Y-90058924D01*
X185005008Y-90072592D01*
X185018676Y-90089247D01*
X185028829Y-90108243D01*
X185035084Y-90128862D01*
X185037800Y-90156440D01*
X185037800Y-90615160D01*
X185035084Y-90642738D01*
X185028829Y-90663357D01*
X185018676Y-90682353D01*
X185005008Y-90699008D01*
X184988353Y-90712676D01*
X184969357Y-90722829D01*
X184948738Y-90729084D01*
X184921160Y-90731800D01*
X184412440Y-90731800D01*
X184384862Y-90729084D01*
X184364243Y-90722829D01*
X184345247Y-90712676D01*
X184328592Y-90699008D01*
X184314924Y-90682353D01*
X184304771Y-90663357D01*
X184298516Y-90642738D01*
X184295800Y-90615160D01*
X184295800Y-90156440D01*
X184298516Y-90128862D01*
X184304771Y-90108243D01*
X184314924Y-90089247D01*
X184328592Y-90072592D01*
X184345247Y-90058924D01*
X184364243Y-90048771D01*
X184384862Y-90042516D01*
X184412440Y-90039800D01*
X184921160Y-90039800D01*
X184948738Y-90042516D01*
G37*
G36*
X184948738Y-89072516D02*
G01*
X184969357Y-89078771D01*
X184988353Y-89088924D01*
X185005008Y-89102592D01*
X185018676Y-89119247D01*
X185028829Y-89138243D01*
X185035084Y-89158862D01*
X185037800Y-89186440D01*
X185037800Y-89645160D01*
X185035084Y-89672738D01*
X185028829Y-89693357D01*
X185018676Y-89712353D01*
X185005008Y-89729008D01*
X184988353Y-89742676D01*
X184969357Y-89752829D01*
X184948738Y-89759084D01*
X184921160Y-89761800D01*
X184412440Y-89761800D01*
X184384862Y-89759084D01*
X184364243Y-89752829D01*
X184345247Y-89742676D01*
X184328592Y-89729008D01*
X184314924Y-89712353D01*
X184304771Y-89693357D01*
X184298516Y-89672738D01*
X184295800Y-89645160D01*
X184295800Y-89186440D01*
X184298516Y-89158862D01*
X184304771Y-89138243D01*
X184314924Y-89119247D01*
X184328592Y-89102592D01*
X184345247Y-89088924D01*
X184364243Y-89078771D01*
X184384862Y-89072516D01*
X184412440Y-89069800D01*
X184921160Y-89069800D01*
X184948738Y-89072516D01*
G37*
G36*
X180577938Y-86179716D02*
G01*
X180598557Y-86185971D01*
X180617553Y-86196124D01*
X180634208Y-86209792D01*
X180647876Y-86226447D01*
X180658029Y-86245443D01*
X180664284Y-86266062D01*
X180667000Y-86293640D01*
X180667000Y-86802360D01*
X180664284Y-86829938D01*
X180658029Y-86850557D01*
X180647876Y-86869553D01*
X180634208Y-86886208D01*
X180617553Y-86899876D01*
X180598556Y-86910030D01*
X180595414Y-86910983D01*
X180572775Y-86920360D01*
X180552400Y-86933974D01*
X180535073Y-86951301D01*
X180521459Y-86971675D01*
X180512082Y-86994314D01*
X180507301Y-87018347D01*
X180507301Y-87042851D01*
X180512081Y-87066884D01*
X180521458Y-87089523D01*
X180535072Y-87109898D01*
X180552399Y-87127225D01*
X180572773Y-87140839D01*
X180595414Y-87150217D01*
X180598556Y-87151170D01*
X180617553Y-87161324D01*
X180634208Y-87174992D01*
X180647876Y-87191647D01*
X180658029Y-87210643D01*
X180664284Y-87231262D01*
X180667000Y-87258840D01*
X180667000Y-87767560D01*
X180664284Y-87795138D01*
X180658029Y-87815757D01*
X180647876Y-87834753D01*
X180634208Y-87851408D01*
X180617553Y-87865076D01*
X180598556Y-87875230D01*
X180595414Y-87876183D01*
X180572775Y-87885560D01*
X180552400Y-87899174D01*
X180535073Y-87916501D01*
X180521459Y-87936875D01*
X180512082Y-87959514D01*
X180507301Y-87983547D01*
X180507301Y-88008051D01*
X180512081Y-88032084D01*
X180521458Y-88054723D01*
X180535072Y-88075098D01*
X180552399Y-88092425D01*
X180572773Y-88106039D01*
X180595414Y-88115417D01*
X180598556Y-88116370D01*
X180617553Y-88126524D01*
X180634208Y-88140192D01*
X180647876Y-88156847D01*
X180658029Y-88175843D01*
X180664284Y-88196462D01*
X180667000Y-88224040D01*
X180667000Y-88732760D01*
X180664284Y-88760338D01*
X180658029Y-88780957D01*
X180647876Y-88799953D01*
X180634208Y-88816608D01*
X180617553Y-88830276D01*
X180598557Y-88840429D01*
X180577938Y-88846684D01*
X180550360Y-88849400D01*
X180091640Y-88849400D01*
X180064062Y-88846684D01*
X180043443Y-88840429D01*
X180024447Y-88830276D01*
X180007792Y-88816608D01*
X179994124Y-88799953D01*
X179983971Y-88780957D01*
X179977716Y-88760338D01*
X179975000Y-88732760D01*
X179975000Y-88224040D01*
X179977716Y-88196462D01*
X179983971Y-88175843D01*
X179994124Y-88156847D01*
X180007792Y-88140192D01*
X180024447Y-88126524D01*
X180043444Y-88116370D01*
X180046586Y-88115417D01*
X180069225Y-88106040D01*
X180089600Y-88092426D01*
X180106927Y-88075099D01*
X180120541Y-88054725D01*
X180129918Y-88032086D01*
X180134699Y-88008053D01*
X180134699Y-87983549D01*
X180129919Y-87959516D01*
X180120542Y-87936877D01*
X180106928Y-87916502D01*
X180089601Y-87899175D01*
X180069227Y-87885561D01*
X180046586Y-87876183D01*
X180043444Y-87875230D01*
X180024447Y-87865076D01*
X180007792Y-87851408D01*
X179994124Y-87834753D01*
X179983971Y-87815757D01*
X179977716Y-87795138D01*
X179975000Y-87767560D01*
X179975000Y-87258840D01*
X179977716Y-87231262D01*
X179983971Y-87210643D01*
X179994124Y-87191647D01*
X180007792Y-87174992D01*
X180024447Y-87161324D01*
X180043444Y-87151170D01*
X180046586Y-87150217D01*
X180069225Y-87140840D01*
X180089600Y-87127226D01*
X180106927Y-87109899D01*
X180120541Y-87089525D01*
X180129918Y-87066886D01*
X180134699Y-87042853D01*
X180134699Y-87018349D01*
X180129919Y-86994316D01*
X180120542Y-86971677D01*
X180106928Y-86951302D01*
X180089601Y-86933975D01*
X180069227Y-86920361D01*
X180046586Y-86910983D01*
X180043444Y-86910030D01*
X180024447Y-86899876D01*
X180007792Y-86886208D01*
X179994124Y-86869553D01*
X179983971Y-86850557D01*
X179977716Y-86829938D01*
X179975000Y-86802360D01*
X179975000Y-86293640D01*
X179977716Y-86266062D01*
X179983971Y-86245443D01*
X179994124Y-86226447D01*
X180007792Y-86209792D01*
X180024447Y-86196124D01*
X180043443Y-86185971D01*
X180064062Y-86179716D01*
X180091640Y-86177000D01*
X180550360Y-86177000D01*
X180577938Y-86179716D01*
G37*
G36*
X181547938Y-86179716D02*
G01*
X181568557Y-86185971D01*
X181587553Y-86196124D01*
X181604208Y-86209792D01*
X181617876Y-86226447D01*
X181628029Y-86245443D01*
X181634284Y-86266062D01*
X181637000Y-86293640D01*
X181637000Y-86802360D01*
X181634284Y-86829938D01*
X181628029Y-86850557D01*
X181617876Y-86869553D01*
X181604208Y-86886208D01*
X181587553Y-86899876D01*
X181568556Y-86910030D01*
X181565414Y-86910983D01*
X181542775Y-86920360D01*
X181522400Y-86933974D01*
X181505073Y-86951301D01*
X181491459Y-86971675D01*
X181482082Y-86994314D01*
X181477301Y-87018347D01*
X181477301Y-87042851D01*
X181482081Y-87066884D01*
X181491458Y-87089523D01*
X181505072Y-87109898D01*
X181522399Y-87127225D01*
X181542773Y-87140839D01*
X181565414Y-87150217D01*
X181568556Y-87151170D01*
X181587553Y-87161324D01*
X181604208Y-87174992D01*
X181617876Y-87191647D01*
X181628029Y-87210643D01*
X181634284Y-87231262D01*
X181637000Y-87258840D01*
X181637000Y-87767560D01*
X181634284Y-87795138D01*
X181628029Y-87815757D01*
X181617876Y-87834753D01*
X181604208Y-87851408D01*
X181587553Y-87865076D01*
X181568556Y-87875230D01*
X181565414Y-87876183D01*
X181542775Y-87885560D01*
X181522400Y-87899174D01*
X181505073Y-87916501D01*
X181491459Y-87936875D01*
X181482082Y-87959514D01*
X181477301Y-87983547D01*
X181477301Y-88008051D01*
X181482081Y-88032084D01*
X181491458Y-88054723D01*
X181505072Y-88075098D01*
X181522399Y-88092425D01*
X181542773Y-88106039D01*
X181565414Y-88115417D01*
X181568556Y-88116370D01*
X181587553Y-88126524D01*
X181604208Y-88140192D01*
X181617876Y-88156847D01*
X181628029Y-88175843D01*
X181634284Y-88196462D01*
X181637000Y-88224040D01*
X181637000Y-88732760D01*
X181634284Y-88760338D01*
X181628029Y-88780957D01*
X181617876Y-88799953D01*
X181604208Y-88816608D01*
X181587553Y-88830276D01*
X181568557Y-88840429D01*
X181547938Y-88846684D01*
X181520360Y-88849400D01*
X181061640Y-88849400D01*
X181034062Y-88846684D01*
X181013443Y-88840429D01*
X180994447Y-88830276D01*
X180977792Y-88816608D01*
X180964124Y-88799953D01*
X180953971Y-88780957D01*
X180947716Y-88760338D01*
X180945000Y-88732760D01*
X180945000Y-88224040D01*
X180947716Y-88196462D01*
X180953971Y-88175843D01*
X180964124Y-88156847D01*
X180977792Y-88140192D01*
X180994447Y-88126524D01*
X181013444Y-88116370D01*
X181016586Y-88115417D01*
X181039225Y-88106040D01*
X181059600Y-88092426D01*
X181076927Y-88075099D01*
X181090541Y-88054725D01*
X181099918Y-88032086D01*
X181104699Y-88008053D01*
X181104699Y-87983549D01*
X181099919Y-87959516D01*
X181090542Y-87936877D01*
X181076928Y-87916502D01*
X181059601Y-87899175D01*
X181039227Y-87885561D01*
X181016586Y-87876183D01*
X181013444Y-87875230D01*
X180994447Y-87865076D01*
X180977792Y-87851408D01*
X180964124Y-87834753D01*
X180953971Y-87815757D01*
X180947716Y-87795138D01*
X180945000Y-87767560D01*
X180945000Y-87258840D01*
X180947716Y-87231262D01*
X180953971Y-87210643D01*
X180964124Y-87191647D01*
X180977792Y-87174992D01*
X180994447Y-87161324D01*
X181013444Y-87151170D01*
X181016586Y-87150217D01*
X181039225Y-87140840D01*
X181059600Y-87127226D01*
X181076927Y-87109899D01*
X181090541Y-87089525D01*
X181099918Y-87066886D01*
X181104699Y-87042853D01*
X181104699Y-87018349D01*
X181099919Y-86994316D01*
X181090542Y-86971677D01*
X181076928Y-86951302D01*
X181059601Y-86933975D01*
X181039227Y-86920361D01*
X181016586Y-86910983D01*
X181013444Y-86910030D01*
X180994447Y-86899876D01*
X180977792Y-86886208D01*
X180964124Y-86869553D01*
X180953971Y-86850557D01*
X180947716Y-86829938D01*
X180945000Y-86802360D01*
X180945000Y-86293640D01*
X180947716Y-86266062D01*
X180953971Y-86245443D01*
X180964124Y-86226447D01*
X180977792Y-86209792D01*
X180994447Y-86196124D01*
X181013443Y-86185971D01*
X181034062Y-86179716D01*
X181061640Y-86177000D01*
X181520360Y-86177000D01*
X181547938Y-86179716D01*
G37*
G36*
X183935538Y-86179716D02*
G01*
X183956157Y-86185971D01*
X183975153Y-86196124D01*
X183991808Y-86209792D01*
X184005476Y-86226447D01*
X184015629Y-86245443D01*
X184021884Y-86266062D01*
X184024600Y-86293640D01*
X184024600Y-86802360D01*
X184021884Y-86829938D01*
X184015629Y-86850557D01*
X184005476Y-86869553D01*
X183991808Y-86886208D01*
X183975153Y-86899876D01*
X183956156Y-86910030D01*
X183953014Y-86910983D01*
X183930375Y-86920360D01*
X183910000Y-86933974D01*
X183892673Y-86951301D01*
X183879059Y-86971675D01*
X183869682Y-86994314D01*
X183864901Y-87018347D01*
X183864901Y-87042851D01*
X183869681Y-87066884D01*
X183879058Y-87089523D01*
X183892672Y-87109898D01*
X183909999Y-87127225D01*
X183930373Y-87140839D01*
X183953014Y-87150217D01*
X183956156Y-87151170D01*
X183975153Y-87161324D01*
X183991808Y-87174992D01*
X184005476Y-87191647D01*
X184015629Y-87210643D01*
X184021884Y-87231262D01*
X184024600Y-87258840D01*
X184024600Y-87767560D01*
X184021884Y-87795138D01*
X184015629Y-87815757D01*
X184005476Y-87834753D01*
X183991808Y-87851408D01*
X183975153Y-87865076D01*
X183956156Y-87875230D01*
X183953014Y-87876183D01*
X183930375Y-87885560D01*
X183910000Y-87899174D01*
X183892673Y-87916501D01*
X183879059Y-87936875D01*
X183869682Y-87959514D01*
X183864901Y-87983547D01*
X183864901Y-88008051D01*
X183869681Y-88032084D01*
X183879058Y-88054723D01*
X183892672Y-88075098D01*
X183909999Y-88092425D01*
X183930373Y-88106039D01*
X183953014Y-88115417D01*
X183956156Y-88116370D01*
X183975153Y-88126524D01*
X183991808Y-88140192D01*
X184005476Y-88156847D01*
X184015629Y-88175843D01*
X184021884Y-88196462D01*
X184024600Y-88224040D01*
X184024600Y-88732760D01*
X184021884Y-88760338D01*
X184015629Y-88780957D01*
X184005476Y-88799953D01*
X183991808Y-88816608D01*
X183975153Y-88830276D01*
X183956157Y-88840429D01*
X183935538Y-88846684D01*
X183907960Y-88849400D01*
X183449240Y-88849400D01*
X183421662Y-88846684D01*
X183401043Y-88840429D01*
X183382047Y-88830276D01*
X183365392Y-88816608D01*
X183351724Y-88799953D01*
X183341571Y-88780957D01*
X183335316Y-88760338D01*
X183332600Y-88732760D01*
X183332600Y-88224040D01*
X183335316Y-88196462D01*
X183341571Y-88175843D01*
X183351724Y-88156847D01*
X183365392Y-88140192D01*
X183382047Y-88126524D01*
X183401044Y-88116370D01*
X183404186Y-88115417D01*
X183426825Y-88106040D01*
X183447200Y-88092426D01*
X183464527Y-88075099D01*
X183478141Y-88054725D01*
X183487518Y-88032086D01*
X183492299Y-88008053D01*
X183492299Y-87983549D01*
X183487519Y-87959516D01*
X183478142Y-87936877D01*
X183464528Y-87916502D01*
X183447201Y-87899175D01*
X183426827Y-87885561D01*
X183404186Y-87876183D01*
X183401044Y-87875230D01*
X183382047Y-87865076D01*
X183365392Y-87851408D01*
X183351724Y-87834753D01*
X183341571Y-87815757D01*
X183335316Y-87795138D01*
X183332600Y-87767560D01*
X183332600Y-87258840D01*
X183335316Y-87231262D01*
X183341571Y-87210643D01*
X183351724Y-87191647D01*
X183365392Y-87174992D01*
X183382047Y-87161324D01*
X183401044Y-87151170D01*
X183404186Y-87150217D01*
X183426825Y-87140840D01*
X183447200Y-87127226D01*
X183464527Y-87109899D01*
X183478141Y-87089525D01*
X183487518Y-87066886D01*
X183492299Y-87042853D01*
X183492299Y-87018349D01*
X183487519Y-86994316D01*
X183478142Y-86971677D01*
X183464528Y-86951302D01*
X183447201Y-86933975D01*
X183426827Y-86920361D01*
X183404186Y-86910983D01*
X183401044Y-86910030D01*
X183382047Y-86899876D01*
X183365392Y-86886208D01*
X183351724Y-86869553D01*
X183341571Y-86850557D01*
X183335316Y-86829938D01*
X183332600Y-86802360D01*
X183332600Y-86293640D01*
X183335316Y-86266062D01*
X183341571Y-86245443D01*
X183351724Y-86226447D01*
X183365392Y-86209792D01*
X183382047Y-86196124D01*
X183401043Y-86185971D01*
X183421662Y-86179716D01*
X183449240Y-86177000D01*
X183907960Y-86177000D01*
X183935538Y-86179716D01*
G37*
G36*
X182965538Y-86179716D02*
G01*
X182986157Y-86185971D01*
X183005153Y-86196124D01*
X183021808Y-86209792D01*
X183035476Y-86226447D01*
X183045629Y-86245443D01*
X183051884Y-86266062D01*
X183054600Y-86293640D01*
X183054600Y-86802360D01*
X183051884Y-86829938D01*
X183045629Y-86850557D01*
X183035476Y-86869553D01*
X183021808Y-86886208D01*
X183005153Y-86899876D01*
X182986156Y-86910030D01*
X182983014Y-86910983D01*
X182960375Y-86920360D01*
X182940000Y-86933974D01*
X182922673Y-86951301D01*
X182909059Y-86971675D01*
X182899682Y-86994314D01*
X182894901Y-87018347D01*
X182894901Y-87042851D01*
X182899681Y-87066884D01*
X182909058Y-87089523D01*
X182922672Y-87109898D01*
X182939999Y-87127225D01*
X182960373Y-87140839D01*
X182983014Y-87150217D01*
X182986156Y-87151170D01*
X183005153Y-87161324D01*
X183021808Y-87174992D01*
X183035476Y-87191647D01*
X183045629Y-87210643D01*
X183051884Y-87231262D01*
X183054600Y-87258840D01*
X183054600Y-87767560D01*
X183051884Y-87795138D01*
X183045629Y-87815757D01*
X183035476Y-87834753D01*
X183021808Y-87851408D01*
X183005153Y-87865076D01*
X182986156Y-87875230D01*
X182983014Y-87876183D01*
X182960375Y-87885560D01*
X182940000Y-87899174D01*
X182922673Y-87916501D01*
X182909059Y-87936875D01*
X182899682Y-87959514D01*
X182894901Y-87983547D01*
X182894901Y-88008051D01*
X182899681Y-88032084D01*
X182909058Y-88054723D01*
X182922672Y-88075098D01*
X182939999Y-88092425D01*
X182960373Y-88106039D01*
X182983014Y-88115417D01*
X182986156Y-88116370D01*
X183005153Y-88126524D01*
X183021808Y-88140192D01*
X183035476Y-88156847D01*
X183045629Y-88175843D01*
X183051884Y-88196462D01*
X183054600Y-88224040D01*
X183054600Y-88732760D01*
X183051884Y-88760338D01*
X183045629Y-88780957D01*
X183035476Y-88799953D01*
X183021808Y-88816608D01*
X183005153Y-88830276D01*
X182986157Y-88840429D01*
X182965538Y-88846684D01*
X182937960Y-88849400D01*
X182479240Y-88849400D01*
X182451662Y-88846684D01*
X182431043Y-88840429D01*
X182412047Y-88830276D01*
X182395392Y-88816608D01*
X182381724Y-88799953D01*
X182371571Y-88780957D01*
X182365316Y-88760338D01*
X182362600Y-88732760D01*
X182362600Y-88224040D01*
X182365316Y-88196462D01*
X182371571Y-88175843D01*
X182381724Y-88156847D01*
X182395392Y-88140192D01*
X182412047Y-88126524D01*
X182431044Y-88116370D01*
X182434186Y-88115417D01*
X182456825Y-88106040D01*
X182477200Y-88092426D01*
X182494527Y-88075099D01*
X182508141Y-88054725D01*
X182517518Y-88032086D01*
X182522299Y-88008053D01*
X182522299Y-87983549D01*
X182517519Y-87959516D01*
X182508142Y-87936877D01*
X182494528Y-87916502D01*
X182477201Y-87899175D01*
X182456827Y-87885561D01*
X182434186Y-87876183D01*
X182431044Y-87875230D01*
X182412047Y-87865076D01*
X182395392Y-87851408D01*
X182381724Y-87834753D01*
X182371571Y-87815757D01*
X182365316Y-87795138D01*
X182362600Y-87767560D01*
X182362600Y-87258840D01*
X182365316Y-87231262D01*
X182371571Y-87210643D01*
X182381724Y-87191647D01*
X182395392Y-87174992D01*
X182412047Y-87161324D01*
X182431044Y-87151170D01*
X182434186Y-87150217D01*
X182456825Y-87140840D01*
X182477200Y-87127226D01*
X182494527Y-87109899D01*
X182508141Y-87089525D01*
X182517518Y-87066886D01*
X182522299Y-87042853D01*
X182522299Y-87018349D01*
X182517519Y-86994316D01*
X182508142Y-86971677D01*
X182494528Y-86951302D01*
X182477201Y-86933975D01*
X182456827Y-86920361D01*
X182434186Y-86910983D01*
X182431044Y-86910030D01*
X182412047Y-86899876D01*
X182395392Y-86886208D01*
X182381724Y-86869553D01*
X182371571Y-86850557D01*
X182365316Y-86829938D01*
X182362600Y-86802360D01*
X182362600Y-86293640D01*
X182365316Y-86266062D01*
X182371571Y-86245443D01*
X182381724Y-86226447D01*
X182395392Y-86209792D01*
X182412047Y-86196124D01*
X182431043Y-86185971D01*
X182451662Y-86179716D01*
X182479240Y-86177000D01*
X182937960Y-86177000D01*
X182965538Y-86179716D01*
G37*
M02*
