G04 #@! TF.GenerationSoftware,KiCad,Pcbnew,5.1.5-52549c5~84~ubuntu19.04.1*
G04 #@! TF.CreationDate,2020-02-16T02:06:15+01:00*
G04 #@! TF.ProjectId,ilulissat,696c756c-6973-4736-9174-2e6b69636164,rev?*
G04 #@! TF.SameCoordinates,Original*
G04 #@! TF.FileFunction,Legend,Top*
G04 #@! TF.FilePolarity,Positive*
%FSLAX46Y46*%
G04 Gerber Fmt 4.6, Leading zero omitted, Abs format (unit mm)*
G04 Created by KiCad (PCBNEW 5.1.5-52549c5~84~ubuntu19.04.1) date 2020-02-16 02:06:15*
%MOMM*%
%LPD*%
G04 APERTURE LIST*
%ADD10C,0.300000*%
%ADD11C,0.100000*%
%ADD12C,0.120000*%
%ADD13C,0.150000*%
G04 APERTURE END LIST*
D10*
X145878571Y-91607142D02*
X147021428Y-91607142D01*
X146450000Y-92178571D02*
X146450000Y-91035714D01*
X149053571Y-91607142D02*
X150196428Y-91607142D01*
X149625000Y-92178571D02*
X149625000Y-91035714D01*
X143853571Y-110207142D02*
X144996428Y-110207142D01*
X144425000Y-110778571D02*
X144425000Y-109635714D01*
D11*
X150090000Y-107775000D02*
G75*
G03X150090000Y-107775000I-50000J0D01*
G01*
D12*
X153227710Y-89747487D02*
X154012599Y-88962599D01*
X153765111Y-90284889D02*
X153227710Y-89747487D01*
X155485835Y-89638967D02*
X155872290Y-89252513D01*
X154302513Y-90822290D02*
X154688967Y-90435835D01*
X155872290Y-89252513D02*
X160316456Y-93696679D01*
X154302513Y-90822290D02*
X158746679Y-95266456D01*
X159749024Y-94264111D02*
X160316456Y-93696679D01*
X158746679Y-95266456D02*
X159314111Y-94699024D01*
X155350000Y-107800000D02*
X155350000Y-108100000D01*
X152050000Y-107800000D02*
X155350000Y-107800000D01*
X152050000Y-108100000D02*
X152050000Y-107800000D01*
X155350000Y-110600000D02*
X155350000Y-110300000D01*
X152050000Y-110600000D02*
X155350000Y-110600000D01*
X152050000Y-110300000D02*
X152050000Y-110600000D01*
X146150000Y-102100000D02*
X146150000Y-106100000D01*
X149450000Y-102100000D02*
X146150000Y-102100000D01*
X142900000Y-97400000D02*
X142900000Y-99800000D01*
X144500000Y-97400000D02*
X142900000Y-97400000D01*
X144500000Y-99800000D02*
X144500000Y-97400000D01*
X159100000Y-98800000D02*
X159100000Y-104200000D01*
X161700000Y-98800000D02*
X159100000Y-98800000D01*
X152050000Y-106900000D02*
X152050000Y-107200000D01*
X152050000Y-107200000D02*
X155350000Y-107200000D01*
X155350000Y-107200000D02*
X155350000Y-106900000D01*
X152050000Y-104700000D02*
X152050000Y-104400000D01*
X152050000Y-104400000D02*
X155350000Y-104400000D01*
X155350000Y-104400000D02*
X155350000Y-104700000D01*
D13*
X144400000Y-105575000D02*
X144400000Y-102625000D01*
X141000000Y-105200000D02*
X141000000Y-103000000D01*
D12*
X145690000Y-95340000D02*
X145690000Y-94990000D01*
X145690000Y-94990000D02*
X146040000Y-94990000D01*
X149910000Y-98860000D02*
X149910000Y-99210000D01*
X149910000Y-99210000D02*
X149560000Y-99210000D01*
X149910000Y-95340000D02*
X149910000Y-94990000D01*
X149910000Y-94990000D02*
X149560000Y-94990000D01*
X145690000Y-98860000D02*
X145690000Y-99210000D01*
D13*
X144983333Y-109127380D02*
X144650000Y-108651190D01*
X144411904Y-109127380D02*
X144411904Y-108127380D01*
X144792857Y-108127380D01*
X144888095Y-108175000D01*
X144935714Y-108222619D01*
X144983333Y-108317857D01*
X144983333Y-108460714D01*
X144935714Y-108555952D01*
X144888095Y-108603571D01*
X144792857Y-108651190D01*
X144411904Y-108651190D01*
X145316666Y-108127380D02*
X145935714Y-108127380D01*
X145602380Y-108508333D01*
X145745238Y-108508333D01*
X145840476Y-108555952D01*
X145888095Y-108603571D01*
X145935714Y-108698809D01*
X145935714Y-108936904D01*
X145888095Y-109032142D01*
X145840476Y-109079761D01*
X145745238Y-109127380D01*
X145459523Y-109127380D01*
X145364285Y-109079761D01*
X145316666Y-109032142D01*
X150061904Y-108102380D02*
X150061904Y-107102380D01*
X150300000Y-107102380D01*
X150442857Y-107150000D01*
X150538095Y-107245238D01*
X150585714Y-107340476D01*
X150633333Y-107530952D01*
X150633333Y-107673809D01*
X150585714Y-107864285D01*
X150538095Y-107959523D01*
X150442857Y-108054761D01*
X150300000Y-108102380D01*
X150061904Y-108102380D01*
X151585714Y-108102380D02*
X151014285Y-108102380D01*
X151300000Y-108102380D02*
X151300000Y-107102380D01*
X151204761Y-107245238D01*
X151109523Y-107340476D01*
X151014285Y-107388095D01*
X152377072Y-88298476D02*
X152882148Y-88803552D01*
X152949492Y-88938239D01*
X152949492Y-89072926D01*
X152882148Y-89207613D01*
X152814805Y-89274956D01*
X153791286Y-88298476D02*
X153387225Y-88702537D01*
X153589255Y-88500506D02*
X152882148Y-87793399D01*
X152915820Y-87961758D01*
X152915820Y-88096445D01*
X152882148Y-88197460D01*
X156427380Y-109861904D02*
X157236904Y-109861904D01*
X157332142Y-109814285D01*
X157379761Y-109766666D01*
X157427380Y-109671428D01*
X157427380Y-109480952D01*
X157379761Y-109385714D01*
X157332142Y-109338095D01*
X157236904Y-109290476D01*
X156427380Y-109290476D01*
X157379761Y-108861904D02*
X157427380Y-108719047D01*
X157427380Y-108480952D01*
X157379761Y-108385714D01*
X157332142Y-108338095D01*
X157236904Y-108290476D01*
X157141666Y-108290476D01*
X157046428Y-108338095D01*
X156998809Y-108385714D01*
X156951190Y-108480952D01*
X156903571Y-108671428D01*
X156855952Y-108766666D01*
X156808333Y-108814285D01*
X156713095Y-108861904D01*
X156617857Y-108861904D01*
X156522619Y-108814285D01*
X156475000Y-108766666D01*
X156427380Y-108671428D01*
X156427380Y-108433333D01*
X156475000Y-108290476D01*
X157427380Y-107290476D02*
X156951190Y-107623809D01*
X157427380Y-107861904D02*
X156427380Y-107861904D01*
X156427380Y-107480952D01*
X156475000Y-107385714D01*
X156522619Y-107338095D01*
X156617857Y-107290476D01*
X156760714Y-107290476D01*
X156855952Y-107338095D01*
X156903571Y-107385714D01*
X156951190Y-107480952D01*
X156951190Y-107861904D01*
X155102380Y-91891666D02*
X155102380Y-92367857D01*
X154102380Y-92367857D01*
X155102380Y-91034523D02*
X155102380Y-91605952D01*
X155102380Y-91320238D02*
X154102380Y-91320238D01*
X154245238Y-91415476D01*
X154340476Y-91510714D01*
X154388095Y-91605952D01*
X150226190Y-104576190D02*
X150702380Y-104576190D01*
X149702380Y-104909523D02*
X150226190Y-104576190D01*
X149702380Y-104242857D01*
X149797619Y-103957142D02*
X149750000Y-103909523D01*
X149702380Y-103814285D01*
X149702380Y-103576190D01*
X149750000Y-103480952D01*
X149797619Y-103433333D01*
X149892857Y-103385714D01*
X149988095Y-103385714D01*
X150130952Y-103433333D01*
X150702380Y-104004761D01*
X150702380Y-103385714D01*
X144598809Y-100626190D02*
X144598809Y-101102380D01*
X144265476Y-100102380D02*
X144598809Y-100626190D01*
X144932142Y-100102380D01*
X145789285Y-101102380D02*
X145217857Y-101102380D01*
X145503571Y-101102380D02*
X145503571Y-100102380D01*
X145408333Y-100245238D01*
X145313095Y-100340476D01*
X145217857Y-100388095D01*
X160708333Y-97577380D02*
X160232142Y-97577380D01*
X160232142Y-96577380D01*
X161470238Y-96910714D02*
X161470238Y-97577380D01*
X161232142Y-96529761D02*
X160994047Y-97244047D01*
X161613095Y-97244047D01*
X158166666Y-102666666D02*
X158166666Y-102190476D01*
X158452380Y-102761904D02*
X157452380Y-102428571D01*
X158452380Y-102095238D01*
X157928571Y-101761904D02*
X157928571Y-101428571D01*
X158452380Y-101285714D02*
X158452380Y-101761904D01*
X157452380Y-101761904D01*
X157452380Y-101285714D01*
X158452380Y-100333333D02*
X158452380Y-100904761D01*
X158452380Y-100619047D02*
X157452380Y-100619047D01*
X157595238Y-100714285D01*
X157690476Y-100809523D01*
X157738095Y-100904761D01*
X152913333Y-96677380D02*
X152437142Y-96677380D01*
X152437142Y-95677380D01*
X153151428Y-95677380D02*
X153770476Y-95677380D01*
X153437142Y-96058333D01*
X153580000Y-96058333D01*
X153675238Y-96105952D01*
X153722857Y-96153571D01*
X153770476Y-96248809D01*
X153770476Y-96486904D01*
X153722857Y-96582142D01*
X153675238Y-96629761D01*
X153580000Y-96677380D01*
X153294285Y-96677380D01*
X153199047Y-96629761D01*
X153151428Y-96582142D01*
X153152380Y-102966666D02*
X153152380Y-103442857D01*
X152152380Y-103442857D01*
X152247619Y-102680952D02*
X152200000Y-102633333D01*
X152152380Y-102538095D01*
X152152380Y-102300000D01*
X152200000Y-102204761D01*
X152247619Y-102157142D01*
X152342857Y-102109523D01*
X152438095Y-102109523D01*
X152580952Y-102157142D01*
X153152380Y-102728571D01*
X153152380Y-102109523D01*
X156060000Y-106582142D02*
X156060000Y-105582142D01*
X157427380Y-105772619D02*
X156951190Y-106105952D01*
X157427380Y-106344047D02*
X156427380Y-106344047D01*
X156427380Y-105963095D01*
X156475000Y-105867857D01*
X156522619Y-105820238D01*
X156617857Y-105772619D01*
X156760714Y-105772619D01*
X156855952Y-105820238D01*
X156903571Y-105867857D01*
X156951190Y-105963095D01*
X156951190Y-106344047D01*
X156060000Y-105582142D02*
X156060000Y-104629761D01*
X157379761Y-105391666D02*
X157427380Y-105248809D01*
X157427380Y-105010714D01*
X157379761Y-104915476D01*
X157332142Y-104867857D01*
X157236904Y-104820238D01*
X157141666Y-104820238D01*
X157046428Y-104867857D01*
X156998809Y-104915476D01*
X156951190Y-105010714D01*
X156903571Y-105201190D01*
X156855952Y-105296428D01*
X156808333Y-105344047D01*
X156713095Y-105391666D01*
X156617857Y-105391666D01*
X156522619Y-105344047D01*
X156475000Y-105296428D01*
X156427380Y-105201190D01*
X156427380Y-104963095D01*
X156475000Y-104820238D01*
X156060000Y-104629761D02*
X156060000Y-103867857D01*
X156427380Y-104534523D02*
X156427380Y-103963095D01*
X157427380Y-104248809D02*
X156427380Y-104248809D01*
X144822380Y-104861904D02*
X145631904Y-104861904D01*
X145727142Y-104814285D01*
X145774761Y-104766666D01*
X145822380Y-104671428D01*
X145822380Y-104480952D01*
X145774761Y-104385714D01*
X145727142Y-104338095D01*
X145631904Y-104290476D01*
X144822380Y-104290476D01*
X144917619Y-103861904D02*
X144870000Y-103814285D01*
X144822380Y-103719047D01*
X144822380Y-103480952D01*
X144870000Y-103385714D01*
X144917619Y-103338095D01*
X145012857Y-103290476D01*
X145108095Y-103290476D01*
X145250952Y-103338095D01*
X145822380Y-103909523D01*
X145822380Y-103290476D01*
X148763095Y-93302380D02*
X148763095Y-94111904D01*
X148810714Y-94207142D01*
X148858333Y-94254761D01*
X148953571Y-94302380D01*
X149144047Y-94302380D01*
X149239285Y-94254761D01*
X149286904Y-94207142D01*
X149334523Y-94111904D01*
X149334523Y-93302380D01*
X150334523Y-94302380D02*
X149763095Y-94302380D01*
X150048809Y-94302380D02*
X150048809Y-93302380D01*
X149953571Y-93445238D01*
X149858333Y-93540476D01*
X149763095Y-93588095D01*
X140933333Y-101252380D02*
X140600000Y-100776190D01*
X140361904Y-101252380D02*
X140361904Y-100252380D01*
X140742857Y-100252380D01*
X140838095Y-100300000D01*
X140885714Y-100347619D01*
X140933333Y-100442857D01*
X140933333Y-100585714D01*
X140885714Y-100680952D01*
X140838095Y-100728571D01*
X140742857Y-100776190D01*
X140361904Y-100776190D01*
X141314285Y-100347619D02*
X141361904Y-100300000D01*
X141457142Y-100252380D01*
X141695238Y-100252380D01*
X141790476Y-100300000D01*
X141838095Y-100347619D01*
X141885714Y-100442857D01*
X141885714Y-100538095D01*
X141838095Y-100680952D01*
X141266666Y-101252380D01*
X141885714Y-101252380D01*
X144933333Y-107352380D02*
X144600000Y-106876190D01*
X144361904Y-107352380D02*
X144361904Y-106352380D01*
X144742857Y-106352380D01*
X144838095Y-106400000D01*
X144885714Y-106447619D01*
X144933333Y-106542857D01*
X144933333Y-106685714D01*
X144885714Y-106780952D01*
X144838095Y-106828571D01*
X144742857Y-106876190D01*
X144361904Y-106876190D01*
X145885714Y-107352380D02*
X145314285Y-107352380D01*
X145600000Y-107352380D02*
X145600000Y-106352380D01*
X145504761Y-106495238D01*
X145409523Y-106590476D01*
X145314285Y-106638095D01*
X155457142Y-95582142D02*
X155409523Y-95629761D01*
X155266666Y-95677380D01*
X155171428Y-95677380D01*
X155028571Y-95629761D01*
X154933333Y-95534523D01*
X154885714Y-95439285D01*
X154838095Y-95248809D01*
X154838095Y-95105952D01*
X154885714Y-94915476D01*
X154933333Y-94820238D01*
X155028571Y-94725000D01*
X155171428Y-94677380D01*
X155266666Y-94677380D01*
X155409523Y-94725000D01*
X155457142Y-94772619D01*
X156409523Y-95677380D02*
X155838095Y-95677380D01*
X156123809Y-95677380D02*
X156123809Y-94677380D01*
X156028571Y-94820238D01*
X155933333Y-94915476D01*
X155838095Y-94963095D01*
X157314285Y-94677380D02*
X156838095Y-94677380D01*
X156790476Y-95153571D01*
X156838095Y-95105952D01*
X156933333Y-95058333D01*
X157171428Y-95058333D01*
X157266666Y-95105952D01*
X157314285Y-95153571D01*
X157361904Y-95248809D01*
X157361904Y-95486904D01*
X157314285Y-95582142D01*
X157266666Y-95629761D01*
X157171428Y-95677380D01*
X156933333Y-95677380D01*
X156838095Y-95629761D01*
X156790476Y-95582142D01*
X154757142Y-100407142D02*
X154709523Y-100454761D01*
X154566666Y-100502380D01*
X154471428Y-100502380D01*
X154328571Y-100454761D01*
X154233333Y-100359523D01*
X154185714Y-100264285D01*
X154138095Y-100073809D01*
X154138095Y-99930952D01*
X154185714Y-99740476D01*
X154233333Y-99645238D01*
X154328571Y-99550000D01*
X154471428Y-99502380D01*
X154566666Y-99502380D01*
X154709523Y-99550000D01*
X154757142Y-99597619D01*
X155709523Y-100502380D02*
X155138095Y-100502380D01*
X155423809Y-100502380D02*
X155423809Y-99502380D01*
X155328571Y-99645238D01*
X155233333Y-99740476D01*
X155138095Y-99788095D01*
X156566666Y-99835714D02*
X156566666Y-100502380D01*
X156328571Y-99454761D02*
X156090476Y-100169047D01*
X156709523Y-100169047D01*
X151532142Y-99732142D02*
X151484523Y-99779761D01*
X151341666Y-99827380D01*
X151246428Y-99827380D01*
X151103571Y-99779761D01*
X151008333Y-99684523D01*
X150960714Y-99589285D01*
X150913095Y-99398809D01*
X150913095Y-99255952D01*
X150960714Y-99065476D01*
X151008333Y-98970238D01*
X151103571Y-98875000D01*
X151246428Y-98827380D01*
X151341666Y-98827380D01*
X151484523Y-98875000D01*
X151532142Y-98922619D01*
X152484523Y-99827380D02*
X151913095Y-99827380D01*
X152198809Y-99827380D02*
X152198809Y-98827380D01*
X152103571Y-98970238D01*
X152008333Y-99065476D01*
X151913095Y-99113095D01*
X152817857Y-98827380D02*
X153436904Y-98827380D01*
X153103571Y-99208333D01*
X153246428Y-99208333D01*
X153341666Y-99255952D01*
X153389285Y-99303571D01*
X153436904Y-99398809D01*
X153436904Y-99636904D01*
X153389285Y-99732142D01*
X153341666Y-99779761D01*
X153246428Y-99827380D01*
X152960714Y-99827380D01*
X152865476Y-99779761D01*
X152817857Y-99732142D01*
X151757142Y-94167857D02*
X151804761Y-94215476D01*
X151852380Y-94358333D01*
X151852380Y-94453571D01*
X151804761Y-94596428D01*
X151709523Y-94691666D01*
X151614285Y-94739285D01*
X151423809Y-94786904D01*
X151280952Y-94786904D01*
X151090476Y-94739285D01*
X150995238Y-94691666D01*
X150900000Y-94596428D01*
X150852380Y-94453571D01*
X150852380Y-94358333D01*
X150900000Y-94215476D01*
X150947619Y-94167857D01*
X151852380Y-93215476D02*
X151852380Y-93786904D01*
X151852380Y-93501190D02*
X150852380Y-93501190D01*
X150995238Y-93596428D01*
X151090476Y-93691666D01*
X151138095Y-93786904D01*
X150947619Y-92834523D02*
X150900000Y-92786904D01*
X150852380Y-92691666D01*
X150852380Y-92453571D01*
X150900000Y-92358333D01*
X150947619Y-92310714D01*
X151042857Y-92263095D01*
X151138095Y-92263095D01*
X151280952Y-92310714D01*
X151852380Y-92882142D01*
X151852380Y-92263095D01*
X144832142Y-96292857D02*
X144879761Y-96340476D01*
X144927380Y-96483333D01*
X144927380Y-96578571D01*
X144879761Y-96721428D01*
X144784523Y-96816666D01*
X144689285Y-96864285D01*
X144498809Y-96911904D01*
X144355952Y-96911904D01*
X144165476Y-96864285D01*
X144070238Y-96816666D01*
X143975000Y-96721428D01*
X143927380Y-96578571D01*
X143927380Y-96483333D01*
X143975000Y-96340476D01*
X144022619Y-96292857D01*
X144927380Y-95340476D02*
X144927380Y-95911904D01*
X144927380Y-95626190D02*
X143927380Y-95626190D01*
X144070238Y-95721428D01*
X144165476Y-95816666D01*
X144213095Y-95911904D01*
X144927380Y-94388095D02*
X144927380Y-94959523D01*
X144927380Y-94673809D02*
X143927380Y-94673809D01*
X144070238Y-94769047D01*
X144165476Y-94864285D01*
X144213095Y-94959523D01*
X140607142Y-96366666D02*
X140654761Y-96414285D01*
X140702380Y-96557142D01*
X140702380Y-96652380D01*
X140654761Y-96795238D01*
X140559523Y-96890476D01*
X140464285Y-96938095D01*
X140273809Y-96985714D01*
X140130952Y-96985714D01*
X139940476Y-96938095D01*
X139845238Y-96890476D01*
X139750000Y-96795238D01*
X139702380Y-96652380D01*
X139702380Y-96557142D01*
X139750000Y-96414285D01*
X139797619Y-96366666D01*
X140702380Y-95890476D02*
X140702380Y-95700000D01*
X140654761Y-95604761D01*
X140607142Y-95557142D01*
X140464285Y-95461904D01*
X140273809Y-95414285D01*
X139892857Y-95414285D01*
X139797619Y-95461904D01*
X139750000Y-95509523D01*
X139702380Y-95604761D01*
X139702380Y-95795238D01*
X139750000Y-95890476D01*
X139797619Y-95938095D01*
X139892857Y-95985714D01*
X140130952Y-95985714D01*
X140226190Y-95938095D01*
X140273809Y-95890476D01*
X140321428Y-95795238D01*
X140321428Y-95604761D01*
X140273809Y-95509523D01*
X140226190Y-95461904D01*
X140130952Y-95414285D01*
X144107142Y-92441666D02*
X144154761Y-92489285D01*
X144202380Y-92632142D01*
X144202380Y-92727380D01*
X144154761Y-92870238D01*
X144059523Y-92965476D01*
X143964285Y-93013095D01*
X143773809Y-93060714D01*
X143630952Y-93060714D01*
X143440476Y-93013095D01*
X143345238Y-92965476D01*
X143250000Y-92870238D01*
X143202380Y-92727380D01*
X143202380Y-92632142D01*
X143250000Y-92489285D01*
X143297619Y-92441666D01*
X143630952Y-91870238D02*
X143583333Y-91965476D01*
X143535714Y-92013095D01*
X143440476Y-92060714D01*
X143392857Y-92060714D01*
X143297619Y-92013095D01*
X143250000Y-91965476D01*
X143202380Y-91870238D01*
X143202380Y-91679761D01*
X143250000Y-91584523D01*
X143297619Y-91536904D01*
X143392857Y-91489285D01*
X143440476Y-91489285D01*
X143535714Y-91536904D01*
X143583333Y-91584523D01*
X143630952Y-91679761D01*
X143630952Y-91870238D01*
X143678571Y-91965476D01*
X143726190Y-92013095D01*
X143821428Y-92060714D01*
X144011904Y-92060714D01*
X144107142Y-92013095D01*
X144154761Y-91965476D01*
X144202380Y-91870238D01*
X144202380Y-91679761D01*
X144154761Y-91584523D01*
X144107142Y-91536904D01*
X144011904Y-91489285D01*
X143821428Y-91489285D01*
X143726190Y-91536904D01*
X143678571Y-91584523D01*
X143630952Y-91679761D01*
X142432142Y-98266666D02*
X142479761Y-98314285D01*
X142527380Y-98457142D01*
X142527380Y-98552380D01*
X142479761Y-98695238D01*
X142384523Y-98790476D01*
X142289285Y-98838095D01*
X142098809Y-98885714D01*
X141955952Y-98885714D01*
X141765476Y-98838095D01*
X141670238Y-98790476D01*
X141575000Y-98695238D01*
X141527380Y-98552380D01*
X141527380Y-98457142D01*
X141575000Y-98314285D01*
X141622619Y-98266666D01*
X141527380Y-97933333D02*
X141527380Y-97266666D01*
X142527380Y-97695238D01*
X142607142Y-92466666D02*
X142654761Y-92514285D01*
X142702380Y-92657142D01*
X142702380Y-92752380D01*
X142654761Y-92895238D01*
X142559523Y-92990476D01*
X142464285Y-93038095D01*
X142273809Y-93085714D01*
X142130952Y-93085714D01*
X141940476Y-93038095D01*
X141845238Y-92990476D01*
X141750000Y-92895238D01*
X141702380Y-92752380D01*
X141702380Y-92657142D01*
X141750000Y-92514285D01*
X141797619Y-92466666D01*
X141702380Y-91609523D02*
X141702380Y-91800000D01*
X141750000Y-91895238D01*
X141797619Y-91942857D01*
X141940476Y-92038095D01*
X142130952Y-92085714D01*
X142511904Y-92085714D01*
X142607142Y-92038095D01*
X142654761Y-91990476D01*
X142702380Y-91895238D01*
X142702380Y-91704761D01*
X142654761Y-91609523D01*
X142607142Y-91561904D01*
X142511904Y-91514285D01*
X142273809Y-91514285D01*
X142178571Y-91561904D01*
X142130952Y-91609523D01*
X142083333Y-91704761D01*
X142083333Y-91895238D01*
X142130952Y-91990476D01*
X142178571Y-92038095D01*
X142273809Y-92085714D01*
X151857142Y-103066666D02*
X151904761Y-103114285D01*
X151952380Y-103257142D01*
X151952380Y-103352380D01*
X151904761Y-103495238D01*
X151809523Y-103590476D01*
X151714285Y-103638095D01*
X151523809Y-103685714D01*
X151380952Y-103685714D01*
X151190476Y-103638095D01*
X151095238Y-103590476D01*
X151000000Y-103495238D01*
X150952380Y-103352380D01*
X150952380Y-103257142D01*
X151000000Y-103114285D01*
X151047619Y-103066666D01*
X150952380Y-102161904D02*
X150952380Y-102638095D01*
X151428571Y-102685714D01*
X151380952Y-102638095D01*
X151333333Y-102542857D01*
X151333333Y-102304761D01*
X151380952Y-102209523D01*
X151428571Y-102161904D01*
X151523809Y-102114285D01*
X151761904Y-102114285D01*
X151857142Y-102161904D01*
X151904761Y-102209523D01*
X151952380Y-102304761D01*
X151952380Y-102542857D01*
X151904761Y-102638095D01*
X151857142Y-102685714D01*
X154457142Y-102966666D02*
X154504761Y-103014285D01*
X154552380Y-103157142D01*
X154552380Y-103252380D01*
X154504761Y-103395238D01*
X154409523Y-103490476D01*
X154314285Y-103538095D01*
X154123809Y-103585714D01*
X153980952Y-103585714D01*
X153790476Y-103538095D01*
X153695238Y-103490476D01*
X153600000Y-103395238D01*
X153552380Y-103252380D01*
X153552380Y-103157142D01*
X153600000Y-103014285D01*
X153647619Y-102966666D01*
X153885714Y-102109523D02*
X154552380Y-102109523D01*
X153504761Y-102347619D02*
X154219047Y-102585714D01*
X154219047Y-101966666D01*
X152782142Y-91741666D02*
X152829761Y-91789285D01*
X152877380Y-91932142D01*
X152877380Y-92027380D01*
X152829761Y-92170238D01*
X152734523Y-92265476D01*
X152639285Y-92313095D01*
X152448809Y-92360714D01*
X152305952Y-92360714D01*
X152115476Y-92313095D01*
X152020238Y-92265476D01*
X151925000Y-92170238D01*
X151877380Y-92027380D01*
X151877380Y-91932142D01*
X151925000Y-91789285D01*
X151972619Y-91741666D01*
X151877380Y-91408333D02*
X151877380Y-90789285D01*
X152258333Y-91122619D01*
X152258333Y-90979761D01*
X152305952Y-90884523D01*
X152353571Y-90836904D01*
X152448809Y-90789285D01*
X152686904Y-90789285D01*
X152782142Y-90836904D01*
X152829761Y-90884523D01*
X152877380Y-90979761D01*
X152877380Y-91265476D01*
X152829761Y-91360714D01*
X152782142Y-91408333D01*
X153932142Y-91816666D02*
X153979761Y-91864285D01*
X154027380Y-92007142D01*
X154027380Y-92102380D01*
X153979761Y-92245238D01*
X153884523Y-92340476D01*
X153789285Y-92388095D01*
X153598809Y-92435714D01*
X153455952Y-92435714D01*
X153265476Y-92388095D01*
X153170238Y-92340476D01*
X153075000Y-92245238D01*
X153027380Y-92102380D01*
X153027380Y-92007142D01*
X153075000Y-91864285D01*
X153122619Y-91816666D01*
X153122619Y-91435714D02*
X153075000Y-91388095D01*
X153027380Y-91292857D01*
X153027380Y-91054761D01*
X153075000Y-90959523D01*
X153122619Y-90911904D01*
X153217857Y-90864285D01*
X153313095Y-90864285D01*
X153455952Y-90911904D01*
X154027380Y-91483333D01*
X154027380Y-90864285D01*
X147157142Y-93191666D02*
X147204761Y-93239285D01*
X147252380Y-93382142D01*
X147252380Y-93477380D01*
X147204761Y-93620238D01*
X147109523Y-93715476D01*
X147014285Y-93763095D01*
X146823809Y-93810714D01*
X146680952Y-93810714D01*
X146490476Y-93763095D01*
X146395238Y-93715476D01*
X146300000Y-93620238D01*
X146252380Y-93477380D01*
X146252380Y-93382142D01*
X146300000Y-93239285D01*
X146347619Y-93191666D01*
X147252380Y-92239285D02*
X147252380Y-92810714D01*
X147252380Y-92525000D02*
X146252380Y-92525000D01*
X146395238Y-92620238D01*
X146490476Y-92715476D01*
X146538095Y-92810714D01*
M02*
