G04 #@! TF.GenerationSoftware,KiCad,Pcbnew,5.1.5-52549c5~84~ubuntu19.04.1*
G04 #@! TF.CreationDate,2020-02-08T22:23:32+01:00*
G04 #@! TF.ProjectId,ilulissat,696c756c-6973-4736-9174-2e6b69636164,rev?*
G04 #@! TF.SameCoordinates,Original*
G04 #@! TF.FileFunction,Legend,Bot*
G04 #@! TF.FilePolarity,Positive*
%FSLAX46Y46*%
G04 Gerber Fmt 4.6, Leading zero omitted, Abs format (unit mm)*
G04 Created by KiCad (PCBNEW 5.1.5-52549c5~84~ubuntu19.04.1) date 2020-02-08 22:23:32*
%MOMM*%
%LPD*%
G04 APERTURE LIST*
%ADD10C,0.120000*%
%ADD11C,0.150000*%
G04 APERTURE END LIST*
D10*
X155606639Y-104993776D02*
G75*
G02X155700000Y-107900000I-1606639J-1506224D01*
G01*
X152700000Y-110700000D02*
X155700000Y-107900000D01*
X150700000Y-110700000D02*
X152700000Y-110700000D01*
X155599999Y-94999999D02*
G75*
G03X155599999Y-92000001I-1599999J1499999D01*
G01*
X147700000Y-110700000D02*
X148300000Y-110700000D01*
X152700000Y-89300000D02*
X155600000Y-92000000D01*
X150700000Y-89300000D02*
X152700000Y-89300000D01*
X147700000Y-89300000D02*
X148300000Y-89300000D01*
X143300000Y-110700000D02*
X145300000Y-110700000D01*
X140400000Y-107800000D02*
X143300000Y-110700000D01*
X140400000Y-104900000D02*
X140400000Y-107800000D01*
X140400000Y-92200000D02*
X140400000Y-95100000D01*
X143300000Y-89300000D02*
X140400000Y-92200000D01*
X145300000Y-89300000D02*
X143300000Y-89300000D01*
D11*
X158728571Y-99214285D02*
X158776190Y-99357142D01*
X158823809Y-99404761D01*
X158919047Y-99452380D01*
X159061904Y-99452380D01*
X159157142Y-99404761D01*
X159204761Y-99357142D01*
X159252380Y-99261904D01*
X159252380Y-98880952D01*
X158252380Y-98880952D01*
X158252380Y-99214285D01*
X158300000Y-99309523D01*
X158347619Y-99357142D01*
X158442857Y-99404761D01*
X158538095Y-99404761D01*
X158633333Y-99357142D01*
X158680952Y-99309523D01*
X158728571Y-99214285D01*
X158728571Y-98880952D01*
X158252380Y-99738095D02*
X158252380Y-100309523D01*
X159252380Y-100023809D02*
X158252380Y-100023809D01*
X159252380Y-101166666D02*
X159252380Y-100595238D01*
X159252380Y-100880952D02*
X158252380Y-100880952D01*
X158395238Y-100785714D01*
X158490476Y-100690476D01*
X158538095Y-100595238D01*
M02*
