G04 #@! TF.GenerationSoftware,KiCad,Pcbnew,5.99.0-unknown-a5c7d45~100~ubuntu19.10.1*
G04 #@! TF.CreationDate,2020-01-22T19:28:44+01:00*
G04 #@! TF.ProjectId,ilulissat,696c756c-6973-4736-9174-2e6b69636164,rev?*
G04 #@! TF.SameCoordinates,Original*
G04 #@! TF.FileFunction,Legend,Bot*
G04 #@! TF.FilePolarity,Positive*
%FSLAX46Y46*%
G04 Gerber Fmt 4.6, Leading zero omitted, Abs format (unit mm)*
G04 Created by KiCad (PCBNEW 5.99.0-unknown-a5c7d45~100~ubuntu19.10.1) date 2020-01-22 19:28:44*
%MOMM*%
%LPD*%
G04 APERTURE LIST*
%ADD10C,0.127000*%
%ADD11C,0.015000*%
G04 APERTURE END LIST*
D10*
X155529321Y-88658878D02*
X153623668Y-90564531D01*
X160832622Y-93962179D02*
X158926969Y-95867832D01*
X158926968Y-95867832D02*
G75*
G02*
X153623668Y-90564531I-10097526J-4794226D01*
G01*
X160832622Y-93962179D02*
X159220418Y-92349975D01*
X155529321Y-88658878D02*
X157141525Y-90271082D01*
X139661845Y-109829655D02*
X140368952Y-109122548D01*
X159107281Y-90384219D02*
X159814388Y-89677112D01*
X159814388Y-90384219D02*
X159107281Y-89677112D01*
D11*
X154393707Y-114598382D02*
X154299426Y-114786944D01*
X154299426Y-114881225D01*
X154346567Y-115022646D01*
X154487988Y-115164068D01*
X154629410Y-115211208D01*
X154723690Y-115211208D01*
X154865112Y-115164068D01*
X155242235Y-114786944D01*
X154252286Y-113796995D01*
X153922303Y-114126978D01*
X153875162Y-114268399D01*
X153875162Y-114362680D01*
X153922303Y-114504101D01*
X154016584Y-114598382D01*
X154158005Y-114645523D01*
X154252286Y-114645523D01*
X154393707Y-114598382D01*
X154723690Y-114268399D01*
X153403758Y-114645523D02*
X152838072Y-115211208D01*
X154110865Y-115918315D02*
X153120915Y-114928366D01*
X152979494Y-117049686D02*
X153545179Y-116484000D01*
X153262336Y-116766843D02*
X152272387Y-115776894D01*
X152508089Y-115824034D01*
X152696651Y-115824034D01*
X152838072Y-115776894D01*
M02*
