G04 #@! TF.GenerationSoftware,KiCad,Pcbnew,5.99.0-unknown-a5c7d45~100~ubuntu19.10.1*
G04 #@! TF.CreationDate,2020-01-22T19:28:44+01:00*
G04 #@! TF.ProjectId,ilulissat,696c756c-6973-4736-9174-2e6b69636164,rev?*
G04 #@! TF.SameCoordinates,Original*
G04 #@! TF.FileFunction,Legend,Top*
G04 #@! TF.FilePolarity,Positive*
%FSLAX46Y46*%
G04 Gerber Fmt 4.6, Leading zero omitted, Abs format (unit mm)*
G04 Created by KiCad (PCBNEW 5.99.0-unknown-a5c7d45~100~ubuntu19.10.1) date 2020-01-22 19:28:44*
%MOMM*%
%LPD*%
G04 APERTURE LIST*
%ADD10C,0.100000*%
%ADD11C,0.120000*%
%ADD12C,0.150000*%
G04 APERTURE END LIST*
D10*
X150350000Y-107500000D02*
X150350000Y-107800000D01*
X150350000Y-107800000D02*
X150300000Y-107850000D01*
X150300000Y-107850000D02*
X150300000Y-108150000D01*
X150310000Y-110700000D02*
X150310000Y-110200000D01*
X152100000Y-110200000D02*
X152100000Y-110700000D01*
X152100000Y-107500000D02*
X152100000Y-108100000D01*
D11*
X132755456Y-92911091D02*
X132543324Y-93123223D01*
X132543324Y-93123223D02*
X134876777Y-95456676D01*
X134876777Y-95456676D02*
X135088909Y-95244544D01*
X134311091Y-91355456D02*
X134523223Y-91143324D01*
X134523223Y-91143324D02*
X136856676Y-93476777D01*
X136856676Y-93476777D02*
X136644544Y-93688909D01*
X146700000Y-95250000D02*
X143900000Y-95250000D01*
X143900000Y-95250000D02*
X143900000Y-98550000D01*
X147625000Y-92375000D02*
X148975000Y-92375000D01*
X147625000Y-90625000D02*
X148975000Y-90625000D01*
D12*
X161700000Y-101475000D02*
X161700000Y-98525000D01*
X158300000Y-101100000D02*
X158300000Y-98900000D01*
D11*
X151760000Y-93790000D02*
X152110000Y-93790000D01*
X152110000Y-93790000D02*
X152110000Y-94140000D01*
X148240000Y-98010000D02*
X147890000Y-98010000D01*
X147890000Y-98010000D02*
X147890000Y-97660000D01*
X151760000Y-98010000D02*
X152110000Y-98010000D01*
X152110000Y-98010000D02*
X152110000Y-97660000D01*
X148240000Y-93790000D02*
X147890000Y-93790000D01*
D12*
X150933333Y-101682380D02*
X150457142Y-101682380D01*
X150457142Y-100682380D01*
X151171428Y-100682380D02*
X151790476Y-100682380D01*
X151457142Y-101063333D01*
X151600000Y-101063333D01*
X151695238Y-101110952D01*
X151742857Y-101158571D01*
X151790476Y-101253809D01*
X151790476Y-101491904D01*
X151742857Y-101587142D01*
X151695238Y-101634761D01*
X151600000Y-101682380D01*
X151314285Y-101682380D01*
X151219047Y-101634761D01*
X151171428Y-101587142D01*
X150033333Y-105766666D02*
X150509523Y-105766666D01*
X149938095Y-106052380D02*
X150271428Y-105052380D01*
X150604761Y-106052380D01*
X150938095Y-105528571D02*
X151271428Y-105528571D01*
X151414285Y-106052380D02*
X150938095Y-106052380D01*
X150938095Y-105052380D01*
X151414285Y-105052380D01*
X152366666Y-106052380D02*
X151795238Y-106052380D01*
X152080952Y-106052380D02*
X152080952Y-105052380D01*
X151985714Y-105195238D01*
X151890476Y-105290476D01*
X151795238Y-105338095D01*
X147982380Y-100166666D02*
X147982380Y-100642857D01*
X146982380Y-100642857D01*
X147077619Y-99880952D02*
X147030000Y-99833333D01*
X146982380Y-99738095D01*
X146982380Y-99500000D01*
X147030000Y-99404761D01*
X147077619Y-99357142D01*
X147172857Y-99309523D01*
X147268095Y-99309523D01*
X147410952Y-99357142D01*
X147982380Y-99928571D01*
X147982380Y-99309523D01*
X150682380Y-100166666D02*
X150682380Y-100642857D01*
X149682380Y-100642857D01*
X150682380Y-99309523D02*
X150682380Y-99880952D01*
X150682380Y-99595238D02*
X149682380Y-99595238D01*
X149825238Y-99690476D01*
X149920476Y-99785714D01*
X149968095Y-99880952D01*
X135238748Y-90875633D02*
X135306091Y-91010320D01*
X135474450Y-91178679D01*
X135575465Y-91212351D01*
X135642809Y-91212351D01*
X135743824Y-91178679D01*
X135811167Y-91111336D01*
X135844839Y-91010320D01*
X135844839Y-90942977D01*
X135811167Y-90841962D01*
X135710152Y-90673603D01*
X135676480Y-90572588D01*
X135676480Y-90505244D01*
X135710152Y-90404229D01*
X135777496Y-90336885D01*
X135878511Y-90303214D01*
X135945854Y-90303214D01*
X136046870Y-90336885D01*
X136215228Y-90505244D01*
X136282572Y-90639931D01*
X136551946Y-90841962D02*
X136013198Y-91717427D01*
X136652961Y-91347038D01*
X136282572Y-91986801D01*
X137158037Y-91448053D01*
X137090694Y-92794923D02*
X136686633Y-92390862D01*
X136888663Y-92592893D02*
X137595770Y-91885786D01*
X137427411Y-91919458D01*
X137292724Y-91919458D01*
X137191709Y-91885786D01*
X147476190Y-97376190D02*
X147952380Y-97376190D01*
X146952380Y-97709523D02*
X147476190Y-97376190D01*
X146952380Y-97042857D01*
X147047619Y-96757142D02*
X147000000Y-96709523D01*
X146952380Y-96614285D01*
X146952380Y-96376190D01*
X147000000Y-96280952D01*
X147047619Y-96233333D01*
X147142857Y-96185714D01*
X147238095Y-96185714D01*
X147380952Y-96233333D01*
X147952380Y-96804761D01*
X147952380Y-96185714D01*
X147823809Y-89476190D02*
X147823809Y-89952380D01*
X147490476Y-88952380D02*
X147823809Y-89476190D01*
X148157142Y-88952380D01*
X149014285Y-89952380D02*
X148442857Y-89952380D01*
X148728571Y-89952380D02*
X148728571Y-88952380D01*
X148633333Y-89095238D01*
X148538095Y-89190476D01*
X148442857Y-89238095D01*
X162122380Y-100761904D02*
X162931904Y-100761904D01*
X163027142Y-100714285D01*
X163074761Y-100666666D01*
X163122380Y-100571428D01*
X163122380Y-100380952D01*
X163074761Y-100285714D01*
X163027142Y-100238095D01*
X162931904Y-100190476D01*
X162122380Y-100190476D01*
X162217619Y-99761904D02*
X162170000Y-99714285D01*
X162122380Y-99619047D01*
X162122380Y-99380952D01*
X162170000Y-99285714D01*
X162217619Y-99238095D01*
X162312857Y-99190476D01*
X162408095Y-99190476D01*
X162550952Y-99238095D01*
X163122380Y-99809523D01*
X163122380Y-99190476D01*
X149238095Y-92052380D02*
X149238095Y-92861904D01*
X149285714Y-92957142D01*
X149333333Y-93004761D01*
X149428571Y-93052380D01*
X149619047Y-93052380D01*
X149714285Y-93004761D01*
X149761904Y-92957142D01*
X149809523Y-92861904D01*
X149809523Y-92052380D01*
X150809523Y-93052380D02*
X150238095Y-93052380D01*
X150523809Y-93052380D02*
X150523809Y-92052380D01*
X150428571Y-92195238D01*
X150333333Y-92290476D01*
X150238095Y-92338095D01*
X160333333Y-96382380D02*
X160000000Y-95906190D01*
X159761904Y-96382380D02*
X159761904Y-95382380D01*
X160142857Y-95382380D01*
X160238095Y-95430000D01*
X160285714Y-95477619D01*
X160333333Y-95572857D01*
X160333333Y-95715714D01*
X160285714Y-95810952D01*
X160238095Y-95858571D01*
X160142857Y-95906190D01*
X159761904Y-95906190D01*
X160714285Y-95477619D02*
X160761904Y-95430000D01*
X160857142Y-95382380D01*
X161095238Y-95382380D01*
X161190476Y-95430000D01*
X161238095Y-95477619D01*
X161285714Y-95572857D01*
X161285714Y-95668095D01*
X161238095Y-95810952D01*
X160666666Y-96382380D01*
X161285714Y-96382380D01*
X160333333Y-102582380D02*
X160000000Y-102106190D01*
X159761904Y-102582380D02*
X159761904Y-101582380D01*
X160142857Y-101582380D01*
X160238095Y-101630000D01*
X160285714Y-101677619D01*
X160333333Y-101772857D01*
X160333333Y-101915714D01*
X160285714Y-102010952D01*
X160238095Y-102058571D01*
X160142857Y-102106190D01*
X159761904Y-102106190D01*
X161285714Y-102582380D02*
X160714285Y-102582380D01*
X161000000Y-102582380D02*
X161000000Y-101582380D01*
X160904761Y-101725238D01*
X160809523Y-101820476D01*
X160714285Y-101868095D01*
X150571142Y-105036857D02*
X150618761Y-105084476D01*
X150666380Y-105227333D01*
X150666380Y-105322571D01*
X150618761Y-105465428D01*
X150523523Y-105560666D01*
X150428285Y-105608285D01*
X150237809Y-105655904D01*
X150094952Y-105655904D01*
X149904476Y-105608285D01*
X149809238Y-105560666D01*
X149714000Y-105465428D01*
X149666380Y-105322571D01*
X149666380Y-105227333D01*
X149714000Y-105084476D01*
X149761619Y-105036857D01*
X150666380Y-104084476D02*
X150666380Y-104655904D01*
X150666380Y-104370190D02*
X149666380Y-104370190D01*
X149809238Y-104465428D01*
X149904476Y-104560666D01*
X149952095Y-104655904D01*
X149666380Y-103179714D02*
X149666380Y-103655904D01*
X150142571Y-103703523D01*
X150094952Y-103655904D01*
X150047333Y-103560666D01*
X150047333Y-103322571D01*
X150094952Y-103227333D01*
X150142571Y-103179714D01*
X150237809Y-103132095D01*
X150475904Y-103132095D01*
X150571142Y-103179714D01*
X150618761Y-103227333D01*
X150666380Y-103322571D01*
X150666380Y-103560666D01*
X150618761Y-103655904D01*
X150571142Y-103703523D01*
X124227142Y-117897142D02*
X124179523Y-117944761D01*
X124036666Y-117992380D01*
X123941428Y-117992380D01*
X123798571Y-117944761D01*
X123703333Y-117849523D01*
X123655714Y-117754285D01*
X123608095Y-117563809D01*
X123608095Y-117420952D01*
X123655714Y-117230476D01*
X123703333Y-117135238D01*
X123798571Y-117040000D01*
X123941428Y-116992380D01*
X124036666Y-116992380D01*
X124179523Y-117040000D01*
X124227142Y-117087619D01*
X125179523Y-117992380D02*
X124608095Y-117992380D01*
X124893809Y-117992380D02*
X124893809Y-116992380D01*
X124798571Y-117135238D01*
X124703333Y-117230476D01*
X124608095Y-117278095D01*
X126036666Y-117325714D02*
X126036666Y-117992380D01*
X125798571Y-116944761D02*
X125560476Y-117659047D01*
X126179523Y-117659047D01*
X156213142Y-101925357D02*
X156260761Y-101972976D01*
X156308380Y-102115833D01*
X156308380Y-102211071D01*
X156260761Y-102353928D01*
X156165523Y-102449166D01*
X156070285Y-102496785D01*
X155879809Y-102544404D01*
X155736952Y-102544404D01*
X155546476Y-102496785D01*
X155451238Y-102449166D01*
X155356000Y-102353928D01*
X155308380Y-102211071D01*
X155308380Y-102115833D01*
X155356000Y-101972976D01*
X155403619Y-101925357D01*
X156308380Y-100972976D02*
X156308380Y-101544404D01*
X156308380Y-101258690D02*
X155308380Y-101258690D01*
X155451238Y-101353928D01*
X155546476Y-101449166D01*
X155594095Y-101544404D01*
X155308380Y-100639642D02*
X155308380Y-100020595D01*
X155689333Y-100353928D01*
X155689333Y-100211071D01*
X155736952Y-100115833D01*
X155784571Y-100068214D01*
X155879809Y-100020595D01*
X156117904Y-100020595D01*
X156213142Y-100068214D01*
X156260761Y-100115833D01*
X156308380Y-100211071D01*
X156308380Y-100496785D01*
X156260761Y-100592023D01*
X156213142Y-100639642D01*
X151227142Y-102542857D02*
X151274761Y-102590476D01*
X151322380Y-102733333D01*
X151322380Y-102828571D01*
X151274761Y-102971428D01*
X151179523Y-103066666D01*
X151084285Y-103114285D01*
X150893809Y-103161904D01*
X150750952Y-103161904D01*
X150560476Y-103114285D01*
X150465238Y-103066666D01*
X150370000Y-102971428D01*
X150322380Y-102828571D01*
X150322380Y-102733333D01*
X150370000Y-102590476D01*
X150417619Y-102542857D01*
X151322380Y-101590476D02*
X151322380Y-102161904D01*
X151322380Y-101876190D02*
X150322380Y-101876190D01*
X150465238Y-101971428D01*
X150560476Y-102066666D01*
X150608095Y-102161904D01*
X150417619Y-101209523D02*
X150370000Y-101161904D01*
X150322380Y-101066666D01*
X150322380Y-100828571D01*
X150370000Y-100733333D01*
X150417619Y-100685714D01*
X150512857Y-100638095D01*
X150608095Y-100638095D01*
X150750952Y-100685714D01*
X151322380Y-101257142D01*
X151322380Y-100638095D01*
X124107142Y-96607142D02*
X124059523Y-96654761D01*
X123916666Y-96702380D01*
X123821428Y-96702380D01*
X123678571Y-96654761D01*
X123583333Y-96559523D01*
X123535714Y-96464285D01*
X123488095Y-96273809D01*
X123488095Y-96130952D01*
X123535714Y-95940476D01*
X123583333Y-95845238D01*
X123678571Y-95750000D01*
X123821428Y-95702380D01*
X123916666Y-95702380D01*
X124059523Y-95750000D01*
X124107142Y-95797619D01*
X125059523Y-96702380D02*
X124488095Y-96702380D01*
X124773809Y-96702380D02*
X124773809Y-95702380D01*
X124678571Y-95845238D01*
X124583333Y-95940476D01*
X124488095Y-95988095D01*
X126011904Y-96702380D02*
X125440476Y-96702380D01*
X125726190Y-96702380D02*
X125726190Y-95702380D01*
X125630952Y-95845238D01*
X125535714Y-95940476D01*
X125440476Y-95988095D01*
X134847142Y-122357142D02*
X134799523Y-122404761D01*
X134656666Y-122452380D01*
X134561428Y-122452380D01*
X134418571Y-122404761D01*
X134323333Y-122309523D01*
X134275714Y-122214285D01*
X134228095Y-122023809D01*
X134228095Y-121880952D01*
X134275714Y-121690476D01*
X134323333Y-121595238D01*
X134418571Y-121500000D01*
X134561428Y-121452380D01*
X134656666Y-121452380D01*
X134799523Y-121500000D01*
X134847142Y-121547619D01*
X135799523Y-122452380D02*
X135228095Y-122452380D01*
X135513809Y-122452380D02*
X135513809Y-121452380D01*
X135418571Y-121595238D01*
X135323333Y-121690476D01*
X135228095Y-121738095D01*
X136418571Y-121452380D02*
X136513809Y-121452380D01*
X136609047Y-121500000D01*
X136656666Y-121547619D01*
X136704285Y-121642857D01*
X136751904Y-121833333D01*
X136751904Y-122071428D01*
X136704285Y-122261904D01*
X136656666Y-122357142D01*
X136609047Y-122404761D01*
X136513809Y-122452380D01*
X136418571Y-122452380D01*
X136323333Y-122404761D01*
X136275714Y-122357142D01*
X136228095Y-122261904D01*
X136180476Y-122071428D01*
X136180476Y-121833333D01*
X136228095Y-121642857D01*
X136275714Y-121547619D01*
X136323333Y-121500000D01*
X136418571Y-121452380D01*
X124703333Y-115907142D02*
X124655714Y-115954761D01*
X124512857Y-116002380D01*
X124417619Y-116002380D01*
X124274761Y-115954761D01*
X124179523Y-115859523D01*
X124131904Y-115764285D01*
X124084285Y-115573809D01*
X124084285Y-115430952D01*
X124131904Y-115240476D01*
X124179523Y-115145238D01*
X124274761Y-115050000D01*
X124417619Y-115002380D01*
X124512857Y-115002380D01*
X124655714Y-115050000D01*
X124703333Y-115097619D01*
X125179523Y-116002380D02*
X125370000Y-116002380D01*
X125465238Y-115954761D01*
X125512857Y-115907142D01*
X125608095Y-115764285D01*
X125655714Y-115573809D01*
X125655714Y-115192857D01*
X125608095Y-115097619D01*
X125560476Y-115050000D01*
X125465238Y-115002380D01*
X125274761Y-115002380D01*
X125179523Y-115050000D01*
X125131904Y-115097619D01*
X125084285Y-115192857D01*
X125084285Y-115430952D01*
X125131904Y-115526190D01*
X125179523Y-115573809D01*
X125274761Y-115621428D01*
X125465238Y-115621428D01*
X125560476Y-115573809D01*
X125608095Y-115526190D01*
X125655714Y-115430952D01*
X127493333Y-98597142D02*
X127445714Y-98644761D01*
X127302857Y-98692380D01*
X127207619Y-98692380D01*
X127064761Y-98644761D01*
X126969523Y-98549523D01*
X126921904Y-98454285D01*
X126874285Y-98263809D01*
X126874285Y-98120952D01*
X126921904Y-97930476D01*
X126969523Y-97835238D01*
X127064761Y-97740000D01*
X127207619Y-97692380D01*
X127302857Y-97692380D01*
X127445714Y-97740000D01*
X127493333Y-97787619D01*
X128064761Y-98120952D02*
X127969523Y-98073333D01*
X127921904Y-98025714D01*
X127874285Y-97930476D01*
X127874285Y-97882857D01*
X127921904Y-97787619D01*
X127969523Y-97740000D01*
X128064761Y-97692380D01*
X128255238Y-97692380D01*
X128350476Y-97740000D01*
X128398095Y-97787619D01*
X128445714Y-97882857D01*
X128445714Y-97930476D01*
X128398095Y-98025714D01*
X128350476Y-98073333D01*
X128255238Y-98120952D01*
X128064761Y-98120952D01*
X127969523Y-98168571D01*
X127921904Y-98216190D01*
X127874285Y-98311428D01*
X127874285Y-98501904D01*
X127921904Y-98597142D01*
X127969523Y-98644761D01*
X128064761Y-98692380D01*
X128255238Y-98692380D01*
X128350476Y-98644761D01*
X128398095Y-98597142D01*
X128445714Y-98501904D01*
X128445714Y-98311428D01*
X128398095Y-98216190D01*
X128350476Y-98168571D01*
X128255238Y-98120952D01*
X114043333Y-125007142D02*
X113995714Y-125054761D01*
X113852857Y-125102380D01*
X113757619Y-125102380D01*
X113614761Y-125054761D01*
X113519523Y-124959523D01*
X113471904Y-124864285D01*
X113424285Y-124673809D01*
X113424285Y-124530952D01*
X113471904Y-124340476D01*
X113519523Y-124245238D01*
X113614761Y-124150000D01*
X113757619Y-124102380D01*
X113852857Y-124102380D01*
X113995714Y-124150000D01*
X114043333Y-124197619D01*
X114376666Y-124102380D02*
X115043333Y-124102380D01*
X114614761Y-125102380D01*
X135323333Y-120367142D02*
X135275714Y-120414761D01*
X135132857Y-120462380D01*
X135037619Y-120462380D01*
X134894761Y-120414761D01*
X134799523Y-120319523D01*
X134751904Y-120224285D01*
X134704285Y-120033809D01*
X134704285Y-119890952D01*
X134751904Y-119700476D01*
X134799523Y-119605238D01*
X134894761Y-119510000D01*
X135037619Y-119462380D01*
X135132857Y-119462380D01*
X135275714Y-119510000D01*
X135323333Y-119557619D01*
X136180476Y-119462380D02*
X135990000Y-119462380D01*
X135894761Y-119510000D01*
X135847142Y-119557619D01*
X135751904Y-119700476D01*
X135704285Y-119890952D01*
X135704285Y-120271904D01*
X135751904Y-120367142D01*
X135799523Y-120414761D01*
X135894761Y-120462380D01*
X136085238Y-120462380D01*
X136180476Y-120414761D01*
X136228095Y-120367142D01*
X136275714Y-120271904D01*
X136275714Y-120033809D01*
X136228095Y-119938571D01*
X136180476Y-119890952D01*
X136085238Y-119843333D01*
X135894761Y-119843333D01*
X135799523Y-119890952D01*
X135751904Y-119938571D01*
X135704285Y-120033809D01*
X124583333Y-98597142D02*
X124535714Y-98644761D01*
X124392857Y-98692380D01*
X124297619Y-98692380D01*
X124154761Y-98644761D01*
X124059523Y-98549523D01*
X124011904Y-98454285D01*
X123964285Y-98263809D01*
X123964285Y-98120952D01*
X124011904Y-97930476D01*
X124059523Y-97835238D01*
X124154761Y-97740000D01*
X124297619Y-97692380D01*
X124392857Y-97692380D01*
X124535714Y-97740000D01*
X124583333Y-97787619D01*
X125488095Y-97692380D02*
X125011904Y-97692380D01*
X124964285Y-98168571D01*
X125011904Y-98120952D01*
X125107142Y-98073333D01*
X125345238Y-98073333D01*
X125440476Y-98120952D01*
X125488095Y-98168571D01*
X125535714Y-98263809D01*
X125535714Y-98501904D01*
X125488095Y-98597142D01*
X125440476Y-98644761D01*
X125345238Y-98692380D01*
X125107142Y-98692380D01*
X125011904Y-98644761D01*
X124964285Y-98597142D01*
X127493333Y-96607142D02*
X127445714Y-96654761D01*
X127302857Y-96702380D01*
X127207619Y-96702380D01*
X127064761Y-96654761D01*
X126969523Y-96559523D01*
X126921904Y-96464285D01*
X126874285Y-96273809D01*
X126874285Y-96130952D01*
X126921904Y-95940476D01*
X126969523Y-95845238D01*
X127064761Y-95750000D01*
X127207619Y-95702380D01*
X127302857Y-95702380D01*
X127445714Y-95750000D01*
X127493333Y-95797619D01*
X128350476Y-96035714D02*
X128350476Y-96702380D01*
X128112380Y-95654761D02*
X127874285Y-96369047D01*
X128493333Y-96369047D01*
X152633333Y-98687142D02*
X152585714Y-98734761D01*
X152442857Y-98782380D01*
X152347619Y-98782380D01*
X152204761Y-98734761D01*
X152109523Y-98639523D01*
X152061904Y-98544285D01*
X152014285Y-98353809D01*
X152014285Y-98210952D01*
X152061904Y-98020476D01*
X152109523Y-97925238D01*
X152204761Y-97830000D01*
X152347619Y-97782380D01*
X152442857Y-97782380D01*
X152585714Y-97830000D01*
X152633333Y-97877619D01*
X152966666Y-97782380D02*
X153585714Y-97782380D01*
X153252380Y-98163333D01*
X153395238Y-98163333D01*
X153490476Y-98210952D01*
X153538095Y-98258571D01*
X153585714Y-98353809D01*
X153585714Y-98591904D01*
X153538095Y-98687142D01*
X153490476Y-98734761D01*
X153395238Y-98782380D01*
X153109523Y-98782380D01*
X153014285Y-98734761D01*
X152966666Y-98687142D01*
X108223333Y-124307142D02*
X108175714Y-124354761D01*
X108032857Y-124402380D01*
X107937619Y-124402380D01*
X107794761Y-124354761D01*
X107699523Y-124259523D01*
X107651904Y-124164285D01*
X107604285Y-123973809D01*
X107604285Y-123830952D01*
X107651904Y-123640476D01*
X107699523Y-123545238D01*
X107794761Y-123450000D01*
X107937619Y-123402380D01*
X108032857Y-123402380D01*
X108175714Y-123450000D01*
X108223333Y-123497619D01*
X108604285Y-123497619D02*
X108651904Y-123450000D01*
X108747142Y-123402380D01*
X108985238Y-123402380D01*
X109080476Y-123450000D01*
X109128095Y-123497619D01*
X109175714Y-123592857D01*
X109175714Y-123688095D01*
X109128095Y-123830952D01*
X108556666Y-124402380D01*
X109175714Y-124402380D01*
X125733333Y-100587142D02*
X125685714Y-100634761D01*
X125542857Y-100682380D01*
X125447619Y-100682380D01*
X125304761Y-100634761D01*
X125209523Y-100539523D01*
X125161904Y-100444285D01*
X125114285Y-100253809D01*
X125114285Y-100110952D01*
X125161904Y-99920476D01*
X125209523Y-99825238D01*
X125304761Y-99730000D01*
X125447619Y-99682380D01*
X125542857Y-99682380D01*
X125685714Y-99730000D01*
X125733333Y-99777619D01*
X126685714Y-100682380D02*
X126114285Y-100682380D01*
X126400000Y-100682380D02*
X126400000Y-99682380D01*
X126304761Y-99825238D01*
X126209523Y-99920476D01*
X126114285Y-99968095D01*
M02*
