M48
; DRILL file {KiCad 5.1.5-52549c5~84~ubuntu19.04.1} date 2020-02-08T22:23:37 CET
; FORMAT={-:-/ absolute / inch / decimal}
; #@! TF.CreationDate,2020-02-08T22:23:37+01:00
; #@! TF.GenerationSoftware,Kicad,Pcbnew,5.1.5-52549c5~84~ubuntu19.04.1
FMAT,2
INCH
T1C0.0118
T2C0.0394
%
G90
G05
T1
X5.7835Y-3.7913
X5.7835Y-3.8228
X5.7835Y-3.8543
X5.8189Y-3.7913
X5.8189Y-3.8228
X5.8189Y-3.8543
X5.8543Y-3.7913
X5.8543Y-3.8228
X5.8543Y-3.8543
X6.0039Y-3.752
X6.0039Y-3.7913
X6.0039Y-3.874
X6.0329Y-3.7913
X6.0472Y-3.874
X6.0472Y-3.9016
X6.0619Y-3.7913
X6.0827Y-3.9016
X6.0909Y-3.7913
X6.1181Y-3.874
X6.1181Y-3.9016
X6.1199Y-3.7913
X6.1467Y-3.874
X6.1489Y-3.7913
X6.1752Y-3.874
X6.1779Y-3.7913
X6.2037Y-3.874
X6.2069Y-3.7913
X6.2323Y-3.874
X6.2323Y-3.9016
X6.2323Y-3.9311
X6.2323Y-3.9606
X6.2323Y-3.9902
X6.2323Y-4.0197
X6.2323Y-4.0492
X6.2323Y-4.0787
X6.2323Y-4.1083
X6.2323Y-4.1378
X6.2359Y-3.7913
X6.2638Y-4.1378
X6.2649Y-3.7913
X6.2938Y-3.7913
X6.2953Y-4.1378
X6.3228Y-3.7913
X6.3228Y-3.8228
X6.3228Y-3.8543
X6.3268Y-4.1378
X6.3504Y-3.8543
X6.378Y-3.8543
T2
X5.7677Y-3.5276
X5.7677Y-4.3465
X5.8858Y-3.5276
X5.8858Y-4.3465
T0
M30
