G04 #@! TF.GenerationSoftware,KiCad,Pcbnew,5.1.5-52549c5~84~ubuntu19.04.1*
G04 #@! TF.CreationDate,2020-02-08T22:23:32+01:00*
G04 #@! TF.ProjectId,ilulissat,696c756c-6973-4736-9174-2e6b69636164,rev?*
G04 #@! TF.SameCoordinates,Original*
G04 #@! TF.FileFunction,Legend,Top*
G04 #@! TF.FilePolarity,Positive*
%FSLAX46Y46*%
G04 Gerber Fmt 4.6, Leading zero omitted, Abs format (unit mm)*
G04 Created by KiCad (PCBNEW 5.1.5-52549c5~84~ubuntu19.04.1) date 2020-02-08 22:23:32*
%MOMM*%
%LPD*%
G04 APERTURE LIST*
%ADD10C,0.120000*%
%ADD11C,0.150000*%
G04 APERTURE END LIST*
D10*
X145850000Y-100500000D02*
X145850000Y-104500000D01*
X149150000Y-100500000D02*
X145850000Y-100500000D01*
X142900000Y-97400000D02*
X142900000Y-99800000D01*
X144500000Y-97400000D02*
X142900000Y-97400000D01*
X144500000Y-99800000D02*
X144500000Y-97400000D01*
X159100000Y-98800000D02*
X159100000Y-104200000D01*
X161700000Y-98800000D02*
X159100000Y-98800000D01*
X190500000Y-101700000D02*
G75*
G03X190500000Y-101700000I-700000J0D01*
G01*
X189000000Y-103200000D02*
G75*
G03X189000000Y-103200000I-700000J0D01*
G01*
X152050000Y-110300000D02*
X152050000Y-110600000D01*
X152050000Y-110600000D02*
X155350000Y-110600000D01*
X155350000Y-110600000D02*
X155350000Y-110300000D01*
X152050000Y-108100000D02*
X152050000Y-107800000D01*
X152050000Y-107800000D02*
X155350000Y-107800000D01*
X155350000Y-107800000D02*
X155350000Y-108100000D01*
D11*
X143700000Y-90025000D02*
X143700000Y-92975000D01*
X147100000Y-90400000D02*
X147100000Y-92600000D01*
D10*
X145690000Y-95340000D02*
X145690000Y-94990000D01*
X145690000Y-94990000D02*
X146040000Y-94990000D01*
X149910000Y-98860000D02*
X149910000Y-99210000D01*
X149910000Y-99210000D02*
X149560000Y-99210000D01*
X149910000Y-95340000D02*
X149910000Y-94990000D01*
X149910000Y-94990000D02*
X149560000Y-94990000D01*
X145690000Y-98860000D02*
X145690000Y-99210000D01*
D11*
X149926190Y-102976190D02*
X150402380Y-102976190D01*
X149402380Y-103309523D02*
X149926190Y-102976190D01*
X149402380Y-102642857D01*
X149497619Y-102357142D02*
X149450000Y-102309523D01*
X149402380Y-102214285D01*
X149402380Y-101976190D01*
X149450000Y-101880952D01*
X149497619Y-101833333D01*
X149592857Y-101785714D01*
X149688095Y-101785714D01*
X149830952Y-101833333D01*
X150402380Y-102404761D01*
X150402380Y-101785714D01*
X145476190Y-99076190D02*
X145952380Y-99076190D01*
X144952380Y-99409523D02*
X145476190Y-99076190D01*
X144952380Y-98742857D01*
X145952380Y-97885714D02*
X145952380Y-98457142D01*
X145952380Y-98171428D02*
X144952380Y-98171428D01*
X145095238Y-98266666D01*
X145190476Y-98361904D01*
X145238095Y-98457142D01*
X158933333Y-96582380D02*
X158457142Y-96582380D01*
X158457142Y-95582380D01*
X159695238Y-95915714D02*
X159695238Y-96582380D01*
X159457142Y-95534761D02*
X159219047Y-96249047D01*
X159838095Y-96249047D01*
X158166666Y-102666666D02*
X158166666Y-102190476D01*
X158452380Y-102761904D02*
X157452380Y-102428571D01*
X158452380Y-102095238D01*
X157928571Y-101761904D02*
X157928571Y-101428571D01*
X158452380Y-101285714D02*
X158452380Y-101761904D01*
X157452380Y-101761904D01*
X157452380Y-101285714D01*
X158452380Y-100333333D02*
X158452380Y-100904761D01*
X158452380Y-100619047D02*
X157452380Y-100619047D01*
X157595238Y-100714285D01*
X157690476Y-100809523D01*
X157738095Y-100904761D01*
X187585714Y-99704380D02*
X188157142Y-99704380D01*
X187871428Y-100704380D02*
X187871428Y-99704380D01*
X188490476Y-100704380D02*
X188490476Y-99704380D01*
X188871428Y-99704380D01*
X188966666Y-99752000D01*
X189014285Y-99799619D01*
X189061904Y-99894857D01*
X189061904Y-100037714D01*
X189014285Y-100132952D01*
X188966666Y-100180571D01*
X188871428Y-100228190D01*
X188490476Y-100228190D01*
X190014285Y-100704380D02*
X189442857Y-100704380D01*
X189728571Y-100704380D02*
X189728571Y-99704380D01*
X189633333Y-99847238D01*
X189538095Y-99942476D01*
X189442857Y-99990095D01*
X190633333Y-99704380D02*
X190728571Y-99704380D01*
X190823809Y-99752000D01*
X190871428Y-99799619D01*
X190919047Y-99894857D01*
X190966666Y-100085333D01*
X190966666Y-100323428D01*
X190919047Y-100513904D01*
X190871428Y-100609142D01*
X190823809Y-100656761D01*
X190728571Y-100704380D01*
X190633333Y-100704380D01*
X190538095Y-100656761D01*
X190490476Y-100609142D01*
X190442857Y-100513904D01*
X190395238Y-100323428D01*
X190395238Y-100085333D01*
X190442857Y-99894857D01*
X190490476Y-99799619D01*
X190538095Y-99752000D01*
X190633333Y-99704380D01*
X191919047Y-100704380D02*
X191347619Y-100704380D01*
X191633333Y-100704380D02*
X191633333Y-99704380D01*
X191538095Y-99847238D01*
X191442857Y-99942476D01*
X191347619Y-99990095D01*
X186085714Y-101204380D02*
X186657142Y-101204380D01*
X186371428Y-102204380D02*
X186371428Y-101204380D01*
X186990476Y-102204380D02*
X186990476Y-101204380D01*
X187371428Y-101204380D01*
X187466666Y-101252000D01*
X187514285Y-101299619D01*
X187561904Y-101394857D01*
X187561904Y-101537714D01*
X187514285Y-101632952D01*
X187466666Y-101680571D01*
X187371428Y-101728190D01*
X186990476Y-101728190D01*
X188514285Y-102204380D02*
X187942857Y-102204380D01*
X188228571Y-102204380D02*
X188228571Y-101204380D01*
X188133333Y-101347238D01*
X188038095Y-101442476D01*
X187942857Y-101490095D01*
X189133333Y-101204380D02*
X189228571Y-101204380D01*
X189323809Y-101252000D01*
X189371428Y-101299619D01*
X189419047Y-101394857D01*
X189466666Y-101585333D01*
X189466666Y-101823428D01*
X189419047Y-102013904D01*
X189371428Y-102109142D01*
X189323809Y-102156761D01*
X189228571Y-102204380D01*
X189133333Y-102204380D01*
X189038095Y-102156761D01*
X188990476Y-102109142D01*
X188942857Y-102013904D01*
X188895238Y-101823428D01*
X188895238Y-101585333D01*
X188942857Y-101394857D01*
X188990476Y-101299619D01*
X189038095Y-101252000D01*
X189133333Y-101204380D01*
X189847619Y-101299619D02*
X189895238Y-101252000D01*
X189990476Y-101204380D01*
X190228571Y-101204380D01*
X190323809Y-101252000D01*
X190371428Y-101299619D01*
X190419047Y-101394857D01*
X190419047Y-101490095D01*
X190371428Y-101632952D01*
X189800000Y-102204380D01*
X190419047Y-102204380D01*
X152913333Y-96582380D02*
X152437142Y-96582380D01*
X152437142Y-95582380D01*
X153151428Y-95582380D02*
X153770476Y-95582380D01*
X153437142Y-95963333D01*
X153580000Y-95963333D01*
X153675238Y-96010952D01*
X153722857Y-96058571D01*
X153770476Y-96153809D01*
X153770476Y-96391904D01*
X153722857Y-96487142D01*
X153675238Y-96534761D01*
X153580000Y-96582380D01*
X153294285Y-96582380D01*
X153199047Y-96534761D01*
X153151428Y-96487142D01*
X151612870Y-101094166D02*
X151612870Y-101570357D01*
X150612870Y-101570357D01*
X150708109Y-100808452D02*
X150660490Y-100760833D01*
X150612870Y-100665595D01*
X150612870Y-100427500D01*
X150660490Y-100332261D01*
X150708109Y-100284642D01*
X150803347Y-100237023D01*
X150898585Y-100237023D01*
X151041442Y-100284642D01*
X151612870Y-100856071D01*
X151612870Y-100237023D01*
X155152870Y-93666666D02*
X155152870Y-94142857D01*
X154152870Y-94142857D01*
X155152870Y-92809523D02*
X155152870Y-93380952D01*
X155152870Y-93095238D02*
X154152870Y-93095238D01*
X154295728Y-93190476D01*
X154390966Y-93285714D01*
X154438585Y-93380952D01*
X152366666Y-107104761D02*
X152509523Y-107152380D01*
X152747619Y-107152380D01*
X152842857Y-107104761D01*
X152890476Y-107057142D01*
X152938095Y-106961904D01*
X152938095Y-106866666D01*
X152890476Y-106771428D01*
X152842857Y-106723809D01*
X152747619Y-106676190D01*
X152557142Y-106628571D01*
X152461904Y-106580952D01*
X152414285Y-106533333D01*
X152366666Y-106438095D01*
X152366666Y-106342857D01*
X152414285Y-106247619D01*
X152461904Y-106200000D01*
X152557142Y-106152380D01*
X152795238Y-106152380D01*
X152938095Y-106200000D01*
X153271428Y-106152380D02*
X153509523Y-107152380D01*
X153700000Y-106438095D01*
X153890476Y-107152380D01*
X154128571Y-106152380D01*
X155033333Y-107152380D02*
X154461904Y-107152380D01*
X154747619Y-107152380D02*
X154747619Y-106152380D01*
X154652380Y-106295238D01*
X154557142Y-106390476D01*
X154461904Y-106438095D01*
X142182380Y-92261904D02*
X142991904Y-92261904D01*
X143087142Y-92214285D01*
X143134761Y-92166666D01*
X143182380Y-92071428D01*
X143182380Y-91880952D01*
X143134761Y-91785714D01*
X143087142Y-91738095D01*
X142991904Y-91690476D01*
X142182380Y-91690476D01*
X142277619Y-91261904D02*
X142230000Y-91214285D01*
X142182380Y-91119047D01*
X142182380Y-90880952D01*
X142230000Y-90785714D01*
X142277619Y-90738095D01*
X142372857Y-90690476D01*
X142468095Y-90690476D01*
X142610952Y-90738095D01*
X143182380Y-91309523D01*
X143182380Y-90690476D01*
X143952380Y-97861904D02*
X144761904Y-97861904D01*
X144857142Y-97814285D01*
X144904761Y-97766666D01*
X144952380Y-97671428D01*
X144952380Y-97480952D01*
X144904761Y-97385714D01*
X144857142Y-97338095D01*
X144761904Y-97290476D01*
X143952380Y-97290476D01*
X144952380Y-96290476D02*
X144952380Y-96861904D01*
X144952380Y-96576190D02*
X143952380Y-96576190D01*
X144095238Y-96671428D01*
X144190476Y-96766666D01*
X144238095Y-96861904D01*
X191533333Y-90982380D02*
X191200000Y-90506190D01*
X190961904Y-90982380D02*
X190961904Y-89982380D01*
X191342857Y-89982380D01*
X191438095Y-90030000D01*
X191485714Y-90077619D01*
X191533333Y-90172857D01*
X191533333Y-90315714D01*
X191485714Y-90410952D01*
X191438095Y-90458571D01*
X191342857Y-90506190D01*
X190961904Y-90506190D01*
X191914285Y-90077619D02*
X191961904Y-90030000D01*
X192057142Y-89982380D01*
X192295238Y-89982380D01*
X192390476Y-90030000D01*
X192438095Y-90077619D01*
X192485714Y-90172857D01*
X192485714Y-90268095D01*
X192438095Y-90410952D01*
X191866666Y-90982380D01*
X192485714Y-90982380D01*
X191533333Y-97260380D02*
X191200000Y-96784190D01*
X190961904Y-97260380D02*
X190961904Y-96260380D01*
X191342857Y-96260380D01*
X191438095Y-96308000D01*
X191485714Y-96355619D01*
X191533333Y-96450857D01*
X191533333Y-96593714D01*
X191485714Y-96688952D01*
X191438095Y-96736571D01*
X191342857Y-96784190D01*
X190961904Y-96784190D01*
X192485714Y-97260380D02*
X191914285Y-97260380D01*
X192200000Y-97260380D02*
X192200000Y-96260380D01*
X192104761Y-96403238D01*
X192009523Y-96498476D01*
X191914285Y-96546095D01*
X155457142Y-98827142D02*
X155409523Y-98874761D01*
X155266666Y-98922380D01*
X155171428Y-98922380D01*
X155028571Y-98874761D01*
X154933333Y-98779523D01*
X154885714Y-98684285D01*
X154838095Y-98493809D01*
X154838095Y-98350952D01*
X154885714Y-98160476D01*
X154933333Y-98065238D01*
X155028571Y-97970000D01*
X155171428Y-97922380D01*
X155266666Y-97922380D01*
X155409523Y-97970000D01*
X155457142Y-98017619D01*
X156409523Y-98922380D02*
X155838095Y-98922380D01*
X156123809Y-98922380D02*
X156123809Y-97922380D01*
X156028571Y-98065238D01*
X155933333Y-98160476D01*
X155838095Y-98208095D01*
X157314285Y-97922380D02*
X156838095Y-97922380D01*
X156790476Y-98398571D01*
X156838095Y-98350952D01*
X156933333Y-98303333D01*
X157171428Y-98303333D01*
X157266666Y-98350952D01*
X157314285Y-98398571D01*
X157361904Y-98493809D01*
X157361904Y-98731904D01*
X157314285Y-98827142D01*
X157266666Y-98874761D01*
X157171428Y-98922380D01*
X156933333Y-98922380D01*
X156838095Y-98874761D01*
X156790476Y-98827142D01*
X156027142Y-98402857D02*
X156074761Y-98450476D01*
X156122380Y-98593333D01*
X156122380Y-98688571D01*
X156074761Y-98831428D01*
X155979523Y-98926666D01*
X155884285Y-98974285D01*
X155693809Y-99021904D01*
X155550952Y-99021904D01*
X155360476Y-98974285D01*
X155265238Y-98926666D01*
X155170000Y-98831428D01*
X155122380Y-98688571D01*
X155122380Y-98593333D01*
X155170000Y-98450476D01*
X155217619Y-98402857D01*
X156122380Y-97450476D02*
X156122380Y-98021904D01*
X156122380Y-97736190D02*
X155122380Y-97736190D01*
X155265238Y-97831428D01*
X155360476Y-97926666D01*
X155408095Y-98021904D01*
X155455714Y-96593333D02*
X156122380Y-96593333D01*
X155074761Y-96831428D02*
X155789047Y-97069523D01*
X155789047Y-96450476D01*
X153127142Y-98402857D02*
X153174761Y-98450476D01*
X153222380Y-98593333D01*
X153222380Y-98688571D01*
X153174761Y-98831428D01*
X153079523Y-98926666D01*
X152984285Y-98974285D01*
X152793809Y-99021904D01*
X152650952Y-99021904D01*
X152460476Y-98974285D01*
X152365238Y-98926666D01*
X152270000Y-98831428D01*
X152222380Y-98688571D01*
X152222380Y-98593333D01*
X152270000Y-98450476D01*
X152317619Y-98402857D01*
X153222380Y-97450476D02*
X153222380Y-98021904D01*
X153222380Y-97736190D02*
X152222380Y-97736190D01*
X152365238Y-97831428D01*
X152460476Y-97926666D01*
X152508095Y-98021904D01*
X152222380Y-97117142D02*
X152222380Y-96498095D01*
X152603333Y-96831428D01*
X152603333Y-96688571D01*
X152650952Y-96593333D01*
X152698571Y-96545714D01*
X152793809Y-96498095D01*
X153031904Y-96498095D01*
X153127142Y-96545714D01*
X153174761Y-96593333D01*
X153222380Y-96688571D01*
X153222380Y-96974285D01*
X153174761Y-97069523D01*
X153127142Y-97117142D01*
X150787142Y-96465347D02*
X150834761Y-96512966D01*
X150882380Y-96655823D01*
X150882380Y-96751061D01*
X150834761Y-96893918D01*
X150739523Y-96989156D01*
X150644285Y-97036775D01*
X150453809Y-97084394D01*
X150310952Y-97084394D01*
X150120476Y-97036775D01*
X150025238Y-96989156D01*
X149930000Y-96893918D01*
X149882380Y-96751061D01*
X149882380Y-96655823D01*
X149930000Y-96512966D01*
X149977619Y-96465347D01*
X150882380Y-95512966D02*
X150882380Y-96084394D01*
X150882380Y-95798680D02*
X149882380Y-95798680D01*
X150025238Y-95893918D01*
X150120476Y-95989156D01*
X150168095Y-96084394D01*
X149977619Y-95132013D02*
X149930000Y-95084394D01*
X149882380Y-94989156D01*
X149882380Y-94751061D01*
X149930000Y-94655823D01*
X149977619Y-94608204D01*
X150072857Y-94560585D01*
X150168095Y-94560585D01*
X150310952Y-94608204D01*
X150882380Y-95179632D01*
X150882380Y-94560585D01*
X180163142Y-87665542D02*
X180115523Y-87713161D01*
X179972666Y-87760780D01*
X179877428Y-87760780D01*
X179734571Y-87713161D01*
X179639333Y-87617923D01*
X179591714Y-87522685D01*
X179544095Y-87332209D01*
X179544095Y-87189352D01*
X179591714Y-86998876D01*
X179639333Y-86903638D01*
X179734571Y-86808400D01*
X179877428Y-86760780D01*
X179972666Y-86760780D01*
X180115523Y-86808400D01*
X180163142Y-86856019D01*
X181115523Y-87760780D02*
X180544095Y-87760780D01*
X180829809Y-87760780D02*
X180829809Y-86760780D01*
X180734571Y-86903638D01*
X180639333Y-86998876D01*
X180544095Y-87046495D01*
X182067904Y-87760780D02*
X181496476Y-87760780D01*
X181782190Y-87760780D02*
X181782190Y-86760780D01*
X181686952Y-86903638D01*
X181591714Y-86998876D01*
X181496476Y-87046495D01*
X182550742Y-90005542D02*
X182503123Y-90053161D01*
X182360266Y-90100780D01*
X182265028Y-90100780D01*
X182122171Y-90053161D01*
X182026933Y-89957923D01*
X181979314Y-89862685D01*
X181931695Y-89672209D01*
X181931695Y-89529352D01*
X181979314Y-89338876D01*
X182026933Y-89243638D01*
X182122171Y-89148400D01*
X182265028Y-89100780D01*
X182360266Y-89100780D01*
X182503123Y-89148400D01*
X182550742Y-89196019D01*
X183503123Y-90100780D02*
X182931695Y-90100780D01*
X183217409Y-90100780D02*
X183217409Y-89100780D01*
X183122171Y-89243638D01*
X183026933Y-89338876D01*
X182931695Y-89386495D01*
X184122171Y-89100780D02*
X184217409Y-89100780D01*
X184312647Y-89148400D01*
X184360266Y-89196019D01*
X184407885Y-89291257D01*
X184455504Y-89481733D01*
X184455504Y-89719828D01*
X184407885Y-89910304D01*
X184360266Y-90005542D01*
X184312647Y-90053161D01*
X184217409Y-90100780D01*
X184122171Y-90100780D01*
X184026933Y-90053161D01*
X183979314Y-90005542D01*
X183931695Y-89910304D01*
X183884076Y-89719828D01*
X183884076Y-89481733D01*
X183931695Y-89291257D01*
X183979314Y-89196019D01*
X184026933Y-89148400D01*
X184122171Y-89100780D01*
X180639333Y-85735142D02*
X180591714Y-85782761D01*
X180448857Y-85830380D01*
X180353619Y-85830380D01*
X180210761Y-85782761D01*
X180115523Y-85687523D01*
X180067904Y-85592285D01*
X180020285Y-85401809D01*
X180020285Y-85258952D01*
X180067904Y-85068476D01*
X180115523Y-84973238D01*
X180210761Y-84878000D01*
X180353619Y-84830380D01*
X180448857Y-84830380D01*
X180591714Y-84878000D01*
X180639333Y-84925619D01*
X181115523Y-85830380D02*
X181306000Y-85830380D01*
X181401238Y-85782761D01*
X181448857Y-85735142D01*
X181544095Y-85592285D01*
X181591714Y-85401809D01*
X181591714Y-85020857D01*
X181544095Y-84925619D01*
X181496476Y-84878000D01*
X181401238Y-84830380D01*
X181210761Y-84830380D01*
X181115523Y-84878000D01*
X181067904Y-84925619D01*
X181020285Y-85020857D01*
X181020285Y-85258952D01*
X181067904Y-85354190D01*
X181115523Y-85401809D01*
X181210761Y-85449428D01*
X181401238Y-85449428D01*
X181496476Y-85401809D01*
X181544095Y-85354190D01*
X181591714Y-85258952D01*
X183026933Y-89040342D02*
X182979314Y-89087961D01*
X182836457Y-89135580D01*
X182741219Y-89135580D01*
X182598361Y-89087961D01*
X182503123Y-88992723D01*
X182455504Y-88897485D01*
X182407885Y-88707009D01*
X182407885Y-88564152D01*
X182455504Y-88373676D01*
X182503123Y-88278438D01*
X182598361Y-88183200D01*
X182741219Y-88135580D01*
X182836457Y-88135580D01*
X182979314Y-88183200D01*
X183026933Y-88230819D01*
X183598361Y-88564152D02*
X183503123Y-88516533D01*
X183455504Y-88468914D01*
X183407885Y-88373676D01*
X183407885Y-88326057D01*
X183455504Y-88230819D01*
X183503123Y-88183200D01*
X183598361Y-88135580D01*
X183788838Y-88135580D01*
X183884076Y-88183200D01*
X183931695Y-88230819D01*
X183979314Y-88326057D01*
X183979314Y-88373676D01*
X183931695Y-88468914D01*
X183884076Y-88516533D01*
X183788838Y-88564152D01*
X183598361Y-88564152D01*
X183503123Y-88611771D01*
X183455504Y-88659390D01*
X183407885Y-88754628D01*
X183407885Y-88945104D01*
X183455504Y-89040342D01*
X183503123Y-89087961D01*
X183598361Y-89135580D01*
X183788838Y-89135580D01*
X183884076Y-89087961D01*
X183931695Y-89040342D01*
X183979314Y-88945104D01*
X183979314Y-88754628D01*
X183931695Y-88659390D01*
X183884076Y-88611771D01*
X183788838Y-88564152D01*
X180639333Y-86700342D02*
X180591714Y-86747961D01*
X180448857Y-86795580D01*
X180353619Y-86795580D01*
X180210761Y-86747961D01*
X180115523Y-86652723D01*
X180067904Y-86557485D01*
X180020285Y-86367009D01*
X180020285Y-86224152D01*
X180067904Y-86033676D01*
X180115523Y-85938438D01*
X180210761Y-85843200D01*
X180353619Y-85795580D01*
X180448857Y-85795580D01*
X180591714Y-85843200D01*
X180639333Y-85890819D01*
X180972666Y-85795580D02*
X181639333Y-85795580D01*
X181210761Y-86795580D01*
X183026933Y-88075142D02*
X182979314Y-88122761D01*
X182836457Y-88170380D01*
X182741219Y-88170380D01*
X182598361Y-88122761D01*
X182503123Y-88027523D01*
X182455504Y-87932285D01*
X182407885Y-87741809D01*
X182407885Y-87598952D01*
X182455504Y-87408476D01*
X182503123Y-87313238D01*
X182598361Y-87218000D01*
X182741219Y-87170380D01*
X182836457Y-87170380D01*
X182979314Y-87218000D01*
X183026933Y-87265619D01*
X183884076Y-87170380D02*
X183693600Y-87170380D01*
X183598361Y-87218000D01*
X183550742Y-87265619D01*
X183455504Y-87408476D01*
X183407885Y-87598952D01*
X183407885Y-87979904D01*
X183455504Y-88075142D01*
X183503123Y-88122761D01*
X183598361Y-88170380D01*
X183788838Y-88170380D01*
X183884076Y-88122761D01*
X183931695Y-88075142D01*
X183979314Y-87979904D01*
X183979314Y-87741809D01*
X183931695Y-87646571D01*
X183884076Y-87598952D01*
X183788838Y-87551333D01*
X183598361Y-87551333D01*
X183503123Y-87598952D01*
X183455504Y-87646571D01*
X183407885Y-87741809D01*
X150565132Y-101094166D02*
X150612751Y-101141785D01*
X150660370Y-101284642D01*
X150660370Y-101379880D01*
X150612751Y-101522738D01*
X150517513Y-101617976D01*
X150422275Y-101665595D01*
X150231799Y-101713214D01*
X150088942Y-101713214D01*
X149898466Y-101665595D01*
X149803228Y-101617976D01*
X149707990Y-101522738D01*
X149660370Y-101379880D01*
X149660370Y-101284642D01*
X149707990Y-101141785D01*
X149755609Y-101094166D01*
X149660370Y-100189404D02*
X149660370Y-100665595D01*
X150136561Y-100713214D01*
X150088942Y-100665595D01*
X150041323Y-100570357D01*
X150041323Y-100332261D01*
X150088942Y-100237023D01*
X150136561Y-100189404D01*
X150231799Y-100141785D01*
X150469894Y-100141785D01*
X150565132Y-100189404D01*
X150612751Y-100237023D01*
X150660370Y-100332261D01*
X150660370Y-100570357D01*
X150612751Y-100665595D01*
X150565132Y-100713214D01*
X152453942Y-101081466D02*
X152501561Y-101129085D01*
X152549180Y-101271942D01*
X152549180Y-101367180D01*
X152501561Y-101510038D01*
X152406323Y-101605276D01*
X152311085Y-101652895D01*
X152120609Y-101700514D01*
X151977752Y-101700514D01*
X151787276Y-101652895D01*
X151692038Y-101605276D01*
X151596800Y-101510038D01*
X151549180Y-101367180D01*
X151549180Y-101271942D01*
X151596800Y-101129085D01*
X151644419Y-101081466D01*
X151882514Y-100224323D02*
X152549180Y-100224323D01*
X151501561Y-100462419D02*
X152215847Y-100700514D01*
X152215847Y-100081466D01*
X151765132Y-93666666D02*
X151812751Y-93714285D01*
X151860370Y-93857142D01*
X151860370Y-93952380D01*
X151812751Y-94095238D01*
X151717513Y-94190476D01*
X151622275Y-94238095D01*
X151431799Y-94285714D01*
X151288942Y-94285714D01*
X151098466Y-94238095D01*
X151003228Y-94190476D01*
X150907990Y-94095238D01*
X150860370Y-93952380D01*
X150860370Y-93857142D01*
X150907990Y-93714285D01*
X150955609Y-93666666D01*
X150860370Y-93333333D02*
X150860370Y-92714285D01*
X151241323Y-93047619D01*
X151241323Y-92904761D01*
X151288942Y-92809523D01*
X151336561Y-92761904D01*
X151431799Y-92714285D01*
X151669894Y-92714285D01*
X151765132Y-92761904D01*
X151812751Y-92809523D01*
X151860370Y-92904761D01*
X151860370Y-93190476D01*
X151812751Y-93285714D01*
X151765132Y-93333333D01*
X153653942Y-93666666D02*
X153701561Y-93714285D01*
X153749180Y-93857142D01*
X153749180Y-93952380D01*
X153701561Y-94095238D01*
X153606323Y-94190476D01*
X153511085Y-94238095D01*
X153320609Y-94285714D01*
X153177752Y-94285714D01*
X152987276Y-94238095D01*
X152892038Y-94190476D01*
X152796800Y-94095238D01*
X152749180Y-93952380D01*
X152749180Y-93857142D01*
X152796800Y-93714285D01*
X152844419Y-93666666D01*
X152844419Y-93285714D02*
X152796800Y-93238095D01*
X152749180Y-93142857D01*
X152749180Y-92904761D01*
X152796800Y-92809523D01*
X152844419Y-92761904D01*
X152939657Y-92714285D01*
X153034895Y-92714285D01*
X153177752Y-92761904D01*
X153749180Y-93333333D01*
X153749180Y-92714285D01*
X183853942Y-90067466D02*
X183901561Y-90115085D01*
X183949180Y-90257942D01*
X183949180Y-90353180D01*
X183901561Y-90496038D01*
X183806323Y-90591276D01*
X183711085Y-90638895D01*
X183520609Y-90686514D01*
X183377752Y-90686514D01*
X183187276Y-90638895D01*
X183092038Y-90591276D01*
X182996800Y-90496038D01*
X182949180Y-90353180D01*
X182949180Y-90257942D01*
X182996800Y-90115085D01*
X183044419Y-90067466D01*
X183949180Y-89115085D02*
X183949180Y-89686514D01*
X183949180Y-89400800D02*
X182949180Y-89400800D01*
X183092038Y-89496038D01*
X183187276Y-89591276D01*
X183234895Y-89686514D01*
M02*
