G04 #@! TF.GenerationSoftware,KiCad,Pcbnew,5.99.0-unknown-a5c7d45~100~ubuntu19.10.1*
G04 #@! TF.CreationDate,2020-01-22T19:28:44+01:00*
G04 #@! TF.ProjectId,ilulissat,696c756c-6973-4736-9174-2e6b69636164,rev?*
G04 #@! TF.SameCoordinates,Original*
G04 #@! TF.FileFunction,Copper,L1,Top*
G04 #@! TF.FilePolarity,Positive*
%FSLAX46Y46*%
G04 Gerber Fmt 4.6, Leading zero omitted, Abs format (unit mm)*
G04 Created by KiCad (PCBNEW 5.99.0-unknown-a5c7d45~100~ubuntu19.10.1) date 2020-01-22 19:28:44*
%MOMM*%
%LPD*%
G04 APERTURE LIST*
%ADD10C,2.250000*%
%ADD11C,1.755000*%
%ADD12R,1.600000X0.800000*%
%ADD13R,1.000000X1.150000*%
%ADD14R,1.000000X1.800000*%
%ADD15R,0.400000X0.600000*%
%ADD16R,2.400000X1.500000*%
%ADD17C,0.250000*%
G04 APERTURE END LIST*
D10*
X157693068Y-91798432D03*
D11*
X143550932Y-105940568D03*
G04 #@! TA.AperFunction,SMDPad,CuDef*
G36*
X151788946Y-102091228D02*
G01*
X151836798Y-102123202D01*
X151868772Y-102171054D01*
X151880000Y-102227500D01*
X151880000Y-102572500D01*
X151868772Y-102628946D01*
X151836798Y-102676798D01*
X151788946Y-102708772D01*
X151732500Y-102720000D01*
X151437500Y-102720000D01*
X151381054Y-102708772D01*
X151333202Y-102676798D01*
X151301228Y-102628946D01*
X151290000Y-102572500D01*
X151290000Y-102227500D01*
X151301228Y-102171054D01*
X151333202Y-102123202D01*
X151381054Y-102091228D01*
X151437500Y-102080000D01*
X151732500Y-102080000D01*
X151788946Y-102091228D01*
G37*
G04 #@! TD.AperFunction*
G04 #@! TA.AperFunction,SMDPad,CuDef*
G36*
X150818946Y-102091228D02*
G01*
X150866798Y-102123202D01*
X150898772Y-102171054D01*
X150910000Y-102227500D01*
X150910000Y-102572500D01*
X150898772Y-102628946D01*
X150866798Y-102676798D01*
X150818946Y-102708772D01*
X150762500Y-102720000D01*
X150467500Y-102720000D01*
X150411054Y-102708772D01*
X150363202Y-102676798D01*
X150331228Y-102628946D01*
X150320000Y-102572500D01*
X150320000Y-102227500D01*
X150331228Y-102171054D01*
X150363202Y-102123202D01*
X150411054Y-102091228D01*
X150467500Y-102080000D01*
X150762500Y-102080000D01*
X150818946Y-102091228D01*
G37*
G04 #@! TD.AperFunction*
D12*
X151200000Y-110800000D03*
X151200000Y-107400000D03*
G04 #@! TA.AperFunction,SMDPad,CuDef*
G36*
X148928946Y-99231228D02*
G01*
X148976798Y-99263202D01*
X149008772Y-99311054D01*
X149020000Y-99367500D01*
X149020000Y-99662500D01*
X149008772Y-99718946D01*
X148976798Y-99766798D01*
X148928946Y-99798772D01*
X148872500Y-99810000D01*
X148527500Y-99810000D01*
X148471054Y-99798772D01*
X148423202Y-99766798D01*
X148391228Y-99718946D01*
X148380000Y-99662500D01*
X148380000Y-99367500D01*
X148391228Y-99311054D01*
X148423202Y-99263202D01*
X148471054Y-99231228D01*
X148527500Y-99220000D01*
X148872500Y-99220000D01*
X148928946Y-99231228D01*
G37*
G04 #@! TD.AperFunction*
G04 #@! TA.AperFunction,SMDPad,CuDef*
G36*
X148928946Y-100201228D02*
G01*
X148976798Y-100233202D01*
X149008772Y-100281054D01*
X149020000Y-100337500D01*
X149020000Y-100632500D01*
X149008772Y-100688946D01*
X148976798Y-100736798D01*
X148928946Y-100768772D01*
X148872500Y-100780000D01*
X148527500Y-100780000D01*
X148471054Y-100768772D01*
X148423202Y-100736798D01*
X148391228Y-100688946D01*
X148380000Y-100632500D01*
X148380000Y-100337500D01*
X148391228Y-100281054D01*
X148423202Y-100233202D01*
X148471054Y-100201228D01*
X148527500Y-100190000D01*
X148872500Y-100190000D01*
X148928946Y-100201228D01*
G37*
G04 #@! TD.AperFunction*
G04 #@! TA.AperFunction,SMDPad,CuDef*
G36*
X151628946Y-99231228D02*
G01*
X151676798Y-99263202D01*
X151708772Y-99311054D01*
X151720000Y-99367500D01*
X151720000Y-99662500D01*
X151708772Y-99718946D01*
X151676798Y-99766798D01*
X151628946Y-99798772D01*
X151572500Y-99810000D01*
X151227500Y-99810000D01*
X151171054Y-99798772D01*
X151123202Y-99766798D01*
X151091228Y-99718946D01*
X151080000Y-99662500D01*
X151080000Y-99367500D01*
X151091228Y-99311054D01*
X151123202Y-99263202D01*
X151171054Y-99231228D01*
X151227500Y-99220000D01*
X151572500Y-99220000D01*
X151628946Y-99231228D01*
G37*
G04 #@! TD.AperFunction*
G04 #@! TA.AperFunction,SMDPad,CuDef*
G36*
X151628946Y-100201228D02*
G01*
X151676798Y-100233202D01*
X151708772Y-100281054D01*
X151720000Y-100337500D01*
X151720000Y-100632500D01*
X151708772Y-100688946D01*
X151676798Y-100736798D01*
X151628946Y-100768772D01*
X151572500Y-100780000D01*
X151227500Y-100780000D01*
X151171054Y-100768772D01*
X151123202Y-100736798D01*
X151091228Y-100688946D01*
X151080000Y-100632500D01*
X151080000Y-100337500D01*
X151091228Y-100281054D01*
X151123202Y-100233202D01*
X151171054Y-100201228D01*
X151227500Y-100190000D01*
X151572500Y-100190000D01*
X151628946Y-100201228D01*
G37*
G04 #@! TD.AperFunction*
G04 #@! TA.AperFunction,SMDPad,CuDef*
G36*
X134982843Y-94784925D02*
G01*
X136184925Y-93582843D01*
X136821321Y-94219239D01*
X135619239Y-95421321D01*
X134982843Y-94784925D01*
G37*
G04 #@! TD.AperFunction*
G04 #@! TA.AperFunction,SMDPad,CuDef*
G36*
X132578679Y-92380761D02*
G01*
X133780761Y-91178679D01*
X134417157Y-91815075D01*
X133215075Y-93017157D01*
X132578679Y-92380761D01*
G37*
G04 #@! TD.AperFunction*
D13*
X146000000Y-96025000D03*
X146000000Y-97775000D03*
X144600000Y-97775000D03*
X144600000Y-96025000D03*
D14*
X147050000Y-91500000D03*
X149550000Y-91500000D03*
D15*
X160950000Y-101400000D03*
X160000000Y-101400000D03*
X159050000Y-101400000D03*
X159050000Y-98600000D03*
X160000000Y-98600000D03*
X160950000Y-98600000D03*
D16*
X160000000Y-100000000D03*
G04 #@! TA.AperFunction,SMDPad,CuDef*
G36*
X148689092Y-93568826D02*
G01*
X148700000Y-93600000D01*
X148700000Y-94300000D01*
X148681174Y-94339092D01*
X148650000Y-94350000D01*
X148620711Y-94350000D01*
X148585356Y-94335355D01*
X148514645Y-94264644D01*
X148500000Y-94229289D01*
X148500000Y-93600000D01*
X148518826Y-93560908D01*
X148550000Y-93550000D01*
X148650000Y-93550000D01*
X148689092Y-93568826D01*
G37*
G04 #@! TD.AperFunction*
G04 #@! TA.AperFunction,SMDPad,CuDef*
G36*
X149069134Y-93553806D02*
G01*
X149085355Y-93564645D01*
X149096194Y-93580866D01*
X149100000Y-93600000D01*
X149100000Y-94300000D01*
X149096194Y-94319134D01*
X149085355Y-94335355D01*
X149069134Y-94346194D01*
X149050000Y-94350000D01*
X148950000Y-94350000D01*
X148930866Y-94346194D01*
X148914645Y-94335355D01*
X148903806Y-94319134D01*
X148900000Y-94300000D01*
X148900000Y-93600000D01*
X148903806Y-93580866D01*
X148914645Y-93564645D01*
X148930866Y-93553806D01*
X148950000Y-93550000D01*
X149050000Y-93550000D01*
X149069134Y-93553806D01*
G37*
G04 #@! TD.AperFunction*
G04 #@! TA.AperFunction,SMDPad,CuDef*
G36*
X149469134Y-93553806D02*
G01*
X149485355Y-93564645D01*
X149496194Y-93580866D01*
X149500000Y-93600000D01*
X149500000Y-94300000D01*
X149496194Y-94319134D01*
X149485355Y-94335355D01*
X149469134Y-94346194D01*
X149450000Y-94350000D01*
X149350000Y-94350000D01*
X149330866Y-94346194D01*
X149314645Y-94335355D01*
X149303806Y-94319134D01*
X149300000Y-94300000D01*
X149300000Y-93600000D01*
X149303806Y-93580866D01*
X149314645Y-93564645D01*
X149330866Y-93553806D01*
X149350000Y-93550000D01*
X149450000Y-93550000D01*
X149469134Y-93553806D01*
G37*
G04 #@! TD.AperFunction*
G04 #@! TA.AperFunction,SMDPad,CuDef*
G36*
X149869134Y-93553806D02*
G01*
X149885355Y-93564645D01*
X149896194Y-93580866D01*
X149900000Y-93600000D01*
X149900000Y-94300000D01*
X149896194Y-94319134D01*
X149885355Y-94335355D01*
X149869134Y-94346194D01*
X149850000Y-94350000D01*
X149750000Y-94350000D01*
X149730866Y-94346194D01*
X149714645Y-94335355D01*
X149703806Y-94319134D01*
X149700000Y-94300000D01*
X149700000Y-93600000D01*
X149703806Y-93580866D01*
X149714645Y-93564645D01*
X149730866Y-93553806D01*
X149750000Y-93550000D01*
X149850000Y-93550000D01*
X149869134Y-93553806D01*
G37*
G04 #@! TD.AperFunction*
G04 #@! TA.AperFunction,SMDPad,CuDef*
G36*
X150269134Y-93553806D02*
G01*
X150285355Y-93564645D01*
X150296194Y-93580866D01*
X150300000Y-93600000D01*
X150300000Y-94300000D01*
X150296194Y-94319134D01*
X150285355Y-94335355D01*
X150269134Y-94346194D01*
X150250000Y-94350000D01*
X150150000Y-94350000D01*
X150130866Y-94346194D01*
X150114645Y-94335355D01*
X150103806Y-94319134D01*
X150100000Y-94300000D01*
X150100000Y-93600000D01*
X150103806Y-93580866D01*
X150114645Y-93564645D01*
X150130866Y-93553806D01*
X150150000Y-93550000D01*
X150250000Y-93550000D01*
X150269134Y-93553806D01*
G37*
G04 #@! TD.AperFunction*
G04 #@! TA.AperFunction,SMDPad,CuDef*
G36*
X150669134Y-93553806D02*
G01*
X150685355Y-93564645D01*
X150696194Y-93580866D01*
X150700000Y-93600000D01*
X150700000Y-94300000D01*
X150696194Y-94319134D01*
X150685355Y-94335355D01*
X150669134Y-94346194D01*
X150650000Y-94350000D01*
X150550000Y-94350000D01*
X150530866Y-94346194D01*
X150514645Y-94335355D01*
X150503806Y-94319134D01*
X150500000Y-94300000D01*
X150500000Y-93600000D01*
X150503806Y-93580866D01*
X150514645Y-93564645D01*
X150530866Y-93553806D01*
X150550000Y-93550000D01*
X150650000Y-93550000D01*
X150669134Y-93553806D01*
G37*
G04 #@! TD.AperFunction*
G04 #@! TA.AperFunction,SMDPad,CuDef*
G36*
X151069134Y-93553806D02*
G01*
X151085355Y-93564645D01*
X151096194Y-93580866D01*
X151100000Y-93600000D01*
X151100000Y-94300000D01*
X151096194Y-94319134D01*
X151085355Y-94335355D01*
X151069134Y-94346194D01*
X151050000Y-94350000D01*
X150950000Y-94350000D01*
X150930866Y-94346194D01*
X150914645Y-94335355D01*
X150903806Y-94319134D01*
X150900000Y-94300000D01*
X150900000Y-93600000D01*
X150903806Y-93580866D01*
X150914645Y-93564645D01*
X150930866Y-93553806D01*
X150950000Y-93550000D01*
X151050000Y-93550000D01*
X151069134Y-93553806D01*
G37*
G04 #@! TD.AperFunction*
G04 #@! TA.AperFunction,SMDPad,CuDef*
G36*
X151489092Y-93568826D02*
G01*
X151500000Y-93600000D01*
X151500000Y-94229289D01*
X151485355Y-94264644D01*
X151414644Y-94335355D01*
X151379289Y-94350000D01*
X151350000Y-94350000D01*
X151310908Y-94331174D01*
X151300000Y-94300000D01*
X151300000Y-93600000D01*
X151318826Y-93560908D01*
X151350000Y-93550000D01*
X151450000Y-93550000D01*
X151489092Y-93568826D01*
G37*
G04 #@! TD.AperFunction*
G04 #@! TA.AperFunction,SMDPad,CuDef*
G36*
X152339092Y-94418826D02*
G01*
X152350000Y-94450000D01*
X152350000Y-94550000D01*
X152331174Y-94589092D01*
X152300000Y-94600000D01*
X151600000Y-94600000D01*
X151560908Y-94581174D01*
X151550000Y-94550000D01*
X151550000Y-94520711D01*
X151564645Y-94485356D01*
X151635356Y-94414645D01*
X151670711Y-94400000D01*
X152300000Y-94400000D01*
X152339092Y-94418826D01*
G37*
G04 #@! TD.AperFunction*
G04 #@! TA.AperFunction,SMDPad,CuDef*
G36*
X152319134Y-94803806D02*
G01*
X152335355Y-94814645D01*
X152346194Y-94830866D01*
X152350000Y-94850000D01*
X152350000Y-94950000D01*
X152346194Y-94969134D01*
X152335355Y-94985355D01*
X152319134Y-94996194D01*
X152300000Y-95000000D01*
X151600000Y-95000000D01*
X151580866Y-94996194D01*
X151564645Y-94985355D01*
X151553806Y-94969134D01*
X151550000Y-94950000D01*
X151550000Y-94850000D01*
X151553806Y-94830866D01*
X151564645Y-94814645D01*
X151580866Y-94803806D01*
X151600000Y-94800000D01*
X152300000Y-94800000D01*
X152319134Y-94803806D01*
G37*
G04 #@! TD.AperFunction*
G04 #@! TA.AperFunction,SMDPad,CuDef*
G36*
X152319134Y-95203806D02*
G01*
X152335355Y-95214645D01*
X152346194Y-95230866D01*
X152350000Y-95250000D01*
X152350000Y-95350000D01*
X152346194Y-95369134D01*
X152335355Y-95385355D01*
X152319134Y-95396194D01*
X152300000Y-95400000D01*
X151600000Y-95400000D01*
X151580866Y-95396194D01*
X151564645Y-95385355D01*
X151553806Y-95369134D01*
X151550000Y-95350000D01*
X151550000Y-95250000D01*
X151553806Y-95230866D01*
X151564645Y-95214645D01*
X151580866Y-95203806D01*
X151600000Y-95200000D01*
X152300000Y-95200000D01*
X152319134Y-95203806D01*
G37*
G04 #@! TD.AperFunction*
G04 #@! TA.AperFunction,SMDPad,CuDef*
G36*
X152319134Y-95603806D02*
G01*
X152335355Y-95614645D01*
X152346194Y-95630866D01*
X152350000Y-95650000D01*
X152350000Y-95750000D01*
X152346194Y-95769134D01*
X152335355Y-95785355D01*
X152319134Y-95796194D01*
X152300000Y-95800000D01*
X151600000Y-95800000D01*
X151580866Y-95796194D01*
X151564645Y-95785355D01*
X151553806Y-95769134D01*
X151550000Y-95750000D01*
X151550000Y-95650000D01*
X151553806Y-95630866D01*
X151564645Y-95614645D01*
X151580866Y-95603806D01*
X151600000Y-95600000D01*
X152300000Y-95600000D01*
X152319134Y-95603806D01*
G37*
G04 #@! TD.AperFunction*
G04 #@! TA.AperFunction,SMDPad,CuDef*
G36*
X152319134Y-96003806D02*
G01*
X152335355Y-96014645D01*
X152346194Y-96030866D01*
X152350000Y-96050000D01*
X152350000Y-96150000D01*
X152346194Y-96169134D01*
X152335355Y-96185355D01*
X152319134Y-96196194D01*
X152300000Y-96200000D01*
X151600000Y-96200000D01*
X151580866Y-96196194D01*
X151564645Y-96185355D01*
X151553806Y-96169134D01*
X151550000Y-96150000D01*
X151550000Y-96050000D01*
X151553806Y-96030866D01*
X151564645Y-96014645D01*
X151580866Y-96003806D01*
X151600000Y-96000000D01*
X152300000Y-96000000D01*
X152319134Y-96003806D01*
G37*
G04 #@! TD.AperFunction*
G04 #@! TA.AperFunction,SMDPad,CuDef*
G36*
X152319134Y-96403806D02*
G01*
X152335355Y-96414645D01*
X152346194Y-96430866D01*
X152350000Y-96450000D01*
X152350000Y-96550000D01*
X152346194Y-96569134D01*
X152335355Y-96585355D01*
X152319134Y-96596194D01*
X152300000Y-96600000D01*
X151600000Y-96600000D01*
X151580866Y-96596194D01*
X151564645Y-96585355D01*
X151553806Y-96569134D01*
X151550000Y-96550000D01*
X151550000Y-96450000D01*
X151553806Y-96430866D01*
X151564645Y-96414645D01*
X151580866Y-96403806D01*
X151600000Y-96400000D01*
X152300000Y-96400000D01*
X152319134Y-96403806D01*
G37*
G04 #@! TD.AperFunction*
G04 #@! TA.AperFunction,SMDPad,CuDef*
G36*
X152319134Y-96803806D02*
G01*
X152335355Y-96814645D01*
X152346194Y-96830866D01*
X152350000Y-96850000D01*
X152350000Y-96950000D01*
X152346194Y-96969134D01*
X152335355Y-96985355D01*
X152319134Y-96996194D01*
X152300000Y-97000000D01*
X151600000Y-97000000D01*
X151580866Y-96996194D01*
X151564645Y-96985355D01*
X151553806Y-96969134D01*
X151550000Y-96950000D01*
X151550000Y-96850000D01*
X151553806Y-96830866D01*
X151564645Y-96814645D01*
X151580866Y-96803806D01*
X151600000Y-96800000D01*
X152300000Y-96800000D01*
X152319134Y-96803806D01*
G37*
G04 #@! TD.AperFunction*
G04 #@! TA.AperFunction,SMDPad,CuDef*
G36*
X152339092Y-97218826D02*
G01*
X152350000Y-97250000D01*
X152350000Y-97350000D01*
X152331174Y-97389092D01*
X152300000Y-97400000D01*
X151670711Y-97400000D01*
X151635356Y-97385355D01*
X151564645Y-97314644D01*
X151550000Y-97279289D01*
X151550000Y-97250000D01*
X151568826Y-97210908D01*
X151600000Y-97200000D01*
X152300000Y-97200000D01*
X152339092Y-97218826D01*
G37*
G04 #@! TD.AperFunction*
G04 #@! TA.AperFunction,SMDPad,CuDef*
G36*
X151414644Y-97464645D02*
G01*
X151485355Y-97535356D01*
X151500000Y-97570711D01*
X151500000Y-98200000D01*
X151481174Y-98239092D01*
X151450000Y-98250000D01*
X151350000Y-98250000D01*
X151310908Y-98231174D01*
X151300000Y-98200000D01*
X151300000Y-97500000D01*
X151318826Y-97460908D01*
X151350000Y-97450000D01*
X151379289Y-97450000D01*
X151414644Y-97464645D01*
G37*
G04 #@! TD.AperFunction*
G04 #@! TA.AperFunction,SMDPad,CuDef*
G36*
X151069134Y-97453806D02*
G01*
X151085355Y-97464645D01*
X151096194Y-97480866D01*
X151100000Y-97500000D01*
X151100000Y-98200000D01*
X151096194Y-98219134D01*
X151085355Y-98235355D01*
X151069134Y-98246194D01*
X151050000Y-98250000D01*
X150950000Y-98250000D01*
X150930866Y-98246194D01*
X150914645Y-98235355D01*
X150903806Y-98219134D01*
X150900000Y-98200000D01*
X150900000Y-97500000D01*
X150903806Y-97480866D01*
X150914645Y-97464645D01*
X150930866Y-97453806D01*
X150950000Y-97450000D01*
X151050000Y-97450000D01*
X151069134Y-97453806D01*
G37*
G04 #@! TD.AperFunction*
G04 #@! TA.AperFunction,SMDPad,CuDef*
G36*
X150669134Y-97453806D02*
G01*
X150685355Y-97464645D01*
X150696194Y-97480866D01*
X150700000Y-97500000D01*
X150700000Y-98200000D01*
X150696194Y-98219134D01*
X150685355Y-98235355D01*
X150669134Y-98246194D01*
X150650000Y-98250000D01*
X150550000Y-98250000D01*
X150530866Y-98246194D01*
X150514645Y-98235355D01*
X150503806Y-98219134D01*
X150500000Y-98200000D01*
X150500000Y-97500000D01*
X150503806Y-97480866D01*
X150514645Y-97464645D01*
X150530866Y-97453806D01*
X150550000Y-97450000D01*
X150650000Y-97450000D01*
X150669134Y-97453806D01*
G37*
G04 #@! TD.AperFunction*
G04 #@! TA.AperFunction,SMDPad,CuDef*
G36*
X150269134Y-97453806D02*
G01*
X150285355Y-97464645D01*
X150296194Y-97480866D01*
X150300000Y-97500000D01*
X150300000Y-98200000D01*
X150296194Y-98219134D01*
X150285355Y-98235355D01*
X150269134Y-98246194D01*
X150250000Y-98250000D01*
X150150000Y-98250000D01*
X150130866Y-98246194D01*
X150114645Y-98235355D01*
X150103806Y-98219134D01*
X150100000Y-98200000D01*
X150100000Y-97500000D01*
X150103806Y-97480866D01*
X150114645Y-97464645D01*
X150130866Y-97453806D01*
X150150000Y-97450000D01*
X150250000Y-97450000D01*
X150269134Y-97453806D01*
G37*
G04 #@! TD.AperFunction*
G04 #@! TA.AperFunction,SMDPad,CuDef*
G36*
X149869134Y-97453806D02*
G01*
X149885355Y-97464645D01*
X149896194Y-97480866D01*
X149900000Y-97500000D01*
X149900000Y-98200000D01*
X149896194Y-98219134D01*
X149885355Y-98235355D01*
X149869134Y-98246194D01*
X149850000Y-98250000D01*
X149750000Y-98250000D01*
X149730866Y-98246194D01*
X149714645Y-98235355D01*
X149703806Y-98219134D01*
X149700000Y-98200000D01*
X149700000Y-97500000D01*
X149703806Y-97480866D01*
X149714645Y-97464645D01*
X149730866Y-97453806D01*
X149750000Y-97450000D01*
X149850000Y-97450000D01*
X149869134Y-97453806D01*
G37*
G04 #@! TD.AperFunction*
G04 #@! TA.AperFunction,SMDPad,CuDef*
G36*
X149469134Y-97453806D02*
G01*
X149485355Y-97464645D01*
X149496194Y-97480866D01*
X149500000Y-97500000D01*
X149500000Y-98200000D01*
X149496194Y-98219134D01*
X149485355Y-98235355D01*
X149469134Y-98246194D01*
X149450000Y-98250000D01*
X149350000Y-98250000D01*
X149330866Y-98246194D01*
X149314645Y-98235355D01*
X149303806Y-98219134D01*
X149300000Y-98200000D01*
X149300000Y-97500000D01*
X149303806Y-97480866D01*
X149314645Y-97464645D01*
X149330866Y-97453806D01*
X149350000Y-97450000D01*
X149450000Y-97450000D01*
X149469134Y-97453806D01*
G37*
G04 #@! TD.AperFunction*
G04 #@! TA.AperFunction,SMDPad,CuDef*
G36*
X149069134Y-97453806D02*
G01*
X149085355Y-97464645D01*
X149096194Y-97480866D01*
X149100000Y-97500000D01*
X149100000Y-98200000D01*
X149096194Y-98219134D01*
X149085355Y-98235355D01*
X149069134Y-98246194D01*
X149050000Y-98250000D01*
X148950000Y-98250000D01*
X148930866Y-98246194D01*
X148914645Y-98235355D01*
X148903806Y-98219134D01*
X148900000Y-98200000D01*
X148900000Y-97500000D01*
X148903806Y-97480866D01*
X148914645Y-97464645D01*
X148930866Y-97453806D01*
X148950000Y-97450000D01*
X149050000Y-97450000D01*
X149069134Y-97453806D01*
G37*
G04 #@! TD.AperFunction*
G04 #@! TA.AperFunction,SMDPad,CuDef*
G36*
X148689092Y-97468826D02*
G01*
X148700000Y-97500000D01*
X148700000Y-98200000D01*
X148681174Y-98239092D01*
X148650000Y-98250000D01*
X148550000Y-98250000D01*
X148510908Y-98231174D01*
X148500000Y-98200000D01*
X148500000Y-97570711D01*
X148514645Y-97535356D01*
X148585356Y-97464645D01*
X148620711Y-97450000D01*
X148650000Y-97450000D01*
X148689092Y-97468826D01*
G37*
G04 #@! TD.AperFunction*
G04 #@! TA.AperFunction,SMDPad,CuDef*
G36*
X148439092Y-97218826D02*
G01*
X148450000Y-97250000D01*
X148450000Y-97279289D01*
X148435355Y-97314644D01*
X148364644Y-97385355D01*
X148329289Y-97400000D01*
X147700000Y-97400000D01*
X147660908Y-97381174D01*
X147650000Y-97350000D01*
X147650000Y-97250000D01*
X147668826Y-97210908D01*
X147700000Y-97200000D01*
X148400000Y-97200000D01*
X148439092Y-97218826D01*
G37*
G04 #@! TD.AperFunction*
G04 #@! TA.AperFunction,SMDPad,CuDef*
G36*
X148419134Y-96803806D02*
G01*
X148435355Y-96814645D01*
X148446194Y-96830866D01*
X148450000Y-96850000D01*
X148450000Y-96950000D01*
X148446194Y-96969134D01*
X148435355Y-96985355D01*
X148419134Y-96996194D01*
X148400000Y-97000000D01*
X147700000Y-97000000D01*
X147680866Y-96996194D01*
X147664645Y-96985355D01*
X147653806Y-96969134D01*
X147650000Y-96950000D01*
X147650000Y-96850000D01*
X147653806Y-96830866D01*
X147664645Y-96814645D01*
X147680866Y-96803806D01*
X147700000Y-96800000D01*
X148400000Y-96800000D01*
X148419134Y-96803806D01*
G37*
G04 #@! TD.AperFunction*
G04 #@! TA.AperFunction,SMDPad,CuDef*
G36*
X148419134Y-96403806D02*
G01*
X148435355Y-96414645D01*
X148446194Y-96430866D01*
X148450000Y-96450000D01*
X148450000Y-96550000D01*
X148446194Y-96569134D01*
X148435355Y-96585355D01*
X148419134Y-96596194D01*
X148400000Y-96600000D01*
X147700000Y-96600000D01*
X147680866Y-96596194D01*
X147664645Y-96585355D01*
X147653806Y-96569134D01*
X147650000Y-96550000D01*
X147650000Y-96450000D01*
X147653806Y-96430866D01*
X147664645Y-96414645D01*
X147680866Y-96403806D01*
X147700000Y-96400000D01*
X148400000Y-96400000D01*
X148419134Y-96403806D01*
G37*
G04 #@! TD.AperFunction*
G04 #@! TA.AperFunction,SMDPad,CuDef*
G36*
X148419134Y-96003806D02*
G01*
X148435355Y-96014645D01*
X148446194Y-96030866D01*
X148450000Y-96050000D01*
X148450000Y-96150000D01*
X148446194Y-96169134D01*
X148435355Y-96185355D01*
X148419134Y-96196194D01*
X148400000Y-96200000D01*
X147700000Y-96200000D01*
X147680866Y-96196194D01*
X147664645Y-96185355D01*
X147653806Y-96169134D01*
X147650000Y-96150000D01*
X147650000Y-96050000D01*
X147653806Y-96030866D01*
X147664645Y-96014645D01*
X147680866Y-96003806D01*
X147700000Y-96000000D01*
X148400000Y-96000000D01*
X148419134Y-96003806D01*
G37*
G04 #@! TD.AperFunction*
G04 #@! TA.AperFunction,SMDPad,CuDef*
G36*
X148419134Y-95603806D02*
G01*
X148435355Y-95614645D01*
X148446194Y-95630866D01*
X148450000Y-95650000D01*
X148450000Y-95750000D01*
X148446194Y-95769134D01*
X148435355Y-95785355D01*
X148419134Y-95796194D01*
X148400000Y-95800000D01*
X147700000Y-95800000D01*
X147680866Y-95796194D01*
X147664645Y-95785355D01*
X147653806Y-95769134D01*
X147650000Y-95750000D01*
X147650000Y-95650000D01*
X147653806Y-95630866D01*
X147664645Y-95614645D01*
X147680866Y-95603806D01*
X147700000Y-95600000D01*
X148400000Y-95600000D01*
X148419134Y-95603806D01*
G37*
G04 #@! TD.AperFunction*
G04 #@! TA.AperFunction,SMDPad,CuDef*
G36*
X148419134Y-95203806D02*
G01*
X148435355Y-95214645D01*
X148446194Y-95230866D01*
X148450000Y-95250000D01*
X148450000Y-95350000D01*
X148446194Y-95369134D01*
X148435355Y-95385355D01*
X148419134Y-95396194D01*
X148400000Y-95400000D01*
X147700000Y-95400000D01*
X147680866Y-95396194D01*
X147664645Y-95385355D01*
X147653806Y-95369134D01*
X147650000Y-95350000D01*
X147650000Y-95250000D01*
X147653806Y-95230866D01*
X147664645Y-95214645D01*
X147680866Y-95203806D01*
X147700000Y-95200000D01*
X148400000Y-95200000D01*
X148419134Y-95203806D01*
G37*
G04 #@! TD.AperFunction*
G04 #@! TA.AperFunction,SMDPad,CuDef*
G36*
X148419134Y-94803806D02*
G01*
X148435355Y-94814645D01*
X148446194Y-94830866D01*
X148450000Y-94850000D01*
X148450000Y-94950000D01*
X148446194Y-94969134D01*
X148435355Y-94985355D01*
X148419134Y-94996194D01*
X148400000Y-95000000D01*
X147700000Y-95000000D01*
X147680866Y-94996194D01*
X147664645Y-94985355D01*
X147653806Y-94969134D01*
X147650000Y-94950000D01*
X147650000Y-94850000D01*
X147653806Y-94830866D01*
X147664645Y-94814645D01*
X147680866Y-94803806D01*
X147700000Y-94800000D01*
X148400000Y-94800000D01*
X148419134Y-94803806D01*
G37*
G04 #@! TD.AperFunction*
G04 #@! TA.AperFunction,SMDPad,CuDef*
G36*
X148364644Y-94414645D02*
G01*
X148435355Y-94485356D01*
X148450000Y-94520711D01*
X148450000Y-94550000D01*
X148431174Y-94589092D01*
X148400000Y-94600000D01*
X147700000Y-94600000D01*
X147660908Y-94581174D01*
X147650000Y-94550000D01*
X147650000Y-94450000D01*
X147668826Y-94410908D01*
X147700000Y-94400000D01*
X148329289Y-94400000D01*
X148364644Y-94414645D01*
G37*
G04 #@! TD.AperFunction*
G04 #@! TA.AperFunction,SMDPad,CuDef*
G36*
X151170671Y-94594030D02*
G01*
X151251777Y-94648223D01*
X151305970Y-94729329D01*
X151325000Y-94825000D01*
X151325000Y-96975000D01*
X151305970Y-97070671D01*
X151251777Y-97151777D01*
X151170671Y-97205970D01*
X151075000Y-97225000D01*
X148925000Y-97225000D01*
X148829329Y-97205970D01*
X148748223Y-97151777D01*
X148694030Y-97070671D01*
X148675000Y-96975000D01*
X148675000Y-94825000D01*
X148694030Y-94729329D01*
X148748223Y-94648223D01*
X148829329Y-94594030D01*
X148925000Y-94575000D01*
X151075000Y-94575000D01*
X151170671Y-94594030D01*
G37*
G04 #@! TD.AperFunction*
G04 #@! TA.AperFunction,SMDPad,CuDef*
G36*
X161188946Y-96791228D02*
G01*
X161236798Y-96823202D01*
X161268772Y-96871054D01*
X161280000Y-96927500D01*
X161280000Y-97272500D01*
X161268772Y-97328946D01*
X161236798Y-97376798D01*
X161188946Y-97408772D01*
X161132500Y-97420000D01*
X160837500Y-97420000D01*
X160781054Y-97408772D01*
X160733202Y-97376798D01*
X160701228Y-97328946D01*
X160690000Y-97272500D01*
X160690000Y-96927500D01*
X160701228Y-96871054D01*
X160733202Y-96823202D01*
X160781054Y-96791228D01*
X160837500Y-96780000D01*
X161132500Y-96780000D01*
X161188946Y-96791228D01*
G37*
G04 #@! TD.AperFunction*
G04 #@! TA.AperFunction,SMDPad,CuDef*
G36*
X160218946Y-96791228D02*
G01*
X160266798Y-96823202D01*
X160298772Y-96871054D01*
X160310000Y-96927500D01*
X160310000Y-97272500D01*
X160298772Y-97328946D01*
X160266798Y-97376798D01*
X160218946Y-97408772D01*
X160162500Y-97420000D01*
X159867500Y-97420000D01*
X159811054Y-97408772D01*
X159763202Y-97376798D01*
X159731228Y-97328946D01*
X159720000Y-97272500D01*
X159720000Y-96927500D01*
X159731228Y-96871054D01*
X159763202Y-96823202D01*
X159811054Y-96791228D01*
X159867500Y-96780000D01*
X160162500Y-96780000D01*
X160218946Y-96791228D01*
G37*
G04 #@! TD.AperFunction*
G04 #@! TA.AperFunction,SMDPad,CuDef*
G36*
X161188946Y-102991228D02*
G01*
X161236798Y-103023202D01*
X161268772Y-103071054D01*
X161280000Y-103127500D01*
X161280000Y-103472500D01*
X161268772Y-103528946D01*
X161236798Y-103576798D01*
X161188946Y-103608772D01*
X161132500Y-103620000D01*
X160837500Y-103620000D01*
X160781054Y-103608772D01*
X160733202Y-103576798D01*
X160701228Y-103528946D01*
X160690000Y-103472500D01*
X160690000Y-103127500D01*
X160701228Y-103071054D01*
X160733202Y-103023202D01*
X160781054Y-102991228D01*
X160837500Y-102980000D01*
X161132500Y-102980000D01*
X161188946Y-102991228D01*
G37*
G04 #@! TD.AperFunction*
G04 #@! TA.AperFunction,SMDPad,CuDef*
G36*
X160218946Y-102991228D02*
G01*
X160266798Y-103023202D01*
X160298772Y-103071054D01*
X160310000Y-103127500D01*
X160310000Y-103472500D01*
X160298772Y-103528946D01*
X160266798Y-103576798D01*
X160218946Y-103608772D01*
X160162500Y-103620000D01*
X159867500Y-103620000D01*
X159811054Y-103608772D01*
X159763202Y-103576798D01*
X159731228Y-103528946D01*
X159720000Y-103472500D01*
X159720000Y-103127500D01*
X159731228Y-103071054D01*
X159763202Y-103023202D01*
X159811054Y-102991228D01*
X159867500Y-102980000D01*
X160162500Y-102980000D01*
X160218946Y-102991228D01*
G37*
G04 #@! TD.AperFunction*
G04 #@! TA.AperFunction,SMDPad,CuDef*
G36*
X151612946Y-103625228D02*
G01*
X151660798Y-103657202D01*
X151692772Y-103705054D01*
X151704000Y-103761500D01*
X151704000Y-104056500D01*
X151692772Y-104112946D01*
X151660798Y-104160798D01*
X151612946Y-104192772D01*
X151556500Y-104204000D01*
X151211500Y-104204000D01*
X151155054Y-104192772D01*
X151107202Y-104160798D01*
X151075228Y-104112946D01*
X151064000Y-104056500D01*
X151064000Y-103761500D01*
X151075228Y-103705054D01*
X151107202Y-103657202D01*
X151155054Y-103625228D01*
X151211500Y-103614000D01*
X151556500Y-103614000D01*
X151612946Y-103625228D01*
G37*
G04 #@! TD.AperFunction*
G04 #@! TA.AperFunction,SMDPad,CuDef*
G36*
X151612946Y-104595228D02*
G01*
X151660798Y-104627202D01*
X151692772Y-104675054D01*
X151704000Y-104731500D01*
X151704000Y-105026500D01*
X151692772Y-105082946D01*
X151660798Y-105130798D01*
X151612946Y-105162772D01*
X151556500Y-105174000D01*
X151211500Y-105174000D01*
X151155054Y-105162772D01*
X151107202Y-105130798D01*
X151075228Y-105082946D01*
X151064000Y-105026500D01*
X151064000Y-104731500D01*
X151075228Y-104675054D01*
X151107202Y-104627202D01*
X151155054Y-104595228D01*
X151211500Y-104584000D01*
X151556500Y-104584000D01*
X151612946Y-104595228D01*
G37*
G04 #@! TD.AperFunction*
G04 #@! TA.AperFunction,SMDPad,CuDef*
G36*
X125558946Y-118401228D02*
G01*
X125606798Y-118433202D01*
X125638772Y-118481054D01*
X125650000Y-118537500D01*
X125650000Y-118882500D01*
X125638772Y-118938946D01*
X125606798Y-118986798D01*
X125558946Y-119018772D01*
X125502500Y-119030000D01*
X125207500Y-119030000D01*
X125151054Y-119018772D01*
X125103202Y-118986798D01*
X125071228Y-118938946D01*
X125060000Y-118882500D01*
X125060000Y-118537500D01*
X125071228Y-118481054D01*
X125103202Y-118433202D01*
X125151054Y-118401228D01*
X125207500Y-118390000D01*
X125502500Y-118390000D01*
X125558946Y-118401228D01*
G37*
G04 #@! TD.AperFunction*
G04 #@! TA.AperFunction,SMDPad,CuDef*
G36*
X124588946Y-118401228D02*
G01*
X124636798Y-118433202D01*
X124668772Y-118481054D01*
X124680000Y-118537500D01*
X124680000Y-118882500D01*
X124668772Y-118938946D01*
X124636798Y-118986798D01*
X124588946Y-119018772D01*
X124532500Y-119030000D01*
X124237500Y-119030000D01*
X124181054Y-119018772D01*
X124133202Y-118986798D01*
X124101228Y-118938946D01*
X124090000Y-118882500D01*
X124090000Y-118537500D01*
X124101228Y-118481054D01*
X124133202Y-118433202D01*
X124181054Y-118401228D01*
X124237500Y-118390000D01*
X124532500Y-118390000D01*
X124588946Y-118401228D01*
G37*
G04 #@! TD.AperFunction*
G04 #@! TA.AperFunction,SMDPad,CuDef*
G36*
X154914946Y-101483728D02*
G01*
X154962798Y-101515702D01*
X154994772Y-101563554D01*
X155006000Y-101620000D01*
X155006000Y-101915000D01*
X154994772Y-101971446D01*
X154962798Y-102019298D01*
X154914946Y-102051272D01*
X154858500Y-102062500D01*
X154513500Y-102062500D01*
X154457054Y-102051272D01*
X154409202Y-102019298D01*
X154377228Y-101971446D01*
X154366000Y-101915000D01*
X154366000Y-101620000D01*
X154377228Y-101563554D01*
X154409202Y-101515702D01*
X154457054Y-101483728D01*
X154513500Y-101472500D01*
X154858500Y-101472500D01*
X154914946Y-101483728D01*
G37*
G04 #@! TD.AperFunction*
G04 #@! TA.AperFunction,SMDPad,CuDef*
G36*
X154914946Y-100513728D02*
G01*
X154962798Y-100545702D01*
X154994772Y-100593554D01*
X155006000Y-100650000D01*
X155006000Y-100945000D01*
X154994772Y-101001446D01*
X154962798Y-101049298D01*
X154914946Y-101081272D01*
X154858500Y-101092500D01*
X154513500Y-101092500D01*
X154457054Y-101081272D01*
X154409202Y-101049298D01*
X154377228Y-101001446D01*
X154366000Y-100945000D01*
X154366000Y-100650000D01*
X154377228Y-100593554D01*
X154409202Y-100545702D01*
X154457054Y-100513728D01*
X154513500Y-100502500D01*
X154858500Y-100502500D01*
X154914946Y-100513728D01*
G37*
G04 #@! TD.AperFunction*
G04 #@! TA.AperFunction,SMDPad,CuDef*
G36*
X149928946Y-102101228D02*
G01*
X149976798Y-102133202D01*
X150008772Y-102181054D01*
X150020000Y-102237500D01*
X150020000Y-102532500D01*
X150008772Y-102588946D01*
X149976798Y-102636798D01*
X149928946Y-102668772D01*
X149872500Y-102680000D01*
X149527500Y-102680000D01*
X149471054Y-102668772D01*
X149423202Y-102636798D01*
X149391228Y-102588946D01*
X149380000Y-102532500D01*
X149380000Y-102237500D01*
X149391228Y-102181054D01*
X149423202Y-102133202D01*
X149471054Y-102101228D01*
X149527500Y-102090000D01*
X149872500Y-102090000D01*
X149928946Y-102101228D01*
G37*
G04 #@! TD.AperFunction*
G04 #@! TA.AperFunction,SMDPad,CuDef*
G36*
X149928946Y-101131228D02*
G01*
X149976798Y-101163202D01*
X150008772Y-101211054D01*
X150020000Y-101267500D01*
X150020000Y-101562500D01*
X150008772Y-101618946D01*
X149976798Y-101666798D01*
X149928946Y-101698772D01*
X149872500Y-101710000D01*
X149527500Y-101710000D01*
X149471054Y-101698772D01*
X149423202Y-101666798D01*
X149391228Y-101618946D01*
X149380000Y-101562500D01*
X149380000Y-101267500D01*
X149391228Y-101211054D01*
X149423202Y-101163202D01*
X149471054Y-101131228D01*
X149527500Y-101120000D01*
X149872500Y-101120000D01*
X149928946Y-101131228D01*
G37*
G04 #@! TD.AperFunction*
G04 #@! TA.AperFunction,SMDPad,CuDef*
G36*
X125438946Y-97111228D02*
G01*
X125486798Y-97143202D01*
X125518772Y-97191054D01*
X125530000Y-97247500D01*
X125530000Y-97592500D01*
X125518772Y-97648946D01*
X125486798Y-97696798D01*
X125438946Y-97728772D01*
X125382500Y-97740000D01*
X125087500Y-97740000D01*
X125031054Y-97728772D01*
X124983202Y-97696798D01*
X124951228Y-97648946D01*
X124940000Y-97592500D01*
X124940000Y-97247500D01*
X124951228Y-97191054D01*
X124983202Y-97143202D01*
X125031054Y-97111228D01*
X125087500Y-97100000D01*
X125382500Y-97100000D01*
X125438946Y-97111228D01*
G37*
G04 #@! TD.AperFunction*
G04 #@! TA.AperFunction,SMDPad,CuDef*
G36*
X124468946Y-97111228D02*
G01*
X124516798Y-97143202D01*
X124548772Y-97191054D01*
X124560000Y-97247500D01*
X124560000Y-97592500D01*
X124548772Y-97648946D01*
X124516798Y-97696798D01*
X124468946Y-97728772D01*
X124412500Y-97740000D01*
X124117500Y-97740000D01*
X124061054Y-97728772D01*
X124013202Y-97696798D01*
X123981228Y-97648946D01*
X123970000Y-97592500D01*
X123970000Y-97247500D01*
X123981228Y-97191054D01*
X124013202Y-97143202D01*
X124061054Y-97111228D01*
X124117500Y-97100000D01*
X124412500Y-97100000D01*
X124468946Y-97111228D01*
G37*
G04 #@! TD.AperFunction*
G04 #@! TA.AperFunction,SMDPad,CuDef*
G36*
X136178946Y-122861228D02*
G01*
X136226798Y-122893202D01*
X136258772Y-122941054D01*
X136270000Y-122997500D01*
X136270000Y-123342500D01*
X136258772Y-123398946D01*
X136226798Y-123446798D01*
X136178946Y-123478772D01*
X136122500Y-123490000D01*
X135827500Y-123490000D01*
X135771054Y-123478772D01*
X135723202Y-123446798D01*
X135691228Y-123398946D01*
X135680000Y-123342500D01*
X135680000Y-122997500D01*
X135691228Y-122941054D01*
X135723202Y-122893202D01*
X135771054Y-122861228D01*
X135827500Y-122850000D01*
X136122500Y-122850000D01*
X136178946Y-122861228D01*
G37*
G04 #@! TD.AperFunction*
G04 #@! TA.AperFunction,SMDPad,CuDef*
G36*
X135208946Y-122861228D02*
G01*
X135256798Y-122893202D01*
X135288772Y-122941054D01*
X135300000Y-122997500D01*
X135300000Y-123342500D01*
X135288772Y-123398946D01*
X135256798Y-123446798D01*
X135208946Y-123478772D01*
X135152500Y-123490000D01*
X134857500Y-123490000D01*
X134801054Y-123478772D01*
X134753202Y-123446798D01*
X134721228Y-123398946D01*
X134710000Y-123342500D01*
X134710000Y-122997500D01*
X134721228Y-122941054D01*
X134753202Y-122893202D01*
X134801054Y-122861228D01*
X134857500Y-122850000D01*
X135152500Y-122850000D01*
X135208946Y-122861228D01*
G37*
G04 #@! TD.AperFunction*
G04 #@! TA.AperFunction,SMDPad,CuDef*
G36*
X125558946Y-116411228D02*
G01*
X125606798Y-116443202D01*
X125638772Y-116491054D01*
X125650000Y-116547500D01*
X125650000Y-116892500D01*
X125638772Y-116948946D01*
X125606798Y-116996798D01*
X125558946Y-117028772D01*
X125502500Y-117040000D01*
X125207500Y-117040000D01*
X125151054Y-117028772D01*
X125103202Y-116996798D01*
X125071228Y-116948946D01*
X125060000Y-116892500D01*
X125060000Y-116547500D01*
X125071228Y-116491054D01*
X125103202Y-116443202D01*
X125151054Y-116411228D01*
X125207500Y-116400000D01*
X125502500Y-116400000D01*
X125558946Y-116411228D01*
G37*
G04 #@! TD.AperFunction*
G04 #@! TA.AperFunction,SMDPad,CuDef*
G36*
X124588946Y-116411228D02*
G01*
X124636798Y-116443202D01*
X124668772Y-116491054D01*
X124680000Y-116547500D01*
X124680000Y-116892500D01*
X124668772Y-116948946D01*
X124636798Y-116996798D01*
X124588946Y-117028772D01*
X124532500Y-117040000D01*
X124237500Y-117040000D01*
X124181054Y-117028772D01*
X124133202Y-116996798D01*
X124101228Y-116948946D01*
X124090000Y-116892500D01*
X124090000Y-116547500D01*
X124101228Y-116491054D01*
X124133202Y-116443202D01*
X124181054Y-116411228D01*
X124237500Y-116400000D01*
X124532500Y-116400000D01*
X124588946Y-116411228D01*
G37*
G04 #@! TD.AperFunction*
G04 #@! TA.AperFunction,SMDPad,CuDef*
G36*
X128348946Y-99101228D02*
G01*
X128396798Y-99133202D01*
X128428772Y-99181054D01*
X128440000Y-99237500D01*
X128440000Y-99582500D01*
X128428772Y-99638946D01*
X128396798Y-99686798D01*
X128348946Y-99718772D01*
X128292500Y-99730000D01*
X127997500Y-99730000D01*
X127941054Y-99718772D01*
X127893202Y-99686798D01*
X127861228Y-99638946D01*
X127850000Y-99582500D01*
X127850000Y-99237500D01*
X127861228Y-99181054D01*
X127893202Y-99133202D01*
X127941054Y-99101228D01*
X127997500Y-99090000D01*
X128292500Y-99090000D01*
X128348946Y-99101228D01*
G37*
G04 #@! TD.AperFunction*
G04 #@! TA.AperFunction,SMDPad,CuDef*
G36*
X127378946Y-99101228D02*
G01*
X127426798Y-99133202D01*
X127458772Y-99181054D01*
X127470000Y-99237500D01*
X127470000Y-99582500D01*
X127458772Y-99638946D01*
X127426798Y-99686798D01*
X127378946Y-99718772D01*
X127322500Y-99730000D01*
X127027500Y-99730000D01*
X126971054Y-99718772D01*
X126923202Y-99686798D01*
X126891228Y-99638946D01*
X126880000Y-99582500D01*
X126880000Y-99237500D01*
X126891228Y-99181054D01*
X126923202Y-99133202D01*
X126971054Y-99101228D01*
X127027500Y-99090000D01*
X127322500Y-99090000D01*
X127378946Y-99101228D01*
G37*
G04 #@! TD.AperFunction*
G04 #@! TA.AperFunction,SMDPad,CuDef*
G36*
X114898946Y-125511228D02*
G01*
X114946798Y-125543202D01*
X114978772Y-125591054D01*
X114990000Y-125647500D01*
X114990000Y-125992500D01*
X114978772Y-126048946D01*
X114946798Y-126096798D01*
X114898946Y-126128772D01*
X114842500Y-126140000D01*
X114547500Y-126140000D01*
X114491054Y-126128772D01*
X114443202Y-126096798D01*
X114411228Y-126048946D01*
X114400000Y-125992500D01*
X114400000Y-125647500D01*
X114411228Y-125591054D01*
X114443202Y-125543202D01*
X114491054Y-125511228D01*
X114547500Y-125500000D01*
X114842500Y-125500000D01*
X114898946Y-125511228D01*
G37*
G04 #@! TD.AperFunction*
G04 #@! TA.AperFunction,SMDPad,CuDef*
G36*
X113928946Y-125511228D02*
G01*
X113976798Y-125543202D01*
X114008772Y-125591054D01*
X114020000Y-125647500D01*
X114020000Y-125992500D01*
X114008772Y-126048946D01*
X113976798Y-126096798D01*
X113928946Y-126128772D01*
X113872500Y-126140000D01*
X113577500Y-126140000D01*
X113521054Y-126128772D01*
X113473202Y-126096798D01*
X113441228Y-126048946D01*
X113430000Y-125992500D01*
X113430000Y-125647500D01*
X113441228Y-125591054D01*
X113473202Y-125543202D01*
X113521054Y-125511228D01*
X113577500Y-125500000D01*
X113872500Y-125500000D01*
X113928946Y-125511228D01*
G37*
G04 #@! TD.AperFunction*
G04 #@! TA.AperFunction,SMDPad,CuDef*
G36*
X136178946Y-120871228D02*
G01*
X136226798Y-120903202D01*
X136258772Y-120951054D01*
X136270000Y-121007500D01*
X136270000Y-121352500D01*
X136258772Y-121408946D01*
X136226798Y-121456798D01*
X136178946Y-121488772D01*
X136122500Y-121500000D01*
X135827500Y-121500000D01*
X135771054Y-121488772D01*
X135723202Y-121456798D01*
X135691228Y-121408946D01*
X135680000Y-121352500D01*
X135680000Y-121007500D01*
X135691228Y-120951054D01*
X135723202Y-120903202D01*
X135771054Y-120871228D01*
X135827500Y-120860000D01*
X136122500Y-120860000D01*
X136178946Y-120871228D01*
G37*
G04 #@! TD.AperFunction*
G04 #@! TA.AperFunction,SMDPad,CuDef*
G36*
X135208946Y-120871228D02*
G01*
X135256798Y-120903202D01*
X135288772Y-120951054D01*
X135300000Y-121007500D01*
X135300000Y-121352500D01*
X135288772Y-121408946D01*
X135256798Y-121456798D01*
X135208946Y-121488772D01*
X135152500Y-121500000D01*
X134857500Y-121500000D01*
X134801054Y-121488772D01*
X134753202Y-121456798D01*
X134721228Y-121408946D01*
X134710000Y-121352500D01*
X134710000Y-121007500D01*
X134721228Y-120951054D01*
X134753202Y-120903202D01*
X134801054Y-120871228D01*
X134857500Y-120860000D01*
X135152500Y-120860000D01*
X135208946Y-120871228D01*
G37*
G04 #@! TD.AperFunction*
G04 #@! TA.AperFunction,SMDPad,CuDef*
G36*
X125438946Y-99101228D02*
G01*
X125486798Y-99133202D01*
X125518772Y-99181054D01*
X125530000Y-99237500D01*
X125530000Y-99582500D01*
X125518772Y-99638946D01*
X125486798Y-99686798D01*
X125438946Y-99718772D01*
X125382500Y-99730000D01*
X125087500Y-99730000D01*
X125031054Y-99718772D01*
X124983202Y-99686798D01*
X124951228Y-99638946D01*
X124940000Y-99582500D01*
X124940000Y-99237500D01*
X124951228Y-99181054D01*
X124983202Y-99133202D01*
X125031054Y-99101228D01*
X125087500Y-99090000D01*
X125382500Y-99090000D01*
X125438946Y-99101228D01*
G37*
G04 #@! TD.AperFunction*
G04 #@! TA.AperFunction,SMDPad,CuDef*
G36*
X124468946Y-99101228D02*
G01*
X124516798Y-99133202D01*
X124548772Y-99181054D01*
X124560000Y-99237500D01*
X124560000Y-99582500D01*
X124548772Y-99638946D01*
X124516798Y-99686798D01*
X124468946Y-99718772D01*
X124412500Y-99730000D01*
X124117500Y-99730000D01*
X124061054Y-99718772D01*
X124013202Y-99686798D01*
X123981228Y-99638946D01*
X123970000Y-99582500D01*
X123970000Y-99237500D01*
X123981228Y-99181054D01*
X124013202Y-99133202D01*
X124061054Y-99101228D01*
X124117500Y-99090000D01*
X124412500Y-99090000D01*
X124468946Y-99101228D01*
G37*
G04 #@! TD.AperFunction*
G04 #@! TA.AperFunction,SMDPad,CuDef*
G36*
X128348946Y-97111228D02*
G01*
X128396798Y-97143202D01*
X128428772Y-97191054D01*
X128440000Y-97247500D01*
X128440000Y-97592500D01*
X128428772Y-97648946D01*
X128396798Y-97696798D01*
X128348946Y-97728772D01*
X128292500Y-97740000D01*
X127997500Y-97740000D01*
X127941054Y-97728772D01*
X127893202Y-97696798D01*
X127861228Y-97648946D01*
X127850000Y-97592500D01*
X127850000Y-97247500D01*
X127861228Y-97191054D01*
X127893202Y-97143202D01*
X127941054Y-97111228D01*
X127997500Y-97100000D01*
X128292500Y-97100000D01*
X128348946Y-97111228D01*
G37*
G04 #@! TD.AperFunction*
G04 #@! TA.AperFunction,SMDPad,CuDef*
G36*
X127378946Y-97111228D02*
G01*
X127426798Y-97143202D01*
X127458772Y-97191054D01*
X127470000Y-97247500D01*
X127470000Y-97592500D01*
X127458772Y-97648946D01*
X127426798Y-97696798D01*
X127378946Y-97728772D01*
X127322500Y-97740000D01*
X127027500Y-97740000D01*
X126971054Y-97728772D01*
X126923202Y-97696798D01*
X126891228Y-97648946D01*
X126880000Y-97592500D01*
X126880000Y-97247500D01*
X126891228Y-97191054D01*
X126923202Y-97143202D01*
X126971054Y-97111228D01*
X127027500Y-97100000D01*
X127322500Y-97100000D01*
X127378946Y-97111228D01*
G37*
G04 #@! TD.AperFunction*
G04 #@! TA.AperFunction,SMDPad,CuDef*
G36*
X153488946Y-99191228D02*
G01*
X153536798Y-99223202D01*
X153568772Y-99271054D01*
X153580000Y-99327500D01*
X153580000Y-99672500D01*
X153568772Y-99728946D01*
X153536798Y-99776798D01*
X153488946Y-99808772D01*
X153432500Y-99820000D01*
X153137500Y-99820000D01*
X153081054Y-99808772D01*
X153033202Y-99776798D01*
X153001228Y-99728946D01*
X152990000Y-99672500D01*
X152990000Y-99327500D01*
X153001228Y-99271054D01*
X153033202Y-99223202D01*
X153081054Y-99191228D01*
X153137500Y-99180000D01*
X153432500Y-99180000D01*
X153488946Y-99191228D01*
G37*
G04 #@! TD.AperFunction*
G04 #@! TA.AperFunction,SMDPad,CuDef*
G36*
X152518946Y-99191228D02*
G01*
X152566798Y-99223202D01*
X152598772Y-99271054D01*
X152610000Y-99327500D01*
X152610000Y-99672500D01*
X152598772Y-99728946D01*
X152566798Y-99776798D01*
X152518946Y-99808772D01*
X152462500Y-99820000D01*
X152167500Y-99820000D01*
X152111054Y-99808772D01*
X152063202Y-99776798D01*
X152031228Y-99728946D01*
X152020000Y-99672500D01*
X152020000Y-99327500D01*
X152031228Y-99271054D01*
X152063202Y-99223202D01*
X152111054Y-99191228D01*
X152167500Y-99180000D01*
X152462500Y-99180000D01*
X152518946Y-99191228D01*
G37*
G04 #@! TD.AperFunction*
G04 #@! TA.AperFunction,SMDPad,CuDef*
G36*
X109078946Y-124811228D02*
G01*
X109126798Y-124843202D01*
X109158772Y-124891054D01*
X109170000Y-124947500D01*
X109170000Y-125292500D01*
X109158772Y-125348946D01*
X109126798Y-125396798D01*
X109078946Y-125428772D01*
X109022500Y-125440000D01*
X108727500Y-125440000D01*
X108671054Y-125428772D01*
X108623202Y-125396798D01*
X108591228Y-125348946D01*
X108580000Y-125292500D01*
X108580000Y-124947500D01*
X108591228Y-124891054D01*
X108623202Y-124843202D01*
X108671054Y-124811228D01*
X108727500Y-124800000D01*
X109022500Y-124800000D01*
X109078946Y-124811228D01*
G37*
G04 #@! TD.AperFunction*
G04 #@! TA.AperFunction,SMDPad,CuDef*
G36*
X108108946Y-124811228D02*
G01*
X108156798Y-124843202D01*
X108188772Y-124891054D01*
X108200000Y-124947500D01*
X108200000Y-125292500D01*
X108188772Y-125348946D01*
X108156798Y-125396798D01*
X108108946Y-125428772D01*
X108052500Y-125440000D01*
X107757500Y-125440000D01*
X107701054Y-125428772D01*
X107653202Y-125396798D01*
X107621228Y-125348946D01*
X107610000Y-125292500D01*
X107610000Y-124947500D01*
X107621228Y-124891054D01*
X107653202Y-124843202D01*
X107701054Y-124811228D01*
X107757500Y-124800000D01*
X108052500Y-124800000D01*
X108108946Y-124811228D01*
G37*
G04 #@! TD.AperFunction*
G04 #@! TA.AperFunction,SMDPad,CuDef*
G36*
X126588946Y-101091228D02*
G01*
X126636798Y-101123202D01*
X126668772Y-101171054D01*
X126680000Y-101227500D01*
X126680000Y-101572500D01*
X126668772Y-101628946D01*
X126636798Y-101676798D01*
X126588946Y-101708772D01*
X126532500Y-101720000D01*
X126237500Y-101720000D01*
X126181054Y-101708772D01*
X126133202Y-101676798D01*
X126101228Y-101628946D01*
X126090000Y-101572500D01*
X126090000Y-101227500D01*
X126101228Y-101171054D01*
X126133202Y-101123202D01*
X126181054Y-101091228D01*
X126237500Y-101080000D01*
X126532500Y-101080000D01*
X126588946Y-101091228D01*
G37*
G04 #@! TD.AperFunction*
G04 #@! TA.AperFunction,SMDPad,CuDef*
G36*
X125618946Y-101091228D02*
G01*
X125666798Y-101123202D01*
X125698772Y-101171054D01*
X125710000Y-101227500D01*
X125710000Y-101572500D01*
X125698772Y-101628946D01*
X125666798Y-101676798D01*
X125618946Y-101708772D01*
X125562500Y-101720000D01*
X125267500Y-101720000D01*
X125211054Y-101708772D01*
X125163202Y-101676798D01*
X125131228Y-101628946D01*
X125120000Y-101572500D01*
X125120000Y-101227500D01*
X125131228Y-101171054D01*
X125163202Y-101123202D01*
X125211054Y-101091228D01*
X125267500Y-101080000D01*
X125562500Y-101080000D01*
X125618946Y-101091228D01*
G37*
G04 #@! TD.AperFunction*
D17*
X160950000Y-101400000D02*
X160900000Y-101400000D01*
X150000000Y-95900000D02*
X148775010Y-94675010D01*
M02*
