G04 #@! TF.GenerationSoftware,KiCad,Pcbnew,5.1.5-52549c5~84~ubuntu19.04.1*
G04 #@! TF.CreationDate,2020-02-16T02:06:15+01:00*
G04 #@! TF.ProjectId,ilulissat,696c756c-6973-4736-9174-2e6b69636164,rev?*
G04 #@! TF.SameCoordinates,Original*
G04 #@! TF.FileFunction,Soldermask,Bot*
G04 #@! TF.FilePolarity,Negative*
%FSLAX46Y46*%
G04 Gerber Fmt 4.6, Leading zero omitted, Abs format (unit mm)*
G04 Created by KiCad (PCBNEW 5.1.5-52549c5~84~ubuntu19.04.1) date 2020-02-16 02:06:15*
%MOMM*%
%LPD*%
G04 APERTURE LIST*
%ADD10C,0.100000*%
G04 APERTURE END LIST*
D10*
G36*
X146850318Y-109245153D02*
G01*
X147068885Y-109335687D01*
X147068887Y-109335688D01*
X147265593Y-109467122D01*
X147432878Y-109634407D01*
X147564312Y-109831113D01*
X147564313Y-109831115D01*
X147654847Y-110049682D01*
X147701000Y-110281710D01*
X147701000Y-110518290D01*
X147654847Y-110750318D01*
X147564313Y-110968885D01*
X147564312Y-110968887D01*
X147432878Y-111165593D01*
X147265593Y-111332878D01*
X147068887Y-111464312D01*
X147068886Y-111464313D01*
X147068885Y-111464313D01*
X146850318Y-111554847D01*
X146618290Y-111601000D01*
X146381710Y-111601000D01*
X146149682Y-111554847D01*
X145931115Y-111464313D01*
X145931114Y-111464313D01*
X145931113Y-111464312D01*
X145734407Y-111332878D01*
X145567122Y-111165593D01*
X145435688Y-110968887D01*
X145435687Y-110968885D01*
X145345153Y-110750318D01*
X145299000Y-110518290D01*
X145299000Y-110281710D01*
X145345153Y-110049682D01*
X145435687Y-109831115D01*
X145435688Y-109831113D01*
X145567122Y-109634407D01*
X145734407Y-109467122D01*
X145931113Y-109335688D01*
X145931115Y-109335687D01*
X146149682Y-109245153D01*
X146381710Y-109199000D01*
X146618290Y-109199000D01*
X146850318Y-109245153D01*
G37*
G36*
X149850318Y-109245153D02*
G01*
X150068885Y-109335687D01*
X150068887Y-109335688D01*
X150265593Y-109467122D01*
X150432878Y-109634407D01*
X150564312Y-109831113D01*
X150564313Y-109831115D01*
X150654847Y-110049682D01*
X150701000Y-110281710D01*
X150701000Y-110518290D01*
X150654847Y-110750318D01*
X150564313Y-110968885D01*
X150564312Y-110968887D01*
X150432878Y-111165593D01*
X150265593Y-111332878D01*
X150068887Y-111464312D01*
X150068886Y-111464313D01*
X150068885Y-111464313D01*
X149850318Y-111554847D01*
X149618290Y-111601000D01*
X149381710Y-111601000D01*
X149149682Y-111554847D01*
X148931115Y-111464313D01*
X148931114Y-111464313D01*
X148931113Y-111464312D01*
X148734407Y-111332878D01*
X148567122Y-111165593D01*
X148435688Y-110968887D01*
X148435687Y-110968885D01*
X148345153Y-110750318D01*
X148299000Y-110518290D01*
X148299000Y-110281710D01*
X148345153Y-110049682D01*
X148435687Y-109831115D01*
X148435688Y-109831113D01*
X148567122Y-109634407D01*
X148734407Y-109467122D01*
X148931113Y-109335688D01*
X148931115Y-109335687D01*
X149149682Y-109245153D01*
X149381710Y-109199000D01*
X149618290Y-109199000D01*
X149850318Y-109245153D01*
G37*
G36*
X150610909Y-91392981D02*
G01*
X152239887Y-92067726D01*
X152347765Y-92139808D01*
X153705930Y-93047304D01*
X154952696Y-94294070D01*
X155607228Y-95273648D01*
X155932274Y-95760113D01*
X156607019Y-97389091D01*
X156951000Y-99118402D01*
X156951000Y-100881598D01*
X156607019Y-102610909D01*
X155932274Y-104239887D01*
X155932273Y-104239888D01*
X154952696Y-105705930D01*
X153705930Y-106952696D01*
X152726352Y-107607228D01*
X152239887Y-107932274D01*
X150610909Y-108607019D01*
X148881598Y-108951000D01*
X147118402Y-108951000D01*
X145389091Y-108607019D01*
X143760113Y-107932274D01*
X143273648Y-107607228D01*
X142294070Y-106952696D01*
X141047304Y-105705930D01*
X140067727Y-104239888D01*
X140067726Y-104239887D01*
X139392981Y-102610909D01*
X139049000Y-100881598D01*
X139049000Y-99118402D01*
X139392981Y-97389091D01*
X140067726Y-95760113D01*
X140392772Y-95273648D01*
X141047304Y-94294070D01*
X142294070Y-93047304D01*
X143652235Y-92139808D01*
X143760113Y-92067726D01*
X145389091Y-91392981D01*
X147118402Y-91049000D01*
X148881598Y-91049000D01*
X150610909Y-91392981D01*
G37*
G36*
X155329232Y-89500000D02*
G01*
X155171386Y-89657846D01*
X155155846Y-89676782D01*
X155144295Y-89698393D01*
X155137182Y-89721842D01*
X155134780Y-89746228D01*
X155137182Y-89770614D01*
X155144295Y-89794063D01*
X155155846Y-89815674D01*
X155171391Y-89834616D01*
X155190333Y-89850161D01*
X155211944Y-89861712D01*
X155235393Y-89868825D01*
X155259779Y-89871227D01*
X155284165Y-89868825D01*
X155393756Y-89847026D01*
X155502296Y-89847026D01*
X155608747Y-89868200D01*
X155709021Y-89909735D01*
X155709022Y-89909736D01*
X155799268Y-89970036D01*
X155876016Y-90046784D01*
X155876017Y-90046786D01*
X155936317Y-90137031D01*
X155977852Y-90237305D01*
X155999026Y-90343756D01*
X155999026Y-90452296D01*
X155977852Y-90558747D01*
X155946627Y-90634131D01*
X155939514Y-90657580D01*
X155937112Y-90681966D01*
X155939514Y-90706353D01*
X155946627Y-90729801D01*
X155958178Y-90751412D01*
X155973724Y-90770354D01*
X155992666Y-90785899D01*
X156014276Y-90797450D01*
X156037725Y-90804563D01*
X156062111Y-90806965D01*
X156086498Y-90804563D01*
X156109946Y-90797450D01*
X156185330Y-90766225D01*
X156291781Y-90745051D01*
X156400321Y-90745051D01*
X156506772Y-90766225D01*
X156607046Y-90807760D01*
X156607047Y-90807761D01*
X156697293Y-90868061D01*
X156774041Y-90944809D01*
X156787048Y-90964276D01*
X156834342Y-91035056D01*
X156875877Y-91135330D01*
X156897051Y-91241781D01*
X156897051Y-91350321D01*
X156875877Y-91456772D01*
X156844651Y-91532158D01*
X156837538Y-91555607D01*
X156835136Y-91579993D01*
X156837538Y-91604379D01*
X156844651Y-91627828D01*
X156856202Y-91649439D01*
X156871748Y-91668381D01*
X156890689Y-91683926D01*
X156912300Y-91695477D01*
X156935749Y-91702590D01*
X156960135Y-91704992D01*
X156984521Y-91702590D01*
X157007970Y-91695477D01*
X157083356Y-91664251D01*
X157189807Y-91643077D01*
X157298347Y-91643077D01*
X157404798Y-91664251D01*
X157505072Y-91705786D01*
X157505073Y-91705787D01*
X157595319Y-91766087D01*
X157672067Y-91842835D01*
X157672068Y-91842837D01*
X157732368Y-91933082D01*
X157773903Y-92033356D01*
X157795077Y-92139807D01*
X157795077Y-92248347D01*
X157773903Y-92354798D01*
X157742678Y-92430182D01*
X157735565Y-92453631D01*
X157733163Y-92478017D01*
X157735565Y-92502404D01*
X157742678Y-92525852D01*
X157754229Y-92547463D01*
X157769775Y-92566405D01*
X157788717Y-92581950D01*
X157810327Y-92593501D01*
X157833776Y-92600614D01*
X157858162Y-92603016D01*
X157882549Y-92600614D01*
X157905997Y-92593501D01*
X157981381Y-92562276D01*
X158087832Y-92541102D01*
X158196372Y-92541102D01*
X158302823Y-92562276D01*
X158403097Y-92603811D01*
X158403098Y-92603812D01*
X158493344Y-92664112D01*
X158570092Y-92740860D01*
X158583099Y-92760327D01*
X158630393Y-92831107D01*
X158671928Y-92931381D01*
X158693102Y-93037832D01*
X158693102Y-93146372D01*
X158671928Y-93252823D01*
X158640702Y-93328209D01*
X158633589Y-93351658D01*
X158631187Y-93376044D01*
X158633589Y-93400430D01*
X158640702Y-93423879D01*
X158652253Y-93445490D01*
X158667799Y-93464432D01*
X158686740Y-93479977D01*
X158708351Y-93491528D01*
X158731800Y-93498641D01*
X158756186Y-93501043D01*
X158780572Y-93498641D01*
X158804021Y-93491528D01*
X158879407Y-93460302D01*
X158985858Y-93439128D01*
X159094398Y-93439128D01*
X159200849Y-93460302D01*
X159301123Y-93501837D01*
X159301124Y-93501838D01*
X159391370Y-93562138D01*
X159468118Y-93638886D01*
X159468119Y-93638888D01*
X159528419Y-93729133D01*
X159569954Y-93829407D01*
X159591128Y-93935858D01*
X159591128Y-94044398D01*
X159569954Y-94150849D01*
X159528419Y-94251123D01*
X159528418Y-94251124D01*
X159468118Y-94341370D01*
X159391370Y-94418118D01*
X159345940Y-94448473D01*
X159301123Y-94478419D01*
X159200849Y-94519954D01*
X159094398Y-94541128D01*
X158985858Y-94541128D01*
X158879407Y-94519954D01*
X158779133Y-94478419D01*
X158734316Y-94448473D01*
X158688886Y-94418118D01*
X158612138Y-94341370D01*
X158551838Y-94251124D01*
X158551837Y-94251123D01*
X158510302Y-94150849D01*
X158489128Y-94044398D01*
X158489128Y-93935858D01*
X158510302Y-93829407D01*
X158541528Y-93754021D01*
X158548641Y-93730572D01*
X158551043Y-93706186D01*
X158548641Y-93681800D01*
X158541528Y-93658351D01*
X158529977Y-93636740D01*
X158514431Y-93617798D01*
X158495490Y-93602253D01*
X158473879Y-93590702D01*
X158450430Y-93583589D01*
X158426044Y-93581187D01*
X158401658Y-93583589D01*
X158378209Y-93590702D01*
X158302823Y-93621928D01*
X158196372Y-93643102D01*
X158087832Y-93643102D01*
X157981381Y-93621928D01*
X157881107Y-93580393D01*
X157836290Y-93550447D01*
X157790860Y-93520092D01*
X157714112Y-93443344D01*
X157653812Y-93353098D01*
X157653811Y-93353097D01*
X157612276Y-93252823D01*
X157591102Y-93146372D01*
X157591102Y-93037832D01*
X157612276Y-92931381D01*
X157643501Y-92855997D01*
X157650614Y-92832548D01*
X157653016Y-92808162D01*
X157650614Y-92783775D01*
X157643501Y-92760327D01*
X157631950Y-92738716D01*
X157616404Y-92719774D01*
X157597462Y-92704229D01*
X157575852Y-92692678D01*
X157552403Y-92685565D01*
X157528017Y-92683163D01*
X157503630Y-92685565D01*
X157480182Y-92692678D01*
X157404798Y-92723903D01*
X157298347Y-92745077D01*
X157189807Y-92745077D01*
X157083356Y-92723903D01*
X156983082Y-92682368D01*
X156938265Y-92652422D01*
X156892835Y-92622067D01*
X156816087Y-92545319D01*
X156785732Y-92499889D01*
X156755786Y-92455072D01*
X156714251Y-92354798D01*
X156693077Y-92248347D01*
X156693077Y-92139807D01*
X156714251Y-92033356D01*
X156745477Y-91957970D01*
X156752590Y-91934521D01*
X156754992Y-91910135D01*
X156752590Y-91885749D01*
X156745477Y-91862300D01*
X156733926Y-91840689D01*
X156718380Y-91821747D01*
X156699439Y-91806202D01*
X156677828Y-91794651D01*
X156654379Y-91787538D01*
X156629993Y-91785136D01*
X156605607Y-91787538D01*
X156582158Y-91794651D01*
X156506772Y-91825877D01*
X156400321Y-91847051D01*
X156291781Y-91847051D01*
X156185330Y-91825877D01*
X156085056Y-91784342D01*
X156040239Y-91754396D01*
X155994809Y-91724041D01*
X155918061Y-91647293D01*
X155857761Y-91557047D01*
X155857760Y-91557046D01*
X155816225Y-91456772D01*
X155795051Y-91350321D01*
X155795051Y-91241781D01*
X155816225Y-91135330D01*
X155847450Y-91059946D01*
X155854563Y-91036497D01*
X155856965Y-91012111D01*
X155854563Y-90987724D01*
X155847450Y-90964276D01*
X155835899Y-90942665D01*
X155820353Y-90923723D01*
X155801411Y-90908178D01*
X155779801Y-90896627D01*
X155756352Y-90889514D01*
X155731966Y-90887112D01*
X155707579Y-90889514D01*
X155684131Y-90896627D01*
X155608747Y-90927852D01*
X155502296Y-90949026D01*
X155393756Y-90949026D01*
X155287305Y-90927852D01*
X155187031Y-90886317D01*
X155142214Y-90856371D01*
X155096784Y-90826016D01*
X155020036Y-90749268D01*
X154989681Y-90703838D01*
X154959735Y-90659021D01*
X154918200Y-90558747D01*
X154897026Y-90452296D01*
X154897026Y-90343756D01*
X154918825Y-90234165D01*
X154921227Y-90209779D01*
X154918825Y-90185393D01*
X154911712Y-90161944D01*
X154900161Y-90140333D01*
X154884616Y-90121391D01*
X154865674Y-90105846D01*
X154844063Y-90094295D01*
X154820614Y-90087182D01*
X154796228Y-90084780D01*
X154771842Y-90087182D01*
X154748393Y-90094295D01*
X154726782Y-90105846D01*
X154707846Y-90121386D01*
X154550000Y-90279232D01*
X153770768Y-89500000D01*
X154550000Y-88720768D01*
X155329232Y-89500000D01*
G37*
G36*
X146850318Y-88445153D02*
G01*
X147068885Y-88535687D01*
X147068887Y-88535688D01*
X147265593Y-88667122D01*
X147432878Y-88834407D01*
X147564312Y-89031113D01*
X147564313Y-89031115D01*
X147654847Y-89249682D01*
X147701000Y-89481710D01*
X147701000Y-89718290D01*
X147654847Y-89950318D01*
X147567188Y-90161944D01*
X147564312Y-90168887D01*
X147432878Y-90365593D01*
X147265593Y-90532878D01*
X147068887Y-90664312D01*
X147068886Y-90664313D01*
X147068885Y-90664313D01*
X146850318Y-90754847D01*
X146618290Y-90801000D01*
X146381710Y-90801000D01*
X146149682Y-90754847D01*
X145931115Y-90664313D01*
X145931114Y-90664313D01*
X145931113Y-90664312D01*
X145734407Y-90532878D01*
X145567122Y-90365593D01*
X145435688Y-90168887D01*
X145432812Y-90161944D01*
X145345153Y-89950318D01*
X145299000Y-89718290D01*
X145299000Y-89481710D01*
X145345153Y-89249682D01*
X145435687Y-89031115D01*
X145435688Y-89031113D01*
X145567122Y-88834407D01*
X145734407Y-88667122D01*
X145931113Y-88535688D01*
X145931115Y-88535687D01*
X146149682Y-88445153D01*
X146381710Y-88399000D01*
X146618290Y-88399000D01*
X146850318Y-88445153D01*
G37*
G36*
X149850318Y-88445153D02*
G01*
X150068885Y-88535687D01*
X150068887Y-88535688D01*
X150265593Y-88667122D01*
X150432878Y-88834407D01*
X150564312Y-89031113D01*
X150564313Y-89031115D01*
X150654847Y-89249682D01*
X150701000Y-89481710D01*
X150701000Y-89718290D01*
X150654847Y-89950318D01*
X150567188Y-90161944D01*
X150564312Y-90168887D01*
X150432878Y-90365593D01*
X150265593Y-90532878D01*
X150068887Y-90664312D01*
X150068886Y-90664313D01*
X150068885Y-90664313D01*
X149850318Y-90754847D01*
X149618290Y-90801000D01*
X149381710Y-90801000D01*
X149149682Y-90754847D01*
X148931115Y-90664313D01*
X148931114Y-90664313D01*
X148931113Y-90664312D01*
X148734407Y-90532878D01*
X148567122Y-90365593D01*
X148435688Y-90168887D01*
X148432812Y-90161944D01*
X148345153Y-89950318D01*
X148299000Y-89718290D01*
X148299000Y-89481710D01*
X148345153Y-89249682D01*
X148435687Y-89031115D01*
X148435688Y-89031113D01*
X148567122Y-88834407D01*
X148734407Y-88667122D01*
X148931113Y-88535688D01*
X148931115Y-88535687D01*
X149149682Y-88445153D01*
X149381710Y-88399000D01*
X149618290Y-88399000D01*
X149850318Y-88445153D01*
G37*
M02*
