G04 #@! TF.GenerationSoftware,KiCad,Pcbnew,5.1.5-52549c5~84~ubuntu19.04.1*
G04 #@! TF.CreationDate,2020-02-16T02:06:15+01:00*
G04 #@! TF.ProjectId,ilulissat,696c756c-6973-4736-9174-2e6b69636164,rev?*
G04 #@! TF.SameCoordinates,Original*
G04 #@! TF.FileFunction,Paste,Top*
G04 #@! TF.FilePolarity,Positive*
%FSLAX46Y46*%
G04 Gerber Fmt 4.6, Leading zero omitted, Abs format (unit mm)*
G04 Created by KiCad (PCBNEW 5.1.5-52549c5~84~ubuntu19.04.1) date 2020-02-16 02:06:15*
%MOMM*%
%LPD*%
G04 APERTURE LIST*
%ADD10C,0.100000*%
%ADD11R,0.900000X1.700000*%
%ADD12R,1.200000X1.400000*%
%ADD13R,1.100000X0.600000*%
%ADD14R,0.600000X1.500000*%
%ADD15R,0.400000X0.600000*%
%ADD16R,2.400000X1.500000*%
G04 APERTURE END LIST*
D10*
G36*
X147671958Y-107455710D02*
G01*
X147686276Y-107457834D01*
X147700317Y-107461351D01*
X147713946Y-107466228D01*
X147727031Y-107472417D01*
X147739447Y-107479858D01*
X147751073Y-107488481D01*
X147761798Y-107498202D01*
X147771519Y-107508927D01*
X147780142Y-107520553D01*
X147787583Y-107532969D01*
X147793772Y-107546054D01*
X147798649Y-107559683D01*
X147802166Y-107573724D01*
X147804290Y-107588042D01*
X147805000Y-107602500D01*
X147805000Y-107947500D01*
X147804290Y-107961958D01*
X147802166Y-107976276D01*
X147798649Y-107990317D01*
X147793772Y-108003946D01*
X147787583Y-108017031D01*
X147780142Y-108029447D01*
X147771519Y-108041073D01*
X147761798Y-108051798D01*
X147751073Y-108061519D01*
X147739447Y-108070142D01*
X147727031Y-108077583D01*
X147713946Y-108083772D01*
X147700317Y-108088649D01*
X147686276Y-108092166D01*
X147671958Y-108094290D01*
X147657500Y-108095000D01*
X147362500Y-108095000D01*
X147348042Y-108094290D01*
X147333724Y-108092166D01*
X147319683Y-108088649D01*
X147306054Y-108083772D01*
X147292969Y-108077583D01*
X147280553Y-108070142D01*
X147268927Y-108061519D01*
X147258202Y-108051798D01*
X147248481Y-108041073D01*
X147239858Y-108029447D01*
X147232417Y-108017031D01*
X147226228Y-108003946D01*
X147221351Y-107990317D01*
X147217834Y-107976276D01*
X147215710Y-107961958D01*
X147215000Y-107947500D01*
X147215000Y-107602500D01*
X147215710Y-107588042D01*
X147217834Y-107573724D01*
X147221351Y-107559683D01*
X147226228Y-107546054D01*
X147232417Y-107532969D01*
X147239858Y-107520553D01*
X147248481Y-107508927D01*
X147258202Y-107498202D01*
X147268927Y-107488481D01*
X147280553Y-107479858D01*
X147292969Y-107472417D01*
X147306054Y-107466228D01*
X147319683Y-107461351D01*
X147333724Y-107457834D01*
X147348042Y-107455710D01*
X147362500Y-107455000D01*
X147657500Y-107455000D01*
X147671958Y-107455710D01*
G37*
G36*
X146701958Y-107455710D02*
G01*
X146716276Y-107457834D01*
X146730317Y-107461351D01*
X146743946Y-107466228D01*
X146757031Y-107472417D01*
X146769447Y-107479858D01*
X146781073Y-107488481D01*
X146791798Y-107498202D01*
X146801519Y-107508927D01*
X146810142Y-107520553D01*
X146817583Y-107532969D01*
X146823772Y-107546054D01*
X146828649Y-107559683D01*
X146832166Y-107573724D01*
X146834290Y-107588042D01*
X146835000Y-107602500D01*
X146835000Y-107947500D01*
X146834290Y-107961958D01*
X146832166Y-107976276D01*
X146828649Y-107990317D01*
X146823772Y-108003946D01*
X146817583Y-108017031D01*
X146810142Y-108029447D01*
X146801519Y-108041073D01*
X146791798Y-108051798D01*
X146781073Y-108061519D01*
X146769447Y-108070142D01*
X146757031Y-108077583D01*
X146743946Y-108083772D01*
X146730317Y-108088649D01*
X146716276Y-108092166D01*
X146701958Y-108094290D01*
X146687500Y-108095000D01*
X146392500Y-108095000D01*
X146378042Y-108094290D01*
X146363724Y-108092166D01*
X146349683Y-108088649D01*
X146336054Y-108083772D01*
X146322969Y-108077583D01*
X146310553Y-108070142D01*
X146298927Y-108061519D01*
X146288202Y-108051798D01*
X146278481Y-108041073D01*
X146269858Y-108029447D01*
X146262417Y-108017031D01*
X146256228Y-108003946D01*
X146251351Y-107990317D01*
X146247834Y-107976276D01*
X146245710Y-107961958D01*
X146245000Y-107947500D01*
X146245000Y-107602500D01*
X146245710Y-107588042D01*
X146247834Y-107573724D01*
X146251351Y-107559683D01*
X146256228Y-107546054D01*
X146262417Y-107532969D01*
X146269858Y-107520553D01*
X146278481Y-107508927D01*
X146288202Y-107498202D01*
X146298927Y-107488481D01*
X146310553Y-107479858D01*
X146322969Y-107472417D01*
X146336054Y-107466228D01*
X146349683Y-107461351D01*
X146363724Y-107457834D01*
X146378042Y-107455710D01*
X146392500Y-107455000D01*
X146687500Y-107455000D01*
X146701958Y-107455710D01*
G37*
G36*
X148626958Y-107455710D02*
G01*
X148641276Y-107457834D01*
X148655317Y-107461351D01*
X148668946Y-107466228D01*
X148682031Y-107472417D01*
X148694447Y-107479858D01*
X148706073Y-107488481D01*
X148716798Y-107498202D01*
X148726519Y-107508927D01*
X148735142Y-107520553D01*
X148742583Y-107532969D01*
X148748772Y-107546054D01*
X148753649Y-107559683D01*
X148757166Y-107573724D01*
X148759290Y-107588042D01*
X148760000Y-107602500D01*
X148760000Y-107947500D01*
X148759290Y-107961958D01*
X148757166Y-107976276D01*
X148753649Y-107990317D01*
X148748772Y-108003946D01*
X148742583Y-108017031D01*
X148735142Y-108029447D01*
X148726519Y-108041073D01*
X148716798Y-108051798D01*
X148706073Y-108061519D01*
X148694447Y-108070142D01*
X148682031Y-108077583D01*
X148668946Y-108083772D01*
X148655317Y-108088649D01*
X148641276Y-108092166D01*
X148626958Y-108094290D01*
X148612500Y-108095000D01*
X148317500Y-108095000D01*
X148303042Y-108094290D01*
X148288724Y-108092166D01*
X148274683Y-108088649D01*
X148261054Y-108083772D01*
X148247969Y-108077583D01*
X148235553Y-108070142D01*
X148223927Y-108061519D01*
X148213202Y-108051798D01*
X148203481Y-108041073D01*
X148194858Y-108029447D01*
X148187417Y-108017031D01*
X148181228Y-108003946D01*
X148176351Y-107990317D01*
X148172834Y-107976276D01*
X148170710Y-107961958D01*
X148170000Y-107947500D01*
X148170000Y-107602500D01*
X148170710Y-107588042D01*
X148172834Y-107573724D01*
X148176351Y-107559683D01*
X148181228Y-107546054D01*
X148187417Y-107532969D01*
X148194858Y-107520553D01*
X148203481Y-107508927D01*
X148213202Y-107498202D01*
X148223927Y-107488481D01*
X148235553Y-107479858D01*
X148247969Y-107472417D01*
X148261054Y-107466228D01*
X148274683Y-107461351D01*
X148288724Y-107457834D01*
X148303042Y-107455710D01*
X148317500Y-107455000D01*
X148612500Y-107455000D01*
X148626958Y-107455710D01*
G37*
G36*
X149596958Y-107455710D02*
G01*
X149611276Y-107457834D01*
X149625317Y-107461351D01*
X149638946Y-107466228D01*
X149652031Y-107472417D01*
X149664447Y-107479858D01*
X149676073Y-107488481D01*
X149686798Y-107498202D01*
X149696519Y-107508927D01*
X149705142Y-107520553D01*
X149712583Y-107532969D01*
X149718772Y-107546054D01*
X149723649Y-107559683D01*
X149727166Y-107573724D01*
X149729290Y-107588042D01*
X149730000Y-107602500D01*
X149730000Y-107947500D01*
X149729290Y-107961958D01*
X149727166Y-107976276D01*
X149723649Y-107990317D01*
X149718772Y-108003946D01*
X149712583Y-108017031D01*
X149705142Y-108029447D01*
X149696519Y-108041073D01*
X149686798Y-108051798D01*
X149676073Y-108061519D01*
X149664447Y-108070142D01*
X149652031Y-108077583D01*
X149638946Y-108083772D01*
X149625317Y-108088649D01*
X149611276Y-108092166D01*
X149596958Y-108094290D01*
X149582500Y-108095000D01*
X149287500Y-108095000D01*
X149273042Y-108094290D01*
X149258724Y-108092166D01*
X149244683Y-108088649D01*
X149231054Y-108083772D01*
X149217969Y-108077583D01*
X149205553Y-108070142D01*
X149193927Y-108061519D01*
X149183202Y-108051798D01*
X149173481Y-108041073D01*
X149164858Y-108029447D01*
X149157417Y-108017031D01*
X149151228Y-108003946D01*
X149146351Y-107990317D01*
X149142834Y-107976276D01*
X149140710Y-107961958D01*
X149140000Y-107947500D01*
X149140000Y-107602500D01*
X149140710Y-107588042D01*
X149142834Y-107573724D01*
X149146351Y-107559683D01*
X149151228Y-107546054D01*
X149157417Y-107532969D01*
X149164858Y-107520553D01*
X149173481Y-107508927D01*
X149183202Y-107498202D01*
X149193927Y-107488481D01*
X149205553Y-107479858D01*
X149217969Y-107472417D01*
X149231054Y-107466228D01*
X149244683Y-107461351D01*
X149258724Y-107457834D01*
X149273042Y-107455710D01*
X149287500Y-107455000D01*
X149582500Y-107455000D01*
X149596958Y-107455710D01*
G37*
D11*
X155400000Y-109200000D03*
X152000000Y-109200000D03*
D10*
G36*
X153786958Y-93690710D02*
G01*
X153801276Y-93692834D01*
X153815317Y-93696351D01*
X153828946Y-93701228D01*
X153842031Y-93707417D01*
X153854447Y-93714858D01*
X153866073Y-93723481D01*
X153876798Y-93733202D01*
X153886519Y-93743927D01*
X153895142Y-93755553D01*
X153902583Y-93767969D01*
X153908772Y-93781054D01*
X153913649Y-93794683D01*
X153917166Y-93808724D01*
X153919290Y-93823042D01*
X153920000Y-93837500D01*
X153920000Y-94132500D01*
X153919290Y-94146958D01*
X153917166Y-94161276D01*
X153913649Y-94175317D01*
X153908772Y-94188946D01*
X153902583Y-94202031D01*
X153895142Y-94214447D01*
X153886519Y-94226073D01*
X153876798Y-94236798D01*
X153866073Y-94246519D01*
X153854447Y-94255142D01*
X153842031Y-94262583D01*
X153828946Y-94268772D01*
X153815317Y-94273649D01*
X153801276Y-94277166D01*
X153786958Y-94279290D01*
X153772500Y-94280000D01*
X153427500Y-94280000D01*
X153413042Y-94279290D01*
X153398724Y-94277166D01*
X153384683Y-94273649D01*
X153371054Y-94268772D01*
X153357969Y-94262583D01*
X153345553Y-94255142D01*
X153333927Y-94246519D01*
X153323202Y-94236798D01*
X153313481Y-94226073D01*
X153304858Y-94214447D01*
X153297417Y-94202031D01*
X153291228Y-94188946D01*
X153286351Y-94175317D01*
X153282834Y-94161276D01*
X153280710Y-94146958D01*
X153280000Y-94132500D01*
X153280000Y-93837500D01*
X153280710Y-93823042D01*
X153282834Y-93808724D01*
X153286351Y-93794683D01*
X153291228Y-93781054D01*
X153297417Y-93767969D01*
X153304858Y-93755553D01*
X153313481Y-93743927D01*
X153323202Y-93733202D01*
X153333927Y-93723481D01*
X153345553Y-93714858D01*
X153357969Y-93707417D01*
X153371054Y-93701228D01*
X153384683Y-93696351D01*
X153398724Y-93692834D01*
X153413042Y-93690710D01*
X153427500Y-93690000D01*
X153772500Y-93690000D01*
X153786958Y-93690710D01*
G37*
G36*
X153786958Y-92720710D02*
G01*
X153801276Y-92722834D01*
X153815317Y-92726351D01*
X153828946Y-92731228D01*
X153842031Y-92737417D01*
X153854447Y-92744858D01*
X153866073Y-92753481D01*
X153876798Y-92763202D01*
X153886519Y-92773927D01*
X153895142Y-92785553D01*
X153902583Y-92797969D01*
X153908772Y-92811054D01*
X153913649Y-92824683D01*
X153917166Y-92838724D01*
X153919290Y-92853042D01*
X153920000Y-92867500D01*
X153920000Y-93162500D01*
X153919290Y-93176958D01*
X153917166Y-93191276D01*
X153913649Y-93205317D01*
X153908772Y-93218946D01*
X153902583Y-93232031D01*
X153895142Y-93244447D01*
X153886519Y-93256073D01*
X153876798Y-93266798D01*
X153866073Y-93276519D01*
X153854447Y-93285142D01*
X153842031Y-93292583D01*
X153828946Y-93298772D01*
X153815317Y-93303649D01*
X153801276Y-93307166D01*
X153786958Y-93309290D01*
X153772500Y-93310000D01*
X153427500Y-93310000D01*
X153413042Y-93309290D01*
X153398724Y-93307166D01*
X153384683Y-93303649D01*
X153371054Y-93298772D01*
X153357969Y-93292583D01*
X153345553Y-93285142D01*
X153333927Y-93276519D01*
X153323202Y-93266798D01*
X153313481Y-93256073D01*
X153304858Y-93244447D01*
X153297417Y-93232031D01*
X153291228Y-93218946D01*
X153286351Y-93205317D01*
X153282834Y-93191276D01*
X153280710Y-93176958D01*
X153280000Y-93162500D01*
X153280000Y-92867500D01*
X153280710Y-92853042D01*
X153282834Y-92838724D01*
X153286351Y-92824683D01*
X153291228Y-92811054D01*
X153297417Y-92797969D01*
X153304858Y-92785553D01*
X153313481Y-92773927D01*
X153323202Y-92763202D01*
X153333927Y-92753481D01*
X153345553Y-92744858D01*
X153357969Y-92737417D01*
X153371054Y-92731228D01*
X153384683Y-92726351D01*
X153398724Y-92722834D01*
X153413042Y-92720710D01*
X153427500Y-92720000D01*
X153772500Y-92720000D01*
X153786958Y-92720710D01*
G37*
D12*
X148650000Y-103000000D03*
X148650000Y-105200000D03*
X146950000Y-105200000D03*
X146950000Y-103000000D03*
D13*
X143700000Y-99300000D03*
X143700000Y-97900000D03*
D10*
G36*
X159746958Y-96980710D02*
G01*
X159761276Y-96982834D01*
X159775317Y-96986351D01*
X159788946Y-96991228D01*
X159802031Y-96997417D01*
X159814447Y-97004858D01*
X159826073Y-97013481D01*
X159836798Y-97023202D01*
X159846519Y-97033927D01*
X159855142Y-97045553D01*
X159862583Y-97057969D01*
X159868772Y-97071054D01*
X159873649Y-97084683D01*
X159877166Y-97098724D01*
X159879290Y-97113042D01*
X159880000Y-97127500D01*
X159880000Y-97472500D01*
X159879290Y-97486958D01*
X159877166Y-97501276D01*
X159873649Y-97515317D01*
X159868772Y-97528946D01*
X159862583Y-97542031D01*
X159855142Y-97554447D01*
X159846519Y-97566073D01*
X159836798Y-97576798D01*
X159826073Y-97586519D01*
X159814447Y-97595142D01*
X159802031Y-97602583D01*
X159788946Y-97608772D01*
X159775317Y-97613649D01*
X159761276Y-97617166D01*
X159746958Y-97619290D01*
X159732500Y-97620000D01*
X159437500Y-97620000D01*
X159423042Y-97619290D01*
X159408724Y-97617166D01*
X159394683Y-97613649D01*
X159381054Y-97608772D01*
X159367969Y-97602583D01*
X159355553Y-97595142D01*
X159343927Y-97586519D01*
X159333202Y-97576798D01*
X159323481Y-97566073D01*
X159314858Y-97554447D01*
X159307417Y-97542031D01*
X159301228Y-97528946D01*
X159296351Y-97515317D01*
X159292834Y-97501276D01*
X159290710Y-97486958D01*
X159290000Y-97472500D01*
X159290000Y-97127500D01*
X159290710Y-97113042D01*
X159292834Y-97098724D01*
X159296351Y-97084683D01*
X159301228Y-97071054D01*
X159307417Y-97057969D01*
X159314858Y-97045553D01*
X159323481Y-97033927D01*
X159333202Y-97023202D01*
X159343927Y-97013481D01*
X159355553Y-97004858D01*
X159367969Y-96997417D01*
X159381054Y-96991228D01*
X159394683Y-96986351D01*
X159408724Y-96982834D01*
X159423042Y-96980710D01*
X159437500Y-96980000D01*
X159732500Y-96980000D01*
X159746958Y-96980710D01*
G37*
G36*
X158776958Y-96980710D02*
G01*
X158791276Y-96982834D01*
X158805317Y-96986351D01*
X158818946Y-96991228D01*
X158832031Y-96997417D01*
X158844447Y-97004858D01*
X158856073Y-97013481D01*
X158866798Y-97023202D01*
X158876519Y-97033927D01*
X158885142Y-97045553D01*
X158892583Y-97057969D01*
X158898772Y-97071054D01*
X158903649Y-97084683D01*
X158907166Y-97098724D01*
X158909290Y-97113042D01*
X158910000Y-97127500D01*
X158910000Y-97472500D01*
X158909290Y-97486958D01*
X158907166Y-97501276D01*
X158903649Y-97515317D01*
X158898772Y-97528946D01*
X158892583Y-97542031D01*
X158885142Y-97554447D01*
X158876519Y-97566073D01*
X158866798Y-97576798D01*
X158856073Y-97586519D01*
X158844447Y-97595142D01*
X158832031Y-97602583D01*
X158818946Y-97608772D01*
X158805317Y-97613649D01*
X158791276Y-97617166D01*
X158776958Y-97619290D01*
X158762500Y-97620000D01*
X158467500Y-97620000D01*
X158453042Y-97619290D01*
X158438724Y-97617166D01*
X158424683Y-97613649D01*
X158411054Y-97608772D01*
X158397969Y-97602583D01*
X158385553Y-97595142D01*
X158373927Y-97586519D01*
X158363202Y-97576798D01*
X158353481Y-97566073D01*
X158344858Y-97554447D01*
X158337417Y-97542031D01*
X158331228Y-97528946D01*
X158326351Y-97515317D01*
X158322834Y-97501276D01*
X158320710Y-97486958D01*
X158320000Y-97472500D01*
X158320000Y-97127500D01*
X158320710Y-97113042D01*
X158322834Y-97098724D01*
X158326351Y-97084683D01*
X158331228Y-97071054D01*
X158337417Y-97057969D01*
X158344858Y-97045553D01*
X158353481Y-97033927D01*
X158363202Y-97023202D01*
X158373927Y-97013481D01*
X158385553Y-97004858D01*
X158397969Y-96997417D01*
X158411054Y-96991228D01*
X158424683Y-96986351D01*
X158438724Y-96982834D01*
X158453042Y-96980710D01*
X158467500Y-96980000D01*
X158762500Y-96980000D01*
X158776958Y-96980710D01*
G37*
D14*
X159600000Y-103250000D03*
X161200000Y-103250000D03*
X161200000Y-99750000D03*
X159600000Y-99750000D03*
D10*
G36*
X153726958Y-96980710D02*
G01*
X153741276Y-96982834D01*
X153755317Y-96986351D01*
X153768946Y-96991228D01*
X153782031Y-96997417D01*
X153794447Y-97004858D01*
X153806073Y-97013481D01*
X153816798Y-97023202D01*
X153826519Y-97033927D01*
X153835142Y-97045553D01*
X153842583Y-97057969D01*
X153848772Y-97071054D01*
X153853649Y-97084683D01*
X153857166Y-97098724D01*
X153859290Y-97113042D01*
X153860000Y-97127500D01*
X153860000Y-97472500D01*
X153859290Y-97486958D01*
X153857166Y-97501276D01*
X153853649Y-97515317D01*
X153848772Y-97528946D01*
X153842583Y-97542031D01*
X153835142Y-97554447D01*
X153826519Y-97566073D01*
X153816798Y-97576798D01*
X153806073Y-97586519D01*
X153794447Y-97595142D01*
X153782031Y-97602583D01*
X153768946Y-97608772D01*
X153755317Y-97613649D01*
X153741276Y-97617166D01*
X153726958Y-97619290D01*
X153712500Y-97620000D01*
X153417500Y-97620000D01*
X153403042Y-97619290D01*
X153388724Y-97617166D01*
X153374683Y-97613649D01*
X153361054Y-97608772D01*
X153347969Y-97602583D01*
X153335553Y-97595142D01*
X153323927Y-97586519D01*
X153313202Y-97576798D01*
X153303481Y-97566073D01*
X153294858Y-97554447D01*
X153287417Y-97542031D01*
X153281228Y-97528946D01*
X153276351Y-97515317D01*
X153272834Y-97501276D01*
X153270710Y-97486958D01*
X153270000Y-97472500D01*
X153270000Y-97127500D01*
X153270710Y-97113042D01*
X153272834Y-97098724D01*
X153276351Y-97084683D01*
X153281228Y-97071054D01*
X153287417Y-97057969D01*
X153294858Y-97045553D01*
X153303481Y-97033927D01*
X153313202Y-97023202D01*
X153323927Y-97013481D01*
X153335553Y-97004858D01*
X153347969Y-96997417D01*
X153361054Y-96991228D01*
X153374683Y-96986351D01*
X153388724Y-96982834D01*
X153403042Y-96980710D01*
X153417500Y-96980000D01*
X153712500Y-96980000D01*
X153726958Y-96980710D01*
G37*
G36*
X152756958Y-96980710D02*
G01*
X152771276Y-96982834D01*
X152785317Y-96986351D01*
X152798946Y-96991228D01*
X152812031Y-96997417D01*
X152824447Y-97004858D01*
X152836073Y-97013481D01*
X152846798Y-97023202D01*
X152856519Y-97033927D01*
X152865142Y-97045553D01*
X152872583Y-97057969D01*
X152878772Y-97071054D01*
X152883649Y-97084683D01*
X152887166Y-97098724D01*
X152889290Y-97113042D01*
X152890000Y-97127500D01*
X152890000Y-97472500D01*
X152889290Y-97486958D01*
X152887166Y-97501276D01*
X152883649Y-97515317D01*
X152878772Y-97528946D01*
X152872583Y-97542031D01*
X152865142Y-97554447D01*
X152856519Y-97566073D01*
X152846798Y-97576798D01*
X152836073Y-97586519D01*
X152824447Y-97595142D01*
X152812031Y-97602583D01*
X152798946Y-97608772D01*
X152785317Y-97613649D01*
X152771276Y-97617166D01*
X152756958Y-97619290D01*
X152742500Y-97620000D01*
X152447500Y-97620000D01*
X152433042Y-97619290D01*
X152418724Y-97617166D01*
X152404683Y-97613649D01*
X152391054Y-97608772D01*
X152377969Y-97602583D01*
X152365553Y-97595142D01*
X152353927Y-97586519D01*
X152343202Y-97576798D01*
X152333481Y-97566073D01*
X152324858Y-97554447D01*
X152317417Y-97542031D01*
X152311228Y-97528946D01*
X152306351Y-97515317D01*
X152302834Y-97501276D01*
X152300710Y-97486958D01*
X152300000Y-97472500D01*
X152300000Y-97127500D01*
X152300710Y-97113042D01*
X152302834Y-97098724D01*
X152306351Y-97084683D01*
X152311228Y-97071054D01*
X152317417Y-97057969D01*
X152324858Y-97045553D01*
X152333481Y-97033927D01*
X152343202Y-97023202D01*
X152353927Y-97013481D01*
X152365553Y-97004858D01*
X152377969Y-96997417D01*
X152391054Y-96991228D01*
X152404683Y-96986351D01*
X152418724Y-96982834D01*
X152433042Y-96980710D01*
X152447500Y-96980000D01*
X152742500Y-96980000D01*
X152756958Y-96980710D01*
G37*
G36*
X152586958Y-100148210D02*
G01*
X152601276Y-100150334D01*
X152615317Y-100153851D01*
X152628946Y-100158728D01*
X152642031Y-100164917D01*
X152654447Y-100172358D01*
X152666073Y-100180981D01*
X152676798Y-100190702D01*
X152686519Y-100201427D01*
X152695142Y-100213053D01*
X152702583Y-100225469D01*
X152708772Y-100238554D01*
X152713649Y-100252183D01*
X152717166Y-100266224D01*
X152719290Y-100280542D01*
X152720000Y-100295000D01*
X152720000Y-100590000D01*
X152719290Y-100604458D01*
X152717166Y-100618776D01*
X152713649Y-100632817D01*
X152708772Y-100646446D01*
X152702583Y-100659531D01*
X152695142Y-100671947D01*
X152686519Y-100683573D01*
X152676798Y-100694298D01*
X152666073Y-100704019D01*
X152654447Y-100712642D01*
X152642031Y-100720083D01*
X152628946Y-100726272D01*
X152615317Y-100731149D01*
X152601276Y-100734666D01*
X152586958Y-100736790D01*
X152572500Y-100737500D01*
X152227500Y-100737500D01*
X152213042Y-100736790D01*
X152198724Y-100734666D01*
X152184683Y-100731149D01*
X152171054Y-100726272D01*
X152157969Y-100720083D01*
X152145553Y-100712642D01*
X152133927Y-100704019D01*
X152123202Y-100694298D01*
X152113481Y-100683573D01*
X152104858Y-100671947D01*
X152097417Y-100659531D01*
X152091228Y-100646446D01*
X152086351Y-100632817D01*
X152082834Y-100618776D01*
X152080710Y-100604458D01*
X152080000Y-100590000D01*
X152080000Y-100295000D01*
X152080710Y-100280542D01*
X152082834Y-100266224D01*
X152086351Y-100252183D01*
X152091228Y-100238554D01*
X152097417Y-100225469D01*
X152104858Y-100213053D01*
X152113481Y-100201427D01*
X152123202Y-100190702D01*
X152133927Y-100180981D01*
X152145553Y-100172358D01*
X152157969Y-100164917D01*
X152171054Y-100158728D01*
X152184683Y-100153851D01*
X152198724Y-100150334D01*
X152213042Y-100148210D01*
X152227500Y-100147500D01*
X152572500Y-100147500D01*
X152586958Y-100148210D01*
G37*
G36*
X152586958Y-101118210D02*
G01*
X152601276Y-101120334D01*
X152615317Y-101123851D01*
X152628946Y-101128728D01*
X152642031Y-101134917D01*
X152654447Y-101142358D01*
X152666073Y-101150981D01*
X152676798Y-101160702D01*
X152686519Y-101171427D01*
X152695142Y-101183053D01*
X152702583Y-101195469D01*
X152708772Y-101208554D01*
X152713649Y-101222183D01*
X152717166Y-101236224D01*
X152719290Y-101250542D01*
X152720000Y-101265000D01*
X152720000Y-101560000D01*
X152719290Y-101574458D01*
X152717166Y-101588776D01*
X152713649Y-101602817D01*
X152708772Y-101616446D01*
X152702583Y-101629531D01*
X152695142Y-101641947D01*
X152686519Y-101653573D01*
X152676798Y-101664298D01*
X152666073Y-101674019D01*
X152654447Y-101682642D01*
X152642031Y-101690083D01*
X152628946Y-101696272D01*
X152615317Y-101701149D01*
X152601276Y-101704666D01*
X152586958Y-101706790D01*
X152572500Y-101707500D01*
X152227500Y-101707500D01*
X152213042Y-101706790D01*
X152198724Y-101704666D01*
X152184683Y-101701149D01*
X152171054Y-101696272D01*
X152157969Y-101690083D01*
X152145553Y-101682642D01*
X152133927Y-101674019D01*
X152123202Y-101664298D01*
X152113481Y-101653573D01*
X152104858Y-101641947D01*
X152097417Y-101629531D01*
X152091228Y-101616446D01*
X152086351Y-101602817D01*
X152082834Y-101588776D01*
X152080710Y-101574458D01*
X152080000Y-101560000D01*
X152080000Y-101265000D01*
X152080710Y-101250542D01*
X152082834Y-101236224D01*
X152086351Y-101222183D01*
X152091228Y-101208554D01*
X152097417Y-101195469D01*
X152104858Y-101183053D01*
X152113481Y-101171427D01*
X152123202Y-101160702D01*
X152133927Y-101150981D01*
X152145553Y-101142358D01*
X152157969Y-101134917D01*
X152171054Y-101128728D01*
X152184683Y-101123851D01*
X152198724Y-101120334D01*
X152213042Y-101118210D01*
X152227500Y-101117500D01*
X152572500Y-101117500D01*
X152586958Y-101118210D01*
G37*
D11*
X155400000Y-105800000D03*
X152000000Y-105800000D03*
D15*
X143650000Y-105500000D03*
X142700000Y-105500000D03*
X141750000Y-105500000D03*
X141750000Y-102700000D03*
X142700000Y-102700000D03*
X143650000Y-102700000D03*
D16*
X142700000Y-104100000D03*
D10*
G36*
X145450961Y-98440245D02*
G01*
X145453806Y-98430866D01*
X145458427Y-98422221D01*
X145464645Y-98414645D01*
X145472221Y-98408427D01*
X145480866Y-98403806D01*
X145490245Y-98400961D01*
X145500000Y-98400000D01*
X146200000Y-98400000D01*
X146209755Y-98400961D01*
X146219134Y-98403806D01*
X146227779Y-98408427D01*
X146235355Y-98414645D01*
X146241573Y-98422221D01*
X146246194Y-98430866D01*
X146249039Y-98440245D01*
X146250000Y-98450000D01*
X146250000Y-98479289D01*
X146249039Y-98489044D01*
X146246194Y-98498423D01*
X146241573Y-98507068D01*
X146235355Y-98514644D01*
X146164644Y-98585355D01*
X146157068Y-98591573D01*
X146148423Y-98596194D01*
X146139044Y-98599039D01*
X146129289Y-98600000D01*
X145500000Y-98600000D01*
X145490245Y-98599039D01*
X145480866Y-98596194D01*
X145472221Y-98591573D01*
X145464645Y-98585355D01*
X145458427Y-98577779D01*
X145453806Y-98569134D01*
X145450961Y-98559755D01*
X145450000Y-98550000D01*
X145450000Y-98450000D01*
X145450961Y-98440245D01*
G37*
G36*
X146204901Y-98000241D02*
G01*
X146209755Y-98000961D01*
X146214514Y-98002153D01*
X146219134Y-98003806D01*
X146223570Y-98005904D01*
X146227779Y-98008427D01*
X146231720Y-98011349D01*
X146235355Y-98014645D01*
X146238651Y-98018280D01*
X146241573Y-98022221D01*
X146244096Y-98026430D01*
X146246194Y-98030866D01*
X146247847Y-98035486D01*
X146249039Y-98040245D01*
X146249759Y-98045099D01*
X146250000Y-98050000D01*
X146250000Y-98150000D01*
X146249759Y-98154901D01*
X146249039Y-98159755D01*
X146247847Y-98164514D01*
X146246194Y-98169134D01*
X146244096Y-98173570D01*
X146241573Y-98177779D01*
X146238651Y-98181720D01*
X146235355Y-98185355D01*
X146231720Y-98188651D01*
X146227779Y-98191573D01*
X146223570Y-98194096D01*
X146219134Y-98196194D01*
X146214514Y-98197847D01*
X146209755Y-98199039D01*
X146204901Y-98199759D01*
X146200000Y-98200000D01*
X145500000Y-98200000D01*
X145495099Y-98199759D01*
X145490245Y-98199039D01*
X145485486Y-98197847D01*
X145480866Y-98196194D01*
X145476430Y-98194096D01*
X145472221Y-98191573D01*
X145468280Y-98188651D01*
X145464645Y-98185355D01*
X145461349Y-98181720D01*
X145458427Y-98177779D01*
X145455904Y-98173570D01*
X145453806Y-98169134D01*
X145452153Y-98164514D01*
X145450961Y-98159755D01*
X145450241Y-98154901D01*
X145450000Y-98150000D01*
X145450000Y-98050000D01*
X145450241Y-98045099D01*
X145450961Y-98040245D01*
X145452153Y-98035486D01*
X145453806Y-98030866D01*
X145455904Y-98026430D01*
X145458427Y-98022221D01*
X145461349Y-98018280D01*
X145464645Y-98014645D01*
X145468280Y-98011349D01*
X145472221Y-98008427D01*
X145476430Y-98005904D01*
X145480866Y-98003806D01*
X145485486Y-98002153D01*
X145490245Y-98000961D01*
X145495099Y-98000241D01*
X145500000Y-98000000D01*
X146200000Y-98000000D01*
X146204901Y-98000241D01*
G37*
G36*
X146204901Y-97600241D02*
G01*
X146209755Y-97600961D01*
X146214514Y-97602153D01*
X146219134Y-97603806D01*
X146223570Y-97605904D01*
X146227779Y-97608427D01*
X146231720Y-97611349D01*
X146235355Y-97614645D01*
X146238651Y-97618280D01*
X146241573Y-97622221D01*
X146244096Y-97626430D01*
X146246194Y-97630866D01*
X146247847Y-97635486D01*
X146249039Y-97640245D01*
X146249759Y-97645099D01*
X146250000Y-97650000D01*
X146250000Y-97750000D01*
X146249759Y-97754901D01*
X146249039Y-97759755D01*
X146247847Y-97764514D01*
X146246194Y-97769134D01*
X146244096Y-97773570D01*
X146241573Y-97777779D01*
X146238651Y-97781720D01*
X146235355Y-97785355D01*
X146231720Y-97788651D01*
X146227779Y-97791573D01*
X146223570Y-97794096D01*
X146219134Y-97796194D01*
X146214514Y-97797847D01*
X146209755Y-97799039D01*
X146204901Y-97799759D01*
X146200000Y-97800000D01*
X145500000Y-97800000D01*
X145495099Y-97799759D01*
X145490245Y-97799039D01*
X145485486Y-97797847D01*
X145480866Y-97796194D01*
X145476430Y-97794096D01*
X145472221Y-97791573D01*
X145468280Y-97788651D01*
X145464645Y-97785355D01*
X145461349Y-97781720D01*
X145458427Y-97777779D01*
X145455904Y-97773570D01*
X145453806Y-97769134D01*
X145452153Y-97764514D01*
X145450961Y-97759755D01*
X145450241Y-97754901D01*
X145450000Y-97750000D01*
X145450000Y-97650000D01*
X145450241Y-97645099D01*
X145450961Y-97640245D01*
X145452153Y-97635486D01*
X145453806Y-97630866D01*
X145455904Y-97626430D01*
X145458427Y-97622221D01*
X145461349Y-97618280D01*
X145464645Y-97614645D01*
X145468280Y-97611349D01*
X145472221Y-97608427D01*
X145476430Y-97605904D01*
X145480866Y-97603806D01*
X145485486Y-97602153D01*
X145490245Y-97600961D01*
X145495099Y-97600241D01*
X145500000Y-97600000D01*
X146200000Y-97600000D01*
X146204901Y-97600241D01*
G37*
G36*
X146204901Y-97200241D02*
G01*
X146209755Y-97200961D01*
X146214514Y-97202153D01*
X146219134Y-97203806D01*
X146223570Y-97205904D01*
X146227779Y-97208427D01*
X146231720Y-97211349D01*
X146235355Y-97214645D01*
X146238651Y-97218280D01*
X146241573Y-97222221D01*
X146244096Y-97226430D01*
X146246194Y-97230866D01*
X146247847Y-97235486D01*
X146249039Y-97240245D01*
X146249759Y-97245099D01*
X146250000Y-97250000D01*
X146250000Y-97350000D01*
X146249759Y-97354901D01*
X146249039Y-97359755D01*
X146247847Y-97364514D01*
X146246194Y-97369134D01*
X146244096Y-97373570D01*
X146241573Y-97377779D01*
X146238651Y-97381720D01*
X146235355Y-97385355D01*
X146231720Y-97388651D01*
X146227779Y-97391573D01*
X146223570Y-97394096D01*
X146219134Y-97396194D01*
X146214514Y-97397847D01*
X146209755Y-97399039D01*
X146204901Y-97399759D01*
X146200000Y-97400000D01*
X145500000Y-97400000D01*
X145495099Y-97399759D01*
X145490245Y-97399039D01*
X145485486Y-97397847D01*
X145480866Y-97396194D01*
X145476430Y-97394096D01*
X145472221Y-97391573D01*
X145468280Y-97388651D01*
X145464645Y-97385355D01*
X145461349Y-97381720D01*
X145458427Y-97377779D01*
X145455904Y-97373570D01*
X145453806Y-97369134D01*
X145452153Y-97364514D01*
X145450961Y-97359755D01*
X145450241Y-97354901D01*
X145450000Y-97350000D01*
X145450000Y-97250000D01*
X145450241Y-97245099D01*
X145450961Y-97240245D01*
X145452153Y-97235486D01*
X145453806Y-97230866D01*
X145455904Y-97226430D01*
X145458427Y-97222221D01*
X145461349Y-97218280D01*
X145464645Y-97214645D01*
X145468280Y-97211349D01*
X145472221Y-97208427D01*
X145476430Y-97205904D01*
X145480866Y-97203806D01*
X145485486Y-97202153D01*
X145490245Y-97200961D01*
X145495099Y-97200241D01*
X145500000Y-97200000D01*
X146200000Y-97200000D01*
X146204901Y-97200241D01*
G37*
G36*
X146204901Y-96800241D02*
G01*
X146209755Y-96800961D01*
X146214514Y-96802153D01*
X146219134Y-96803806D01*
X146223570Y-96805904D01*
X146227779Y-96808427D01*
X146231720Y-96811349D01*
X146235355Y-96814645D01*
X146238651Y-96818280D01*
X146241573Y-96822221D01*
X146244096Y-96826430D01*
X146246194Y-96830866D01*
X146247847Y-96835486D01*
X146249039Y-96840245D01*
X146249759Y-96845099D01*
X146250000Y-96850000D01*
X146250000Y-96950000D01*
X146249759Y-96954901D01*
X146249039Y-96959755D01*
X146247847Y-96964514D01*
X146246194Y-96969134D01*
X146244096Y-96973570D01*
X146241573Y-96977779D01*
X146238651Y-96981720D01*
X146235355Y-96985355D01*
X146231720Y-96988651D01*
X146227779Y-96991573D01*
X146223570Y-96994096D01*
X146219134Y-96996194D01*
X146214514Y-96997847D01*
X146209755Y-96999039D01*
X146204901Y-96999759D01*
X146200000Y-97000000D01*
X145500000Y-97000000D01*
X145495099Y-96999759D01*
X145490245Y-96999039D01*
X145485486Y-96997847D01*
X145480866Y-96996194D01*
X145476430Y-96994096D01*
X145472221Y-96991573D01*
X145468280Y-96988651D01*
X145464645Y-96985355D01*
X145461349Y-96981720D01*
X145458427Y-96977779D01*
X145455904Y-96973570D01*
X145453806Y-96969134D01*
X145452153Y-96964514D01*
X145450961Y-96959755D01*
X145450241Y-96954901D01*
X145450000Y-96950000D01*
X145450000Y-96850000D01*
X145450241Y-96845099D01*
X145450961Y-96840245D01*
X145452153Y-96835486D01*
X145453806Y-96830866D01*
X145455904Y-96826430D01*
X145458427Y-96822221D01*
X145461349Y-96818280D01*
X145464645Y-96814645D01*
X145468280Y-96811349D01*
X145472221Y-96808427D01*
X145476430Y-96805904D01*
X145480866Y-96803806D01*
X145485486Y-96802153D01*
X145490245Y-96800961D01*
X145495099Y-96800241D01*
X145500000Y-96800000D01*
X146200000Y-96800000D01*
X146204901Y-96800241D01*
G37*
G36*
X146204901Y-96400241D02*
G01*
X146209755Y-96400961D01*
X146214514Y-96402153D01*
X146219134Y-96403806D01*
X146223570Y-96405904D01*
X146227779Y-96408427D01*
X146231720Y-96411349D01*
X146235355Y-96414645D01*
X146238651Y-96418280D01*
X146241573Y-96422221D01*
X146244096Y-96426430D01*
X146246194Y-96430866D01*
X146247847Y-96435486D01*
X146249039Y-96440245D01*
X146249759Y-96445099D01*
X146250000Y-96450000D01*
X146250000Y-96550000D01*
X146249759Y-96554901D01*
X146249039Y-96559755D01*
X146247847Y-96564514D01*
X146246194Y-96569134D01*
X146244096Y-96573570D01*
X146241573Y-96577779D01*
X146238651Y-96581720D01*
X146235355Y-96585355D01*
X146231720Y-96588651D01*
X146227779Y-96591573D01*
X146223570Y-96594096D01*
X146219134Y-96596194D01*
X146214514Y-96597847D01*
X146209755Y-96599039D01*
X146204901Y-96599759D01*
X146200000Y-96600000D01*
X145500000Y-96600000D01*
X145495099Y-96599759D01*
X145490245Y-96599039D01*
X145485486Y-96597847D01*
X145480866Y-96596194D01*
X145476430Y-96594096D01*
X145472221Y-96591573D01*
X145468280Y-96588651D01*
X145464645Y-96585355D01*
X145461349Y-96581720D01*
X145458427Y-96577779D01*
X145455904Y-96573570D01*
X145453806Y-96569134D01*
X145452153Y-96564514D01*
X145450961Y-96559755D01*
X145450241Y-96554901D01*
X145450000Y-96550000D01*
X145450000Y-96450000D01*
X145450241Y-96445099D01*
X145450961Y-96440245D01*
X145452153Y-96435486D01*
X145453806Y-96430866D01*
X145455904Y-96426430D01*
X145458427Y-96422221D01*
X145461349Y-96418280D01*
X145464645Y-96414645D01*
X145468280Y-96411349D01*
X145472221Y-96408427D01*
X145476430Y-96405904D01*
X145480866Y-96403806D01*
X145485486Y-96402153D01*
X145490245Y-96400961D01*
X145495099Y-96400241D01*
X145500000Y-96400000D01*
X146200000Y-96400000D01*
X146204901Y-96400241D01*
G37*
G36*
X146204901Y-96000241D02*
G01*
X146209755Y-96000961D01*
X146214514Y-96002153D01*
X146219134Y-96003806D01*
X146223570Y-96005904D01*
X146227779Y-96008427D01*
X146231720Y-96011349D01*
X146235355Y-96014645D01*
X146238651Y-96018280D01*
X146241573Y-96022221D01*
X146244096Y-96026430D01*
X146246194Y-96030866D01*
X146247847Y-96035486D01*
X146249039Y-96040245D01*
X146249759Y-96045099D01*
X146250000Y-96050000D01*
X146250000Y-96150000D01*
X146249759Y-96154901D01*
X146249039Y-96159755D01*
X146247847Y-96164514D01*
X146246194Y-96169134D01*
X146244096Y-96173570D01*
X146241573Y-96177779D01*
X146238651Y-96181720D01*
X146235355Y-96185355D01*
X146231720Y-96188651D01*
X146227779Y-96191573D01*
X146223570Y-96194096D01*
X146219134Y-96196194D01*
X146214514Y-96197847D01*
X146209755Y-96199039D01*
X146204901Y-96199759D01*
X146200000Y-96200000D01*
X145500000Y-96200000D01*
X145495099Y-96199759D01*
X145490245Y-96199039D01*
X145485486Y-96197847D01*
X145480866Y-96196194D01*
X145476430Y-96194096D01*
X145472221Y-96191573D01*
X145468280Y-96188651D01*
X145464645Y-96185355D01*
X145461349Y-96181720D01*
X145458427Y-96177779D01*
X145455904Y-96173570D01*
X145453806Y-96169134D01*
X145452153Y-96164514D01*
X145450961Y-96159755D01*
X145450241Y-96154901D01*
X145450000Y-96150000D01*
X145450000Y-96050000D01*
X145450241Y-96045099D01*
X145450961Y-96040245D01*
X145452153Y-96035486D01*
X145453806Y-96030866D01*
X145455904Y-96026430D01*
X145458427Y-96022221D01*
X145461349Y-96018280D01*
X145464645Y-96014645D01*
X145468280Y-96011349D01*
X145472221Y-96008427D01*
X145476430Y-96005904D01*
X145480866Y-96003806D01*
X145485486Y-96002153D01*
X145490245Y-96000961D01*
X145495099Y-96000241D01*
X145500000Y-96000000D01*
X146200000Y-96000000D01*
X146204901Y-96000241D01*
G37*
G36*
X145450961Y-95640245D02*
G01*
X145453806Y-95630866D01*
X145458427Y-95622221D01*
X145464645Y-95614645D01*
X145472221Y-95608427D01*
X145480866Y-95603806D01*
X145490245Y-95600961D01*
X145500000Y-95600000D01*
X146129289Y-95600000D01*
X146139044Y-95600961D01*
X146148423Y-95603806D01*
X146157068Y-95608427D01*
X146164644Y-95614645D01*
X146235355Y-95685356D01*
X146241573Y-95692932D01*
X146246194Y-95701577D01*
X146249039Y-95710956D01*
X146250000Y-95720711D01*
X146250000Y-95750000D01*
X146249039Y-95759755D01*
X146246194Y-95769134D01*
X146241573Y-95777779D01*
X146235355Y-95785355D01*
X146227779Y-95791573D01*
X146219134Y-95796194D01*
X146209755Y-95799039D01*
X146200000Y-95800000D01*
X145500000Y-95800000D01*
X145490245Y-95799039D01*
X145480866Y-95796194D01*
X145472221Y-95791573D01*
X145464645Y-95785355D01*
X145458427Y-95777779D01*
X145453806Y-95769134D01*
X145450961Y-95759755D01*
X145450000Y-95750000D01*
X145450000Y-95650000D01*
X145450961Y-95640245D01*
G37*
G36*
X146300961Y-94790245D02*
G01*
X146303806Y-94780866D01*
X146308427Y-94772221D01*
X146314645Y-94764645D01*
X146322221Y-94758427D01*
X146330866Y-94753806D01*
X146340245Y-94750961D01*
X146350000Y-94750000D01*
X146450000Y-94750000D01*
X146459755Y-94750961D01*
X146469134Y-94753806D01*
X146477779Y-94758427D01*
X146485355Y-94764645D01*
X146491573Y-94772221D01*
X146496194Y-94780866D01*
X146499039Y-94790245D01*
X146500000Y-94800000D01*
X146500000Y-95500000D01*
X146499039Y-95509755D01*
X146496194Y-95519134D01*
X146491573Y-95527779D01*
X146485355Y-95535355D01*
X146477779Y-95541573D01*
X146469134Y-95546194D01*
X146459755Y-95549039D01*
X146450000Y-95550000D01*
X146420711Y-95550000D01*
X146410956Y-95549039D01*
X146401577Y-95546194D01*
X146392932Y-95541573D01*
X146385356Y-95535355D01*
X146314645Y-95464644D01*
X146308427Y-95457068D01*
X146303806Y-95448423D01*
X146300961Y-95439044D01*
X146300000Y-95429289D01*
X146300000Y-94800000D01*
X146300961Y-94790245D01*
G37*
G36*
X146854901Y-94750241D02*
G01*
X146859755Y-94750961D01*
X146864514Y-94752153D01*
X146869134Y-94753806D01*
X146873570Y-94755904D01*
X146877779Y-94758427D01*
X146881720Y-94761349D01*
X146885355Y-94764645D01*
X146888651Y-94768280D01*
X146891573Y-94772221D01*
X146894096Y-94776430D01*
X146896194Y-94780866D01*
X146897847Y-94785486D01*
X146899039Y-94790245D01*
X146899759Y-94795099D01*
X146900000Y-94800000D01*
X146900000Y-95500000D01*
X146899759Y-95504901D01*
X146899039Y-95509755D01*
X146897847Y-95514514D01*
X146896194Y-95519134D01*
X146894096Y-95523570D01*
X146891573Y-95527779D01*
X146888651Y-95531720D01*
X146885355Y-95535355D01*
X146881720Y-95538651D01*
X146877779Y-95541573D01*
X146873570Y-95544096D01*
X146869134Y-95546194D01*
X146864514Y-95547847D01*
X146859755Y-95549039D01*
X146854901Y-95549759D01*
X146850000Y-95550000D01*
X146750000Y-95550000D01*
X146745099Y-95549759D01*
X146740245Y-95549039D01*
X146735486Y-95547847D01*
X146730866Y-95546194D01*
X146726430Y-95544096D01*
X146722221Y-95541573D01*
X146718280Y-95538651D01*
X146714645Y-95535355D01*
X146711349Y-95531720D01*
X146708427Y-95527779D01*
X146705904Y-95523570D01*
X146703806Y-95519134D01*
X146702153Y-95514514D01*
X146700961Y-95509755D01*
X146700241Y-95504901D01*
X146700000Y-95500000D01*
X146700000Y-94800000D01*
X146700241Y-94795099D01*
X146700961Y-94790245D01*
X146702153Y-94785486D01*
X146703806Y-94780866D01*
X146705904Y-94776430D01*
X146708427Y-94772221D01*
X146711349Y-94768280D01*
X146714645Y-94764645D01*
X146718280Y-94761349D01*
X146722221Y-94758427D01*
X146726430Y-94755904D01*
X146730866Y-94753806D01*
X146735486Y-94752153D01*
X146740245Y-94750961D01*
X146745099Y-94750241D01*
X146750000Y-94750000D01*
X146850000Y-94750000D01*
X146854901Y-94750241D01*
G37*
G36*
X147254901Y-94750241D02*
G01*
X147259755Y-94750961D01*
X147264514Y-94752153D01*
X147269134Y-94753806D01*
X147273570Y-94755904D01*
X147277779Y-94758427D01*
X147281720Y-94761349D01*
X147285355Y-94764645D01*
X147288651Y-94768280D01*
X147291573Y-94772221D01*
X147294096Y-94776430D01*
X147296194Y-94780866D01*
X147297847Y-94785486D01*
X147299039Y-94790245D01*
X147299759Y-94795099D01*
X147300000Y-94800000D01*
X147300000Y-95500000D01*
X147299759Y-95504901D01*
X147299039Y-95509755D01*
X147297847Y-95514514D01*
X147296194Y-95519134D01*
X147294096Y-95523570D01*
X147291573Y-95527779D01*
X147288651Y-95531720D01*
X147285355Y-95535355D01*
X147281720Y-95538651D01*
X147277779Y-95541573D01*
X147273570Y-95544096D01*
X147269134Y-95546194D01*
X147264514Y-95547847D01*
X147259755Y-95549039D01*
X147254901Y-95549759D01*
X147250000Y-95550000D01*
X147150000Y-95550000D01*
X147145099Y-95549759D01*
X147140245Y-95549039D01*
X147135486Y-95547847D01*
X147130866Y-95546194D01*
X147126430Y-95544096D01*
X147122221Y-95541573D01*
X147118280Y-95538651D01*
X147114645Y-95535355D01*
X147111349Y-95531720D01*
X147108427Y-95527779D01*
X147105904Y-95523570D01*
X147103806Y-95519134D01*
X147102153Y-95514514D01*
X147100961Y-95509755D01*
X147100241Y-95504901D01*
X147100000Y-95500000D01*
X147100000Y-94800000D01*
X147100241Y-94795099D01*
X147100961Y-94790245D01*
X147102153Y-94785486D01*
X147103806Y-94780866D01*
X147105904Y-94776430D01*
X147108427Y-94772221D01*
X147111349Y-94768280D01*
X147114645Y-94764645D01*
X147118280Y-94761349D01*
X147122221Y-94758427D01*
X147126430Y-94755904D01*
X147130866Y-94753806D01*
X147135486Y-94752153D01*
X147140245Y-94750961D01*
X147145099Y-94750241D01*
X147150000Y-94750000D01*
X147250000Y-94750000D01*
X147254901Y-94750241D01*
G37*
G36*
X147654901Y-94750241D02*
G01*
X147659755Y-94750961D01*
X147664514Y-94752153D01*
X147669134Y-94753806D01*
X147673570Y-94755904D01*
X147677779Y-94758427D01*
X147681720Y-94761349D01*
X147685355Y-94764645D01*
X147688651Y-94768280D01*
X147691573Y-94772221D01*
X147694096Y-94776430D01*
X147696194Y-94780866D01*
X147697847Y-94785486D01*
X147699039Y-94790245D01*
X147699759Y-94795099D01*
X147700000Y-94800000D01*
X147700000Y-95500000D01*
X147699759Y-95504901D01*
X147699039Y-95509755D01*
X147697847Y-95514514D01*
X147696194Y-95519134D01*
X147694096Y-95523570D01*
X147691573Y-95527779D01*
X147688651Y-95531720D01*
X147685355Y-95535355D01*
X147681720Y-95538651D01*
X147677779Y-95541573D01*
X147673570Y-95544096D01*
X147669134Y-95546194D01*
X147664514Y-95547847D01*
X147659755Y-95549039D01*
X147654901Y-95549759D01*
X147650000Y-95550000D01*
X147550000Y-95550000D01*
X147545099Y-95549759D01*
X147540245Y-95549039D01*
X147535486Y-95547847D01*
X147530866Y-95546194D01*
X147526430Y-95544096D01*
X147522221Y-95541573D01*
X147518280Y-95538651D01*
X147514645Y-95535355D01*
X147511349Y-95531720D01*
X147508427Y-95527779D01*
X147505904Y-95523570D01*
X147503806Y-95519134D01*
X147502153Y-95514514D01*
X147500961Y-95509755D01*
X147500241Y-95504901D01*
X147500000Y-95500000D01*
X147500000Y-94800000D01*
X147500241Y-94795099D01*
X147500961Y-94790245D01*
X147502153Y-94785486D01*
X147503806Y-94780866D01*
X147505904Y-94776430D01*
X147508427Y-94772221D01*
X147511349Y-94768280D01*
X147514645Y-94764645D01*
X147518280Y-94761349D01*
X147522221Y-94758427D01*
X147526430Y-94755904D01*
X147530866Y-94753806D01*
X147535486Y-94752153D01*
X147540245Y-94750961D01*
X147545099Y-94750241D01*
X147550000Y-94750000D01*
X147650000Y-94750000D01*
X147654901Y-94750241D01*
G37*
G36*
X148054901Y-94750241D02*
G01*
X148059755Y-94750961D01*
X148064514Y-94752153D01*
X148069134Y-94753806D01*
X148073570Y-94755904D01*
X148077779Y-94758427D01*
X148081720Y-94761349D01*
X148085355Y-94764645D01*
X148088651Y-94768280D01*
X148091573Y-94772221D01*
X148094096Y-94776430D01*
X148096194Y-94780866D01*
X148097847Y-94785486D01*
X148099039Y-94790245D01*
X148099759Y-94795099D01*
X148100000Y-94800000D01*
X148100000Y-95500000D01*
X148099759Y-95504901D01*
X148099039Y-95509755D01*
X148097847Y-95514514D01*
X148096194Y-95519134D01*
X148094096Y-95523570D01*
X148091573Y-95527779D01*
X148088651Y-95531720D01*
X148085355Y-95535355D01*
X148081720Y-95538651D01*
X148077779Y-95541573D01*
X148073570Y-95544096D01*
X148069134Y-95546194D01*
X148064514Y-95547847D01*
X148059755Y-95549039D01*
X148054901Y-95549759D01*
X148050000Y-95550000D01*
X147950000Y-95550000D01*
X147945099Y-95549759D01*
X147940245Y-95549039D01*
X147935486Y-95547847D01*
X147930866Y-95546194D01*
X147926430Y-95544096D01*
X147922221Y-95541573D01*
X147918280Y-95538651D01*
X147914645Y-95535355D01*
X147911349Y-95531720D01*
X147908427Y-95527779D01*
X147905904Y-95523570D01*
X147903806Y-95519134D01*
X147902153Y-95514514D01*
X147900961Y-95509755D01*
X147900241Y-95504901D01*
X147900000Y-95500000D01*
X147900000Y-94800000D01*
X147900241Y-94795099D01*
X147900961Y-94790245D01*
X147902153Y-94785486D01*
X147903806Y-94780866D01*
X147905904Y-94776430D01*
X147908427Y-94772221D01*
X147911349Y-94768280D01*
X147914645Y-94764645D01*
X147918280Y-94761349D01*
X147922221Y-94758427D01*
X147926430Y-94755904D01*
X147930866Y-94753806D01*
X147935486Y-94752153D01*
X147940245Y-94750961D01*
X147945099Y-94750241D01*
X147950000Y-94750000D01*
X148050000Y-94750000D01*
X148054901Y-94750241D01*
G37*
G36*
X148454901Y-94750241D02*
G01*
X148459755Y-94750961D01*
X148464514Y-94752153D01*
X148469134Y-94753806D01*
X148473570Y-94755904D01*
X148477779Y-94758427D01*
X148481720Y-94761349D01*
X148485355Y-94764645D01*
X148488651Y-94768280D01*
X148491573Y-94772221D01*
X148494096Y-94776430D01*
X148496194Y-94780866D01*
X148497847Y-94785486D01*
X148499039Y-94790245D01*
X148499759Y-94795099D01*
X148500000Y-94800000D01*
X148500000Y-95500000D01*
X148499759Y-95504901D01*
X148499039Y-95509755D01*
X148497847Y-95514514D01*
X148496194Y-95519134D01*
X148494096Y-95523570D01*
X148491573Y-95527779D01*
X148488651Y-95531720D01*
X148485355Y-95535355D01*
X148481720Y-95538651D01*
X148477779Y-95541573D01*
X148473570Y-95544096D01*
X148469134Y-95546194D01*
X148464514Y-95547847D01*
X148459755Y-95549039D01*
X148454901Y-95549759D01*
X148450000Y-95550000D01*
X148350000Y-95550000D01*
X148345099Y-95549759D01*
X148340245Y-95549039D01*
X148335486Y-95547847D01*
X148330866Y-95546194D01*
X148326430Y-95544096D01*
X148322221Y-95541573D01*
X148318280Y-95538651D01*
X148314645Y-95535355D01*
X148311349Y-95531720D01*
X148308427Y-95527779D01*
X148305904Y-95523570D01*
X148303806Y-95519134D01*
X148302153Y-95514514D01*
X148300961Y-95509755D01*
X148300241Y-95504901D01*
X148300000Y-95500000D01*
X148300000Y-94800000D01*
X148300241Y-94795099D01*
X148300961Y-94790245D01*
X148302153Y-94785486D01*
X148303806Y-94780866D01*
X148305904Y-94776430D01*
X148308427Y-94772221D01*
X148311349Y-94768280D01*
X148314645Y-94764645D01*
X148318280Y-94761349D01*
X148322221Y-94758427D01*
X148326430Y-94755904D01*
X148330866Y-94753806D01*
X148335486Y-94752153D01*
X148340245Y-94750961D01*
X148345099Y-94750241D01*
X148350000Y-94750000D01*
X148450000Y-94750000D01*
X148454901Y-94750241D01*
G37*
G36*
X148854901Y-94750241D02*
G01*
X148859755Y-94750961D01*
X148864514Y-94752153D01*
X148869134Y-94753806D01*
X148873570Y-94755904D01*
X148877779Y-94758427D01*
X148881720Y-94761349D01*
X148885355Y-94764645D01*
X148888651Y-94768280D01*
X148891573Y-94772221D01*
X148894096Y-94776430D01*
X148896194Y-94780866D01*
X148897847Y-94785486D01*
X148899039Y-94790245D01*
X148899759Y-94795099D01*
X148900000Y-94800000D01*
X148900000Y-95500000D01*
X148899759Y-95504901D01*
X148899039Y-95509755D01*
X148897847Y-95514514D01*
X148896194Y-95519134D01*
X148894096Y-95523570D01*
X148891573Y-95527779D01*
X148888651Y-95531720D01*
X148885355Y-95535355D01*
X148881720Y-95538651D01*
X148877779Y-95541573D01*
X148873570Y-95544096D01*
X148869134Y-95546194D01*
X148864514Y-95547847D01*
X148859755Y-95549039D01*
X148854901Y-95549759D01*
X148850000Y-95550000D01*
X148750000Y-95550000D01*
X148745099Y-95549759D01*
X148740245Y-95549039D01*
X148735486Y-95547847D01*
X148730866Y-95546194D01*
X148726430Y-95544096D01*
X148722221Y-95541573D01*
X148718280Y-95538651D01*
X148714645Y-95535355D01*
X148711349Y-95531720D01*
X148708427Y-95527779D01*
X148705904Y-95523570D01*
X148703806Y-95519134D01*
X148702153Y-95514514D01*
X148700961Y-95509755D01*
X148700241Y-95504901D01*
X148700000Y-95500000D01*
X148700000Y-94800000D01*
X148700241Y-94795099D01*
X148700961Y-94790245D01*
X148702153Y-94785486D01*
X148703806Y-94780866D01*
X148705904Y-94776430D01*
X148708427Y-94772221D01*
X148711349Y-94768280D01*
X148714645Y-94764645D01*
X148718280Y-94761349D01*
X148722221Y-94758427D01*
X148726430Y-94755904D01*
X148730866Y-94753806D01*
X148735486Y-94752153D01*
X148740245Y-94750961D01*
X148745099Y-94750241D01*
X148750000Y-94750000D01*
X148850000Y-94750000D01*
X148854901Y-94750241D01*
G37*
G36*
X149100961Y-94790245D02*
G01*
X149103806Y-94780866D01*
X149108427Y-94772221D01*
X149114645Y-94764645D01*
X149122221Y-94758427D01*
X149130866Y-94753806D01*
X149140245Y-94750961D01*
X149150000Y-94750000D01*
X149250000Y-94750000D01*
X149259755Y-94750961D01*
X149269134Y-94753806D01*
X149277779Y-94758427D01*
X149285355Y-94764645D01*
X149291573Y-94772221D01*
X149296194Y-94780866D01*
X149299039Y-94790245D01*
X149300000Y-94800000D01*
X149300000Y-95429289D01*
X149299039Y-95439044D01*
X149296194Y-95448423D01*
X149291573Y-95457068D01*
X149285355Y-95464644D01*
X149214644Y-95535355D01*
X149207068Y-95541573D01*
X149198423Y-95546194D01*
X149189044Y-95549039D01*
X149179289Y-95550000D01*
X149150000Y-95550000D01*
X149140245Y-95549039D01*
X149130866Y-95546194D01*
X149122221Y-95541573D01*
X149114645Y-95535355D01*
X149108427Y-95527779D01*
X149103806Y-95519134D01*
X149100961Y-95509755D01*
X149100000Y-95500000D01*
X149100000Y-94800000D01*
X149100961Y-94790245D01*
G37*
G36*
X149350961Y-95710956D02*
G01*
X149353806Y-95701577D01*
X149358427Y-95692932D01*
X149364645Y-95685356D01*
X149435356Y-95614645D01*
X149442932Y-95608427D01*
X149451577Y-95603806D01*
X149460956Y-95600961D01*
X149470711Y-95600000D01*
X150100000Y-95600000D01*
X150109755Y-95600961D01*
X150119134Y-95603806D01*
X150127779Y-95608427D01*
X150135355Y-95614645D01*
X150141573Y-95622221D01*
X150146194Y-95630866D01*
X150149039Y-95640245D01*
X150150000Y-95650000D01*
X150150000Y-95750000D01*
X150149039Y-95759755D01*
X150146194Y-95769134D01*
X150141573Y-95777779D01*
X150135355Y-95785355D01*
X150127779Y-95791573D01*
X150119134Y-95796194D01*
X150109755Y-95799039D01*
X150100000Y-95800000D01*
X149400000Y-95800000D01*
X149390245Y-95799039D01*
X149380866Y-95796194D01*
X149372221Y-95791573D01*
X149364645Y-95785355D01*
X149358427Y-95777779D01*
X149353806Y-95769134D01*
X149350961Y-95759755D01*
X149350000Y-95750000D01*
X149350000Y-95720711D01*
X149350961Y-95710956D01*
G37*
G36*
X150104901Y-96000241D02*
G01*
X150109755Y-96000961D01*
X150114514Y-96002153D01*
X150119134Y-96003806D01*
X150123570Y-96005904D01*
X150127779Y-96008427D01*
X150131720Y-96011349D01*
X150135355Y-96014645D01*
X150138651Y-96018280D01*
X150141573Y-96022221D01*
X150144096Y-96026430D01*
X150146194Y-96030866D01*
X150147847Y-96035486D01*
X150149039Y-96040245D01*
X150149759Y-96045099D01*
X150150000Y-96050000D01*
X150150000Y-96150000D01*
X150149759Y-96154901D01*
X150149039Y-96159755D01*
X150147847Y-96164514D01*
X150146194Y-96169134D01*
X150144096Y-96173570D01*
X150141573Y-96177779D01*
X150138651Y-96181720D01*
X150135355Y-96185355D01*
X150131720Y-96188651D01*
X150127779Y-96191573D01*
X150123570Y-96194096D01*
X150119134Y-96196194D01*
X150114514Y-96197847D01*
X150109755Y-96199039D01*
X150104901Y-96199759D01*
X150100000Y-96200000D01*
X149400000Y-96200000D01*
X149395099Y-96199759D01*
X149390245Y-96199039D01*
X149385486Y-96197847D01*
X149380866Y-96196194D01*
X149376430Y-96194096D01*
X149372221Y-96191573D01*
X149368280Y-96188651D01*
X149364645Y-96185355D01*
X149361349Y-96181720D01*
X149358427Y-96177779D01*
X149355904Y-96173570D01*
X149353806Y-96169134D01*
X149352153Y-96164514D01*
X149350961Y-96159755D01*
X149350241Y-96154901D01*
X149350000Y-96150000D01*
X149350000Y-96050000D01*
X149350241Y-96045099D01*
X149350961Y-96040245D01*
X149352153Y-96035486D01*
X149353806Y-96030866D01*
X149355904Y-96026430D01*
X149358427Y-96022221D01*
X149361349Y-96018280D01*
X149364645Y-96014645D01*
X149368280Y-96011349D01*
X149372221Y-96008427D01*
X149376430Y-96005904D01*
X149380866Y-96003806D01*
X149385486Y-96002153D01*
X149390245Y-96000961D01*
X149395099Y-96000241D01*
X149400000Y-96000000D01*
X150100000Y-96000000D01*
X150104901Y-96000241D01*
G37*
G36*
X150104901Y-96400241D02*
G01*
X150109755Y-96400961D01*
X150114514Y-96402153D01*
X150119134Y-96403806D01*
X150123570Y-96405904D01*
X150127779Y-96408427D01*
X150131720Y-96411349D01*
X150135355Y-96414645D01*
X150138651Y-96418280D01*
X150141573Y-96422221D01*
X150144096Y-96426430D01*
X150146194Y-96430866D01*
X150147847Y-96435486D01*
X150149039Y-96440245D01*
X150149759Y-96445099D01*
X150150000Y-96450000D01*
X150150000Y-96550000D01*
X150149759Y-96554901D01*
X150149039Y-96559755D01*
X150147847Y-96564514D01*
X150146194Y-96569134D01*
X150144096Y-96573570D01*
X150141573Y-96577779D01*
X150138651Y-96581720D01*
X150135355Y-96585355D01*
X150131720Y-96588651D01*
X150127779Y-96591573D01*
X150123570Y-96594096D01*
X150119134Y-96596194D01*
X150114514Y-96597847D01*
X150109755Y-96599039D01*
X150104901Y-96599759D01*
X150100000Y-96600000D01*
X149400000Y-96600000D01*
X149395099Y-96599759D01*
X149390245Y-96599039D01*
X149385486Y-96597847D01*
X149380866Y-96596194D01*
X149376430Y-96594096D01*
X149372221Y-96591573D01*
X149368280Y-96588651D01*
X149364645Y-96585355D01*
X149361349Y-96581720D01*
X149358427Y-96577779D01*
X149355904Y-96573570D01*
X149353806Y-96569134D01*
X149352153Y-96564514D01*
X149350961Y-96559755D01*
X149350241Y-96554901D01*
X149350000Y-96550000D01*
X149350000Y-96450000D01*
X149350241Y-96445099D01*
X149350961Y-96440245D01*
X149352153Y-96435486D01*
X149353806Y-96430866D01*
X149355904Y-96426430D01*
X149358427Y-96422221D01*
X149361349Y-96418280D01*
X149364645Y-96414645D01*
X149368280Y-96411349D01*
X149372221Y-96408427D01*
X149376430Y-96405904D01*
X149380866Y-96403806D01*
X149385486Y-96402153D01*
X149390245Y-96400961D01*
X149395099Y-96400241D01*
X149400000Y-96400000D01*
X150100000Y-96400000D01*
X150104901Y-96400241D01*
G37*
G36*
X150104901Y-96800241D02*
G01*
X150109755Y-96800961D01*
X150114514Y-96802153D01*
X150119134Y-96803806D01*
X150123570Y-96805904D01*
X150127779Y-96808427D01*
X150131720Y-96811349D01*
X150135355Y-96814645D01*
X150138651Y-96818280D01*
X150141573Y-96822221D01*
X150144096Y-96826430D01*
X150146194Y-96830866D01*
X150147847Y-96835486D01*
X150149039Y-96840245D01*
X150149759Y-96845099D01*
X150150000Y-96850000D01*
X150150000Y-96950000D01*
X150149759Y-96954901D01*
X150149039Y-96959755D01*
X150147847Y-96964514D01*
X150146194Y-96969134D01*
X150144096Y-96973570D01*
X150141573Y-96977779D01*
X150138651Y-96981720D01*
X150135355Y-96985355D01*
X150131720Y-96988651D01*
X150127779Y-96991573D01*
X150123570Y-96994096D01*
X150119134Y-96996194D01*
X150114514Y-96997847D01*
X150109755Y-96999039D01*
X150104901Y-96999759D01*
X150100000Y-97000000D01*
X149400000Y-97000000D01*
X149395099Y-96999759D01*
X149390245Y-96999039D01*
X149385486Y-96997847D01*
X149380866Y-96996194D01*
X149376430Y-96994096D01*
X149372221Y-96991573D01*
X149368280Y-96988651D01*
X149364645Y-96985355D01*
X149361349Y-96981720D01*
X149358427Y-96977779D01*
X149355904Y-96973570D01*
X149353806Y-96969134D01*
X149352153Y-96964514D01*
X149350961Y-96959755D01*
X149350241Y-96954901D01*
X149350000Y-96950000D01*
X149350000Y-96850000D01*
X149350241Y-96845099D01*
X149350961Y-96840245D01*
X149352153Y-96835486D01*
X149353806Y-96830866D01*
X149355904Y-96826430D01*
X149358427Y-96822221D01*
X149361349Y-96818280D01*
X149364645Y-96814645D01*
X149368280Y-96811349D01*
X149372221Y-96808427D01*
X149376430Y-96805904D01*
X149380866Y-96803806D01*
X149385486Y-96802153D01*
X149390245Y-96800961D01*
X149395099Y-96800241D01*
X149400000Y-96800000D01*
X150100000Y-96800000D01*
X150104901Y-96800241D01*
G37*
G36*
X150104901Y-97200241D02*
G01*
X150109755Y-97200961D01*
X150114514Y-97202153D01*
X150119134Y-97203806D01*
X150123570Y-97205904D01*
X150127779Y-97208427D01*
X150131720Y-97211349D01*
X150135355Y-97214645D01*
X150138651Y-97218280D01*
X150141573Y-97222221D01*
X150144096Y-97226430D01*
X150146194Y-97230866D01*
X150147847Y-97235486D01*
X150149039Y-97240245D01*
X150149759Y-97245099D01*
X150150000Y-97250000D01*
X150150000Y-97350000D01*
X150149759Y-97354901D01*
X150149039Y-97359755D01*
X150147847Y-97364514D01*
X150146194Y-97369134D01*
X150144096Y-97373570D01*
X150141573Y-97377779D01*
X150138651Y-97381720D01*
X150135355Y-97385355D01*
X150131720Y-97388651D01*
X150127779Y-97391573D01*
X150123570Y-97394096D01*
X150119134Y-97396194D01*
X150114514Y-97397847D01*
X150109755Y-97399039D01*
X150104901Y-97399759D01*
X150100000Y-97400000D01*
X149400000Y-97400000D01*
X149395099Y-97399759D01*
X149390245Y-97399039D01*
X149385486Y-97397847D01*
X149380866Y-97396194D01*
X149376430Y-97394096D01*
X149372221Y-97391573D01*
X149368280Y-97388651D01*
X149364645Y-97385355D01*
X149361349Y-97381720D01*
X149358427Y-97377779D01*
X149355904Y-97373570D01*
X149353806Y-97369134D01*
X149352153Y-97364514D01*
X149350961Y-97359755D01*
X149350241Y-97354901D01*
X149350000Y-97350000D01*
X149350000Y-97250000D01*
X149350241Y-97245099D01*
X149350961Y-97240245D01*
X149352153Y-97235486D01*
X149353806Y-97230866D01*
X149355904Y-97226430D01*
X149358427Y-97222221D01*
X149361349Y-97218280D01*
X149364645Y-97214645D01*
X149368280Y-97211349D01*
X149372221Y-97208427D01*
X149376430Y-97205904D01*
X149380866Y-97203806D01*
X149385486Y-97202153D01*
X149390245Y-97200961D01*
X149395099Y-97200241D01*
X149400000Y-97200000D01*
X150100000Y-97200000D01*
X150104901Y-97200241D01*
G37*
G36*
X150104901Y-97600241D02*
G01*
X150109755Y-97600961D01*
X150114514Y-97602153D01*
X150119134Y-97603806D01*
X150123570Y-97605904D01*
X150127779Y-97608427D01*
X150131720Y-97611349D01*
X150135355Y-97614645D01*
X150138651Y-97618280D01*
X150141573Y-97622221D01*
X150144096Y-97626430D01*
X150146194Y-97630866D01*
X150147847Y-97635486D01*
X150149039Y-97640245D01*
X150149759Y-97645099D01*
X150150000Y-97650000D01*
X150150000Y-97750000D01*
X150149759Y-97754901D01*
X150149039Y-97759755D01*
X150147847Y-97764514D01*
X150146194Y-97769134D01*
X150144096Y-97773570D01*
X150141573Y-97777779D01*
X150138651Y-97781720D01*
X150135355Y-97785355D01*
X150131720Y-97788651D01*
X150127779Y-97791573D01*
X150123570Y-97794096D01*
X150119134Y-97796194D01*
X150114514Y-97797847D01*
X150109755Y-97799039D01*
X150104901Y-97799759D01*
X150100000Y-97800000D01*
X149400000Y-97800000D01*
X149395099Y-97799759D01*
X149390245Y-97799039D01*
X149385486Y-97797847D01*
X149380866Y-97796194D01*
X149376430Y-97794096D01*
X149372221Y-97791573D01*
X149368280Y-97788651D01*
X149364645Y-97785355D01*
X149361349Y-97781720D01*
X149358427Y-97777779D01*
X149355904Y-97773570D01*
X149353806Y-97769134D01*
X149352153Y-97764514D01*
X149350961Y-97759755D01*
X149350241Y-97754901D01*
X149350000Y-97750000D01*
X149350000Y-97650000D01*
X149350241Y-97645099D01*
X149350961Y-97640245D01*
X149352153Y-97635486D01*
X149353806Y-97630866D01*
X149355904Y-97626430D01*
X149358427Y-97622221D01*
X149361349Y-97618280D01*
X149364645Y-97614645D01*
X149368280Y-97611349D01*
X149372221Y-97608427D01*
X149376430Y-97605904D01*
X149380866Y-97603806D01*
X149385486Y-97602153D01*
X149390245Y-97600961D01*
X149395099Y-97600241D01*
X149400000Y-97600000D01*
X150100000Y-97600000D01*
X150104901Y-97600241D01*
G37*
G36*
X150104901Y-98000241D02*
G01*
X150109755Y-98000961D01*
X150114514Y-98002153D01*
X150119134Y-98003806D01*
X150123570Y-98005904D01*
X150127779Y-98008427D01*
X150131720Y-98011349D01*
X150135355Y-98014645D01*
X150138651Y-98018280D01*
X150141573Y-98022221D01*
X150144096Y-98026430D01*
X150146194Y-98030866D01*
X150147847Y-98035486D01*
X150149039Y-98040245D01*
X150149759Y-98045099D01*
X150150000Y-98050000D01*
X150150000Y-98150000D01*
X150149759Y-98154901D01*
X150149039Y-98159755D01*
X150147847Y-98164514D01*
X150146194Y-98169134D01*
X150144096Y-98173570D01*
X150141573Y-98177779D01*
X150138651Y-98181720D01*
X150135355Y-98185355D01*
X150131720Y-98188651D01*
X150127779Y-98191573D01*
X150123570Y-98194096D01*
X150119134Y-98196194D01*
X150114514Y-98197847D01*
X150109755Y-98199039D01*
X150104901Y-98199759D01*
X150100000Y-98200000D01*
X149400000Y-98200000D01*
X149395099Y-98199759D01*
X149390245Y-98199039D01*
X149385486Y-98197847D01*
X149380866Y-98196194D01*
X149376430Y-98194096D01*
X149372221Y-98191573D01*
X149368280Y-98188651D01*
X149364645Y-98185355D01*
X149361349Y-98181720D01*
X149358427Y-98177779D01*
X149355904Y-98173570D01*
X149353806Y-98169134D01*
X149352153Y-98164514D01*
X149350961Y-98159755D01*
X149350241Y-98154901D01*
X149350000Y-98150000D01*
X149350000Y-98050000D01*
X149350241Y-98045099D01*
X149350961Y-98040245D01*
X149352153Y-98035486D01*
X149353806Y-98030866D01*
X149355904Y-98026430D01*
X149358427Y-98022221D01*
X149361349Y-98018280D01*
X149364645Y-98014645D01*
X149368280Y-98011349D01*
X149372221Y-98008427D01*
X149376430Y-98005904D01*
X149380866Y-98003806D01*
X149385486Y-98002153D01*
X149390245Y-98000961D01*
X149395099Y-98000241D01*
X149400000Y-98000000D01*
X150100000Y-98000000D01*
X150104901Y-98000241D01*
G37*
G36*
X149350961Y-98440245D02*
G01*
X149353806Y-98430866D01*
X149358427Y-98422221D01*
X149364645Y-98414645D01*
X149372221Y-98408427D01*
X149380866Y-98403806D01*
X149390245Y-98400961D01*
X149400000Y-98400000D01*
X150100000Y-98400000D01*
X150109755Y-98400961D01*
X150119134Y-98403806D01*
X150127779Y-98408427D01*
X150135355Y-98414645D01*
X150141573Y-98422221D01*
X150146194Y-98430866D01*
X150149039Y-98440245D01*
X150150000Y-98450000D01*
X150150000Y-98550000D01*
X150149039Y-98559755D01*
X150146194Y-98569134D01*
X150141573Y-98577779D01*
X150135355Y-98585355D01*
X150127779Y-98591573D01*
X150119134Y-98596194D01*
X150109755Y-98599039D01*
X150100000Y-98600000D01*
X149470711Y-98600000D01*
X149460956Y-98599039D01*
X149451577Y-98596194D01*
X149442932Y-98591573D01*
X149435356Y-98585355D01*
X149364645Y-98514644D01*
X149358427Y-98507068D01*
X149353806Y-98498423D01*
X149350961Y-98489044D01*
X149350000Y-98479289D01*
X149350000Y-98450000D01*
X149350961Y-98440245D01*
G37*
G36*
X149100961Y-98690245D02*
G01*
X149103806Y-98680866D01*
X149108427Y-98672221D01*
X149114645Y-98664645D01*
X149122221Y-98658427D01*
X149130866Y-98653806D01*
X149140245Y-98650961D01*
X149150000Y-98650000D01*
X149179289Y-98650000D01*
X149189044Y-98650961D01*
X149198423Y-98653806D01*
X149207068Y-98658427D01*
X149214644Y-98664645D01*
X149285355Y-98735356D01*
X149291573Y-98742932D01*
X149296194Y-98751577D01*
X149299039Y-98760956D01*
X149300000Y-98770711D01*
X149300000Y-99400000D01*
X149299039Y-99409755D01*
X149296194Y-99419134D01*
X149291573Y-99427779D01*
X149285355Y-99435355D01*
X149277779Y-99441573D01*
X149269134Y-99446194D01*
X149259755Y-99449039D01*
X149250000Y-99450000D01*
X149150000Y-99450000D01*
X149140245Y-99449039D01*
X149130866Y-99446194D01*
X149122221Y-99441573D01*
X149114645Y-99435355D01*
X149108427Y-99427779D01*
X149103806Y-99419134D01*
X149100961Y-99409755D01*
X149100000Y-99400000D01*
X149100000Y-98700000D01*
X149100961Y-98690245D01*
G37*
G36*
X148854901Y-98650241D02*
G01*
X148859755Y-98650961D01*
X148864514Y-98652153D01*
X148869134Y-98653806D01*
X148873570Y-98655904D01*
X148877779Y-98658427D01*
X148881720Y-98661349D01*
X148885355Y-98664645D01*
X148888651Y-98668280D01*
X148891573Y-98672221D01*
X148894096Y-98676430D01*
X148896194Y-98680866D01*
X148897847Y-98685486D01*
X148899039Y-98690245D01*
X148899759Y-98695099D01*
X148900000Y-98700000D01*
X148900000Y-99400000D01*
X148899759Y-99404901D01*
X148899039Y-99409755D01*
X148897847Y-99414514D01*
X148896194Y-99419134D01*
X148894096Y-99423570D01*
X148891573Y-99427779D01*
X148888651Y-99431720D01*
X148885355Y-99435355D01*
X148881720Y-99438651D01*
X148877779Y-99441573D01*
X148873570Y-99444096D01*
X148869134Y-99446194D01*
X148864514Y-99447847D01*
X148859755Y-99449039D01*
X148854901Y-99449759D01*
X148850000Y-99450000D01*
X148750000Y-99450000D01*
X148745099Y-99449759D01*
X148740245Y-99449039D01*
X148735486Y-99447847D01*
X148730866Y-99446194D01*
X148726430Y-99444096D01*
X148722221Y-99441573D01*
X148718280Y-99438651D01*
X148714645Y-99435355D01*
X148711349Y-99431720D01*
X148708427Y-99427779D01*
X148705904Y-99423570D01*
X148703806Y-99419134D01*
X148702153Y-99414514D01*
X148700961Y-99409755D01*
X148700241Y-99404901D01*
X148700000Y-99400000D01*
X148700000Y-98700000D01*
X148700241Y-98695099D01*
X148700961Y-98690245D01*
X148702153Y-98685486D01*
X148703806Y-98680866D01*
X148705904Y-98676430D01*
X148708427Y-98672221D01*
X148711349Y-98668280D01*
X148714645Y-98664645D01*
X148718280Y-98661349D01*
X148722221Y-98658427D01*
X148726430Y-98655904D01*
X148730866Y-98653806D01*
X148735486Y-98652153D01*
X148740245Y-98650961D01*
X148745099Y-98650241D01*
X148750000Y-98650000D01*
X148850000Y-98650000D01*
X148854901Y-98650241D01*
G37*
G36*
X148454901Y-98650241D02*
G01*
X148459755Y-98650961D01*
X148464514Y-98652153D01*
X148469134Y-98653806D01*
X148473570Y-98655904D01*
X148477779Y-98658427D01*
X148481720Y-98661349D01*
X148485355Y-98664645D01*
X148488651Y-98668280D01*
X148491573Y-98672221D01*
X148494096Y-98676430D01*
X148496194Y-98680866D01*
X148497847Y-98685486D01*
X148499039Y-98690245D01*
X148499759Y-98695099D01*
X148500000Y-98700000D01*
X148500000Y-99400000D01*
X148499759Y-99404901D01*
X148499039Y-99409755D01*
X148497847Y-99414514D01*
X148496194Y-99419134D01*
X148494096Y-99423570D01*
X148491573Y-99427779D01*
X148488651Y-99431720D01*
X148485355Y-99435355D01*
X148481720Y-99438651D01*
X148477779Y-99441573D01*
X148473570Y-99444096D01*
X148469134Y-99446194D01*
X148464514Y-99447847D01*
X148459755Y-99449039D01*
X148454901Y-99449759D01*
X148450000Y-99450000D01*
X148350000Y-99450000D01*
X148345099Y-99449759D01*
X148340245Y-99449039D01*
X148335486Y-99447847D01*
X148330866Y-99446194D01*
X148326430Y-99444096D01*
X148322221Y-99441573D01*
X148318280Y-99438651D01*
X148314645Y-99435355D01*
X148311349Y-99431720D01*
X148308427Y-99427779D01*
X148305904Y-99423570D01*
X148303806Y-99419134D01*
X148302153Y-99414514D01*
X148300961Y-99409755D01*
X148300241Y-99404901D01*
X148300000Y-99400000D01*
X148300000Y-98700000D01*
X148300241Y-98695099D01*
X148300961Y-98690245D01*
X148302153Y-98685486D01*
X148303806Y-98680866D01*
X148305904Y-98676430D01*
X148308427Y-98672221D01*
X148311349Y-98668280D01*
X148314645Y-98664645D01*
X148318280Y-98661349D01*
X148322221Y-98658427D01*
X148326430Y-98655904D01*
X148330866Y-98653806D01*
X148335486Y-98652153D01*
X148340245Y-98650961D01*
X148345099Y-98650241D01*
X148350000Y-98650000D01*
X148450000Y-98650000D01*
X148454901Y-98650241D01*
G37*
G36*
X148054901Y-98650241D02*
G01*
X148059755Y-98650961D01*
X148064514Y-98652153D01*
X148069134Y-98653806D01*
X148073570Y-98655904D01*
X148077779Y-98658427D01*
X148081720Y-98661349D01*
X148085355Y-98664645D01*
X148088651Y-98668280D01*
X148091573Y-98672221D01*
X148094096Y-98676430D01*
X148096194Y-98680866D01*
X148097847Y-98685486D01*
X148099039Y-98690245D01*
X148099759Y-98695099D01*
X148100000Y-98700000D01*
X148100000Y-99400000D01*
X148099759Y-99404901D01*
X148099039Y-99409755D01*
X148097847Y-99414514D01*
X148096194Y-99419134D01*
X148094096Y-99423570D01*
X148091573Y-99427779D01*
X148088651Y-99431720D01*
X148085355Y-99435355D01*
X148081720Y-99438651D01*
X148077779Y-99441573D01*
X148073570Y-99444096D01*
X148069134Y-99446194D01*
X148064514Y-99447847D01*
X148059755Y-99449039D01*
X148054901Y-99449759D01*
X148050000Y-99450000D01*
X147950000Y-99450000D01*
X147945099Y-99449759D01*
X147940245Y-99449039D01*
X147935486Y-99447847D01*
X147930866Y-99446194D01*
X147926430Y-99444096D01*
X147922221Y-99441573D01*
X147918280Y-99438651D01*
X147914645Y-99435355D01*
X147911349Y-99431720D01*
X147908427Y-99427779D01*
X147905904Y-99423570D01*
X147903806Y-99419134D01*
X147902153Y-99414514D01*
X147900961Y-99409755D01*
X147900241Y-99404901D01*
X147900000Y-99400000D01*
X147900000Y-98700000D01*
X147900241Y-98695099D01*
X147900961Y-98690245D01*
X147902153Y-98685486D01*
X147903806Y-98680866D01*
X147905904Y-98676430D01*
X147908427Y-98672221D01*
X147911349Y-98668280D01*
X147914645Y-98664645D01*
X147918280Y-98661349D01*
X147922221Y-98658427D01*
X147926430Y-98655904D01*
X147930866Y-98653806D01*
X147935486Y-98652153D01*
X147940245Y-98650961D01*
X147945099Y-98650241D01*
X147950000Y-98650000D01*
X148050000Y-98650000D01*
X148054901Y-98650241D01*
G37*
G36*
X147654901Y-98650241D02*
G01*
X147659755Y-98650961D01*
X147664514Y-98652153D01*
X147669134Y-98653806D01*
X147673570Y-98655904D01*
X147677779Y-98658427D01*
X147681720Y-98661349D01*
X147685355Y-98664645D01*
X147688651Y-98668280D01*
X147691573Y-98672221D01*
X147694096Y-98676430D01*
X147696194Y-98680866D01*
X147697847Y-98685486D01*
X147699039Y-98690245D01*
X147699759Y-98695099D01*
X147700000Y-98700000D01*
X147700000Y-99400000D01*
X147699759Y-99404901D01*
X147699039Y-99409755D01*
X147697847Y-99414514D01*
X147696194Y-99419134D01*
X147694096Y-99423570D01*
X147691573Y-99427779D01*
X147688651Y-99431720D01*
X147685355Y-99435355D01*
X147681720Y-99438651D01*
X147677779Y-99441573D01*
X147673570Y-99444096D01*
X147669134Y-99446194D01*
X147664514Y-99447847D01*
X147659755Y-99449039D01*
X147654901Y-99449759D01*
X147650000Y-99450000D01*
X147550000Y-99450000D01*
X147545099Y-99449759D01*
X147540245Y-99449039D01*
X147535486Y-99447847D01*
X147530866Y-99446194D01*
X147526430Y-99444096D01*
X147522221Y-99441573D01*
X147518280Y-99438651D01*
X147514645Y-99435355D01*
X147511349Y-99431720D01*
X147508427Y-99427779D01*
X147505904Y-99423570D01*
X147503806Y-99419134D01*
X147502153Y-99414514D01*
X147500961Y-99409755D01*
X147500241Y-99404901D01*
X147500000Y-99400000D01*
X147500000Y-98700000D01*
X147500241Y-98695099D01*
X147500961Y-98690245D01*
X147502153Y-98685486D01*
X147503806Y-98680866D01*
X147505904Y-98676430D01*
X147508427Y-98672221D01*
X147511349Y-98668280D01*
X147514645Y-98664645D01*
X147518280Y-98661349D01*
X147522221Y-98658427D01*
X147526430Y-98655904D01*
X147530866Y-98653806D01*
X147535486Y-98652153D01*
X147540245Y-98650961D01*
X147545099Y-98650241D01*
X147550000Y-98650000D01*
X147650000Y-98650000D01*
X147654901Y-98650241D01*
G37*
G36*
X147254901Y-98650241D02*
G01*
X147259755Y-98650961D01*
X147264514Y-98652153D01*
X147269134Y-98653806D01*
X147273570Y-98655904D01*
X147277779Y-98658427D01*
X147281720Y-98661349D01*
X147285355Y-98664645D01*
X147288651Y-98668280D01*
X147291573Y-98672221D01*
X147294096Y-98676430D01*
X147296194Y-98680866D01*
X147297847Y-98685486D01*
X147299039Y-98690245D01*
X147299759Y-98695099D01*
X147300000Y-98700000D01*
X147300000Y-99400000D01*
X147299759Y-99404901D01*
X147299039Y-99409755D01*
X147297847Y-99414514D01*
X147296194Y-99419134D01*
X147294096Y-99423570D01*
X147291573Y-99427779D01*
X147288651Y-99431720D01*
X147285355Y-99435355D01*
X147281720Y-99438651D01*
X147277779Y-99441573D01*
X147273570Y-99444096D01*
X147269134Y-99446194D01*
X147264514Y-99447847D01*
X147259755Y-99449039D01*
X147254901Y-99449759D01*
X147250000Y-99450000D01*
X147150000Y-99450000D01*
X147145099Y-99449759D01*
X147140245Y-99449039D01*
X147135486Y-99447847D01*
X147130866Y-99446194D01*
X147126430Y-99444096D01*
X147122221Y-99441573D01*
X147118280Y-99438651D01*
X147114645Y-99435355D01*
X147111349Y-99431720D01*
X147108427Y-99427779D01*
X147105904Y-99423570D01*
X147103806Y-99419134D01*
X147102153Y-99414514D01*
X147100961Y-99409755D01*
X147100241Y-99404901D01*
X147100000Y-99400000D01*
X147100000Y-98700000D01*
X147100241Y-98695099D01*
X147100961Y-98690245D01*
X147102153Y-98685486D01*
X147103806Y-98680866D01*
X147105904Y-98676430D01*
X147108427Y-98672221D01*
X147111349Y-98668280D01*
X147114645Y-98664645D01*
X147118280Y-98661349D01*
X147122221Y-98658427D01*
X147126430Y-98655904D01*
X147130866Y-98653806D01*
X147135486Y-98652153D01*
X147140245Y-98650961D01*
X147145099Y-98650241D01*
X147150000Y-98650000D01*
X147250000Y-98650000D01*
X147254901Y-98650241D01*
G37*
G36*
X146854901Y-98650241D02*
G01*
X146859755Y-98650961D01*
X146864514Y-98652153D01*
X146869134Y-98653806D01*
X146873570Y-98655904D01*
X146877779Y-98658427D01*
X146881720Y-98661349D01*
X146885355Y-98664645D01*
X146888651Y-98668280D01*
X146891573Y-98672221D01*
X146894096Y-98676430D01*
X146896194Y-98680866D01*
X146897847Y-98685486D01*
X146899039Y-98690245D01*
X146899759Y-98695099D01*
X146900000Y-98700000D01*
X146900000Y-99400000D01*
X146899759Y-99404901D01*
X146899039Y-99409755D01*
X146897847Y-99414514D01*
X146896194Y-99419134D01*
X146894096Y-99423570D01*
X146891573Y-99427779D01*
X146888651Y-99431720D01*
X146885355Y-99435355D01*
X146881720Y-99438651D01*
X146877779Y-99441573D01*
X146873570Y-99444096D01*
X146869134Y-99446194D01*
X146864514Y-99447847D01*
X146859755Y-99449039D01*
X146854901Y-99449759D01*
X146850000Y-99450000D01*
X146750000Y-99450000D01*
X146745099Y-99449759D01*
X146740245Y-99449039D01*
X146735486Y-99447847D01*
X146730866Y-99446194D01*
X146726430Y-99444096D01*
X146722221Y-99441573D01*
X146718280Y-99438651D01*
X146714645Y-99435355D01*
X146711349Y-99431720D01*
X146708427Y-99427779D01*
X146705904Y-99423570D01*
X146703806Y-99419134D01*
X146702153Y-99414514D01*
X146700961Y-99409755D01*
X146700241Y-99404901D01*
X146700000Y-99400000D01*
X146700000Y-98700000D01*
X146700241Y-98695099D01*
X146700961Y-98690245D01*
X146702153Y-98685486D01*
X146703806Y-98680866D01*
X146705904Y-98676430D01*
X146708427Y-98672221D01*
X146711349Y-98668280D01*
X146714645Y-98664645D01*
X146718280Y-98661349D01*
X146722221Y-98658427D01*
X146726430Y-98655904D01*
X146730866Y-98653806D01*
X146735486Y-98652153D01*
X146740245Y-98650961D01*
X146745099Y-98650241D01*
X146750000Y-98650000D01*
X146850000Y-98650000D01*
X146854901Y-98650241D01*
G37*
G36*
X146300961Y-98760956D02*
G01*
X146303806Y-98751577D01*
X146308427Y-98742932D01*
X146314645Y-98735356D01*
X146385356Y-98664645D01*
X146392932Y-98658427D01*
X146401577Y-98653806D01*
X146410956Y-98650961D01*
X146420711Y-98650000D01*
X146450000Y-98650000D01*
X146459755Y-98650961D01*
X146469134Y-98653806D01*
X146477779Y-98658427D01*
X146485355Y-98664645D01*
X146491573Y-98672221D01*
X146496194Y-98680866D01*
X146499039Y-98690245D01*
X146500000Y-98700000D01*
X146500000Y-99400000D01*
X146499039Y-99409755D01*
X146496194Y-99419134D01*
X146491573Y-99427779D01*
X146485355Y-99435355D01*
X146477779Y-99441573D01*
X146469134Y-99446194D01*
X146459755Y-99449039D01*
X146450000Y-99450000D01*
X146350000Y-99450000D01*
X146340245Y-99449039D01*
X146330866Y-99446194D01*
X146322221Y-99441573D01*
X146314645Y-99435355D01*
X146308427Y-99427779D01*
X146303806Y-99419134D01*
X146300961Y-99409755D01*
X146300000Y-99400000D01*
X146300000Y-98770711D01*
X146300961Y-98760956D01*
G37*
G36*
X148769504Y-95906204D02*
G01*
X148793773Y-95909804D01*
X148817571Y-95915765D01*
X148840671Y-95924030D01*
X148862849Y-95934520D01*
X148883893Y-95947133D01*
X148903598Y-95961747D01*
X148921777Y-95978223D01*
X148938253Y-95996402D01*
X148952867Y-96016107D01*
X148965480Y-96037151D01*
X148975970Y-96059329D01*
X148984235Y-96082429D01*
X148990196Y-96106227D01*
X148993796Y-96130496D01*
X148995000Y-96155000D01*
X148995000Y-96725000D01*
X148993796Y-96749504D01*
X148990196Y-96773773D01*
X148984235Y-96797571D01*
X148975970Y-96820671D01*
X148965480Y-96842849D01*
X148952867Y-96863893D01*
X148938253Y-96883598D01*
X148921777Y-96901777D01*
X148903598Y-96918253D01*
X148883893Y-96932867D01*
X148862849Y-96945480D01*
X148840671Y-96955970D01*
X148817571Y-96964235D01*
X148793773Y-96970196D01*
X148769504Y-96973796D01*
X148745000Y-96975000D01*
X148175000Y-96975000D01*
X148150496Y-96973796D01*
X148126227Y-96970196D01*
X148102429Y-96964235D01*
X148079329Y-96955970D01*
X148057151Y-96945480D01*
X148036107Y-96932867D01*
X148016402Y-96918253D01*
X147998223Y-96901777D01*
X147981747Y-96883598D01*
X147967133Y-96863893D01*
X147954520Y-96842849D01*
X147944030Y-96820671D01*
X147935765Y-96797571D01*
X147929804Y-96773773D01*
X147926204Y-96749504D01*
X147925000Y-96725000D01*
X147925000Y-96155000D01*
X147926204Y-96130496D01*
X147929804Y-96106227D01*
X147935765Y-96082429D01*
X147944030Y-96059329D01*
X147954520Y-96037151D01*
X147967133Y-96016107D01*
X147981747Y-95996402D01*
X147998223Y-95978223D01*
X148016402Y-95961747D01*
X148036107Y-95947133D01*
X148057151Y-95934520D01*
X148079329Y-95924030D01*
X148102429Y-95915765D01*
X148126227Y-95909804D01*
X148150496Y-95906204D01*
X148175000Y-95905000D01*
X148745000Y-95905000D01*
X148769504Y-95906204D01*
G37*
G36*
X147449504Y-95906204D02*
G01*
X147473773Y-95909804D01*
X147497571Y-95915765D01*
X147520671Y-95924030D01*
X147542849Y-95934520D01*
X147563893Y-95947133D01*
X147583598Y-95961747D01*
X147601777Y-95978223D01*
X147618253Y-95996402D01*
X147632867Y-96016107D01*
X147645480Y-96037151D01*
X147655970Y-96059329D01*
X147664235Y-96082429D01*
X147670196Y-96106227D01*
X147673796Y-96130496D01*
X147675000Y-96155000D01*
X147675000Y-96725000D01*
X147673796Y-96749504D01*
X147670196Y-96773773D01*
X147664235Y-96797571D01*
X147655970Y-96820671D01*
X147645480Y-96842849D01*
X147632867Y-96863893D01*
X147618253Y-96883598D01*
X147601777Y-96901777D01*
X147583598Y-96918253D01*
X147563893Y-96932867D01*
X147542849Y-96945480D01*
X147520671Y-96955970D01*
X147497571Y-96964235D01*
X147473773Y-96970196D01*
X147449504Y-96973796D01*
X147425000Y-96975000D01*
X146855000Y-96975000D01*
X146830496Y-96973796D01*
X146806227Y-96970196D01*
X146782429Y-96964235D01*
X146759329Y-96955970D01*
X146737151Y-96945480D01*
X146716107Y-96932867D01*
X146696402Y-96918253D01*
X146678223Y-96901777D01*
X146661747Y-96883598D01*
X146647133Y-96863893D01*
X146634520Y-96842849D01*
X146624030Y-96820671D01*
X146615765Y-96797571D01*
X146609804Y-96773773D01*
X146606204Y-96749504D01*
X146605000Y-96725000D01*
X146605000Y-96155000D01*
X146606204Y-96130496D01*
X146609804Y-96106227D01*
X146615765Y-96082429D01*
X146624030Y-96059329D01*
X146634520Y-96037151D01*
X146647133Y-96016107D01*
X146661747Y-95996402D01*
X146678223Y-95978223D01*
X146696402Y-95961747D01*
X146716107Y-95947133D01*
X146737151Y-95934520D01*
X146759329Y-95924030D01*
X146782429Y-95915765D01*
X146806227Y-95909804D01*
X146830496Y-95906204D01*
X146855000Y-95905000D01*
X147425000Y-95905000D01*
X147449504Y-95906204D01*
G37*
G36*
X148769504Y-97226204D02*
G01*
X148793773Y-97229804D01*
X148817571Y-97235765D01*
X148840671Y-97244030D01*
X148862849Y-97254520D01*
X148883893Y-97267133D01*
X148903598Y-97281747D01*
X148921777Y-97298223D01*
X148938253Y-97316402D01*
X148952867Y-97336107D01*
X148965480Y-97357151D01*
X148975970Y-97379329D01*
X148984235Y-97402429D01*
X148990196Y-97426227D01*
X148993796Y-97450496D01*
X148995000Y-97475000D01*
X148995000Y-98045000D01*
X148993796Y-98069504D01*
X148990196Y-98093773D01*
X148984235Y-98117571D01*
X148975970Y-98140671D01*
X148965480Y-98162849D01*
X148952867Y-98183893D01*
X148938253Y-98203598D01*
X148921777Y-98221777D01*
X148903598Y-98238253D01*
X148883893Y-98252867D01*
X148862849Y-98265480D01*
X148840671Y-98275970D01*
X148817571Y-98284235D01*
X148793773Y-98290196D01*
X148769504Y-98293796D01*
X148745000Y-98295000D01*
X148175000Y-98295000D01*
X148150496Y-98293796D01*
X148126227Y-98290196D01*
X148102429Y-98284235D01*
X148079329Y-98275970D01*
X148057151Y-98265480D01*
X148036107Y-98252867D01*
X148016402Y-98238253D01*
X147998223Y-98221777D01*
X147981747Y-98203598D01*
X147967133Y-98183893D01*
X147954520Y-98162849D01*
X147944030Y-98140671D01*
X147935765Y-98117571D01*
X147929804Y-98093773D01*
X147926204Y-98069504D01*
X147925000Y-98045000D01*
X147925000Y-97475000D01*
X147926204Y-97450496D01*
X147929804Y-97426227D01*
X147935765Y-97402429D01*
X147944030Y-97379329D01*
X147954520Y-97357151D01*
X147967133Y-97336107D01*
X147981747Y-97316402D01*
X147998223Y-97298223D01*
X148016402Y-97281747D01*
X148036107Y-97267133D01*
X148057151Y-97254520D01*
X148079329Y-97244030D01*
X148102429Y-97235765D01*
X148126227Y-97229804D01*
X148150496Y-97226204D01*
X148175000Y-97225000D01*
X148745000Y-97225000D01*
X148769504Y-97226204D01*
G37*
G36*
X147449504Y-97226204D02*
G01*
X147473773Y-97229804D01*
X147497571Y-97235765D01*
X147520671Y-97244030D01*
X147542849Y-97254520D01*
X147563893Y-97267133D01*
X147583598Y-97281747D01*
X147601777Y-97298223D01*
X147618253Y-97316402D01*
X147632867Y-97336107D01*
X147645480Y-97357151D01*
X147655970Y-97379329D01*
X147664235Y-97402429D01*
X147670196Y-97426227D01*
X147673796Y-97450496D01*
X147675000Y-97475000D01*
X147675000Y-98045000D01*
X147673796Y-98069504D01*
X147670196Y-98093773D01*
X147664235Y-98117571D01*
X147655970Y-98140671D01*
X147645480Y-98162849D01*
X147632867Y-98183893D01*
X147618253Y-98203598D01*
X147601777Y-98221777D01*
X147583598Y-98238253D01*
X147563893Y-98252867D01*
X147542849Y-98265480D01*
X147520671Y-98275970D01*
X147497571Y-98284235D01*
X147473773Y-98290196D01*
X147449504Y-98293796D01*
X147425000Y-98295000D01*
X146855000Y-98295000D01*
X146830496Y-98293796D01*
X146806227Y-98290196D01*
X146782429Y-98284235D01*
X146759329Y-98275970D01*
X146737151Y-98265480D01*
X146716107Y-98252867D01*
X146696402Y-98238253D01*
X146678223Y-98221777D01*
X146661747Y-98203598D01*
X146647133Y-98183893D01*
X146634520Y-98162849D01*
X146624030Y-98140671D01*
X146615765Y-98117571D01*
X146609804Y-98093773D01*
X146606204Y-98069504D01*
X146605000Y-98045000D01*
X146605000Y-97475000D01*
X146606204Y-97450496D01*
X146609804Y-97426227D01*
X146615765Y-97402429D01*
X146624030Y-97379329D01*
X146634520Y-97357151D01*
X146647133Y-97336107D01*
X146661747Y-97316402D01*
X146678223Y-97298223D01*
X146696402Y-97281747D01*
X146716107Y-97267133D01*
X146737151Y-97254520D01*
X146759329Y-97244030D01*
X146782429Y-97235765D01*
X146806227Y-97229804D01*
X146830496Y-97226204D01*
X146855000Y-97225000D01*
X147425000Y-97225000D01*
X147449504Y-97226204D01*
G37*
G36*
X143746958Y-100480710D02*
G01*
X143761276Y-100482834D01*
X143775317Y-100486351D01*
X143788946Y-100491228D01*
X143802031Y-100497417D01*
X143814447Y-100504858D01*
X143826073Y-100513481D01*
X143836798Y-100523202D01*
X143846519Y-100533927D01*
X143855142Y-100545553D01*
X143862583Y-100557969D01*
X143868772Y-100571054D01*
X143873649Y-100584683D01*
X143877166Y-100598724D01*
X143879290Y-100613042D01*
X143880000Y-100627500D01*
X143880000Y-100972500D01*
X143879290Y-100986958D01*
X143877166Y-101001276D01*
X143873649Y-101015317D01*
X143868772Y-101028946D01*
X143862583Y-101042031D01*
X143855142Y-101054447D01*
X143846519Y-101066073D01*
X143836798Y-101076798D01*
X143826073Y-101086519D01*
X143814447Y-101095142D01*
X143802031Y-101102583D01*
X143788946Y-101108772D01*
X143775317Y-101113649D01*
X143761276Y-101117166D01*
X143746958Y-101119290D01*
X143732500Y-101120000D01*
X143437500Y-101120000D01*
X143423042Y-101119290D01*
X143408724Y-101117166D01*
X143394683Y-101113649D01*
X143381054Y-101108772D01*
X143367969Y-101102583D01*
X143355553Y-101095142D01*
X143343927Y-101086519D01*
X143333202Y-101076798D01*
X143323481Y-101066073D01*
X143314858Y-101054447D01*
X143307417Y-101042031D01*
X143301228Y-101028946D01*
X143296351Y-101015317D01*
X143292834Y-101001276D01*
X143290710Y-100986958D01*
X143290000Y-100972500D01*
X143290000Y-100627500D01*
X143290710Y-100613042D01*
X143292834Y-100598724D01*
X143296351Y-100584683D01*
X143301228Y-100571054D01*
X143307417Y-100557969D01*
X143314858Y-100545553D01*
X143323481Y-100533927D01*
X143333202Y-100523202D01*
X143343927Y-100513481D01*
X143355553Y-100504858D01*
X143367969Y-100497417D01*
X143381054Y-100491228D01*
X143394683Y-100486351D01*
X143408724Y-100482834D01*
X143423042Y-100480710D01*
X143437500Y-100480000D01*
X143732500Y-100480000D01*
X143746958Y-100480710D01*
G37*
G36*
X142776958Y-100480710D02*
G01*
X142791276Y-100482834D01*
X142805317Y-100486351D01*
X142818946Y-100491228D01*
X142832031Y-100497417D01*
X142844447Y-100504858D01*
X142856073Y-100513481D01*
X142866798Y-100523202D01*
X142876519Y-100533927D01*
X142885142Y-100545553D01*
X142892583Y-100557969D01*
X142898772Y-100571054D01*
X142903649Y-100584683D01*
X142907166Y-100598724D01*
X142909290Y-100613042D01*
X142910000Y-100627500D01*
X142910000Y-100972500D01*
X142909290Y-100986958D01*
X142907166Y-101001276D01*
X142903649Y-101015317D01*
X142898772Y-101028946D01*
X142892583Y-101042031D01*
X142885142Y-101054447D01*
X142876519Y-101066073D01*
X142866798Y-101076798D01*
X142856073Y-101086519D01*
X142844447Y-101095142D01*
X142832031Y-101102583D01*
X142818946Y-101108772D01*
X142805317Y-101113649D01*
X142791276Y-101117166D01*
X142776958Y-101119290D01*
X142762500Y-101120000D01*
X142467500Y-101120000D01*
X142453042Y-101119290D01*
X142438724Y-101117166D01*
X142424683Y-101113649D01*
X142411054Y-101108772D01*
X142397969Y-101102583D01*
X142385553Y-101095142D01*
X142373927Y-101086519D01*
X142363202Y-101076798D01*
X142353481Y-101066073D01*
X142344858Y-101054447D01*
X142337417Y-101042031D01*
X142331228Y-101028946D01*
X142326351Y-101015317D01*
X142322834Y-101001276D01*
X142320710Y-100986958D01*
X142320000Y-100972500D01*
X142320000Y-100627500D01*
X142320710Y-100613042D01*
X142322834Y-100598724D01*
X142326351Y-100584683D01*
X142331228Y-100571054D01*
X142337417Y-100557969D01*
X142344858Y-100545553D01*
X142353481Y-100533927D01*
X142363202Y-100523202D01*
X142373927Y-100513481D01*
X142385553Y-100504858D01*
X142397969Y-100497417D01*
X142411054Y-100491228D01*
X142424683Y-100486351D01*
X142438724Y-100482834D01*
X142453042Y-100480710D01*
X142467500Y-100480000D01*
X142762500Y-100480000D01*
X142776958Y-100480710D01*
G37*
G36*
X143846958Y-106580710D02*
G01*
X143861276Y-106582834D01*
X143875317Y-106586351D01*
X143888946Y-106591228D01*
X143902031Y-106597417D01*
X143914447Y-106604858D01*
X143926073Y-106613481D01*
X143936798Y-106623202D01*
X143946519Y-106633927D01*
X143955142Y-106645553D01*
X143962583Y-106657969D01*
X143968772Y-106671054D01*
X143973649Y-106684683D01*
X143977166Y-106698724D01*
X143979290Y-106713042D01*
X143980000Y-106727500D01*
X143980000Y-107072500D01*
X143979290Y-107086958D01*
X143977166Y-107101276D01*
X143973649Y-107115317D01*
X143968772Y-107128946D01*
X143962583Y-107142031D01*
X143955142Y-107154447D01*
X143946519Y-107166073D01*
X143936798Y-107176798D01*
X143926073Y-107186519D01*
X143914447Y-107195142D01*
X143902031Y-107202583D01*
X143888946Y-107208772D01*
X143875317Y-107213649D01*
X143861276Y-107217166D01*
X143846958Y-107219290D01*
X143832500Y-107220000D01*
X143537500Y-107220000D01*
X143523042Y-107219290D01*
X143508724Y-107217166D01*
X143494683Y-107213649D01*
X143481054Y-107208772D01*
X143467969Y-107202583D01*
X143455553Y-107195142D01*
X143443927Y-107186519D01*
X143433202Y-107176798D01*
X143423481Y-107166073D01*
X143414858Y-107154447D01*
X143407417Y-107142031D01*
X143401228Y-107128946D01*
X143396351Y-107115317D01*
X143392834Y-107101276D01*
X143390710Y-107086958D01*
X143390000Y-107072500D01*
X143390000Y-106727500D01*
X143390710Y-106713042D01*
X143392834Y-106698724D01*
X143396351Y-106684683D01*
X143401228Y-106671054D01*
X143407417Y-106657969D01*
X143414858Y-106645553D01*
X143423481Y-106633927D01*
X143433202Y-106623202D01*
X143443927Y-106613481D01*
X143455553Y-106604858D01*
X143467969Y-106597417D01*
X143481054Y-106591228D01*
X143494683Y-106586351D01*
X143508724Y-106582834D01*
X143523042Y-106580710D01*
X143537500Y-106580000D01*
X143832500Y-106580000D01*
X143846958Y-106580710D01*
G37*
G36*
X142876958Y-106580710D02*
G01*
X142891276Y-106582834D01*
X142905317Y-106586351D01*
X142918946Y-106591228D01*
X142932031Y-106597417D01*
X142944447Y-106604858D01*
X142956073Y-106613481D01*
X142966798Y-106623202D01*
X142976519Y-106633927D01*
X142985142Y-106645553D01*
X142992583Y-106657969D01*
X142998772Y-106671054D01*
X143003649Y-106684683D01*
X143007166Y-106698724D01*
X143009290Y-106713042D01*
X143010000Y-106727500D01*
X143010000Y-107072500D01*
X143009290Y-107086958D01*
X143007166Y-107101276D01*
X143003649Y-107115317D01*
X142998772Y-107128946D01*
X142992583Y-107142031D01*
X142985142Y-107154447D01*
X142976519Y-107166073D01*
X142966798Y-107176798D01*
X142956073Y-107186519D01*
X142944447Y-107195142D01*
X142932031Y-107202583D01*
X142918946Y-107208772D01*
X142905317Y-107213649D01*
X142891276Y-107217166D01*
X142876958Y-107219290D01*
X142862500Y-107220000D01*
X142567500Y-107220000D01*
X142553042Y-107219290D01*
X142538724Y-107217166D01*
X142524683Y-107213649D01*
X142511054Y-107208772D01*
X142497969Y-107202583D01*
X142485553Y-107195142D01*
X142473927Y-107186519D01*
X142463202Y-107176798D01*
X142453481Y-107166073D01*
X142444858Y-107154447D01*
X142437417Y-107142031D01*
X142431228Y-107128946D01*
X142426351Y-107115317D01*
X142422834Y-107101276D01*
X142420710Y-107086958D01*
X142420000Y-107072500D01*
X142420000Y-106727500D01*
X142420710Y-106713042D01*
X142422834Y-106698724D01*
X142426351Y-106684683D01*
X142431228Y-106671054D01*
X142437417Y-106657969D01*
X142444858Y-106645553D01*
X142453481Y-106633927D01*
X142463202Y-106623202D01*
X142473927Y-106613481D01*
X142485553Y-106604858D01*
X142497969Y-106597417D01*
X142511054Y-106591228D01*
X142524683Y-106586351D01*
X142538724Y-106582834D01*
X142553042Y-106580710D01*
X142567500Y-106580000D01*
X142862500Y-106580000D01*
X142876958Y-106580710D01*
G37*
G36*
X155776958Y-96980710D02*
G01*
X155791276Y-96982834D01*
X155805317Y-96986351D01*
X155818946Y-96991228D01*
X155832031Y-96997417D01*
X155844447Y-97004858D01*
X155856073Y-97013481D01*
X155866798Y-97023202D01*
X155876519Y-97033927D01*
X155885142Y-97045553D01*
X155892583Y-97057969D01*
X155898772Y-97071054D01*
X155903649Y-97084683D01*
X155907166Y-97098724D01*
X155909290Y-97113042D01*
X155910000Y-97127500D01*
X155910000Y-97472500D01*
X155909290Y-97486958D01*
X155907166Y-97501276D01*
X155903649Y-97515317D01*
X155898772Y-97528946D01*
X155892583Y-97542031D01*
X155885142Y-97554447D01*
X155876519Y-97566073D01*
X155866798Y-97576798D01*
X155856073Y-97586519D01*
X155844447Y-97595142D01*
X155832031Y-97602583D01*
X155818946Y-97608772D01*
X155805317Y-97613649D01*
X155791276Y-97617166D01*
X155776958Y-97619290D01*
X155762500Y-97620000D01*
X155467500Y-97620000D01*
X155453042Y-97619290D01*
X155438724Y-97617166D01*
X155424683Y-97613649D01*
X155411054Y-97608772D01*
X155397969Y-97602583D01*
X155385553Y-97595142D01*
X155373927Y-97586519D01*
X155363202Y-97576798D01*
X155353481Y-97566073D01*
X155344858Y-97554447D01*
X155337417Y-97542031D01*
X155331228Y-97528946D01*
X155326351Y-97515317D01*
X155322834Y-97501276D01*
X155320710Y-97486958D01*
X155320000Y-97472500D01*
X155320000Y-97127500D01*
X155320710Y-97113042D01*
X155322834Y-97098724D01*
X155326351Y-97084683D01*
X155331228Y-97071054D01*
X155337417Y-97057969D01*
X155344858Y-97045553D01*
X155353481Y-97033927D01*
X155363202Y-97023202D01*
X155373927Y-97013481D01*
X155385553Y-97004858D01*
X155397969Y-96997417D01*
X155411054Y-96991228D01*
X155424683Y-96986351D01*
X155438724Y-96982834D01*
X155453042Y-96980710D01*
X155467500Y-96980000D01*
X155762500Y-96980000D01*
X155776958Y-96980710D01*
G37*
G36*
X156746958Y-96980710D02*
G01*
X156761276Y-96982834D01*
X156775317Y-96986351D01*
X156788946Y-96991228D01*
X156802031Y-96997417D01*
X156814447Y-97004858D01*
X156826073Y-97013481D01*
X156836798Y-97023202D01*
X156846519Y-97033927D01*
X156855142Y-97045553D01*
X156862583Y-97057969D01*
X156868772Y-97071054D01*
X156873649Y-97084683D01*
X156877166Y-97098724D01*
X156879290Y-97113042D01*
X156880000Y-97127500D01*
X156880000Y-97472500D01*
X156879290Y-97486958D01*
X156877166Y-97501276D01*
X156873649Y-97515317D01*
X156868772Y-97528946D01*
X156862583Y-97542031D01*
X156855142Y-97554447D01*
X156846519Y-97566073D01*
X156836798Y-97576798D01*
X156826073Y-97586519D01*
X156814447Y-97595142D01*
X156802031Y-97602583D01*
X156788946Y-97608772D01*
X156775317Y-97613649D01*
X156761276Y-97617166D01*
X156746958Y-97619290D01*
X156732500Y-97620000D01*
X156437500Y-97620000D01*
X156423042Y-97619290D01*
X156408724Y-97617166D01*
X156394683Y-97613649D01*
X156381054Y-97608772D01*
X156367969Y-97602583D01*
X156355553Y-97595142D01*
X156343927Y-97586519D01*
X156333202Y-97576798D01*
X156323481Y-97566073D01*
X156314858Y-97554447D01*
X156307417Y-97542031D01*
X156301228Y-97528946D01*
X156296351Y-97515317D01*
X156292834Y-97501276D01*
X156290710Y-97486958D01*
X156290000Y-97472500D01*
X156290000Y-97127500D01*
X156290710Y-97113042D01*
X156292834Y-97098724D01*
X156296351Y-97084683D01*
X156301228Y-97071054D01*
X156307417Y-97057969D01*
X156314858Y-97045553D01*
X156323481Y-97033927D01*
X156333202Y-97023202D01*
X156343927Y-97013481D01*
X156355553Y-97004858D01*
X156367969Y-96997417D01*
X156381054Y-96991228D01*
X156394683Y-96986351D01*
X156408724Y-96982834D01*
X156423042Y-96980710D01*
X156437500Y-96980000D01*
X156732500Y-96980000D01*
X156746958Y-96980710D01*
G37*
G36*
X154686958Y-97950710D02*
G01*
X154701276Y-97952834D01*
X154715317Y-97956351D01*
X154728946Y-97961228D01*
X154742031Y-97967417D01*
X154754447Y-97974858D01*
X154766073Y-97983481D01*
X154776798Y-97993202D01*
X154786519Y-98003927D01*
X154795142Y-98015553D01*
X154802583Y-98027969D01*
X154808772Y-98041054D01*
X154813649Y-98054683D01*
X154817166Y-98068724D01*
X154819290Y-98083042D01*
X154820000Y-98097500D01*
X154820000Y-98392500D01*
X154819290Y-98406958D01*
X154817166Y-98421276D01*
X154813649Y-98435317D01*
X154808772Y-98448946D01*
X154802583Y-98462031D01*
X154795142Y-98474447D01*
X154786519Y-98486073D01*
X154776798Y-98496798D01*
X154766073Y-98506519D01*
X154754447Y-98515142D01*
X154742031Y-98522583D01*
X154728946Y-98528772D01*
X154715317Y-98533649D01*
X154701276Y-98537166D01*
X154686958Y-98539290D01*
X154672500Y-98540000D01*
X154327500Y-98540000D01*
X154313042Y-98539290D01*
X154298724Y-98537166D01*
X154284683Y-98533649D01*
X154271054Y-98528772D01*
X154257969Y-98522583D01*
X154245553Y-98515142D01*
X154233927Y-98506519D01*
X154223202Y-98496798D01*
X154213481Y-98486073D01*
X154204858Y-98474447D01*
X154197417Y-98462031D01*
X154191228Y-98448946D01*
X154186351Y-98435317D01*
X154182834Y-98421276D01*
X154180710Y-98406958D01*
X154180000Y-98392500D01*
X154180000Y-98097500D01*
X154180710Y-98083042D01*
X154182834Y-98068724D01*
X154186351Y-98054683D01*
X154191228Y-98041054D01*
X154197417Y-98027969D01*
X154204858Y-98015553D01*
X154213481Y-98003927D01*
X154223202Y-97993202D01*
X154233927Y-97983481D01*
X154245553Y-97974858D01*
X154257969Y-97967417D01*
X154271054Y-97961228D01*
X154284683Y-97956351D01*
X154298724Y-97952834D01*
X154313042Y-97950710D01*
X154327500Y-97950000D01*
X154672500Y-97950000D01*
X154686958Y-97950710D01*
G37*
G36*
X154686958Y-96980710D02*
G01*
X154701276Y-96982834D01*
X154715317Y-96986351D01*
X154728946Y-96991228D01*
X154742031Y-96997417D01*
X154754447Y-97004858D01*
X154766073Y-97013481D01*
X154776798Y-97023202D01*
X154786519Y-97033927D01*
X154795142Y-97045553D01*
X154802583Y-97057969D01*
X154808772Y-97071054D01*
X154813649Y-97084683D01*
X154817166Y-97098724D01*
X154819290Y-97113042D01*
X154820000Y-97127500D01*
X154820000Y-97422500D01*
X154819290Y-97436958D01*
X154817166Y-97451276D01*
X154813649Y-97465317D01*
X154808772Y-97478946D01*
X154802583Y-97492031D01*
X154795142Y-97504447D01*
X154786519Y-97516073D01*
X154776798Y-97526798D01*
X154766073Y-97536519D01*
X154754447Y-97545142D01*
X154742031Y-97552583D01*
X154728946Y-97558772D01*
X154715317Y-97563649D01*
X154701276Y-97567166D01*
X154686958Y-97569290D01*
X154672500Y-97570000D01*
X154327500Y-97570000D01*
X154313042Y-97569290D01*
X154298724Y-97567166D01*
X154284683Y-97563649D01*
X154271054Y-97558772D01*
X154257969Y-97552583D01*
X154245553Y-97545142D01*
X154233927Y-97536519D01*
X154223202Y-97526798D01*
X154213481Y-97516073D01*
X154204858Y-97504447D01*
X154197417Y-97492031D01*
X154191228Y-97478946D01*
X154186351Y-97465317D01*
X154182834Y-97451276D01*
X154180710Y-97436958D01*
X154180000Y-97422500D01*
X154180000Y-97127500D01*
X154180710Y-97113042D01*
X154182834Y-97098724D01*
X154186351Y-97084683D01*
X154191228Y-97071054D01*
X154197417Y-97057969D01*
X154204858Y-97045553D01*
X154213481Y-97033927D01*
X154223202Y-97023202D01*
X154233927Y-97013481D01*
X154245553Y-97004858D01*
X154257969Y-96997417D01*
X154271054Y-96991228D01*
X154284683Y-96986351D01*
X154298724Y-96982834D01*
X154313042Y-96980710D01*
X154327500Y-96980000D01*
X154672500Y-96980000D01*
X154686958Y-96980710D01*
G37*
G36*
X151786958Y-97950710D02*
G01*
X151801276Y-97952834D01*
X151815317Y-97956351D01*
X151828946Y-97961228D01*
X151842031Y-97967417D01*
X151854447Y-97974858D01*
X151866073Y-97983481D01*
X151876798Y-97993202D01*
X151886519Y-98003927D01*
X151895142Y-98015553D01*
X151902583Y-98027969D01*
X151908772Y-98041054D01*
X151913649Y-98054683D01*
X151917166Y-98068724D01*
X151919290Y-98083042D01*
X151920000Y-98097500D01*
X151920000Y-98392500D01*
X151919290Y-98406958D01*
X151917166Y-98421276D01*
X151913649Y-98435317D01*
X151908772Y-98448946D01*
X151902583Y-98462031D01*
X151895142Y-98474447D01*
X151886519Y-98486073D01*
X151876798Y-98496798D01*
X151866073Y-98506519D01*
X151854447Y-98515142D01*
X151842031Y-98522583D01*
X151828946Y-98528772D01*
X151815317Y-98533649D01*
X151801276Y-98537166D01*
X151786958Y-98539290D01*
X151772500Y-98540000D01*
X151427500Y-98540000D01*
X151413042Y-98539290D01*
X151398724Y-98537166D01*
X151384683Y-98533649D01*
X151371054Y-98528772D01*
X151357969Y-98522583D01*
X151345553Y-98515142D01*
X151333927Y-98506519D01*
X151323202Y-98496798D01*
X151313481Y-98486073D01*
X151304858Y-98474447D01*
X151297417Y-98462031D01*
X151291228Y-98448946D01*
X151286351Y-98435317D01*
X151282834Y-98421276D01*
X151280710Y-98406958D01*
X151280000Y-98392500D01*
X151280000Y-98097500D01*
X151280710Y-98083042D01*
X151282834Y-98068724D01*
X151286351Y-98054683D01*
X151291228Y-98041054D01*
X151297417Y-98027969D01*
X151304858Y-98015553D01*
X151313481Y-98003927D01*
X151323202Y-97993202D01*
X151333927Y-97983481D01*
X151345553Y-97974858D01*
X151357969Y-97967417D01*
X151371054Y-97961228D01*
X151384683Y-97956351D01*
X151398724Y-97952834D01*
X151413042Y-97950710D01*
X151427500Y-97950000D01*
X151772500Y-97950000D01*
X151786958Y-97950710D01*
G37*
G36*
X151786958Y-96980710D02*
G01*
X151801276Y-96982834D01*
X151815317Y-96986351D01*
X151828946Y-96991228D01*
X151842031Y-96997417D01*
X151854447Y-97004858D01*
X151866073Y-97013481D01*
X151876798Y-97023202D01*
X151886519Y-97033927D01*
X151895142Y-97045553D01*
X151902583Y-97057969D01*
X151908772Y-97071054D01*
X151913649Y-97084683D01*
X151917166Y-97098724D01*
X151919290Y-97113042D01*
X151920000Y-97127500D01*
X151920000Y-97422500D01*
X151919290Y-97436958D01*
X151917166Y-97451276D01*
X151913649Y-97465317D01*
X151908772Y-97478946D01*
X151902583Y-97492031D01*
X151895142Y-97504447D01*
X151886519Y-97516073D01*
X151876798Y-97526798D01*
X151866073Y-97536519D01*
X151854447Y-97545142D01*
X151842031Y-97552583D01*
X151828946Y-97558772D01*
X151815317Y-97563649D01*
X151801276Y-97567166D01*
X151786958Y-97569290D01*
X151772500Y-97570000D01*
X151427500Y-97570000D01*
X151413042Y-97569290D01*
X151398724Y-97567166D01*
X151384683Y-97563649D01*
X151371054Y-97558772D01*
X151357969Y-97552583D01*
X151345553Y-97545142D01*
X151333927Y-97536519D01*
X151323202Y-97526798D01*
X151313481Y-97516073D01*
X151304858Y-97504447D01*
X151297417Y-97492031D01*
X151291228Y-97478946D01*
X151286351Y-97465317D01*
X151282834Y-97451276D01*
X151280710Y-97436958D01*
X151280000Y-97422500D01*
X151280000Y-97127500D01*
X151280710Y-97113042D01*
X151282834Y-97098724D01*
X151286351Y-97084683D01*
X151291228Y-97071054D01*
X151297417Y-97057969D01*
X151304858Y-97045553D01*
X151313481Y-97033927D01*
X151323202Y-97023202D01*
X151333927Y-97013481D01*
X151345553Y-97004858D01*
X151357969Y-96997417D01*
X151371054Y-96991228D01*
X151384683Y-96986351D01*
X151398724Y-96982834D01*
X151413042Y-96980710D01*
X151427500Y-96980000D01*
X151772500Y-96980000D01*
X151786958Y-96980710D01*
G37*
G36*
X151786958Y-95043200D02*
G01*
X151801276Y-95045324D01*
X151815317Y-95048841D01*
X151828946Y-95053718D01*
X151842031Y-95059907D01*
X151854447Y-95067348D01*
X151866073Y-95075971D01*
X151876798Y-95085692D01*
X151886519Y-95096417D01*
X151895142Y-95108043D01*
X151902583Y-95120459D01*
X151908772Y-95133544D01*
X151913649Y-95147173D01*
X151917166Y-95161214D01*
X151919290Y-95175532D01*
X151920000Y-95189990D01*
X151920000Y-95484990D01*
X151919290Y-95499448D01*
X151917166Y-95513766D01*
X151913649Y-95527807D01*
X151908772Y-95541436D01*
X151902583Y-95554521D01*
X151895142Y-95566937D01*
X151886519Y-95578563D01*
X151876798Y-95589288D01*
X151866073Y-95599009D01*
X151854447Y-95607632D01*
X151842031Y-95615073D01*
X151828946Y-95621262D01*
X151815317Y-95626139D01*
X151801276Y-95629656D01*
X151786958Y-95631780D01*
X151772500Y-95632490D01*
X151427500Y-95632490D01*
X151413042Y-95631780D01*
X151398724Y-95629656D01*
X151384683Y-95626139D01*
X151371054Y-95621262D01*
X151357969Y-95615073D01*
X151345553Y-95607632D01*
X151333927Y-95599009D01*
X151323202Y-95589288D01*
X151313481Y-95578563D01*
X151304858Y-95566937D01*
X151297417Y-95554521D01*
X151291228Y-95541436D01*
X151286351Y-95527807D01*
X151282834Y-95513766D01*
X151280710Y-95499448D01*
X151280000Y-95484990D01*
X151280000Y-95189990D01*
X151280710Y-95175532D01*
X151282834Y-95161214D01*
X151286351Y-95147173D01*
X151291228Y-95133544D01*
X151297417Y-95120459D01*
X151304858Y-95108043D01*
X151313481Y-95096417D01*
X151323202Y-95085692D01*
X151333927Y-95075971D01*
X151345553Y-95067348D01*
X151357969Y-95059907D01*
X151371054Y-95053718D01*
X151384683Y-95048841D01*
X151398724Y-95045324D01*
X151413042Y-95043200D01*
X151427500Y-95042490D01*
X151772500Y-95042490D01*
X151786958Y-95043200D01*
G37*
G36*
X151786958Y-96013200D02*
G01*
X151801276Y-96015324D01*
X151815317Y-96018841D01*
X151828946Y-96023718D01*
X151842031Y-96029907D01*
X151854447Y-96037348D01*
X151866073Y-96045971D01*
X151876798Y-96055692D01*
X151886519Y-96066417D01*
X151895142Y-96078043D01*
X151902583Y-96090459D01*
X151908772Y-96103544D01*
X151913649Y-96117173D01*
X151917166Y-96131214D01*
X151919290Y-96145532D01*
X151920000Y-96159990D01*
X151920000Y-96454990D01*
X151919290Y-96469448D01*
X151917166Y-96483766D01*
X151913649Y-96497807D01*
X151908772Y-96511436D01*
X151902583Y-96524521D01*
X151895142Y-96536937D01*
X151886519Y-96548563D01*
X151876798Y-96559288D01*
X151866073Y-96569009D01*
X151854447Y-96577632D01*
X151842031Y-96585073D01*
X151828946Y-96591262D01*
X151815317Y-96596139D01*
X151801276Y-96599656D01*
X151786958Y-96601780D01*
X151772500Y-96602490D01*
X151427500Y-96602490D01*
X151413042Y-96601780D01*
X151398724Y-96599656D01*
X151384683Y-96596139D01*
X151371054Y-96591262D01*
X151357969Y-96585073D01*
X151345553Y-96577632D01*
X151333927Y-96569009D01*
X151323202Y-96559288D01*
X151313481Y-96548563D01*
X151304858Y-96536937D01*
X151297417Y-96524521D01*
X151291228Y-96511436D01*
X151286351Y-96497807D01*
X151282834Y-96483766D01*
X151280710Y-96469448D01*
X151280000Y-96454990D01*
X151280000Y-96159990D01*
X151280710Y-96145532D01*
X151282834Y-96131214D01*
X151286351Y-96117173D01*
X151291228Y-96103544D01*
X151297417Y-96090459D01*
X151304858Y-96078043D01*
X151313481Y-96066417D01*
X151323202Y-96055692D01*
X151333927Y-96045971D01*
X151345553Y-96037348D01*
X151357969Y-96029907D01*
X151371054Y-96023718D01*
X151384683Y-96018841D01*
X151398724Y-96015324D01*
X151413042Y-96013200D01*
X151427500Y-96012490D01*
X151772500Y-96012490D01*
X151786958Y-96013200D01*
G37*
G36*
X143465358Y-95414710D02*
G01*
X143479676Y-95416834D01*
X143493717Y-95420351D01*
X143507346Y-95425228D01*
X143520431Y-95431417D01*
X143532847Y-95438858D01*
X143544473Y-95447481D01*
X143555198Y-95457202D01*
X143564919Y-95467927D01*
X143573542Y-95479553D01*
X143580983Y-95491969D01*
X143587172Y-95505054D01*
X143592049Y-95518683D01*
X143595566Y-95532724D01*
X143597690Y-95547042D01*
X143598400Y-95561500D01*
X143598400Y-95856500D01*
X143597690Y-95870958D01*
X143595566Y-95885276D01*
X143592049Y-95899317D01*
X143587172Y-95912946D01*
X143580983Y-95926031D01*
X143573542Y-95938447D01*
X143564919Y-95950073D01*
X143555198Y-95960798D01*
X143544473Y-95970519D01*
X143532847Y-95979142D01*
X143520431Y-95986583D01*
X143507346Y-95992772D01*
X143493717Y-95997649D01*
X143479676Y-96001166D01*
X143465358Y-96003290D01*
X143450900Y-96004000D01*
X143105900Y-96004000D01*
X143091442Y-96003290D01*
X143077124Y-96001166D01*
X143063083Y-95997649D01*
X143049454Y-95992772D01*
X143036369Y-95986583D01*
X143023953Y-95979142D01*
X143012327Y-95970519D01*
X143001602Y-95960798D01*
X142991881Y-95950073D01*
X142983258Y-95938447D01*
X142975817Y-95926031D01*
X142969628Y-95912946D01*
X142964751Y-95899317D01*
X142961234Y-95885276D01*
X142959110Y-95870958D01*
X142958400Y-95856500D01*
X142958400Y-95561500D01*
X142959110Y-95547042D01*
X142961234Y-95532724D01*
X142964751Y-95518683D01*
X142969628Y-95505054D01*
X142975817Y-95491969D01*
X142983258Y-95479553D01*
X142991881Y-95467927D01*
X143001602Y-95457202D01*
X143012327Y-95447481D01*
X143023953Y-95438858D01*
X143036369Y-95431417D01*
X143049454Y-95425228D01*
X143063083Y-95420351D01*
X143077124Y-95416834D01*
X143091442Y-95414710D01*
X143105900Y-95414000D01*
X143450900Y-95414000D01*
X143465358Y-95414710D01*
G37*
G36*
X143465358Y-96384710D02*
G01*
X143479676Y-96386834D01*
X143493717Y-96390351D01*
X143507346Y-96395228D01*
X143520431Y-96401417D01*
X143532847Y-96408858D01*
X143544473Y-96417481D01*
X143555198Y-96427202D01*
X143564919Y-96437927D01*
X143573542Y-96449553D01*
X143580983Y-96461969D01*
X143587172Y-96475054D01*
X143592049Y-96488683D01*
X143595566Y-96502724D01*
X143597690Y-96517042D01*
X143598400Y-96531500D01*
X143598400Y-96826500D01*
X143597690Y-96840958D01*
X143595566Y-96855276D01*
X143592049Y-96869317D01*
X143587172Y-96882946D01*
X143580983Y-96896031D01*
X143573542Y-96908447D01*
X143564919Y-96920073D01*
X143555198Y-96930798D01*
X143544473Y-96940519D01*
X143532847Y-96949142D01*
X143520431Y-96956583D01*
X143507346Y-96962772D01*
X143493717Y-96967649D01*
X143479676Y-96971166D01*
X143465358Y-96973290D01*
X143450900Y-96974000D01*
X143105900Y-96974000D01*
X143091442Y-96973290D01*
X143077124Y-96971166D01*
X143063083Y-96967649D01*
X143049454Y-96962772D01*
X143036369Y-96956583D01*
X143023953Y-96949142D01*
X143012327Y-96940519D01*
X143001602Y-96930798D01*
X142991881Y-96920073D01*
X142983258Y-96908447D01*
X142975817Y-96896031D01*
X142969628Y-96882946D01*
X142964751Y-96869317D01*
X142961234Y-96855276D01*
X142959110Y-96840958D01*
X142958400Y-96826500D01*
X142958400Y-96531500D01*
X142959110Y-96517042D01*
X142961234Y-96502724D01*
X142964751Y-96488683D01*
X142969628Y-96475054D01*
X142975817Y-96461969D01*
X142983258Y-96449553D01*
X142991881Y-96437927D01*
X143001602Y-96427202D01*
X143012327Y-96417481D01*
X143023953Y-96408858D01*
X143036369Y-96401417D01*
X143049454Y-96395228D01*
X143063083Y-96390351D01*
X143077124Y-96386834D01*
X143091442Y-96384710D01*
X143105900Y-96384000D01*
X143450900Y-96384000D01*
X143465358Y-96384710D01*
G37*
G36*
X141534958Y-95414710D02*
G01*
X141549276Y-95416834D01*
X141563317Y-95420351D01*
X141576946Y-95425228D01*
X141590031Y-95431417D01*
X141602447Y-95438858D01*
X141614073Y-95447481D01*
X141624798Y-95457202D01*
X141634519Y-95467927D01*
X141643142Y-95479553D01*
X141650583Y-95491969D01*
X141656772Y-95505054D01*
X141661649Y-95518683D01*
X141665166Y-95532724D01*
X141667290Y-95547042D01*
X141668000Y-95561500D01*
X141668000Y-95856500D01*
X141667290Y-95870958D01*
X141665166Y-95885276D01*
X141661649Y-95899317D01*
X141656772Y-95912946D01*
X141650583Y-95926031D01*
X141643142Y-95938447D01*
X141634519Y-95950073D01*
X141624798Y-95960798D01*
X141614073Y-95970519D01*
X141602447Y-95979142D01*
X141590031Y-95986583D01*
X141576946Y-95992772D01*
X141563317Y-95997649D01*
X141549276Y-96001166D01*
X141534958Y-96003290D01*
X141520500Y-96004000D01*
X141175500Y-96004000D01*
X141161042Y-96003290D01*
X141146724Y-96001166D01*
X141132683Y-95997649D01*
X141119054Y-95992772D01*
X141105969Y-95986583D01*
X141093553Y-95979142D01*
X141081927Y-95970519D01*
X141071202Y-95960798D01*
X141061481Y-95950073D01*
X141052858Y-95938447D01*
X141045417Y-95926031D01*
X141039228Y-95912946D01*
X141034351Y-95899317D01*
X141030834Y-95885276D01*
X141028710Y-95870958D01*
X141028000Y-95856500D01*
X141028000Y-95561500D01*
X141028710Y-95547042D01*
X141030834Y-95532724D01*
X141034351Y-95518683D01*
X141039228Y-95505054D01*
X141045417Y-95491969D01*
X141052858Y-95479553D01*
X141061481Y-95467927D01*
X141071202Y-95457202D01*
X141081927Y-95447481D01*
X141093553Y-95438858D01*
X141105969Y-95431417D01*
X141119054Y-95425228D01*
X141132683Y-95420351D01*
X141146724Y-95416834D01*
X141161042Y-95414710D01*
X141175500Y-95414000D01*
X141520500Y-95414000D01*
X141534958Y-95414710D01*
G37*
G36*
X141534958Y-96384710D02*
G01*
X141549276Y-96386834D01*
X141563317Y-96390351D01*
X141576946Y-96395228D01*
X141590031Y-96401417D01*
X141602447Y-96408858D01*
X141614073Y-96417481D01*
X141624798Y-96427202D01*
X141634519Y-96437927D01*
X141643142Y-96449553D01*
X141650583Y-96461969D01*
X141656772Y-96475054D01*
X141661649Y-96488683D01*
X141665166Y-96502724D01*
X141667290Y-96517042D01*
X141668000Y-96531500D01*
X141668000Y-96826500D01*
X141667290Y-96840958D01*
X141665166Y-96855276D01*
X141661649Y-96869317D01*
X141656772Y-96882946D01*
X141650583Y-96896031D01*
X141643142Y-96908447D01*
X141634519Y-96920073D01*
X141624798Y-96930798D01*
X141614073Y-96940519D01*
X141602447Y-96949142D01*
X141590031Y-96956583D01*
X141576946Y-96962772D01*
X141563317Y-96967649D01*
X141549276Y-96971166D01*
X141534958Y-96973290D01*
X141520500Y-96974000D01*
X141175500Y-96974000D01*
X141161042Y-96973290D01*
X141146724Y-96971166D01*
X141132683Y-96967649D01*
X141119054Y-96962772D01*
X141105969Y-96956583D01*
X141093553Y-96949142D01*
X141081927Y-96940519D01*
X141071202Y-96930798D01*
X141061481Y-96920073D01*
X141052858Y-96908447D01*
X141045417Y-96896031D01*
X141039228Y-96882946D01*
X141034351Y-96869317D01*
X141030834Y-96855276D01*
X141028710Y-96840958D01*
X141028000Y-96826500D01*
X141028000Y-96531500D01*
X141028710Y-96517042D01*
X141030834Y-96502724D01*
X141034351Y-96488683D01*
X141039228Y-96475054D01*
X141045417Y-96461969D01*
X141052858Y-96449553D01*
X141061481Y-96437927D01*
X141071202Y-96427202D01*
X141081927Y-96417481D01*
X141093553Y-96408858D01*
X141105969Y-96401417D01*
X141119054Y-96395228D01*
X141132683Y-96390351D01*
X141146724Y-96386834D01*
X141161042Y-96384710D01*
X141175500Y-96384000D01*
X141520500Y-96384000D01*
X141534958Y-96384710D01*
G37*
G36*
X143486958Y-94490710D02*
G01*
X143501276Y-94492834D01*
X143515317Y-94496351D01*
X143528946Y-94501228D01*
X143542031Y-94507417D01*
X143554447Y-94514858D01*
X143566073Y-94523481D01*
X143576798Y-94533202D01*
X143586519Y-94543927D01*
X143595142Y-94555553D01*
X143602583Y-94567969D01*
X143608772Y-94581054D01*
X143613649Y-94594683D01*
X143617166Y-94608724D01*
X143619290Y-94623042D01*
X143620000Y-94637500D01*
X143620000Y-94932500D01*
X143619290Y-94946958D01*
X143617166Y-94961276D01*
X143613649Y-94975317D01*
X143608772Y-94988946D01*
X143602583Y-95002031D01*
X143595142Y-95014447D01*
X143586519Y-95026073D01*
X143576798Y-95036798D01*
X143566073Y-95046519D01*
X143554447Y-95055142D01*
X143542031Y-95062583D01*
X143528946Y-95068772D01*
X143515317Y-95073649D01*
X143501276Y-95077166D01*
X143486958Y-95079290D01*
X143472500Y-95080000D01*
X143127500Y-95080000D01*
X143113042Y-95079290D01*
X143098724Y-95077166D01*
X143084683Y-95073649D01*
X143071054Y-95068772D01*
X143057969Y-95062583D01*
X143045553Y-95055142D01*
X143033927Y-95046519D01*
X143023202Y-95036798D01*
X143013481Y-95026073D01*
X143004858Y-95014447D01*
X142997417Y-95002031D01*
X142991228Y-94988946D01*
X142986351Y-94975317D01*
X142982834Y-94961276D01*
X142980710Y-94946958D01*
X142980000Y-94932500D01*
X142980000Y-94637500D01*
X142980710Y-94623042D01*
X142982834Y-94608724D01*
X142986351Y-94594683D01*
X142991228Y-94581054D01*
X142997417Y-94567969D01*
X143004858Y-94555553D01*
X143013481Y-94543927D01*
X143023202Y-94533202D01*
X143033927Y-94523481D01*
X143045553Y-94514858D01*
X143057969Y-94507417D01*
X143071054Y-94501228D01*
X143084683Y-94496351D01*
X143098724Y-94492834D01*
X143113042Y-94490710D01*
X143127500Y-94490000D01*
X143472500Y-94490000D01*
X143486958Y-94490710D01*
G37*
G36*
X143486958Y-93520710D02*
G01*
X143501276Y-93522834D01*
X143515317Y-93526351D01*
X143528946Y-93531228D01*
X143542031Y-93537417D01*
X143554447Y-93544858D01*
X143566073Y-93553481D01*
X143576798Y-93563202D01*
X143586519Y-93573927D01*
X143595142Y-93585553D01*
X143602583Y-93597969D01*
X143608772Y-93611054D01*
X143613649Y-93624683D01*
X143617166Y-93638724D01*
X143619290Y-93653042D01*
X143620000Y-93667500D01*
X143620000Y-93962500D01*
X143619290Y-93976958D01*
X143617166Y-93991276D01*
X143613649Y-94005317D01*
X143608772Y-94018946D01*
X143602583Y-94032031D01*
X143595142Y-94044447D01*
X143586519Y-94056073D01*
X143576798Y-94066798D01*
X143566073Y-94076519D01*
X143554447Y-94085142D01*
X143542031Y-94092583D01*
X143528946Y-94098772D01*
X143515317Y-94103649D01*
X143501276Y-94107166D01*
X143486958Y-94109290D01*
X143472500Y-94110000D01*
X143127500Y-94110000D01*
X143113042Y-94109290D01*
X143098724Y-94107166D01*
X143084683Y-94103649D01*
X143071054Y-94098772D01*
X143057969Y-94092583D01*
X143045553Y-94085142D01*
X143033927Y-94076519D01*
X143023202Y-94066798D01*
X143013481Y-94056073D01*
X143004858Y-94044447D01*
X142997417Y-94032031D01*
X142991228Y-94018946D01*
X142986351Y-94005317D01*
X142982834Y-93991276D01*
X142980710Y-93976958D01*
X142980000Y-93962500D01*
X142980000Y-93667500D01*
X142980710Y-93653042D01*
X142982834Y-93638724D01*
X142986351Y-93624683D01*
X142991228Y-93611054D01*
X142997417Y-93597969D01*
X143004858Y-93585553D01*
X143013481Y-93573927D01*
X143023202Y-93563202D01*
X143033927Y-93553481D01*
X143045553Y-93544858D01*
X143057969Y-93537417D01*
X143071054Y-93531228D01*
X143084683Y-93526351D01*
X143098724Y-93522834D01*
X143113042Y-93520710D01*
X143127500Y-93520000D01*
X143472500Y-93520000D01*
X143486958Y-93520710D01*
G37*
G36*
X142500158Y-95414710D02*
G01*
X142514476Y-95416834D01*
X142528517Y-95420351D01*
X142542146Y-95425228D01*
X142555231Y-95431417D01*
X142567647Y-95438858D01*
X142579273Y-95447481D01*
X142589998Y-95457202D01*
X142599719Y-95467927D01*
X142608342Y-95479553D01*
X142615783Y-95491969D01*
X142621972Y-95505054D01*
X142626849Y-95518683D01*
X142630366Y-95532724D01*
X142632490Y-95547042D01*
X142633200Y-95561500D01*
X142633200Y-95856500D01*
X142632490Y-95870958D01*
X142630366Y-95885276D01*
X142626849Y-95899317D01*
X142621972Y-95912946D01*
X142615783Y-95926031D01*
X142608342Y-95938447D01*
X142599719Y-95950073D01*
X142589998Y-95960798D01*
X142579273Y-95970519D01*
X142567647Y-95979142D01*
X142555231Y-95986583D01*
X142542146Y-95992772D01*
X142528517Y-95997649D01*
X142514476Y-96001166D01*
X142500158Y-96003290D01*
X142485700Y-96004000D01*
X142140700Y-96004000D01*
X142126242Y-96003290D01*
X142111924Y-96001166D01*
X142097883Y-95997649D01*
X142084254Y-95992772D01*
X142071169Y-95986583D01*
X142058753Y-95979142D01*
X142047127Y-95970519D01*
X142036402Y-95960798D01*
X142026681Y-95950073D01*
X142018058Y-95938447D01*
X142010617Y-95926031D01*
X142004428Y-95912946D01*
X141999551Y-95899317D01*
X141996034Y-95885276D01*
X141993910Y-95870958D01*
X141993200Y-95856500D01*
X141993200Y-95561500D01*
X141993910Y-95547042D01*
X141996034Y-95532724D01*
X141999551Y-95518683D01*
X142004428Y-95505054D01*
X142010617Y-95491969D01*
X142018058Y-95479553D01*
X142026681Y-95467927D01*
X142036402Y-95457202D01*
X142047127Y-95447481D01*
X142058753Y-95438858D01*
X142071169Y-95431417D01*
X142084254Y-95425228D01*
X142097883Y-95420351D01*
X142111924Y-95416834D01*
X142126242Y-95414710D01*
X142140700Y-95414000D01*
X142485700Y-95414000D01*
X142500158Y-95414710D01*
G37*
G36*
X142500158Y-96384710D02*
G01*
X142514476Y-96386834D01*
X142528517Y-96390351D01*
X142542146Y-96395228D01*
X142555231Y-96401417D01*
X142567647Y-96408858D01*
X142579273Y-96417481D01*
X142589998Y-96427202D01*
X142599719Y-96437927D01*
X142608342Y-96449553D01*
X142615783Y-96461969D01*
X142621972Y-96475054D01*
X142626849Y-96488683D01*
X142630366Y-96502724D01*
X142632490Y-96517042D01*
X142633200Y-96531500D01*
X142633200Y-96826500D01*
X142632490Y-96840958D01*
X142630366Y-96855276D01*
X142626849Y-96869317D01*
X142621972Y-96882946D01*
X142615783Y-96896031D01*
X142608342Y-96908447D01*
X142599719Y-96920073D01*
X142589998Y-96930798D01*
X142579273Y-96940519D01*
X142567647Y-96949142D01*
X142555231Y-96956583D01*
X142542146Y-96962772D01*
X142528517Y-96967649D01*
X142514476Y-96971166D01*
X142500158Y-96973290D01*
X142485700Y-96974000D01*
X142140700Y-96974000D01*
X142126242Y-96973290D01*
X142111924Y-96971166D01*
X142097883Y-96967649D01*
X142084254Y-96962772D01*
X142071169Y-96956583D01*
X142058753Y-96949142D01*
X142047127Y-96940519D01*
X142036402Y-96930798D01*
X142026681Y-96920073D01*
X142018058Y-96908447D01*
X142010617Y-96896031D01*
X142004428Y-96882946D01*
X141999551Y-96869317D01*
X141996034Y-96855276D01*
X141993910Y-96840958D01*
X141993200Y-96826500D01*
X141993200Y-96531500D01*
X141993910Y-96517042D01*
X141996034Y-96502724D01*
X141999551Y-96488683D01*
X142004428Y-96475054D01*
X142010617Y-96461969D01*
X142018058Y-96449553D01*
X142026681Y-96437927D01*
X142036402Y-96427202D01*
X142047127Y-96417481D01*
X142058753Y-96408858D01*
X142071169Y-96401417D01*
X142084254Y-96395228D01*
X142097883Y-96390351D01*
X142111924Y-96386834D01*
X142126242Y-96384710D01*
X142140700Y-96384000D01*
X142485700Y-96384000D01*
X142500158Y-96384710D01*
G37*
G36*
X142486958Y-94490710D02*
G01*
X142501276Y-94492834D01*
X142515317Y-94496351D01*
X142528946Y-94501228D01*
X142542031Y-94507417D01*
X142554447Y-94514858D01*
X142566073Y-94523481D01*
X142576798Y-94533202D01*
X142586519Y-94543927D01*
X142595142Y-94555553D01*
X142602583Y-94567969D01*
X142608772Y-94581054D01*
X142613649Y-94594683D01*
X142617166Y-94608724D01*
X142619290Y-94623042D01*
X142620000Y-94637500D01*
X142620000Y-94932500D01*
X142619290Y-94946958D01*
X142617166Y-94961276D01*
X142613649Y-94975317D01*
X142608772Y-94988946D01*
X142602583Y-95002031D01*
X142595142Y-95014447D01*
X142586519Y-95026073D01*
X142576798Y-95036798D01*
X142566073Y-95046519D01*
X142554447Y-95055142D01*
X142542031Y-95062583D01*
X142528946Y-95068772D01*
X142515317Y-95073649D01*
X142501276Y-95077166D01*
X142486958Y-95079290D01*
X142472500Y-95080000D01*
X142127500Y-95080000D01*
X142113042Y-95079290D01*
X142098724Y-95077166D01*
X142084683Y-95073649D01*
X142071054Y-95068772D01*
X142057969Y-95062583D01*
X142045553Y-95055142D01*
X142033927Y-95046519D01*
X142023202Y-95036798D01*
X142013481Y-95026073D01*
X142004858Y-95014447D01*
X141997417Y-95002031D01*
X141991228Y-94988946D01*
X141986351Y-94975317D01*
X141982834Y-94961276D01*
X141980710Y-94946958D01*
X141980000Y-94932500D01*
X141980000Y-94637500D01*
X141980710Y-94623042D01*
X141982834Y-94608724D01*
X141986351Y-94594683D01*
X141991228Y-94581054D01*
X141997417Y-94567969D01*
X142004858Y-94555553D01*
X142013481Y-94543927D01*
X142023202Y-94533202D01*
X142033927Y-94523481D01*
X142045553Y-94514858D01*
X142057969Y-94507417D01*
X142071054Y-94501228D01*
X142084683Y-94496351D01*
X142098724Y-94492834D01*
X142113042Y-94490710D01*
X142127500Y-94490000D01*
X142472500Y-94490000D01*
X142486958Y-94490710D01*
G37*
G36*
X142486958Y-93520710D02*
G01*
X142501276Y-93522834D01*
X142515317Y-93526351D01*
X142528946Y-93531228D01*
X142542031Y-93537417D01*
X142554447Y-93544858D01*
X142566073Y-93553481D01*
X142576798Y-93563202D01*
X142586519Y-93573927D01*
X142595142Y-93585553D01*
X142602583Y-93597969D01*
X142608772Y-93611054D01*
X142613649Y-93624683D01*
X142617166Y-93638724D01*
X142619290Y-93653042D01*
X142620000Y-93667500D01*
X142620000Y-93962500D01*
X142619290Y-93976958D01*
X142617166Y-93991276D01*
X142613649Y-94005317D01*
X142608772Y-94018946D01*
X142602583Y-94032031D01*
X142595142Y-94044447D01*
X142586519Y-94056073D01*
X142576798Y-94066798D01*
X142566073Y-94076519D01*
X142554447Y-94085142D01*
X142542031Y-94092583D01*
X142528946Y-94098772D01*
X142515317Y-94103649D01*
X142501276Y-94107166D01*
X142486958Y-94109290D01*
X142472500Y-94110000D01*
X142127500Y-94110000D01*
X142113042Y-94109290D01*
X142098724Y-94107166D01*
X142084683Y-94103649D01*
X142071054Y-94098772D01*
X142057969Y-94092583D01*
X142045553Y-94085142D01*
X142033927Y-94076519D01*
X142023202Y-94066798D01*
X142013481Y-94056073D01*
X142004858Y-94044447D01*
X141997417Y-94032031D01*
X141991228Y-94018946D01*
X141986351Y-94005317D01*
X141982834Y-93991276D01*
X141980710Y-93976958D01*
X141980000Y-93962500D01*
X141980000Y-93667500D01*
X141980710Y-93653042D01*
X141982834Y-93638724D01*
X141986351Y-93624683D01*
X141991228Y-93611054D01*
X141997417Y-93597969D01*
X142004858Y-93585553D01*
X142013481Y-93573927D01*
X142023202Y-93563202D01*
X142033927Y-93553481D01*
X142045553Y-93544858D01*
X142057969Y-93537417D01*
X142071054Y-93531228D01*
X142084683Y-93526351D01*
X142098724Y-93522834D01*
X142113042Y-93520710D01*
X142127500Y-93520000D01*
X142472500Y-93520000D01*
X142486958Y-93520710D01*
G37*
G36*
X151564948Y-100148210D02*
G01*
X151579266Y-100150334D01*
X151593307Y-100153851D01*
X151606936Y-100158728D01*
X151620021Y-100164917D01*
X151632437Y-100172358D01*
X151644063Y-100180981D01*
X151654788Y-100190702D01*
X151664509Y-100201427D01*
X151673132Y-100213053D01*
X151680573Y-100225469D01*
X151686762Y-100238554D01*
X151691639Y-100252183D01*
X151695156Y-100266224D01*
X151697280Y-100280542D01*
X151697990Y-100295000D01*
X151697990Y-100590000D01*
X151697280Y-100604458D01*
X151695156Y-100618776D01*
X151691639Y-100632817D01*
X151686762Y-100646446D01*
X151680573Y-100659531D01*
X151673132Y-100671947D01*
X151664509Y-100683573D01*
X151654788Y-100694298D01*
X151644063Y-100704019D01*
X151632437Y-100712642D01*
X151620021Y-100720083D01*
X151606936Y-100726272D01*
X151593307Y-100731149D01*
X151579266Y-100734666D01*
X151564948Y-100736790D01*
X151550490Y-100737500D01*
X151205490Y-100737500D01*
X151191032Y-100736790D01*
X151176714Y-100734666D01*
X151162673Y-100731149D01*
X151149044Y-100726272D01*
X151135959Y-100720083D01*
X151123543Y-100712642D01*
X151111917Y-100704019D01*
X151101192Y-100694298D01*
X151091471Y-100683573D01*
X151082848Y-100671947D01*
X151075407Y-100659531D01*
X151069218Y-100646446D01*
X151064341Y-100632817D01*
X151060824Y-100618776D01*
X151058700Y-100604458D01*
X151057990Y-100590000D01*
X151057990Y-100295000D01*
X151058700Y-100280542D01*
X151060824Y-100266224D01*
X151064341Y-100252183D01*
X151069218Y-100238554D01*
X151075407Y-100225469D01*
X151082848Y-100213053D01*
X151091471Y-100201427D01*
X151101192Y-100190702D01*
X151111917Y-100180981D01*
X151123543Y-100172358D01*
X151135959Y-100164917D01*
X151149044Y-100158728D01*
X151162673Y-100153851D01*
X151176714Y-100150334D01*
X151191032Y-100148210D01*
X151205490Y-100147500D01*
X151550490Y-100147500D01*
X151564948Y-100148210D01*
G37*
G36*
X151564948Y-101118210D02*
G01*
X151579266Y-101120334D01*
X151593307Y-101123851D01*
X151606936Y-101128728D01*
X151620021Y-101134917D01*
X151632437Y-101142358D01*
X151644063Y-101150981D01*
X151654788Y-101160702D01*
X151664509Y-101171427D01*
X151673132Y-101183053D01*
X151680573Y-101195469D01*
X151686762Y-101208554D01*
X151691639Y-101222183D01*
X151695156Y-101236224D01*
X151697280Y-101250542D01*
X151697990Y-101265000D01*
X151697990Y-101560000D01*
X151697280Y-101574458D01*
X151695156Y-101588776D01*
X151691639Y-101602817D01*
X151686762Y-101616446D01*
X151680573Y-101629531D01*
X151673132Y-101641947D01*
X151664509Y-101653573D01*
X151654788Y-101664298D01*
X151644063Y-101674019D01*
X151632437Y-101682642D01*
X151620021Y-101690083D01*
X151606936Y-101696272D01*
X151593307Y-101701149D01*
X151579266Y-101704666D01*
X151564948Y-101706790D01*
X151550490Y-101707500D01*
X151205490Y-101707500D01*
X151191032Y-101706790D01*
X151176714Y-101704666D01*
X151162673Y-101701149D01*
X151149044Y-101696272D01*
X151135959Y-101690083D01*
X151123543Y-101682642D01*
X151111917Y-101674019D01*
X151101192Y-101664298D01*
X151091471Y-101653573D01*
X151082848Y-101641947D01*
X151075407Y-101629531D01*
X151069218Y-101616446D01*
X151064341Y-101602817D01*
X151060824Y-101588776D01*
X151058700Y-101574458D01*
X151057990Y-101560000D01*
X151057990Y-101265000D01*
X151058700Y-101250542D01*
X151060824Y-101236224D01*
X151064341Y-101222183D01*
X151069218Y-101208554D01*
X151075407Y-101195469D01*
X151082848Y-101183053D01*
X151091471Y-101171427D01*
X151101192Y-101160702D01*
X151111917Y-101150981D01*
X151123543Y-101142358D01*
X151135959Y-101134917D01*
X151149044Y-101128728D01*
X151162673Y-101123851D01*
X151176714Y-101120334D01*
X151191032Y-101118210D01*
X151205490Y-101117500D01*
X151550490Y-101117500D01*
X151564948Y-101118210D01*
G37*
G36*
X153586958Y-100135510D02*
G01*
X153601276Y-100137634D01*
X153615317Y-100141151D01*
X153628946Y-100146028D01*
X153642031Y-100152217D01*
X153654447Y-100159658D01*
X153666073Y-100168281D01*
X153676798Y-100178002D01*
X153686519Y-100188727D01*
X153695142Y-100200353D01*
X153702583Y-100212769D01*
X153708772Y-100225854D01*
X153713649Y-100239483D01*
X153717166Y-100253524D01*
X153719290Y-100267842D01*
X153720000Y-100282300D01*
X153720000Y-100577300D01*
X153719290Y-100591758D01*
X153717166Y-100606076D01*
X153713649Y-100620117D01*
X153708772Y-100633746D01*
X153702583Y-100646831D01*
X153695142Y-100659247D01*
X153686519Y-100670873D01*
X153676798Y-100681598D01*
X153666073Y-100691319D01*
X153654447Y-100699942D01*
X153642031Y-100707383D01*
X153628946Y-100713572D01*
X153615317Y-100718449D01*
X153601276Y-100721966D01*
X153586958Y-100724090D01*
X153572500Y-100724800D01*
X153227500Y-100724800D01*
X153213042Y-100724090D01*
X153198724Y-100721966D01*
X153184683Y-100718449D01*
X153171054Y-100713572D01*
X153157969Y-100707383D01*
X153145553Y-100699942D01*
X153133927Y-100691319D01*
X153123202Y-100681598D01*
X153113481Y-100670873D01*
X153104858Y-100659247D01*
X153097417Y-100646831D01*
X153091228Y-100633746D01*
X153086351Y-100620117D01*
X153082834Y-100606076D01*
X153080710Y-100591758D01*
X153080000Y-100577300D01*
X153080000Y-100282300D01*
X153080710Y-100267842D01*
X153082834Y-100253524D01*
X153086351Y-100239483D01*
X153091228Y-100225854D01*
X153097417Y-100212769D01*
X153104858Y-100200353D01*
X153113481Y-100188727D01*
X153123202Y-100178002D01*
X153133927Y-100168281D01*
X153145553Y-100159658D01*
X153157969Y-100152217D01*
X153171054Y-100146028D01*
X153184683Y-100141151D01*
X153198724Y-100137634D01*
X153213042Y-100135510D01*
X153227500Y-100134800D01*
X153572500Y-100134800D01*
X153586958Y-100135510D01*
G37*
G36*
X153586958Y-101105510D02*
G01*
X153601276Y-101107634D01*
X153615317Y-101111151D01*
X153628946Y-101116028D01*
X153642031Y-101122217D01*
X153654447Y-101129658D01*
X153666073Y-101138281D01*
X153676798Y-101148002D01*
X153686519Y-101158727D01*
X153695142Y-101170353D01*
X153702583Y-101182769D01*
X153708772Y-101195854D01*
X153713649Y-101209483D01*
X153717166Y-101223524D01*
X153719290Y-101237842D01*
X153720000Y-101252300D01*
X153720000Y-101547300D01*
X153719290Y-101561758D01*
X153717166Y-101576076D01*
X153713649Y-101590117D01*
X153708772Y-101603746D01*
X153702583Y-101616831D01*
X153695142Y-101629247D01*
X153686519Y-101640873D01*
X153676798Y-101651598D01*
X153666073Y-101661319D01*
X153654447Y-101669942D01*
X153642031Y-101677383D01*
X153628946Y-101683572D01*
X153615317Y-101688449D01*
X153601276Y-101691966D01*
X153586958Y-101694090D01*
X153572500Y-101694800D01*
X153227500Y-101694800D01*
X153213042Y-101694090D01*
X153198724Y-101691966D01*
X153184683Y-101688449D01*
X153171054Y-101683572D01*
X153157969Y-101677383D01*
X153145553Y-101669942D01*
X153133927Y-101661319D01*
X153123202Y-101651598D01*
X153113481Y-101640873D01*
X153104858Y-101629247D01*
X153097417Y-101616831D01*
X153091228Y-101603746D01*
X153086351Y-101590117D01*
X153082834Y-101576076D01*
X153080710Y-101561758D01*
X153080000Y-101547300D01*
X153080000Y-101252300D01*
X153080710Y-101237842D01*
X153082834Y-101223524D01*
X153086351Y-101209483D01*
X153091228Y-101195854D01*
X153097417Y-101182769D01*
X153104858Y-101170353D01*
X153113481Y-101158727D01*
X153123202Y-101148002D01*
X153133927Y-101138281D01*
X153145553Y-101129658D01*
X153157969Y-101122217D01*
X153171054Y-101116028D01*
X153184683Y-101111151D01*
X153198724Y-101107634D01*
X153213042Y-101105510D01*
X153227500Y-101104800D01*
X153572500Y-101104800D01*
X153586958Y-101105510D01*
G37*
G36*
X152764948Y-92720710D02*
G01*
X152779266Y-92722834D01*
X152793307Y-92726351D01*
X152806936Y-92731228D01*
X152820021Y-92737417D01*
X152832437Y-92744858D01*
X152844063Y-92753481D01*
X152854788Y-92763202D01*
X152864509Y-92773927D01*
X152873132Y-92785553D01*
X152880573Y-92797969D01*
X152886762Y-92811054D01*
X152891639Y-92824683D01*
X152895156Y-92838724D01*
X152897280Y-92853042D01*
X152897990Y-92867500D01*
X152897990Y-93162500D01*
X152897280Y-93176958D01*
X152895156Y-93191276D01*
X152891639Y-93205317D01*
X152886762Y-93218946D01*
X152880573Y-93232031D01*
X152873132Y-93244447D01*
X152864509Y-93256073D01*
X152854788Y-93266798D01*
X152844063Y-93276519D01*
X152832437Y-93285142D01*
X152820021Y-93292583D01*
X152806936Y-93298772D01*
X152793307Y-93303649D01*
X152779266Y-93307166D01*
X152764948Y-93309290D01*
X152750490Y-93310000D01*
X152405490Y-93310000D01*
X152391032Y-93309290D01*
X152376714Y-93307166D01*
X152362673Y-93303649D01*
X152349044Y-93298772D01*
X152335959Y-93292583D01*
X152323543Y-93285142D01*
X152311917Y-93276519D01*
X152301192Y-93266798D01*
X152291471Y-93256073D01*
X152282848Y-93244447D01*
X152275407Y-93232031D01*
X152269218Y-93218946D01*
X152264341Y-93205317D01*
X152260824Y-93191276D01*
X152258700Y-93176958D01*
X152257990Y-93162500D01*
X152257990Y-92867500D01*
X152258700Y-92853042D01*
X152260824Y-92838724D01*
X152264341Y-92824683D01*
X152269218Y-92811054D01*
X152275407Y-92797969D01*
X152282848Y-92785553D01*
X152291471Y-92773927D01*
X152301192Y-92763202D01*
X152311917Y-92753481D01*
X152323543Y-92744858D01*
X152335959Y-92737417D01*
X152349044Y-92731228D01*
X152362673Y-92726351D01*
X152376714Y-92722834D01*
X152391032Y-92720710D01*
X152405490Y-92720000D01*
X152750490Y-92720000D01*
X152764948Y-92720710D01*
G37*
G36*
X152764948Y-93690710D02*
G01*
X152779266Y-93692834D01*
X152793307Y-93696351D01*
X152806936Y-93701228D01*
X152820021Y-93707417D01*
X152832437Y-93714858D01*
X152844063Y-93723481D01*
X152854788Y-93733202D01*
X152864509Y-93743927D01*
X152873132Y-93755553D01*
X152880573Y-93767969D01*
X152886762Y-93781054D01*
X152891639Y-93794683D01*
X152895156Y-93808724D01*
X152897280Y-93823042D01*
X152897990Y-93837500D01*
X152897990Y-94132500D01*
X152897280Y-94146958D01*
X152895156Y-94161276D01*
X152891639Y-94175317D01*
X152886762Y-94188946D01*
X152880573Y-94202031D01*
X152873132Y-94214447D01*
X152864509Y-94226073D01*
X152854788Y-94236798D01*
X152844063Y-94246519D01*
X152832437Y-94255142D01*
X152820021Y-94262583D01*
X152806936Y-94268772D01*
X152793307Y-94273649D01*
X152779266Y-94277166D01*
X152764948Y-94279290D01*
X152750490Y-94280000D01*
X152405490Y-94280000D01*
X152391032Y-94279290D01*
X152376714Y-94277166D01*
X152362673Y-94273649D01*
X152349044Y-94268772D01*
X152335959Y-94262583D01*
X152323543Y-94255142D01*
X152311917Y-94246519D01*
X152301192Y-94236798D01*
X152291471Y-94226073D01*
X152282848Y-94214447D01*
X152275407Y-94202031D01*
X152269218Y-94188946D01*
X152264341Y-94175317D01*
X152260824Y-94161276D01*
X152258700Y-94146958D01*
X152257990Y-94132500D01*
X152257990Y-93837500D01*
X152258700Y-93823042D01*
X152260824Y-93808724D01*
X152264341Y-93794683D01*
X152269218Y-93781054D01*
X152275407Y-93767969D01*
X152282848Y-93755553D01*
X152291471Y-93743927D01*
X152301192Y-93733202D01*
X152311917Y-93723481D01*
X152323543Y-93714858D01*
X152335959Y-93707417D01*
X152349044Y-93701228D01*
X152362673Y-93696351D01*
X152376714Y-93692834D01*
X152391032Y-93690710D01*
X152405490Y-93690000D01*
X152750490Y-93690000D01*
X152764948Y-93690710D01*
G37*
G36*
X154786958Y-92720710D02*
G01*
X154801276Y-92722834D01*
X154815317Y-92726351D01*
X154828946Y-92731228D01*
X154842031Y-92737417D01*
X154854447Y-92744858D01*
X154866073Y-92753481D01*
X154876798Y-92763202D01*
X154886519Y-92773927D01*
X154895142Y-92785553D01*
X154902583Y-92797969D01*
X154908772Y-92811054D01*
X154913649Y-92824683D01*
X154917166Y-92838724D01*
X154919290Y-92853042D01*
X154920000Y-92867500D01*
X154920000Y-93162500D01*
X154919290Y-93176958D01*
X154917166Y-93191276D01*
X154913649Y-93205317D01*
X154908772Y-93218946D01*
X154902583Y-93232031D01*
X154895142Y-93244447D01*
X154886519Y-93256073D01*
X154876798Y-93266798D01*
X154866073Y-93276519D01*
X154854447Y-93285142D01*
X154842031Y-93292583D01*
X154828946Y-93298772D01*
X154815317Y-93303649D01*
X154801276Y-93307166D01*
X154786958Y-93309290D01*
X154772500Y-93310000D01*
X154427500Y-93310000D01*
X154413042Y-93309290D01*
X154398724Y-93307166D01*
X154384683Y-93303649D01*
X154371054Y-93298772D01*
X154357969Y-93292583D01*
X154345553Y-93285142D01*
X154333927Y-93276519D01*
X154323202Y-93266798D01*
X154313481Y-93256073D01*
X154304858Y-93244447D01*
X154297417Y-93232031D01*
X154291228Y-93218946D01*
X154286351Y-93205317D01*
X154282834Y-93191276D01*
X154280710Y-93176958D01*
X154280000Y-93162500D01*
X154280000Y-92867500D01*
X154280710Y-92853042D01*
X154282834Y-92838724D01*
X154286351Y-92824683D01*
X154291228Y-92811054D01*
X154297417Y-92797969D01*
X154304858Y-92785553D01*
X154313481Y-92773927D01*
X154323202Y-92763202D01*
X154333927Y-92753481D01*
X154345553Y-92744858D01*
X154357969Y-92737417D01*
X154371054Y-92731228D01*
X154384683Y-92726351D01*
X154398724Y-92722834D01*
X154413042Y-92720710D01*
X154427500Y-92720000D01*
X154772500Y-92720000D01*
X154786958Y-92720710D01*
G37*
G36*
X154786958Y-93690710D02*
G01*
X154801276Y-93692834D01*
X154815317Y-93696351D01*
X154828946Y-93701228D01*
X154842031Y-93707417D01*
X154854447Y-93714858D01*
X154866073Y-93723481D01*
X154876798Y-93733202D01*
X154886519Y-93743927D01*
X154895142Y-93755553D01*
X154902583Y-93767969D01*
X154908772Y-93781054D01*
X154913649Y-93794683D01*
X154917166Y-93808724D01*
X154919290Y-93823042D01*
X154920000Y-93837500D01*
X154920000Y-94132500D01*
X154919290Y-94146958D01*
X154917166Y-94161276D01*
X154913649Y-94175317D01*
X154908772Y-94188946D01*
X154902583Y-94202031D01*
X154895142Y-94214447D01*
X154886519Y-94226073D01*
X154876798Y-94236798D01*
X154866073Y-94246519D01*
X154854447Y-94255142D01*
X154842031Y-94262583D01*
X154828946Y-94268772D01*
X154815317Y-94273649D01*
X154801276Y-94277166D01*
X154786958Y-94279290D01*
X154772500Y-94280000D01*
X154427500Y-94280000D01*
X154413042Y-94279290D01*
X154398724Y-94277166D01*
X154384683Y-94273649D01*
X154371054Y-94268772D01*
X154357969Y-94262583D01*
X154345553Y-94255142D01*
X154333927Y-94246519D01*
X154323202Y-94236798D01*
X154313481Y-94226073D01*
X154304858Y-94214447D01*
X154297417Y-94202031D01*
X154291228Y-94188946D01*
X154286351Y-94175317D01*
X154282834Y-94161276D01*
X154280710Y-94146958D01*
X154280000Y-94132500D01*
X154280000Y-93837500D01*
X154280710Y-93823042D01*
X154282834Y-93808724D01*
X154286351Y-93794683D01*
X154291228Y-93781054D01*
X154297417Y-93767969D01*
X154304858Y-93755553D01*
X154313481Y-93743927D01*
X154323202Y-93733202D01*
X154333927Y-93723481D01*
X154345553Y-93714858D01*
X154357969Y-93707417D01*
X154371054Y-93701228D01*
X154384683Y-93696351D01*
X154398724Y-93692834D01*
X154413042Y-93690710D01*
X154427500Y-93690000D01*
X154772500Y-93690000D01*
X154786958Y-93690710D01*
G37*
G36*
X145686958Y-92120710D02*
G01*
X145701276Y-92122834D01*
X145715317Y-92126351D01*
X145728946Y-92131228D01*
X145742031Y-92137417D01*
X145754447Y-92144858D01*
X145766073Y-92153481D01*
X145776798Y-92163202D01*
X145786519Y-92173927D01*
X145795142Y-92185553D01*
X145802583Y-92197969D01*
X145808772Y-92211054D01*
X145813649Y-92224683D01*
X145817166Y-92238724D01*
X145819290Y-92253042D01*
X145820000Y-92267500D01*
X145820000Y-92562500D01*
X145819290Y-92576958D01*
X145817166Y-92591276D01*
X145813649Y-92605317D01*
X145808772Y-92618946D01*
X145802583Y-92632031D01*
X145795142Y-92644447D01*
X145786519Y-92656073D01*
X145776798Y-92666798D01*
X145766073Y-92676519D01*
X145754447Y-92685142D01*
X145742031Y-92692583D01*
X145728946Y-92698772D01*
X145715317Y-92703649D01*
X145701276Y-92707166D01*
X145686958Y-92709290D01*
X145672500Y-92710000D01*
X145327500Y-92710000D01*
X145313042Y-92709290D01*
X145298724Y-92707166D01*
X145284683Y-92703649D01*
X145271054Y-92698772D01*
X145257969Y-92692583D01*
X145245553Y-92685142D01*
X145233927Y-92676519D01*
X145223202Y-92666798D01*
X145213481Y-92656073D01*
X145204858Y-92644447D01*
X145197417Y-92632031D01*
X145191228Y-92618946D01*
X145186351Y-92605317D01*
X145182834Y-92591276D01*
X145180710Y-92576958D01*
X145180000Y-92562500D01*
X145180000Y-92267500D01*
X145180710Y-92253042D01*
X145182834Y-92238724D01*
X145186351Y-92224683D01*
X145191228Y-92211054D01*
X145197417Y-92197969D01*
X145204858Y-92185553D01*
X145213481Y-92173927D01*
X145223202Y-92163202D01*
X145233927Y-92153481D01*
X145245553Y-92144858D01*
X145257969Y-92137417D01*
X145271054Y-92131228D01*
X145284683Y-92126351D01*
X145298724Y-92122834D01*
X145313042Y-92120710D01*
X145327500Y-92120000D01*
X145672500Y-92120000D01*
X145686958Y-92120710D01*
G37*
G36*
X145686958Y-93090710D02*
G01*
X145701276Y-93092834D01*
X145715317Y-93096351D01*
X145728946Y-93101228D01*
X145742031Y-93107417D01*
X145754447Y-93114858D01*
X145766073Y-93123481D01*
X145776798Y-93133202D01*
X145786519Y-93143927D01*
X145795142Y-93155553D01*
X145802583Y-93167969D01*
X145808772Y-93181054D01*
X145813649Y-93194683D01*
X145817166Y-93208724D01*
X145819290Y-93223042D01*
X145820000Y-93237500D01*
X145820000Y-93532500D01*
X145819290Y-93546958D01*
X145817166Y-93561276D01*
X145813649Y-93575317D01*
X145808772Y-93588946D01*
X145802583Y-93602031D01*
X145795142Y-93614447D01*
X145786519Y-93626073D01*
X145776798Y-93636798D01*
X145766073Y-93646519D01*
X145754447Y-93655142D01*
X145742031Y-93662583D01*
X145728946Y-93668772D01*
X145715317Y-93673649D01*
X145701276Y-93677166D01*
X145686958Y-93679290D01*
X145672500Y-93680000D01*
X145327500Y-93680000D01*
X145313042Y-93679290D01*
X145298724Y-93677166D01*
X145284683Y-93673649D01*
X145271054Y-93668772D01*
X145257969Y-93662583D01*
X145245553Y-93655142D01*
X145233927Y-93646519D01*
X145223202Y-93636798D01*
X145213481Y-93626073D01*
X145204858Y-93614447D01*
X145197417Y-93602031D01*
X145191228Y-93588946D01*
X145186351Y-93575317D01*
X145182834Y-93561276D01*
X145180710Y-93546958D01*
X145180000Y-93532500D01*
X145180000Y-93237500D01*
X145180710Y-93223042D01*
X145182834Y-93208724D01*
X145186351Y-93194683D01*
X145191228Y-93181054D01*
X145197417Y-93167969D01*
X145204858Y-93155553D01*
X145213481Y-93143927D01*
X145223202Y-93133202D01*
X145233927Y-93123481D01*
X145245553Y-93114858D01*
X145257969Y-93107417D01*
X145271054Y-93101228D01*
X145284683Y-93096351D01*
X145298724Y-93092834D01*
X145313042Y-93090710D01*
X145327500Y-93090000D01*
X145672500Y-93090000D01*
X145686958Y-93090710D01*
G37*
M02*
