G04 #@! TF.GenerationSoftware,KiCad,Pcbnew,5.1.5-52549c5~84~ubuntu19.04.1*
G04 #@! TF.CreationDate,2020-02-08T22:23:32+01:00*
G04 #@! TF.ProjectId,ilulissat,696c756c-6973-4736-9174-2e6b69636164,rev?*
G04 #@! TF.SameCoordinates,Original*
G04 #@! TF.FileFunction,Paste,Top*
G04 #@! TF.FilePolarity,Positive*
%FSLAX46Y46*%
G04 Gerber Fmt 4.6, Leading zero omitted, Abs format (unit mm)*
G04 Created by KiCad (PCBNEW 5.1.5-52549c5~84~ubuntu19.04.1) date 2020-02-08 22:23:32*
%MOMM*%
%LPD*%
G04 APERTURE LIST*
%ADD10R,1.200000X1.400000*%
%ADD11R,1.100000X0.600000*%
%ADD12C,0.100000*%
%ADD13R,0.600000X1.500000*%
%ADD14R,0.900000X1.700000*%
%ADD15R,0.400000X0.600000*%
%ADD16R,2.400000X1.500000*%
G04 APERTURE END LIST*
D10*
X148350000Y-101400000D03*
X148350000Y-103600000D03*
X146650000Y-103600000D03*
X146650000Y-101400000D03*
D11*
X143700000Y-99300000D03*
X143700000Y-97900000D03*
D12*
G36*
X159746958Y-96980710D02*
G01*
X159761276Y-96982834D01*
X159775317Y-96986351D01*
X159788946Y-96991228D01*
X159802031Y-96997417D01*
X159814447Y-97004858D01*
X159826073Y-97013481D01*
X159836798Y-97023202D01*
X159846519Y-97033927D01*
X159855142Y-97045553D01*
X159862583Y-97057969D01*
X159868772Y-97071054D01*
X159873649Y-97084683D01*
X159877166Y-97098724D01*
X159879290Y-97113042D01*
X159880000Y-97127500D01*
X159880000Y-97472500D01*
X159879290Y-97486958D01*
X159877166Y-97501276D01*
X159873649Y-97515317D01*
X159868772Y-97528946D01*
X159862583Y-97542031D01*
X159855142Y-97554447D01*
X159846519Y-97566073D01*
X159836798Y-97576798D01*
X159826073Y-97586519D01*
X159814447Y-97595142D01*
X159802031Y-97602583D01*
X159788946Y-97608772D01*
X159775317Y-97613649D01*
X159761276Y-97617166D01*
X159746958Y-97619290D01*
X159732500Y-97620000D01*
X159437500Y-97620000D01*
X159423042Y-97619290D01*
X159408724Y-97617166D01*
X159394683Y-97613649D01*
X159381054Y-97608772D01*
X159367969Y-97602583D01*
X159355553Y-97595142D01*
X159343927Y-97586519D01*
X159333202Y-97576798D01*
X159323481Y-97566073D01*
X159314858Y-97554447D01*
X159307417Y-97542031D01*
X159301228Y-97528946D01*
X159296351Y-97515317D01*
X159292834Y-97501276D01*
X159290710Y-97486958D01*
X159290000Y-97472500D01*
X159290000Y-97127500D01*
X159290710Y-97113042D01*
X159292834Y-97098724D01*
X159296351Y-97084683D01*
X159301228Y-97071054D01*
X159307417Y-97057969D01*
X159314858Y-97045553D01*
X159323481Y-97033927D01*
X159333202Y-97023202D01*
X159343927Y-97013481D01*
X159355553Y-97004858D01*
X159367969Y-96997417D01*
X159381054Y-96991228D01*
X159394683Y-96986351D01*
X159408724Y-96982834D01*
X159423042Y-96980710D01*
X159437500Y-96980000D01*
X159732500Y-96980000D01*
X159746958Y-96980710D01*
G37*
G36*
X158776958Y-96980710D02*
G01*
X158791276Y-96982834D01*
X158805317Y-96986351D01*
X158818946Y-96991228D01*
X158832031Y-96997417D01*
X158844447Y-97004858D01*
X158856073Y-97013481D01*
X158866798Y-97023202D01*
X158876519Y-97033927D01*
X158885142Y-97045553D01*
X158892583Y-97057969D01*
X158898772Y-97071054D01*
X158903649Y-97084683D01*
X158907166Y-97098724D01*
X158909290Y-97113042D01*
X158910000Y-97127500D01*
X158910000Y-97472500D01*
X158909290Y-97486958D01*
X158907166Y-97501276D01*
X158903649Y-97515317D01*
X158898772Y-97528946D01*
X158892583Y-97542031D01*
X158885142Y-97554447D01*
X158876519Y-97566073D01*
X158866798Y-97576798D01*
X158856073Y-97586519D01*
X158844447Y-97595142D01*
X158832031Y-97602583D01*
X158818946Y-97608772D01*
X158805317Y-97613649D01*
X158791276Y-97617166D01*
X158776958Y-97619290D01*
X158762500Y-97620000D01*
X158467500Y-97620000D01*
X158453042Y-97619290D01*
X158438724Y-97617166D01*
X158424683Y-97613649D01*
X158411054Y-97608772D01*
X158397969Y-97602583D01*
X158385553Y-97595142D01*
X158373927Y-97586519D01*
X158363202Y-97576798D01*
X158353481Y-97566073D01*
X158344858Y-97554447D01*
X158337417Y-97542031D01*
X158331228Y-97528946D01*
X158326351Y-97515317D01*
X158322834Y-97501276D01*
X158320710Y-97486958D01*
X158320000Y-97472500D01*
X158320000Y-97127500D01*
X158320710Y-97113042D01*
X158322834Y-97098724D01*
X158326351Y-97084683D01*
X158331228Y-97071054D01*
X158337417Y-97057969D01*
X158344858Y-97045553D01*
X158353481Y-97033927D01*
X158363202Y-97023202D01*
X158373927Y-97013481D01*
X158385553Y-97004858D01*
X158397969Y-96997417D01*
X158411054Y-96991228D01*
X158424683Y-96986351D01*
X158438724Y-96982834D01*
X158453042Y-96980710D01*
X158467500Y-96980000D01*
X158762500Y-96980000D01*
X158776958Y-96980710D01*
G37*
D13*
X159600000Y-103250000D03*
X161200000Y-103250000D03*
X161200000Y-99750000D03*
X159600000Y-99750000D03*
D12*
G36*
X153726958Y-96980710D02*
G01*
X153741276Y-96982834D01*
X153755317Y-96986351D01*
X153768946Y-96991228D01*
X153782031Y-96997417D01*
X153794447Y-97004858D01*
X153806073Y-97013481D01*
X153816798Y-97023202D01*
X153826519Y-97033927D01*
X153835142Y-97045553D01*
X153842583Y-97057969D01*
X153848772Y-97071054D01*
X153853649Y-97084683D01*
X153857166Y-97098724D01*
X153859290Y-97113042D01*
X153860000Y-97127500D01*
X153860000Y-97472500D01*
X153859290Y-97486958D01*
X153857166Y-97501276D01*
X153853649Y-97515317D01*
X153848772Y-97528946D01*
X153842583Y-97542031D01*
X153835142Y-97554447D01*
X153826519Y-97566073D01*
X153816798Y-97576798D01*
X153806073Y-97586519D01*
X153794447Y-97595142D01*
X153782031Y-97602583D01*
X153768946Y-97608772D01*
X153755317Y-97613649D01*
X153741276Y-97617166D01*
X153726958Y-97619290D01*
X153712500Y-97620000D01*
X153417500Y-97620000D01*
X153403042Y-97619290D01*
X153388724Y-97617166D01*
X153374683Y-97613649D01*
X153361054Y-97608772D01*
X153347969Y-97602583D01*
X153335553Y-97595142D01*
X153323927Y-97586519D01*
X153313202Y-97576798D01*
X153303481Y-97566073D01*
X153294858Y-97554447D01*
X153287417Y-97542031D01*
X153281228Y-97528946D01*
X153276351Y-97515317D01*
X153272834Y-97501276D01*
X153270710Y-97486958D01*
X153270000Y-97472500D01*
X153270000Y-97127500D01*
X153270710Y-97113042D01*
X153272834Y-97098724D01*
X153276351Y-97084683D01*
X153281228Y-97071054D01*
X153287417Y-97057969D01*
X153294858Y-97045553D01*
X153303481Y-97033927D01*
X153313202Y-97023202D01*
X153323927Y-97013481D01*
X153335553Y-97004858D01*
X153347969Y-96997417D01*
X153361054Y-96991228D01*
X153374683Y-96986351D01*
X153388724Y-96982834D01*
X153403042Y-96980710D01*
X153417500Y-96980000D01*
X153712500Y-96980000D01*
X153726958Y-96980710D01*
G37*
G36*
X152756958Y-96980710D02*
G01*
X152771276Y-96982834D01*
X152785317Y-96986351D01*
X152798946Y-96991228D01*
X152812031Y-96997417D01*
X152824447Y-97004858D01*
X152836073Y-97013481D01*
X152846798Y-97023202D01*
X152856519Y-97033927D01*
X152865142Y-97045553D01*
X152872583Y-97057969D01*
X152878772Y-97071054D01*
X152883649Y-97084683D01*
X152887166Y-97098724D01*
X152889290Y-97113042D01*
X152890000Y-97127500D01*
X152890000Y-97472500D01*
X152889290Y-97486958D01*
X152887166Y-97501276D01*
X152883649Y-97515317D01*
X152878772Y-97528946D01*
X152872583Y-97542031D01*
X152865142Y-97554447D01*
X152856519Y-97566073D01*
X152846798Y-97576798D01*
X152836073Y-97586519D01*
X152824447Y-97595142D01*
X152812031Y-97602583D01*
X152798946Y-97608772D01*
X152785317Y-97613649D01*
X152771276Y-97617166D01*
X152756958Y-97619290D01*
X152742500Y-97620000D01*
X152447500Y-97620000D01*
X152433042Y-97619290D01*
X152418724Y-97617166D01*
X152404683Y-97613649D01*
X152391054Y-97608772D01*
X152377969Y-97602583D01*
X152365553Y-97595142D01*
X152353927Y-97586519D01*
X152343202Y-97576798D01*
X152333481Y-97566073D01*
X152324858Y-97554447D01*
X152317417Y-97542031D01*
X152311228Y-97528946D01*
X152306351Y-97515317D01*
X152302834Y-97501276D01*
X152300710Y-97486958D01*
X152300000Y-97472500D01*
X152300000Y-97127500D01*
X152300710Y-97113042D01*
X152302834Y-97098724D01*
X152306351Y-97084683D01*
X152311228Y-97071054D01*
X152317417Y-97057969D01*
X152324858Y-97045553D01*
X152333481Y-97033927D01*
X152343202Y-97023202D01*
X152353927Y-97013481D01*
X152365553Y-97004858D01*
X152377969Y-96997417D01*
X152391054Y-96991228D01*
X152404683Y-96986351D01*
X152418724Y-96982834D01*
X152433042Y-96980710D01*
X152447500Y-96980000D01*
X152742500Y-96980000D01*
X152756958Y-96980710D01*
G37*
G36*
X152517448Y-100148210D02*
G01*
X152531766Y-100150334D01*
X152545807Y-100153851D01*
X152559436Y-100158728D01*
X152572521Y-100164917D01*
X152584937Y-100172358D01*
X152596563Y-100180981D01*
X152607288Y-100190702D01*
X152617009Y-100201427D01*
X152625632Y-100213053D01*
X152633073Y-100225469D01*
X152639262Y-100238554D01*
X152644139Y-100252183D01*
X152647656Y-100266224D01*
X152649780Y-100280542D01*
X152650490Y-100295000D01*
X152650490Y-100590000D01*
X152649780Y-100604458D01*
X152647656Y-100618776D01*
X152644139Y-100632817D01*
X152639262Y-100646446D01*
X152633073Y-100659531D01*
X152625632Y-100671947D01*
X152617009Y-100683573D01*
X152607288Y-100694298D01*
X152596563Y-100704019D01*
X152584937Y-100712642D01*
X152572521Y-100720083D01*
X152559436Y-100726272D01*
X152545807Y-100731149D01*
X152531766Y-100734666D01*
X152517448Y-100736790D01*
X152502990Y-100737500D01*
X152157990Y-100737500D01*
X152143532Y-100736790D01*
X152129214Y-100734666D01*
X152115173Y-100731149D01*
X152101544Y-100726272D01*
X152088459Y-100720083D01*
X152076043Y-100712642D01*
X152064417Y-100704019D01*
X152053692Y-100694298D01*
X152043971Y-100683573D01*
X152035348Y-100671947D01*
X152027907Y-100659531D01*
X152021718Y-100646446D01*
X152016841Y-100632817D01*
X152013324Y-100618776D01*
X152011200Y-100604458D01*
X152010490Y-100590000D01*
X152010490Y-100295000D01*
X152011200Y-100280542D01*
X152013324Y-100266224D01*
X152016841Y-100252183D01*
X152021718Y-100238554D01*
X152027907Y-100225469D01*
X152035348Y-100213053D01*
X152043971Y-100201427D01*
X152053692Y-100190702D01*
X152064417Y-100180981D01*
X152076043Y-100172358D01*
X152088459Y-100164917D01*
X152101544Y-100158728D01*
X152115173Y-100153851D01*
X152129214Y-100150334D01*
X152143532Y-100148210D01*
X152157990Y-100147500D01*
X152502990Y-100147500D01*
X152517448Y-100148210D01*
G37*
G36*
X152517448Y-101118210D02*
G01*
X152531766Y-101120334D01*
X152545807Y-101123851D01*
X152559436Y-101128728D01*
X152572521Y-101134917D01*
X152584937Y-101142358D01*
X152596563Y-101150981D01*
X152607288Y-101160702D01*
X152617009Y-101171427D01*
X152625632Y-101183053D01*
X152633073Y-101195469D01*
X152639262Y-101208554D01*
X152644139Y-101222183D01*
X152647656Y-101236224D01*
X152649780Y-101250542D01*
X152650490Y-101265000D01*
X152650490Y-101560000D01*
X152649780Y-101574458D01*
X152647656Y-101588776D01*
X152644139Y-101602817D01*
X152639262Y-101616446D01*
X152633073Y-101629531D01*
X152625632Y-101641947D01*
X152617009Y-101653573D01*
X152607288Y-101664298D01*
X152596563Y-101674019D01*
X152584937Y-101682642D01*
X152572521Y-101690083D01*
X152559436Y-101696272D01*
X152545807Y-101701149D01*
X152531766Y-101704666D01*
X152517448Y-101706790D01*
X152502990Y-101707500D01*
X152157990Y-101707500D01*
X152143532Y-101706790D01*
X152129214Y-101704666D01*
X152115173Y-101701149D01*
X152101544Y-101696272D01*
X152088459Y-101690083D01*
X152076043Y-101682642D01*
X152064417Y-101674019D01*
X152053692Y-101664298D01*
X152043971Y-101653573D01*
X152035348Y-101641947D01*
X152027907Y-101629531D01*
X152021718Y-101616446D01*
X152016841Y-101602817D01*
X152013324Y-101588776D01*
X152011200Y-101574458D01*
X152010490Y-101560000D01*
X152010490Y-101265000D01*
X152011200Y-101250542D01*
X152013324Y-101236224D01*
X152016841Y-101222183D01*
X152021718Y-101208554D01*
X152027907Y-101195469D01*
X152035348Y-101183053D01*
X152043971Y-101171427D01*
X152053692Y-101160702D01*
X152064417Y-101150981D01*
X152076043Y-101142358D01*
X152088459Y-101134917D01*
X152101544Y-101128728D01*
X152115173Y-101123851D01*
X152129214Y-101120334D01*
X152143532Y-101118210D01*
X152157990Y-101117500D01*
X152502990Y-101117500D01*
X152517448Y-101118210D01*
G37*
G36*
X153717448Y-93690710D02*
G01*
X153731766Y-93692834D01*
X153745807Y-93696351D01*
X153759436Y-93701228D01*
X153772521Y-93707417D01*
X153784937Y-93714858D01*
X153796563Y-93723481D01*
X153807288Y-93733202D01*
X153817009Y-93743927D01*
X153825632Y-93755553D01*
X153833073Y-93767969D01*
X153839262Y-93781054D01*
X153844139Y-93794683D01*
X153847656Y-93808724D01*
X153849780Y-93823042D01*
X153850490Y-93837500D01*
X153850490Y-94132500D01*
X153849780Y-94146958D01*
X153847656Y-94161276D01*
X153844139Y-94175317D01*
X153839262Y-94188946D01*
X153833073Y-94202031D01*
X153825632Y-94214447D01*
X153817009Y-94226073D01*
X153807288Y-94236798D01*
X153796563Y-94246519D01*
X153784937Y-94255142D01*
X153772521Y-94262583D01*
X153759436Y-94268772D01*
X153745807Y-94273649D01*
X153731766Y-94277166D01*
X153717448Y-94279290D01*
X153702990Y-94280000D01*
X153357990Y-94280000D01*
X153343532Y-94279290D01*
X153329214Y-94277166D01*
X153315173Y-94273649D01*
X153301544Y-94268772D01*
X153288459Y-94262583D01*
X153276043Y-94255142D01*
X153264417Y-94246519D01*
X153253692Y-94236798D01*
X153243971Y-94226073D01*
X153235348Y-94214447D01*
X153227907Y-94202031D01*
X153221718Y-94188946D01*
X153216841Y-94175317D01*
X153213324Y-94161276D01*
X153211200Y-94146958D01*
X153210490Y-94132500D01*
X153210490Y-93837500D01*
X153211200Y-93823042D01*
X153213324Y-93808724D01*
X153216841Y-93794683D01*
X153221718Y-93781054D01*
X153227907Y-93767969D01*
X153235348Y-93755553D01*
X153243971Y-93743927D01*
X153253692Y-93733202D01*
X153264417Y-93723481D01*
X153276043Y-93714858D01*
X153288459Y-93707417D01*
X153301544Y-93701228D01*
X153315173Y-93696351D01*
X153329214Y-93692834D01*
X153343532Y-93690710D01*
X153357990Y-93690000D01*
X153702990Y-93690000D01*
X153717448Y-93690710D01*
G37*
G36*
X153717448Y-92720710D02*
G01*
X153731766Y-92722834D01*
X153745807Y-92726351D01*
X153759436Y-92731228D01*
X153772521Y-92737417D01*
X153784937Y-92744858D01*
X153796563Y-92753481D01*
X153807288Y-92763202D01*
X153817009Y-92773927D01*
X153825632Y-92785553D01*
X153833073Y-92797969D01*
X153839262Y-92811054D01*
X153844139Y-92824683D01*
X153847656Y-92838724D01*
X153849780Y-92853042D01*
X153850490Y-92867500D01*
X153850490Y-93162500D01*
X153849780Y-93176958D01*
X153847656Y-93191276D01*
X153844139Y-93205317D01*
X153839262Y-93218946D01*
X153833073Y-93232031D01*
X153825632Y-93244447D01*
X153817009Y-93256073D01*
X153807288Y-93266798D01*
X153796563Y-93276519D01*
X153784937Y-93285142D01*
X153772521Y-93292583D01*
X153759436Y-93298772D01*
X153745807Y-93303649D01*
X153731766Y-93307166D01*
X153717448Y-93309290D01*
X153702990Y-93310000D01*
X153357990Y-93310000D01*
X153343532Y-93309290D01*
X153329214Y-93307166D01*
X153315173Y-93303649D01*
X153301544Y-93298772D01*
X153288459Y-93292583D01*
X153276043Y-93285142D01*
X153264417Y-93276519D01*
X153253692Y-93266798D01*
X153243971Y-93256073D01*
X153235348Y-93244447D01*
X153227907Y-93232031D01*
X153221718Y-93218946D01*
X153216841Y-93205317D01*
X153213324Y-93191276D01*
X153211200Y-93176958D01*
X153210490Y-93162500D01*
X153210490Y-92867500D01*
X153211200Y-92853042D01*
X153213324Y-92838724D01*
X153216841Y-92824683D01*
X153221718Y-92811054D01*
X153227907Y-92797969D01*
X153235348Y-92785553D01*
X153243971Y-92773927D01*
X153253692Y-92763202D01*
X153264417Y-92753481D01*
X153276043Y-92744858D01*
X153288459Y-92737417D01*
X153301544Y-92731228D01*
X153315173Y-92726351D01*
X153329214Y-92722834D01*
X153343532Y-92720710D01*
X153357990Y-92720000D01*
X153702990Y-92720000D01*
X153717448Y-92720710D01*
G37*
D14*
X155400000Y-109200000D03*
X152000000Y-109200000D03*
D15*
X144450000Y-90100000D03*
X145400000Y-90100000D03*
X146350000Y-90100000D03*
X146350000Y-92900000D03*
X145400000Y-92900000D03*
X144450000Y-92900000D03*
D16*
X145400000Y-91500000D03*
D12*
G36*
X145450961Y-98440245D02*
G01*
X145453806Y-98430866D01*
X145458427Y-98422221D01*
X145464645Y-98414645D01*
X145472221Y-98408427D01*
X145480866Y-98403806D01*
X145490245Y-98400961D01*
X145500000Y-98400000D01*
X146200000Y-98400000D01*
X146209755Y-98400961D01*
X146219134Y-98403806D01*
X146227779Y-98408427D01*
X146235355Y-98414645D01*
X146241573Y-98422221D01*
X146246194Y-98430866D01*
X146249039Y-98440245D01*
X146250000Y-98450000D01*
X146250000Y-98479289D01*
X146249039Y-98489044D01*
X146246194Y-98498423D01*
X146241573Y-98507068D01*
X146235355Y-98514644D01*
X146164644Y-98585355D01*
X146157068Y-98591573D01*
X146148423Y-98596194D01*
X146139044Y-98599039D01*
X146129289Y-98600000D01*
X145500000Y-98600000D01*
X145490245Y-98599039D01*
X145480866Y-98596194D01*
X145472221Y-98591573D01*
X145464645Y-98585355D01*
X145458427Y-98577779D01*
X145453806Y-98569134D01*
X145450961Y-98559755D01*
X145450000Y-98550000D01*
X145450000Y-98450000D01*
X145450961Y-98440245D01*
G37*
G36*
X146204901Y-98000241D02*
G01*
X146209755Y-98000961D01*
X146214514Y-98002153D01*
X146219134Y-98003806D01*
X146223570Y-98005904D01*
X146227779Y-98008427D01*
X146231720Y-98011349D01*
X146235355Y-98014645D01*
X146238651Y-98018280D01*
X146241573Y-98022221D01*
X146244096Y-98026430D01*
X146246194Y-98030866D01*
X146247847Y-98035486D01*
X146249039Y-98040245D01*
X146249759Y-98045099D01*
X146250000Y-98050000D01*
X146250000Y-98150000D01*
X146249759Y-98154901D01*
X146249039Y-98159755D01*
X146247847Y-98164514D01*
X146246194Y-98169134D01*
X146244096Y-98173570D01*
X146241573Y-98177779D01*
X146238651Y-98181720D01*
X146235355Y-98185355D01*
X146231720Y-98188651D01*
X146227779Y-98191573D01*
X146223570Y-98194096D01*
X146219134Y-98196194D01*
X146214514Y-98197847D01*
X146209755Y-98199039D01*
X146204901Y-98199759D01*
X146200000Y-98200000D01*
X145500000Y-98200000D01*
X145495099Y-98199759D01*
X145490245Y-98199039D01*
X145485486Y-98197847D01*
X145480866Y-98196194D01*
X145476430Y-98194096D01*
X145472221Y-98191573D01*
X145468280Y-98188651D01*
X145464645Y-98185355D01*
X145461349Y-98181720D01*
X145458427Y-98177779D01*
X145455904Y-98173570D01*
X145453806Y-98169134D01*
X145452153Y-98164514D01*
X145450961Y-98159755D01*
X145450241Y-98154901D01*
X145450000Y-98150000D01*
X145450000Y-98050000D01*
X145450241Y-98045099D01*
X145450961Y-98040245D01*
X145452153Y-98035486D01*
X145453806Y-98030866D01*
X145455904Y-98026430D01*
X145458427Y-98022221D01*
X145461349Y-98018280D01*
X145464645Y-98014645D01*
X145468280Y-98011349D01*
X145472221Y-98008427D01*
X145476430Y-98005904D01*
X145480866Y-98003806D01*
X145485486Y-98002153D01*
X145490245Y-98000961D01*
X145495099Y-98000241D01*
X145500000Y-98000000D01*
X146200000Y-98000000D01*
X146204901Y-98000241D01*
G37*
G36*
X146204901Y-97600241D02*
G01*
X146209755Y-97600961D01*
X146214514Y-97602153D01*
X146219134Y-97603806D01*
X146223570Y-97605904D01*
X146227779Y-97608427D01*
X146231720Y-97611349D01*
X146235355Y-97614645D01*
X146238651Y-97618280D01*
X146241573Y-97622221D01*
X146244096Y-97626430D01*
X146246194Y-97630866D01*
X146247847Y-97635486D01*
X146249039Y-97640245D01*
X146249759Y-97645099D01*
X146250000Y-97650000D01*
X146250000Y-97750000D01*
X146249759Y-97754901D01*
X146249039Y-97759755D01*
X146247847Y-97764514D01*
X146246194Y-97769134D01*
X146244096Y-97773570D01*
X146241573Y-97777779D01*
X146238651Y-97781720D01*
X146235355Y-97785355D01*
X146231720Y-97788651D01*
X146227779Y-97791573D01*
X146223570Y-97794096D01*
X146219134Y-97796194D01*
X146214514Y-97797847D01*
X146209755Y-97799039D01*
X146204901Y-97799759D01*
X146200000Y-97800000D01*
X145500000Y-97800000D01*
X145495099Y-97799759D01*
X145490245Y-97799039D01*
X145485486Y-97797847D01*
X145480866Y-97796194D01*
X145476430Y-97794096D01*
X145472221Y-97791573D01*
X145468280Y-97788651D01*
X145464645Y-97785355D01*
X145461349Y-97781720D01*
X145458427Y-97777779D01*
X145455904Y-97773570D01*
X145453806Y-97769134D01*
X145452153Y-97764514D01*
X145450961Y-97759755D01*
X145450241Y-97754901D01*
X145450000Y-97750000D01*
X145450000Y-97650000D01*
X145450241Y-97645099D01*
X145450961Y-97640245D01*
X145452153Y-97635486D01*
X145453806Y-97630866D01*
X145455904Y-97626430D01*
X145458427Y-97622221D01*
X145461349Y-97618280D01*
X145464645Y-97614645D01*
X145468280Y-97611349D01*
X145472221Y-97608427D01*
X145476430Y-97605904D01*
X145480866Y-97603806D01*
X145485486Y-97602153D01*
X145490245Y-97600961D01*
X145495099Y-97600241D01*
X145500000Y-97600000D01*
X146200000Y-97600000D01*
X146204901Y-97600241D01*
G37*
G36*
X146204901Y-97200241D02*
G01*
X146209755Y-97200961D01*
X146214514Y-97202153D01*
X146219134Y-97203806D01*
X146223570Y-97205904D01*
X146227779Y-97208427D01*
X146231720Y-97211349D01*
X146235355Y-97214645D01*
X146238651Y-97218280D01*
X146241573Y-97222221D01*
X146244096Y-97226430D01*
X146246194Y-97230866D01*
X146247847Y-97235486D01*
X146249039Y-97240245D01*
X146249759Y-97245099D01*
X146250000Y-97250000D01*
X146250000Y-97350000D01*
X146249759Y-97354901D01*
X146249039Y-97359755D01*
X146247847Y-97364514D01*
X146246194Y-97369134D01*
X146244096Y-97373570D01*
X146241573Y-97377779D01*
X146238651Y-97381720D01*
X146235355Y-97385355D01*
X146231720Y-97388651D01*
X146227779Y-97391573D01*
X146223570Y-97394096D01*
X146219134Y-97396194D01*
X146214514Y-97397847D01*
X146209755Y-97399039D01*
X146204901Y-97399759D01*
X146200000Y-97400000D01*
X145500000Y-97400000D01*
X145495099Y-97399759D01*
X145490245Y-97399039D01*
X145485486Y-97397847D01*
X145480866Y-97396194D01*
X145476430Y-97394096D01*
X145472221Y-97391573D01*
X145468280Y-97388651D01*
X145464645Y-97385355D01*
X145461349Y-97381720D01*
X145458427Y-97377779D01*
X145455904Y-97373570D01*
X145453806Y-97369134D01*
X145452153Y-97364514D01*
X145450961Y-97359755D01*
X145450241Y-97354901D01*
X145450000Y-97350000D01*
X145450000Y-97250000D01*
X145450241Y-97245099D01*
X145450961Y-97240245D01*
X145452153Y-97235486D01*
X145453806Y-97230866D01*
X145455904Y-97226430D01*
X145458427Y-97222221D01*
X145461349Y-97218280D01*
X145464645Y-97214645D01*
X145468280Y-97211349D01*
X145472221Y-97208427D01*
X145476430Y-97205904D01*
X145480866Y-97203806D01*
X145485486Y-97202153D01*
X145490245Y-97200961D01*
X145495099Y-97200241D01*
X145500000Y-97200000D01*
X146200000Y-97200000D01*
X146204901Y-97200241D01*
G37*
G36*
X146204901Y-96800241D02*
G01*
X146209755Y-96800961D01*
X146214514Y-96802153D01*
X146219134Y-96803806D01*
X146223570Y-96805904D01*
X146227779Y-96808427D01*
X146231720Y-96811349D01*
X146235355Y-96814645D01*
X146238651Y-96818280D01*
X146241573Y-96822221D01*
X146244096Y-96826430D01*
X146246194Y-96830866D01*
X146247847Y-96835486D01*
X146249039Y-96840245D01*
X146249759Y-96845099D01*
X146250000Y-96850000D01*
X146250000Y-96950000D01*
X146249759Y-96954901D01*
X146249039Y-96959755D01*
X146247847Y-96964514D01*
X146246194Y-96969134D01*
X146244096Y-96973570D01*
X146241573Y-96977779D01*
X146238651Y-96981720D01*
X146235355Y-96985355D01*
X146231720Y-96988651D01*
X146227779Y-96991573D01*
X146223570Y-96994096D01*
X146219134Y-96996194D01*
X146214514Y-96997847D01*
X146209755Y-96999039D01*
X146204901Y-96999759D01*
X146200000Y-97000000D01*
X145500000Y-97000000D01*
X145495099Y-96999759D01*
X145490245Y-96999039D01*
X145485486Y-96997847D01*
X145480866Y-96996194D01*
X145476430Y-96994096D01*
X145472221Y-96991573D01*
X145468280Y-96988651D01*
X145464645Y-96985355D01*
X145461349Y-96981720D01*
X145458427Y-96977779D01*
X145455904Y-96973570D01*
X145453806Y-96969134D01*
X145452153Y-96964514D01*
X145450961Y-96959755D01*
X145450241Y-96954901D01*
X145450000Y-96950000D01*
X145450000Y-96850000D01*
X145450241Y-96845099D01*
X145450961Y-96840245D01*
X145452153Y-96835486D01*
X145453806Y-96830866D01*
X145455904Y-96826430D01*
X145458427Y-96822221D01*
X145461349Y-96818280D01*
X145464645Y-96814645D01*
X145468280Y-96811349D01*
X145472221Y-96808427D01*
X145476430Y-96805904D01*
X145480866Y-96803806D01*
X145485486Y-96802153D01*
X145490245Y-96800961D01*
X145495099Y-96800241D01*
X145500000Y-96800000D01*
X146200000Y-96800000D01*
X146204901Y-96800241D01*
G37*
G36*
X146204901Y-96400241D02*
G01*
X146209755Y-96400961D01*
X146214514Y-96402153D01*
X146219134Y-96403806D01*
X146223570Y-96405904D01*
X146227779Y-96408427D01*
X146231720Y-96411349D01*
X146235355Y-96414645D01*
X146238651Y-96418280D01*
X146241573Y-96422221D01*
X146244096Y-96426430D01*
X146246194Y-96430866D01*
X146247847Y-96435486D01*
X146249039Y-96440245D01*
X146249759Y-96445099D01*
X146250000Y-96450000D01*
X146250000Y-96550000D01*
X146249759Y-96554901D01*
X146249039Y-96559755D01*
X146247847Y-96564514D01*
X146246194Y-96569134D01*
X146244096Y-96573570D01*
X146241573Y-96577779D01*
X146238651Y-96581720D01*
X146235355Y-96585355D01*
X146231720Y-96588651D01*
X146227779Y-96591573D01*
X146223570Y-96594096D01*
X146219134Y-96596194D01*
X146214514Y-96597847D01*
X146209755Y-96599039D01*
X146204901Y-96599759D01*
X146200000Y-96600000D01*
X145500000Y-96600000D01*
X145495099Y-96599759D01*
X145490245Y-96599039D01*
X145485486Y-96597847D01*
X145480866Y-96596194D01*
X145476430Y-96594096D01*
X145472221Y-96591573D01*
X145468280Y-96588651D01*
X145464645Y-96585355D01*
X145461349Y-96581720D01*
X145458427Y-96577779D01*
X145455904Y-96573570D01*
X145453806Y-96569134D01*
X145452153Y-96564514D01*
X145450961Y-96559755D01*
X145450241Y-96554901D01*
X145450000Y-96550000D01*
X145450000Y-96450000D01*
X145450241Y-96445099D01*
X145450961Y-96440245D01*
X145452153Y-96435486D01*
X145453806Y-96430866D01*
X145455904Y-96426430D01*
X145458427Y-96422221D01*
X145461349Y-96418280D01*
X145464645Y-96414645D01*
X145468280Y-96411349D01*
X145472221Y-96408427D01*
X145476430Y-96405904D01*
X145480866Y-96403806D01*
X145485486Y-96402153D01*
X145490245Y-96400961D01*
X145495099Y-96400241D01*
X145500000Y-96400000D01*
X146200000Y-96400000D01*
X146204901Y-96400241D01*
G37*
G36*
X146204901Y-96000241D02*
G01*
X146209755Y-96000961D01*
X146214514Y-96002153D01*
X146219134Y-96003806D01*
X146223570Y-96005904D01*
X146227779Y-96008427D01*
X146231720Y-96011349D01*
X146235355Y-96014645D01*
X146238651Y-96018280D01*
X146241573Y-96022221D01*
X146244096Y-96026430D01*
X146246194Y-96030866D01*
X146247847Y-96035486D01*
X146249039Y-96040245D01*
X146249759Y-96045099D01*
X146250000Y-96050000D01*
X146250000Y-96150000D01*
X146249759Y-96154901D01*
X146249039Y-96159755D01*
X146247847Y-96164514D01*
X146246194Y-96169134D01*
X146244096Y-96173570D01*
X146241573Y-96177779D01*
X146238651Y-96181720D01*
X146235355Y-96185355D01*
X146231720Y-96188651D01*
X146227779Y-96191573D01*
X146223570Y-96194096D01*
X146219134Y-96196194D01*
X146214514Y-96197847D01*
X146209755Y-96199039D01*
X146204901Y-96199759D01*
X146200000Y-96200000D01*
X145500000Y-96200000D01*
X145495099Y-96199759D01*
X145490245Y-96199039D01*
X145485486Y-96197847D01*
X145480866Y-96196194D01*
X145476430Y-96194096D01*
X145472221Y-96191573D01*
X145468280Y-96188651D01*
X145464645Y-96185355D01*
X145461349Y-96181720D01*
X145458427Y-96177779D01*
X145455904Y-96173570D01*
X145453806Y-96169134D01*
X145452153Y-96164514D01*
X145450961Y-96159755D01*
X145450241Y-96154901D01*
X145450000Y-96150000D01*
X145450000Y-96050000D01*
X145450241Y-96045099D01*
X145450961Y-96040245D01*
X145452153Y-96035486D01*
X145453806Y-96030866D01*
X145455904Y-96026430D01*
X145458427Y-96022221D01*
X145461349Y-96018280D01*
X145464645Y-96014645D01*
X145468280Y-96011349D01*
X145472221Y-96008427D01*
X145476430Y-96005904D01*
X145480866Y-96003806D01*
X145485486Y-96002153D01*
X145490245Y-96000961D01*
X145495099Y-96000241D01*
X145500000Y-96000000D01*
X146200000Y-96000000D01*
X146204901Y-96000241D01*
G37*
G36*
X145450961Y-95640245D02*
G01*
X145453806Y-95630866D01*
X145458427Y-95622221D01*
X145464645Y-95614645D01*
X145472221Y-95608427D01*
X145480866Y-95603806D01*
X145490245Y-95600961D01*
X145500000Y-95600000D01*
X146129289Y-95600000D01*
X146139044Y-95600961D01*
X146148423Y-95603806D01*
X146157068Y-95608427D01*
X146164644Y-95614645D01*
X146235355Y-95685356D01*
X146241573Y-95692932D01*
X146246194Y-95701577D01*
X146249039Y-95710956D01*
X146250000Y-95720711D01*
X146250000Y-95750000D01*
X146249039Y-95759755D01*
X146246194Y-95769134D01*
X146241573Y-95777779D01*
X146235355Y-95785355D01*
X146227779Y-95791573D01*
X146219134Y-95796194D01*
X146209755Y-95799039D01*
X146200000Y-95800000D01*
X145500000Y-95800000D01*
X145490245Y-95799039D01*
X145480866Y-95796194D01*
X145472221Y-95791573D01*
X145464645Y-95785355D01*
X145458427Y-95777779D01*
X145453806Y-95769134D01*
X145450961Y-95759755D01*
X145450000Y-95750000D01*
X145450000Y-95650000D01*
X145450961Y-95640245D01*
G37*
G36*
X146300961Y-94790245D02*
G01*
X146303806Y-94780866D01*
X146308427Y-94772221D01*
X146314645Y-94764645D01*
X146322221Y-94758427D01*
X146330866Y-94753806D01*
X146340245Y-94750961D01*
X146350000Y-94750000D01*
X146450000Y-94750000D01*
X146459755Y-94750961D01*
X146469134Y-94753806D01*
X146477779Y-94758427D01*
X146485355Y-94764645D01*
X146491573Y-94772221D01*
X146496194Y-94780866D01*
X146499039Y-94790245D01*
X146500000Y-94800000D01*
X146500000Y-95500000D01*
X146499039Y-95509755D01*
X146496194Y-95519134D01*
X146491573Y-95527779D01*
X146485355Y-95535355D01*
X146477779Y-95541573D01*
X146469134Y-95546194D01*
X146459755Y-95549039D01*
X146450000Y-95550000D01*
X146420711Y-95550000D01*
X146410956Y-95549039D01*
X146401577Y-95546194D01*
X146392932Y-95541573D01*
X146385356Y-95535355D01*
X146314645Y-95464644D01*
X146308427Y-95457068D01*
X146303806Y-95448423D01*
X146300961Y-95439044D01*
X146300000Y-95429289D01*
X146300000Y-94800000D01*
X146300961Y-94790245D01*
G37*
G36*
X146854901Y-94750241D02*
G01*
X146859755Y-94750961D01*
X146864514Y-94752153D01*
X146869134Y-94753806D01*
X146873570Y-94755904D01*
X146877779Y-94758427D01*
X146881720Y-94761349D01*
X146885355Y-94764645D01*
X146888651Y-94768280D01*
X146891573Y-94772221D01*
X146894096Y-94776430D01*
X146896194Y-94780866D01*
X146897847Y-94785486D01*
X146899039Y-94790245D01*
X146899759Y-94795099D01*
X146900000Y-94800000D01*
X146900000Y-95500000D01*
X146899759Y-95504901D01*
X146899039Y-95509755D01*
X146897847Y-95514514D01*
X146896194Y-95519134D01*
X146894096Y-95523570D01*
X146891573Y-95527779D01*
X146888651Y-95531720D01*
X146885355Y-95535355D01*
X146881720Y-95538651D01*
X146877779Y-95541573D01*
X146873570Y-95544096D01*
X146869134Y-95546194D01*
X146864514Y-95547847D01*
X146859755Y-95549039D01*
X146854901Y-95549759D01*
X146850000Y-95550000D01*
X146750000Y-95550000D01*
X146745099Y-95549759D01*
X146740245Y-95549039D01*
X146735486Y-95547847D01*
X146730866Y-95546194D01*
X146726430Y-95544096D01*
X146722221Y-95541573D01*
X146718280Y-95538651D01*
X146714645Y-95535355D01*
X146711349Y-95531720D01*
X146708427Y-95527779D01*
X146705904Y-95523570D01*
X146703806Y-95519134D01*
X146702153Y-95514514D01*
X146700961Y-95509755D01*
X146700241Y-95504901D01*
X146700000Y-95500000D01*
X146700000Y-94800000D01*
X146700241Y-94795099D01*
X146700961Y-94790245D01*
X146702153Y-94785486D01*
X146703806Y-94780866D01*
X146705904Y-94776430D01*
X146708427Y-94772221D01*
X146711349Y-94768280D01*
X146714645Y-94764645D01*
X146718280Y-94761349D01*
X146722221Y-94758427D01*
X146726430Y-94755904D01*
X146730866Y-94753806D01*
X146735486Y-94752153D01*
X146740245Y-94750961D01*
X146745099Y-94750241D01*
X146750000Y-94750000D01*
X146850000Y-94750000D01*
X146854901Y-94750241D01*
G37*
G36*
X147254901Y-94750241D02*
G01*
X147259755Y-94750961D01*
X147264514Y-94752153D01*
X147269134Y-94753806D01*
X147273570Y-94755904D01*
X147277779Y-94758427D01*
X147281720Y-94761349D01*
X147285355Y-94764645D01*
X147288651Y-94768280D01*
X147291573Y-94772221D01*
X147294096Y-94776430D01*
X147296194Y-94780866D01*
X147297847Y-94785486D01*
X147299039Y-94790245D01*
X147299759Y-94795099D01*
X147300000Y-94800000D01*
X147300000Y-95500000D01*
X147299759Y-95504901D01*
X147299039Y-95509755D01*
X147297847Y-95514514D01*
X147296194Y-95519134D01*
X147294096Y-95523570D01*
X147291573Y-95527779D01*
X147288651Y-95531720D01*
X147285355Y-95535355D01*
X147281720Y-95538651D01*
X147277779Y-95541573D01*
X147273570Y-95544096D01*
X147269134Y-95546194D01*
X147264514Y-95547847D01*
X147259755Y-95549039D01*
X147254901Y-95549759D01*
X147250000Y-95550000D01*
X147150000Y-95550000D01*
X147145099Y-95549759D01*
X147140245Y-95549039D01*
X147135486Y-95547847D01*
X147130866Y-95546194D01*
X147126430Y-95544096D01*
X147122221Y-95541573D01*
X147118280Y-95538651D01*
X147114645Y-95535355D01*
X147111349Y-95531720D01*
X147108427Y-95527779D01*
X147105904Y-95523570D01*
X147103806Y-95519134D01*
X147102153Y-95514514D01*
X147100961Y-95509755D01*
X147100241Y-95504901D01*
X147100000Y-95500000D01*
X147100000Y-94800000D01*
X147100241Y-94795099D01*
X147100961Y-94790245D01*
X147102153Y-94785486D01*
X147103806Y-94780866D01*
X147105904Y-94776430D01*
X147108427Y-94772221D01*
X147111349Y-94768280D01*
X147114645Y-94764645D01*
X147118280Y-94761349D01*
X147122221Y-94758427D01*
X147126430Y-94755904D01*
X147130866Y-94753806D01*
X147135486Y-94752153D01*
X147140245Y-94750961D01*
X147145099Y-94750241D01*
X147150000Y-94750000D01*
X147250000Y-94750000D01*
X147254901Y-94750241D01*
G37*
G36*
X147654901Y-94750241D02*
G01*
X147659755Y-94750961D01*
X147664514Y-94752153D01*
X147669134Y-94753806D01*
X147673570Y-94755904D01*
X147677779Y-94758427D01*
X147681720Y-94761349D01*
X147685355Y-94764645D01*
X147688651Y-94768280D01*
X147691573Y-94772221D01*
X147694096Y-94776430D01*
X147696194Y-94780866D01*
X147697847Y-94785486D01*
X147699039Y-94790245D01*
X147699759Y-94795099D01*
X147700000Y-94800000D01*
X147700000Y-95500000D01*
X147699759Y-95504901D01*
X147699039Y-95509755D01*
X147697847Y-95514514D01*
X147696194Y-95519134D01*
X147694096Y-95523570D01*
X147691573Y-95527779D01*
X147688651Y-95531720D01*
X147685355Y-95535355D01*
X147681720Y-95538651D01*
X147677779Y-95541573D01*
X147673570Y-95544096D01*
X147669134Y-95546194D01*
X147664514Y-95547847D01*
X147659755Y-95549039D01*
X147654901Y-95549759D01*
X147650000Y-95550000D01*
X147550000Y-95550000D01*
X147545099Y-95549759D01*
X147540245Y-95549039D01*
X147535486Y-95547847D01*
X147530866Y-95546194D01*
X147526430Y-95544096D01*
X147522221Y-95541573D01*
X147518280Y-95538651D01*
X147514645Y-95535355D01*
X147511349Y-95531720D01*
X147508427Y-95527779D01*
X147505904Y-95523570D01*
X147503806Y-95519134D01*
X147502153Y-95514514D01*
X147500961Y-95509755D01*
X147500241Y-95504901D01*
X147500000Y-95500000D01*
X147500000Y-94800000D01*
X147500241Y-94795099D01*
X147500961Y-94790245D01*
X147502153Y-94785486D01*
X147503806Y-94780866D01*
X147505904Y-94776430D01*
X147508427Y-94772221D01*
X147511349Y-94768280D01*
X147514645Y-94764645D01*
X147518280Y-94761349D01*
X147522221Y-94758427D01*
X147526430Y-94755904D01*
X147530866Y-94753806D01*
X147535486Y-94752153D01*
X147540245Y-94750961D01*
X147545099Y-94750241D01*
X147550000Y-94750000D01*
X147650000Y-94750000D01*
X147654901Y-94750241D01*
G37*
G36*
X148054901Y-94750241D02*
G01*
X148059755Y-94750961D01*
X148064514Y-94752153D01*
X148069134Y-94753806D01*
X148073570Y-94755904D01*
X148077779Y-94758427D01*
X148081720Y-94761349D01*
X148085355Y-94764645D01*
X148088651Y-94768280D01*
X148091573Y-94772221D01*
X148094096Y-94776430D01*
X148096194Y-94780866D01*
X148097847Y-94785486D01*
X148099039Y-94790245D01*
X148099759Y-94795099D01*
X148100000Y-94800000D01*
X148100000Y-95500000D01*
X148099759Y-95504901D01*
X148099039Y-95509755D01*
X148097847Y-95514514D01*
X148096194Y-95519134D01*
X148094096Y-95523570D01*
X148091573Y-95527779D01*
X148088651Y-95531720D01*
X148085355Y-95535355D01*
X148081720Y-95538651D01*
X148077779Y-95541573D01*
X148073570Y-95544096D01*
X148069134Y-95546194D01*
X148064514Y-95547847D01*
X148059755Y-95549039D01*
X148054901Y-95549759D01*
X148050000Y-95550000D01*
X147950000Y-95550000D01*
X147945099Y-95549759D01*
X147940245Y-95549039D01*
X147935486Y-95547847D01*
X147930866Y-95546194D01*
X147926430Y-95544096D01*
X147922221Y-95541573D01*
X147918280Y-95538651D01*
X147914645Y-95535355D01*
X147911349Y-95531720D01*
X147908427Y-95527779D01*
X147905904Y-95523570D01*
X147903806Y-95519134D01*
X147902153Y-95514514D01*
X147900961Y-95509755D01*
X147900241Y-95504901D01*
X147900000Y-95500000D01*
X147900000Y-94800000D01*
X147900241Y-94795099D01*
X147900961Y-94790245D01*
X147902153Y-94785486D01*
X147903806Y-94780866D01*
X147905904Y-94776430D01*
X147908427Y-94772221D01*
X147911349Y-94768280D01*
X147914645Y-94764645D01*
X147918280Y-94761349D01*
X147922221Y-94758427D01*
X147926430Y-94755904D01*
X147930866Y-94753806D01*
X147935486Y-94752153D01*
X147940245Y-94750961D01*
X147945099Y-94750241D01*
X147950000Y-94750000D01*
X148050000Y-94750000D01*
X148054901Y-94750241D01*
G37*
G36*
X148454901Y-94750241D02*
G01*
X148459755Y-94750961D01*
X148464514Y-94752153D01*
X148469134Y-94753806D01*
X148473570Y-94755904D01*
X148477779Y-94758427D01*
X148481720Y-94761349D01*
X148485355Y-94764645D01*
X148488651Y-94768280D01*
X148491573Y-94772221D01*
X148494096Y-94776430D01*
X148496194Y-94780866D01*
X148497847Y-94785486D01*
X148499039Y-94790245D01*
X148499759Y-94795099D01*
X148500000Y-94800000D01*
X148500000Y-95500000D01*
X148499759Y-95504901D01*
X148499039Y-95509755D01*
X148497847Y-95514514D01*
X148496194Y-95519134D01*
X148494096Y-95523570D01*
X148491573Y-95527779D01*
X148488651Y-95531720D01*
X148485355Y-95535355D01*
X148481720Y-95538651D01*
X148477779Y-95541573D01*
X148473570Y-95544096D01*
X148469134Y-95546194D01*
X148464514Y-95547847D01*
X148459755Y-95549039D01*
X148454901Y-95549759D01*
X148450000Y-95550000D01*
X148350000Y-95550000D01*
X148345099Y-95549759D01*
X148340245Y-95549039D01*
X148335486Y-95547847D01*
X148330866Y-95546194D01*
X148326430Y-95544096D01*
X148322221Y-95541573D01*
X148318280Y-95538651D01*
X148314645Y-95535355D01*
X148311349Y-95531720D01*
X148308427Y-95527779D01*
X148305904Y-95523570D01*
X148303806Y-95519134D01*
X148302153Y-95514514D01*
X148300961Y-95509755D01*
X148300241Y-95504901D01*
X148300000Y-95500000D01*
X148300000Y-94800000D01*
X148300241Y-94795099D01*
X148300961Y-94790245D01*
X148302153Y-94785486D01*
X148303806Y-94780866D01*
X148305904Y-94776430D01*
X148308427Y-94772221D01*
X148311349Y-94768280D01*
X148314645Y-94764645D01*
X148318280Y-94761349D01*
X148322221Y-94758427D01*
X148326430Y-94755904D01*
X148330866Y-94753806D01*
X148335486Y-94752153D01*
X148340245Y-94750961D01*
X148345099Y-94750241D01*
X148350000Y-94750000D01*
X148450000Y-94750000D01*
X148454901Y-94750241D01*
G37*
G36*
X148854901Y-94750241D02*
G01*
X148859755Y-94750961D01*
X148864514Y-94752153D01*
X148869134Y-94753806D01*
X148873570Y-94755904D01*
X148877779Y-94758427D01*
X148881720Y-94761349D01*
X148885355Y-94764645D01*
X148888651Y-94768280D01*
X148891573Y-94772221D01*
X148894096Y-94776430D01*
X148896194Y-94780866D01*
X148897847Y-94785486D01*
X148899039Y-94790245D01*
X148899759Y-94795099D01*
X148900000Y-94800000D01*
X148900000Y-95500000D01*
X148899759Y-95504901D01*
X148899039Y-95509755D01*
X148897847Y-95514514D01*
X148896194Y-95519134D01*
X148894096Y-95523570D01*
X148891573Y-95527779D01*
X148888651Y-95531720D01*
X148885355Y-95535355D01*
X148881720Y-95538651D01*
X148877779Y-95541573D01*
X148873570Y-95544096D01*
X148869134Y-95546194D01*
X148864514Y-95547847D01*
X148859755Y-95549039D01*
X148854901Y-95549759D01*
X148850000Y-95550000D01*
X148750000Y-95550000D01*
X148745099Y-95549759D01*
X148740245Y-95549039D01*
X148735486Y-95547847D01*
X148730866Y-95546194D01*
X148726430Y-95544096D01*
X148722221Y-95541573D01*
X148718280Y-95538651D01*
X148714645Y-95535355D01*
X148711349Y-95531720D01*
X148708427Y-95527779D01*
X148705904Y-95523570D01*
X148703806Y-95519134D01*
X148702153Y-95514514D01*
X148700961Y-95509755D01*
X148700241Y-95504901D01*
X148700000Y-95500000D01*
X148700000Y-94800000D01*
X148700241Y-94795099D01*
X148700961Y-94790245D01*
X148702153Y-94785486D01*
X148703806Y-94780866D01*
X148705904Y-94776430D01*
X148708427Y-94772221D01*
X148711349Y-94768280D01*
X148714645Y-94764645D01*
X148718280Y-94761349D01*
X148722221Y-94758427D01*
X148726430Y-94755904D01*
X148730866Y-94753806D01*
X148735486Y-94752153D01*
X148740245Y-94750961D01*
X148745099Y-94750241D01*
X148750000Y-94750000D01*
X148850000Y-94750000D01*
X148854901Y-94750241D01*
G37*
G36*
X149100961Y-94790245D02*
G01*
X149103806Y-94780866D01*
X149108427Y-94772221D01*
X149114645Y-94764645D01*
X149122221Y-94758427D01*
X149130866Y-94753806D01*
X149140245Y-94750961D01*
X149150000Y-94750000D01*
X149250000Y-94750000D01*
X149259755Y-94750961D01*
X149269134Y-94753806D01*
X149277779Y-94758427D01*
X149285355Y-94764645D01*
X149291573Y-94772221D01*
X149296194Y-94780866D01*
X149299039Y-94790245D01*
X149300000Y-94800000D01*
X149300000Y-95429289D01*
X149299039Y-95439044D01*
X149296194Y-95448423D01*
X149291573Y-95457068D01*
X149285355Y-95464644D01*
X149214644Y-95535355D01*
X149207068Y-95541573D01*
X149198423Y-95546194D01*
X149189044Y-95549039D01*
X149179289Y-95550000D01*
X149150000Y-95550000D01*
X149140245Y-95549039D01*
X149130866Y-95546194D01*
X149122221Y-95541573D01*
X149114645Y-95535355D01*
X149108427Y-95527779D01*
X149103806Y-95519134D01*
X149100961Y-95509755D01*
X149100000Y-95500000D01*
X149100000Y-94800000D01*
X149100961Y-94790245D01*
G37*
G36*
X149350961Y-95710956D02*
G01*
X149353806Y-95701577D01*
X149358427Y-95692932D01*
X149364645Y-95685356D01*
X149435356Y-95614645D01*
X149442932Y-95608427D01*
X149451577Y-95603806D01*
X149460956Y-95600961D01*
X149470711Y-95600000D01*
X150100000Y-95600000D01*
X150109755Y-95600961D01*
X150119134Y-95603806D01*
X150127779Y-95608427D01*
X150135355Y-95614645D01*
X150141573Y-95622221D01*
X150146194Y-95630866D01*
X150149039Y-95640245D01*
X150150000Y-95650000D01*
X150150000Y-95750000D01*
X150149039Y-95759755D01*
X150146194Y-95769134D01*
X150141573Y-95777779D01*
X150135355Y-95785355D01*
X150127779Y-95791573D01*
X150119134Y-95796194D01*
X150109755Y-95799039D01*
X150100000Y-95800000D01*
X149400000Y-95800000D01*
X149390245Y-95799039D01*
X149380866Y-95796194D01*
X149372221Y-95791573D01*
X149364645Y-95785355D01*
X149358427Y-95777779D01*
X149353806Y-95769134D01*
X149350961Y-95759755D01*
X149350000Y-95750000D01*
X149350000Y-95720711D01*
X149350961Y-95710956D01*
G37*
G36*
X150104901Y-96000241D02*
G01*
X150109755Y-96000961D01*
X150114514Y-96002153D01*
X150119134Y-96003806D01*
X150123570Y-96005904D01*
X150127779Y-96008427D01*
X150131720Y-96011349D01*
X150135355Y-96014645D01*
X150138651Y-96018280D01*
X150141573Y-96022221D01*
X150144096Y-96026430D01*
X150146194Y-96030866D01*
X150147847Y-96035486D01*
X150149039Y-96040245D01*
X150149759Y-96045099D01*
X150150000Y-96050000D01*
X150150000Y-96150000D01*
X150149759Y-96154901D01*
X150149039Y-96159755D01*
X150147847Y-96164514D01*
X150146194Y-96169134D01*
X150144096Y-96173570D01*
X150141573Y-96177779D01*
X150138651Y-96181720D01*
X150135355Y-96185355D01*
X150131720Y-96188651D01*
X150127779Y-96191573D01*
X150123570Y-96194096D01*
X150119134Y-96196194D01*
X150114514Y-96197847D01*
X150109755Y-96199039D01*
X150104901Y-96199759D01*
X150100000Y-96200000D01*
X149400000Y-96200000D01*
X149395099Y-96199759D01*
X149390245Y-96199039D01*
X149385486Y-96197847D01*
X149380866Y-96196194D01*
X149376430Y-96194096D01*
X149372221Y-96191573D01*
X149368280Y-96188651D01*
X149364645Y-96185355D01*
X149361349Y-96181720D01*
X149358427Y-96177779D01*
X149355904Y-96173570D01*
X149353806Y-96169134D01*
X149352153Y-96164514D01*
X149350961Y-96159755D01*
X149350241Y-96154901D01*
X149350000Y-96150000D01*
X149350000Y-96050000D01*
X149350241Y-96045099D01*
X149350961Y-96040245D01*
X149352153Y-96035486D01*
X149353806Y-96030866D01*
X149355904Y-96026430D01*
X149358427Y-96022221D01*
X149361349Y-96018280D01*
X149364645Y-96014645D01*
X149368280Y-96011349D01*
X149372221Y-96008427D01*
X149376430Y-96005904D01*
X149380866Y-96003806D01*
X149385486Y-96002153D01*
X149390245Y-96000961D01*
X149395099Y-96000241D01*
X149400000Y-96000000D01*
X150100000Y-96000000D01*
X150104901Y-96000241D01*
G37*
G36*
X150104901Y-96400241D02*
G01*
X150109755Y-96400961D01*
X150114514Y-96402153D01*
X150119134Y-96403806D01*
X150123570Y-96405904D01*
X150127779Y-96408427D01*
X150131720Y-96411349D01*
X150135355Y-96414645D01*
X150138651Y-96418280D01*
X150141573Y-96422221D01*
X150144096Y-96426430D01*
X150146194Y-96430866D01*
X150147847Y-96435486D01*
X150149039Y-96440245D01*
X150149759Y-96445099D01*
X150150000Y-96450000D01*
X150150000Y-96550000D01*
X150149759Y-96554901D01*
X150149039Y-96559755D01*
X150147847Y-96564514D01*
X150146194Y-96569134D01*
X150144096Y-96573570D01*
X150141573Y-96577779D01*
X150138651Y-96581720D01*
X150135355Y-96585355D01*
X150131720Y-96588651D01*
X150127779Y-96591573D01*
X150123570Y-96594096D01*
X150119134Y-96596194D01*
X150114514Y-96597847D01*
X150109755Y-96599039D01*
X150104901Y-96599759D01*
X150100000Y-96600000D01*
X149400000Y-96600000D01*
X149395099Y-96599759D01*
X149390245Y-96599039D01*
X149385486Y-96597847D01*
X149380866Y-96596194D01*
X149376430Y-96594096D01*
X149372221Y-96591573D01*
X149368280Y-96588651D01*
X149364645Y-96585355D01*
X149361349Y-96581720D01*
X149358427Y-96577779D01*
X149355904Y-96573570D01*
X149353806Y-96569134D01*
X149352153Y-96564514D01*
X149350961Y-96559755D01*
X149350241Y-96554901D01*
X149350000Y-96550000D01*
X149350000Y-96450000D01*
X149350241Y-96445099D01*
X149350961Y-96440245D01*
X149352153Y-96435486D01*
X149353806Y-96430866D01*
X149355904Y-96426430D01*
X149358427Y-96422221D01*
X149361349Y-96418280D01*
X149364645Y-96414645D01*
X149368280Y-96411349D01*
X149372221Y-96408427D01*
X149376430Y-96405904D01*
X149380866Y-96403806D01*
X149385486Y-96402153D01*
X149390245Y-96400961D01*
X149395099Y-96400241D01*
X149400000Y-96400000D01*
X150100000Y-96400000D01*
X150104901Y-96400241D01*
G37*
G36*
X150104901Y-96800241D02*
G01*
X150109755Y-96800961D01*
X150114514Y-96802153D01*
X150119134Y-96803806D01*
X150123570Y-96805904D01*
X150127779Y-96808427D01*
X150131720Y-96811349D01*
X150135355Y-96814645D01*
X150138651Y-96818280D01*
X150141573Y-96822221D01*
X150144096Y-96826430D01*
X150146194Y-96830866D01*
X150147847Y-96835486D01*
X150149039Y-96840245D01*
X150149759Y-96845099D01*
X150150000Y-96850000D01*
X150150000Y-96950000D01*
X150149759Y-96954901D01*
X150149039Y-96959755D01*
X150147847Y-96964514D01*
X150146194Y-96969134D01*
X150144096Y-96973570D01*
X150141573Y-96977779D01*
X150138651Y-96981720D01*
X150135355Y-96985355D01*
X150131720Y-96988651D01*
X150127779Y-96991573D01*
X150123570Y-96994096D01*
X150119134Y-96996194D01*
X150114514Y-96997847D01*
X150109755Y-96999039D01*
X150104901Y-96999759D01*
X150100000Y-97000000D01*
X149400000Y-97000000D01*
X149395099Y-96999759D01*
X149390245Y-96999039D01*
X149385486Y-96997847D01*
X149380866Y-96996194D01*
X149376430Y-96994096D01*
X149372221Y-96991573D01*
X149368280Y-96988651D01*
X149364645Y-96985355D01*
X149361349Y-96981720D01*
X149358427Y-96977779D01*
X149355904Y-96973570D01*
X149353806Y-96969134D01*
X149352153Y-96964514D01*
X149350961Y-96959755D01*
X149350241Y-96954901D01*
X149350000Y-96950000D01*
X149350000Y-96850000D01*
X149350241Y-96845099D01*
X149350961Y-96840245D01*
X149352153Y-96835486D01*
X149353806Y-96830866D01*
X149355904Y-96826430D01*
X149358427Y-96822221D01*
X149361349Y-96818280D01*
X149364645Y-96814645D01*
X149368280Y-96811349D01*
X149372221Y-96808427D01*
X149376430Y-96805904D01*
X149380866Y-96803806D01*
X149385486Y-96802153D01*
X149390245Y-96800961D01*
X149395099Y-96800241D01*
X149400000Y-96800000D01*
X150100000Y-96800000D01*
X150104901Y-96800241D01*
G37*
G36*
X150104901Y-97200241D02*
G01*
X150109755Y-97200961D01*
X150114514Y-97202153D01*
X150119134Y-97203806D01*
X150123570Y-97205904D01*
X150127779Y-97208427D01*
X150131720Y-97211349D01*
X150135355Y-97214645D01*
X150138651Y-97218280D01*
X150141573Y-97222221D01*
X150144096Y-97226430D01*
X150146194Y-97230866D01*
X150147847Y-97235486D01*
X150149039Y-97240245D01*
X150149759Y-97245099D01*
X150150000Y-97250000D01*
X150150000Y-97350000D01*
X150149759Y-97354901D01*
X150149039Y-97359755D01*
X150147847Y-97364514D01*
X150146194Y-97369134D01*
X150144096Y-97373570D01*
X150141573Y-97377779D01*
X150138651Y-97381720D01*
X150135355Y-97385355D01*
X150131720Y-97388651D01*
X150127779Y-97391573D01*
X150123570Y-97394096D01*
X150119134Y-97396194D01*
X150114514Y-97397847D01*
X150109755Y-97399039D01*
X150104901Y-97399759D01*
X150100000Y-97400000D01*
X149400000Y-97400000D01*
X149395099Y-97399759D01*
X149390245Y-97399039D01*
X149385486Y-97397847D01*
X149380866Y-97396194D01*
X149376430Y-97394096D01*
X149372221Y-97391573D01*
X149368280Y-97388651D01*
X149364645Y-97385355D01*
X149361349Y-97381720D01*
X149358427Y-97377779D01*
X149355904Y-97373570D01*
X149353806Y-97369134D01*
X149352153Y-97364514D01*
X149350961Y-97359755D01*
X149350241Y-97354901D01*
X149350000Y-97350000D01*
X149350000Y-97250000D01*
X149350241Y-97245099D01*
X149350961Y-97240245D01*
X149352153Y-97235486D01*
X149353806Y-97230866D01*
X149355904Y-97226430D01*
X149358427Y-97222221D01*
X149361349Y-97218280D01*
X149364645Y-97214645D01*
X149368280Y-97211349D01*
X149372221Y-97208427D01*
X149376430Y-97205904D01*
X149380866Y-97203806D01*
X149385486Y-97202153D01*
X149390245Y-97200961D01*
X149395099Y-97200241D01*
X149400000Y-97200000D01*
X150100000Y-97200000D01*
X150104901Y-97200241D01*
G37*
G36*
X150104901Y-97600241D02*
G01*
X150109755Y-97600961D01*
X150114514Y-97602153D01*
X150119134Y-97603806D01*
X150123570Y-97605904D01*
X150127779Y-97608427D01*
X150131720Y-97611349D01*
X150135355Y-97614645D01*
X150138651Y-97618280D01*
X150141573Y-97622221D01*
X150144096Y-97626430D01*
X150146194Y-97630866D01*
X150147847Y-97635486D01*
X150149039Y-97640245D01*
X150149759Y-97645099D01*
X150150000Y-97650000D01*
X150150000Y-97750000D01*
X150149759Y-97754901D01*
X150149039Y-97759755D01*
X150147847Y-97764514D01*
X150146194Y-97769134D01*
X150144096Y-97773570D01*
X150141573Y-97777779D01*
X150138651Y-97781720D01*
X150135355Y-97785355D01*
X150131720Y-97788651D01*
X150127779Y-97791573D01*
X150123570Y-97794096D01*
X150119134Y-97796194D01*
X150114514Y-97797847D01*
X150109755Y-97799039D01*
X150104901Y-97799759D01*
X150100000Y-97800000D01*
X149400000Y-97800000D01*
X149395099Y-97799759D01*
X149390245Y-97799039D01*
X149385486Y-97797847D01*
X149380866Y-97796194D01*
X149376430Y-97794096D01*
X149372221Y-97791573D01*
X149368280Y-97788651D01*
X149364645Y-97785355D01*
X149361349Y-97781720D01*
X149358427Y-97777779D01*
X149355904Y-97773570D01*
X149353806Y-97769134D01*
X149352153Y-97764514D01*
X149350961Y-97759755D01*
X149350241Y-97754901D01*
X149350000Y-97750000D01*
X149350000Y-97650000D01*
X149350241Y-97645099D01*
X149350961Y-97640245D01*
X149352153Y-97635486D01*
X149353806Y-97630866D01*
X149355904Y-97626430D01*
X149358427Y-97622221D01*
X149361349Y-97618280D01*
X149364645Y-97614645D01*
X149368280Y-97611349D01*
X149372221Y-97608427D01*
X149376430Y-97605904D01*
X149380866Y-97603806D01*
X149385486Y-97602153D01*
X149390245Y-97600961D01*
X149395099Y-97600241D01*
X149400000Y-97600000D01*
X150100000Y-97600000D01*
X150104901Y-97600241D01*
G37*
G36*
X150104901Y-98000241D02*
G01*
X150109755Y-98000961D01*
X150114514Y-98002153D01*
X150119134Y-98003806D01*
X150123570Y-98005904D01*
X150127779Y-98008427D01*
X150131720Y-98011349D01*
X150135355Y-98014645D01*
X150138651Y-98018280D01*
X150141573Y-98022221D01*
X150144096Y-98026430D01*
X150146194Y-98030866D01*
X150147847Y-98035486D01*
X150149039Y-98040245D01*
X150149759Y-98045099D01*
X150150000Y-98050000D01*
X150150000Y-98150000D01*
X150149759Y-98154901D01*
X150149039Y-98159755D01*
X150147847Y-98164514D01*
X150146194Y-98169134D01*
X150144096Y-98173570D01*
X150141573Y-98177779D01*
X150138651Y-98181720D01*
X150135355Y-98185355D01*
X150131720Y-98188651D01*
X150127779Y-98191573D01*
X150123570Y-98194096D01*
X150119134Y-98196194D01*
X150114514Y-98197847D01*
X150109755Y-98199039D01*
X150104901Y-98199759D01*
X150100000Y-98200000D01*
X149400000Y-98200000D01*
X149395099Y-98199759D01*
X149390245Y-98199039D01*
X149385486Y-98197847D01*
X149380866Y-98196194D01*
X149376430Y-98194096D01*
X149372221Y-98191573D01*
X149368280Y-98188651D01*
X149364645Y-98185355D01*
X149361349Y-98181720D01*
X149358427Y-98177779D01*
X149355904Y-98173570D01*
X149353806Y-98169134D01*
X149352153Y-98164514D01*
X149350961Y-98159755D01*
X149350241Y-98154901D01*
X149350000Y-98150000D01*
X149350000Y-98050000D01*
X149350241Y-98045099D01*
X149350961Y-98040245D01*
X149352153Y-98035486D01*
X149353806Y-98030866D01*
X149355904Y-98026430D01*
X149358427Y-98022221D01*
X149361349Y-98018280D01*
X149364645Y-98014645D01*
X149368280Y-98011349D01*
X149372221Y-98008427D01*
X149376430Y-98005904D01*
X149380866Y-98003806D01*
X149385486Y-98002153D01*
X149390245Y-98000961D01*
X149395099Y-98000241D01*
X149400000Y-98000000D01*
X150100000Y-98000000D01*
X150104901Y-98000241D01*
G37*
G36*
X149350961Y-98440245D02*
G01*
X149353806Y-98430866D01*
X149358427Y-98422221D01*
X149364645Y-98414645D01*
X149372221Y-98408427D01*
X149380866Y-98403806D01*
X149390245Y-98400961D01*
X149400000Y-98400000D01*
X150100000Y-98400000D01*
X150109755Y-98400961D01*
X150119134Y-98403806D01*
X150127779Y-98408427D01*
X150135355Y-98414645D01*
X150141573Y-98422221D01*
X150146194Y-98430866D01*
X150149039Y-98440245D01*
X150150000Y-98450000D01*
X150150000Y-98550000D01*
X150149039Y-98559755D01*
X150146194Y-98569134D01*
X150141573Y-98577779D01*
X150135355Y-98585355D01*
X150127779Y-98591573D01*
X150119134Y-98596194D01*
X150109755Y-98599039D01*
X150100000Y-98600000D01*
X149470711Y-98600000D01*
X149460956Y-98599039D01*
X149451577Y-98596194D01*
X149442932Y-98591573D01*
X149435356Y-98585355D01*
X149364645Y-98514644D01*
X149358427Y-98507068D01*
X149353806Y-98498423D01*
X149350961Y-98489044D01*
X149350000Y-98479289D01*
X149350000Y-98450000D01*
X149350961Y-98440245D01*
G37*
G36*
X149100961Y-98690245D02*
G01*
X149103806Y-98680866D01*
X149108427Y-98672221D01*
X149114645Y-98664645D01*
X149122221Y-98658427D01*
X149130866Y-98653806D01*
X149140245Y-98650961D01*
X149150000Y-98650000D01*
X149179289Y-98650000D01*
X149189044Y-98650961D01*
X149198423Y-98653806D01*
X149207068Y-98658427D01*
X149214644Y-98664645D01*
X149285355Y-98735356D01*
X149291573Y-98742932D01*
X149296194Y-98751577D01*
X149299039Y-98760956D01*
X149300000Y-98770711D01*
X149300000Y-99400000D01*
X149299039Y-99409755D01*
X149296194Y-99419134D01*
X149291573Y-99427779D01*
X149285355Y-99435355D01*
X149277779Y-99441573D01*
X149269134Y-99446194D01*
X149259755Y-99449039D01*
X149250000Y-99450000D01*
X149150000Y-99450000D01*
X149140245Y-99449039D01*
X149130866Y-99446194D01*
X149122221Y-99441573D01*
X149114645Y-99435355D01*
X149108427Y-99427779D01*
X149103806Y-99419134D01*
X149100961Y-99409755D01*
X149100000Y-99400000D01*
X149100000Y-98700000D01*
X149100961Y-98690245D01*
G37*
G36*
X148854901Y-98650241D02*
G01*
X148859755Y-98650961D01*
X148864514Y-98652153D01*
X148869134Y-98653806D01*
X148873570Y-98655904D01*
X148877779Y-98658427D01*
X148881720Y-98661349D01*
X148885355Y-98664645D01*
X148888651Y-98668280D01*
X148891573Y-98672221D01*
X148894096Y-98676430D01*
X148896194Y-98680866D01*
X148897847Y-98685486D01*
X148899039Y-98690245D01*
X148899759Y-98695099D01*
X148900000Y-98700000D01*
X148900000Y-99400000D01*
X148899759Y-99404901D01*
X148899039Y-99409755D01*
X148897847Y-99414514D01*
X148896194Y-99419134D01*
X148894096Y-99423570D01*
X148891573Y-99427779D01*
X148888651Y-99431720D01*
X148885355Y-99435355D01*
X148881720Y-99438651D01*
X148877779Y-99441573D01*
X148873570Y-99444096D01*
X148869134Y-99446194D01*
X148864514Y-99447847D01*
X148859755Y-99449039D01*
X148854901Y-99449759D01*
X148850000Y-99450000D01*
X148750000Y-99450000D01*
X148745099Y-99449759D01*
X148740245Y-99449039D01*
X148735486Y-99447847D01*
X148730866Y-99446194D01*
X148726430Y-99444096D01*
X148722221Y-99441573D01*
X148718280Y-99438651D01*
X148714645Y-99435355D01*
X148711349Y-99431720D01*
X148708427Y-99427779D01*
X148705904Y-99423570D01*
X148703806Y-99419134D01*
X148702153Y-99414514D01*
X148700961Y-99409755D01*
X148700241Y-99404901D01*
X148700000Y-99400000D01*
X148700000Y-98700000D01*
X148700241Y-98695099D01*
X148700961Y-98690245D01*
X148702153Y-98685486D01*
X148703806Y-98680866D01*
X148705904Y-98676430D01*
X148708427Y-98672221D01*
X148711349Y-98668280D01*
X148714645Y-98664645D01*
X148718280Y-98661349D01*
X148722221Y-98658427D01*
X148726430Y-98655904D01*
X148730866Y-98653806D01*
X148735486Y-98652153D01*
X148740245Y-98650961D01*
X148745099Y-98650241D01*
X148750000Y-98650000D01*
X148850000Y-98650000D01*
X148854901Y-98650241D01*
G37*
G36*
X148454901Y-98650241D02*
G01*
X148459755Y-98650961D01*
X148464514Y-98652153D01*
X148469134Y-98653806D01*
X148473570Y-98655904D01*
X148477779Y-98658427D01*
X148481720Y-98661349D01*
X148485355Y-98664645D01*
X148488651Y-98668280D01*
X148491573Y-98672221D01*
X148494096Y-98676430D01*
X148496194Y-98680866D01*
X148497847Y-98685486D01*
X148499039Y-98690245D01*
X148499759Y-98695099D01*
X148500000Y-98700000D01*
X148500000Y-99400000D01*
X148499759Y-99404901D01*
X148499039Y-99409755D01*
X148497847Y-99414514D01*
X148496194Y-99419134D01*
X148494096Y-99423570D01*
X148491573Y-99427779D01*
X148488651Y-99431720D01*
X148485355Y-99435355D01*
X148481720Y-99438651D01*
X148477779Y-99441573D01*
X148473570Y-99444096D01*
X148469134Y-99446194D01*
X148464514Y-99447847D01*
X148459755Y-99449039D01*
X148454901Y-99449759D01*
X148450000Y-99450000D01*
X148350000Y-99450000D01*
X148345099Y-99449759D01*
X148340245Y-99449039D01*
X148335486Y-99447847D01*
X148330866Y-99446194D01*
X148326430Y-99444096D01*
X148322221Y-99441573D01*
X148318280Y-99438651D01*
X148314645Y-99435355D01*
X148311349Y-99431720D01*
X148308427Y-99427779D01*
X148305904Y-99423570D01*
X148303806Y-99419134D01*
X148302153Y-99414514D01*
X148300961Y-99409755D01*
X148300241Y-99404901D01*
X148300000Y-99400000D01*
X148300000Y-98700000D01*
X148300241Y-98695099D01*
X148300961Y-98690245D01*
X148302153Y-98685486D01*
X148303806Y-98680866D01*
X148305904Y-98676430D01*
X148308427Y-98672221D01*
X148311349Y-98668280D01*
X148314645Y-98664645D01*
X148318280Y-98661349D01*
X148322221Y-98658427D01*
X148326430Y-98655904D01*
X148330866Y-98653806D01*
X148335486Y-98652153D01*
X148340245Y-98650961D01*
X148345099Y-98650241D01*
X148350000Y-98650000D01*
X148450000Y-98650000D01*
X148454901Y-98650241D01*
G37*
G36*
X148054901Y-98650241D02*
G01*
X148059755Y-98650961D01*
X148064514Y-98652153D01*
X148069134Y-98653806D01*
X148073570Y-98655904D01*
X148077779Y-98658427D01*
X148081720Y-98661349D01*
X148085355Y-98664645D01*
X148088651Y-98668280D01*
X148091573Y-98672221D01*
X148094096Y-98676430D01*
X148096194Y-98680866D01*
X148097847Y-98685486D01*
X148099039Y-98690245D01*
X148099759Y-98695099D01*
X148100000Y-98700000D01*
X148100000Y-99400000D01*
X148099759Y-99404901D01*
X148099039Y-99409755D01*
X148097847Y-99414514D01*
X148096194Y-99419134D01*
X148094096Y-99423570D01*
X148091573Y-99427779D01*
X148088651Y-99431720D01*
X148085355Y-99435355D01*
X148081720Y-99438651D01*
X148077779Y-99441573D01*
X148073570Y-99444096D01*
X148069134Y-99446194D01*
X148064514Y-99447847D01*
X148059755Y-99449039D01*
X148054901Y-99449759D01*
X148050000Y-99450000D01*
X147950000Y-99450000D01*
X147945099Y-99449759D01*
X147940245Y-99449039D01*
X147935486Y-99447847D01*
X147930866Y-99446194D01*
X147926430Y-99444096D01*
X147922221Y-99441573D01*
X147918280Y-99438651D01*
X147914645Y-99435355D01*
X147911349Y-99431720D01*
X147908427Y-99427779D01*
X147905904Y-99423570D01*
X147903806Y-99419134D01*
X147902153Y-99414514D01*
X147900961Y-99409755D01*
X147900241Y-99404901D01*
X147900000Y-99400000D01*
X147900000Y-98700000D01*
X147900241Y-98695099D01*
X147900961Y-98690245D01*
X147902153Y-98685486D01*
X147903806Y-98680866D01*
X147905904Y-98676430D01*
X147908427Y-98672221D01*
X147911349Y-98668280D01*
X147914645Y-98664645D01*
X147918280Y-98661349D01*
X147922221Y-98658427D01*
X147926430Y-98655904D01*
X147930866Y-98653806D01*
X147935486Y-98652153D01*
X147940245Y-98650961D01*
X147945099Y-98650241D01*
X147950000Y-98650000D01*
X148050000Y-98650000D01*
X148054901Y-98650241D01*
G37*
G36*
X147654901Y-98650241D02*
G01*
X147659755Y-98650961D01*
X147664514Y-98652153D01*
X147669134Y-98653806D01*
X147673570Y-98655904D01*
X147677779Y-98658427D01*
X147681720Y-98661349D01*
X147685355Y-98664645D01*
X147688651Y-98668280D01*
X147691573Y-98672221D01*
X147694096Y-98676430D01*
X147696194Y-98680866D01*
X147697847Y-98685486D01*
X147699039Y-98690245D01*
X147699759Y-98695099D01*
X147700000Y-98700000D01*
X147700000Y-99400000D01*
X147699759Y-99404901D01*
X147699039Y-99409755D01*
X147697847Y-99414514D01*
X147696194Y-99419134D01*
X147694096Y-99423570D01*
X147691573Y-99427779D01*
X147688651Y-99431720D01*
X147685355Y-99435355D01*
X147681720Y-99438651D01*
X147677779Y-99441573D01*
X147673570Y-99444096D01*
X147669134Y-99446194D01*
X147664514Y-99447847D01*
X147659755Y-99449039D01*
X147654901Y-99449759D01*
X147650000Y-99450000D01*
X147550000Y-99450000D01*
X147545099Y-99449759D01*
X147540245Y-99449039D01*
X147535486Y-99447847D01*
X147530866Y-99446194D01*
X147526430Y-99444096D01*
X147522221Y-99441573D01*
X147518280Y-99438651D01*
X147514645Y-99435355D01*
X147511349Y-99431720D01*
X147508427Y-99427779D01*
X147505904Y-99423570D01*
X147503806Y-99419134D01*
X147502153Y-99414514D01*
X147500961Y-99409755D01*
X147500241Y-99404901D01*
X147500000Y-99400000D01*
X147500000Y-98700000D01*
X147500241Y-98695099D01*
X147500961Y-98690245D01*
X147502153Y-98685486D01*
X147503806Y-98680866D01*
X147505904Y-98676430D01*
X147508427Y-98672221D01*
X147511349Y-98668280D01*
X147514645Y-98664645D01*
X147518280Y-98661349D01*
X147522221Y-98658427D01*
X147526430Y-98655904D01*
X147530866Y-98653806D01*
X147535486Y-98652153D01*
X147540245Y-98650961D01*
X147545099Y-98650241D01*
X147550000Y-98650000D01*
X147650000Y-98650000D01*
X147654901Y-98650241D01*
G37*
G36*
X147254901Y-98650241D02*
G01*
X147259755Y-98650961D01*
X147264514Y-98652153D01*
X147269134Y-98653806D01*
X147273570Y-98655904D01*
X147277779Y-98658427D01*
X147281720Y-98661349D01*
X147285355Y-98664645D01*
X147288651Y-98668280D01*
X147291573Y-98672221D01*
X147294096Y-98676430D01*
X147296194Y-98680866D01*
X147297847Y-98685486D01*
X147299039Y-98690245D01*
X147299759Y-98695099D01*
X147300000Y-98700000D01*
X147300000Y-99400000D01*
X147299759Y-99404901D01*
X147299039Y-99409755D01*
X147297847Y-99414514D01*
X147296194Y-99419134D01*
X147294096Y-99423570D01*
X147291573Y-99427779D01*
X147288651Y-99431720D01*
X147285355Y-99435355D01*
X147281720Y-99438651D01*
X147277779Y-99441573D01*
X147273570Y-99444096D01*
X147269134Y-99446194D01*
X147264514Y-99447847D01*
X147259755Y-99449039D01*
X147254901Y-99449759D01*
X147250000Y-99450000D01*
X147150000Y-99450000D01*
X147145099Y-99449759D01*
X147140245Y-99449039D01*
X147135486Y-99447847D01*
X147130866Y-99446194D01*
X147126430Y-99444096D01*
X147122221Y-99441573D01*
X147118280Y-99438651D01*
X147114645Y-99435355D01*
X147111349Y-99431720D01*
X147108427Y-99427779D01*
X147105904Y-99423570D01*
X147103806Y-99419134D01*
X147102153Y-99414514D01*
X147100961Y-99409755D01*
X147100241Y-99404901D01*
X147100000Y-99400000D01*
X147100000Y-98700000D01*
X147100241Y-98695099D01*
X147100961Y-98690245D01*
X147102153Y-98685486D01*
X147103806Y-98680866D01*
X147105904Y-98676430D01*
X147108427Y-98672221D01*
X147111349Y-98668280D01*
X147114645Y-98664645D01*
X147118280Y-98661349D01*
X147122221Y-98658427D01*
X147126430Y-98655904D01*
X147130866Y-98653806D01*
X147135486Y-98652153D01*
X147140245Y-98650961D01*
X147145099Y-98650241D01*
X147150000Y-98650000D01*
X147250000Y-98650000D01*
X147254901Y-98650241D01*
G37*
G36*
X146854901Y-98650241D02*
G01*
X146859755Y-98650961D01*
X146864514Y-98652153D01*
X146869134Y-98653806D01*
X146873570Y-98655904D01*
X146877779Y-98658427D01*
X146881720Y-98661349D01*
X146885355Y-98664645D01*
X146888651Y-98668280D01*
X146891573Y-98672221D01*
X146894096Y-98676430D01*
X146896194Y-98680866D01*
X146897847Y-98685486D01*
X146899039Y-98690245D01*
X146899759Y-98695099D01*
X146900000Y-98700000D01*
X146900000Y-99400000D01*
X146899759Y-99404901D01*
X146899039Y-99409755D01*
X146897847Y-99414514D01*
X146896194Y-99419134D01*
X146894096Y-99423570D01*
X146891573Y-99427779D01*
X146888651Y-99431720D01*
X146885355Y-99435355D01*
X146881720Y-99438651D01*
X146877779Y-99441573D01*
X146873570Y-99444096D01*
X146869134Y-99446194D01*
X146864514Y-99447847D01*
X146859755Y-99449039D01*
X146854901Y-99449759D01*
X146850000Y-99450000D01*
X146750000Y-99450000D01*
X146745099Y-99449759D01*
X146740245Y-99449039D01*
X146735486Y-99447847D01*
X146730866Y-99446194D01*
X146726430Y-99444096D01*
X146722221Y-99441573D01*
X146718280Y-99438651D01*
X146714645Y-99435355D01*
X146711349Y-99431720D01*
X146708427Y-99427779D01*
X146705904Y-99423570D01*
X146703806Y-99419134D01*
X146702153Y-99414514D01*
X146700961Y-99409755D01*
X146700241Y-99404901D01*
X146700000Y-99400000D01*
X146700000Y-98700000D01*
X146700241Y-98695099D01*
X146700961Y-98690245D01*
X146702153Y-98685486D01*
X146703806Y-98680866D01*
X146705904Y-98676430D01*
X146708427Y-98672221D01*
X146711349Y-98668280D01*
X146714645Y-98664645D01*
X146718280Y-98661349D01*
X146722221Y-98658427D01*
X146726430Y-98655904D01*
X146730866Y-98653806D01*
X146735486Y-98652153D01*
X146740245Y-98650961D01*
X146745099Y-98650241D01*
X146750000Y-98650000D01*
X146850000Y-98650000D01*
X146854901Y-98650241D01*
G37*
G36*
X146300961Y-98760956D02*
G01*
X146303806Y-98751577D01*
X146308427Y-98742932D01*
X146314645Y-98735356D01*
X146385356Y-98664645D01*
X146392932Y-98658427D01*
X146401577Y-98653806D01*
X146410956Y-98650961D01*
X146420711Y-98650000D01*
X146450000Y-98650000D01*
X146459755Y-98650961D01*
X146469134Y-98653806D01*
X146477779Y-98658427D01*
X146485355Y-98664645D01*
X146491573Y-98672221D01*
X146496194Y-98680866D01*
X146499039Y-98690245D01*
X146500000Y-98700000D01*
X146500000Y-99400000D01*
X146499039Y-99409755D01*
X146496194Y-99419134D01*
X146491573Y-99427779D01*
X146485355Y-99435355D01*
X146477779Y-99441573D01*
X146469134Y-99446194D01*
X146459755Y-99449039D01*
X146450000Y-99450000D01*
X146350000Y-99450000D01*
X146340245Y-99449039D01*
X146330866Y-99446194D01*
X146322221Y-99441573D01*
X146314645Y-99435355D01*
X146308427Y-99427779D01*
X146303806Y-99419134D01*
X146300961Y-99409755D01*
X146300000Y-99400000D01*
X146300000Y-98770711D01*
X146300961Y-98760956D01*
G37*
G36*
X148769504Y-95906204D02*
G01*
X148793773Y-95909804D01*
X148817571Y-95915765D01*
X148840671Y-95924030D01*
X148862849Y-95934520D01*
X148883893Y-95947133D01*
X148903598Y-95961747D01*
X148921777Y-95978223D01*
X148938253Y-95996402D01*
X148952867Y-96016107D01*
X148965480Y-96037151D01*
X148975970Y-96059329D01*
X148984235Y-96082429D01*
X148990196Y-96106227D01*
X148993796Y-96130496D01*
X148995000Y-96155000D01*
X148995000Y-96725000D01*
X148993796Y-96749504D01*
X148990196Y-96773773D01*
X148984235Y-96797571D01*
X148975970Y-96820671D01*
X148965480Y-96842849D01*
X148952867Y-96863893D01*
X148938253Y-96883598D01*
X148921777Y-96901777D01*
X148903598Y-96918253D01*
X148883893Y-96932867D01*
X148862849Y-96945480D01*
X148840671Y-96955970D01*
X148817571Y-96964235D01*
X148793773Y-96970196D01*
X148769504Y-96973796D01*
X148745000Y-96975000D01*
X148175000Y-96975000D01*
X148150496Y-96973796D01*
X148126227Y-96970196D01*
X148102429Y-96964235D01*
X148079329Y-96955970D01*
X148057151Y-96945480D01*
X148036107Y-96932867D01*
X148016402Y-96918253D01*
X147998223Y-96901777D01*
X147981747Y-96883598D01*
X147967133Y-96863893D01*
X147954520Y-96842849D01*
X147944030Y-96820671D01*
X147935765Y-96797571D01*
X147929804Y-96773773D01*
X147926204Y-96749504D01*
X147925000Y-96725000D01*
X147925000Y-96155000D01*
X147926204Y-96130496D01*
X147929804Y-96106227D01*
X147935765Y-96082429D01*
X147944030Y-96059329D01*
X147954520Y-96037151D01*
X147967133Y-96016107D01*
X147981747Y-95996402D01*
X147998223Y-95978223D01*
X148016402Y-95961747D01*
X148036107Y-95947133D01*
X148057151Y-95934520D01*
X148079329Y-95924030D01*
X148102429Y-95915765D01*
X148126227Y-95909804D01*
X148150496Y-95906204D01*
X148175000Y-95905000D01*
X148745000Y-95905000D01*
X148769504Y-95906204D01*
G37*
G36*
X147449504Y-95906204D02*
G01*
X147473773Y-95909804D01*
X147497571Y-95915765D01*
X147520671Y-95924030D01*
X147542849Y-95934520D01*
X147563893Y-95947133D01*
X147583598Y-95961747D01*
X147601777Y-95978223D01*
X147618253Y-95996402D01*
X147632867Y-96016107D01*
X147645480Y-96037151D01*
X147655970Y-96059329D01*
X147664235Y-96082429D01*
X147670196Y-96106227D01*
X147673796Y-96130496D01*
X147675000Y-96155000D01*
X147675000Y-96725000D01*
X147673796Y-96749504D01*
X147670196Y-96773773D01*
X147664235Y-96797571D01*
X147655970Y-96820671D01*
X147645480Y-96842849D01*
X147632867Y-96863893D01*
X147618253Y-96883598D01*
X147601777Y-96901777D01*
X147583598Y-96918253D01*
X147563893Y-96932867D01*
X147542849Y-96945480D01*
X147520671Y-96955970D01*
X147497571Y-96964235D01*
X147473773Y-96970196D01*
X147449504Y-96973796D01*
X147425000Y-96975000D01*
X146855000Y-96975000D01*
X146830496Y-96973796D01*
X146806227Y-96970196D01*
X146782429Y-96964235D01*
X146759329Y-96955970D01*
X146737151Y-96945480D01*
X146716107Y-96932867D01*
X146696402Y-96918253D01*
X146678223Y-96901777D01*
X146661747Y-96883598D01*
X146647133Y-96863893D01*
X146634520Y-96842849D01*
X146624030Y-96820671D01*
X146615765Y-96797571D01*
X146609804Y-96773773D01*
X146606204Y-96749504D01*
X146605000Y-96725000D01*
X146605000Y-96155000D01*
X146606204Y-96130496D01*
X146609804Y-96106227D01*
X146615765Y-96082429D01*
X146624030Y-96059329D01*
X146634520Y-96037151D01*
X146647133Y-96016107D01*
X146661747Y-95996402D01*
X146678223Y-95978223D01*
X146696402Y-95961747D01*
X146716107Y-95947133D01*
X146737151Y-95934520D01*
X146759329Y-95924030D01*
X146782429Y-95915765D01*
X146806227Y-95909804D01*
X146830496Y-95906204D01*
X146855000Y-95905000D01*
X147425000Y-95905000D01*
X147449504Y-95906204D01*
G37*
G36*
X148769504Y-97226204D02*
G01*
X148793773Y-97229804D01*
X148817571Y-97235765D01*
X148840671Y-97244030D01*
X148862849Y-97254520D01*
X148883893Y-97267133D01*
X148903598Y-97281747D01*
X148921777Y-97298223D01*
X148938253Y-97316402D01*
X148952867Y-97336107D01*
X148965480Y-97357151D01*
X148975970Y-97379329D01*
X148984235Y-97402429D01*
X148990196Y-97426227D01*
X148993796Y-97450496D01*
X148995000Y-97475000D01*
X148995000Y-98045000D01*
X148993796Y-98069504D01*
X148990196Y-98093773D01*
X148984235Y-98117571D01*
X148975970Y-98140671D01*
X148965480Y-98162849D01*
X148952867Y-98183893D01*
X148938253Y-98203598D01*
X148921777Y-98221777D01*
X148903598Y-98238253D01*
X148883893Y-98252867D01*
X148862849Y-98265480D01*
X148840671Y-98275970D01*
X148817571Y-98284235D01*
X148793773Y-98290196D01*
X148769504Y-98293796D01*
X148745000Y-98295000D01*
X148175000Y-98295000D01*
X148150496Y-98293796D01*
X148126227Y-98290196D01*
X148102429Y-98284235D01*
X148079329Y-98275970D01*
X148057151Y-98265480D01*
X148036107Y-98252867D01*
X148016402Y-98238253D01*
X147998223Y-98221777D01*
X147981747Y-98203598D01*
X147967133Y-98183893D01*
X147954520Y-98162849D01*
X147944030Y-98140671D01*
X147935765Y-98117571D01*
X147929804Y-98093773D01*
X147926204Y-98069504D01*
X147925000Y-98045000D01*
X147925000Y-97475000D01*
X147926204Y-97450496D01*
X147929804Y-97426227D01*
X147935765Y-97402429D01*
X147944030Y-97379329D01*
X147954520Y-97357151D01*
X147967133Y-97336107D01*
X147981747Y-97316402D01*
X147998223Y-97298223D01*
X148016402Y-97281747D01*
X148036107Y-97267133D01*
X148057151Y-97254520D01*
X148079329Y-97244030D01*
X148102429Y-97235765D01*
X148126227Y-97229804D01*
X148150496Y-97226204D01*
X148175000Y-97225000D01*
X148745000Y-97225000D01*
X148769504Y-97226204D01*
G37*
G36*
X147449504Y-97226204D02*
G01*
X147473773Y-97229804D01*
X147497571Y-97235765D01*
X147520671Y-97244030D01*
X147542849Y-97254520D01*
X147563893Y-97267133D01*
X147583598Y-97281747D01*
X147601777Y-97298223D01*
X147618253Y-97316402D01*
X147632867Y-97336107D01*
X147645480Y-97357151D01*
X147655970Y-97379329D01*
X147664235Y-97402429D01*
X147670196Y-97426227D01*
X147673796Y-97450496D01*
X147675000Y-97475000D01*
X147675000Y-98045000D01*
X147673796Y-98069504D01*
X147670196Y-98093773D01*
X147664235Y-98117571D01*
X147655970Y-98140671D01*
X147645480Y-98162849D01*
X147632867Y-98183893D01*
X147618253Y-98203598D01*
X147601777Y-98221777D01*
X147583598Y-98238253D01*
X147563893Y-98252867D01*
X147542849Y-98265480D01*
X147520671Y-98275970D01*
X147497571Y-98284235D01*
X147473773Y-98290196D01*
X147449504Y-98293796D01*
X147425000Y-98295000D01*
X146855000Y-98295000D01*
X146830496Y-98293796D01*
X146806227Y-98290196D01*
X146782429Y-98284235D01*
X146759329Y-98275970D01*
X146737151Y-98265480D01*
X146716107Y-98252867D01*
X146696402Y-98238253D01*
X146678223Y-98221777D01*
X146661747Y-98203598D01*
X146647133Y-98183893D01*
X146634520Y-98162849D01*
X146624030Y-98140671D01*
X146615765Y-98117571D01*
X146609804Y-98093773D01*
X146606204Y-98069504D01*
X146605000Y-98045000D01*
X146605000Y-97475000D01*
X146606204Y-97450496D01*
X146609804Y-97426227D01*
X146615765Y-97402429D01*
X146624030Y-97379329D01*
X146634520Y-97357151D01*
X146647133Y-97336107D01*
X146661747Y-97316402D01*
X146678223Y-97298223D01*
X146696402Y-97281747D01*
X146716107Y-97267133D01*
X146737151Y-97254520D01*
X146759329Y-97244030D01*
X146782429Y-97235765D01*
X146806227Y-97229804D01*
X146830496Y-97226204D01*
X146855000Y-97225000D01*
X147425000Y-97225000D01*
X147449504Y-97226204D01*
G37*
G36*
X192346958Y-91380710D02*
G01*
X192361276Y-91382834D01*
X192375317Y-91386351D01*
X192388946Y-91391228D01*
X192402031Y-91397417D01*
X192414447Y-91404858D01*
X192426073Y-91413481D01*
X192436798Y-91423202D01*
X192446519Y-91433927D01*
X192455142Y-91445553D01*
X192462583Y-91457969D01*
X192468772Y-91471054D01*
X192473649Y-91484683D01*
X192477166Y-91498724D01*
X192479290Y-91513042D01*
X192480000Y-91527500D01*
X192480000Y-91872500D01*
X192479290Y-91886958D01*
X192477166Y-91901276D01*
X192473649Y-91915317D01*
X192468772Y-91928946D01*
X192462583Y-91942031D01*
X192455142Y-91954447D01*
X192446519Y-91966073D01*
X192436798Y-91976798D01*
X192426073Y-91986519D01*
X192414447Y-91995142D01*
X192402031Y-92002583D01*
X192388946Y-92008772D01*
X192375317Y-92013649D01*
X192361276Y-92017166D01*
X192346958Y-92019290D01*
X192332500Y-92020000D01*
X192037500Y-92020000D01*
X192023042Y-92019290D01*
X192008724Y-92017166D01*
X191994683Y-92013649D01*
X191981054Y-92008772D01*
X191967969Y-92002583D01*
X191955553Y-91995142D01*
X191943927Y-91986519D01*
X191933202Y-91976798D01*
X191923481Y-91966073D01*
X191914858Y-91954447D01*
X191907417Y-91942031D01*
X191901228Y-91928946D01*
X191896351Y-91915317D01*
X191892834Y-91901276D01*
X191890710Y-91886958D01*
X191890000Y-91872500D01*
X191890000Y-91527500D01*
X191890710Y-91513042D01*
X191892834Y-91498724D01*
X191896351Y-91484683D01*
X191901228Y-91471054D01*
X191907417Y-91457969D01*
X191914858Y-91445553D01*
X191923481Y-91433927D01*
X191933202Y-91423202D01*
X191943927Y-91413481D01*
X191955553Y-91404858D01*
X191967969Y-91397417D01*
X191981054Y-91391228D01*
X191994683Y-91386351D01*
X192008724Y-91382834D01*
X192023042Y-91380710D01*
X192037500Y-91380000D01*
X192332500Y-91380000D01*
X192346958Y-91380710D01*
G37*
G36*
X191376958Y-91380710D02*
G01*
X191391276Y-91382834D01*
X191405317Y-91386351D01*
X191418946Y-91391228D01*
X191432031Y-91397417D01*
X191444447Y-91404858D01*
X191456073Y-91413481D01*
X191466798Y-91423202D01*
X191476519Y-91433927D01*
X191485142Y-91445553D01*
X191492583Y-91457969D01*
X191498772Y-91471054D01*
X191503649Y-91484683D01*
X191507166Y-91498724D01*
X191509290Y-91513042D01*
X191510000Y-91527500D01*
X191510000Y-91872500D01*
X191509290Y-91886958D01*
X191507166Y-91901276D01*
X191503649Y-91915317D01*
X191498772Y-91928946D01*
X191492583Y-91942031D01*
X191485142Y-91954447D01*
X191476519Y-91966073D01*
X191466798Y-91976798D01*
X191456073Y-91986519D01*
X191444447Y-91995142D01*
X191432031Y-92002583D01*
X191418946Y-92008772D01*
X191405317Y-92013649D01*
X191391276Y-92017166D01*
X191376958Y-92019290D01*
X191362500Y-92020000D01*
X191067500Y-92020000D01*
X191053042Y-92019290D01*
X191038724Y-92017166D01*
X191024683Y-92013649D01*
X191011054Y-92008772D01*
X190997969Y-92002583D01*
X190985553Y-91995142D01*
X190973927Y-91986519D01*
X190963202Y-91976798D01*
X190953481Y-91966073D01*
X190944858Y-91954447D01*
X190937417Y-91942031D01*
X190931228Y-91928946D01*
X190926351Y-91915317D01*
X190922834Y-91901276D01*
X190920710Y-91886958D01*
X190920000Y-91872500D01*
X190920000Y-91527500D01*
X190920710Y-91513042D01*
X190922834Y-91498724D01*
X190926351Y-91484683D01*
X190931228Y-91471054D01*
X190937417Y-91457969D01*
X190944858Y-91445553D01*
X190953481Y-91433927D01*
X190963202Y-91423202D01*
X190973927Y-91413481D01*
X190985553Y-91404858D01*
X190997969Y-91397417D01*
X191011054Y-91391228D01*
X191024683Y-91386351D01*
X191038724Y-91382834D01*
X191053042Y-91380710D01*
X191067500Y-91380000D01*
X191362500Y-91380000D01*
X191376958Y-91380710D01*
G37*
G36*
X192346958Y-97658710D02*
G01*
X192361276Y-97660834D01*
X192375317Y-97664351D01*
X192388946Y-97669228D01*
X192402031Y-97675417D01*
X192414447Y-97682858D01*
X192426073Y-97691481D01*
X192436798Y-97701202D01*
X192446519Y-97711927D01*
X192455142Y-97723553D01*
X192462583Y-97735969D01*
X192468772Y-97749054D01*
X192473649Y-97762683D01*
X192477166Y-97776724D01*
X192479290Y-97791042D01*
X192480000Y-97805500D01*
X192480000Y-98150500D01*
X192479290Y-98164958D01*
X192477166Y-98179276D01*
X192473649Y-98193317D01*
X192468772Y-98206946D01*
X192462583Y-98220031D01*
X192455142Y-98232447D01*
X192446519Y-98244073D01*
X192436798Y-98254798D01*
X192426073Y-98264519D01*
X192414447Y-98273142D01*
X192402031Y-98280583D01*
X192388946Y-98286772D01*
X192375317Y-98291649D01*
X192361276Y-98295166D01*
X192346958Y-98297290D01*
X192332500Y-98298000D01*
X192037500Y-98298000D01*
X192023042Y-98297290D01*
X192008724Y-98295166D01*
X191994683Y-98291649D01*
X191981054Y-98286772D01*
X191967969Y-98280583D01*
X191955553Y-98273142D01*
X191943927Y-98264519D01*
X191933202Y-98254798D01*
X191923481Y-98244073D01*
X191914858Y-98232447D01*
X191907417Y-98220031D01*
X191901228Y-98206946D01*
X191896351Y-98193317D01*
X191892834Y-98179276D01*
X191890710Y-98164958D01*
X191890000Y-98150500D01*
X191890000Y-97805500D01*
X191890710Y-97791042D01*
X191892834Y-97776724D01*
X191896351Y-97762683D01*
X191901228Y-97749054D01*
X191907417Y-97735969D01*
X191914858Y-97723553D01*
X191923481Y-97711927D01*
X191933202Y-97701202D01*
X191943927Y-97691481D01*
X191955553Y-97682858D01*
X191967969Y-97675417D01*
X191981054Y-97669228D01*
X191994683Y-97664351D01*
X192008724Y-97660834D01*
X192023042Y-97658710D01*
X192037500Y-97658000D01*
X192332500Y-97658000D01*
X192346958Y-97658710D01*
G37*
G36*
X191376958Y-97658710D02*
G01*
X191391276Y-97660834D01*
X191405317Y-97664351D01*
X191418946Y-97669228D01*
X191432031Y-97675417D01*
X191444447Y-97682858D01*
X191456073Y-97691481D01*
X191466798Y-97701202D01*
X191476519Y-97711927D01*
X191485142Y-97723553D01*
X191492583Y-97735969D01*
X191498772Y-97749054D01*
X191503649Y-97762683D01*
X191507166Y-97776724D01*
X191509290Y-97791042D01*
X191510000Y-97805500D01*
X191510000Y-98150500D01*
X191509290Y-98164958D01*
X191507166Y-98179276D01*
X191503649Y-98193317D01*
X191498772Y-98206946D01*
X191492583Y-98220031D01*
X191485142Y-98232447D01*
X191476519Y-98244073D01*
X191466798Y-98254798D01*
X191456073Y-98264519D01*
X191444447Y-98273142D01*
X191432031Y-98280583D01*
X191418946Y-98286772D01*
X191405317Y-98291649D01*
X191391276Y-98295166D01*
X191376958Y-98297290D01*
X191362500Y-98298000D01*
X191067500Y-98298000D01*
X191053042Y-98297290D01*
X191038724Y-98295166D01*
X191024683Y-98291649D01*
X191011054Y-98286772D01*
X190997969Y-98280583D01*
X190985553Y-98273142D01*
X190973927Y-98264519D01*
X190963202Y-98254798D01*
X190953481Y-98244073D01*
X190944858Y-98232447D01*
X190937417Y-98220031D01*
X190931228Y-98206946D01*
X190926351Y-98193317D01*
X190922834Y-98179276D01*
X190920710Y-98164958D01*
X190920000Y-98150500D01*
X190920000Y-97805500D01*
X190920710Y-97791042D01*
X190922834Y-97776724D01*
X190926351Y-97762683D01*
X190931228Y-97749054D01*
X190937417Y-97735969D01*
X190944858Y-97723553D01*
X190953481Y-97711927D01*
X190963202Y-97701202D01*
X190973927Y-97691481D01*
X190985553Y-97682858D01*
X190997969Y-97675417D01*
X191011054Y-97669228D01*
X191024683Y-97664351D01*
X191038724Y-97660834D01*
X191053042Y-97658710D01*
X191067500Y-97658000D01*
X191362500Y-97658000D01*
X191376958Y-97658710D01*
G37*
G36*
X155776958Y-96980710D02*
G01*
X155791276Y-96982834D01*
X155805317Y-96986351D01*
X155818946Y-96991228D01*
X155832031Y-96997417D01*
X155844447Y-97004858D01*
X155856073Y-97013481D01*
X155866798Y-97023202D01*
X155876519Y-97033927D01*
X155885142Y-97045553D01*
X155892583Y-97057969D01*
X155898772Y-97071054D01*
X155903649Y-97084683D01*
X155907166Y-97098724D01*
X155909290Y-97113042D01*
X155910000Y-97127500D01*
X155910000Y-97472500D01*
X155909290Y-97486958D01*
X155907166Y-97501276D01*
X155903649Y-97515317D01*
X155898772Y-97528946D01*
X155892583Y-97542031D01*
X155885142Y-97554447D01*
X155876519Y-97566073D01*
X155866798Y-97576798D01*
X155856073Y-97586519D01*
X155844447Y-97595142D01*
X155832031Y-97602583D01*
X155818946Y-97608772D01*
X155805317Y-97613649D01*
X155791276Y-97617166D01*
X155776958Y-97619290D01*
X155762500Y-97620000D01*
X155467500Y-97620000D01*
X155453042Y-97619290D01*
X155438724Y-97617166D01*
X155424683Y-97613649D01*
X155411054Y-97608772D01*
X155397969Y-97602583D01*
X155385553Y-97595142D01*
X155373927Y-97586519D01*
X155363202Y-97576798D01*
X155353481Y-97566073D01*
X155344858Y-97554447D01*
X155337417Y-97542031D01*
X155331228Y-97528946D01*
X155326351Y-97515317D01*
X155322834Y-97501276D01*
X155320710Y-97486958D01*
X155320000Y-97472500D01*
X155320000Y-97127500D01*
X155320710Y-97113042D01*
X155322834Y-97098724D01*
X155326351Y-97084683D01*
X155331228Y-97071054D01*
X155337417Y-97057969D01*
X155344858Y-97045553D01*
X155353481Y-97033927D01*
X155363202Y-97023202D01*
X155373927Y-97013481D01*
X155385553Y-97004858D01*
X155397969Y-96997417D01*
X155411054Y-96991228D01*
X155424683Y-96986351D01*
X155438724Y-96982834D01*
X155453042Y-96980710D01*
X155467500Y-96980000D01*
X155762500Y-96980000D01*
X155776958Y-96980710D01*
G37*
G36*
X156746958Y-96980710D02*
G01*
X156761276Y-96982834D01*
X156775317Y-96986351D01*
X156788946Y-96991228D01*
X156802031Y-96997417D01*
X156814447Y-97004858D01*
X156826073Y-97013481D01*
X156836798Y-97023202D01*
X156846519Y-97033927D01*
X156855142Y-97045553D01*
X156862583Y-97057969D01*
X156868772Y-97071054D01*
X156873649Y-97084683D01*
X156877166Y-97098724D01*
X156879290Y-97113042D01*
X156880000Y-97127500D01*
X156880000Y-97472500D01*
X156879290Y-97486958D01*
X156877166Y-97501276D01*
X156873649Y-97515317D01*
X156868772Y-97528946D01*
X156862583Y-97542031D01*
X156855142Y-97554447D01*
X156846519Y-97566073D01*
X156836798Y-97576798D01*
X156826073Y-97586519D01*
X156814447Y-97595142D01*
X156802031Y-97602583D01*
X156788946Y-97608772D01*
X156775317Y-97613649D01*
X156761276Y-97617166D01*
X156746958Y-97619290D01*
X156732500Y-97620000D01*
X156437500Y-97620000D01*
X156423042Y-97619290D01*
X156408724Y-97617166D01*
X156394683Y-97613649D01*
X156381054Y-97608772D01*
X156367969Y-97602583D01*
X156355553Y-97595142D01*
X156343927Y-97586519D01*
X156333202Y-97576798D01*
X156323481Y-97566073D01*
X156314858Y-97554447D01*
X156307417Y-97542031D01*
X156301228Y-97528946D01*
X156296351Y-97515317D01*
X156292834Y-97501276D01*
X156290710Y-97486958D01*
X156290000Y-97472500D01*
X156290000Y-97127500D01*
X156290710Y-97113042D01*
X156292834Y-97098724D01*
X156296351Y-97084683D01*
X156301228Y-97071054D01*
X156307417Y-97057969D01*
X156314858Y-97045553D01*
X156323481Y-97033927D01*
X156333202Y-97023202D01*
X156343927Y-97013481D01*
X156355553Y-97004858D01*
X156367969Y-96997417D01*
X156381054Y-96991228D01*
X156394683Y-96986351D01*
X156408724Y-96982834D01*
X156423042Y-96980710D01*
X156437500Y-96980000D01*
X156732500Y-96980000D01*
X156746958Y-96980710D01*
G37*
G36*
X154686958Y-97950710D02*
G01*
X154701276Y-97952834D01*
X154715317Y-97956351D01*
X154728946Y-97961228D01*
X154742031Y-97967417D01*
X154754447Y-97974858D01*
X154766073Y-97983481D01*
X154776798Y-97993202D01*
X154786519Y-98003927D01*
X154795142Y-98015553D01*
X154802583Y-98027969D01*
X154808772Y-98041054D01*
X154813649Y-98054683D01*
X154817166Y-98068724D01*
X154819290Y-98083042D01*
X154820000Y-98097500D01*
X154820000Y-98392500D01*
X154819290Y-98406958D01*
X154817166Y-98421276D01*
X154813649Y-98435317D01*
X154808772Y-98448946D01*
X154802583Y-98462031D01*
X154795142Y-98474447D01*
X154786519Y-98486073D01*
X154776798Y-98496798D01*
X154766073Y-98506519D01*
X154754447Y-98515142D01*
X154742031Y-98522583D01*
X154728946Y-98528772D01*
X154715317Y-98533649D01*
X154701276Y-98537166D01*
X154686958Y-98539290D01*
X154672500Y-98540000D01*
X154327500Y-98540000D01*
X154313042Y-98539290D01*
X154298724Y-98537166D01*
X154284683Y-98533649D01*
X154271054Y-98528772D01*
X154257969Y-98522583D01*
X154245553Y-98515142D01*
X154233927Y-98506519D01*
X154223202Y-98496798D01*
X154213481Y-98486073D01*
X154204858Y-98474447D01*
X154197417Y-98462031D01*
X154191228Y-98448946D01*
X154186351Y-98435317D01*
X154182834Y-98421276D01*
X154180710Y-98406958D01*
X154180000Y-98392500D01*
X154180000Y-98097500D01*
X154180710Y-98083042D01*
X154182834Y-98068724D01*
X154186351Y-98054683D01*
X154191228Y-98041054D01*
X154197417Y-98027969D01*
X154204858Y-98015553D01*
X154213481Y-98003927D01*
X154223202Y-97993202D01*
X154233927Y-97983481D01*
X154245553Y-97974858D01*
X154257969Y-97967417D01*
X154271054Y-97961228D01*
X154284683Y-97956351D01*
X154298724Y-97952834D01*
X154313042Y-97950710D01*
X154327500Y-97950000D01*
X154672500Y-97950000D01*
X154686958Y-97950710D01*
G37*
G36*
X154686958Y-96980710D02*
G01*
X154701276Y-96982834D01*
X154715317Y-96986351D01*
X154728946Y-96991228D01*
X154742031Y-96997417D01*
X154754447Y-97004858D01*
X154766073Y-97013481D01*
X154776798Y-97023202D01*
X154786519Y-97033927D01*
X154795142Y-97045553D01*
X154802583Y-97057969D01*
X154808772Y-97071054D01*
X154813649Y-97084683D01*
X154817166Y-97098724D01*
X154819290Y-97113042D01*
X154820000Y-97127500D01*
X154820000Y-97422500D01*
X154819290Y-97436958D01*
X154817166Y-97451276D01*
X154813649Y-97465317D01*
X154808772Y-97478946D01*
X154802583Y-97492031D01*
X154795142Y-97504447D01*
X154786519Y-97516073D01*
X154776798Y-97526798D01*
X154766073Y-97536519D01*
X154754447Y-97545142D01*
X154742031Y-97552583D01*
X154728946Y-97558772D01*
X154715317Y-97563649D01*
X154701276Y-97567166D01*
X154686958Y-97569290D01*
X154672500Y-97570000D01*
X154327500Y-97570000D01*
X154313042Y-97569290D01*
X154298724Y-97567166D01*
X154284683Y-97563649D01*
X154271054Y-97558772D01*
X154257969Y-97552583D01*
X154245553Y-97545142D01*
X154233927Y-97536519D01*
X154223202Y-97526798D01*
X154213481Y-97516073D01*
X154204858Y-97504447D01*
X154197417Y-97492031D01*
X154191228Y-97478946D01*
X154186351Y-97465317D01*
X154182834Y-97451276D01*
X154180710Y-97436958D01*
X154180000Y-97422500D01*
X154180000Y-97127500D01*
X154180710Y-97113042D01*
X154182834Y-97098724D01*
X154186351Y-97084683D01*
X154191228Y-97071054D01*
X154197417Y-97057969D01*
X154204858Y-97045553D01*
X154213481Y-97033927D01*
X154223202Y-97023202D01*
X154233927Y-97013481D01*
X154245553Y-97004858D01*
X154257969Y-96997417D01*
X154271054Y-96991228D01*
X154284683Y-96986351D01*
X154298724Y-96982834D01*
X154313042Y-96980710D01*
X154327500Y-96980000D01*
X154672500Y-96980000D01*
X154686958Y-96980710D01*
G37*
G36*
X151786958Y-97950710D02*
G01*
X151801276Y-97952834D01*
X151815317Y-97956351D01*
X151828946Y-97961228D01*
X151842031Y-97967417D01*
X151854447Y-97974858D01*
X151866073Y-97983481D01*
X151876798Y-97993202D01*
X151886519Y-98003927D01*
X151895142Y-98015553D01*
X151902583Y-98027969D01*
X151908772Y-98041054D01*
X151913649Y-98054683D01*
X151917166Y-98068724D01*
X151919290Y-98083042D01*
X151920000Y-98097500D01*
X151920000Y-98392500D01*
X151919290Y-98406958D01*
X151917166Y-98421276D01*
X151913649Y-98435317D01*
X151908772Y-98448946D01*
X151902583Y-98462031D01*
X151895142Y-98474447D01*
X151886519Y-98486073D01*
X151876798Y-98496798D01*
X151866073Y-98506519D01*
X151854447Y-98515142D01*
X151842031Y-98522583D01*
X151828946Y-98528772D01*
X151815317Y-98533649D01*
X151801276Y-98537166D01*
X151786958Y-98539290D01*
X151772500Y-98540000D01*
X151427500Y-98540000D01*
X151413042Y-98539290D01*
X151398724Y-98537166D01*
X151384683Y-98533649D01*
X151371054Y-98528772D01*
X151357969Y-98522583D01*
X151345553Y-98515142D01*
X151333927Y-98506519D01*
X151323202Y-98496798D01*
X151313481Y-98486073D01*
X151304858Y-98474447D01*
X151297417Y-98462031D01*
X151291228Y-98448946D01*
X151286351Y-98435317D01*
X151282834Y-98421276D01*
X151280710Y-98406958D01*
X151280000Y-98392500D01*
X151280000Y-98097500D01*
X151280710Y-98083042D01*
X151282834Y-98068724D01*
X151286351Y-98054683D01*
X151291228Y-98041054D01*
X151297417Y-98027969D01*
X151304858Y-98015553D01*
X151313481Y-98003927D01*
X151323202Y-97993202D01*
X151333927Y-97983481D01*
X151345553Y-97974858D01*
X151357969Y-97967417D01*
X151371054Y-97961228D01*
X151384683Y-97956351D01*
X151398724Y-97952834D01*
X151413042Y-97950710D01*
X151427500Y-97950000D01*
X151772500Y-97950000D01*
X151786958Y-97950710D01*
G37*
G36*
X151786958Y-96980710D02*
G01*
X151801276Y-96982834D01*
X151815317Y-96986351D01*
X151828946Y-96991228D01*
X151842031Y-96997417D01*
X151854447Y-97004858D01*
X151866073Y-97013481D01*
X151876798Y-97023202D01*
X151886519Y-97033927D01*
X151895142Y-97045553D01*
X151902583Y-97057969D01*
X151908772Y-97071054D01*
X151913649Y-97084683D01*
X151917166Y-97098724D01*
X151919290Y-97113042D01*
X151920000Y-97127500D01*
X151920000Y-97422500D01*
X151919290Y-97436958D01*
X151917166Y-97451276D01*
X151913649Y-97465317D01*
X151908772Y-97478946D01*
X151902583Y-97492031D01*
X151895142Y-97504447D01*
X151886519Y-97516073D01*
X151876798Y-97526798D01*
X151866073Y-97536519D01*
X151854447Y-97545142D01*
X151842031Y-97552583D01*
X151828946Y-97558772D01*
X151815317Y-97563649D01*
X151801276Y-97567166D01*
X151786958Y-97569290D01*
X151772500Y-97570000D01*
X151427500Y-97570000D01*
X151413042Y-97569290D01*
X151398724Y-97567166D01*
X151384683Y-97563649D01*
X151371054Y-97558772D01*
X151357969Y-97552583D01*
X151345553Y-97545142D01*
X151333927Y-97536519D01*
X151323202Y-97526798D01*
X151313481Y-97516073D01*
X151304858Y-97504447D01*
X151297417Y-97492031D01*
X151291228Y-97478946D01*
X151286351Y-97465317D01*
X151282834Y-97451276D01*
X151280710Y-97436958D01*
X151280000Y-97422500D01*
X151280000Y-97127500D01*
X151280710Y-97113042D01*
X151282834Y-97098724D01*
X151286351Y-97084683D01*
X151291228Y-97071054D01*
X151297417Y-97057969D01*
X151304858Y-97045553D01*
X151313481Y-97033927D01*
X151323202Y-97023202D01*
X151333927Y-97013481D01*
X151345553Y-97004858D01*
X151357969Y-96997417D01*
X151371054Y-96991228D01*
X151384683Y-96986351D01*
X151398724Y-96982834D01*
X151413042Y-96980710D01*
X151427500Y-96980000D01*
X151772500Y-96980000D01*
X151786958Y-96980710D01*
G37*
G36*
X151786958Y-95043200D02*
G01*
X151801276Y-95045324D01*
X151815317Y-95048841D01*
X151828946Y-95053718D01*
X151842031Y-95059907D01*
X151854447Y-95067348D01*
X151866073Y-95075971D01*
X151876798Y-95085692D01*
X151886519Y-95096417D01*
X151895142Y-95108043D01*
X151902583Y-95120459D01*
X151908772Y-95133544D01*
X151913649Y-95147173D01*
X151917166Y-95161214D01*
X151919290Y-95175532D01*
X151920000Y-95189990D01*
X151920000Y-95484990D01*
X151919290Y-95499448D01*
X151917166Y-95513766D01*
X151913649Y-95527807D01*
X151908772Y-95541436D01*
X151902583Y-95554521D01*
X151895142Y-95566937D01*
X151886519Y-95578563D01*
X151876798Y-95589288D01*
X151866073Y-95599009D01*
X151854447Y-95607632D01*
X151842031Y-95615073D01*
X151828946Y-95621262D01*
X151815317Y-95626139D01*
X151801276Y-95629656D01*
X151786958Y-95631780D01*
X151772500Y-95632490D01*
X151427500Y-95632490D01*
X151413042Y-95631780D01*
X151398724Y-95629656D01*
X151384683Y-95626139D01*
X151371054Y-95621262D01*
X151357969Y-95615073D01*
X151345553Y-95607632D01*
X151333927Y-95599009D01*
X151323202Y-95589288D01*
X151313481Y-95578563D01*
X151304858Y-95566937D01*
X151297417Y-95554521D01*
X151291228Y-95541436D01*
X151286351Y-95527807D01*
X151282834Y-95513766D01*
X151280710Y-95499448D01*
X151280000Y-95484990D01*
X151280000Y-95189990D01*
X151280710Y-95175532D01*
X151282834Y-95161214D01*
X151286351Y-95147173D01*
X151291228Y-95133544D01*
X151297417Y-95120459D01*
X151304858Y-95108043D01*
X151313481Y-95096417D01*
X151323202Y-95085692D01*
X151333927Y-95075971D01*
X151345553Y-95067348D01*
X151357969Y-95059907D01*
X151371054Y-95053718D01*
X151384683Y-95048841D01*
X151398724Y-95045324D01*
X151413042Y-95043200D01*
X151427500Y-95042490D01*
X151772500Y-95042490D01*
X151786958Y-95043200D01*
G37*
G36*
X151786958Y-96013200D02*
G01*
X151801276Y-96015324D01*
X151815317Y-96018841D01*
X151828946Y-96023718D01*
X151842031Y-96029907D01*
X151854447Y-96037348D01*
X151866073Y-96045971D01*
X151876798Y-96055692D01*
X151886519Y-96066417D01*
X151895142Y-96078043D01*
X151902583Y-96090459D01*
X151908772Y-96103544D01*
X151913649Y-96117173D01*
X151917166Y-96131214D01*
X151919290Y-96145532D01*
X151920000Y-96159990D01*
X151920000Y-96454990D01*
X151919290Y-96469448D01*
X151917166Y-96483766D01*
X151913649Y-96497807D01*
X151908772Y-96511436D01*
X151902583Y-96524521D01*
X151895142Y-96536937D01*
X151886519Y-96548563D01*
X151876798Y-96559288D01*
X151866073Y-96569009D01*
X151854447Y-96577632D01*
X151842031Y-96585073D01*
X151828946Y-96591262D01*
X151815317Y-96596139D01*
X151801276Y-96599656D01*
X151786958Y-96601780D01*
X151772500Y-96602490D01*
X151427500Y-96602490D01*
X151413042Y-96601780D01*
X151398724Y-96599656D01*
X151384683Y-96596139D01*
X151371054Y-96591262D01*
X151357969Y-96585073D01*
X151345553Y-96577632D01*
X151333927Y-96569009D01*
X151323202Y-96559288D01*
X151313481Y-96548563D01*
X151304858Y-96536937D01*
X151297417Y-96524521D01*
X151291228Y-96511436D01*
X151286351Y-96497807D01*
X151282834Y-96483766D01*
X151280710Y-96469448D01*
X151280000Y-96454990D01*
X151280000Y-96159990D01*
X151280710Y-96145532D01*
X151282834Y-96131214D01*
X151286351Y-96117173D01*
X151291228Y-96103544D01*
X151297417Y-96090459D01*
X151304858Y-96078043D01*
X151313481Y-96066417D01*
X151323202Y-96055692D01*
X151333927Y-96045971D01*
X151345553Y-96037348D01*
X151357969Y-96029907D01*
X151371054Y-96023718D01*
X151384683Y-96018841D01*
X151398724Y-96015324D01*
X151413042Y-96013200D01*
X151427500Y-96012490D01*
X151772500Y-96012490D01*
X151786958Y-96013200D01*
G37*
G36*
X181452958Y-88159110D02*
G01*
X181467276Y-88161234D01*
X181481317Y-88164751D01*
X181494946Y-88169628D01*
X181508031Y-88175817D01*
X181520447Y-88183258D01*
X181532073Y-88191881D01*
X181542798Y-88201602D01*
X181552519Y-88212327D01*
X181561142Y-88223953D01*
X181568583Y-88236369D01*
X181574772Y-88249454D01*
X181579649Y-88263083D01*
X181583166Y-88277124D01*
X181585290Y-88291442D01*
X181586000Y-88305900D01*
X181586000Y-88650900D01*
X181585290Y-88665358D01*
X181583166Y-88679676D01*
X181579649Y-88693717D01*
X181574772Y-88707346D01*
X181568583Y-88720431D01*
X181561142Y-88732847D01*
X181552519Y-88744473D01*
X181542798Y-88755198D01*
X181532073Y-88764919D01*
X181520447Y-88773542D01*
X181508031Y-88780983D01*
X181494946Y-88787172D01*
X181481317Y-88792049D01*
X181467276Y-88795566D01*
X181452958Y-88797690D01*
X181438500Y-88798400D01*
X181143500Y-88798400D01*
X181129042Y-88797690D01*
X181114724Y-88795566D01*
X181100683Y-88792049D01*
X181087054Y-88787172D01*
X181073969Y-88780983D01*
X181061553Y-88773542D01*
X181049927Y-88764919D01*
X181039202Y-88755198D01*
X181029481Y-88744473D01*
X181020858Y-88732847D01*
X181013417Y-88720431D01*
X181007228Y-88707346D01*
X181002351Y-88693717D01*
X180998834Y-88679676D01*
X180996710Y-88665358D01*
X180996000Y-88650900D01*
X180996000Y-88305900D01*
X180996710Y-88291442D01*
X180998834Y-88277124D01*
X181002351Y-88263083D01*
X181007228Y-88249454D01*
X181013417Y-88236369D01*
X181020858Y-88223953D01*
X181029481Y-88212327D01*
X181039202Y-88201602D01*
X181049927Y-88191881D01*
X181061553Y-88183258D01*
X181073969Y-88175817D01*
X181087054Y-88169628D01*
X181100683Y-88164751D01*
X181114724Y-88161234D01*
X181129042Y-88159110D01*
X181143500Y-88158400D01*
X181438500Y-88158400D01*
X181452958Y-88159110D01*
G37*
G36*
X180482958Y-88159110D02*
G01*
X180497276Y-88161234D01*
X180511317Y-88164751D01*
X180524946Y-88169628D01*
X180538031Y-88175817D01*
X180550447Y-88183258D01*
X180562073Y-88191881D01*
X180572798Y-88201602D01*
X180582519Y-88212327D01*
X180591142Y-88223953D01*
X180598583Y-88236369D01*
X180604772Y-88249454D01*
X180609649Y-88263083D01*
X180613166Y-88277124D01*
X180615290Y-88291442D01*
X180616000Y-88305900D01*
X180616000Y-88650900D01*
X180615290Y-88665358D01*
X180613166Y-88679676D01*
X180609649Y-88693717D01*
X180604772Y-88707346D01*
X180598583Y-88720431D01*
X180591142Y-88732847D01*
X180582519Y-88744473D01*
X180572798Y-88755198D01*
X180562073Y-88764919D01*
X180550447Y-88773542D01*
X180538031Y-88780983D01*
X180524946Y-88787172D01*
X180511317Y-88792049D01*
X180497276Y-88795566D01*
X180482958Y-88797690D01*
X180468500Y-88798400D01*
X180173500Y-88798400D01*
X180159042Y-88797690D01*
X180144724Y-88795566D01*
X180130683Y-88792049D01*
X180117054Y-88787172D01*
X180103969Y-88780983D01*
X180091553Y-88773542D01*
X180079927Y-88764919D01*
X180069202Y-88755198D01*
X180059481Y-88744473D01*
X180050858Y-88732847D01*
X180043417Y-88720431D01*
X180037228Y-88707346D01*
X180032351Y-88693717D01*
X180028834Y-88679676D01*
X180026710Y-88665358D01*
X180026000Y-88650900D01*
X180026000Y-88305900D01*
X180026710Y-88291442D01*
X180028834Y-88277124D01*
X180032351Y-88263083D01*
X180037228Y-88249454D01*
X180043417Y-88236369D01*
X180050858Y-88223953D01*
X180059481Y-88212327D01*
X180069202Y-88201602D01*
X180079927Y-88191881D01*
X180091553Y-88183258D01*
X180103969Y-88175817D01*
X180117054Y-88169628D01*
X180130683Y-88164751D01*
X180144724Y-88161234D01*
X180159042Y-88159110D01*
X180173500Y-88158400D01*
X180468500Y-88158400D01*
X180482958Y-88159110D01*
G37*
G36*
X182870558Y-88159110D02*
G01*
X182884876Y-88161234D01*
X182898917Y-88164751D01*
X182912546Y-88169628D01*
X182925631Y-88175817D01*
X182938047Y-88183258D01*
X182949673Y-88191881D01*
X182960398Y-88201602D01*
X182970119Y-88212327D01*
X182978742Y-88223953D01*
X182986183Y-88236369D01*
X182992372Y-88249454D01*
X182997249Y-88263083D01*
X183000766Y-88277124D01*
X183002890Y-88291442D01*
X183003600Y-88305900D01*
X183003600Y-88650900D01*
X183002890Y-88665358D01*
X183000766Y-88679676D01*
X182997249Y-88693717D01*
X182992372Y-88707346D01*
X182986183Y-88720431D01*
X182978742Y-88732847D01*
X182970119Y-88744473D01*
X182960398Y-88755198D01*
X182949673Y-88764919D01*
X182938047Y-88773542D01*
X182925631Y-88780983D01*
X182912546Y-88787172D01*
X182898917Y-88792049D01*
X182884876Y-88795566D01*
X182870558Y-88797690D01*
X182856100Y-88798400D01*
X182561100Y-88798400D01*
X182546642Y-88797690D01*
X182532324Y-88795566D01*
X182518283Y-88792049D01*
X182504654Y-88787172D01*
X182491569Y-88780983D01*
X182479153Y-88773542D01*
X182467527Y-88764919D01*
X182456802Y-88755198D01*
X182447081Y-88744473D01*
X182438458Y-88732847D01*
X182431017Y-88720431D01*
X182424828Y-88707346D01*
X182419951Y-88693717D01*
X182416434Y-88679676D01*
X182414310Y-88665358D01*
X182413600Y-88650900D01*
X182413600Y-88305900D01*
X182414310Y-88291442D01*
X182416434Y-88277124D01*
X182419951Y-88263083D01*
X182424828Y-88249454D01*
X182431017Y-88236369D01*
X182438458Y-88223953D01*
X182447081Y-88212327D01*
X182456802Y-88201602D01*
X182467527Y-88191881D01*
X182479153Y-88183258D01*
X182491569Y-88175817D01*
X182504654Y-88169628D01*
X182518283Y-88164751D01*
X182532324Y-88161234D01*
X182546642Y-88159110D01*
X182561100Y-88158400D01*
X182856100Y-88158400D01*
X182870558Y-88159110D01*
G37*
G36*
X183840558Y-88159110D02*
G01*
X183854876Y-88161234D01*
X183868917Y-88164751D01*
X183882546Y-88169628D01*
X183895631Y-88175817D01*
X183908047Y-88183258D01*
X183919673Y-88191881D01*
X183930398Y-88201602D01*
X183940119Y-88212327D01*
X183948742Y-88223953D01*
X183956183Y-88236369D01*
X183962372Y-88249454D01*
X183967249Y-88263083D01*
X183970766Y-88277124D01*
X183972890Y-88291442D01*
X183973600Y-88305900D01*
X183973600Y-88650900D01*
X183972890Y-88665358D01*
X183970766Y-88679676D01*
X183967249Y-88693717D01*
X183962372Y-88707346D01*
X183956183Y-88720431D01*
X183948742Y-88732847D01*
X183940119Y-88744473D01*
X183930398Y-88755198D01*
X183919673Y-88764919D01*
X183908047Y-88773542D01*
X183895631Y-88780983D01*
X183882546Y-88787172D01*
X183868917Y-88792049D01*
X183854876Y-88795566D01*
X183840558Y-88797690D01*
X183826100Y-88798400D01*
X183531100Y-88798400D01*
X183516642Y-88797690D01*
X183502324Y-88795566D01*
X183488283Y-88792049D01*
X183474654Y-88787172D01*
X183461569Y-88780983D01*
X183449153Y-88773542D01*
X183437527Y-88764919D01*
X183426802Y-88755198D01*
X183417081Y-88744473D01*
X183408458Y-88732847D01*
X183401017Y-88720431D01*
X183394828Y-88707346D01*
X183389951Y-88693717D01*
X183386434Y-88679676D01*
X183384310Y-88665358D01*
X183383600Y-88650900D01*
X183383600Y-88305900D01*
X183384310Y-88291442D01*
X183386434Y-88277124D01*
X183389951Y-88263083D01*
X183394828Y-88249454D01*
X183401017Y-88236369D01*
X183408458Y-88223953D01*
X183417081Y-88212327D01*
X183426802Y-88201602D01*
X183437527Y-88191881D01*
X183449153Y-88183258D01*
X183461569Y-88175817D01*
X183474654Y-88169628D01*
X183488283Y-88164751D01*
X183502324Y-88161234D01*
X183516642Y-88159110D01*
X183531100Y-88158400D01*
X183826100Y-88158400D01*
X183840558Y-88159110D01*
G37*
G36*
X181452958Y-86228710D02*
G01*
X181467276Y-86230834D01*
X181481317Y-86234351D01*
X181494946Y-86239228D01*
X181508031Y-86245417D01*
X181520447Y-86252858D01*
X181532073Y-86261481D01*
X181542798Y-86271202D01*
X181552519Y-86281927D01*
X181561142Y-86293553D01*
X181568583Y-86305969D01*
X181574772Y-86319054D01*
X181579649Y-86332683D01*
X181583166Y-86346724D01*
X181585290Y-86361042D01*
X181586000Y-86375500D01*
X181586000Y-86720500D01*
X181585290Y-86734958D01*
X181583166Y-86749276D01*
X181579649Y-86763317D01*
X181574772Y-86776946D01*
X181568583Y-86790031D01*
X181561142Y-86802447D01*
X181552519Y-86814073D01*
X181542798Y-86824798D01*
X181532073Y-86834519D01*
X181520447Y-86843142D01*
X181508031Y-86850583D01*
X181494946Y-86856772D01*
X181481317Y-86861649D01*
X181467276Y-86865166D01*
X181452958Y-86867290D01*
X181438500Y-86868000D01*
X181143500Y-86868000D01*
X181129042Y-86867290D01*
X181114724Y-86865166D01*
X181100683Y-86861649D01*
X181087054Y-86856772D01*
X181073969Y-86850583D01*
X181061553Y-86843142D01*
X181049927Y-86834519D01*
X181039202Y-86824798D01*
X181029481Y-86814073D01*
X181020858Y-86802447D01*
X181013417Y-86790031D01*
X181007228Y-86776946D01*
X181002351Y-86763317D01*
X180998834Y-86749276D01*
X180996710Y-86734958D01*
X180996000Y-86720500D01*
X180996000Y-86375500D01*
X180996710Y-86361042D01*
X180998834Y-86346724D01*
X181002351Y-86332683D01*
X181007228Y-86319054D01*
X181013417Y-86305969D01*
X181020858Y-86293553D01*
X181029481Y-86281927D01*
X181039202Y-86271202D01*
X181049927Y-86261481D01*
X181061553Y-86252858D01*
X181073969Y-86245417D01*
X181087054Y-86239228D01*
X181100683Y-86234351D01*
X181114724Y-86230834D01*
X181129042Y-86228710D01*
X181143500Y-86228000D01*
X181438500Y-86228000D01*
X181452958Y-86228710D01*
G37*
G36*
X180482958Y-86228710D02*
G01*
X180497276Y-86230834D01*
X180511317Y-86234351D01*
X180524946Y-86239228D01*
X180538031Y-86245417D01*
X180550447Y-86252858D01*
X180562073Y-86261481D01*
X180572798Y-86271202D01*
X180582519Y-86281927D01*
X180591142Y-86293553D01*
X180598583Y-86305969D01*
X180604772Y-86319054D01*
X180609649Y-86332683D01*
X180613166Y-86346724D01*
X180615290Y-86361042D01*
X180616000Y-86375500D01*
X180616000Y-86720500D01*
X180615290Y-86734958D01*
X180613166Y-86749276D01*
X180609649Y-86763317D01*
X180604772Y-86776946D01*
X180598583Y-86790031D01*
X180591142Y-86802447D01*
X180582519Y-86814073D01*
X180572798Y-86824798D01*
X180562073Y-86834519D01*
X180550447Y-86843142D01*
X180538031Y-86850583D01*
X180524946Y-86856772D01*
X180511317Y-86861649D01*
X180497276Y-86865166D01*
X180482958Y-86867290D01*
X180468500Y-86868000D01*
X180173500Y-86868000D01*
X180159042Y-86867290D01*
X180144724Y-86865166D01*
X180130683Y-86861649D01*
X180117054Y-86856772D01*
X180103969Y-86850583D01*
X180091553Y-86843142D01*
X180079927Y-86834519D01*
X180069202Y-86824798D01*
X180059481Y-86814073D01*
X180050858Y-86802447D01*
X180043417Y-86790031D01*
X180037228Y-86776946D01*
X180032351Y-86763317D01*
X180028834Y-86749276D01*
X180026710Y-86734958D01*
X180026000Y-86720500D01*
X180026000Y-86375500D01*
X180026710Y-86361042D01*
X180028834Y-86346724D01*
X180032351Y-86332683D01*
X180037228Y-86319054D01*
X180043417Y-86305969D01*
X180050858Y-86293553D01*
X180059481Y-86281927D01*
X180069202Y-86271202D01*
X180079927Y-86261481D01*
X180091553Y-86252858D01*
X180103969Y-86245417D01*
X180117054Y-86239228D01*
X180130683Y-86234351D01*
X180144724Y-86230834D01*
X180159042Y-86228710D01*
X180173500Y-86228000D01*
X180468500Y-86228000D01*
X180482958Y-86228710D01*
G37*
G36*
X182870558Y-87193910D02*
G01*
X182884876Y-87196034D01*
X182898917Y-87199551D01*
X182912546Y-87204428D01*
X182925631Y-87210617D01*
X182938047Y-87218058D01*
X182949673Y-87226681D01*
X182960398Y-87236402D01*
X182970119Y-87247127D01*
X182978742Y-87258753D01*
X182986183Y-87271169D01*
X182992372Y-87284254D01*
X182997249Y-87297883D01*
X183000766Y-87311924D01*
X183002890Y-87326242D01*
X183003600Y-87340700D01*
X183003600Y-87685700D01*
X183002890Y-87700158D01*
X183000766Y-87714476D01*
X182997249Y-87728517D01*
X182992372Y-87742146D01*
X182986183Y-87755231D01*
X182978742Y-87767647D01*
X182970119Y-87779273D01*
X182960398Y-87789998D01*
X182949673Y-87799719D01*
X182938047Y-87808342D01*
X182925631Y-87815783D01*
X182912546Y-87821972D01*
X182898917Y-87826849D01*
X182884876Y-87830366D01*
X182870558Y-87832490D01*
X182856100Y-87833200D01*
X182561100Y-87833200D01*
X182546642Y-87832490D01*
X182532324Y-87830366D01*
X182518283Y-87826849D01*
X182504654Y-87821972D01*
X182491569Y-87815783D01*
X182479153Y-87808342D01*
X182467527Y-87799719D01*
X182456802Y-87789998D01*
X182447081Y-87779273D01*
X182438458Y-87767647D01*
X182431017Y-87755231D01*
X182424828Y-87742146D01*
X182419951Y-87728517D01*
X182416434Y-87714476D01*
X182414310Y-87700158D01*
X182413600Y-87685700D01*
X182413600Y-87340700D01*
X182414310Y-87326242D01*
X182416434Y-87311924D01*
X182419951Y-87297883D01*
X182424828Y-87284254D01*
X182431017Y-87271169D01*
X182438458Y-87258753D01*
X182447081Y-87247127D01*
X182456802Y-87236402D01*
X182467527Y-87226681D01*
X182479153Y-87218058D01*
X182491569Y-87210617D01*
X182504654Y-87204428D01*
X182518283Y-87199551D01*
X182532324Y-87196034D01*
X182546642Y-87193910D01*
X182561100Y-87193200D01*
X182856100Y-87193200D01*
X182870558Y-87193910D01*
G37*
G36*
X183840558Y-87193910D02*
G01*
X183854876Y-87196034D01*
X183868917Y-87199551D01*
X183882546Y-87204428D01*
X183895631Y-87210617D01*
X183908047Y-87218058D01*
X183919673Y-87226681D01*
X183930398Y-87236402D01*
X183940119Y-87247127D01*
X183948742Y-87258753D01*
X183956183Y-87271169D01*
X183962372Y-87284254D01*
X183967249Y-87297883D01*
X183970766Y-87311924D01*
X183972890Y-87326242D01*
X183973600Y-87340700D01*
X183973600Y-87685700D01*
X183972890Y-87700158D01*
X183970766Y-87714476D01*
X183967249Y-87728517D01*
X183962372Y-87742146D01*
X183956183Y-87755231D01*
X183948742Y-87767647D01*
X183940119Y-87779273D01*
X183930398Y-87789998D01*
X183919673Y-87799719D01*
X183908047Y-87808342D01*
X183895631Y-87815783D01*
X183882546Y-87821972D01*
X183868917Y-87826849D01*
X183854876Y-87830366D01*
X183840558Y-87832490D01*
X183826100Y-87833200D01*
X183531100Y-87833200D01*
X183516642Y-87832490D01*
X183502324Y-87830366D01*
X183488283Y-87826849D01*
X183474654Y-87821972D01*
X183461569Y-87815783D01*
X183449153Y-87808342D01*
X183437527Y-87799719D01*
X183426802Y-87789998D01*
X183417081Y-87779273D01*
X183408458Y-87767647D01*
X183401017Y-87755231D01*
X183394828Y-87742146D01*
X183389951Y-87728517D01*
X183386434Y-87714476D01*
X183384310Y-87700158D01*
X183383600Y-87685700D01*
X183383600Y-87340700D01*
X183384310Y-87326242D01*
X183386434Y-87311924D01*
X183389951Y-87297883D01*
X183394828Y-87284254D01*
X183401017Y-87271169D01*
X183408458Y-87258753D01*
X183417081Y-87247127D01*
X183426802Y-87236402D01*
X183437527Y-87226681D01*
X183449153Y-87218058D01*
X183461569Y-87210617D01*
X183474654Y-87204428D01*
X183488283Y-87199551D01*
X183502324Y-87196034D01*
X183516642Y-87193910D01*
X183531100Y-87193200D01*
X183826100Y-87193200D01*
X183840558Y-87193910D01*
G37*
G36*
X181452958Y-87193910D02*
G01*
X181467276Y-87196034D01*
X181481317Y-87199551D01*
X181494946Y-87204428D01*
X181508031Y-87210617D01*
X181520447Y-87218058D01*
X181532073Y-87226681D01*
X181542798Y-87236402D01*
X181552519Y-87247127D01*
X181561142Y-87258753D01*
X181568583Y-87271169D01*
X181574772Y-87284254D01*
X181579649Y-87297883D01*
X181583166Y-87311924D01*
X181585290Y-87326242D01*
X181586000Y-87340700D01*
X181586000Y-87685700D01*
X181585290Y-87700158D01*
X181583166Y-87714476D01*
X181579649Y-87728517D01*
X181574772Y-87742146D01*
X181568583Y-87755231D01*
X181561142Y-87767647D01*
X181552519Y-87779273D01*
X181542798Y-87789998D01*
X181532073Y-87799719D01*
X181520447Y-87808342D01*
X181508031Y-87815783D01*
X181494946Y-87821972D01*
X181481317Y-87826849D01*
X181467276Y-87830366D01*
X181452958Y-87832490D01*
X181438500Y-87833200D01*
X181143500Y-87833200D01*
X181129042Y-87832490D01*
X181114724Y-87830366D01*
X181100683Y-87826849D01*
X181087054Y-87821972D01*
X181073969Y-87815783D01*
X181061553Y-87808342D01*
X181049927Y-87799719D01*
X181039202Y-87789998D01*
X181029481Y-87779273D01*
X181020858Y-87767647D01*
X181013417Y-87755231D01*
X181007228Y-87742146D01*
X181002351Y-87728517D01*
X180998834Y-87714476D01*
X180996710Y-87700158D01*
X180996000Y-87685700D01*
X180996000Y-87340700D01*
X180996710Y-87326242D01*
X180998834Y-87311924D01*
X181002351Y-87297883D01*
X181007228Y-87284254D01*
X181013417Y-87271169D01*
X181020858Y-87258753D01*
X181029481Y-87247127D01*
X181039202Y-87236402D01*
X181049927Y-87226681D01*
X181061553Y-87218058D01*
X181073969Y-87210617D01*
X181087054Y-87204428D01*
X181100683Y-87199551D01*
X181114724Y-87196034D01*
X181129042Y-87193910D01*
X181143500Y-87193200D01*
X181438500Y-87193200D01*
X181452958Y-87193910D01*
G37*
G36*
X180482958Y-87193910D02*
G01*
X180497276Y-87196034D01*
X180511317Y-87199551D01*
X180524946Y-87204428D01*
X180538031Y-87210617D01*
X180550447Y-87218058D01*
X180562073Y-87226681D01*
X180572798Y-87236402D01*
X180582519Y-87247127D01*
X180591142Y-87258753D01*
X180598583Y-87271169D01*
X180604772Y-87284254D01*
X180609649Y-87297883D01*
X180613166Y-87311924D01*
X180615290Y-87326242D01*
X180616000Y-87340700D01*
X180616000Y-87685700D01*
X180615290Y-87700158D01*
X180613166Y-87714476D01*
X180609649Y-87728517D01*
X180604772Y-87742146D01*
X180598583Y-87755231D01*
X180591142Y-87767647D01*
X180582519Y-87779273D01*
X180572798Y-87789998D01*
X180562073Y-87799719D01*
X180550447Y-87808342D01*
X180538031Y-87815783D01*
X180524946Y-87821972D01*
X180511317Y-87826849D01*
X180497276Y-87830366D01*
X180482958Y-87832490D01*
X180468500Y-87833200D01*
X180173500Y-87833200D01*
X180159042Y-87832490D01*
X180144724Y-87830366D01*
X180130683Y-87826849D01*
X180117054Y-87821972D01*
X180103969Y-87815783D01*
X180091553Y-87808342D01*
X180079927Y-87799719D01*
X180069202Y-87789998D01*
X180059481Y-87779273D01*
X180050858Y-87767647D01*
X180043417Y-87755231D01*
X180037228Y-87742146D01*
X180032351Y-87728517D01*
X180028834Y-87714476D01*
X180026710Y-87700158D01*
X180026000Y-87685700D01*
X180026000Y-87340700D01*
X180026710Y-87326242D01*
X180028834Y-87311924D01*
X180032351Y-87297883D01*
X180037228Y-87284254D01*
X180043417Y-87271169D01*
X180050858Y-87258753D01*
X180059481Y-87247127D01*
X180069202Y-87236402D01*
X180079927Y-87226681D01*
X180091553Y-87218058D01*
X180103969Y-87210617D01*
X180117054Y-87204428D01*
X180130683Y-87199551D01*
X180144724Y-87196034D01*
X180159042Y-87193910D01*
X180173500Y-87193200D01*
X180468500Y-87193200D01*
X180482958Y-87193910D01*
G37*
G36*
X182870558Y-86228710D02*
G01*
X182884876Y-86230834D01*
X182898917Y-86234351D01*
X182912546Y-86239228D01*
X182925631Y-86245417D01*
X182938047Y-86252858D01*
X182949673Y-86261481D01*
X182960398Y-86271202D01*
X182970119Y-86281927D01*
X182978742Y-86293553D01*
X182986183Y-86305969D01*
X182992372Y-86319054D01*
X182997249Y-86332683D01*
X183000766Y-86346724D01*
X183002890Y-86361042D01*
X183003600Y-86375500D01*
X183003600Y-86720500D01*
X183002890Y-86734958D01*
X183000766Y-86749276D01*
X182997249Y-86763317D01*
X182992372Y-86776946D01*
X182986183Y-86790031D01*
X182978742Y-86802447D01*
X182970119Y-86814073D01*
X182960398Y-86824798D01*
X182949673Y-86834519D01*
X182938047Y-86843142D01*
X182925631Y-86850583D01*
X182912546Y-86856772D01*
X182898917Y-86861649D01*
X182884876Y-86865166D01*
X182870558Y-86867290D01*
X182856100Y-86868000D01*
X182561100Y-86868000D01*
X182546642Y-86867290D01*
X182532324Y-86865166D01*
X182518283Y-86861649D01*
X182504654Y-86856772D01*
X182491569Y-86850583D01*
X182479153Y-86843142D01*
X182467527Y-86834519D01*
X182456802Y-86824798D01*
X182447081Y-86814073D01*
X182438458Y-86802447D01*
X182431017Y-86790031D01*
X182424828Y-86776946D01*
X182419951Y-86763317D01*
X182416434Y-86749276D01*
X182414310Y-86734958D01*
X182413600Y-86720500D01*
X182413600Y-86375500D01*
X182414310Y-86361042D01*
X182416434Y-86346724D01*
X182419951Y-86332683D01*
X182424828Y-86319054D01*
X182431017Y-86305969D01*
X182438458Y-86293553D01*
X182447081Y-86281927D01*
X182456802Y-86271202D01*
X182467527Y-86261481D01*
X182479153Y-86252858D01*
X182491569Y-86245417D01*
X182504654Y-86239228D01*
X182518283Y-86234351D01*
X182532324Y-86230834D01*
X182546642Y-86228710D01*
X182561100Y-86228000D01*
X182856100Y-86228000D01*
X182870558Y-86228710D01*
G37*
G36*
X183840558Y-86228710D02*
G01*
X183854876Y-86230834D01*
X183868917Y-86234351D01*
X183882546Y-86239228D01*
X183895631Y-86245417D01*
X183908047Y-86252858D01*
X183919673Y-86261481D01*
X183930398Y-86271202D01*
X183940119Y-86281927D01*
X183948742Y-86293553D01*
X183956183Y-86305969D01*
X183962372Y-86319054D01*
X183967249Y-86332683D01*
X183970766Y-86346724D01*
X183972890Y-86361042D01*
X183973600Y-86375500D01*
X183973600Y-86720500D01*
X183972890Y-86734958D01*
X183970766Y-86749276D01*
X183967249Y-86763317D01*
X183962372Y-86776946D01*
X183956183Y-86790031D01*
X183948742Y-86802447D01*
X183940119Y-86814073D01*
X183930398Y-86824798D01*
X183919673Y-86834519D01*
X183908047Y-86843142D01*
X183895631Y-86850583D01*
X183882546Y-86856772D01*
X183868917Y-86861649D01*
X183854876Y-86865166D01*
X183840558Y-86867290D01*
X183826100Y-86868000D01*
X183531100Y-86868000D01*
X183516642Y-86867290D01*
X183502324Y-86865166D01*
X183488283Y-86861649D01*
X183474654Y-86856772D01*
X183461569Y-86850583D01*
X183449153Y-86843142D01*
X183437527Y-86834519D01*
X183426802Y-86824798D01*
X183417081Y-86814073D01*
X183408458Y-86802447D01*
X183401017Y-86790031D01*
X183394828Y-86776946D01*
X183389951Y-86763317D01*
X183386434Y-86749276D01*
X183384310Y-86734958D01*
X183383600Y-86720500D01*
X183383600Y-86375500D01*
X183384310Y-86361042D01*
X183386434Y-86346724D01*
X183389951Y-86332683D01*
X183394828Y-86319054D01*
X183401017Y-86305969D01*
X183408458Y-86293553D01*
X183417081Y-86281927D01*
X183426802Y-86271202D01*
X183437527Y-86261481D01*
X183449153Y-86252858D01*
X183461569Y-86245417D01*
X183474654Y-86239228D01*
X183488283Y-86234351D01*
X183502324Y-86230834D01*
X183516642Y-86228710D01*
X183531100Y-86228000D01*
X183826100Y-86228000D01*
X183840558Y-86228710D01*
G37*
G36*
X151564948Y-100148210D02*
G01*
X151579266Y-100150334D01*
X151593307Y-100153851D01*
X151606936Y-100158728D01*
X151620021Y-100164917D01*
X151632437Y-100172358D01*
X151644063Y-100180981D01*
X151654788Y-100190702D01*
X151664509Y-100201427D01*
X151673132Y-100213053D01*
X151680573Y-100225469D01*
X151686762Y-100238554D01*
X151691639Y-100252183D01*
X151695156Y-100266224D01*
X151697280Y-100280542D01*
X151697990Y-100295000D01*
X151697990Y-100590000D01*
X151697280Y-100604458D01*
X151695156Y-100618776D01*
X151691639Y-100632817D01*
X151686762Y-100646446D01*
X151680573Y-100659531D01*
X151673132Y-100671947D01*
X151664509Y-100683573D01*
X151654788Y-100694298D01*
X151644063Y-100704019D01*
X151632437Y-100712642D01*
X151620021Y-100720083D01*
X151606936Y-100726272D01*
X151593307Y-100731149D01*
X151579266Y-100734666D01*
X151564948Y-100736790D01*
X151550490Y-100737500D01*
X151205490Y-100737500D01*
X151191032Y-100736790D01*
X151176714Y-100734666D01*
X151162673Y-100731149D01*
X151149044Y-100726272D01*
X151135959Y-100720083D01*
X151123543Y-100712642D01*
X151111917Y-100704019D01*
X151101192Y-100694298D01*
X151091471Y-100683573D01*
X151082848Y-100671947D01*
X151075407Y-100659531D01*
X151069218Y-100646446D01*
X151064341Y-100632817D01*
X151060824Y-100618776D01*
X151058700Y-100604458D01*
X151057990Y-100590000D01*
X151057990Y-100295000D01*
X151058700Y-100280542D01*
X151060824Y-100266224D01*
X151064341Y-100252183D01*
X151069218Y-100238554D01*
X151075407Y-100225469D01*
X151082848Y-100213053D01*
X151091471Y-100201427D01*
X151101192Y-100190702D01*
X151111917Y-100180981D01*
X151123543Y-100172358D01*
X151135959Y-100164917D01*
X151149044Y-100158728D01*
X151162673Y-100153851D01*
X151176714Y-100150334D01*
X151191032Y-100148210D01*
X151205490Y-100147500D01*
X151550490Y-100147500D01*
X151564948Y-100148210D01*
G37*
G36*
X151564948Y-101118210D02*
G01*
X151579266Y-101120334D01*
X151593307Y-101123851D01*
X151606936Y-101128728D01*
X151620021Y-101134917D01*
X151632437Y-101142358D01*
X151644063Y-101150981D01*
X151654788Y-101160702D01*
X151664509Y-101171427D01*
X151673132Y-101183053D01*
X151680573Y-101195469D01*
X151686762Y-101208554D01*
X151691639Y-101222183D01*
X151695156Y-101236224D01*
X151697280Y-101250542D01*
X151697990Y-101265000D01*
X151697990Y-101560000D01*
X151697280Y-101574458D01*
X151695156Y-101588776D01*
X151691639Y-101602817D01*
X151686762Y-101616446D01*
X151680573Y-101629531D01*
X151673132Y-101641947D01*
X151664509Y-101653573D01*
X151654788Y-101664298D01*
X151644063Y-101674019D01*
X151632437Y-101682642D01*
X151620021Y-101690083D01*
X151606936Y-101696272D01*
X151593307Y-101701149D01*
X151579266Y-101704666D01*
X151564948Y-101706790D01*
X151550490Y-101707500D01*
X151205490Y-101707500D01*
X151191032Y-101706790D01*
X151176714Y-101704666D01*
X151162673Y-101701149D01*
X151149044Y-101696272D01*
X151135959Y-101690083D01*
X151123543Y-101682642D01*
X151111917Y-101674019D01*
X151101192Y-101664298D01*
X151091471Y-101653573D01*
X151082848Y-101641947D01*
X151075407Y-101629531D01*
X151069218Y-101616446D01*
X151064341Y-101602817D01*
X151060824Y-101588776D01*
X151058700Y-101574458D01*
X151057990Y-101560000D01*
X151057990Y-101265000D01*
X151058700Y-101250542D01*
X151060824Y-101236224D01*
X151064341Y-101222183D01*
X151069218Y-101208554D01*
X151075407Y-101195469D01*
X151082848Y-101183053D01*
X151091471Y-101171427D01*
X151101192Y-101160702D01*
X151111917Y-101150981D01*
X151123543Y-101142358D01*
X151135959Y-101134917D01*
X151149044Y-101128728D01*
X151162673Y-101123851D01*
X151176714Y-101120334D01*
X151191032Y-101118210D01*
X151205490Y-101117500D01*
X151550490Y-101117500D01*
X151564948Y-101118210D01*
G37*
G36*
X153453758Y-100135510D02*
G01*
X153468076Y-100137634D01*
X153482117Y-100141151D01*
X153495746Y-100146028D01*
X153508831Y-100152217D01*
X153521247Y-100159658D01*
X153532873Y-100168281D01*
X153543598Y-100178002D01*
X153553319Y-100188727D01*
X153561942Y-100200353D01*
X153569383Y-100212769D01*
X153575572Y-100225854D01*
X153580449Y-100239483D01*
X153583966Y-100253524D01*
X153586090Y-100267842D01*
X153586800Y-100282300D01*
X153586800Y-100577300D01*
X153586090Y-100591758D01*
X153583966Y-100606076D01*
X153580449Y-100620117D01*
X153575572Y-100633746D01*
X153569383Y-100646831D01*
X153561942Y-100659247D01*
X153553319Y-100670873D01*
X153543598Y-100681598D01*
X153532873Y-100691319D01*
X153521247Y-100699942D01*
X153508831Y-100707383D01*
X153495746Y-100713572D01*
X153482117Y-100718449D01*
X153468076Y-100721966D01*
X153453758Y-100724090D01*
X153439300Y-100724800D01*
X153094300Y-100724800D01*
X153079842Y-100724090D01*
X153065524Y-100721966D01*
X153051483Y-100718449D01*
X153037854Y-100713572D01*
X153024769Y-100707383D01*
X153012353Y-100699942D01*
X153000727Y-100691319D01*
X152990002Y-100681598D01*
X152980281Y-100670873D01*
X152971658Y-100659247D01*
X152964217Y-100646831D01*
X152958028Y-100633746D01*
X152953151Y-100620117D01*
X152949634Y-100606076D01*
X152947510Y-100591758D01*
X152946800Y-100577300D01*
X152946800Y-100282300D01*
X152947510Y-100267842D01*
X152949634Y-100253524D01*
X152953151Y-100239483D01*
X152958028Y-100225854D01*
X152964217Y-100212769D01*
X152971658Y-100200353D01*
X152980281Y-100188727D01*
X152990002Y-100178002D01*
X153000727Y-100168281D01*
X153012353Y-100159658D01*
X153024769Y-100152217D01*
X153037854Y-100146028D01*
X153051483Y-100141151D01*
X153065524Y-100137634D01*
X153079842Y-100135510D01*
X153094300Y-100134800D01*
X153439300Y-100134800D01*
X153453758Y-100135510D01*
G37*
G36*
X153453758Y-101105510D02*
G01*
X153468076Y-101107634D01*
X153482117Y-101111151D01*
X153495746Y-101116028D01*
X153508831Y-101122217D01*
X153521247Y-101129658D01*
X153532873Y-101138281D01*
X153543598Y-101148002D01*
X153553319Y-101158727D01*
X153561942Y-101170353D01*
X153569383Y-101182769D01*
X153575572Y-101195854D01*
X153580449Y-101209483D01*
X153583966Y-101223524D01*
X153586090Y-101237842D01*
X153586800Y-101252300D01*
X153586800Y-101547300D01*
X153586090Y-101561758D01*
X153583966Y-101576076D01*
X153580449Y-101590117D01*
X153575572Y-101603746D01*
X153569383Y-101616831D01*
X153561942Y-101629247D01*
X153553319Y-101640873D01*
X153543598Y-101651598D01*
X153532873Y-101661319D01*
X153521247Y-101669942D01*
X153508831Y-101677383D01*
X153495746Y-101683572D01*
X153482117Y-101688449D01*
X153468076Y-101691966D01*
X153453758Y-101694090D01*
X153439300Y-101694800D01*
X153094300Y-101694800D01*
X153079842Y-101694090D01*
X153065524Y-101691966D01*
X153051483Y-101688449D01*
X153037854Y-101683572D01*
X153024769Y-101677383D01*
X153012353Y-101669942D01*
X153000727Y-101661319D01*
X152990002Y-101651598D01*
X152980281Y-101640873D01*
X152971658Y-101629247D01*
X152964217Y-101616831D01*
X152958028Y-101603746D01*
X152953151Y-101590117D01*
X152949634Y-101576076D01*
X152947510Y-101561758D01*
X152946800Y-101547300D01*
X152946800Y-101252300D01*
X152947510Y-101237842D01*
X152949634Y-101223524D01*
X152953151Y-101209483D01*
X152958028Y-101195854D01*
X152964217Y-101182769D01*
X152971658Y-101170353D01*
X152980281Y-101158727D01*
X152990002Y-101148002D01*
X153000727Y-101138281D01*
X153012353Y-101129658D01*
X153024769Y-101122217D01*
X153037854Y-101116028D01*
X153051483Y-101111151D01*
X153065524Y-101107634D01*
X153079842Y-101105510D01*
X153094300Y-101104800D01*
X153439300Y-101104800D01*
X153453758Y-101105510D01*
G37*
G36*
X152764948Y-92720710D02*
G01*
X152779266Y-92722834D01*
X152793307Y-92726351D01*
X152806936Y-92731228D01*
X152820021Y-92737417D01*
X152832437Y-92744858D01*
X152844063Y-92753481D01*
X152854788Y-92763202D01*
X152864509Y-92773927D01*
X152873132Y-92785553D01*
X152880573Y-92797969D01*
X152886762Y-92811054D01*
X152891639Y-92824683D01*
X152895156Y-92838724D01*
X152897280Y-92853042D01*
X152897990Y-92867500D01*
X152897990Y-93162500D01*
X152897280Y-93176958D01*
X152895156Y-93191276D01*
X152891639Y-93205317D01*
X152886762Y-93218946D01*
X152880573Y-93232031D01*
X152873132Y-93244447D01*
X152864509Y-93256073D01*
X152854788Y-93266798D01*
X152844063Y-93276519D01*
X152832437Y-93285142D01*
X152820021Y-93292583D01*
X152806936Y-93298772D01*
X152793307Y-93303649D01*
X152779266Y-93307166D01*
X152764948Y-93309290D01*
X152750490Y-93310000D01*
X152405490Y-93310000D01*
X152391032Y-93309290D01*
X152376714Y-93307166D01*
X152362673Y-93303649D01*
X152349044Y-93298772D01*
X152335959Y-93292583D01*
X152323543Y-93285142D01*
X152311917Y-93276519D01*
X152301192Y-93266798D01*
X152291471Y-93256073D01*
X152282848Y-93244447D01*
X152275407Y-93232031D01*
X152269218Y-93218946D01*
X152264341Y-93205317D01*
X152260824Y-93191276D01*
X152258700Y-93176958D01*
X152257990Y-93162500D01*
X152257990Y-92867500D01*
X152258700Y-92853042D01*
X152260824Y-92838724D01*
X152264341Y-92824683D01*
X152269218Y-92811054D01*
X152275407Y-92797969D01*
X152282848Y-92785553D01*
X152291471Y-92773927D01*
X152301192Y-92763202D01*
X152311917Y-92753481D01*
X152323543Y-92744858D01*
X152335959Y-92737417D01*
X152349044Y-92731228D01*
X152362673Y-92726351D01*
X152376714Y-92722834D01*
X152391032Y-92720710D01*
X152405490Y-92720000D01*
X152750490Y-92720000D01*
X152764948Y-92720710D01*
G37*
G36*
X152764948Y-93690710D02*
G01*
X152779266Y-93692834D01*
X152793307Y-93696351D01*
X152806936Y-93701228D01*
X152820021Y-93707417D01*
X152832437Y-93714858D01*
X152844063Y-93723481D01*
X152854788Y-93733202D01*
X152864509Y-93743927D01*
X152873132Y-93755553D01*
X152880573Y-93767969D01*
X152886762Y-93781054D01*
X152891639Y-93794683D01*
X152895156Y-93808724D01*
X152897280Y-93823042D01*
X152897990Y-93837500D01*
X152897990Y-94132500D01*
X152897280Y-94146958D01*
X152895156Y-94161276D01*
X152891639Y-94175317D01*
X152886762Y-94188946D01*
X152880573Y-94202031D01*
X152873132Y-94214447D01*
X152864509Y-94226073D01*
X152854788Y-94236798D01*
X152844063Y-94246519D01*
X152832437Y-94255142D01*
X152820021Y-94262583D01*
X152806936Y-94268772D01*
X152793307Y-94273649D01*
X152779266Y-94277166D01*
X152764948Y-94279290D01*
X152750490Y-94280000D01*
X152405490Y-94280000D01*
X152391032Y-94279290D01*
X152376714Y-94277166D01*
X152362673Y-94273649D01*
X152349044Y-94268772D01*
X152335959Y-94262583D01*
X152323543Y-94255142D01*
X152311917Y-94246519D01*
X152301192Y-94236798D01*
X152291471Y-94226073D01*
X152282848Y-94214447D01*
X152275407Y-94202031D01*
X152269218Y-94188946D01*
X152264341Y-94175317D01*
X152260824Y-94161276D01*
X152258700Y-94146958D01*
X152257990Y-94132500D01*
X152257990Y-93837500D01*
X152258700Y-93823042D01*
X152260824Y-93808724D01*
X152264341Y-93794683D01*
X152269218Y-93781054D01*
X152275407Y-93767969D01*
X152282848Y-93755553D01*
X152291471Y-93743927D01*
X152301192Y-93733202D01*
X152311917Y-93723481D01*
X152323543Y-93714858D01*
X152335959Y-93707417D01*
X152349044Y-93701228D01*
X152362673Y-93696351D01*
X152376714Y-93692834D01*
X152391032Y-93690710D01*
X152405490Y-93690000D01*
X152750490Y-93690000D01*
X152764948Y-93690710D01*
G37*
G36*
X154653758Y-92720710D02*
G01*
X154668076Y-92722834D01*
X154682117Y-92726351D01*
X154695746Y-92731228D01*
X154708831Y-92737417D01*
X154721247Y-92744858D01*
X154732873Y-92753481D01*
X154743598Y-92763202D01*
X154753319Y-92773927D01*
X154761942Y-92785553D01*
X154769383Y-92797969D01*
X154775572Y-92811054D01*
X154780449Y-92824683D01*
X154783966Y-92838724D01*
X154786090Y-92853042D01*
X154786800Y-92867500D01*
X154786800Y-93162500D01*
X154786090Y-93176958D01*
X154783966Y-93191276D01*
X154780449Y-93205317D01*
X154775572Y-93218946D01*
X154769383Y-93232031D01*
X154761942Y-93244447D01*
X154753319Y-93256073D01*
X154743598Y-93266798D01*
X154732873Y-93276519D01*
X154721247Y-93285142D01*
X154708831Y-93292583D01*
X154695746Y-93298772D01*
X154682117Y-93303649D01*
X154668076Y-93307166D01*
X154653758Y-93309290D01*
X154639300Y-93310000D01*
X154294300Y-93310000D01*
X154279842Y-93309290D01*
X154265524Y-93307166D01*
X154251483Y-93303649D01*
X154237854Y-93298772D01*
X154224769Y-93292583D01*
X154212353Y-93285142D01*
X154200727Y-93276519D01*
X154190002Y-93266798D01*
X154180281Y-93256073D01*
X154171658Y-93244447D01*
X154164217Y-93232031D01*
X154158028Y-93218946D01*
X154153151Y-93205317D01*
X154149634Y-93191276D01*
X154147510Y-93176958D01*
X154146800Y-93162500D01*
X154146800Y-92867500D01*
X154147510Y-92853042D01*
X154149634Y-92838724D01*
X154153151Y-92824683D01*
X154158028Y-92811054D01*
X154164217Y-92797969D01*
X154171658Y-92785553D01*
X154180281Y-92773927D01*
X154190002Y-92763202D01*
X154200727Y-92753481D01*
X154212353Y-92744858D01*
X154224769Y-92737417D01*
X154237854Y-92731228D01*
X154251483Y-92726351D01*
X154265524Y-92722834D01*
X154279842Y-92720710D01*
X154294300Y-92720000D01*
X154639300Y-92720000D01*
X154653758Y-92720710D01*
G37*
G36*
X154653758Y-93690710D02*
G01*
X154668076Y-93692834D01*
X154682117Y-93696351D01*
X154695746Y-93701228D01*
X154708831Y-93707417D01*
X154721247Y-93714858D01*
X154732873Y-93723481D01*
X154743598Y-93733202D01*
X154753319Y-93743927D01*
X154761942Y-93755553D01*
X154769383Y-93767969D01*
X154775572Y-93781054D01*
X154780449Y-93794683D01*
X154783966Y-93808724D01*
X154786090Y-93823042D01*
X154786800Y-93837500D01*
X154786800Y-94132500D01*
X154786090Y-94146958D01*
X154783966Y-94161276D01*
X154780449Y-94175317D01*
X154775572Y-94188946D01*
X154769383Y-94202031D01*
X154761942Y-94214447D01*
X154753319Y-94226073D01*
X154743598Y-94236798D01*
X154732873Y-94246519D01*
X154721247Y-94255142D01*
X154708831Y-94262583D01*
X154695746Y-94268772D01*
X154682117Y-94273649D01*
X154668076Y-94277166D01*
X154653758Y-94279290D01*
X154639300Y-94280000D01*
X154294300Y-94280000D01*
X154279842Y-94279290D01*
X154265524Y-94277166D01*
X154251483Y-94273649D01*
X154237854Y-94268772D01*
X154224769Y-94262583D01*
X154212353Y-94255142D01*
X154200727Y-94246519D01*
X154190002Y-94236798D01*
X154180281Y-94226073D01*
X154171658Y-94214447D01*
X154164217Y-94202031D01*
X154158028Y-94188946D01*
X154153151Y-94175317D01*
X154149634Y-94161276D01*
X154147510Y-94146958D01*
X154146800Y-94132500D01*
X154146800Y-93837500D01*
X154147510Y-93823042D01*
X154149634Y-93808724D01*
X154153151Y-93794683D01*
X154158028Y-93781054D01*
X154164217Y-93767969D01*
X154171658Y-93755553D01*
X154180281Y-93743927D01*
X154190002Y-93733202D01*
X154200727Y-93723481D01*
X154212353Y-93714858D01*
X154224769Y-93707417D01*
X154237854Y-93701228D01*
X154251483Y-93696351D01*
X154265524Y-93692834D01*
X154279842Y-93690710D01*
X154294300Y-93690000D01*
X154639300Y-93690000D01*
X154653758Y-93690710D01*
G37*
G36*
X184853758Y-89121510D02*
G01*
X184868076Y-89123634D01*
X184882117Y-89127151D01*
X184895746Y-89132028D01*
X184908831Y-89138217D01*
X184921247Y-89145658D01*
X184932873Y-89154281D01*
X184943598Y-89164002D01*
X184953319Y-89174727D01*
X184961942Y-89186353D01*
X184969383Y-89198769D01*
X184975572Y-89211854D01*
X184980449Y-89225483D01*
X184983966Y-89239524D01*
X184986090Y-89253842D01*
X184986800Y-89268300D01*
X184986800Y-89563300D01*
X184986090Y-89577758D01*
X184983966Y-89592076D01*
X184980449Y-89606117D01*
X184975572Y-89619746D01*
X184969383Y-89632831D01*
X184961942Y-89645247D01*
X184953319Y-89656873D01*
X184943598Y-89667598D01*
X184932873Y-89677319D01*
X184921247Y-89685942D01*
X184908831Y-89693383D01*
X184895746Y-89699572D01*
X184882117Y-89704449D01*
X184868076Y-89707966D01*
X184853758Y-89710090D01*
X184839300Y-89710800D01*
X184494300Y-89710800D01*
X184479842Y-89710090D01*
X184465524Y-89707966D01*
X184451483Y-89704449D01*
X184437854Y-89699572D01*
X184424769Y-89693383D01*
X184412353Y-89685942D01*
X184400727Y-89677319D01*
X184390002Y-89667598D01*
X184380281Y-89656873D01*
X184371658Y-89645247D01*
X184364217Y-89632831D01*
X184358028Y-89619746D01*
X184353151Y-89606117D01*
X184349634Y-89592076D01*
X184347510Y-89577758D01*
X184346800Y-89563300D01*
X184346800Y-89268300D01*
X184347510Y-89253842D01*
X184349634Y-89239524D01*
X184353151Y-89225483D01*
X184358028Y-89211854D01*
X184364217Y-89198769D01*
X184371658Y-89186353D01*
X184380281Y-89174727D01*
X184390002Y-89164002D01*
X184400727Y-89154281D01*
X184412353Y-89145658D01*
X184424769Y-89138217D01*
X184437854Y-89132028D01*
X184451483Y-89127151D01*
X184465524Y-89123634D01*
X184479842Y-89121510D01*
X184494300Y-89120800D01*
X184839300Y-89120800D01*
X184853758Y-89121510D01*
G37*
G36*
X184853758Y-90091510D02*
G01*
X184868076Y-90093634D01*
X184882117Y-90097151D01*
X184895746Y-90102028D01*
X184908831Y-90108217D01*
X184921247Y-90115658D01*
X184932873Y-90124281D01*
X184943598Y-90134002D01*
X184953319Y-90144727D01*
X184961942Y-90156353D01*
X184969383Y-90168769D01*
X184975572Y-90181854D01*
X184980449Y-90195483D01*
X184983966Y-90209524D01*
X184986090Y-90223842D01*
X184986800Y-90238300D01*
X184986800Y-90533300D01*
X184986090Y-90547758D01*
X184983966Y-90562076D01*
X184980449Y-90576117D01*
X184975572Y-90589746D01*
X184969383Y-90602831D01*
X184961942Y-90615247D01*
X184953319Y-90626873D01*
X184943598Y-90637598D01*
X184932873Y-90647319D01*
X184921247Y-90655942D01*
X184908831Y-90663383D01*
X184895746Y-90669572D01*
X184882117Y-90674449D01*
X184868076Y-90677966D01*
X184853758Y-90680090D01*
X184839300Y-90680800D01*
X184494300Y-90680800D01*
X184479842Y-90680090D01*
X184465524Y-90677966D01*
X184451483Y-90674449D01*
X184437854Y-90669572D01*
X184424769Y-90663383D01*
X184412353Y-90655942D01*
X184400727Y-90647319D01*
X184390002Y-90637598D01*
X184380281Y-90626873D01*
X184371658Y-90615247D01*
X184364217Y-90602831D01*
X184358028Y-90589746D01*
X184353151Y-90576117D01*
X184349634Y-90562076D01*
X184347510Y-90547758D01*
X184346800Y-90533300D01*
X184346800Y-90238300D01*
X184347510Y-90223842D01*
X184349634Y-90209524D01*
X184353151Y-90195483D01*
X184358028Y-90181854D01*
X184364217Y-90168769D01*
X184371658Y-90156353D01*
X184380281Y-90144727D01*
X184390002Y-90134002D01*
X184400727Y-90124281D01*
X184412353Y-90115658D01*
X184424769Y-90108217D01*
X184437854Y-90102028D01*
X184451483Y-90097151D01*
X184465524Y-90093634D01*
X184479842Y-90091510D01*
X184494300Y-90090800D01*
X184839300Y-90090800D01*
X184853758Y-90091510D01*
G37*
M02*
