G04 #@! TF.GenerationSoftware,KiCad,Pcbnew,5.1.5-52549c5~84~ubuntu19.04.1*
G04 #@! TF.CreationDate,2020-02-16T02:06:15+01:00*
G04 #@! TF.ProjectId,ilulissat,696c756c-6973-4736-9174-2e6b69636164,rev?*
G04 #@! TF.SameCoordinates,Original*
G04 #@! TF.FileFunction,Copper,L2,Bot*
G04 #@! TF.FilePolarity,Positive*
%FSLAX46Y46*%
G04 Gerber Fmt 4.6, Leading zero omitted, Abs format (unit mm)*
G04 Created by KiCad (PCBNEW 5.1.5-52549c5~84~ubuntu19.04.1) date 2020-02-16 02:06:15*
%MOMM*%
%LPD*%
G04 APERTURE LIST*
%ADD10C,1.000000*%
%ADD11C,0.100000*%
%ADD12C,17.800000*%
%ADD13C,2.300000*%
%ADD14R,2.700000X6.260000*%
%ADD15C,0.600000*%
%ADD16C,0.800000*%
%ADD17C,0.600000*%
%ADD18C,0.127000*%
%ADD19C,0.220000*%
G04 APERTURE END LIST*
D10*
X159040128Y-93990128D02*
X159040128Y-93990128D01*
X158142102Y-93092102D02*
X158142102Y-93092102D01*
X157244077Y-92194077D02*
X157244077Y-92194077D01*
X156346051Y-91296051D02*
X156346051Y-91296051D01*
X155448026Y-90398026D02*
X155448026Y-90398026D01*
G04 #@! TA.AperFunction,ComponentPad*
D11*
G36*
X154550000Y-90207107D02*
G01*
X153842893Y-89500000D01*
X154550000Y-88792893D01*
X155257107Y-89500000D01*
X154550000Y-90207107D01*
G37*
G04 #@! TD.AperFunction*
D12*
X148000000Y-100000000D03*
D13*
X149500000Y-110400000D03*
X146500000Y-110400000D03*
X149500000Y-89600000D03*
X146500000Y-89600000D03*
D14*
X160150000Y-101500000D03*
D15*
X142700000Y-101800000D03*
X152500000Y-95300000D03*
X148700000Y-97900000D03*
X147800000Y-97900000D03*
X146900000Y-97900000D03*
X146900000Y-97100000D03*
X147800000Y-97100000D03*
X148700000Y-97100000D03*
X148700000Y-96300000D03*
X147800000Y-96300000D03*
X146900000Y-96300000D03*
X141300000Y-97700000D03*
X142300000Y-97700000D03*
X144800000Y-97200000D03*
X160600000Y-96200000D03*
X157575000Y-98400000D03*
X158300000Y-104350000D03*
X162000000Y-97900000D03*
X158300000Y-103600000D03*
X158300000Y-99100000D03*
X153600000Y-98400000D03*
X152500000Y-96200000D03*
X152500000Y-98400000D03*
X158390904Y-96200000D03*
X156125000Y-98400000D03*
X153600000Y-99100000D03*
X156850000Y-98400000D03*
X158300000Y-101350000D03*
X154500000Y-99100000D03*
X161300000Y-97900000D03*
X160700000Y-105100000D03*
X158300000Y-100600000D03*
X156181815Y-96200000D03*
X158300000Y-105100000D03*
X158300000Y-99850000D03*
X158300000Y-102100000D03*
X159863630Y-96200000D03*
X158300000Y-98400000D03*
X155400000Y-99100000D03*
X160600000Y-97100000D03*
X159127267Y-96200000D03*
X154709089Y-96200000D03*
X159100000Y-105100000D03*
X159900000Y-105100000D03*
X157654541Y-96200000D03*
X155400000Y-98400000D03*
X158300000Y-102850000D03*
X153972726Y-96200000D03*
X160600000Y-97900000D03*
X153236363Y-96200000D03*
X156918178Y-96200000D03*
X155445452Y-96200000D03*
X151725000Y-103400000D03*
X153100000Y-107375000D03*
X150175000Y-105800000D03*
X154400000Y-101400000D03*
X151600000Y-93025000D03*
X143225000Y-109525000D03*
X143475000Y-89725000D03*
X145500000Y-94800000D03*
X148025000Y-91800000D03*
X154400000Y-91600000D03*
D16*
X145200000Y-90775000D03*
X140625000Y-107325000D03*
D17*
X154100001Y-91300001D02*
X154400000Y-91600000D01*
X152400000Y-89600000D02*
X154100001Y-91300001D01*
X149500000Y-89600000D02*
X152400000Y-89600000D01*
D18*
X139971832Y-107313049D02*
X139999284Y-107350000D01*
X139843640Y-107133946D02*
X139971832Y-107313049D01*
X139718621Y-106952559D02*
X139843640Y-107133946D01*
X139596859Y-106769009D02*
X139718621Y-106952559D01*
X139478348Y-106583287D02*
X139596859Y-106769009D01*
X138481288Y-104622130D02*
X138565159Y-104825893D01*
X138401078Y-104416993D02*
X138481288Y-104622130D01*
X138251614Y-104002533D02*
X138324509Y-104210433D01*
X140600000Y-107350000D02*
X140625000Y-107325000D01*
X137892734Y-102731109D02*
X137943110Y-102945547D01*
X139999284Y-107350000D02*
X140600000Y-107350000D01*
X137846165Y-102515782D02*
X137892734Y-102731109D01*
X137803430Y-102299680D02*
X137846165Y-102515782D01*
X137764528Y-102082803D02*
X137803430Y-102299680D01*
X138324509Y-104210433D02*
X138401078Y-104416993D01*
X137612460Y-100770506D02*
X137628088Y-100990268D01*
X137600735Y-100550517D02*
X137612460Y-100770506D01*
X137589010Y-100110160D02*
X137592917Y-100330357D01*
X137589010Y-99889848D02*
X137589010Y-100110160D01*
X137592918Y-99669642D02*
X137589010Y-99889848D01*
X139363156Y-93604504D02*
X139251305Y-93794328D01*
X137647607Y-101209637D02*
X137671022Y-101428676D01*
X138936289Y-94375132D02*
X138838198Y-94572385D01*
X139478346Y-93416717D02*
X139363156Y-93604504D01*
X139142907Y-93985985D02*
X139037858Y-94179668D01*
X138182436Y-103793419D02*
X138251614Y-104002533D01*
X139718621Y-93047441D02*
X139596862Y-93230987D01*
X137600736Y-99449477D02*
X137592918Y-99669642D01*
X139251305Y-93794328D02*
X139142907Y-93985985D01*
X138116964Y-103583054D02*
X138182436Y-103793419D01*
X139843638Y-92866057D02*
X139718621Y-93047441D01*
X138055256Y-103371636D02*
X138116964Y-103583054D01*
X139971839Y-92686942D02*
X139843638Y-92866057D01*
X137997280Y-103159042D02*
X138055256Y-103371636D01*
X140103252Y-92510059D02*
X139971839Y-92686942D01*
X141581129Y-90880381D02*
X141420599Y-91031236D01*
X137592917Y-100330357D02*
X137600735Y-100550517D01*
X145200000Y-90775000D02*
X141697335Y-90775000D01*
X138652586Y-105028023D02*
X138743625Y-105228655D01*
X138743624Y-94771348D02*
X138652583Y-94971983D01*
X139037858Y-105820331D02*
X139142893Y-106013989D01*
X137943113Y-97054443D02*
X137892738Y-97268877D01*
X141262821Y-91184868D02*
X141107728Y-91341343D01*
X138838192Y-105427603D02*
X138936288Y-105624865D01*
X138565158Y-95174108D02*
X138481288Y-95377870D01*
X141420599Y-91031236D02*
X141262821Y-91184868D01*
X138743625Y-105228655D02*
X138838192Y-105427603D01*
X138652583Y-94971983D02*
X138565158Y-95174108D01*
X139142893Y-106013989D02*
X139251351Y-106205754D01*
X137892738Y-97268877D02*
X137846167Y-97484213D01*
X141107728Y-91341343D02*
X140955423Y-91500561D01*
X138936288Y-105624865D02*
X139037858Y-105820331D01*
X138481288Y-95377870D02*
X138401080Y-95583001D01*
X137943110Y-102945547D02*
X137997280Y-103159042D01*
X140237702Y-92335643D02*
X140103252Y-92510059D01*
X137647608Y-98790365D02*
X137628088Y-99009744D01*
X140955423Y-91500561D02*
X140806021Y-91662398D01*
X138401080Y-95583001D02*
X138324514Y-95789554D01*
X138324514Y-95789554D02*
X138251622Y-95997447D01*
X137729501Y-98134611D02*
X137698327Y-98352688D01*
X140659500Y-91826880D02*
X140515862Y-91994004D01*
X137698327Y-98352688D02*
X137671022Y-98571331D01*
X140515862Y-91994004D02*
X140375310Y-92163535D01*
X137671022Y-98571331D02*
X137647608Y-98790365D01*
X140375310Y-92163535D02*
X140237702Y-92335643D01*
X137628088Y-100990268D02*
X137647607Y-101209637D01*
X139037858Y-94179668D02*
X138936289Y-94375132D01*
X139596862Y-93230987D02*
X139478346Y-93416717D01*
X141697335Y-90775000D02*
X141581129Y-90880381D01*
X138565159Y-104825893D02*
X138652586Y-105028023D01*
X137671022Y-101428676D02*
X137698327Y-101647317D01*
X138838198Y-94572385D02*
X138743624Y-94771348D01*
X137997281Y-96840955D02*
X137943113Y-97054443D01*
X140806021Y-91662398D02*
X140659500Y-91826880D01*
X137764528Y-97917201D02*
X137729501Y-98134611D01*
X139251351Y-106205754D02*
X139363143Y-106395475D01*
X137698327Y-101647317D02*
X137729501Y-101865394D01*
X137846167Y-97484213D02*
X137803432Y-97700317D01*
X138251622Y-95997447D02*
X138182433Y-96206594D01*
X139363143Y-106395475D02*
X139478348Y-106583287D01*
X137729501Y-101865394D02*
X137764528Y-102082803D01*
X137803432Y-97700317D02*
X137764528Y-97917201D01*
X138182433Y-96206594D02*
X138116963Y-96416949D01*
X138116963Y-96416949D02*
X138055258Y-96628359D01*
X138055258Y-96628359D02*
X137997281Y-96840955D01*
X137628088Y-99009744D02*
X137612461Y-99229486D01*
X137612461Y-99229486D02*
X137600736Y-99449477D01*
D19*
G36*
X152078250Y-87768298D02*
G01*
X153434698Y-88077899D01*
X154747953Y-88537427D01*
X156001500Y-89141103D01*
X157179575Y-89881336D01*
X158267362Y-90748818D01*
X159251182Y-91732638D01*
X160118664Y-92820425D01*
X160858897Y-93998500D01*
X161462573Y-95252047D01*
X161922101Y-96565302D01*
X162231702Y-97921750D01*
X162387481Y-99304334D01*
X162387481Y-100695666D01*
X162231702Y-102078250D01*
X161922101Y-103434698D01*
X161462573Y-104747953D01*
X160858897Y-106001500D01*
X160118664Y-107179575D01*
X159251182Y-108267362D01*
X158267362Y-109251182D01*
X157179575Y-110118664D01*
X156001500Y-110858897D01*
X154747953Y-111462573D01*
X153434698Y-111922101D01*
X152078250Y-112231702D01*
X150695666Y-112387481D01*
X149304334Y-112387481D01*
X147921750Y-112231702D01*
X146565302Y-111922101D01*
X146145897Y-111775345D01*
X146360339Y-111818000D01*
X146639661Y-111818000D01*
X146913615Y-111763507D01*
X147171675Y-111656615D01*
X147403922Y-111501432D01*
X147601432Y-111303922D01*
X147756615Y-111071675D01*
X147863507Y-110813615D01*
X147918000Y-110539661D01*
X147918000Y-110260339D01*
X148082000Y-110260339D01*
X148082000Y-110539661D01*
X148136493Y-110813615D01*
X148243385Y-111071675D01*
X148398568Y-111303922D01*
X148596078Y-111501432D01*
X148828325Y-111656615D01*
X149086385Y-111763507D01*
X149360339Y-111818000D01*
X149639661Y-111818000D01*
X149913615Y-111763507D01*
X150171675Y-111656615D01*
X150403922Y-111501432D01*
X150601432Y-111303922D01*
X150756615Y-111071675D01*
X150863507Y-110813615D01*
X150918000Y-110539661D01*
X150918000Y-110260339D01*
X150863507Y-109986385D01*
X150756615Y-109728325D01*
X150601432Y-109496078D01*
X150403922Y-109298568D01*
X150171675Y-109143385D01*
X149913615Y-109036493D01*
X149639661Y-108982000D01*
X149360339Y-108982000D01*
X149086385Y-109036493D01*
X148828325Y-109143385D01*
X148596078Y-109298568D01*
X148398568Y-109496078D01*
X148243385Y-109728325D01*
X148136493Y-109986385D01*
X148082000Y-110260339D01*
X147918000Y-110260339D01*
X147863507Y-109986385D01*
X147756615Y-109728325D01*
X147601432Y-109496078D01*
X147403922Y-109298568D01*
X147171675Y-109143385D01*
X146913615Y-109036493D01*
X146639661Y-108982000D01*
X146360339Y-108982000D01*
X146086385Y-109036493D01*
X145828325Y-109143385D01*
X145596078Y-109298568D01*
X145398568Y-109496078D01*
X145243385Y-109728325D01*
X145136493Y-109986385D01*
X145082000Y-110260339D01*
X145082000Y-110539661D01*
X145136493Y-110813615D01*
X145243385Y-111071675D01*
X145398568Y-111303922D01*
X145596078Y-111501432D01*
X145828325Y-111656615D01*
X145946625Y-111705616D01*
X145252047Y-111462573D01*
X143998500Y-110858897D01*
X142820425Y-110118664D01*
X141732638Y-109251182D01*
X140748818Y-108267362D01*
X140524519Y-107986100D01*
X140559208Y-107993000D01*
X140690792Y-107993000D01*
X140819848Y-107967329D01*
X140941417Y-107916974D01*
X141050825Y-107843869D01*
X141143869Y-107750825D01*
X141216974Y-107641417D01*
X141267329Y-107519848D01*
X141293000Y-107390792D01*
X141293000Y-107259208D01*
X141267329Y-107130152D01*
X141216974Y-107008583D01*
X141143869Y-106899175D01*
X141050825Y-106806131D01*
X140941417Y-106733026D01*
X140819848Y-106682671D01*
X140690792Y-106657000D01*
X140559208Y-106657000D01*
X140430152Y-106682671D01*
X140308583Y-106733026D01*
X140199175Y-106806131D01*
X140106131Y-106899175D01*
X140095453Y-106915155D01*
X139993251Y-106766874D01*
X139874745Y-106588232D01*
X139759418Y-106407502D01*
X139647253Y-106224648D01*
X139538477Y-106040046D01*
X139432922Y-105853416D01*
X139330656Y-105664864D01*
X139231810Y-105474641D01*
X139136331Y-105282641D01*
X139044299Y-105089028D01*
X138955692Y-104893758D01*
X138870577Y-104696974D01*
X138788973Y-104498718D01*
X138710897Y-104299041D01*
X138636361Y-104097966D01*
X138565415Y-103895625D01*
X138498089Y-103692108D01*
X138434361Y-103487347D01*
X138374311Y-103281609D01*
X138317874Y-103074661D01*
X138265154Y-102866878D01*
X138216114Y-102658129D01*
X138170795Y-102448580D01*
X138129209Y-102238292D01*
X138091339Y-102027170D01*
X138057251Y-101815586D01*
X138026906Y-101603314D01*
X138000335Y-101390550D01*
X137977545Y-101177368D01*
X137958545Y-100963837D01*
X137943333Y-100749923D01*
X137931921Y-100535814D01*
X137924312Y-100321535D01*
X137920510Y-100107226D01*
X137920510Y-99892735D01*
X137924313Y-99678468D01*
X137931922Y-99464179D01*
X137943334Y-99250075D01*
X137958545Y-99036174D01*
X137977547Y-98822628D01*
X138000335Y-98609458D01*
X138026905Y-98396697D01*
X138057252Y-98184409D01*
X138091336Y-97972855D01*
X138129211Y-97761704D01*
X138170792Y-97551435D01*
X138216123Y-97341834D01*
X138265160Y-97133099D01*
X138317875Y-96925338D01*
X138374317Y-96718369D01*
X138434361Y-96512652D01*
X138498073Y-96307943D01*
X138565430Y-96104336D01*
X138636367Y-95902018D01*
X138710899Y-95700954D01*
X138788954Y-95501329D01*
X138870590Y-95302996D01*
X138955680Y-95106270D01*
X139044296Y-94910979D01*
X139136347Y-94717326D01*
X139231820Y-94525339D01*
X139330678Y-94335093D01*
X139432898Y-94146626D01*
X139538418Y-93960059D01*
X139647290Y-93775292D01*
X139759406Y-93592518D01*
X139874731Y-93411789D01*
X139993276Y-93233089D01*
X140114935Y-93056579D01*
X140239693Y-92882275D01*
X140367613Y-92710093D01*
X140377652Y-92697069D01*
X156762298Y-92697069D01*
X156808407Y-92819245D01*
X156833220Y-92835826D01*
X156966313Y-92903649D01*
X157110082Y-92944204D01*
X157258999Y-92955932D01*
X157389206Y-92940527D01*
X157374102Y-93016461D01*
X157374102Y-93167743D01*
X157403616Y-93316119D01*
X157461509Y-93455886D01*
X157545557Y-93581673D01*
X157652531Y-93688647D01*
X157778318Y-93772695D01*
X157918085Y-93830588D01*
X158066461Y-93860102D01*
X158217743Y-93860102D01*
X158285632Y-93846598D01*
X158272128Y-93914487D01*
X158272128Y-94065769D01*
X158301642Y-94214145D01*
X158359535Y-94353912D01*
X158443583Y-94479699D01*
X158550557Y-94586673D01*
X158676344Y-94670721D01*
X158816111Y-94728614D01*
X158964487Y-94758128D01*
X159115769Y-94758128D01*
X159264145Y-94728614D01*
X159403912Y-94670721D01*
X159529699Y-94586673D01*
X159636673Y-94479699D01*
X159720721Y-94353912D01*
X159778614Y-94214145D01*
X159808128Y-94065769D01*
X159808128Y-93914487D01*
X159778614Y-93766111D01*
X159720721Y-93626344D01*
X159636673Y-93500557D01*
X159529699Y-93393583D01*
X159403912Y-93309535D01*
X159264145Y-93251642D01*
X159115769Y-93222128D01*
X158964487Y-93222128D01*
X158896598Y-93235632D01*
X158910102Y-93167743D01*
X158910102Y-93016461D01*
X158880588Y-92868085D01*
X158822695Y-92728318D01*
X158738647Y-92602531D01*
X158631673Y-92495557D01*
X158505886Y-92411509D01*
X158366119Y-92353616D01*
X158217743Y-92324102D01*
X158066461Y-92324102D01*
X157990527Y-92339206D01*
X158005932Y-92208999D01*
X157994204Y-92060082D01*
X157953649Y-91916313D01*
X157885826Y-91783220D01*
X157869245Y-91758407D01*
X157747069Y-91712298D01*
X157265290Y-92194077D01*
X157279433Y-92208219D01*
X157258219Y-92229433D01*
X157244077Y-92215290D01*
X156762298Y-92697069D01*
X140377652Y-92697069D01*
X140498480Y-92540326D01*
X140632394Y-92372839D01*
X140769172Y-92207860D01*
X140908996Y-92045174D01*
X141051577Y-91885114D01*
X141197004Y-91727583D01*
X141345231Y-91572628D01*
X141496210Y-91420303D01*
X141649757Y-91270792D01*
X141805989Y-91123975D01*
X141825260Y-91106500D01*
X144618104Y-91106500D01*
X144681131Y-91200825D01*
X144774175Y-91293869D01*
X144883583Y-91366974D01*
X145005152Y-91417329D01*
X145134208Y-91443000D01*
X145265792Y-91443000D01*
X145394848Y-91417329D01*
X145516417Y-91366974D01*
X145625825Y-91293869D01*
X145718869Y-91200825D01*
X145791974Y-91091417D01*
X145842329Y-90969848D01*
X145862072Y-90870594D01*
X146086385Y-90963507D01*
X146360339Y-91018000D01*
X146639661Y-91018000D01*
X146913615Y-90963507D01*
X147171675Y-90856615D01*
X147403922Y-90701432D01*
X147601432Y-90503922D01*
X147756615Y-90271675D01*
X147863507Y-90013615D01*
X147918000Y-89739661D01*
X147918000Y-89460339D01*
X148082000Y-89460339D01*
X148082000Y-89739661D01*
X148136493Y-90013615D01*
X148243385Y-90271675D01*
X148398568Y-90503922D01*
X148596078Y-90701432D01*
X148828325Y-90856615D01*
X149086385Y-90963507D01*
X149360339Y-91018000D01*
X149639661Y-91018000D01*
X149913615Y-90963507D01*
X150171675Y-90856615D01*
X150403922Y-90701432D01*
X150601432Y-90503922D01*
X150756615Y-90271675D01*
X150799559Y-90168000D01*
X152164728Y-90168000D01*
X153718092Y-91721365D01*
X153718097Y-91721369D01*
X153958806Y-91962078D01*
X153958806Y-91962079D01*
X154037921Y-92041194D01*
X154061241Y-92056776D01*
X154082910Y-92074559D01*
X154107630Y-92087772D01*
X154130951Y-92103355D01*
X154156862Y-92114088D01*
X154181584Y-92127302D01*
X154208415Y-92135441D01*
X154234321Y-92146172D01*
X154261817Y-92151641D01*
X154288652Y-92159782D01*
X154316560Y-92162531D01*
X154344057Y-92168000D01*
X154372097Y-92168000D01*
X154400000Y-92170748D01*
X154427903Y-92168000D01*
X154455943Y-92168000D01*
X154483440Y-92162530D01*
X154511347Y-92159782D01*
X154538180Y-92151642D01*
X154565679Y-92146172D01*
X154591588Y-92135440D01*
X154618415Y-92127302D01*
X154643135Y-92114089D01*
X154669049Y-92103355D01*
X154692371Y-92087771D01*
X154717090Y-92074559D01*
X154738760Y-92056776D01*
X154762079Y-92041194D01*
X154781908Y-92021365D01*
X154803580Y-92003580D01*
X154821367Y-91981906D01*
X154841194Y-91962079D01*
X154856776Y-91938760D01*
X154874559Y-91917090D01*
X154887771Y-91892371D01*
X154903355Y-91869049D01*
X154914089Y-91843135D01*
X154927302Y-91818415D01*
X154935440Y-91791588D01*
X154946172Y-91765679D01*
X154951642Y-91738180D01*
X154959782Y-91711347D01*
X154962530Y-91683440D01*
X154968000Y-91655943D01*
X154968000Y-91627903D01*
X154970748Y-91600000D01*
X154968000Y-91572097D01*
X154968000Y-91544057D01*
X154962531Y-91516560D01*
X154959782Y-91488652D01*
X154951641Y-91461817D01*
X154946172Y-91434321D01*
X154935441Y-91408415D01*
X154927302Y-91381584D01*
X154914088Y-91356862D01*
X154903355Y-91330951D01*
X154887772Y-91307630D01*
X154874559Y-91282910D01*
X154856776Y-91261241D01*
X154841194Y-91237921D01*
X154762079Y-91158806D01*
X154762078Y-91158806D01*
X154521369Y-90918097D01*
X154521365Y-90918092D01*
X153103273Y-89500000D01*
X153573597Y-89500000D01*
X153578771Y-89552537D01*
X153594096Y-89603055D01*
X153618982Y-89649613D01*
X153652472Y-89690421D01*
X154359579Y-90397528D01*
X154400387Y-90431018D01*
X154446945Y-90455904D01*
X154497463Y-90471229D01*
X154550000Y-90476403D01*
X154602537Y-90471229D01*
X154653055Y-90455904D01*
X154680026Y-90441488D01*
X154680026Y-90473667D01*
X154709540Y-90622043D01*
X154767433Y-90761810D01*
X154851481Y-90887597D01*
X154958455Y-90994571D01*
X155084242Y-91078619D01*
X155224009Y-91136512D01*
X155372385Y-91166026D01*
X155523667Y-91166026D01*
X155591555Y-91152522D01*
X155578051Y-91220410D01*
X155578051Y-91371692D01*
X155607565Y-91520068D01*
X155665458Y-91659835D01*
X155749506Y-91785622D01*
X155856480Y-91892596D01*
X155982267Y-91976644D01*
X156122034Y-92034537D01*
X156270410Y-92064051D01*
X156421692Y-92064051D01*
X156497627Y-92048946D01*
X156482222Y-92179155D01*
X156493950Y-92328072D01*
X156534505Y-92471841D01*
X156602328Y-92604934D01*
X156618909Y-92629747D01*
X156741085Y-92675856D01*
X157222864Y-92194077D01*
X157208721Y-92179935D01*
X157229935Y-92158721D01*
X157244077Y-92172864D01*
X157725856Y-91691085D01*
X157679747Y-91568909D01*
X157654934Y-91552328D01*
X157521841Y-91484505D01*
X157378072Y-91443950D01*
X157229155Y-91432222D01*
X157098946Y-91447627D01*
X157114051Y-91371692D01*
X157114051Y-91220410D01*
X157084537Y-91072034D01*
X157026644Y-90932267D01*
X156942596Y-90806480D01*
X156835622Y-90699506D01*
X156709835Y-90615458D01*
X156570068Y-90557565D01*
X156421692Y-90528051D01*
X156270410Y-90528051D01*
X156202522Y-90541555D01*
X156216026Y-90473667D01*
X156216026Y-90322385D01*
X156186512Y-90174009D01*
X156128619Y-90034242D01*
X156044571Y-89908455D01*
X155937597Y-89801481D01*
X155811810Y-89717433D01*
X155672043Y-89659540D01*
X155523667Y-89630026D01*
X155491488Y-89630026D01*
X155505904Y-89603055D01*
X155521229Y-89552537D01*
X155526403Y-89500000D01*
X155521229Y-89447463D01*
X155505904Y-89396945D01*
X155481018Y-89350387D01*
X155447528Y-89309579D01*
X154740421Y-88602472D01*
X154699613Y-88568982D01*
X154653055Y-88544096D01*
X154602537Y-88528771D01*
X154550000Y-88523597D01*
X154497463Y-88528771D01*
X154446945Y-88544096D01*
X154400387Y-88568982D01*
X154359579Y-88602472D01*
X153652472Y-89309579D01*
X153618982Y-89350387D01*
X153594096Y-89396945D01*
X153578771Y-89447463D01*
X153573597Y-89500000D01*
X153103273Y-89500000D01*
X152821374Y-89218102D01*
X152803580Y-89196420D01*
X152717091Y-89125440D01*
X152618416Y-89072698D01*
X152511347Y-89040219D01*
X152427900Y-89032000D01*
X152400000Y-89029252D01*
X152372100Y-89032000D01*
X150799559Y-89032000D01*
X150756615Y-88928325D01*
X150601432Y-88696078D01*
X150403922Y-88498568D01*
X150171675Y-88343385D01*
X149913615Y-88236493D01*
X149639661Y-88182000D01*
X149360339Y-88182000D01*
X149086385Y-88236493D01*
X148828325Y-88343385D01*
X148596078Y-88498568D01*
X148398568Y-88696078D01*
X148243385Y-88928325D01*
X148136493Y-89186385D01*
X148082000Y-89460339D01*
X147918000Y-89460339D01*
X147863507Y-89186385D01*
X147756615Y-88928325D01*
X147601432Y-88696078D01*
X147403922Y-88498568D01*
X147171675Y-88343385D01*
X146913615Y-88236493D01*
X146639661Y-88182000D01*
X146360339Y-88182000D01*
X146145897Y-88224655D01*
X146565302Y-88077899D01*
X147921750Y-87768298D01*
X149304334Y-87612519D01*
X150695666Y-87612519D01*
X152078250Y-87768298D01*
G37*
X152078250Y-87768298D02*
X153434698Y-88077899D01*
X154747953Y-88537427D01*
X156001500Y-89141103D01*
X157179575Y-89881336D01*
X158267362Y-90748818D01*
X159251182Y-91732638D01*
X160118664Y-92820425D01*
X160858897Y-93998500D01*
X161462573Y-95252047D01*
X161922101Y-96565302D01*
X162231702Y-97921750D01*
X162387481Y-99304334D01*
X162387481Y-100695666D01*
X162231702Y-102078250D01*
X161922101Y-103434698D01*
X161462573Y-104747953D01*
X160858897Y-106001500D01*
X160118664Y-107179575D01*
X159251182Y-108267362D01*
X158267362Y-109251182D01*
X157179575Y-110118664D01*
X156001500Y-110858897D01*
X154747953Y-111462573D01*
X153434698Y-111922101D01*
X152078250Y-112231702D01*
X150695666Y-112387481D01*
X149304334Y-112387481D01*
X147921750Y-112231702D01*
X146565302Y-111922101D01*
X146145897Y-111775345D01*
X146360339Y-111818000D01*
X146639661Y-111818000D01*
X146913615Y-111763507D01*
X147171675Y-111656615D01*
X147403922Y-111501432D01*
X147601432Y-111303922D01*
X147756615Y-111071675D01*
X147863507Y-110813615D01*
X147918000Y-110539661D01*
X147918000Y-110260339D01*
X148082000Y-110260339D01*
X148082000Y-110539661D01*
X148136493Y-110813615D01*
X148243385Y-111071675D01*
X148398568Y-111303922D01*
X148596078Y-111501432D01*
X148828325Y-111656615D01*
X149086385Y-111763507D01*
X149360339Y-111818000D01*
X149639661Y-111818000D01*
X149913615Y-111763507D01*
X150171675Y-111656615D01*
X150403922Y-111501432D01*
X150601432Y-111303922D01*
X150756615Y-111071675D01*
X150863507Y-110813615D01*
X150918000Y-110539661D01*
X150918000Y-110260339D01*
X150863507Y-109986385D01*
X150756615Y-109728325D01*
X150601432Y-109496078D01*
X150403922Y-109298568D01*
X150171675Y-109143385D01*
X149913615Y-109036493D01*
X149639661Y-108982000D01*
X149360339Y-108982000D01*
X149086385Y-109036493D01*
X148828325Y-109143385D01*
X148596078Y-109298568D01*
X148398568Y-109496078D01*
X148243385Y-109728325D01*
X148136493Y-109986385D01*
X148082000Y-110260339D01*
X147918000Y-110260339D01*
X147863507Y-109986385D01*
X147756615Y-109728325D01*
X147601432Y-109496078D01*
X147403922Y-109298568D01*
X147171675Y-109143385D01*
X146913615Y-109036493D01*
X146639661Y-108982000D01*
X146360339Y-108982000D01*
X146086385Y-109036493D01*
X145828325Y-109143385D01*
X145596078Y-109298568D01*
X145398568Y-109496078D01*
X145243385Y-109728325D01*
X145136493Y-109986385D01*
X145082000Y-110260339D01*
X145082000Y-110539661D01*
X145136493Y-110813615D01*
X145243385Y-111071675D01*
X145398568Y-111303922D01*
X145596078Y-111501432D01*
X145828325Y-111656615D01*
X145946625Y-111705616D01*
X145252047Y-111462573D01*
X143998500Y-110858897D01*
X142820425Y-110118664D01*
X141732638Y-109251182D01*
X140748818Y-108267362D01*
X140524519Y-107986100D01*
X140559208Y-107993000D01*
X140690792Y-107993000D01*
X140819848Y-107967329D01*
X140941417Y-107916974D01*
X141050825Y-107843869D01*
X141143869Y-107750825D01*
X141216974Y-107641417D01*
X141267329Y-107519848D01*
X141293000Y-107390792D01*
X141293000Y-107259208D01*
X141267329Y-107130152D01*
X141216974Y-107008583D01*
X141143869Y-106899175D01*
X141050825Y-106806131D01*
X140941417Y-106733026D01*
X140819848Y-106682671D01*
X140690792Y-106657000D01*
X140559208Y-106657000D01*
X140430152Y-106682671D01*
X140308583Y-106733026D01*
X140199175Y-106806131D01*
X140106131Y-106899175D01*
X140095453Y-106915155D01*
X139993251Y-106766874D01*
X139874745Y-106588232D01*
X139759418Y-106407502D01*
X139647253Y-106224648D01*
X139538477Y-106040046D01*
X139432922Y-105853416D01*
X139330656Y-105664864D01*
X139231810Y-105474641D01*
X139136331Y-105282641D01*
X139044299Y-105089028D01*
X138955692Y-104893758D01*
X138870577Y-104696974D01*
X138788973Y-104498718D01*
X138710897Y-104299041D01*
X138636361Y-104097966D01*
X138565415Y-103895625D01*
X138498089Y-103692108D01*
X138434361Y-103487347D01*
X138374311Y-103281609D01*
X138317874Y-103074661D01*
X138265154Y-102866878D01*
X138216114Y-102658129D01*
X138170795Y-102448580D01*
X138129209Y-102238292D01*
X138091339Y-102027170D01*
X138057251Y-101815586D01*
X138026906Y-101603314D01*
X138000335Y-101390550D01*
X137977545Y-101177368D01*
X137958545Y-100963837D01*
X137943333Y-100749923D01*
X137931921Y-100535814D01*
X137924312Y-100321535D01*
X137920510Y-100107226D01*
X137920510Y-99892735D01*
X137924313Y-99678468D01*
X137931922Y-99464179D01*
X137943334Y-99250075D01*
X137958545Y-99036174D01*
X137977547Y-98822628D01*
X138000335Y-98609458D01*
X138026905Y-98396697D01*
X138057252Y-98184409D01*
X138091336Y-97972855D01*
X138129211Y-97761704D01*
X138170792Y-97551435D01*
X138216123Y-97341834D01*
X138265160Y-97133099D01*
X138317875Y-96925338D01*
X138374317Y-96718369D01*
X138434361Y-96512652D01*
X138498073Y-96307943D01*
X138565430Y-96104336D01*
X138636367Y-95902018D01*
X138710899Y-95700954D01*
X138788954Y-95501329D01*
X138870590Y-95302996D01*
X138955680Y-95106270D01*
X139044296Y-94910979D01*
X139136347Y-94717326D01*
X139231820Y-94525339D01*
X139330678Y-94335093D01*
X139432898Y-94146626D01*
X139538418Y-93960059D01*
X139647290Y-93775292D01*
X139759406Y-93592518D01*
X139874731Y-93411789D01*
X139993276Y-93233089D01*
X140114935Y-93056579D01*
X140239693Y-92882275D01*
X140367613Y-92710093D01*
X140377652Y-92697069D01*
X156762298Y-92697069D01*
X156808407Y-92819245D01*
X156833220Y-92835826D01*
X156966313Y-92903649D01*
X157110082Y-92944204D01*
X157258999Y-92955932D01*
X157389206Y-92940527D01*
X157374102Y-93016461D01*
X157374102Y-93167743D01*
X157403616Y-93316119D01*
X157461509Y-93455886D01*
X157545557Y-93581673D01*
X157652531Y-93688647D01*
X157778318Y-93772695D01*
X157918085Y-93830588D01*
X158066461Y-93860102D01*
X158217743Y-93860102D01*
X158285632Y-93846598D01*
X158272128Y-93914487D01*
X158272128Y-94065769D01*
X158301642Y-94214145D01*
X158359535Y-94353912D01*
X158443583Y-94479699D01*
X158550557Y-94586673D01*
X158676344Y-94670721D01*
X158816111Y-94728614D01*
X158964487Y-94758128D01*
X159115769Y-94758128D01*
X159264145Y-94728614D01*
X159403912Y-94670721D01*
X159529699Y-94586673D01*
X159636673Y-94479699D01*
X159720721Y-94353912D01*
X159778614Y-94214145D01*
X159808128Y-94065769D01*
X159808128Y-93914487D01*
X159778614Y-93766111D01*
X159720721Y-93626344D01*
X159636673Y-93500557D01*
X159529699Y-93393583D01*
X159403912Y-93309535D01*
X159264145Y-93251642D01*
X159115769Y-93222128D01*
X158964487Y-93222128D01*
X158896598Y-93235632D01*
X158910102Y-93167743D01*
X158910102Y-93016461D01*
X158880588Y-92868085D01*
X158822695Y-92728318D01*
X158738647Y-92602531D01*
X158631673Y-92495557D01*
X158505886Y-92411509D01*
X158366119Y-92353616D01*
X158217743Y-92324102D01*
X158066461Y-92324102D01*
X157990527Y-92339206D01*
X158005932Y-92208999D01*
X157994204Y-92060082D01*
X157953649Y-91916313D01*
X157885826Y-91783220D01*
X157869245Y-91758407D01*
X157747069Y-91712298D01*
X157265290Y-92194077D01*
X157279433Y-92208219D01*
X157258219Y-92229433D01*
X157244077Y-92215290D01*
X156762298Y-92697069D01*
X140377652Y-92697069D01*
X140498480Y-92540326D01*
X140632394Y-92372839D01*
X140769172Y-92207860D01*
X140908996Y-92045174D01*
X141051577Y-91885114D01*
X141197004Y-91727583D01*
X141345231Y-91572628D01*
X141496210Y-91420303D01*
X141649757Y-91270792D01*
X141805989Y-91123975D01*
X141825260Y-91106500D01*
X144618104Y-91106500D01*
X144681131Y-91200825D01*
X144774175Y-91293869D01*
X144883583Y-91366974D01*
X145005152Y-91417329D01*
X145134208Y-91443000D01*
X145265792Y-91443000D01*
X145394848Y-91417329D01*
X145516417Y-91366974D01*
X145625825Y-91293869D01*
X145718869Y-91200825D01*
X145791974Y-91091417D01*
X145842329Y-90969848D01*
X145862072Y-90870594D01*
X146086385Y-90963507D01*
X146360339Y-91018000D01*
X146639661Y-91018000D01*
X146913615Y-90963507D01*
X147171675Y-90856615D01*
X147403922Y-90701432D01*
X147601432Y-90503922D01*
X147756615Y-90271675D01*
X147863507Y-90013615D01*
X147918000Y-89739661D01*
X147918000Y-89460339D01*
X148082000Y-89460339D01*
X148082000Y-89739661D01*
X148136493Y-90013615D01*
X148243385Y-90271675D01*
X148398568Y-90503922D01*
X148596078Y-90701432D01*
X148828325Y-90856615D01*
X149086385Y-90963507D01*
X149360339Y-91018000D01*
X149639661Y-91018000D01*
X149913615Y-90963507D01*
X150171675Y-90856615D01*
X150403922Y-90701432D01*
X150601432Y-90503922D01*
X150756615Y-90271675D01*
X150799559Y-90168000D01*
X152164728Y-90168000D01*
X153718092Y-91721365D01*
X153718097Y-91721369D01*
X153958806Y-91962078D01*
X153958806Y-91962079D01*
X154037921Y-92041194D01*
X154061241Y-92056776D01*
X154082910Y-92074559D01*
X154107630Y-92087772D01*
X154130951Y-92103355D01*
X154156862Y-92114088D01*
X154181584Y-92127302D01*
X154208415Y-92135441D01*
X154234321Y-92146172D01*
X154261817Y-92151641D01*
X154288652Y-92159782D01*
X154316560Y-92162531D01*
X154344057Y-92168000D01*
X154372097Y-92168000D01*
X154400000Y-92170748D01*
X154427903Y-92168000D01*
X154455943Y-92168000D01*
X154483440Y-92162530D01*
X154511347Y-92159782D01*
X154538180Y-92151642D01*
X154565679Y-92146172D01*
X154591588Y-92135440D01*
X154618415Y-92127302D01*
X154643135Y-92114089D01*
X154669049Y-92103355D01*
X154692371Y-92087771D01*
X154717090Y-92074559D01*
X154738760Y-92056776D01*
X154762079Y-92041194D01*
X154781908Y-92021365D01*
X154803580Y-92003580D01*
X154821367Y-91981906D01*
X154841194Y-91962079D01*
X154856776Y-91938760D01*
X154874559Y-91917090D01*
X154887771Y-91892371D01*
X154903355Y-91869049D01*
X154914089Y-91843135D01*
X154927302Y-91818415D01*
X154935440Y-91791588D01*
X154946172Y-91765679D01*
X154951642Y-91738180D01*
X154959782Y-91711347D01*
X154962530Y-91683440D01*
X154968000Y-91655943D01*
X154968000Y-91627903D01*
X154970748Y-91600000D01*
X154968000Y-91572097D01*
X154968000Y-91544057D01*
X154962531Y-91516560D01*
X154959782Y-91488652D01*
X154951641Y-91461817D01*
X154946172Y-91434321D01*
X154935441Y-91408415D01*
X154927302Y-91381584D01*
X154914088Y-91356862D01*
X154903355Y-91330951D01*
X154887772Y-91307630D01*
X154874559Y-91282910D01*
X154856776Y-91261241D01*
X154841194Y-91237921D01*
X154762079Y-91158806D01*
X154762078Y-91158806D01*
X154521369Y-90918097D01*
X154521365Y-90918092D01*
X153103273Y-89500000D01*
X153573597Y-89500000D01*
X153578771Y-89552537D01*
X153594096Y-89603055D01*
X153618982Y-89649613D01*
X153652472Y-89690421D01*
X154359579Y-90397528D01*
X154400387Y-90431018D01*
X154446945Y-90455904D01*
X154497463Y-90471229D01*
X154550000Y-90476403D01*
X154602537Y-90471229D01*
X154653055Y-90455904D01*
X154680026Y-90441488D01*
X154680026Y-90473667D01*
X154709540Y-90622043D01*
X154767433Y-90761810D01*
X154851481Y-90887597D01*
X154958455Y-90994571D01*
X155084242Y-91078619D01*
X155224009Y-91136512D01*
X155372385Y-91166026D01*
X155523667Y-91166026D01*
X155591555Y-91152522D01*
X155578051Y-91220410D01*
X155578051Y-91371692D01*
X155607565Y-91520068D01*
X155665458Y-91659835D01*
X155749506Y-91785622D01*
X155856480Y-91892596D01*
X155982267Y-91976644D01*
X156122034Y-92034537D01*
X156270410Y-92064051D01*
X156421692Y-92064051D01*
X156497627Y-92048946D01*
X156482222Y-92179155D01*
X156493950Y-92328072D01*
X156534505Y-92471841D01*
X156602328Y-92604934D01*
X156618909Y-92629747D01*
X156741085Y-92675856D01*
X157222864Y-92194077D01*
X157208721Y-92179935D01*
X157229935Y-92158721D01*
X157244077Y-92172864D01*
X157725856Y-91691085D01*
X157679747Y-91568909D01*
X157654934Y-91552328D01*
X157521841Y-91484505D01*
X157378072Y-91443950D01*
X157229155Y-91432222D01*
X157098946Y-91447627D01*
X157114051Y-91371692D01*
X157114051Y-91220410D01*
X157084537Y-91072034D01*
X157026644Y-90932267D01*
X156942596Y-90806480D01*
X156835622Y-90699506D01*
X156709835Y-90615458D01*
X156570068Y-90557565D01*
X156421692Y-90528051D01*
X156270410Y-90528051D01*
X156202522Y-90541555D01*
X156216026Y-90473667D01*
X156216026Y-90322385D01*
X156186512Y-90174009D01*
X156128619Y-90034242D01*
X156044571Y-89908455D01*
X155937597Y-89801481D01*
X155811810Y-89717433D01*
X155672043Y-89659540D01*
X155523667Y-89630026D01*
X155491488Y-89630026D01*
X155505904Y-89603055D01*
X155521229Y-89552537D01*
X155526403Y-89500000D01*
X155521229Y-89447463D01*
X155505904Y-89396945D01*
X155481018Y-89350387D01*
X155447528Y-89309579D01*
X154740421Y-88602472D01*
X154699613Y-88568982D01*
X154653055Y-88544096D01*
X154602537Y-88528771D01*
X154550000Y-88523597D01*
X154497463Y-88528771D01*
X154446945Y-88544096D01*
X154400387Y-88568982D01*
X154359579Y-88602472D01*
X153652472Y-89309579D01*
X153618982Y-89350387D01*
X153594096Y-89396945D01*
X153578771Y-89447463D01*
X153573597Y-89500000D01*
X153103273Y-89500000D01*
X152821374Y-89218102D01*
X152803580Y-89196420D01*
X152717091Y-89125440D01*
X152618416Y-89072698D01*
X152511347Y-89040219D01*
X152427900Y-89032000D01*
X152400000Y-89029252D01*
X152372100Y-89032000D01*
X150799559Y-89032000D01*
X150756615Y-88928325D01*
X150601432Y-88696078D01*
X150403922Y-88498568D01*
X150171675Y-88343385D01*
X149913615Y-88236493D01*
X149639661Y-88182000D01*
X149360339Y-88182000D01*
X149086385Y-88236493D01*
X148828325Y-88343385D01*
X148596078Y-88498568D01*
X148398568Y-88696078D01*
X148243385Y-88928325D01*
X148136493Y-89186385D01*
X148082000Y-89460339D01*
X147918000Y-89460339D01*
X147863507Y-89186385D01*
X147756615Y-88928325D01*
X147601432Y-88696078D01*
X147403922Y-88498568D01*
X147171675Y-88343385D01*
X146913615Y-88236493D01*
X146639661Y-88182000D01*
X146360339Y-88182000D01*
X146145897Y-88224655D01*
X146565302Y-88077899D01*
X147921750Y-87768298D01*
X149304334Y-87612519D01*
X150695666Y-87612519D01*
X152078250Y-87768298D01*
G36*
X145828325Y-88343385D02*
G01*
X145596078Y-88498568D01*
X145398568Y-88696078D01*
X145243385Y-88928325D01*
X145136493Y-89186385D01*
X145082000Y-89460339D01*
X145082000Y-89739661D01*
X145136493Y-90013615D01*
X145175174Y-90107000D01*
X145134208Y-90107000D01*
X145005152Y-90132671D01*
X144883583Y-90183026D01*
X144774175Y-90256131D01*
X144681131Y-90349175D01*
X144618104Y-90443500D01*
X142115494Y-90443500D01*
X142820425Y-89881336D01*
X143998500Y-89141103D01*
X145252047Y-88537427D01*
X145946625Y-88294384D01*
X145828325Y-88343385D01*
G37*
X145828325Y-88343385D02*
X145596078Y-88498568D01*
X145398568Y-88696078D01*
X145243385Y-88928325D01*
X145136493Y-89186385D01*
X145082000Y-89460339D01*
X145082000Y-89739661D01*
X145136493Y-90013615D01*
X145175174Y-90107000D01*
X145134208Y-90107000D01*
X145005152Y-90132671D01*
X144883583Y-90183026D01*
X144774175Y-90256131D01*
X144681131Y-90349175D01*
X144618104Y-90443500D01*
X142115494Y-90443500D01*
X142820425Y-89881336D01*
X143998500Y-89141103D01*
X145252047Y-88537427D01*
X145946625Y-88294384D01*
X145828325Y-88343385D01*
M02*
