G04 #@! TF.GenerationSoftware,KiCad,Pcbnew,5.99.0-unknown-a5c7d45~100~ubuntu19.10.1*
G04 #@! TF.CreationDate,2020-01-22T19:28:44+01:00*
G04 #@! TF.ProjectId,ilulissat,696c756c-6973-4736-9174-2e6b69636164,rev?*
G04 #@! TF.SameCoordinates,Original*
G04 #@! TF.FileFunction,Soldermask,Top*
G04 #@! TF.FilePolarity,Negative*
%FSLAX46Y46*%
G04 Gerber Fmt 4.6, Leading zero omitted, Abs format (unit mm)*
G04 Created by KiCad (PCBNEW 5.99.0-unknown-a5c7d45~100~ubuntu19.10.1) date 2020-01-22 19:28:44*
%MOMM*%
%LPD*%
G04 APERTURE LIST*
G04 APERTURE END LIST*
G36*
X114839022Y-125448001D02*
G01*
X114839610Y-125448001D01*
X114844203Y-125448915D01*
X114909163Y-125460369D01*
X114913040Y-125462607D01*
X114917061Y-125463407D01*
X114933815Y-125474602D01*
X114969786Y-125495369D01*
X114976026Y-125502805D01*
X114982721Y-125507279D01*
X114994222Y-125524492D01*
X115011137Y-125544651D01*
X115013444Y-125553259D01*
X115026593Y-125572939D01*
X115041999Y-125650390D01*
X115041999Y-125659828D01*
X115043715Y-125666232D01*
X115043715Y-125979290D01*
X115041999Y-125989022D01*
X115041999Y-125989610D01*
X115041085Y-125994203D01*
X115029631Y-126059163D01*
X115027393Y-126063040D01*
X115026593Y-126067061D01*
X115015398Y-126083815D01*
X114994631Y-126119786D01*
X114987194Y-126126026D01*
X114982721Y-126132721D01*
X114965511Y-126144220D01*
X114945350Y-126161137D01*
X114936740Y-126163444D01*
X114917061Y-126176593D01*
X114839610Y-126191999D01*
X114830172Y-126191999D01*
X114823768Y-126193715D01*
X114560710Y-126193715D01*
X114550978Y-126191999D01*
X114550390Y-126191999D01*
X114545797Y-126191085D01*
X114480837Y-126179631D01*
X114476960Y-126177393D01*
X114472939Y-126176593D01*
X114456185Y-126165398D01*
X114420214Y-126144631D01*
X114413974Y-126137194D01*
X114407279Y-126132721D01*
X114395780Y-126115511D01*
X114378863Y-126095350D01*
X114376556Y-126086740D01*
X114363407Y-126067061D01*
X114348001Y-125989610D01*
X114348001Y-125980172D01*
X114346285Y-125973768D01*
X114346285Y-125660710D01*
X114348001Y-125650978D01*
X114348001Y-125650390D01*
X114348915Y-125645797D01*
X114360369Y-125580837D01*
X114362607Y-125576960D01*
X114363407Y-125572939D01*
X114374602Y-125556185D01*
X114395369Y-125520214D01*
X114402805Y-125513974D01*
X114407279Y-125507279D01*
X114424492Y-125495778D01*
X114444651Y-125478863D01*
X114453259Y-125476556D01*
X114472939Y-125463407D01*
X114550390Y-125448001D01*
X114559828Y-125448001D01*
X114566232Y-125446285D01*
X114829290Y-125446285D01*
X114839022Y-125448001D01*
G37*
G36*
X113869022Y-125448001D02*
G01*
X113869610Y-125448001D01*
X113874203Y-125448915D01*
X113939163Y-125460369D01*
X113943040Y-125462607D01*
X113947061Y-125463407D01*
X113963815Y-125474602D01*
X113999786Y-125495369D01*
X114006026Y-125502805D01*
X114012721Y-125507279D01*
X114024222Y-125524492D01*
X114041137Y-125544651D01*
X114043444Y-125553259D01*
X114056593Y-125572939D01*
X114071999Y-125650390D01*
X114071999Y-125659828D01*
X114073715Y-125666232D01*
X114073715Y-125979290D01*
X114071999Y-125989022D01*
X114071999Y-125989610D01*
X114071085Y-125994203D01*
X114059631Y-126059163D01*
X114057393Y-126063040D01*
X114056593Y-126067061D01*
X114045398Y-126083815D01*
X114024631Y-126119786D01*
X114017194Y-126126026D01*
X114012721Y-126132721D01*
X113995511Y-126144220D01*
X113975350Y-126161137D01*
X113966740Y-126163444D01*
X113947061Y-126176593D01*
X113869610Y-126191999D01*
X113860172Y-126191999D01*
X113853768Y-126193715D01*
X113590710Y-126193715D01*
X113580978Y-126191999D01*
X113580390Y-126191999D01*
X113575797Y-126191085D01*
X113510837Y-126179631D01*
X113506960Y-126177393D01*
X113502939Y-126176593D01*
X113486185Y-126165398D01*
X113450214Y-126144631D01*
X113443974Y-126137194D01*
X113437279Y-126132721D01*
X113425780Y-126115511D01*
X113408863Y-126095350D01*
X113406556Y-126086740D01*
X113393407Y-126067061D01*
X113378001Y-125989610D01*
X113378001Y-125980172D01*
X113376285Y-125973768D01*
X113376285Y-125660710D01*
X113378001Y-125650978D01*
X113378001Y-125650390D01*
X113378915Y-125645797D01*
X113390369Y-125580837D01*
X113392607Y-125576960D01*
X113393407Y-125572939D01*
X113404602Y-125556185D01*
X113425369Y-125520214D01*
X113432805Y-125513974D01*
X113437279Y-125507279D01*
X113454492Y-125495778D01*
X113474651Y-125478863D01*
X113483259Y-125476556D01*
X113502939Y-125463407D01*
X113580390Y-125448001D01*
X113589828Y-125448001D01*
X113596232Y-125446285D01*
X113859290Y-125446285D01*
X113869022Y-125448001D01*
G37*
G36*
X108049022Y-124748001D02*
G01*
X108049610Y-124748001D01*
X108054203Y-124748915D01*
X108119163Y-124760369D01*
X108123040Y-124762607D01*
X108127061Y-124763407D01*
X108143815Y-124774602D01*
X108179786Y-124795369D01*
X108186026Y-124802805D01*
X108192721Y-124807279D01*
X108204222Y-124824492D01*
X108221137Y-124844651D01*
X108223444Y-124853259D01*
X108236593Y-124872939D01*
X108251999Y-124950390D01*
X108251999Y-124959828D01*
X108253715Y-124966232D01*
X108253715Y-125279290D01*
X108251999Y-125289022D01*
X108251999Y-125289610D01*
X108251085Y-125294203D01*
X108239631Y-125359163D01*
X108237393Y-125363040D01*
X108236593Y-125367061D01*
X108225398Y-125383815D01*
X108204631Y-125419786D01*
X108197194Y-125426026D01*
X108192721Y-125432721D01*
X108175511Y-125444220D01*
X108155350Y-125461137D01*
X108146740Y-125463444D01*
X108127061Y-125476593D01*
X108049610Y-125491999D01*
X108040172Y-125491999D01*
X108033768Y-125493715D01*
X107770710Y-125493715D01*
X107760978Y-125491999D01*
X107760390Y-125491999D01*
X107755797Y-125491085D01*
X107690837Y-125479631D01*
X107686960Y-125477393D01*
X107682939Y-125476593D01*
X107666185Y-125465398D01*
X107630214Y-125444631D01*
X107623974Y-125437194D01*
X107617279Y-125432721D01*
X107605780Y-125415511D01*
X107588863Y-125395350D01*
X107586556Y-125386740D01*
X107573407Y-125367061D01*
X107558001Y-125289610D01*
X107558001Y-125280172D01*
X107556285Y-125273768D01*
X107556285Y-124960710D01*
X107558001Y-124950978D01*
X107558001Y-124950390D01*
X107558915Y-124945797D01*
X107570369Y-124880837D01*
X107572607Y-124876960D01*
X107573407Y-124872939D01*
X107584602Y-124856185D01*
X107605369Y-124820214D01*
X107612805Y-124813974D01*
X107617279Y-124807279D01*
X107634492Y-124795778D01*
X107654651Y-124778863D01*
X107663259Y-124776556D01*
X107682939Y-124763407D01*
X107760390Y-124748001D01*
X107769828Y-124748001D01*
X107776232Y-124746285D01*
X108039290Y-124746285D01*
X108049022Y-124748001D01*
G37*
G36*
X109019022Y-124748001D02*
G01*
X109019610Y-124748001D01*
X109024203Y-124748915D01*
X109089163Y-124760369D01*
X109093040Y-124762607D01*
X109097061Y-124763407D01*
X109113815Y-124774602D01*
X109149786Y-124795369D01*
X109156026Y-124802805D01*
X109162721Y-124807279D01*
X109174222Y-124824492D01*
X109191137Y-124844651D01*
X109193444Y-124853259D01*
X109206593Y-124872939D01*
X109221999Y-124950390D01*
X109221999Y-124959828D01*
X109223715Y-124966232D01*
X109223715Y-125279290D01*
X109221999Y-125289022D01*
X109221999Y-125289610D01*
X109221085Y-125294203D01*
X109209631Y-125359163D01*
X109207393Y-125363040D01*
X109206593Y-125367061D01*
X109195398Y-125383815D01*
X109174631Y-125419786D01*
X109167194Y-125426026D01*
X109162721Y-125432721D01*
X109145511Y-125444220D01*
X109125350Y-125461137D01*
X109116740Y-125463444D01*
X109097061Y-125476593D01*
X109019610Y-125491999D01*
X109010172Y-125491999D01*
X109003768Y-125493715D01*
X108740710Y-125493715D01*
X108730978Y-125491999D01*
X108730390Y-125491999D01*
X108725797Y-125491085D01*
X108660837Y-125479631D01*
X108656960Y-125477393D01*
X108652939Y-125476593D01*
X108636185Y-125465398D01*
X108600214Y-125444631D01*
X108593974Y-125437194D01*
X108587279Y-125432721D01*
X108575780Y-125415511D01*
X108558863Y-125395350D01*
X108556556Y-125386740D01*
X108543407Y-125367061D01*
X108528001Y-125289610D01*
X108528001Y-125280172D01*
X108526285Y-125273768D01*
X108526285Y-124960710D01*
X108528001Y-124950978D01*
X108528001Y-124950390D01*
X108528915Y-124945797D01*
X108540369Y-124880837D01*
X108542607Y-124876960D01*
X108543407Y-124872939D01*
X108554602Y-124856185D01*
X108575369Y-124820214D01*
X108582805Y-124813974D01*
X108587279Y-124807279D01*
X108604492Y-124795778D01*
X108624651Y-124778863D01*
X108633259Y-124776556D01*
X108652939Y-124763407D01*
X108730390Y-124748001D01*
X108739828Y-124748001D01*
X108746232Y-124746285D01*
X109009290Y-124746285D01*
X109019022Y-124748001D01*
G37*
G36*
X136119022Y-122798001D02*
G01*
X136119610Y-122798001D01*
X136124203Y-122798915D01*
X136189163Y-122810369D01*
X136193040Y-122812607D01*
X136197061Y-122813407D01*
X136213815Y-122824602D01*
X136249786Y-122845369D01*
X136256026Y-122852805D01*
X136262721Y-122857279D01*
X136274222Y-122874492D01*
X136291137Y-122894651D01*
X136293444Y-122903259D01*
X136306593Y-122922939D01*
X136321999Y-123000390D01*
X136321999Y-123009828D01*
X136323715Y-123016232D01*
X136323715Y-123329290D01*
X136321999Y-123339022D01*
X136321999Y-123339610D01*
X136321085Y-123344203D01*
X136309631Y-123409163D01*
X136307393Y-123413040D01*
X136306593Y-123417061D01*
X136295398Y-123433815D01*
X136274631Y-123469786D01*
X136267194Y-123476026D01*
X136262721Y-123482721D01*
X136245511Y-123494220D01*
X136225350Y-123511137D01*
X136216740Y-123513444D01*
X136197061Y-123526593D01*
X136119610Y-123541999D01*
X136110172Y-123541999D01*
X136103768Y-123543715D01*
X135840710Y-123543715D01*
X135830978Y-123541999D01*
X135830390Y-123541999D01*
X135825797Y-123541085D01*
X135760837Y-123529631D01*
X135756960Y-123527393D01*
X135752939Y-123526593D01*
X135736185Y-123515398D01*
X135700214Y-123494631D01*
X135693974Y-123487194D01*
X135687279Y-123482721D01*
X135675780Y-123465511D01*
X135658863Y-123445350D01*
X135656556Y-123436740D01*
X135643407Y-123417061D01*
X135628001Y-123339610D01*
X135628001Y-123330172D01*
X135626285Y-123323768D01*
X135626285Y-123010710D01*
X135628001Y-123000978D01*
X135628001Y-123000390D01*
X135628915Y-122995797D01*
X135640369Y-122930837D01*
X135642607Y-122926960D01*
X135643407Y-122922939D01*
X135654602Y-122906185D01*
X135675369Y-122870214D01*
X135682805Y-122863974D01*
X135687279Y-122857279D01*
X135704492Y-122845778D01*
X135724651Y-122828863D01*
X135733259Y-122826556D01*
X135752939Y-122813407D01*
X135830390Y-122798001D01*
X135839828Y-122798001D01*
X135846232Y-122796285D01*
X136109290Y-122796285D01*
X136119022Y-122798001D01*
G37*
G36*
X135149022Y-122798001D02*
G01*
X135149610Y-122798001D01*
X135154203Y-122798915D01*
X135219163Y-122810369D01*
X135223040Y-122812607D01*
X135227061Y-122813407D01*
X135243815Y-122824602D01*
X135279786Y-122845369D01*
X135286026Y-122852805D01*
X135292721Y-122857279D01*
X135304222Y-122874492D01*
X135321137Y-122894651D01*
X135323444Y-122903259D01*
X135336593Y-122922939D01*
X135351999Y-123000390D01*
X135351999Y-123009828D01*
X135353715Y-123016232D01*
X135353715Y-123329290D01*
X135351999Y-123339022D01*
X135351999Y-123339610D01*
X135351085Y-123344203D01*
X135339631Y-123409163D01*
X135337393Y-123413040D01*
X135336593Y-123417061D01*
X135325398Y-123433815D01*
X135304631Y-123469786D01*
X135297194Y-123476026D01*
X135292721Y-123482721D01*
X135275511Y-123494220D01*
X135255350Y-123511137D01*
X135246740Y-123513444D01*
X135227061Y-123526593D01*
X135149610Y-123541999D01*
X135140172Y-123541999D01*
X135133768Y-123543715D01*
X134870710Y-123543715D01*
X134860978Y-123541999D01*
X134860390Y-123541999D01*
X134855797Y-123541085D01*
X134790837Y-123529631D01*
X134786960Y-123527393D01*
X134782939Y-123526593D01*
X134766185Y-123515398D01*
X134730214Y-123494631D01*
X134723974Y-123487194D01*
X134717279Y-123482721D01*
X134705780Y-123465511D01*
X134688863Y-123445350D01*
X134686556Y-123436740D01*
X134673407Y-123417061D01*
X134658001Y-123339610D01*
X134658001Y-123330172D01*
X134656285Y-123323768D01*
X134656285Y-123010710D01*
X134658001Y-123000978D01*
X134658001Y-123000390D01*
X134658915Y-122995797D01*
X134670369Y-122930837D01*
X134672607Y-122926960D01*
X134673407Y-122922939D01*
X134684602Y-122906185D01*
X134705369Y-122870214D01*
X134712805Y-122863974D01*
X134717279Y-122857279D01*
X134734492Y-122845778D01*
X134754651Y-122828863D01*
X134763259Y-122826556D01*
X134782939Y-122813407D01*
X134860390Y-122798001D01*
X134869828Y-122798001D01*
X134876232Y-122796285D01*
X135139290Y-122796285D01*
X135149022Y-122798001D01*
G37*
G36*
X136119022Y-120808001D02*
G01*
X136119610Y-120808001D01*
X136124203Y-120808915D01*
X136189163Y-120820369D01*
X136193040Y-120822607D01*
X136197061Y-120823407D01*
X136213815Y-120834602D01*
X136249786Y-120855369D01*
X136256026Y-120862805D01*
X136262721Y-120867279D01*
X136274222Y-120884492D01*
X136291137Y-120904651D01*
X136293444Y-120913259D01*
X136306593Y-120932939D01*
X136321999Y-121010390D01*
X136321999Y-121019828D01*
X136323715Y-121026232D01*
X136323715Y-121339290D01*
X136321999Y-121349022D01*
X136321999Y-121349610D01*
X136321085Y-121354203D01*
X136309631Y-121419163D01*
X136307393Y-121423040D01*
X136306593Y-121427061D01*
X136295398Y-121443815D01*
X136274631Y-121479786D01*
X136267194Y-121486026D01*
X136262721Y-121492721D01*
X136245511Y-121504220D01*
X136225350Y-121521137D01*
X136216740Y-121523444D01*
X136197061Y-121536593D01*
X136119610Y-121551999D01*
X136110172Y-121551999D01*
X136103768Y-121553715D01*
X135840710Y-121553715D01*
X135830978Y-121551999D01*
X135830390Y-121551999D01*
X135825797Y-121551085D01*
X135760837Y-121539631D01*
X135756960Y-121537393D01*
X135752939Y-121536593D01*
X135736185Y-121525398D01*
X135700214Y-121504631D01*
X135693974Y-121497194D01*
X135687279Y-121492721D01*
X135675780Y-121475511D01*
X135658863Y-121455350D01*
X135656556Y-121446740D01*
X135643407Y-121427061D01*
X135628001Y-121349610D01*
X135628001Y-121340172D01*
X135626285Y-121333768D01*
X135626285Y-121020710D01*
X135628001Y-121010978D01*
X135628001Y-121010390D01*
X135628915Y-121005797D01*
X135640369Y-120940837D01*
X135642607Y-120936960D01*
X135643407Y-120932939D01*
X135654602Y-120916185D01*
X135675369Y-120880214D01*
X135682805Y-120873974D01*
X135687279Y-120867279D01*
X135704492Y-120855778D01*
X135724651Y-120838863D01*
X135733259Y-120836556D01*
X135752939Y-120823407D01*
X135830390Y-120808001D01*
X135839828Y-120808001D01*
X135846232Y-120806285D01*
X136109290Y-120806285D01*
X136119022Y-120808001D01*
G37*
G36*
X135149022Y-120808001D02*
G01*
X135149610Y-120808001D01*
X135154203Y-120808915D01*
X135219163Y-120820369D01*
X135223040Y-120822607D01*
X135227061Y-120823407D01*
X135243815Y-120834602D01*
X135279786Y-120855369D01*
X135286026Y-120862805D01*
X135292721Y-120867279D01*
X135304222Y-120884492D01*
X135321137Y-120904651D01*
X135323444Y-120913259D01*
X135336593Y-120932939D01*
X135351999Y-121010390D01*
X135351999Y-121019828D01*
X135353715Y-121026232D01*
X135353715Y-121339290D01*
X135351999Y-121349022D01*
X135351999Y-121349610D01*
X135351085Y-121354203D01*
X135339631Y-121419163D01*
X135337393Y-121423040D01*
X135336593Y-121427061D01*
X135325398Y-121443815D01*
X135304631Y-121479786D01*
X135297194Y-121486026D01*
X135292721Y-121492721D01*
X135275511Y-121504220D01*
X135255350Y-121521137D01*
X135246740Y-121523444D01*
X135227061Y-121536593D01*
X135149610Y-121551999D01*
X135140172Y-121551999D01*
X135133768Y-121553715D01*
X134870710Y-121553715D01*
X134860978Y-121551999D01*
X134860390Y-121551999D01*
X134855797Y-121551085D01*
X134790837Y-121539631D01*
X134786960Y-121537393D01*
X134782939Y-121536593D01*
X134766185Y-121525398D01*
X134730214Y-121504631D01*
X134723974Y-121497194D01*
X134717279Y-121492721D01*
X134705780Y-121475511D01*
X134688863Y-121455350D01*
X134686556Y-121446740D01*
X134673407Y-121427061D01*
X134658001Y-121349610D01*
X134658001Y-121340172D01*
X134656285Y-121333768D01*
X134656285Y-121020710D01*
X134658001Y-121010978D01*
X134658001Y-121010390D01*
X134658915Y-121005797D01*
X134670369Y-120940837D01*
X134672607Y-120936960D01*
X134673407Y-120932939D01*
X134684602Y-120916185D01*
X134705369Y-120880214D01*
X134712805Y-120873974D01*
X134717279Y-120867279D01*
X134734492Y-120855778D01*
X134754651Y-120838863D01*
X134763259Y-120836556D01*
X134782939Y-120823407D01*
X134860390Y-120808001D01*
X134869828Y-120808001D01*
X134876232Y-120806285D01*
X135139290Y-120806285D01*
X135149022Y-120808001D01*
G37*
G36*
X124529022Y-118338001D02*
G01*
X124529610Y-118338001D01*
X124534203Y-118338915D01*
X124599163Y-118350369D01*
X124603040Y-118352607D01*
X124607061Y-118353407D01*
X124623815Y-118364602D01*
X124659786Y-118385369D01*
X124666026Y-118392805D01*
X124672721Y-118397279D01*
X124684222Y-118414492D01*
X124701137Y-118434651D01*
X124703444Y-118443259D01*
X124716593Y-118462939D01*
X124731999Y-118540390D01*
X124731999Y-118549828D01*
X124733715Y-118556232D01*
X124733715Y-118869290D01*
X124731999Y-118879022D01*
X124731999Y-118879610D01*
X124731085Y-118884203D01*
X124719631Y-118949163D01*
X124717393Y-118953040D01*
X124716593Y-118957061D01*
X124705398Y-118973815D01*
X124684631Y-119009786D01*
X124677194Y-119016026D01*
X124672721Y-119022721D01*
X124655511Y-119034220D01*
X124635350Y-119051137D01*
X124626740Y-119053444D01*
X124607061Y-119066593D01*
X124529610Y-119081999D01*
X124520172Y-119081999D01*
X124513768Y-119083715D01*
X124250710Y-119083715D01*
X124240978Y-119081999D01*
X124240390Y-119081999D01*
X124235797Y-119081085D01*
X124170837Y-119069631D01*
X124166960Y-119067393D01*
X124162939Y-119066593D01*
X124146185Y-119055398D01*
X124110214Y-119034631D01*
X124103974Y-119027194D01*
X124097279Y-119022721D01*
X124085780Y-119005511D01*
X124068863Y-118985350D01*
X124066556Y-118976740D01*
X124053407Y-118957061D01*
X124038001Y-118879610D01*
X124038001Y-118870172D01*
X124036285Y-118863768D01*
X124036285Y-118550710D01*
X124038001Y-118540978D01*
X124038001Y-118540390D01*
X124038915Y-118535797D01*
X124050369Y-118470837D01*
X124052607Y-118466960D01*
X124053407Y-118462939D01*
X124064602Y-118446185D01*
X124085369Y-118410214D01*
X124092805Y-118403974D01*
X124097279Y-118397279D01*
X124114492Y-118385778D01*
X124134651Y-118368863D01*
X124143259Y-118366556D01*
X124162939Y-118353407D01*
X124240390Y-118338001D01*
X124249828Y-118338001D01*
X124256232Y-118336285D01*
X124519290Y-118336285D01*
X124529022Y-118338001D01*
G37*
G36*
X125499022Y-118338001D02*
G01*
X125499610Y-118338001D01*
X125504203Y-118338915D01*
X125569163Y-118350369D01*
X125573040Y-118352607D01*
X125577061Y-118353407D01*
X125593815Y-118364602D01*
X125629786Y-118385369D01*
X125636026Y-118392805D01*
X125642721Y-118397279D01*
X125654222Y-118414492D01*
X125671137Y-118434651D01*
X125673444Y-118443259D01*
X125686593Y-118462939D01*
X125701999Y-118540390D01*
X125701999Y-118549828D01*
X125703715Y-118556232D01*
X125703715Y-118869290D01*
X125701999Y-118879022D01*
X125701999Y-118879610D01*
X125701085Y-118884203D01*
X125689631Y-118949163D01*
X125687393Y-118953040D01*
X125686593Y-118957061D01*
X125675398Y-118973815D01*
X125654631Y-119009786D01*
X125647194Y-119016026D01*
X125642721Y-119022721D01*
X125625511Y-119034220D01*
X125605350Y-119051137D01*
X125596740Y-119053444D01*
X125577061Y-119066593D01*
X125499610Y-119081999D01*
X125490172Y-119081999D01*
X125483768Y-119083715D01*
X125220710Y-119083715D01*
X125210978Y-119081999D01*
X125210390Y-119081999D01*
X125205797Y-119081085D01*
X125140837Y-119069631D01*
X125136960Y-119067393D01*
X125132939Y-119066593D01*
X125116185Y-119055398D01*
X125080214Y-119034631D01*
X125073974Y-119027194D01*
X125067279Y-119022721D01*
X125055780Y-119005511D01*
X125038863Y-118985350D01*
X125036556Y-118976740D01*
X125023407Y-118957061D01*
X125008001Y-118879610D01*
X125008001Y-118870172D01*
X125006285Y-118863768D01*
X125006285Y-118550710D01*
X125008001Y-118540978D01*
X125008001Y-118540390D01*
X125008915Y-118535797D01*
X125020369Y-118470837D01*
X125022607Y-118466960D01*
X125023407Y-118462939D01*
X125034602Y-118446185D01*
X125055369Y-118410214D01*
X125062805Y-118403974D01*
X125067279Y-118397279D01*
X125084492Y-118385778D01*
X125104651Y-118368863D01*
X125113259Y-118366556D01*
X125132939Y-118353407D01*
X125210390Y-118338001D01*
X125219828Y-118338001D01*
X125226232Y-118336285D01*
X125489290Y-118336285D01*
X125499022Y-118338001D01*
G37*
G36*
X124529022Y-116348001D02*
G01*
X124529610Y-116348001D01*
X124534203Y-116348915D01*
X124599163Y-116360369D01*
X124603040Y-116362607D01*
X124607061Y-116363407D01*
X124623815Y-116374602D01*
X124659786Y-116395369D01*
X124666026Y-116402805D01*
X124672721Y-116407279D01*
X124684222Y-116424492D01*
X124701137Y-116444651D01*
X124703444Y-116453259D01*
X124716593Y-116472939D01*
X124731999Y-116550390D01*
X124731999Y-116559828D01*
X124733715Y-116566232D01*
X124733715Y-116879290D01*
X124731999Y-116889022D01*
X124731999Y-116889610D01*
X124731085Y-116894203D01*
X124719631Y-116959163D01*
X124717393Y-116963040D01*
X124716593Y-116967061D01*
X124705398Y-116983815D01*
X124684631Y-117019786D01*
X124677194Y-117026026D01*
X124672721Y-117032721D01*
X124655511Y-117044220D01*
X124635350Y-117061137D01*
X124626740Y-117063444D01*
X124607061Y-117076593D01*
X124529610Y-117091999D01*
X124520172Y-117091999D01*
X124513768Y-117093715D01*
X124250710Y-117093715D01*
X124240978Y-117091999D01*
X124240390Y-117091999D01*
X124235797Y-117091085D01*
X124170837Y-117079631D01*
X124166960Y-117077393D01*
X124162939Y-117076593D01*
X124146185Y-117065398D01*
X124110214Y-117044631D01*
X124103974Y-117037194D01*
X124097279Y-117032721D01*
X124085780Y-117015511D01*
X124068863Y-116995350D01*
X124066556Y-116986740D01*
X124053407Y-116967061D01*
X124038001Y-116889610D01*
X124038001Y-116880172D01*
X124036285Y-116873768D01*
X124036285Y-116560710D01*
X124038001Y-116550978D01*
X124038001Y-116550390D01*
X124038915Y-116545797D01*
X124050369Y-116480837D01*
X124052607Y-116476960D01*
X124053407Y-116472939D01*
X124064602Y-116456185D01*
X124085369Y-116420214D01*
X124092805Y-116413974D01*
X124097279Y-116407279D01*
X124114492Y-116395778D01*
X124134651Y-116378863D01*
X124143259Y-116376556D01*
X124162939Y-116363407D01*
X124240390Y-116348001D01*
X124249828Y-116348001D01*
X124256232Y-116346285D01*
X124519290Y-116346285D01*
X124529022Y-116348001D01*
G37*
G36*
X125499022Y-116348001D02*
G01*
X125499610Y-116348001D01*
X125504203Y-116348915D01*
X125569163Y-116360369D01*
X125573040Y-116362607D01*
X125577061Y-116363407D01*
X125593815Y-116374602D01*
X125629786Y-116395369D01*
X125636026Y-116402805D01*
X125642721Y-116407279D01*
X125654222Y-116424492D01*
X125671137Y-116444651D01*
X125673444Y-116453259D01*
X125686593Y-116472939D01*
X125701999Y-116550390D01*
X125701999Y-116559828D01*
X125703715Y-116566232D01*
X125703715Y-116879290D01*
X125701999Y-116889022D01*
X125701999Y-116889610D01*
X125701085Y-116894203D01*
X125689631Y-116959163D01*
X125687393Y-116963040D01*
X125686593Y-116967061D01*
X125675398Y-116983815D01*
X125654631Y-117019786D01*
X125647194Y-117026026D01*
X125642721Y-117032721D01*
X125625511Y-117044220D01*
X125605350Y-117061137D01*
X125596740Y-117063444D01*
X125577061Y-117076593D01*
X125499610Y-117091999D01*
X125490172Y-117091999D01*
X125483768Y-117093715D01*
X125220710Y-117093715D01*
X125210978Y-117091999D01*
X125210390Y-117091999D01*
X125205797Y-117091085D01*
X125140837Y-117079631D01*
X125136960Y-117077393D01*
X125132939Y-117076593D01*
X125116185Y-117065398D01*
X125080214Y-117044631D01*
X125073974Y-117037194D01*
X125067279Y-117032721D01*
X125055780Y-117015511D01*
X125038863Y-116995350D01*
X125036556Y-116986740D01*
X125023407Y-116967061D01*
X125008001Y-116889610D01*
X125008001Y-116880172D01*
X125006285Y-116873768D01*
X125006285Y-116560710D01*
X125008001Y-116550978D01*
X125008001Y-116550390D01*
X125008915Y-116545797D01*
X125020369Y-116480837D01*
X125022607Y-116476960D01*
X125023407Y-116472939D01*
X125034602Y-116456185D01*
X125055369Y-116420214D01*
X125062805Y-116413974D01*
X125067279Y-116407279D01*
X125084492Y-116395778D01*
X125104651Y-116378863D01*
X125113259Y-116376556D01*
X125132939Y-116363407D01*
X125210390Y-116348001D01*
X125219828Y-116348001D01*
X125226232Y-116346285D01*
X125489290Y-116346285D01*
X125499022Y-116348001D01*
G37*
G36*
X152019899Y-110351959D02*
G01*
X152036769Y-110363231D01*
X152048041Y-110380101D01*
X152054448Y-110412312D01*
X152054448Y-111187688D01*
X152051999Y-111200000D01*
X152048041Y-111219899D01*
X152036769Y-111236769D01*
X152019899Y-111248041D01*
X152000000Y-111251999D01*
X151987688Y-111254448D01*
X150412312Y-111254448D01*
X150380101Y-111248041D01*
X150363231Y-111236769D01*
X150351959Y-111219899D01*
X150345552Y-111187688D01*
X150345552Y-110412312D01*
X150351959Y-110380101D01*
X150363231Y-110363231D01*
X150380101Y-110351959D01*
X150412312Y-110345552D01*
X151987688Y-110345552D01*
X152019899Y-110351959D01*
G37*
G36*
X152019899Y-106951959D02*
G01*
X152036769Y-106963231D01*
X152048041Y-106980101D01*
X152054448Y-107012312D01*
X152054448Y-107787688D01*
X152051999Y-107800000D01*
X152048041Y-107819899D01*
X152036769Y-107836769D01*
X152019899Y-107848041D01*
X152000000Y-107851999D01*
X151987688Y-107854448D01*
X150412312Y-107854448D01*
X150380101Y-107848041D01*
X150363231Y-107836769D01*
X150351959Y-107819899D01*
X150345552Y-107787688D01*
X150345552Y-107012312D01*
X150351959Y-106980101D01*
X150363231Y-106963231D01*
X150380101Y-106951959D01*
X150412312Y-106945552D01*
X151987688Y-106945552D01*
X152019899Y-106951959D01*
G37*
G36*
X143602361Y-105012359D02*
G01*
X143648456Y-105012681D01*
X143693613Y-105021951D01*
X143745041Y-105027356D01*
X143788098Y-105041346D01*
X143826827Y-105049296D01*
X143875375Y-105069704D01*
X143930667Y-105087669D01*
X143964284Y-105107078D01*
X143994687Y-105119858D01*
X144043810Y-105152992D01*
X144099697Y-105185258D01*
X144123734Y-105206901D01*
X144145649Y-105221683D01*
X144192095Y-105268454D01*
X144244742Y-105315858D01*
X144259934Y-105336767D01*
X144273953Y-105350885D01*
X144314181Y-105411433D01*
X144359465Y-105473761D01*
X144367333Y-105491433D01*
X144374722Y-105502554D01*
X144405106Y-105576271D01*
X144438852Y-105652065D01*
X144441521Y-105664619D01*
X144444110Y-105670902D01*
X144461175Y-105757085D01*
X144479432Y-105842979D01*
X144479432Y-106038157D01*
X144476464Y-106052119D01*
X144476377Y-106058362D01*
X144457137Y-106143045D01*
X144438852Y-106229071D01*
X144436280Y-106234847D01*
X144436229Y-106235073D01*
X144362170Y-106401412D01*
X144362034Y-106401604D01*
X144359465Y-106407375D01*
X144307805Y-106478480D01*
X144257207Y-106550206D01*
X144252291Y-106554887D01*
X144244742Y-106565278D01*
X144183032Y-106620843D01*
X144125341Y-106675781D01*
X144114080Y-106682928D01*
X144099697Y-106695878D01*
X144032951Y-106734413D01*
X143971602Y-106773347D01*
X143953057Y-106780540D01*
X143930667Y-106793467D01*
X143863284Y-106815361D01*
X143801831Y-106839197D01*
X143775793Y-106843788D01*
X143745041Y-106853780D01*
X143680876Y-106860524D01*
X143622512Y-106870815D01*
X143589537Y-106870124D01*
X143550932Y-106874182D01*
X143493112Y-106868105D01*
X143440458Y-106867002D01*
X143401842Y-106858512D01*
X143356823Y-106853780D01*
X143307647Y-106837802D01*
X143262619Y-106827902D01*
X143220372Y-106809445D01*
X143171197Y-106793467D01*
X143131995Y-106770834D01*
X143095764Y-106755005D01*
X143052518Y-106724948D01*
X143002167Y-106695878D01*
X142973319Y-106669903D01*
X142946235Y-106651079D01*
X142905063Y-106608445D01*
X142857122Y-106565278D01*
X142838119Y-106539123D01*
X142819748Y-106520099D01*
X142784032Y-106464678D01*
X142742399Y-106407375D01*
X142731886Y-106383762D01*
X142721108Y-106367038D01*
X142694353Y-106299463D01*
X142663012Y-106229071D01*
X142658989Y-106210145D01*
X142654078Y-106197741D01*
X142639695Y-106119374D01*
X142622432Y-106038157D01*
X142622432Y-106025313D01*
X142621207Y-106018638D01*
X142622432Y-105930896D01*
X142622432Y-105842979D01*
X142623746Y-105836798D01*
X142623749Y-105836564D01*
X142661607Y-105658458D01*
X142661699Y-105658244D01*
X142663012Y-105652065D01*
X142698740Y-105571821D01*
X142733340Y-105491091D01*
X142737180Y-105485483D01*
X142742399Y-105473761D01*
X142791161Y-105406646D01*
X142836213Y-105340849D01*
X142845751Y-105331508D01*
X142857122Y-105315858D01*
X142914382Y-105264301D01*
X142966309Y-105213450D01*
X142982953Y-105202558D01*
X143002167Y-105185258D01*
X143063527Y-105149832D01*
X143118681Y-105113740D01*
X143143195Y-105103836D01*
X143171197Y-105087669D01*
X143232551Y-105067734D01*
X143287506Y-105045531D01*
X143319910Y-105039350D01*
X143356823Y-105027356D01*
X143414642Y-105021279D01*
X143466372Y-105011411D01*
X143505904Y-105011687D01*
X143550932Y-105006954D01*
X143602361Y-105012359D01*
G37*
G36*
X151553022Y-104532001D02*
G01*
X151553610Y-104532001D01*
X151558203Y-104532915D01*
X151623163Y-104544369D01*
X151627040Y-104546607D01*
X151631061Y-104547407D01*
X151647815Y-104558602D01*
X151683786Y-104579369D01*
X151690026Y-104586805D01*
X151696721Y-104591279D01*
X151708222Y-104608492D01*
X151725137Y-104628651D01*
X151727444Y-104637259D01*
X151740593Y-104656939D01*
X151755999Y-104734390D01*
X151755999Y-104743828D01*
X151757715Y-104750232D01*
X151757715Y-105013290D01*
X151755999Y-105023022D01*
X151755999Y-105023610D01*
X151755085Y-105028203D01*
X151743631Y-105093163D01*
X151741393Y-105097040D01*
X151740593Y-105101061D01*
X151729398Y-105117815D01*
X151708631Y-105153786D01*
X151701194Y-105160026D01*
X151696721Y-105166721D01*
X151679511Y-105178220D01*
X151659350Y-105195137D01*
X151650740Y-105197444D01*
X151631061Y-105210593D01*
X151553610Y-105225999D01*
X151544172Y-105225999D01*
X151537768Y-105227715D01*
X151224710Y-105227715D01*
X151214978Y-105225999D01*
X151214390Y-105225999D01*
X151209797Y-105225085D01*
X151144837Y-105213631D01*
X151140960Y-105211393D01*
X151136939Y-105210593D01*
X151120185Y-105199398D01*
X151084214Y-105178631D01*
X151077974Y-105171194D01*
X151071279Y-105166721D01*
X151059780Y-105149511D01*
X151042863Y-105129350D01*
X151040556Y-105120740D01*
X151027407Y-105101061D01*
X151012001Y-105023610D01*
X151012001Y-105014172D01*
X151010285Y-105007768D01*
X151010285Y-104744710D01*
X151012001Y-104734978D01*
X151012001Y-104734390D01*
X151012915Y-104729797D01*
X151024369Y-104664837D01*
X151026607Y-104660960D01*
X151027407Y-104656939D01*
X151038602Y-104640185D01*
X151059369Y-104604214D01*
X151066805Y-104597974D01*
X151071279Y-104591279D01*
X151088492Y-104579778D01*
X151108651Y-104562863D01*
X151117259Y-104560556D01*
X151136939Y-104547407D01*
X151214390Y-104532001D01*
X151223828Y-104532001D01*
X151230232Y-104530285D01*
X151543290Y-104530285D01*
X151553022Y-104532001D01*
G37*
G36*
X151553022Y-103562001D02*
G01*
X151553610Y-103562001D01*
X151558203Y-103562915D01*
X151623163Y-103574369D01*
X151627040Y-103576607D01*
X151631061Y-103577407D01*
X151647815Y-103588602D01*
X151683786Y-103609369D01*
X151690026Y-103616805D01*
X151696721Y-103621279D01*
X151708222Y-103638492D01*
X151725137Y-103658651D01*
X151727444Y-103667259D01*
X151740593Y-103686939D01*
X151755999Y-103764390D01*
X151755999Y-103773828D01*
X151757715Y-103780232D01*
X151757715Y-104043290D01*
X151755999Y-104053022D01*
X151755999Y-104053610D01*
X151755085Y-104058203D01*
X151743631Y-104123163D01*
X151741393Y-104127040D01*
X151740593Y-104131061D01*
X151729398Y-104147815D01*
X151708631Y-104183786D01*
X151701194Y-104190026D01*
X151696721Y-104196721D01*
X151679511Y-104208220D01*
X151659350Y-104225137D01*
X151650740Y-104227444D01*
X151631061Y-104240593D01*
X151553610Y-104255999D01*
X151544172Y-104255999D01*
X151537768Y-104257715D01*
X151224710Y-104257715D01*
X151214978Y-104255999D01*
X151214390Y-104255999D01*
X151209797Y-104255085D01*
X151144837Y-104243631D01*
X151140960Y-104241393D01*
X151136939Y-104240593D01*
X151120185Y-104229398D01*
X151084214Y-104208631D01*
X151077974Y-104201194D01*
X151071279Y-104196721D01*
X151059780Y-104179511D01*
X151042863Y-104159350D01*
X151040556Y-104150740D01*
X151027407Y-104131061D01*
X151012001Y-104053610D01*
X151012001Y-104044172D01*
X151010285Y-104037768D01*
X151010285Y-103774710D01*
X151012001Y-103764978D01*
X151012001Y-103764390D01*
X151012915Y-103759797D01*
X151024369Y-103694837D01*
X151026607Y-103690960D01*
X151027407Y-103686939D01*
X151038602Y-103670185D01*
X151059369Y-103634214D01*
X151066805Y-103627974D01*
X151071279Y-103621279D01*
X151088492Y-103609778D01*
X151108651Y-103592863D01*
X151117259Y-103590556D01*
X151136939Y-103577407D01*
X151214390Y-103562001D01*
X151223828Y-103562001D01*
X151230232Y-103560285D01*
X151543290Y-103560285D01*
X151553022Y-103562001D01*
G37*
G36*
X161129022Y-102928001D02*
G01*
X161129610Y-102928001D01*
X161134203Y-102928915D01*
X161199163Y-102940369D01*
X161203040Y-102942607D01*
X161207061Y-102943407D01*
X161223815Y-102954602D01*
X161259786Y-102975369D01*
X161266026Y-102982805D01*
X161272721Y-102987279D01*
X161284222Y-103004492D01*
X161301137Y-103024651D01*
X161303444Y-103033259D01*
X161316593Y-103052939D01*
X161331999Y-103130390D01*
X161331999Y-103139828D01*
X161333715Y-103146232D01*
X161333715Y-103459290D01*
X161331999Y-103469022D01*
X161331999Y-103469610D01*
X161331085Y-103474203D01*
X161319631Y-103539163D01*
X161317393Y-103543040D01*
X161316593Y-103547061D01*
X161305398Y-103563815D01*
X161284631Y-103599786D01*
X161277194Y-103606026D01*
X161272721Y-103612721D01*
X161255511Y-103624220D01*
X161235350Y-103641137D01*
X161226740Y-103643444D01*
X161207061Y-103656593D01*
X161129610Y-103671999D01*
X161120172Y-103671999D01*
X161113768Y-103673715D01*
X160850710Y-103673715D01*
X160840978Y-103671999D01*
X160840390Y-103671999D01*
X160835797Y-103671085D01*
X160770837Y-103659631D01*
X160766960Y-103657393D01*
X160762939Y-103656593D01*
X160746185Y-103645398D01*
X160710214Y-103624631D01*
X160703974Y-103617194D01*
X160697279Y-103612721D01*
X160685780Y-103595511D01*
X160668863Y-103575350D01*
X160666556Y-103566740D01*
X160653407Y-103547061D01*
X160638001Y-103469610D01*
X160638001Y-103460172D01*
X160636285Y-103453768D01*
X160636285Y-103140710D01*
X160638001Y-103130978D01*
X160638001Y-103130390D01*
X160638915Y-103125797D01*
X160650369Y-103060837D01*
X160652607Y-103056960D01*
X160653407Y-103052939D01*
X160664602Y-103036185D01*
X160685369Y-103000214D01*
X160692805Y-102993974D01*
X160697279Y-102987279D01*
X160714492Y-102975778D01*
X160734651Y-102958863D01*
X160743259Y-102956556D01*
X160762939Y-102943407D01*
X160840390Y-102928001D01*
X160849828Y-102928001D01*
X160856232Y-102926285D01*
X161119290Y-102926285D01*
X161129022Y-102928001D01*
G37*
G36*
X160159022Y-102928001D02*
G01*
X160159610Y-102928001D01*
X160164203Y-102928915D01*
X160229163Y-102940369D01*
X160233040Y-102942607D01*
X160237061Y-102943407D01*
X160253815Y-102954602D01*
X160289786Y-102975369D01*
X160296026Y-102982805D01*
X160302721Y-102987279D01*
X160314222Y-103004492D01*
X160331137Y-103024651D01*
X160333444Y-103033259D01*
X160346593Y-103052939D01*
X160361999Y-103130390D01*
X160361999Y-103139828D01*
X160363715Y-103146232D01*
X160363715Y-103459290D01*
X160361999Y-103469022D01*
X160361999Y-103469610D01*
X160361085Y-103474203D01*
X160349631Y-103539163D01*
X160347393Y-103543040D01*
X160346593Y-103547061D01*
X160335398Y-103563815D01*
X160314631Y-103599786D01*
X160307194Y-103606026D01*
X160302721Y-103612721D01*
X160285511Y-103624220D01*
X160265350Y-103641137D01*
X160256740Y-103643444D01*
X160237061Y-103656593D01*
X160159610Y-103671999D01*
X160150172Y-103671999D01*
X160143768Y-103673715D01*
X159880710Y-103673715D01*
X159870978Y-103671999D01*
X159870390Y-103671999D01*
X159865797Y-103671085D01*
X159800837Y-103659631D01*
X159796960Y-103657393D01*
X159792939Y-103656593D01*
X159776185Y-103645398D01*
X159740214Y-103624631D01*
X159733974Y-103617194D01*
X159727279Y-103612721D01*
X159715780Y-103595511D01*
X159698863Y-103575350D01*
X159696556Y-103566740D01*
X159683407Y-103547061D01*
X159668001Y-103469610D01*
X159668001Y-103460172D01*
X159666285Y-103453768D01*
X159666285Y-103140710D01*
X159668001Y-103130978D01*
X159668001Y-103130390D01*
X159668915Y-103125797D01*
X159680369Y-103060837D01*
X159682607Y-103056960D01*
X159683407Y-103052939D01*
X159694602Y-103036185D01*
X159715369Y-103000214D01*
X159722805Y-102993974D01*
X159727279Y-102987279D01*
X159744492Y-102975778D01*
X159764651Y-102958863D01*
X159773259Y-102956556D01*
X159792939Y-102943407D01*
X159870390Y-102928001D01*
X159879828Y-102928001D01*
X159886232Y-102926285D01*
X160149290Y-102926285D01*
X160159022Y-102928001D01*
G37*
G36*
X150759022Y-102028001D02*
G01*
X150759610Y-102028001D01*
X150764203Y-102028915D01*
X150829163Y-102040369D01*
X150833040Y-102042607D01*
X150837061Y-102043407D01*
X150853815Y-102054602D01*
X150889786Y-102075369D01*
X150896026Y-102082805D01*
X150902721Y-102087279D01*
X150914222Y-102104492D01*
X150931137Y-102124651D01*
X150933444Y-102133259D01*
X150946593Y-102152939D01*
X150961999Y-102230390D01*
X150961999Y-102239828D01*
X150963715Y-102246232D01*
X150963715Y-102559290D01*
X150961999Y-102569022D01*
X150961999Y-102569610D01*
X150961085Y-102574203D01*
X150949631Y-102639163D01*
X150947393Y-102643040D01*
X150946593Y-102647061D01*
X150935398Y-102663815D01*
X150914631Y-102699786D01*
X150907194Y-102706026D01*
X150902721Y-102712721D01*
X150885511Y-102724220D01*
X150865350Y-102741137D01*
X150856740Y-102743444D01*
X150837061Y-102756593D01*
X150759610Y-102771999D01*
X150750172Y-102771999D01*
X150743768Y-102773715D01*
X150480710Y-102773715D01*
X150470978Y-102771999D01*
X150470390Y-102771999D01*
X150465797Y-102771085D01*
X150400837Y-102759631D01*
X150396960Y-102757393D01*
X150392939Y-102756593D01*
X150376185Y-102745398D01*
X150340214Y-102724631D01*
X150333974Y-102717194D01*
X150327279Y-102712721D01*
X150315782Y-102695514D01*
X150298862Y-102675350D01*
X150296554Y-102666738D01*
X150283407Y-102647061D01*
X150277065Y-102615180D01*
X150250533Y-102571651D01*
X150187179Y-102540876D01*
X150117245Y-102549238D01*
X150058199Y-102601644D01*
X150057393Y-102603041D01*
X150056593Y-102607061D01*
X150045400Y-102623813D01*
X150024631Y-102659786D01*
X150017194Y-102666026D01*
X150012721Y-102672721D01*
X149995511Y-102684220D01*
X149975350Y-102701137D01*
X149966740Y-102703444D01*
X149947061Y-102716593D01*
X149869610Y-102731999D01*
X149860172Y-102731999D01*
X149853768Y-102733715D01*
X149540710Y-102733715D01*
X149530978Y-102731999D01*
X149530390Y-102731999D01*
X149525797Y-102731085D01*
X149460837Y-102719631D01*
X149456960Y-102717393D01*
X149452939Y-102716593D01*
X149436185Y-102705398D01*
X149400214Y-102684631D01*
X149393974Y-102677194D01*
X149387279Y-102672721D01*
X149375780Y-102655511D01*
X149358863Y-102635350D01*
X149356556Y-102626740D01*
X149343407Y-102607061D01*
X149328001Y-102529610D01*
X149328001Y-102520172D01*
X149326285Y-102513768D01*
X149326285Y-102250710D01*
X149328001Y-102240978D01*
X149328001Y-102240390D01*
X149328915Y-102235797D01*
X149340369Y-102170837D01*
X149342607Y-102166960D01*
X149343407Y-102162939D01*
X149354602Y-102146185D01*
X149375369Y-102110214D01*
X149382805Y-102103974D01*
X149387279Y-102097279D01*
X149404492Y-102085778D01*
X149424651Y-102068863D01*
X149433259Y-102066556D01*
X149452939Y-102053407D01*
X149530390Y-102038001D01*
X149539828Y-102038001D01*
X149546232Y-102036285D01*
X149859290Y-102036285D01*
X149869022Y-102038001D01*
X149869610Y-102038001D01*
X149874203Y-102038915D01*
X149939163Y-102050369D01*
X149943040Y-102052607D01*
X149947061Y-102053407D01*
X149963815Y-102064602D01*
X149999786Y-102085369D01*
X150006026Y-102092805D01*
X150012721Y-102097279D01*
X150024222Y-102114492D01*
X150041137Y-102134651D01*
X150043444Y-102143260D01*
X150056593Y-102162939D01*
X150057284Y-102166413D01*
X150080316Y-102204199D01*
X150143669Y-102234974D01*
X150213604Y-102226613D01*
X150272650Y-102174206D01*
X150282607Y-102156959D01*
X150283407Y-102152939D01*
X150294600Y-102136188D01*
X150315369Y-102100214D01*
X150322805Y-102093974D01*
X150327279Y-102087279D01*
X150344492Y-102075778D01*
X150364651Y-102058863D01*
X150373259Y-102056556D01*
X150392939Y-102043407D01*
X150470390Y-102028001D01*
X150479828Y-102028001D01*
X150486232Y-102026285D01*
X150749290Y-102026285D01*
X150759022Y-102028001D01*
G37*
G36*
X151729022Y-102028001D02*
G01*
X151729610Y-102028001D01*
X151734203Y-102028915D01*
X151799163Y-102040369D01*
X151803040Y-102042607D01*
X151807061Y-102043407D01*
X151823815Y-102054602D01*
X151859786Y-102075369D01*
X151866026Y-102082805D01*
X151872721Y-102087279D01*
X151884222Y-102104492D01*
X151901137Y-102124651D01*
X151903444Y-102133259D01*
X151916593Y-102152939D01*
X151931999Y-102230390D01*
X151931999Y-102239828D01*
X151933715Y-102246232D01*
X151933715Y-102559290D01*
X151931999Y-102569022D01*
X151931999Y-102569610D01*
X151931085Y-102574203D01*
X151919631Y-102639163D01*
X151917393Y-102643040D01*
X151916593Y-102647061D01*
X151905398Y-102663815D01*
X151884631Y-102699786D01*
X151877194Y-102706026D01*
X151872721Y-102712721D01*
X151855511Y-102724220D01*
X151835350Y-102741137D01*
X151826740Y-102743444D01*
X151807061Y-102756593D01*
X151729610Y-102771999D01*
X151720172Y-102771999D01*
X151713768Y-102773715D01*
X151450710Y-102773715D01*
X151440978Y-102771999D01*
X151440390Y-102771999D01*
X151435797Y-102771085D01*
X151370837Y-102759631D01*
X151366960Y-102757393D01*
X151362939Y-102756593D01*
X151346185Y-102745398D01*
X151310214Y-102724631D01*
X151303974Y-102717194D01*
X151297279Y-102712721D01*
X151285780Y-102695511D01*
X151268863Y-102675350D01*
X151266556Y-102666740D01*
X151253407Y-102647061D01*
X151238001Y-102569610D01*
X151238001Y-102560172D01*
X151236285Y-102553768D01*
X151236285Y-102240710D01*
X151238001Y-102230978D01*
X151238001Y-102230390D01*
X151238915Y-102225797D01*
X151250369Y-102160837D01*
X151252607Y-102156960D01*
X151253407Y-102152939D01*
X151264602Y-102136185D01*
X151285369Y-102100214D01*
X151292805Y-102093974D01*
X151297279Y-102087279D01*
X151314492Y-102075778D01*
X151334651Y-102058863D01*
X151343259Y-102056556D01*
X151362939Y-102043407D01*
X151440390Y-102028001D01*
X151449828Y-102028001D01*
X151456232Y-102026285D01*
X151719290Y-102026285D01*
X151729022Y-102028001D01*
G37*
G36*
X154855022Y-101420501D02*
G01*
X154855610Y-101420501D01*
X154860203Y-101421415D01*
X154925163Y-101432869D01*
X154929040Y-101435107D01*
X154933061Y-101435907D01*
X154949815Y-101447102D01*
X154985786Y-101467869D01*
X154992026Y-101475305D01*
X154998721Y-101479779D01*
X155010222Y-101496992D01*
X155027137Y-101517151D01*
X155029444Y-101525759D01*
X155042593Y-101545439D01*
X155057999Y-101622890D01*
X155057999Y-101632328D01*
X155059715Y-101638732D01*
X155059715Y-101901790D01*
X155057999Y-101911522D01*
X155057999Y-101912110D01*
X155057085Y-101916703D01*
X155045631Y-101981663D01*
X155043393Y-101985540D01*
X155042593Y-101989561D01*
X155031398Y-102006315D01*
X155010631Y-102042286D01*
X155003194Y-102048526D01*
X154998721Y-102055221D01*
X154981511Y-102066720D01*
X154961350Y-102083637D01*
X154952740Y-102085944D01*
X154933061Y-102099093D01*
X154855610Y-102114499D01*
X154846172Y-102114499D01*
X154839768Y-102116215D01*
X154526710Y-102116215D01*
X154516978Y-102114499D01*
X154516390Y-102114499D01*
X154511797Y-102113585D01*
X154446837Y-102102131D01*
X154442960Y-102099893D01*
X154438939Y-102099093D01*
X154422185Y-102087898D01*
X154386214Y-102067131D01*
X154379974Y-102059694D01*
X154373279Y-102055221D01*
X154361780Y-102038011D01*
X154344863Y-102017850D01*
X154342556Y-102009240D01*
X154329407Y-101989561D01*
X154314001Y-101912110D01*
X154314001Y-101902672D01*
X154312285Y-101896268D01*
X154312285Y-101633210D01*
X154314001Y-101623478D01*
X154314001Y-101622890D01*
X154314915Y-101618297D01*
X154326369Y-101553337D01*
X154328607Y-101549460D01*
X154329407Y-101545439D01*
X154340602Y-101528685D01*
X154361369Y-101492714D01*
X154368805Y-101486474D01*
X154373279Y-101479779D01*
X154390492Y-101468278D01*
X154410651Y-101451363D01*
X154419259Y-101449056D01*
X154438939Y-101435907D01*
X154516390Y-101420501D01*
X154525828Y-101420501D01*
X154532232Y-101418785D01*
X154845290Y-101418785D01*
X154855022Y-101420501D01*
G37*
G36*
X125559022Y-101028001D02*
G01*
X125559610Y-101028001D01*
X125564203Y-101028915D01*
X125629163Y-101040369D01*
X125633040Y-101042607D01*
X125637061Y-101043407D01*
X125653815Y-101054602D01*
X125689786Y-101075369D01*
X125696026Y-101082805D01*
X125702721Y-101087279D01*
X125714222Y-101104492D01*
X125731137Y-101124651D01*
X125733444Y-101133259D01*
X125746593Y-101152939D01*
X125761999Y-101230390D01*
X125761999Y-101239828D01*
X125763715Y-101246232D01*
X125763715Y-101559290D01*
X125761999Y-101569022D01*
X125761999Y-101569610D01*
X125761085Y-101574203D01*
X125749631Y-101639163D01*
X125747393Y-101643040D01*
X125746593Y-101647061D01*
X125735398Y-101663815D01*
X125714631Y-101699786D01*
X125707194Y-101706026D01*
X125702721Y-101712721D01*
X125685511Y-101724220D01*
X125665350Y-101741137D01*
X125656740Y-101743444D01*
X125637061Y-101756593D01*
X125559610Y-101771999D01*
X125550172Y-101771999D01*
X125543768Y-101773715D01*
X125280710Y-101773715D01*
X125270978Y-101771999D01*
X125270390Y-101771999D01*
X125265797Y-101771085D01*
X125200837Y-101759631D01*
X125196960Y-101757393D01*
X125192939Y-101756593D01*
X125176185Y-101745398D01*
X125140214Y-101724631D01*
X125133974Y-101717194D01*
X125127279Y-101712721D01*
X125115780Y-101695511D01*
X125098863Y-101675350D01*
X125096556Y-101666740D01*
X125083407Y-101647061D01*
X125068001Y-101569610D01*
X125068001Y-101560172D01*
X125066285Y-101553768D01*
X125066285Y-101240710D01*
X125068001Y-101230978D01*
X125068001Y-101230390D01*
X125068915Y-101225797D01*
X125080369Y-101160837D01*
X125082607Y-101156960D01*
X125083407Y-101152939D01*
X125094602Y-101136185D01*
X125115369Y-101100214D01*
X125122805Y-101093974D01*
X125127279Y-101087279D01*
X125144492Y-101075778D01*
X125164651Y-101058863D01*
X125173259Y-101056556D01*
X125192939Y-101043407D01*
X125270390Y-101028001D01*
X125279828Y-101028001D01*
X125286232Y-101026285D01*
X125549290Y-101026285D01*
X125559022Y-101028001D01*
G37*
G36*
X126529022Y-101028001D02*
G01*
X126529610Y-101028001D01*
X126534203Y-101028915D01*
X126599163Y-101040369D01*
X126603040Y-101042607D01*
X126607061Y-101043407D01*
X126623815Y-101054602D01*
X126659786Y-101075369D01*
X126666026Y-101082805D01*
X126672721Y-101087279D01*
X126684222Y-101104492D01*
X126701137Y-101124651D01*
X126703444Y-101133259D01*
X126716593Y-101152939D01*
X126731999Y-101230390D01*
X126731999Y-101239828D01*
X126733715Y-101246232D01*
X126733715Y-101559290D01*
X126731999Y-101569022D01*
X126731999Y-101569610D01*
X126731085Y-101574203D01*
X126719631Y-101639163D01*
X126717393Y-101643040D01*
X126716593Y-101647061D01*
X126705398Y-101663815D01*
X126684631Y-101699786D01*
X126677194Y-101706026D01*
X126672721Y-101712721D01*
X126655511Y-101724220D01*
X126635350Y-101741137D01*
X126626740Y-101743444D01*
X126607061Y-101756593D01*
X126529610Y-101771999D01*
X126520172Y-101771999D01*
X126513768Y-101773715D01*
X126250710Y-101773715D01*
X126240978Y-101771999D01*
X126240390Y-101771999D01*
X126235797Y-101771085D01*
X126170837Y-101759631D01*
X126166960Y-101757393D01*
X126162939Y-101756593D01*
X126146185Y-101745398D01*
X126110214Y-101724631D01*
X126103974Y-101717194D01*
X126097279Y-101712721D01*
X126085780Y-101695511D01*
X126068863Y-101675350D01*
X126066556Y-101666740D01*
X126053407Y-101647061D01*
X126038001Y-101569610D01*
X126038001Y-101560172D01*
X126036285Y-101553768D01*
X126036285Y-101240710D01*
X126038001Y-101230978D01*
X126038001Y-101230390D01*
X126038915Y-101225797D01*
X126050369Y-101160837D01*
X126052607Y-101156960D01*
X126053407Y-101152939D01*
X126064602Y-101136185D01*
X126085369Y-101100214D01*
X126092805Y-101093974D01*
X126097279Y-101087279D01*
X126114492Y-101075778D01*
X126134651Y-101058863D01*
X126143259Y-101056556D01*
X126162939Y-101043407D01*
X126240390Y-101028001D01*
X126249828Y-101028001D01*
X126256232Y-101026285D01*
X126519290Y-101026285D01*
X126529022Y-101028001D01*
G37*
G36*
X149869022Y-101068001D02*
G01*
X149869610Y-101068001D01*
X149874203Y-101068915D01*
X149939163Y-101080369D01*
X149943040Y-101082607D01*
X149947061Y-101083407D01*
X149963815Y-101094602D01*
X149999786Y-101115369D01*
X150006026Y-101122805D01*
X150012721Y-101127279D01*
X150024222Y-101144492D01*
X150041137Y-101164651D01*
X150043444Y-101173259D01*
X150056593Y-101192939D01*
X150071999Y-101270390D01*
X150071999Y-101279828D01*
X150073715Y-101286232D01*
X150073715Y-101549290D01*
X150071999Y-101559022D01*
X150071999Y-101559610D01*
X150071085Y-101564203D01*
X150059631Y-101629163D01*
X150057393Y-101633040D01*
X150056593Y-101637061D01*
X150045398Y-101653815D01*
X150024631Y-101689786D01*
X150017194Y-101696026D01*
X150012721Y-101702721D01*
X149995511Y-101714220D01*
X149975350Y-101731137D01*
X149966740Y-101733444D01*
X149947061Y-101746593D01*
X149869610Y-101761999D01*
X149860172Y-101761999D01*
X149853768Y-101763715D01*
X149540710Y-101763715D01*
X149530978Y-101761999D01*
X149530390Y-101761999D01*
X149525797Y-101761085D01*
X149460837Y-101749631D01*
X149456960Y-101747393D01*
X149452939Y-101746593D01*
X149436185Y-101735398D01*
X149400214Y-101714631D01*
X149393974Y-101707194D01*
X149387279Y-101702721D01*
X149375780Y-101685511D01*
X149358863Y-101665350D01*
X149356556Y-101656740D01*
X149343407Y-101637061D01*
X149328001Y-101559610D01*
X149328001Y-101550172D01*
X149326285Y-101543768D01*
X149326285Y-101280710D01*
X149328001Y-101270978D01*
X149328001Y-101270390D01*
X149328915Y-101265797D01*
X149340369Y-101200837D01*
X149342607Y-101196960D01*
X149343407Y-101192939D01*
X149354602Y-101176185D01*
X149375369Y-101140214D01*
X149382805Y-101133974D01*
X149387279Y-101127279D01*
X149404492Y-101115778D01*
X149424651Y-101098863D01*
X149433259Y-101096556D01*
X149452939Y-101083407D01*
X149530390Y-101068001D01*
X149539828Y-101068001D01*
X149546232Y-101066285D01*
X149859290Y-101066285D01*
X149869022Y-101068001D01*
G37*
G36*
X159269899Y-98251959D02*
G01*
X159286769Y-98263231D01*
X159298041Y-98280101D01*
X159304448Y-98312312D01*
X159304448Y-98887688D01*
X159301999Y-98900000D01*
X159298041Y-98919899D01*
X159286769Y-98936769D01*
X159269899Y-98948041D01*
X159269898Y-98948041D01*
X159268948Y-98948676D01*
X159207915Y-98980603D01*
X159173063Y-99041808D01*
X159176834Y-99112140D01*
X159218030Y-99169268D01*
X159294712Y-99195552D01*
X159755288Y-99195552D01*
X159822868Y-99175709D01*
X159868991Y-99122479D01*
X159879015Y-99052764D01*
X159849756Y-98988696D01*
X159781975Y-98949293D01*
X159763231Y-98936769D01*
X159751959Y-98919899D01*
X159745552Y-98887688D01*
X159745552Y-98312312D01*
X159751959Y-98280101D01*
X159763231Y-98263231D01*
X159780101Y-98251959D01*
X159812312Y-98245552D01*
X160187688Y-98245552D01*
X160219899Y-98251959D01*
X160236769Y-98263231D01*
X160248041Y-98280101D01*
X160254448Y-98312312D01*
X160254448Y-98887688D01*
X160251999Y-98900000D01*
X160248041Y-98919899D01*
X160236769Y-98936769D01*
X160219899Y-98948041D01*
X160219898Y-98948041D01*
X160218948Y-98948676D01*
X160157915Y-98980603D01*
X160123063Y-99041808D01*
X160126834Y-99112140D01*
X160168030Y-99169268D01*
X160244712Y-99195552D01*
X160705288Y-99195552D01*
X160772868Y-99175709D01*
X160818991Y-99122479D01*
X160829015Y-99052764D01*
X160799756Y-98988696D01*
X160731975Y-98949293D01*
X160713231Y-98936769D01*
X160701959Y-98919899D01*
X160695552Y-98887688D01*
X160695552Y-98312312D01*
X160701959Y-98280101D01*
X160713231Y-98263231D01*
X160730101Y-98251959D01*
X160762312Y-98245552D01*
X161137688Y-98245552D01*
X161169899Y-98251959D01*
X161186769Y-98263231D01*
X161198041Y-98280101D01*
X161204448Y-98312312D01*
X161204448Y-98887688D01*
X161201999Y-98900000D01*
X161198041Y-98919899D01*
X161186769Y-98936769D01*
X161169899Y-98948041D01*
X161169898Y-98948041D01*
X161168948Y-98948676D01*
X161107915Y-98980603D01*
X161073063Y-99041808D01*
X161076834Y-99112140D01*
X161118030Y-99169268D01*
X161176385Y-99189270D01*
X161175613Y-99193150D01*
X161219899Y-99201959D01*
X161236769Y-99213231D01*
X161248041Y-99230101D01*
X161254448Y-99262312D01*
X161254448Y-100737688D01*
X161248041Y-100769899D01*
X161236769Y-100786769D01*
X161219899Y-100798041D01*
X161175613Y-100806850D01*
X161176216Y-100809879D01*
X161127132Y-100824291D01*
X161081009Y-100877521D01*
X161070985Y-100947236D01*
X161100244Y-101011304D01*
X161168025Y-101050707D01*
X161186769Y-101063231D01*
X161198041Y-101080101D01*
X161204448Y-101112312D01*
X161204448Y-101687688D01*
X161201999Y-101700000D01*
X161198041Y-101719899D01*
X161186769Y-101736769D01*
X161169899Y-101748041D01*
X161150000Y-101751999D01*
X161137688Y-101754448D01*
X160762312Y-101754448D01*
X160730101Y-101748041D01*
X160713231Y-101736769D01*
X160701959Y-101719899D01*
X160695552Y-101687688D01*
X160695552Y-101112312D01*
X160701959Y-101080101D01*
X160713231Y-101063231D01*
X160730101Y-101051959D01*
X160730102Y-101051959D01*
X160731052Y-101051324D01*
X160792085Y-101019397D01*
X160826937Y-100958192D01*
X160823166Y-100887860D01*
X160781970Y-100830732D01*
X160705288Y-100804448D01*
X160244712Y-100804448D01*
X160177132Y-100824291D01*
X160131009Y-100877521D01*
X160120985Y-100947236D01*
X160150244Y-101011304D01*
X160218025Y-101050707D01*
X160236769Y-101063231D01*
X160248041Y-101080101D01*
X160254448Y-101112312D01*
X160254448Y-101687688D01*
X160251999Y-101700000D01*
X160248041Y-101719899D01*
X160236769Y-101736769D01*
X160219899Y-101748041D01*
X160200000Y-101751999D01*
X160187688Y-101754448D01*
X159812312Y-101754448D01*
X159780101Y-101748041D01*
X159763231Y-101736769D01*
X159751959Y-101719899D01*
X159745552Y-101687688D01*
X159745552Y-101112312D01*
X159751959Y-101080101D01*
X159763231Y-101063231D01*
X159780101Y-101051959D01*
X159780102Y-101051959D01*
X159781052Y-101051324D01*
X159842085Y-101019397D01*
X159876937Y-100958192D01*
X159873166Y-100887860D01*
X159831970Y-100830732D01*
X159755288Y-100804448D01*
X159294712Y-100804448D01*
X159227132Y-100824291D01*
X159181009Y-100877521D01*
X159170985Y-100947236D01*
X159200244Y-101011304D01*
X159268025Y-101050707D01*
X159286769Y-101063231D01*
X159298041Y-101080101D01*
X159304448Y-101112312D01*
X159304448Y-101687688D01*
X159301999Y-101700000D01*
X159298041Y-101719899D01*
X159286769Y-101736769D01*
X159269899Y-101748041D01*
X159250000Y-101751999D01*
X159237688Y-101754448D01*
X158862312Y-101754448D01*
X158830101Y-101748041D01*
X158813231Y-101736769D01*
X158801959Y-101719899D01*
X158795552Y-101687688D01*
X158795552Y-101112312D01*
X158801959Y-101080101D01*
X158813231Y-101063231D01*
X158830101Y-101051959D01*
X158830102Y-101051959D01*
X158831052Y-101051324D01*
X158892085Y-101019397D01*
X158926937Y-100958192D01*
X158923166Y-100887860D01*
X158881970Y-100830732D01*
X158823615Y-100810730D01*
X158824387Y-100806850D01*
X158780101Y-100798041D01*
X158763231Y-100786769D01*
X158751959Y-100769899D01*
X158745552Y-100737688D01*
X158745552Y-99262312D01*
X158751959Y-99230101D01*
X158763231Y-99213231D01*
X158780101Y-99201959D01*
X158824387Y-99193150D01*
X158823784Y-99190121D01*
X158872868Y-99175709D01*
X158918991Y-99122479D01*
X158929015Y-99052764D01*
X158899756Y-98988696D01*
X158831975Y-98949293D01*
X158813231Y-98936769D01*
X158801959Y-98919899D01*
X158795552Y-98887688D01*
X158795552Y-98312312D01*
X158801959Y-98280101D01*
X158813231Y-98263231D01*
X158830101Y-98251959D01*
X158862312Y-98245552D01*
X159237688Y-98245552D01*
X159269899Y-98251959D01*
G37*
G36*
X154855022Y-100450501D02*
G01*
X154855610Y-100450501D01*
X154860203Y-100451415D01*
X154925163Y-100462869D01*
X154929040Y-100465107D01*
X154933061Y-100465907D01*
X154949815Y-100477102D01*
X154985786Y-100497869D01*
X154992026Y-100505305D01*
X154998721Y-100509779D01*
X155010222Y-100526992D01*
X155027137Y-100547151D01*
X155029444Y-100555759D01*
X155042593Y-100575439D01*
X155057999Y-100652890D01*
X155057999Y-100662328D01*
X155059715Y-100668732D01*
X155059715Y-100931790D01*
X155057999Y-100941522D01*
X155057999Y-100942110D01*
X155057085Y-100946703D01*
X155045631Y-101011663D01*
X155043393Y-101015540D01*
X155042593Y-101019561D01*
X155031398Y-101036315D01*
X155010631Y-101072286D01*
X155003194Y-101078526D01*
X154998721Y-101085221D01*
X154981511Y-101096720D01*
X154961350Y-101113637D01*
X154952740Y-101115944D01*
X154933061Y-101129093D01*
X154855610Y-101144499D01*
X154846172Y-101144499D01*
X154839768Y-101146215D01*
X154526710Y-101146215D01*
X154516978Y-101144499D01*
X154516390Y-101144499D01*
X154511797Y-101143585D01*
X154446837Y-101132131D01*
X154442960Y-101129893D01*
X154438939Y-101129093D01*
X154422185Y-101117898D01*
X154386214Y-101097131D01*
X154379974Y-101089694D01*
X154373279Y-101085221D01*
X154361780Y-101068011D01*
X154344863Y-101047850D01*
X154342556Y-101039240D01*
X154329407Y-101019561D01*
X154314001Y-100942110D01*
X154314001Y-100932672D01*
X154312285Y-100926268D01*
X154312285Y-100663210D01*
X154314001Y-100653478D01*
X154314001Y-100652890D01*
X154314915Y-100648297D01*
X154326369Y-100583337D01*
X154328607Y-100579460D01*
X154329407Y-100575439D01*
X154340602Y-100558685D01*
X154361369Y-100522714D01*
X154368805Y-100516474D01*
X154373279Y-100509779D01*
X154390492Y-100498278D01*
X154410651Y-100481363D01*
X154419259Y-100479056D01*
X154438939Y-100465907D01*
X154516390Y-100450501D01*
X154525828Y-100450501D01*
X154532232Y-100448785D01*
X154845290Y-100448785D01*
X154855022Y-100450501D01*
G37*
G36*
X151569022Y-100138001D02*
G01*
X151569610Y-100138001D01*
X151574203Y-100138915D01*
X151639163Y-100150369D01*
X151643040Y-100152607D01*
X151647061Y-100153407D01*
X151663815Y-100164602D01*
X151699786Y-100185369D01*
X151706026Y-100192805D01*
X151712721Y-100197279D01*
X151724222Y-100214492D01*
X151741137Y-100234651D01*
X151743444Y-100243259D01*
X151756593Y-100262939D01*
X151771999Y-100340390D01*
X151771999Y-100349828D01*
X151773715Y-100356232D01*
X151773715Y-100619290D01*
X151771999Y-100629022D01*
X151771999Y-100629610D01*
X151771085Y-100634203D01*
X151759631Y-100699163D01*
X151757393Y-100703040D01*
X151756593Y-100707061D01*
X151745398Y-100723815D01*
X151724631Y-100759786D01*
X151717194Y-100766026D01*
X151712721Y-100772721D01*
X151695511Y-100784220D01*
X151675350Y-100801137D01*
X151666740Y-100803444D01*
X151647061Y-100816593D01*
X151569610Y-100831999D01*
X151560172Y-100831999D01*
X151553768Y-100833715D01*
X151240710Y-100833715D01*
X151230978Y-100831999D01*
X151230390Y-100831999D01*
X151225797Y-100831085D01*
X151160837Y-100819631D01*
X151156960Y-100817393D01*
X151152939Y-100816593D01*
X151136185Y-100805398D01*
X151100214Y-100784631D01*
X151093974Y-100777194D01*
X151087279Y-100772721D01*
X151075780Y-100755511D01*
X151058863Y-100735350D01*
X151056556Y-100726740D01*
X151043407Y-100707061D01*
X151028001Y-100629610D01*
X151028001Y-100620172D01*
X151026285Y-100613768D01*
X151026285Y-100350710D01*
X151028001Y-100340978D01*
X151028001Y-100340390D01*
X151028915Y-100335797D01*
X151040369Y-100270837D01*
X151042607Y-100266960D01*
X151043407Y-100262939D01*
X151054602Y-100246185D01*
X151075369Y-100210214D01*
X151082805Y-100203974D01*
X151087279Y-100197279D01*
X151104492Y-100185778D01*
X151124651Y-100168863D01*
X151133259Y-100166556D01*
X151152939Y-100153407D01*
X151230390Y-100138001D01*
X151239828Y-100138001D01*
X151246232Y-100136285D01*
X151559290Y-100136285D01*
X151569022Y-100138001D01*
G37*
G36*
X148869022Y-100138001D02*
G01*
X148869610Y-100138001D01*
X148874203Y-100138915D01*
X148939163Y-100150369D01*
X148943040Y-100152607D01*
X148947061Y-100153407D01*
X148963815Y-100164602D01*
X148999786Y-100185369D01*
X149006026Y-100192805D01*
X149012721Y-100197279D01*
X149024222Y-100214492D01*
X149041137Y-100234651D01*
X149043444Y-100243259D01*
X149056593Y-100262939D01*
X149071999Y-100340390D01*
X149071999Y-100349828D01*
X149073715Y-100356232D01*
X149073715Y-100619290D01*
X149071999Y-100629022D01*
X149071999Y-100629610D01*
X149071085Y-100634203D01*
X149059631Y-100699163D01*
X149057393Y-100703040D01*
X149056593Y-100707061D01*
X149045398Y-100723815D01*
X149024631Y-100759786D01*
X149017194Y-100766026D01*
X149012721Y-100772721D01*
X148995511Y-100784220D01*
X148975350Y-100801137D01*
X148966740Y-100803444D01*
X148947061Y-100816593D01*
X148869610Y-100831999D01*
X148860172Y-100831999D01*
X148853768Y-100833715D01*
X148540710Y-100833715D01*
X148530978Y-100831999D01*
X148530390Y-100831999D01*
X148525797Y-100831085D01*
X148460837Y-100819631D01*
X148456960Y-100817393D01*
X148452939Y-100816593D01*
X148436185Y-100805398D01*
X148400214Y-100784631D01*
X148393974Y-100777194D01*
X148387279Y-100772721D01*
X148375780Y-100755511D01*
X148358863Y-100735350D01*
X148356556Y-100726740D01*
X148343407Y-100707061D01*
X148328001Y-100629610D01*
X148328001Y-100620172D01*
X148326285Y-100613768D01*
X148326285Y-100350710D01*
X148328001Y-100340978D01*
X148328001Y-100340390D01*
X148328915Y-100335797D01*
X148340369Y-100270837D01*
X148342607Y-100266960D01*
X148343407Y-100262939D01*
X148354602Y-100246185D01*
X148375369Y-100210214D01*
X148382805Y-100203974D01*
X148387279Y-100197279D01*
X148404492Y-100185778D01*
X148424651Y-100168863D01*
X148433259Y-100166556D01*
X148452939Y-100153407D01*
X148530390Y-100138001D01*
X148539828Y-100138001D01*
X148546232Y-100136285D01*
X148859290Y-100136285D01*
X148869022Y-100138001D01*
G37*
G36*
X152459022Y-99128001D02*
G01*
X152459610Y-99128001D01*
X152464203Y-99128915D01*
X152529163Y-99140369D01*
X152533040Y-99142607D01*
X152537061Y-99143407D01*
X152553815Y-99154602D01*
X152589786Y-99175369D01*
X152596026Y-99182805D01*
X152602721Y-99187279D01*
X152614222Y-99204492D01*
X152631137Y-99224651D01*
X152633444Y-99233259D01*
X152646593Y-99252939D01*
X152661999Y-99330390D01*
X152661999Y-99339828D01*
X152663715Y-99346232D01*
X152663715Y-99659290D01*
X152661999Y-99669022D01*
X152661999Y-99669610D01*
X152661085Y-99674203D01*
X152649631Y-99739163D01*
X152647393Y-99743040D01*
X152646593Y-99747061D01*
X152635398Y-99763815D01*
X152614631Y-99799786D01*
X152607194Y-99806026D01*
X152602721Y-99812721D01*
X152585511Y-99824220D01*
X152565350Y-99841137D01*
X152556740Y-99843444D01*
X152537061Y-99856593D01*
X152459610Y-99871999D01*
X152450172Y-99871999D01*
X152443768Y-99873715D01*
X152180710Y-99873715D01*
X152170978Y-99871999D01*
X152170390Y-99871999D01*
X152165797Y-99871085D01*
X152100837Y-99859631D01*
X152096960Y-99857393D01*
X152092939Y-99856593D01*
X152076185Y-99845398D01*
X152040214Y-99824631D01*
X152033974Y-99817194D01*
X152027279Y-99812721D01*
X152015780Y-99795511D01*
X151998863Y-99775350D01*
X151996556Y-99766740D01*
X151983407Y-99747061D01*
X151980456Y-99732224D01*
X151956025Y-99692142D01*
X151892672Y-99661366D01*
X151822737Y-99669727D01*
X151763690Y-99722134D01*
X151757393Y-99733042D01*
X151756593Y-99737061D01*
X151745402Y-99753810D01*
X151724631Y-99789786D01*
X151717194Y-99796026D01*
X151712721Y-99802721D01*
X151695511Y-99814220D01*
X151675350Y-99831137D01*
X151666740Y-99833444D01*
X151647061Y-99846593D01*
X151569610Y-99861999D01*
X151560172Y-99861999D01*
X151553768Y-99863715D01*
X151240710Y-99863715D01*
X151230978Y-99861999D01*
X151230390Y-99861999D01*
X151225797Y-99861085D01*
X151160837Y-99849631D01*
X151156960Y-99847393D01*
X151152939Y-99846593D01*
X151136185Y-99835398D01*
X151100214Y-99814631D01*
X151093974Y-99807194D01*
X151087279Y-99802721D01*
X151075780Y-99785511D01*
X151058863Y-99765350D01*
X151056556Y-99756740D01*
X151043407Y-99737061D01*
X151028001Y-99659610D01*
X151028001Y-99650172D01*
X151026285Y-99643768D01*
X151026285Y-99380710D01*
X151028001Y-99370978D01*
X151028001Y-99370390D01*
X151028915Y-99365797D01*
X151040369Y-99300837D01*
X151042607Y-99296960D01*
X151043407Y-99292939D01*
X151054602Y-99276185D01*
X151075369Y-99240214D01*
X151082805Y-99233974D01*
X151087279Y-99227279D01*
X151104492Y-99215778D01*
X151124651Y-99198863D01*
X151133259Y-99196556D01*
X151152939Y-99183407D01*
X151230390Y-99168001D01*
X151239828Y-99168001D01*
X151246232Y-99166285D01*
X151559290Y-99166285D01*
X151569022Y-99168001D01*
X151569610Y-99168001D01*
X151574203Y-99168915D01*
X151639163Y-99180369D01*
X151643040Y-99182607D01*
X151647061Y-99183407D01*
X151663815Y-99194602D01*
X151699786Y-99215369D01*
X151706026Y-99222805D01*
X151712721Y-99227279D01*
X151724221Y-99244490D01*
X151750704Y-99276052D01*
X151775740Y-99317128D01*
X151839093Y-99347905D01*
X151909027Y-99339545D01*
X151963340Y-99294702D01*
X151969329Y-99279914D01*
X151969348Y-99279925D01*
X151982607Y-99256959D01*
X151983407Y-99252939D01*
X151994599Y-99236188D01*
X152015369Y-99200214D01*
X152022805Y-99193974D01*
X152027279Y-99187279D01*
X152044492Y-99175778D01*
X152064651Y-99158863D01*
X152073259Y-99156556D01*
X152092939Y-99143407D01*
X152170390Y-99128001D01*
X152179828Y-99128001D01*
X152186232Y-99126285D01*
X152449290Y-99126285D01*
X152459022Y-99128001D01*
G37*
G36*
X153429022Y-99128001D02*
G01*
X153429610Y-99128001D01*
X153434203Y-99128915D01*
X153499163Y-99140369D01*
X153503040Y-99142607D01*
X153507061Y-99143407D01*
X153523815Y-99154602D01*
X153559786Y-99175369D01*
X153566026Y-99182805D01*
X153572721Y-99187279D01*
X153584222Y-99204492D01*
X153601137Y-99224651D01*
X153603444Y-99233259D01*
X153616593Y-99252939D01*
X153631999Y-99330390D01*
X153631999Y-99339828D01*
X153633715Y-99346232D01*
X153633715Y-99659290D01*
X153631999Y-99669022D01*
X153631999Y-99669610D01*
X153631085Y-99674203D01*
X153619631Y-99739163D01*
X153617393Y-99743040D01*
X153616593Y-99747061D01*
X153605398Y-99763815D01*
X153584631Y-99799786D01*
X153577194Y-99806026D01*
X153572721Y-99812721D01*
X153555511Y-99824220D01*
X153535350Y-99841137D01*
X153526740Y-99843444D01*
X153507061Y-99856593D01*
X153429610Y-99871999D01*
X153420172Y-99871999D01*
X153413768Y-99873715D01*
X153150710Y-99873715D01*
X153140978Y-99871999D01*
X153140390Y-99871999D01*
X153135797Y-99871085D01*
X153070837Y-99859631D01*
X153066960Y-99857393D01*
X153062939Y-99856593D01*
X153046185Y-99845398D01*
X153010214Y-99824631D01*
X153003974Y-99817194D01*
X152997279Y-99812721D01*
X152985780Y-99795511D01*
X152968863Y-99775350D01*
X152966556Y-99766740D01*
X152953407Y-99747061D01*
X152938001Y-99669610D01*
X152938001Y-99660172D01*
X152936285Y-99653768D01*
X152936285Y-99340710D01*
X152938001Y-99330978D01*
X152938001Y-99330390D01*
X152938915Y-99325797D01*
X152950369Y-99260837D01*
X152952607Y-99256960D01*
X152953407Y-99252939D01*
X152964602Y-99236185D01*
X152985369Y-99200214D01*
X152992805Y-99193974D01*
X152997279Y-99187279D01*
X153014492Y-99175778D01*
X153034651Y-99158863D01*
X153043259Y-99156556D01*
X153062939Y-99143407D01*
X153140390Y-99128001D01*
X153149828Y-99128001D01*
X153156232Y-99126285D01*
X153419290Y-99126285D01*
X153429022Y-99128001D01*
G37*
G36*
X148869022Y-99168001D02*
G01*
X148869610Y-99168001D01*
X148874203Y-99168915D01*
X148939163Y-99180369D01*
X148943040Y-99182607D01*
X148947061Y-99183407D01*
X148963815Y-99194602D01*
X148999786Y-99215369D01*
X149006026Y-99222805D01*
X149012721Y-99227279D01*
X149024222Y-99244492D01*
X149041137Y-99264651D01*
X149043444Y-99273259D01*
X149056593Y-99292939D01*
X149071999Y-99370390D01*
X149071999Y-99379828D01*
X149073715Y-99386232D01*
X149073715Y-99649290D01*
X149071999Y-99659022D01*
X149071999Y-99659610D01*
X149071085Y-99664203D01*
X149059631Y-99729163D01*
X149057393Y-99733040D01*
X149056593Y-99737061D01*
X149045398Y-99753815D01*
X149024631Y-99789786D01*
X149017194Y-99796026D01*
X149012721Y-99802721D01*
X148995511Y-99814220D01*
X148975350Y-99831137D01*
X148966740Y-99833444D01*
X148947061Y-99846593D01*
X148869610Y-99861999D01*
X148860172Y-99861999D01*
X148853768Y-99863715D01*
X148540710Y-99863715D01*
X148530978Y-99861999D01*
X148530390Y-99861999D01*
X148525797Y-99861085D01*
X148460837Y-99849631D01*
X148456960Y-99847393D01*
X148452939Y-99846593D01*
X148436185Y-99835398D01*
X148400214Y-99814631D01*
X148393974Y-99807194D01*
X148387279Y-99802721D01*
X148375780Y-99785511D01*
X148358863Y-99765350D01*
X148356556Y-99756740D01*
X148343407Y-99737061D01*
X148328001Y-99659610D01*
X148328001Y-99650172D01*
X148326285Y-99643768D01*
X148326285Y-99380710D01*
X148328001Y-99370978D01*
X148328001Y-99370390D01*
X148328915Y-99365797D01*
X148340369Y-99300837D01*
X148342607Y-99296960D01*
X148343407Y-99292939D01*
X148354602Y-99276185D01*
X148375369Y-99240214D01*
X148382805Y-99233974D01*
X148387279Y-99227279D01*
X148404492Y-99215778D01*
X148424651Y-99198863D01*
X148433259Y-99196556D01*
X148452939Y-99183407D01*
X148530390Y-99168001D01*
X148539828Y-99168001D01*
X148546232Y-99166285D01*
X148859290Y-99166285D01*
X148869022Y-99168001D01*
G37*
G36*
X124409022Y-99038001D02*
G01*
X124409610Y-99038001D01*
X124414203Y-99038915D01*
X124479163Y-99050369D01*
X124483040Y-99052607D01*
X124487061Y-99053407D01*
X124503815Y-99064602D01*
X124539786Y-99085369D01*
X124546026Y-99092805D01*
X124552721Y-99097279D01*
X124564222Y-99114492D01*
X124581137Y-99134651D01*
X124583444Y-99143259D01*
X124596593Y-99162939D01*
X124611999Y-99240390D01*
X124611999Y-99249828D01*
X124613715Y-99256232D01*
X124613715Y-99569290D01*
X124611999Y-99579022D01*
X124611999Y-99579610D01*
X124611085Y-99584203D01*
X124599631Y-99649163D01*
X124597393Y-99653040D01*
X124596593Y-99657061D01*
X124585398Y-99673815D01*
X124564631Y-99709786D01*
X124557194Y-99716026D01*
X124552721Y-99722721D01*
X124535511Y-99734220D01*
X124515350Y-99751137D01*
X124506740Y-99753444D01*
X124487061Y-99766593D01*
X124409610Y-99781999D01*
X124400172Y-99781999D01*
X124393768Y-99783715D01*
X124130710Y-99783715D01*
X124120978Y-99781999D01*
X124120390Y-99781999D01*
X124115797Y-99781085D01*
X124050837Y-99769631D01*
X124046960Y-99767393D01*
X124042939Y-99766593D01*
X124026185Y-99755398D01*
X123990214Y-99734631D01*
X123983974Y-99727194D01*
X123977279Y-99722721D01*
X123965780Y-99705511D01*
X123948863Y-99685350D01*
X123946556Y-99676740D01*
X123933407Y-99657061D01*
X123918001Y-99579610D01*
X123918001Y-99570172D01*
X123916285Y-99563768D01*
X123916285Y-99250710D01*
X123918001Y-99240978D01*
X123918001Y-99240390D01*
X123918915Y-99235797D01*
X123930369Y-99170837D01*
X123932607Y-99166960D01*
X123933407Y-99162939D01*
X123944602Y-99146185D01*
X123965369Y-99110214D01*
X123972805Y-99103974D01*
X123977279Y-99097279D01*
X123994492Y-99085778D01*
X124014651Y-99068863D01*
X124023259Y-99066556D01*
X124042939Y-99053407D01*
X124120390Y-99038001D01*
X124129828Y-99038001D01*
X124136232Y-99036285D01*
X124399290Y-99036285D01*
X124409022Y-99038001D01*
G37*
G36*
X128289022Y-99038001D02*
G01*
X128289610Y-99038001D01*
X128294203Y-99038915D01*
X128359163Y-99050369D01*
X128363040Y-99052607D01*
X128367061Y-99053407D01*
X128383815Y-99064602D01*
X128419786Y-99085369D01*
X128426026Y-99092805D01*
X128432721Y-99097279D01*
X128444222Y-99114492D01*
X128461137Y-99134651D01*
X128463444Y-99143259D01*
X128476593Y-99162939D01*
X128491999Y-99240390D01*
X128491999Y-99249828D01*
X128493715Y-99256232D01*
X128493715Y-99569290D01*
X128491999Y-99579022D01*
X128491999Y-99579610D01*
X128491085Y-99584203D01*
X128479631Y-99649163D01*
X128477393Y-99653040D01*
X128476593Y-99657061D01*
X128465398Y-99673815D01*
X128444631Y-99709786D01*
X128437194Y-99716026D01*
X128432721Y-99722721D01*
X128415511Y-99734220D01*
X128395350Y-99751137D01*
X128386740Y-99753444D01*
X128367061Y-99766593D01*
X128289610Y-99781999D01*
X128280172Y-99781999D01*
X128273768Y-99783715D01*
X128010710Y-99783715D01*
X128000978Y-99781999D01*
X128000390Y-99781999D01*
X127995797Y-99781085D01*
X127930837Y-99769631D01*
X127926960Y-99767393D01*
X127922939Y-99766593D01*
X127906185Y-99755398D01*
X127870214Y-99734631D01*
X127863974Y-99727194D01*
X127857279Y-99722721D01*
X127845780Y-99705511D01*
X127828863Y-99685350D01*
X127826556Y-99676740D01*
X127813407Y-99657061D01*
X127798001Y-99579610D01*
X127798001Y-99570172D01*
X127796285Y-99563768D01*
X127796285Y-99250710D01*
X127798001Y-99240978D01*
X127798001Y-99240390D01*
X127798915Y-99235797D01*
X127810369Y-99170837D01*
X127812607Y-99166960D01*
X127813407Y-99162939D01*
X127824602Y-99146185D01*
X127845369Y-99110214D01*
X127852805Y-99103974D01*
X127857279Y-99097279D01*
X127874492Y-99085778D01*
X127894651Y-99068863D01*
X127903259Y-99066556D01*
X127922939Y-99053407D01*
X128000390Y-99038001D01*
X128009828Y-99038001D01*
X128016232Y-99036285D01*
X128279290Y-99036285D01*
X128289022Y-99038001D01*
G37*
G36*
X127319022Y-99038001D02*
G01*
X127319610Y-99038001D01*
X127324203Y-99038915D01*
X127389163Y-99050369D01*
X127393040Y-99052607D01*
X127397061Y-99053407D01*
X127413815Y-99064602D01*
X127449786Y-99085369D01*
X127456026Y-99092805D01*
X127462721Y-99097279D01*
X127474222Y-99114492D01*
X127491137Y-99134651D01*
X127493444Y-99143259D01*
X127506593Y-99162939D01*
X127521999Y-99240390D01*
X127521999Y-99249828D01*
X127523715Y-99256232D01*
X127523715Y-99569290D01*
X127521999Y-99579022D01*
X127521999Y-99579610D01*
X127521085Y-99584203D01*
X127509631Y-99649163D01*
X127507393Y-99653040D01*
X127506593Y-99657061D01*
X127495398Y-99673815D01*
X127474631Y-99709786D01*
X127467194Y-99716026D01*
X127462721Y-99722721D01*
X127445511Y-99734220D01*
X127425350Y-99751137D01*
X127416740Y-99753444D01*
X127397061Y-99766593D01*
X127319610Y-99781999D01*
X127310172Y-99781999D01*
X127303768Y-99783715D01*
X127040710Y-99783715D01*
X127030978Y-99781999D01*
X127030390Y-99781999D01*
X127025797Y-99781085D01*
X126960837Y-99769631D01*
X126956960Y-99767393D01*
X126952939Y-99766593D01*
X126936185Y-99755398D01*
X126900214Y-99734631D01*
X126893974Y-99727194D01*
X126887279Y-99722721D01*
X126875780Y-99705511D01*
X126858863Y-99685350D01*
X126856556Y-99676740D01*
X126843407Y-99657061D01*
X126828001Y-99579610D01*
X126828001Y-99570172D01*
X126826285Y-99563768D01*
X126826285Y-99250710D01*
X126828001Y-99240978D01*
X126828001Y-99240390D01*
X126828915Y-99235797D01*
X126840369Y-99170837D01*
X126842607Y-99166960D01*
X126843407Y-99162939D01*
X126854602Y-99146185D01*
X126875369Y-99110214D01*
X126882805Y-99103974D01*
X126887279Y-99097279D01*
X126904492Y-99085778D01*
X126924651Y-99068863D01*
X126933259Y-99066556D01*
X126952939Y-99053407D01*
X127030390Y-99038001D01*
X127039828Y-99038001D01*
X127046232Y-99036285D01*
X127309290Y-99036285D01*
X127319022Y-99038001D01*
G37*
G36*
X125379022Y-99038001D02*
G01*
X125379610Y-99038001D01*
X125384203Y-99038915D01*
X125449163Y-99050369D01*
X125453040Y-99052607D01*
X125457061Y-99053407D01*
X125473815Y-99064602D01*
X125509786Y-99085369D01*
X125516026Y-99092805D01*
X125522721Y-99097279D01*
X125534222Y-99114492D01*
X125551137Y-99134651D01*
X125553444Y-99143259D01*
X125566593Y-99162939D01*
X125581999Y-99240390D01*
X125581999Y-99249828D01*
X125583715Y-99256232D01*
X125583715Y-99569290D01*
X125581999Y-99579022D01*
X125581999Y-99579610D01*
X125581085Y-99584203D01*
X125569631Y-99649163D01*
X125567393Y-99653040D01*
X125566593Y-99657061D01*
X125555398Y-99673815D01*
X125534631Y-99709786D01*
X125527194Y-99716026D01*
X125522721Y-99722721D01*
X125505511Y-99734220D01*
X125485350Y-99751137D01*
X125476740Y-99753444D01*
X125457061Y-99766593D01*
X125379610Y-99781999D01*
X125370172Y-99781999D01*
X125363768Y-99783715D01*
X125100710Y-99783715D01*
X125090978Y-99781999D01*
X125090390Y-99781999D01*
X125085797Y-99781085D01*
X125020837Y-99769631D01*
X125016960Y-99767393D01*
X125012939Y-99766593D01*
X124996185Y-99755398D01*
X124960214Y-99734631D01*
X124953974Y-99727194D01*
X124947279Y-99722721D01*
X124935780Y-99705511D01*
X124918863Y-99685350D01*
X124916556Y-99676740D01*
X124903407Y-99657061D01*
X124888001Y-99579610D01*
X124888001Y-99570172D01*
X124886285Y-99563768D01*
X124886285Y-99250710D01*
X124888001Y-99240978D01*
X124888001Y-99240390D01*
X124888915Y-99235797D01*
X124900369Y-99170837D01*
X124902607Y-99166960D01*
X124903407Y-99162939D01*
X124914602Y-99146185D01*
X124935369Y-99110214D01*
X124942805Y-99103974D01*
X124947279Y-99097279D01*
X124964492Y-99085778D01*
X124984651Y-99068863D01*
X124993259Y-99066556D01*
X125012939Y-99053407D01*
X125090390Y-99038001D01*
X125099828Y-99038001D01*
X125106232Y-99036285D01*
X125369290Y-99036285D01*
X125379022Y-99038001D01*
G37*
G36*
X146519899Y-97151959D02*
G01*
X146536769Y-97163231D01*
X146548041Y-97180101D01*
X146554448Y-97212312D01*
X146554448Y-98337688D01*
X146551999Y-98350000D01*
X146548041Y-98369899D01*
X146536769Y-98386769D01*
X146519899Y-98398041D01*
X146500000Y-98401999D01*
X146487688Y-98404448D01*
X145512312Y-98404448D01*
X145480101Y-98398041D01*
X145463231Y-98386769D01*
X145451959Y-98369899D01*
X145445552Y-98337688D01*
X145445552Y-97212312D01*
X145451959Y-97180101D01*
X145463231Y-97163231D01*
X145480101Y-97151959D01*
X145512312Y-97145552D01*
X146487688Y-97145552D01*
X146519899Y-97151959D01*
G37*
G36*
X145119899Y-97151959D02*
G01*
X145136769Y-97163231D01*
X145148041Y-97180101D01*
X145154448Y-97212312D01*
X145154448Y-98337688D01*
X145151999Y-98350000D01*
X145148041Y-98369899D01*
X145136769Y-98386769D01*
X145119899Y-98398041D01*
X145100000Y-98401999D01*
X145087688Y-98404448D01*
X144112312Y-98404448D01*
X144080101Y-98398041D01*
X144063231Y-98386769D01*
X144051959Y-98369899D01*
X144045552Y-98337688D01*
X144045552Y-97212312D01*
X144051959Y-97180101D01*
X144063231Y-97163231D01*
X144080101Y-97151959D01*
X144112312Y-97145552D01*
X145087688Y-97145552D01*
X145119899Y-97151959D01*
G37*
G36*
X148646646Y-93498001D02*
G01*
X148650000Y-93498001D01*
X148672562Y-93503151D01*
X148675583Y-93504606D01*
X148686313Y-93507055D01*
X148701624Y-93514428D01*
X148723451Y-93530855D01*
X148789380Y-93555637D01*
X148868063Y-93534912D01*
X148911572Y-93505839D01*
X148963290Y-93495552D01*
X149036710Y-93495552D01*
X149088428Y-93505839D01*
X149130553Y-93533987D01*
X149197767Y-93555034D01*
X149269447Y-93533987D01*
X149311572Y-93505839D01*
X149363290Y-93495552D01*
X149436710Y-93495552D01*
X149488428Y-93505839D01*
X149530553Y-93533987D01*
X149597767Y-93555034D01*
X149669447Y-93533987D01*
X149711572Y-93505839D01*
X149763290Y-93495552D01*
X149836710Y-93495552D01*
X149888428Y-93505839D01*
X149930553Y-93533987D01*
X149997767Y-93555034D01*
X150069447Y-93533987D01*
X150111572Y-93505839D01*
X150163290Y-93495552D01*
X150236710Y-93495552D01*
X150288428Y-93505839D01*
X150330553Y-93533987D01*
X150397767Y-93555034D01*
X150469447Y-93533987D01*
X150511572Y-93505839D01*
X150563290Y-93495552D01*
X150636710Y-93495552D01*
X150688428Y-93505839D01*
X150730553Y-93533987D01*
X150797767Y-93555034D01*
X150869447Y-93533987D01*
X150911572Y-93505839D01*
X150963290Y-93495552D01*
X151036710Y-93495552D01*
X151088428Y-93505839D01*
X151128578Y-93532667D01*
X151195793Y-93553714D01*
X151263716Y-93535081D01*
X151266438Y-93532598D01*
X151312461Y-93505451D01*
X151322067Y-93502090D01*
X151360545Y-93495552D01*
X151435916Y-93495552D01*
X151446646Y-93498001D01*
X151450000Y-93498001D01*
X151472562Y-93503151D01*
X151475583Y-93504606D01*
X151486313Y-93507055D01*
X151501624Y-93514428D01*
X151527865Y-93534177D01*
X151544549Y-93562461D01*
X151547910Y-93572067D01*
X151554448Y-93610545D01*
X151554448Y-94220553D01*
X151574291Y-94288133D01*
X151627521Y-94334256D01*
X151679447Y-94345552D01*
X152285916Y-94345552D01*
X152296646Y-94348001D01*
X152300000Y-94348001D01*
X152322562Y-94353151D01*
X152325583Y-94354606D01*
X152336313Y-94357055D01*
X152351624Y-94364428D01*
X152377865Y-94384177D01*
X152394549Y-94412461D01*
X152397910Y-94422067D01*
X152404448Y-94460545D01*
X152404448Y-94535916D01*
X152401999Y-94546646D01*
X152401999Y-94550000D01*
X152396849Y-94572562D01*
X152395394Y-94575583D01*
X152392945Y-94586313D01*
X152385572Y-94601624D01*
X152369145Y-94623451D01*
X152344363Y-94689380D01*
X152365088Y-94768063D01*
X152394161Y-94811572D01*
X152404448Y-94863290D01*
X152404448Y-94936710D01*
X152394161Y-94988428D01*
X152366013Y-95030553D01*
X152344966Y-95097767D01*
X152366013Y-95169447D01*
X152394161Y-95211572D01*
X152404448Y-95263290D01*
X152404448Y-95336710D01*
X152394161Y-95388428D01*
X152366013Y-95430553D01*
X152344966Y-95497767D01*
X152366013Y-95569447D01*
X152394161Y-95611572D01*
X152404448Y-95663290D01*
X152404448Y-95736710D01*
X152394161Y-95788428D01*
X152366013Y-95830553D01*
X152344966Y-95897767D01*
X152366013Y-95969447D01*
X152394161Y-96011572D01*
X152404448Y-96063290D01*
X152404448Y-96136710D01*
X152394161Y-96188428D01*
X152366013Y-96230553D01*
X152344966Y-96297767D01*
X152366013Y-96369447D01*
X152394161Y-96411572D01*
X152404448Y-96463290D01*
X152404448Y-96536710D01*
X152394161Y-96588428D01*
X152366013Y-96630553D01*
X152344966Y-96697767D01*
X152366013Y-96769447D01*
X152394161Y-96811572D01*
X152404448Y-96863290D01*
X152404448Y-96936710D01*
X152394161Y-96988428D01*
X152367333Y-97028578D01*
X152346286Y-97095793D01*
X152364919Y-97163716D01*
X152367402Y-97166438D01*
X152394549Y-97212461D01*
X152397910Y-97222067D01*
X152404448Y-97260545D01*
X152404448Y-97335916D01*
X152401999Y-97346646D01*
X152401999Y-97350000D01*
X152396849Y-97372562D01*
X152395394Y-97375583D01*
X152392945Y-97386313D01*
X152385572Y-97401624D01*
X152365823Y-97427865D01*
X152337539Y-97444549D01*
X152327933Y-97447910D01*
X152289455Y-97454448D01*
X151679447Y-97454448D01*
X151611867Y-97474291D01*
X151565744Y-97527521D01*
X151554448Y-97579447D01*
X151554448Y-98185916D01*
X151551999Y-98196646D01*
X151551999Y-98200000D01*
X151546849Y-98222562D01*
X151545394Y-98225583D01*
X151542945Y-98236313D01*
X151535572Y-98251624D01*
X151515823Y-98277865D01*
X151487539Y-98294549D01*
X151477933Y-98297910D01*
X151439455Y-98304448D01*
X151364084Y-98304448D01*
X151353354Y-98301999D01*
X151350000Y-98301999D01*
X151327438Y-98296849D01*
X151324417Y-98295394D01*
X151313687Y-98292945D01*
X151298376Y-98285572D01*
X151276549Y-98269145D01*
X151210620Y-98244363D01*
X151131937Y-98265088D01*
X151088428Y-98294161D01*
X151036710Y-98304448D01*
X150963290Y-98304448D01*
X150911572Y-98294161D01*
X150869447Y-98266013D01*
X150802233Y-98244966D01*
X150730553Y-98266013D01*
X150688428Y-98294161D01*
X150636710Y-98304448D01*
X150563290Y-98304448D01*
X150511572Y-98294161D01*
X150469447Y-98266013D01*
X150402233Y-98244966D01*
X150330553Y-98266013D01*
X150288428Y-98294161D01*
X150236710Y-98304448D01*
X150163290Y-98304448D01*
X150111572Y-98294161D01*
X150069447Y-98266013D01*
X150002233Y-98244966D01*
X149930553Y-98266013D01*
X149888428Y-98294161D01*
X149836710Y-98304448D01*
X149763290Y-98304448D01*
X149711572Y-98294161D01*
X149669447Y-98266013D01*
X149602233Y-98244966D01*
X149530553Y-98266013D01*
X149488428Y-98294161D01*
X149436710Y-98304448D01*
X149363290Y-98304448D01*
X149311572Y-98294161D01*
X149269447Y-98266013D01*
X149202233Y-98244966D01*
X149130553Y-98266013D01*
X149088428Y-98294161D01*
X149036710Y-98304448D01*
X148963290Y-98304448D01*
X148911572Y-98294161D01*
X148871422Y-98267333D01*
X148804207Y-98246286D01*
X148736284Y-98264919D01*
X148733562Y-98267402D01*
X148687539Y-98294549D01*
X148677933Y-98297910D01*
X148639455Y-98304448D01*
X148564084Y-98304448D01*
X148553354Y-98301999D01*
X148550000Y-98301999D01*
X148527438Y-98296849D01*
X148524417Y-98295394D01*
X148513687Y-98292945D01*
X148498376Y-98285572D01*
X148472135Y-98265823D01*
X148455451Y-98237539D01*
X148452090Y-98227933D01*
X148445552Y-98189455D01*
X148445552Y-97579447D01*
X148425709Y-97511867D01*
X148372479Y-97465744D01*
X148320553Y-97454448D01*
X147714084Y-97454448D01*
X147703354Y-97451999D01*
X147700000Y-97451999D01*
X147677438Y-97446849D01*
X147674417Y-97445394D01*
X147663687Y-97442945D01*
X147648376Y-97435572D01*
X147622135Y-97415823D01*
X147605451Y-97387539D01*
X147602090Y-97377933D01*
X147595552Y-97339455D01*
X147595552Y-97264084D01*
X147598001Y-97253354D01*
X147598001Y-97250000D01*
X147603151Y-97227438D01*
X147604606Y-97224417D01*
X147607055Y-97213687D01*
X147614428Y-97198376D01*
X147630855Y-97176549D01*
X147655637Y-97110620D01*
X147634912Y-97031937D01*
X147605839Y-96988428D01*
X147595552Y-96936710D01*
X147595552Y-96863290D01*
X147605839Y-96811572D01*
X147633987Y-96769447D01*
X147655034Y-96702233D01*
X147633987Y-96630553D01*
X147605839Y-96588428D01*
X147595552Y-96536710D01*
X147595552Y-96463290D01*
X147605839Y-96411572D01*
X147633987Y-96369447D01*
X147655034Y-96302233D01*
X147633987Y-96230553D01*
X147605839Y-96188428D01*
X147595552Y-96136710D01*
X147595552Y-96063290D01*
X147605839Y-96011572D01*
X147633987Y-95969447D01*
X147655034Y-95902233D01*
X147633987Y-95830553D01*
X147605839Y-95788428D01*
X147595552Y-95736710D01*
X147595552Y-95663290D01*
X147605839Y-95611572D01*
X147633987Y-95569447D01*
X147655034Y-95502233D01*
X147633987Y-95430553D01*
X147605839Y-95388428D01*
X147595552Y-95336710D01*
X147595552Y-95263290D01*
X147605839Y-95211572D01*
X147633987Y-95169447D01*
X147655034Y-95102233D01*
X147633987Y-95030553D01*
X147605839Y-94988428D01*
X147595552Y-94936710D01*
X147595552Y-94863290D01*
X147605839Y-94811572D01*
X147632667Y-94771422D01*
X147653714Y-94704207D01*
X147635081Y-94636284D01*
X147632598Y-94633562D01*
X147605451Y-94587539D01*
X147602090Y-94577933D01*
X147595552Y-94539455D01*
X147595552Y-94464084D01*
X147598001Y-94453354D01*
X147598001Y-94450000D01*
X147603151Y-94427438D01*
X147604606Y-94424417D01*
X147607055Y-94413687D01*
X147614428Y-94398376D01*
X147634177Y-94372135D01*
X147662461Y-94355451D01*
X147672067Y-94352090D01*
X147710545Y-94345552D01*
X148320553Y-94345552D01*
X148388133Y-94325709D01*
X148434256Y-94272479D01*
X148445552Y-94220553D01*
X148445552Y-93614084D01*
X148448001Y-93603354D01*
X148448001Y-93600000D01*
X148453151Y-93577438D01*
X148454606Y-93574417D01*
X148457055Y-93563687D01*
X148464428Y-93548376D01*
X148484177Y-93522135D01*
X148512461Y-93505451D01*
X148522067Y-93502090D01*
X148560545Y-93495552D01*
X148635916Y-93495552D01*
X148646646Y-93498001D01*
G37*
G36*
X124409022Y-97048001D02*
G01*
X124409610Y-97048001D01*
X124414203Y-97048915D01*
X124479163Y-97060369D01*
X124483040Y-97062607D01*
X124487061Y-97063407D01*
X124503815Y-97074602D01*
X124539786Y-97095369D01*
X124546026Y-97102805D01*
X124552721Y-97107279D01*
X124564222Y-97124492D01*
X124581137Y-97144651D01*
X124583444Y-97153259D01*
X124596593Y-97172939D01*
X124611999Y-97250390D01*
X124611999Y-97259828D01*
X124613715Y-97266232D01*
X124613715Y-97579290D01*
X124611999Y-97589022D01*
X124611999Y-97589610D01*
X124611085Y-97594203D01*
X124599631Y-97659163D01*
X124597393Y-97663040D01*
X124596593Y-97667061D01*
X124585398Y-97683815D01*
X124564631Y-97719786D01*
X124557194Y-97726026D01*
X124552721Y-97732721D01*
X124535511Y-97744220D01*
X124515350Y-97761137D01*
X124506740Y-97763444D01*
X124487061Y-97776593D01*
X124409610Y-97791999D01*
X124400172Y-97791999D01*
X124393768Y-97793715D01*
X124130710Y-97793715D01*
X124120978Y-97791999D01*
X124120390Y-97791999D01*
X124115797Y-97791085D01*
X124050837Y-97779631D01*
X124046960Y-97777393D01*
X124042939Y-97776593D01*
X124026185Y-97765398D01*
X123990214Y-97744631D01*
X123983974Y-97737194D01*
X123977279Y-97732721D01*
X123965780Y-97715511D01*
X123948863Y-97695350D01*
X123946556Y-97686740D01*
X123933407Y-97667061D01*
X123918001Y-97589610D01*
X123918001Y-97580172D01*
X123916285Y-97573768D01*
X123916285Y-97260710D01*
X123918001Y-97250978D01*
X123918001Y-97250390D01*
X123918915Y-97245797D01*
X123930369Y-97180837D01*
X123932607Y-97176960D01*
X123933407Y-97172939D01*
X123944602Y-97156185D01*
X123965369Y-97120214D01*
X123972805Y-97113974D01*
X123977279Y-97107279D01*
X123994492Y-97095778D01*
X124014651Y-97078863D01*
X124023259Y-97076556D01*
X124042939Y-97063407D01*
X124120390Y-97048001D01*
X124129828Y-97048001D01*
X124136232Y-97046285D01*
X124399290Y-97046285D01*
X124409022Y-97048001D01*
G37*
G36*
X125379022Y-97048001D02*
G01*
X125379610Y-97048001D01*
X125384203Y-97048915D01*
X125449163Y-97060369D01*
X125453040Y-97062607D01*
X125457061Y-97063407D01*
X125473815Y-97074602D01*
X125509786Y-97095369D01*
X125516026Y-97102805D01*
X125522721Y-97107279D01*
X125534222Y-97124492D01*
X125551137Y-97144651D01*
X125553444Y-97153259D01*
X125566593Y-97172939D01*
X125581999Y-97250390D01*
X125581999Y-97259828D01*
X125583715Y-97266232D01*
X125583715Y-97579290D01*
X125581999Y-97589022D01*
X125581999Y-97589610D01*
X125581085Y-97594203D01*
X125569631Y-97659163D01*
X125567393Y-97663040D01*
X125566593Y-97667061D01*
X125555398Y-97683815D01*
X125534631Y-97719786D01*
X125527194Y-97726026D01*
X125522721Y-97732721D01*
X125505511Y-97744220D01*
X125485350Y-97761137D01*
X125476740Y-97763444D01*
X125457061Y-97776593D01*
X125379610Y-97791999D01*
X125370172Y-97791999D01*
X125363768Y-97793715D01*
X125100710Y-97793715D01*
X125090978Y-97791999D01*
X125090390Y-97791999D01*
X125085797Y-97791085D01*
X125020837Y-97779631D01*
X125016960Y-97777393D01*
X125012939Y-97776593D01*
X124996185Y-97765398D01*
X124960214Y-97744631D01*
X124953974Y-97737194D01*
X124947279Y-97732721D01*
X124935780Y-97715511D01*
X124918863Y-97695350D01*
X124916556Y-97686740D01*
X124903407Y-97667061D01*
X124888001Y-97589610D01*
X124888001Y-97580172D01*
X124886285Y-97573768D01*
X124886285Y-97260710D01*
X124888001Y-97250978D01*
X124888001Y-97250390D01*
X124888915Y-97245797D01*
X124900369Y-97180837D01*
X124902607Y-97176960D01*
X124903407Y-97172939D01*
X124914602Y-97156185D01*
X124935369Y-97120214D01*
X124942805Y-97113974D01*
X124947279Y-97107279D01*
X124964492Y-97095778D01*
X124984651Y-97078863D01*
X124993259Y-97076556D01*
X125012939Y-97063407D01*
X125090390Y-97048001D01*
X125099828Y-97048001D01*
X125106232Y-97046285D01*
X125369290Y-97046285D01*
X125379022Y-97048001D01*
G37*
G36*
X127319022Y-97048001D02*
G01*
X127319610Y-97048001D01*
X127324203Y-97048915D01*
X127389163Y-97060369D01*
X127393040Y-97062607D01*
X127397061Y-97063407D01*
X127413815Y-97074602D01*
X127449786Y-97095369D01*
X127456026Y-97102805D01*
X127462721Y-97107279D01*
X127474222Y-97124492D01*
X127491137Y-97144651D01*
X127493444Y-97153259D01*
X127506593Y-97172939D01*
X127521999Y-97250390D01*
X127521999Y-97259828D01*
X127523715Y-97266232D01*
X127523715Y-97579290D01*
X127521999Y-97589022D01*
X127521999Y-97589610D01*
X127521085Y-97594203D01*
X127509631Y-97659163D01*
X127507393Y-97663040D01*
X127506593Y-97667061D01*
X127495398Y-97683815D01*
X127474631Y-97719786D01*
X127467194Y-97726026D01*
X127462721Y-97732721D01*
X127445511Y-97744220D01*
X127425350Y-97761137D01*
X127416740Y-97763444D01*
X127397061Y-97776593D01*
X127319610Y-97791999D01*
X127310172Y-97791999D01*
X127303768Y-97793715D01*
X127040710Y-97793715D01*
X127030978Y-97791999D01*
X127030390Y-97791999D01*
X127025797Y-97791085D01*
X126960837Y-97779631D01*
X126956960Y-97777393D01*
X126952939Y-97776593D01*
X126936185Y-97765398D01*
X126900214Y-97744631D01*
X126893974Y-97737194D01*
X126887279Y-97732721D01*
X126875780Y-97715511D01*
X126858863Y-97695350D01*
X126856556Y-97686740D01*
X126843407Y-97667061D01*
X126828001Y-97589610D01*
X126828001Y-97580172D01*
X126826285Y-97573768D01*
X126826285Y-97260710D01*
X126828001Y-97250978D01*
X126828001Y-97250390D01*
X126828915Y-97245797D01*
X126840369Y-97180837D01*
X126842607Y-97176960D01*
X126843407Y-97172939D01*
X126854602Y-97156185D01*
X126875369Y-97120214D01*
X126882805Y-97113974D01*
X126887279Y-97107279D01*
X126904492Y-97095778D01*
X126924651Y-97078863D01*
X126933259Y-97076556D01*
X126952939Y-97063407D01*
X127030390Y-97048001D01*
X127039828Y-97048001D01*
X127046232Y-97046285D01*
X127309290Y-97046285D01*
X127319022Y-97048001D01*
G37*
G36*
X128289022Y-97048001D02*
G01*
X128289610Y-97048001D01*
X128294203Y-97048915D01*
X128359163Y-97060369D01*
X128363040Y-97062607D01*
X128367061Y-97063407D01*
X128383815Y-97074602D01*
X128419786Y-97095369D01*
X128426026Y-97102805D01*
X128432721Y-97107279D01*
X128444222Y-97124492D01*
X128461137Y-97144651D01*
X128463444Y-97153259D01*
X128476593Y-97172939D01*
X128491999Y-97250390D01*
X128491999Y-97259828D01*
X128493715Y-97266232D01*
X128493715Y-97579290D01*
X128491999Y-97589022D01*
X128491999Y-97589610D01*
X128491085Y-97594203D01*
X128479631Y-97659163D01*
X128477393Y-97663040D01*
X128476593Y-97667061D01*
X128465398Y-97683815D01*
X128444631Y-97719786D01*
X128437194Y-97726026D01*
X128432721Y-97732721D01*
X128415511Y-97744220D01*
X128395350Y-97761137D01*
X128386740Y-97763444D01*
X128367061Y-97776593D01*
X128289610Y-97791999D01*
X128280172Y-97791999D01*
X128273768Y-97793715D01*
X128010710Y-97793715D01*
X128000978Y-97791999D01*
X128000390Y-97791999D01*
X127995797Y-97791085D01*
X127930837Y-97779631D01*
X127926960Y-97777393D01*
X127922939Y-97776593D01*
X127906185Y-97765398D01*
X127870214Y-97744631D01*
X127863974Y-97737194D01*
X127857279Y-97732721D01*
X127845780Y-97715511D01*
X127828863Y-97695350D01*
X127826556Y-97686740D01*
X127813407Y-97667061D01*
X127798001Y-97589610D01*
X127798001Y-97580172D01*
X127796285Y-97573768D01*
X127796285Y-97260710D01*
X127798001Y-97250978D01*
X127798001Y-97250390D01*
X127798915Y-97245797D01*
X127810369Y-97180837D01*
X127812607Y-97176960D01*
X127813407Y-97172939D01*
X127824602Y-97156185D01*
X127845369Y-97120214D01*
X127852805Y-97113974D01*
X127857279Y-97107279D01*
X127874492Y-97095778D01*
X127894651Y-97078863D01*
X127903259Y-97076556D01*
X127922939Y-97063407D01*
X128000390Y-97048001D01*
X128009828Y-97048001D01*
X128016232Y-97046285D01*
X128279290Y-97046285D01*
X128289022Y-97048001D01*
G37*
G36*
X160159022Y-96728001D02*
G01*
X160159610Y-96728001D01*
X160164203Y-96728915D01*
X160229163Y-96740369D01*
X160233040Y-96742607D01*
X160237061Y-96743407D01*
X160253815Y-96754602D01*
X160289786Y-96775369D01*
X160296026Y-96782805D01*
X160302721Y-96787279D01*
X160314222Y-96804492D01*
X160331137Y-96824651D01*
X160333444Y-96833259D01*
X160346593Y-96852939D01*
X160361999Y-96930390D01*
X160361999Y-96939828D01*
X160363715Y-96946232D01*
X160363715Y-97259290D01*
X160361999Y-97269022D01*
X160361999Y-97269610D01*
X160361085Y-97274203D01*
X160349631Y-97339163D01*
X160347393Y-97343040D01*
X160346593Y-97347061D01*
X160335398Y-97363815D01*
X160314631Y-97399786D01*
X160307194Y-97406026D01*
X160302721Y-97412721D01*
X160285511Y-97424220D01*
X160265350Y-97441137D01*
X160256740Y-97443444D01*
X160237061Y-97456593D01*
X160159610Y-97471999D01*
X160150172Y-97471999D01*
X160143768Y-97473715D01*
X159880710Y-97473715D01*
X159870978Y-97471999D01*
X159870390Y-97471999D01*
X159865797Y-97471085D01*
X159800837Y-97459631D01*
X159796960Y-97457393D01*
X159792939Y-97456593D01*
X159776185Y-97445398D01*
X159740214Y-97424631D01*
X159733974Y-97417194D01*
X159727279Y-97412721D01*
X159715780Y-97395511D01*
X159698863Y-97375350D01*
X159696556Y-97366740D01*
X159683407Y-97347061D01*
X159668001Y-97269610D01*
X159668001Y-97260172D01*
X159666285Y-97253768D01*
X159666285Y-96940710D01*
X159668001Y-96930978D01*
X159668001Y-96930390D01*
X159668915Y-96925797D01*
X159680369Y-96860837D01*
X159682607Y-96856960D01*
X159683407Y-96852939D01*
X159694602Y-96836185D01*
X159715369Y-96800214D01*
X159722805Y-96793974D01*
X159727279Y-96787279D01*
X159744492Y-96775778D01*
X159764651Y-96758863D01*
X159773259Y-96756556D01*
X159792939Y-96743407D01*
X159870390Y-96728001D01*
X159879828Y-96728001D01*
X159886232Y-96726285D01*
X160149290Y-96726285D01*
X160159022Y-96728001D01*
G37*
G36*
X161129022Y-96728001D02*
G01*
X161129610Y-96728001D01*
X161134203Y-96728915D01*
X161199163Y-96740369D01*
X161203040Y-96742607D01*
X161207061Y-96743407D01*
X161223815Y-96754602D01*
X161259786Y-96775369D01*
X161266026Y-96782805D01*
X161272721Y-96787279D01*
X161284222Y-96804492D01*
X161301137Y-96824651D01*
X161303444Y-96833259D01*
X161316593Y-96852939D01*
X161331999Y-96930390D01*
X161331999Y-96939828D01*
X161333715Y-96946232D01*
X161333715Y-97259290D01*
X161331999Y-97269022D01*
X161331999Y-97269610D01*
X161331085Y-97274203D01*
X161319631Y-97339163D01*
X161317393Y-97343040D01*
X161316593Y-97347061D01*
X161305398Y-97363815D01*
X161284631Y-97399786D01*
X161277194Y-97406026D01*
X161272721Y-97412721D01*
X161255511Y-97424220D01*
X161235350Y-97441137D01*
X161226740Y-97443444D01*
X161207061Y-97456593D01*
X161129610Y-97471999D01*
X161120172Y-97471999D01*
X161113768Y-97473715D01*
X160850710Y-97473715D01*
X160840978Y-97471999D01*
X160840390Y-97471999D01*
X160835797Y-97471085D01*
X160770837Y-97459631D01*
X160766960Y-97457393D01*
X160762939Y-97456593D01*
X160746185Y-97445398D01*
X160710214Y-97424631D01*
X160703974Y-97417194D01*
X160697279Y-97412721D01*
X160685780Y-97395511D01*
X160668863Y-97375350D01*
X160666556Y-97366740D01*
X160653407Y-97347061D01*
X160638001Y-97269610D01*
X160638001Y-97260172D01*
X160636285Y-97253768D01*
X160636285Y-96940710D01*
X160638001Y-96930978D01*
X160638001Y-96930390D01*
X160638915Y-96925797D01*
X160650369Y-96860837D01*
X160652607Y-96856960D01*
X160653407Y-96852939D01*
X160664602Y-96836185D01*
X160685369Y-96800214D01*
X160692805Y-96793974D01*
X160697279Y-96787279D01*
X160714492Y-96775778D01*
X160734651Y-96758863D01*
X160743259Y-96756556D01*
X160762939Y-96743407D01*
X160840390Y-96728001D01*
X160849828Y-96728001D01*
X160856232Y-96726285D01*
X161119290Y-96726285D01*
X161129022Y-96728001D01*
G37*
G36*
X146519899Y-95401959D02*
G01*
X146536769Y-95413231D01*
X146548041Y-95430101D01*
X146554448Y-95462312D01*
X146554448Y-96587688D01*
X146551999Y-96600000D01*
X146548041Y-96619899D01*
X146536769Y-96636769D01*
X146519899Y-96648041D01*
X146500000Y-96651999D01*
X146487688Y-96654448D01*
X145512312Y-96654448D01*
X145480101Y-96648041D01*
X145463231Y-96636769D01*
X145451959Y-96619899D01*
X145445552Y-96587688D01*
X145445552Y-95462312D01*
X145451959Y-95430101D01*
X145463231Y-95413231D01*
X145480101Y-95401959D01*
X145512312Y-95395552D01*
X146487688Y-95395552D01*
X146519899Y-95401959D01*
G37*
G36*
X145119899Y-95401959D02*
G01*
X145136769Y-95413231D01*
X145148041Y-95430101D01*
X145154448Y-95462312D01*
X145154448Y-96587688D01*
X145151999Y-96600000D01*
X145148041Y-96619899D01*
X145136769Y-96636769D01*
X145119899Y-96648041D01*
X145100000Y-96651999D01*
X145087688Y-96654448D01*
X144112312Y-96654448D01*
X144080101Y-96648041D01*
X144063231Y-96636769D01*
X144051959Y-96619899D01*
X144045552Y-96587688D01*
X144045552Y-95462312D01*
X144051959Y-95430101D01*
X144063231Y-95413231D01*
X144080101Y-95401959D01*
X144112312Y-95395552D01*
X145087688Y-95395552D01*
X145119899Y-95401959D01*
G37*
G36*
X136204824Y-93534802D02*
G01*
X136232128Y-93553046D01*
X136851118Y-94172036D01*
X136869362Y-94199340D01*
X136873320Y-94219239D01*
X136869362Y-94239138D01*
X136851118Y-94266442D01*
X135666442Y-95451118D01*
X135656009Y-95458089D01*
X135656008Y-95458090D01*
X135639138Y-95469362D01*
X135619239Y-95473320D01*
X135599340Y-95469362D01*
X135572036Y-95451118D01*
X134953046Y-94832128D01*
X134934802Y-94804824D01*
X134930844Y-94784925D01*
X134934802Y-94765026D01*
X134953046Y-94737722D01*
X136137722Y-93553046D01*
X136165026Y-93534802D01*
X136184925Y-93530844D01*
X136204824Y-93534802D01*
G37*
G36*
X133800660Y-91130638D02*
G01*
X133827964Y-91148882D01*
X134446954Y-91767872D01*
X134465198Y-91795176D01*
X134469156Y-91815075D01*
X134465198Y-91834974D01*
X134446954Y-91862278D01*
X133262278Y-93046954D01*
X133251845Y-93053925D01*
X133251844Y-93053926D01*
X133234974Y-93065198D01*
X133215075Y-93069156D01*
X133195176Y-93065198D01*
X133167872Y-93046954D01*
X132548882Y-92427964D01*
X132530638Y-92400660D01*
X132526680Y-92380761D01*
X132530638Y-92360862D01*
X132548882Y-92333558D01*
X133733558Y-91148882D01*
X133760862Y-91130638D01*
X133780761Y-91126680D01*
X133800660Y-91130638D01*
G37*
G36*
X157756016Y-90622433D02*
G01*
X157795955Y-90622433D01*
X157856135Y-90633044D01*
X157924488Y-90640289D01*
X157964278Y-90652113D01*
X157998600Y-90658165D01*
X158060681Y-90680760D01*
X158131668Y-90701855D01*
X158164002Y-90718366D01*
X158191967Y-90728544D01*
X158253434Y-90764032D01*
X158324158Y-90800146D01*
X158348820Y-90819104D01*
X158370171Y-90831431D01*
X158428220Y-90880139D01*
X158495514Y-90931869D01*
X158512834Y-90951138D01*
X158527802Y-90963698D01*
X158579484Y-91025291D01*
X158639996Y-91092614D01*
X158650807Y-91110291D01*
X158660069Y-91121329D01*
X158702408Y-91194662D01*
X158752764Y-91276997D01*
X158758314Y-91291493D01*
X158762956Y-91299533D01*
X158793069Y-91382269D01*
X158830044Y-91478843D01*
X158831919Y-91489010D01*
X158833335Y-91492900D01*
X158848528Y-91579065D01*
X158869245Y-91691391D01*
X158869067Y-91697970D01*
X158869067Y-91901319D01*
X158862568Y-91938177D01*
X158861736Y-91968922D01*
X158844634Y-92039882D01*
X158833335Y-92103964D01*
X158821068Y-92137669D01*
X158811097Y-92179040D01*
X158783515Y-92240844D01*
X158762956Y-92297331D01*
X158742477Y-92332802D01*
X158723015Y-92376411D01*
X158687623Y-92427811D01*
X158660069Y-92475535D01*
X158630484Y-92510794D01*
X158600440Y-92554426D01*
X158559991Y-92594805D01*
X158527802Y-92633166D01*
X158488667Y-92666004D01*
X158447477Y-92707122D01*
X158404655Y-92736498D01*
X158370171Y-92765433D01*
X158321578Y-92793488D01*
X158269249Y-92829386D01*
X158226559Y-92848348D01*
X158191967Y-92868320D01*
X158134538Y-92889222D01*
X158071724Y-92917123D01*
X158031353Y-92926778D01*
X157998600Y-92938699D01*
X157933534Y-92950172D01*
X157861518Y-92967395D01*
X157825261Y-92969264D01*
X157795955Y-92974431D01*
X157724993Y-92974431D01*
X157645671Y-92978519D01*
X157614829Y-92974431D01*
X157590181Y-92974431D01*
X157515566Y-92961274D01*
X157431411Y-92950120D01*
X157406774Y-92942091D01*
X157387536Y-92938699D01*
X157311987Y-92911202D01*
X157225914Y-92883152D01*
X157207716Y-92873251D01*
X157194169Y-92868320D01*
X157120824Y-92825974D01*
X157036062Y-92779856D01*
X157024005Y-92770075D01*
X157015965Y-92765433D01*
X156948483Y-92708810D01*
X156868213Y-92643692D01*
X156861513Y-92635834D01*
X156858334Y-92633166D01*
X156802002Y-92566032D01*
X156727989Y-92479220D01*
X156626189Y-92302543D01*
X156623180Y-92297331D01*
X156623170Y-92297302D01*
X156620085Y-92291949D01*
X156583041Y-92187048D01*
X156552801Y-92103964D01*
X156551904Y-92098875D01*
X156548116Y-92088149D01*
X156532264Y-91987493D01*
X156517069Y-91901319D01*
X156517069Y-91891010D01*
X156514492Y-91874647D01*
X156517069Y-91779407D01*
X156517069Y-91695545D01*
X156519749Y-91680344D01*
X156520338Y-91658592D01*
X156539000Y-91571171D01*
X156552801Y-91492900D01*
X156559831Y-91473584D01*
X156565459Y-91447221D01*
X156597592Y-91369836D01*
X156623180Y-91299533D01*
X156636017Y-91277299D01*
X156648344Y-91247612D01*
X156691071Y-91181944D01*
X156726067Y-91121329D01*
X156745848Y-91097754D01*
X156766217Y-91066449D01*
X156816498Y-91013556D01*
X156858334Y-90963698D01*
X156885818Y-90940636D01*
X156915131Y-90909801D01*
X156969916Y-90870071D01*
X157015965Y-90831431D01*
X157051434Y-90810953D01*
X157090097Y-90782914D01*
X157146445Y-90756098D01*
X157194169Y-90728544D01*
X157237422Y-90712801D01*
X157285258Y-90690036D01*
X157340488Y-90675289D01*
X157387536Y-90658165D01*
X157437837Y-90649296D01*
X157494076Y-90634279D01*
X157545851Y-90630250D01*
X157590181Y-90622433D01*
X157646288Y-90622433D01*
X157709558Y-90617509D01*
X157756016Y-90622433D01*
G37*
G36*
X147569899Y-90551959D02*
G01*
X147586769Y-90563231D01*
X147598041Y-90580101D01*
X147604448Y-90612312D01*
X147604448Y-92387688D01*
X147601999Y-92400000D01*
X147598041Y-92419899D01*
X147586769Y-92436769D01*
X147569899Y-92448041D01*
X147550000Y-92451999D01*
X147537688Y-92454448D01*
X146562312Y-92454448D01*
X146530101Y-92448041D01*
X146513231Y-92436769D01*
X146501959Y-92419899D01*
X146495552Y-92387688D01*
X146495552Y-90612312D01*
X146501959Y-90580101D01*
X146513231Y-90563231D01*
X146530101Y-90551959D01*
X146562312Y-90545552D01*
X147537688Y-90545552D01*
X147569899Y-90551959D01*
G37*
G36*
X150069899Y-90551959D02*
G01*
X150086769Y-90563231D01*
X150098041Y-90580101D01*
X150104448Y-90612312D01*
X150104448Y-92387688D01*
X150101999Y-92400000D01*
X150098041Y-92419899D01*
X150086769Y-92436769D01*
X150069899Y-92448041D01*
X150050000Y-92451999D01*
X150037688Y-92454448D01*
X149062312Y-92454448D01*
X149030101Y-92448041D01*
X149013231Y-92436769D01*
X149001959Y-92419899D01*
X148995552Y-92387688D01*
X148995552Y-90612312D01*
X149001959Y-90580101D01*
X149013231Y-90563231D01*
X149030101Y-90551959D01*
X149062312Y-90545552D01*
X150037688Y-90545552D01*
X150069899Y-90551959D01*
G37*
M02*
